<svg id="Layer_1" data-name="Layer 1" xmlns="http://www.w3.org/2000/svg" width="128" height="128" viewBox="0 0 128 128"><title>Artboard 1</title><path d="M38.34,16.23H35.47l-1.14-3.61H29.09L28,16.23H25.2l5.09-16h2.8ZM33.48,9.92,31.67,4,29.9,9.92Z"/><path d="M39.94.27h5.24a8.17,8.17,0,0,1,3,.39,3.42,3.42,0,0,1,1.47,1.39,4.22,4.22,0,0,1,.6,2.24,4.24,4.24,0,0,1-.51,2.08,3.43,3.43,0,0,1-1.34,1.38,3.53,3.53,0,0,1,1.82,1.41,4.34,4.34,0,0,1,.66,2.44,5.05,5.05,0,0,1-.84,3,3.45,3.45,0,0,1-2,1.48,20.42,20.42,0,0,1-3.69.2H39.94Zm2.63,2.66V6.62h1.75a17.34,17.34,0,0,0,1.93-.06A1.63,1.63,0,0,0,47.31,6a1.94,1.94,0,0,0,.38-1.25,1.91,1.91,0,0,0-.31-1.15A1.28,1.28,0,0,0,46.63,3a16.37,16.37,0,0,0-2.53-.11Zm0,6.34v4.26H45a7.74,7.74,0,0,0,2.07-.17,1.52,1.52,0,0,0,.77-.66,2.31,2.31,0,0,0,.31-1.26,2.27,2.27,0,0,0-.33-1.28,1.71,1.71,0,0,0-.89-.7,8.62,8.62,0,0,0-2.25-.19Z"/><path d="M53.34.27h4.82a7.21,7.21,0,0,1,2.76.41,4.54,4.54,0,0,1,1.71,1.38,7.09,7.09,0,0,1,1.23,2.51,14,14,0,0,1,.44,3.84,12.45,12.45,0,0,1-.46,3.6,7.28,7.28,0,0,1-1.19,2.42,4.53,4.53,0,0,1-1.73,1.35,6.52,6.52,0,0,1-2.62.45h-5ZM56,3V13.53h2a5.1,5.1,0,0,0,1.84-.24,2.24,2.24,0,0,0,.94-.72,4.25,4.25,0,0,0,.6-1.53,12.72,12.72,0,0,0,.24-2.75,12.91,12.91,0,0,0-.24-2.8,3.78,3.78,0,0,0-.76-1.61,2.52,2.52,0,0,0-1.26-.77A10.82,10.82,0,0,0,57.18,3Z"/><path d="M66.69,16.23V.27h2.64v16Z"/><path d="M72,16.23V.27H76l2.38,10.9L80.73.27h4v16H82.24V3.66L79.63,16.23H77.09L74.5,3.66V16.23Z"/><path d="M87.43.27h2.5v2.2a6.7,6.7,0,0,1-.44,2.76,3.41,3.41,0,0,1-1.78,1.66l-.49-1.27a2.26,2.26,0,0,0,1.07-.83,3,3,0,0,0,.35-1.46H87.43Z"/><path d="M92.17,11l2.58-.31q.44,3.06,2.85,3.06a2.67,2.67,0,0,0,1.88-.63,2,2,0,0,0,.69-1.55,1.68,1.68,0,0,0-.24-.92,1.82,1.82,0,0,0-.73-.63,22.73,22.73,0,0,0-2.38-.82,8.13,8.13,0,0,1-2.47-1.11,4.15,4.15,0,0,1-1.24-1.57,4.77,4.77,0,0,1-.46-2.09,4.64,4.64,0,0,1,.59-2.35A3.84,3.84,0,0,1,94.88.53,5.67,5.67,0,0,1,97.46,0a5,5,0,0,1,3.6,1.25,5,5,0,0,1,1.37,3.58L99.79,5A2.85,2.85,0,0,0,99,3.18a2.39,2.39,0,0,0-1.64-.51,2.6,2.6,0,0,0-1.64.44,1.35,1.35,0,0,0-.58,1.11,1.39,1.39,0,0,0,.52,1.09,7.3,7.3,0,0,0,2.41,1A9.83,9.83,0,0,1,101,7.51a4.08,4.08,0,0,1,1.35,1.64,5.8,5.8,0,0,1,.47,2.44,5.05,5.05,0,0,1-1.28,3.5,5.15,5.15,0,0,1-4,1.41Q92.71,16.5,92.17,11Z"/><path d="M32.08,122.53l2.57-.31c.29,2,1.25,3.06,2.86,3.06a2.69,2.69,0,0,0,1.88-.63,2,2,0,0,0,.68-1.55,1.77,1.77,0,0,0-.23-.92,1.82,1.82,0,0,0-.73-.63,22.73,22.73,0,0,0-2.38-.82,8.13,8.13,0,0,1-2.47-1.11A4.15,4.15,0,0,1,33,118.05a4.78,4.78,0,0,1-.47-2.09,4.64,4.64,0,0,1,.6-2.35A3.84,3.84,0,0,1,34.79,112a5.67,5.67,0,0,1,2.58-.53,4.53,4.53,0,0,1,5,4.83l-2.65.14a2.79,2.79,0,0,0-.75-1.79,2.39,2.39,0,0,0-1.64-.51,2.6,2.6,0,0,0-1.64.44,1.38,1.38,0,0,0-.06,2.2,7.2,7.2,0,0,0,2.41,1A9.83,9.83,0,0,1,40.89,119a4.08,4.08,0,0,1,1.35,1.64,5.8,5.8,0,0,1,.47,2.44,5.05,5.05,0,0,1-1.28,3.5,5.15,5.15,0,0,1-4,1.41Q32.61,128,32.08,122.53Z"/><path d="M48.1,127.73V114.47H44.22v-2.7H54.61v2.7H50.74v13.26Z"/><path d="M55.69,119.85a11.22,11.22,0,0,1,.85-4.7,6.36,6.36,0,0,1,2.2-2.75,5.86,5.86,0,0,1,3.3-.9,5.66,5.66,0,0,1,4.58,2.14A11.45,11.45,0,0,1,66.51,126a5.46,5.46,0,0,1-4.46,2,5.56,5.56,0,0,1-4.49-2A9.42,9.42,0,0,1,55.69,119.85Zm2.72-.11a6.76,6.76,0,0,0,1.05,4.13,3.13,3.13,0,0,0,5.18,0,7,7,0,0,0,1-4.2,6.88,6.88,0,0,0-1-4.1,3.24,3.24,0,0,0-5.24,0A6.85,6.85,0,0,0,58.41,119.74Z"/><path d="M70.69,127.73v-16h5.56a7.81,7.81,0,0,1,3,.43,3.49,3.49,0,0,1,1.51,1.49,5.22,5.22,0,0,1,.58,2.55,4.73,4.73,0,0,1-.89,3,4,4,0,0,1-2.56,1.44A6.44,6.44,0,0,1,79.34,122a18.91,18.91,0,0,1,1.51,2.6l1.59,3.11H79.29l-1.91-3.47A22.24,22.24,0,0,0,76,121.9a1.94,1.94,0,0,0-.78-.65,3.6,3.6,0,0,0-1.33-.18h-.54v6.66Zm2.63-9.21h2a9.37,9.37,0,0,0,2.28-.16,1.44,1.44,0,0,0,.8-.63,2.4,2.4,0,0,0,.3-1.28,2.23,2.23,0,0,0-.3-1.22,1.6,1.6,0,0,0-.83-.64,10.42,10.42,0,0,0-2.14-.12H73.32Z"/><path d="M84.12,127.73v-16h2.64v7.1l5.34-7.1h3.56L90.73,118l5.19,9.74H92.51l-3.61-7.5-2.14,2.68v4.82Z"/><path d="M24.32,72l-.07-.13a.67.67,0,0,1-.06-.15.75.75,0,0,1,0-.23.65.65,0,0,1,.07-.21,1.76,1.76,0,0,1,.35-.43l.36-.31c.25-.19.5-.37.76-.54s.51-.33.78-.48a3.22,3.22,0,0,0,.35-.21A.71.71,0,0,0,27,69a3.27,3.27,0,0,1,.34-.88,3.74,3.74,0,0,1,.41-.55l-.12-.13-.09,0-.28.12-.55.25-1.09.53c-.72.36-1.44.73-2.14,1.11a12.4,12.4,0,0,0-2,1.29,8.15,8.15,0,0,0-.82.84c-.26.29-.51.6-.74.91a8.68,8.68,0,0,0-.63,1,2.29,2.29,0,0,0-.32,1s0,.06,0,.09a.17.17,0,0,1,0,.05.3.3,0,0,0,.09,0,1.83,1.83,0,0,0,.51,0,9.59,9.59,0,0,0,1.14-.3c.75-.25,1.5-.55,2.24-.87.36-.17.73-.33,1.09-.51l.54-.27.21-.11a1.37,1.37,0,0,1-.18-.16A2,2,0,0,1,24.32,72Z"/><path d="M41.21,71.44a3.48,3.48,0,0,1-.64-.14,1.07,1.07,0,0,1-.51-.34,4.88,4.88,0,0,1-1.24.3c-.44,0-.88,0-1.32,0s-.88,0-1.32-.11l-.66-.11a3.18,3.18,0,0,1-.33-.09l-1.43,1c-.66.46-1.34.93-2,1.35a7.87,7.87,0,0,1-2.36.85,9,9,0,0,1-2.48.2,1.73,1.73,0,0,1-.34-.09.8.8,0,0,1-.21-.15c-.41.54-.81,1.06-1.19,1.61A7.64,7.64,0,0,0,27,75.61,17.61,17.61,0,0,0,29,75c.66-.26,1.32-.54,2-.82l2-.89.06,0h.08c.78,0,1.57,0,2.35,0,.4,0,.79,0,1.18,0s.78-.07,1.16-.11a9.11,9.11,0,0,0,2.26-.55,8.65,8.65,0,0,0,1.84-1.05A5.19,5.19,0,0,1,41.21,71.44Z"/><path d="M28.64,67.43a3.32,3.32,0,0,0,1.16-.25,10.68,10.68,0,0,0,1.13-.55c.73-.41,1.43-.89,2.14-1.37s1.42-1,2.15-1.41c.37-.22.74-.44,1.14-.63A6.44,6.44,0,0,1,37,63c.19-.07.4-.13.59-.21a13.82,13.82,0,0,0,2.26-1.17c.54-.34,1.06-.7,1.57-1.08a1.47,1.47,0,0,1,.38-.56,1.92,1.92,0,0,0-.17.39l.31-.23c.39-.3.76-.63,1.14-.95-.61.29-1.23.58-1.87.83a6.68,6.68,0,0,1-1.58.43,1.43,1.43,0,0,1-1-.18,1.14,1.14,0,0,1-.11-.11.45.45,0,0,1-.12-.21.56.56,0,0,1,0-.4,1.65,1.65,0,0,1,.29-.4,9,9,0,0,1,1.29-1c.44-.29.89-.57,1.33-.83.89-.55,1.8-1.07,2.68-1.62l.87-.55c-1.5.65-3,1.3-4.46,2-.78.36-1.54.73-2.29,1.13a11.2,11.2,0,0,0-1.07.64l-.23.17-.26.21-.51.4c-1.37,1-2.77,2-4.16,3l-2.1,1.47a6.37,6.37,0,0,0-1.75,1.72,1.78,1.78,0,0,0-.23.51,1,1,0,0,0,0,.51A.79.79,0,0,0,28.64,67.43Z"/><path d="M55.63,76.26l-.25-.05h0l0,.06-.19.31-.35.65c-.37.7-.7,1.42-1.07,2.12-.25.48-.49,1-.7,1.45l-.16.4h0a5.63,5.63,0,0,0-.84.85,4.19,4.19,0,0,0-.64,1c-.05.09-.08.19-.12.28l-.08.28-.13.59-.26,1.19h0v0l-6,14.57a.66.66,0,0,1-.84.37l-2-.7a.41.41,0,0,0-.53.21l-.55,1.32,4.47.88,3.52,2.1a2.36,2.36,0,0,0,1.22.31h2a1.49,1.49,0,0,0-.33-1c-.37-.38-2.51-.38-2.51-.38l-2.69-2a.57.57,0,0,1-.18-.67l2.91-7.19,3-7.39h0a11.1,11.1,0,0,1,.61-1c.21-.32.46-.65.69-.94a4.41,4.41,0,0,0,.51-1,8.63,8.63,0,0,0,.35-1.09v0h0L55.82,79l.65-1.37L56.8,77l.17-.34,0-.1-.9-.17Z"/><path d="M57.56,71.23a11.63,11.63,0,0,1-1.18,0,6.1,6.1,0,0,1-.07,2A8.31,8.31,0,0,1,55.57,75a4.43,4.43,0,0,0-.15.43s0,.06,0,.07,0,0,0,0l0,.06.06,0,.24.05.48.09,1,.17.43.09a.11.11,0,0,0,.1-.06,12.3,12.3,0,0,1,.36-1.39,13.11,13.11,0,0,1,.51-1.41,8.9,8.9,0,0,1,.71-1.33A4.32,4.32,0,0,1,60,71c-.24.06-.49.1-.74.14A14,14,0,0,1,57.56,71.23Z"/><path d="M74.22,76.67l.68-.21.16,0,0,0a.11.11,0,0,0,0-.08c-.16-.67-.27-1.34-.37-2a13.1,13.1,0,0,1-.17-2.09c0-.71,0-1.38.07-2.08,0-.52,0-1,.09-1.55l-.13.05c-.63.25-1.25.49-1.89.71a15.41,15.41,0,0,1-1.94.54c-.24,0-.48.08-.71.11a14.22,14.22,0,0,1,1.12,2,22.68,22.68,0,0,1,1,2.71c.15.46.28.93.41,1.39.06.24.12.48.17.71l0,.18a.13.13,0,0,0,0,.06.12.12,0,0,0,.08,0h0l.17-.06.34-.11Z"/><path d="M67.88,52.34a2.51,2.51,0,0,0-.18.78.4.4,0,0,0,.08.29c0,.05.12.07.25.08a3.51,3.51,0,0,0,.77-.09,11,11,0,0,0,1.57-.5c.26-.1.52-.2.76-.32a3.09,3.09,0,0,0,.64-.38l.13-.12.16,0a1.81,1.81,0,0,0,.69,0,4.06,4.06,0,0,0,.73-.22,5.78,5.78,0,0,0,.72-.31,7,7,0,0,0,.67-.4l.1-.07H75a.84.84,0,0,0,.33,0l.37-.12c.26-.09.51-.19.76-.3q.7-.3,1.38-.66A9.15,9.15,0,0,1,79,49.33a12.25,12.25,0,0,1,1.8-.71,6.23,6.23,0,0,1,1.93-.3,2.17,2.17,0,0,1,.5.08.24.24,0,0,1,.09,0c-.35-.28-.7-.54-1.06-.79A10.55,10.55,0,0,0,81.22,47L81,46.88l-.14-.06-.12,0a4.8,4.8,0,0,0-.57-.11c-.41-.06-.82-.08-1.24-.1s-.83,0-1.25,0c-.84,0-1.68,0-2.52,0a44.44,44.44,0,0,0-5,.5c-.83.13-1.66.3-2.47.51a10.81,10.81,0,0,0-2.08.77c-.35.34-.66.7-1,1.06a16,16,0,0,0-1.06,1.43,4.33,4.33,0,0,0-.38.74.73.73,0,0,0-.06.27h0s.15.16.22.25a6.66,6.66,0,0,0,.59.66.93.93,0,0,0,.42.21,2.2,2.2,0,0,0,.26-.15l.06,0h0a4.36,4.36,0,0,0,1.09-.24c.37-.12.74-.27,1.1-.42.72-.3,1.43-.67,2.14-1-.27.18-.54.36-.82.53A7.33,7.33,0,0,0,67.88,52.34Z"/><path d="M27.36,72.43l.4-.11.4-.16a3.78,3.78,0,0,0,.7-.45,8.21,8.21,0,0,0,1.25-1.25A17.77,17.77,0,0,0,31.19,69a10.09,10.09,0,0,1-.83,1.64,7.07,7.07,0,0,1-1.18,1.45,3.86,3.86,0,0,1-.78.58l-.44.19L27.5,73a3.54,3.54,0,0,1-1.62,0,.85.85,0,0,0,.14.53,1.48,1.48,0,0,0,.39.4.8.8,0,0,0,.24.13,1.31,1.31,0,0,0,.25,0A6.73,6.73,0,0,0,28.07,74c.39-.07.78-.15,1.17-.25a8.06,8.06,0,0,0,2.16-.89c.68-.42,1.34-.88,2-1.35,1.33-.93,2.6-1.93,4-2.78s2.79-1.66,4.22-2.43c-1.29,1-2.62,1.93-4,2.86-.66.44-1.3.93-2,1.42l-.35.26.18,0,.64.1c.44,0,.87.06,1.3.07a11.22,11.22,0,0,0,1.3,0,4.72,4.72,0,0,0,1.25-.27l.08,0,0,.07a.71.71,0,0,0,.46.29,2.9,2.9,0,0,0,.6.11A8.11,8.11,0,0,0,43.71,71a5.53,5.53,0,0,0,1.17-.38l.12-.06.1.11a.78.78,0,0,0,.42.24,2.44,2.44,0,0,0,.55.11,7.5,7.5,0,0,0,1.16,0,9,9,0,0,0,1.16-.16,5.32,5.32,0,0,0,1.09-.33l.15-.07.12.12a2.6,2.6,0,0,0,.91.51,4,4,0,0,0,1.07.21,3.39,3.39,0,0,0,2.05-.57l0,0h.07c.58-.1,1.19-.26,1.78-.42s1.18-.34,1.77-.52,1.18-.38,1.75-.59c.29-.11.58-.22.85-.34a4.13,4.13,0,0,0,.76-.39l.1-.07H61c.45,0,.92,0,1.39,0s.94,0,1.41-.1.93-.12,1.38-.21a4.41,4.41,0,0,0,1.24-.42l.28-.18.16.28a.7.7,0,0,0,.27.16,2.72,2.72,0,0,0,.45.1,5.63,5.63,0,0,0,1,0,9.45,9.45,0,0,0,2-.33,10,10,0,0,0,1.92-.75c.43-.21.84-.44,1.26-.67a6,6,0,0,1-1,0,5.07,5.07,0,0,1-1.19-.3,1.88,1.88,0,0,1-.74.66,3.7,3.7,0,0,1-1.06.32,3.82,3.82,0,0,1-1.12,0,1.71,1.71,0,0,1-1-.47l-.12.09a2,2,0,0,1-.52.26,4.72,4.72,0,0,1-1.08.26,7.48,7.48,0,0,1-2.06,0,5.38,5.38,0,0,1-1.73.75,2.57,2.57,0,0,1-1.07,0,2,2,0,0,1-.79-.38,4.52,4.52,0,0,1-1.56.54,2,2,0,0,1-1-.12,2.25,2.25,0,0,1-.68-.41,4.46,4.46,0,0,1-1.87.59,2.6,2.6,0,0,1-1.1-.13,2.07,2.07,0,0,1-.84-.56,5.89,5.89,0,0,1-1,.26,5.61,5.61,0,0,1-1.16.07,4.44,4.44,0,0,1-1.14-.18,2.92,2.92,0,0,1-1-.53,3.37,3.37,0,0,1-1.12.33,1.73,1.73,0,0,1-.64,0,.81.81,0,0,1-.31-.18.18.18,0,0,1-.06-.09l-.37.3a2.91,2.91,0,0,1-.67.38,3.06,3.06,0,0,1-1.49.1,3.67,3.67,0,0,1-.71-.13,1.44,1.44,0,0,1-.38-.18l-.09-.09L43,67.19a.68.68,0,0,1,0-.14s0-.08,0-.12a1,1,0,0,1,.19-.36,2.62,2.62,0,0,1,.22-.25,2.37,2.37,0,0,1-.89-.12,4.63,4.63,0,0,1-.9-.42l-.21-.15a1,1,0,0,1-.23-.22A.89.89,0,0,1,41,64.8a1.54,1.54,0,0,1,.5-.92,3.49,3.49,0,0,1,.77-.57c-.18.26-.37.5-.52.76a1.41,1.41,0,0,0-.26.74c0,.22.13.3.42.45a5.48,5.48,0,0,0,.79.33,2.2,2.2,0,0,0,.78.13,1.21,1.21,0,0,0,.34-.08l.41-.2c.54-.28,1.09-.57,1.68-.81a9.79,9.79,0,0,1-1.43,1.23,2.7,2.7,0,0,1-.39.27,1.46,1.46,0,0,1-.44.16l-.09.13a1.14,1.14,0,0,0-.26.55c0,.08,0,.1.08.13a.73.73,0,0,0,.25.08,4.63,4.63,0,0,0,.65,0,3.06,3.06,0,0,0,1.24-.17,3.59,3.59,0,0,0,1-.75c.3-.3.59-.66.89-1l.88-1.05c.59-.7,1.19-1.4,1.83-2.07a25.69,25.69,0,0,1-1.43,2.37A18,18,0,0,1,47,66.76l0,0,.08.07a.57.57,0,0,0,.22.11,1.44,1.44,0,0,0,.55,0,2.56,2.56,0,0,0,1.11-.3l.06,0h0c.5-.44,1-.88,1.46-1.33s1.12-1,1.66-1.57,1.1-1.07,1.64-1.61c.26-.27.53-.55.78-.83a5.7,5.7,0,0,0,.71-.91,3.47,3.47,0,0,1-.46,1.09,9.2,9.2,0,0,1-.66,1,16.33,16.33,0,0,1-1.57,1.75,17.33,17.33,0,0,1-1.79,1.5,9.52,9.52,0,0,1-1.68,1,3.29,3.29,0,0,0,2,.58,5.74,5.74,0,0,0,2-.37c.47-.33.93-.66,1.38-1s1-.79,1.45-1.21.93-.86,1.38-1.31.9-.91,1.37-1.37a8.07,8.07,0,0,1-1,1.7,10.12,10.12,0,0,1-1.33,1.45,9.6,9.6,0,0,1-1.6,1.16,7.69,7.69,0,0,1-1.28.57h0a1.89,1.89,0,0,0,1.7.55,4.51,4.51,0,0,0,1.81-.69l.12-.07c.27-.24.55-.45.83-.67s.77-.61,1.14-.92.72-.65,1.06-1,.69-.73,1.09-1.07a6.4,6.4,0,0,1-.7,1.38,5.78,5.78,0,0,1-1,1.17,6.17,6.17,0,0,1-1.29.86,5.33,5.33,0,0,1-.85.37,1.68,1.68,0,0,0,.62.38,1.78,1.78,0,0,0,.73.06,4.56,4.56,0,0,0,1.51-.59l.21-.12,0,0,.6-.49c.38-.29.76-.56,1.14-.83a12.61,12.61,0,0,0,1.08-.85c.35-.3.68-.63,1.06-1a4.43,4.43,0,0,1-.7,1.3,4.93,4.93,0,0,1-1.07,1,9.26,9.26,0,0,1-1.25.73c-.21.11-.42.2-.63.29a1.22,1.22,0,0,0,.59.29,1.85,1.85,0,0,0,.81,0,4.83,4.83,0,0,0,1.63-.69l.1-.07h0l.41-.28c.36-.26.71-.54,1.06-.82s.68-.56,1-.87.67-.61,1-.92a4.63,4.63,0,0,1-.67,1.26,5.53,5.53,0,0,1-2.09,1.73,7.28,7.28,0,0,0,1.32,0,4.31,4.31,0,0,0,1-.2,2.32,2.32,0,0,0,.42-.19l.16-.13s.08-.09.17-.11a.39.39,0,0,1,.26,0h0a12.42,12.42,0,0,1,1.87-1.5,7.72,7.72,0,0,0,1-.76c.31-.28.61-.59,1-.87a4.16,4.16,0,0,1-.58,1.2,4,4,0,0,1-1,1,8.58,8.58,0,0,1-1.14.65,8,8,0,0,1-1,.39h0s0,0,0,0h0l0,0a1.4,1.4,0,0,0,.76.38,3.49,3.49,0,0,0,1,0,3,3,0,0,0,1-.25,1.44,1.44,0,0,0,.69-.59l.08-.16.15.08.15.06.67-.49c.37-.25.72-.5,1-.77a6.24,6.24,0,0,0,.89-.89,12.37,12.37,0,0,0,.74-1.1,3,3,0,0,1-.32,1.37,3.39,3.39,0,0,1-.91,1.11,4.67,4.67,0,0,1-1.21.72l-.54.2c.23.07.47.13.71.18a6.23,6.23,0,0,0,1.3.11h.09l.2-.12a18.82,18.82,0,0,0,3.41-2.43,6.06,6.06,0,0,0,.68-.76l.3-.44c.1-.15.21-.3.32-.44a15.86,15.86,0,0,1,1.49-1.57c.53-.49,1.07-1,1.57-1.45.12-.12.24-.24.35-.37a2.43,2.43,0,0,0,.14-.2l.14-.23c.18-.3.35-.61.52-.92a13.79,13.79,0,0,0,.87-1.92,5.2,5.2,0,0,0,.27-1,1.69,1.69,0,0,0,0-.5,1.4,1.4,0,0,0-.14-.47,6,6,0,0,0-1.3-1.62,4.35,4.35,0,0,0-1.79-1,1.21,1.21,0,0,0-.5,0l-.53.06c-.36,0-.71.06-1.07.07a9.55,9.55,0,0,1-1.07,0l-.53,0a1.86,1.86,0,0,1-.34-.05l-.58.37c-.24.15-.48.28-.74.41l-.4.17a1.91,1.91,0,0,1-.38.1,4,4,0,0,1-.65.45,7.79,7.79,0,0,1-.76.39,4.12,4.12,0,0,1-.84.27,2.53,2.53,0,0,1-.78,0c-.1.08-.2.13-.29.19l-.4.2a8.18,8.18,0,0,1-.82.32,8.71,8.71,0,0,1-1.69.42,2.83,2.83,0,0,1-.92,0,.72.72,0,0,1-.49-.27.76.76,0,0,1-.1-.53,2.73,2.73,0,0,1,.33-.84,5.53,5.53,0,0,1,.43-.61l-.14.08c-.33.21-.67.41-1,.6a12,12,0,0,1-1.08.53,5,5,0,0,1-1.12.33,5.65,5.65,0,0,1-2.49.92,4.84,4.84,0,0,1-1.37,0,6.31,6.31,0,0,1-1.2-.34c-.47.13-.92.32-1.43.46a2.9,2.9,0,0,1-.89.12,2.27,2.27,0,0,1-.69-.12,4.61,4.61,0,0,1-.84.69,5,5,0,0,1-1.16.57,4.44,4.44,0,0,1-2.45.13,3.21,3.21,0,0,1-.93.49,4.69,4.69,0,0,1-1.1.23,3.84,3.84,0,0,1-2-.28c-.49.36-1,.71-1.48,1.05s-.87.59-1.33.87c-.23.13-.46.26-.71.38l-.7.34-.88.44c-.52.48-1,1-1.6,1.39a2,2,0,0,0,0,.77,1.94,1.94,0,0,0,.54,1.12l.12.09.12.07.27.11a2.09,2.09,0,0,0,.61.1,1,1,0,0,0,.52-.18l.29-.18.15-.09.12-.09a12,12,0,0,0,1.06-.88l1.07-.92c.71-.62,1.43-1.24,2.19-1.81a27.18,27.18,0,0,1-1.85,2.17,18.71,18.71,0,0,1-2.1,2l-.16.11-.16.1c-.1,0-.2.12-.31.17a1.44,1.44,0,0,1-.82.24,2.35,2.35,0,0,1-.78-.18A1.49,1.49,0,0,1,42,63l-.17-.12-.15-.15a2.16,2.16,0,0,1-.5-1.46,2.36,2.36,0,0,1,.11-.59c-.47.36-.93.71-1.42,1A14.56,14.56,0,0,1,37.65,63c-.2.09-.4.16-.6.24a5,5,0,0,0-.58.24c-.37.19-.73.42-1.09.65-.71.46-1.41,1-2.11,1.44s-1.4,1-2.15,1.42a9.85,9.85,0,0,1-1.17.59,3.59,3.59,0,0,1-1.32.3,1.55,1.55,0,0,1-.37,0,1,1,0,0,1-.36-.16l-.11-.08a3.67,3.67,0,0,0-.29.6,3.45,3.45,0,0,0-.2.87.92.92,0,0,1-.21.49,1.7,1.7,0,0,1-.39.31l-.72.54-.69.56-.31.3a1.33,1.33,0,0,0-.21.27h0l0,0,0,.07a1.27,1.27,0,0,0,.24.28,2,2,0,0,0,.68.4A2.79,2.79,0,0,0,27.36,72.43Z"/><path d="M87.48,102.37a.4.4,0,0,1-.33-.19L82.81,94.7q-2.31-4-4.58-8l0,0v0a8.91,8.91,0,0,0-.31-1.45,6.76,6.76,0,0,0-1.15-2.42h0v0l-.93-2.92c-.16-.48-.3-1-.44-1.46l-.22-.74-.09-.38a.51.51,0,0,1,0-.13l-.63.2-.69.21-.24.07a1.59,1.59,0,0,1,.12.27c.08.2.15.41.22.61.13.36.24.71.34,1.07a9,9,0,0,1,.41,2.58,4.48,4.48,0,0,1-.08.64c0,.2-.08.4-.11.6a3.59,3.59,0,0,0,0,1.18,2.67,2.67,0,0,0,.44,1.09,4.12,4.12,0,0,0,.81.86l0,0v0c.89,1.35,1.74,2.71,2.61,4.07s1.72,2.71,2.57,4.08l4.64,7.41a.4.4,0,0,1-.3.6l-2.51.23a.46.46,0,0,0-.41.58l.18.63,5.89-.4L94,104l-.2-.89a.66.66,0,0,0-.61-.5Z"/><path d="M93,32.85c-.26-.15-.51-.31-.76-.47a8.82,8.82,0,0,1-.86-.65,3.6,3.6,0,0,1-.71-.84A4.4,4.4,0,0,1,90,28.83v-.09l.09,0a8.52,8.52,0,0,1,.87-.22c.29-.07.58-.12.87-.17a6.23,6.23,0,0,1,1.67-.05,1,1,0,0,1,1.85-.08l.21,0a1.65,1.65,0,0,1,.38.05l.72.07h0l-.44-.86a7.74,7.74,0,0,0-.37-.7,7.32,7.32,0,0,0-2.53-2.36,6.52,6.52,0,0,0-1.86-.69,4.17,4.17,0,0,0-.49-.08,4,4,0,0,0-.49,0,4.54,4.54,0,0,0-1,.08,8.77,8.77,0,0,0-3.58,1.63,6.69,6.69,0,0,0-1.39,1.37,2.62,2.62,0,0,0-.39.81l0,.2v.1s0,.08,0,.12,0,.32,0,.49a17,17,0,0,0,1.12,3.86,13.15,13.15,0,0,0,2,3.45,19,19,0,0,1,1.33,1.59,4.2,4.2,0,0,1,.54.92,1.48,1.48,0,0,1,.13.56,1,1,0,0,1-.17.59,2.41,2.41,0,0,1-.91.59,7.49,7.49,0,0,1-1,.41,4.65,4.65,0,0,1-2,.11l-4.65.11c-.93,0-1.86,0-2.77.16a9,9,0,0,0-2.6.86c-.84.39-1.68.81-2.57,1.13a19.8,19.8,0,0,1-2.73.68c-.92.17-1.84.3-2.75.46-.46.07-.92.15-1.36.24s-.87.26-1.31.41q-2.61.93-5.17,2c-1.7.73-3.4,1.49-5,2.38-.4.22-.8.45-1.17.7s-.76.55-1.15.8c-.77.53-1.55,1-2.34,1.53l-2.35,1.5c-.39.25-.78.5-1.16.76,0,0,0,0,0,0a6.63,6.63,0,0,1-.8.79c-.4.35-.81.67-1.24,1-.84.62-1.72,1.2-2.58,1.77l-1.28.89a7.4,7.4,0,0,0-1.17.94.9.9,0,0,0-.16.21.93.93,0,0,0,.53.05,6.61,6.61,0,0,0,1.42-.4c.95-.37,1.88-.83,2.83-1.27l.72-.33c.22-.1.44-.22.67-.34.44-.25.89-.52,1.33-.79,1.76-1.1,3.48-2.29,5.29-3.34l-2.48,1.91-1,.76a3.9,3.9,0,0,0,1.89.06,4.93,4.93,0,0,0,1-.31,2.42,2.42,0,0,0,.84-.53l0,0a4.81,4.81,0,0,1,.41-1A6.18,6.18,0,0,1,53.32,53a6,6,0,0,1,1.09-1,3.7,3.7,0,0,1,1.31-.63c-.35.34-.67.67-1,1s-.63.68-.93,1-.61.69-.9,1l-.6.74a4.51,4.51,0,0,0,1.1,0A4.44,4.44,0,0,0,54.52,55a5.18,5.18,0,0,0,1-.54,4.8,4.8,0,0,0,.85-.76l.15-.18,0,0a4.49,4.49,0,0,1,.83-1.61,7.89,7.89,0,0,1,1.44-1.39,8.69,8.69,0,0,1,1.71-1,6,6,0,0,1,1.9-.56c-.59.32-1.13.65-1.67,1s-1,.71-1.56,1.09a15.34,15.34,0,0,0-1.45,1.22,7.82,7.82,0,0,0-1.12,1.3l.07,0a1.85,1.85,0,0,0,.67.15,2.56,2.56,0,0,0,.71-.11c.48-.14,1-.34,1.53-.49l.11,0h0a1.83,1.83,0,0,1,.08-.25,1.45,1.45,0,0,1,.33-.46,1.21,1.21,0,0,1,.49-.29,1.12,1.12,0,0,1,.58,0,2.17,2.17,0,0,1-.32.46l-.32.34c-.11.1-.23.21-.36.31l-.12.07a5,5,0,0,0,2.12.32A5.46,5.46,0,0,0,64,53.08a1.31,1.31,0,0,1-.28-.09,4,4,0,0,1-.77-.57l-.17-.13a.67.67,0,0,1-.23-.29,1,1,0,0,1,0-.63,3.64,3.64,0,0,1,.43-.91A7.09,7.09,0,0,1,64.22,49a4.31,4.31,0,0,1,1.6-1h0a11.06,11.06,0,0,1,1.75-.71A23.57,23.57,0,0,1,70,46.73a43.17,43.17,0,0,1,5-.7c.85-.06,1.7-.11,2.55-.14a15,15,0,0,1,2.58.15,3.42,3.42,0,0,1,.67.16l.17.07.15.07.29.17a7.51,7.51,0,0,1,1.06.76A12,12,0,0,1,84,48.8l.51.33A7.68,7.68,0,0,1,86,50.45a4.06,4.06,0,0,1,.89,1.81,6.07,6.07,0,0,1-.09,2,15.24,15.24,0,0,1-.48,1.91,22.61,22.61,0,0,1-1.5,3.6,14.34,14.34,0,0,1-1.15,1.86,7.89,7.89,0,0,0,1.45-.19,10.69,10.69,0,0,0,2.2-.79,14.59,14.59,0,0,0,2-1.18A8,8,0,0,0,91.07,58l0,0,0,0a9.29,9.29,0,0,0,1.37-1.12,13.42,13.42,0,0,0,1.14-1.34c.71-1,1.36-2,2-3a14.39,14.39,0,0,0,1.57-3.17,11.29,11.29,0,0,0,.55-3.47,17.7,17.7,0,0,0-1.47-6.93C95.34,36.82,94.13,34.85,93,32.85Z"/><path d="M95.55,28.47l-.1,0a.78.78,0,0,1,0,.22,1,1,0,1,1-2,0,1.06,1.06,0,0,1,.08-.4,6.45,6.45,0,0,0-1.64.18,12.52,12.52,0,0,0-1.59.45A4.07,4.07,0,0,0,91,30.7,5.11,5.11,0,0,0,92.48,32c.58.37,1.2.71,1.81,1,.46.24.93.46,1.4.68-.11-.35-.22-.69-.35-1-.2-.5-.42-1-.66-1.47l-.22-.41.45.09c.3.06.62.11.93.14a2.86,2.86,0,0,0,.88,0,1.87,1.87,0,0,0,.94-.87.55.55,0,0,0,.08-.33,3.76,3.76,0,0,1-.6-.73c-.16-.26-.3-.54-.45-.81a4.6,4.6,0,0,1-.74.14A1.35,1.35,0,0,1,95.55,28.47Z"/><path d="M106.05,40.43c-1.18-1.09-2.39-2.16-3.64-3.18s-2.51-2-3.77-3-2.25-1.76-3.33-2.69c.16.34.31.67.45,1,.21.52.39,1,.55,1.57l.12.42L99,36.21q1.77,1.18,3.51,2.43c1.16.83,2.27,1.69,3.43,2.52l2.73,1.94C107.85,42.16,107,41.29,106.05,40.43Z"/><path d="M109,43.3a3.39,3.39,0,0,0-.17-.51,9.33,9.33,0,0,0-.52-1A17,17,0,0,0,107,40c-1-1.2-2-2.35-3-3.48-.52-.57-1.06-1.11-1.6-1.67s-1-1.15-1.55-1.72C99.88,32,99,31,98,29.9a1,1,0,0,1-.1.41,2.07,2.07,0,0,1-.27.45,1.92,1.92,0,0,1-.83.65,3.11,3.11,0,0,1-1,.07l-.52-.06,1.59,1.08c.67.46,1.33.93,2,1.4,1.32,1,2.6,2,3.85,3a44.69,44.69,0,0,1,3.6,3.29A22.55,22.55,0,0,1,109,43.3l0,0A.06.06,0,0,0,109,43.3Z"/></svg>