<svg id="Layer_1" data-name="Layer 1" xmlns="http://www.w3.org/2000/svg" width="128" height="128" viewBox="0 0 128 128"><defs><style>.cls-1{fill:#e29b29;}</style></defs><title>Agriculture (fallow)</title><path class="cls-1" d="M93,80.2v-.26L91.6,75.41a.53.53,0,0,0-.42-.39L85,74a.49.49,0,0,0-.54.31c-.65,1.46-3,6.84-4,8.89a.66.66,0,0,0,.35.85.64.64,0,0,0,.23,0l6.74.7,4.81-.8Z"/><path class="cls-1" d="M97.58,79.39,95.73,79a.46.46,0,0,0-.45.18L93.74,81a.63.63,0,0,0-.14.4V83a9.36,9.36,0,0,0,1.49.2c.39,0,2.13-.1,3.09-.16a.5.5,0,0,0,.5-.51s0-.06,0-.09L98,79.79A.59.59,0,0,0,97.58,79.39Z"/><path class="cls-1" d="M93.4,84.93a.28.28,0,0,0-.2.08s-1.13.91-1.13,1.11c.45.48,2.61.21,2.75,0s-.36-1.19-.36-1.19Z"/><path class="cls-1" d="M47.78,84.39c-.59-.91-2.41-.89-3.84-.73.33-1,3.86-1.6,4.57-1.37-1-1.15-3.68-1-4.81-.08.32-3.57,1.67-4.8,3.41-6.85-1.3.29-4.22,3.42-4.73,4.59a14.81,14.81,0,0,1,1.74-7.46c-3.93,2.74-3.44,7.41-3.09,9-.66-1-2.94-1.91-5.06-1.7a6.42,6.42,0,0,1,4.45,3.36c-1.76-1.13-2.77-.88-5.18.8a11.66,11.66,0,0,1,3.82,0,3.62,3.62,0,0,1,2,1.3h2.32C43.61,84.79,46,84,47.78,84.39Z"/><path class="cls-1" d="M39.36,79.89a2.48,2.48,0,0,1,.84.43,7,7,0,0,1-.51-3.2A4.87,4.87,0,0,0,39.36,79.89Z"/><path class="cls-1" d="M105.86,100.5c-.3-2.18-.7-4.34-1.11-6.48-.8-4.29-2.19-8.39-3.33-12.58S99.13,73.07,98,68.9c-1-3.65-1.54-7.31-2.61-11,.06,0,21.39.12,25.2-.36v-1c-1.83-.22-17.69-.41-19.55-.57a7.15,7.15,0,0,0,.08-1.79c-.12-1.47-1.8-1.7-1.8-1.7a2.13,2.13,0,0,0-.62-2.3c-.41-.31-1.12.14-1.73.46a.45.45,0,0,1-.6-.2.16.16,0,0,1,0-.09c-.65-2-1.3-3.1-2.83-1.82,0-.09-.08-.17-.12-.24-1.14-2.07-2.73-2.25-4.1-.48A1.67,1.67,0,0,1,89,48a.76.76,0,0,1-.3,0c-1.49-.4-2.81.88-3.14,3a1.17,1.17,0,0,1-.36.67,4.13,4.13,0,0,0-1.6,3.33h0c-5.42-.17-10.84,0-16.25.16a2.25,2.25,0,0,0-3.21.12h0c.8-1.53,1.51-3,4-3.81-1.91-.25-3.61-.08-4.2,1.1.32-1.83,1-5.2-2.56-8.35,1.23,4.2,1.18,6.55,1,7.43A7.07,7.07,0,0,0,59,48.15c1.6,2.32,1.89,2.07,2.19,6.19-1-1-3.42-1.24-4.36.09a5.32,5.32,0,0,1,3.74,1l-22.63.49h-5.1l-.3-.45c.4-.94.75-1.9,1.06-2.88.46-1.4.81-2.83,1.15-4.28a31.38,31.38,0,0,0,.64-4.42c.07-.74.08-1.52.13-2.24l.1-1,.06-1c.55-2.64,2.09-5,3.51-7.44a23.72,23.72,0,0,0,1.82-4,23.82,23.82,0,0,0,1-4.8l-.27.42a20.53,20.53,0,0,1-1.33,4.06,23.05,23.05,0,0,1-2.09,3.56c-.8,1.15-1.6,2.26-2.41,3.49A17.67,17.67,0,0,0,34,39.07c-.09.37-.2.75-.3,1.14l-.19,1.2c-.12.76-.2,1.44-.34,2.15-.24,1.42-.45,2.85-.64,4.29-.11.89-.22,1.79-.32,2.68v-.16L32,49.06c-.15-.87-.28-1.75-.46-2.61-.4-1.72-.73-3.46-1.29-5.12l-1.47-4.92c-.25-.8-.41-1.65-.62-2.47s-.4-1.65-.54-2.5a75,75,0,0,1-1.24-10.23q-.14-2-.15-4.08a7.58,7.58,0,0,0,1.16-1.48l0-.08a1.52,1.52,0,0,0,2.08-.08,4.12,4.12,0,0,1,2-1.47,3.62,3.62,0,0,0-2.36-.23,4.58,4.58,0,0,0-1.11.49c.12-.27.23-.55.34-.8.31-.74.6-1.49.9-2.23s.54-1.52.86-2.25L30,8.94c-.41.68-.76,1.39-1.13,2.1s-.71,1.41-1.08,2.1-.8,1.34-1.11,2.07c-.2.41-.38.84-.57,1.26,0-1.88,0-3.77.11-5.66C26.43,7.35,27.36.66,27.35.48a1.23,1.23,0,0,0-.13-.41,91.88,91.88,0,0,0-1.6,10.69,92.06,92.06,0,0,0-.4,10.5,77.19,77.19,0,0,0,1,10.51c.06.49.15,1,.24,1.47a24.41,24.41,0,0,0-2.63-3c-1-1-1.88-2.63-2.82-3.7s-1.6-2.1-2.32-3.2l-.42-.47a34.71,34.71,0,0,0,2.07,4.08,40.67,40.67,0,0,0,2.51,3.74c.88,1.19,1.6,2.47,2.46,3.46a12.91,12.91,0,0,1,2.09,3.54h0l1.15,4.28c.09.32.17.65.25,1a7.33,7.33,0,0,0-1.32-1.17,5.56,5.56,0,0,0-3.53-.81,26,26,0,0,1,2.4,3.13,2.4,2.4,0,0,0,3,1.18l.31,1.68c.14.8.22,1.69.34,2.53l.16,1.27c0,.42.06.85.09,1.28l.21,2.56L30.48,56,11.72,56V57l18.81.46c0,.8.06,1.53.08,2.3s.07,1.71,0,2.57A191.52,191.52,0,0,1,29.56,83h.06c-2.53,3.5-5.15,6.93-7.43,10.68-1.31,2.11-2.58,4.27-3.86,6.53s0,3.38,1.61,1.45,3-3.93,4.53-5.94,2.85-4.11,4.17-6.26l4-6.46a7.35,7.35,0,0,0,.48-.8l.58-.12.8-.18a.73.73,0,0,0,.55-.8c0-.36-.08-.8-.1-1s0-.49,0-.75q2.86-4.62,5.72-9.28c1.3-2.18,2.58-4.36,3.86-6.54,1.08-1.91,2.19-3.77,3.17-5.77l13.13.29c2.28,0,4.08.11,6.36.18-2,2.82-3.38,5.8-5.14,8.82A128.34,128.34,0,0,0,55.59,80.2c-.47,1.13-.91,2.29-1.37,3.43s-.89,2.21-1.38,3.3c-1,2.17-1.92,4.35-2.85,6.57l-2.85,6.73c-.93,2.23.44,3.25,1.73,1.22s2.47-4.13,3.58-6.3a52.17,52.17,0,0,0,2.89-6.8c.42-1.17.8-2.4,1.16-3.57s.73-2.31,1.12-3.46A126,126,0,0,1,63.11,68c1.61-3.32,3.28-6.56,5.14-9.68,3.41.1,6.24.2,9.63.2-.76,3.2-.89,6.41-1.61,9.61a102,102,0,0,0-2.12,13.11,60.53,60.53,0,0,1-1,6.29c-.4,2.13-.81,4.27-1.06,6.41s-.55,4.34-.74,6.53,1.38,2.61,2,.5,1.11-4.23,1.61-6.41A65.5,65.5,0,0,0,76,88c.11-1.11.23-2.21.31-3.33,0-.56.1-1.11.12-1.69l0-.85v-.9a57.41,57.41,0,0,1,.48-6.41c.24-2.16.5-4.32.8-6.49.44-3.24.9-6.57,1.37-9.84,1.48,0,3,0,4.46-.07,3.6-.11,7.22-.25,10.81-.46.71,3.8,1.44,7.59,2.25,11.38q1.29,6.42,2.64,12.82c.89,4.27,1.6,8.61,2.78,12.77.6,2.07,1.22,4.16,1.93,6.2S106.18,102.67,105.86,100.5ZM43.67,63q-2.13,3.09-4.29,6.15c-1.6,2.35-3.3,4.7-5,7-.64-5-1.68-11.47-1.6-13.87,0-1.61,0-3.21,0-4.81l5,.14,8.39.21C46.08,58,43.67,63,43.67,63Z"/><path class="cls-1" d="M17.78,22.74a2.92,2.92,0,0,0-.58-3.44,30.29,30.29,0,0,1-2.4-2.12,6.49,6.49,0,0,0,.54,3.45C16.2,22.15,17.46,23,17.78,22.74Z"/><path class="cls-1" d="M18.85,31.57c1.32.53,2.6.25,2.72-.13s-.69-1.84-2.08-2a7.77,7.77,0,0,0-2.72.12A4.79,4.79,0,0,0,18.85,31.57Z"/><path class="cls-1" d="M33,7.78a7,7,0,0,0,1.5-3.17s-1.39.8-2.83,1.48a3.1,3.1,0,0,0-1.5,3.2C30.41,9.55,31.8,9.06,33,7.78Z"/><path class="cls-1" d="M41.68,23.12c.31.15,1.42-1,2.06-2.71a7.57,7.57,0,0,0,.24-3.6s-.95,1.38-2.06,2.71A3.3,3.3,0,0,0,41.68,23.12Z"/><path class="cls-1" d="M33.78,31.52c.46,1.82,1.44,3.08,1.77,3s1.13-1.9.12-3.61c-.92-1.55-1.77-3-1.77-3A7.35,7.35,0,0,0,33.78,31.52Z"/><path class="cls-1" d="M35,49c.25.27,2.2.09,2.74-1.69A19.38,19.38,0,0,1,39,44a5.16,5.16,0,0,0-2.74,1.72C35.18,47.08,34.74,48.71,35,49Z"/><path d="M12.86,127.73h-2.8L8.94,124.2H3.81l-1.06,3.53H0l5-15.62H7.73ZM8.1,121.55l-1.77-5.79L4.6,121.55Z"/><path d="M20.18,122v-2.64h5.58v6.22a7,7,0,0,1-2.39,1.71,7.44,7.44,0,0,1-3.1.71,6.07,6.07,0,0,1-3.35-.93,6.3,6.3,0,0,1-2.29-2.79,10.4,10.4,0,0,1-.85-4.38,10.2,10.2,0,0,1,.86-4.41,6.5,6.5,0,0,1,2.22-2.74,5.86,5.86,0,0,1,3.28-.9A5.47,5.47,0,0,1,23.81,113a5.54,5.54,0,0,1,1.77,3.43L23,117A3.33,3.33,0,0,0,22,115.18a2.74,2.74,0,0,0-1.83-.64,3.24,3.24,0,0,0-2.67,1.29,6.15,6.15,0,0,0-1,3.91,7.07,7.07,0,0,0,1.11,4.3,3,3,0,0,0,2.57,1.26,3.86,3.86,0,0,0,1.57-.35,4.92,4.92,0,0,0,1.45-1v-2Z"/><path d="M28.15,127.73V112.11H33.6a7.57,7.57,0,0,1,3,.42A3.29,3.29,0,0,1,38.05,114a5,5,0,0,1,.58,2.49,4.61,4.61,0,0,1-.88,3,3.9,3.9,0,0,1-2.5,1.41,6.66,6.66,0,0,1,1.38,1.31,18.53,18.53,0,0,1,1.48,2.54l1.55,3H36.58l-1.87-3.4a24.31,24.31,0,0,0-1.38-2.3,2,2,0,0,0-.77-.64,3.4,3.4,0,0,0-1.29-.18h-.54v6.52Zm2.58-9h1.92a9.13,9.13,0,0,0,2.24-.16,1.43,1.43,0,0,0,.78-.62,2.38,2.38,0,0,0,.29-1.25,2.21,2.21,0,0,0-.29-1.19,1.53,1.53,0,0,0-.81-.63,10.13,10.13,0,0,0-2.1-.12h-2Z"/><path d="M41,127.73V112.11h2.58v15.62Z"/><path d="M54.24,122l2.5,1a7,7,0,0,1-2,3.83A4.86,4.86,0,0,1,51.44,128a5,5,0,0,1-4.06-1.93,9.28,9.28,0,0,1-1.79-6,9.77,9.77,0,0,1,1.8-6.25,5.1,5.1,0,0,1,4.21-2,4.87,4.87,0,0,1,3.61,1.47,6.35,6.35,0,0,1,1.51,3.1l-2.56.74a3.41,3.41,0,0,0-1-1.94,2.47,2.47,0,0,0-1.73-.68,2.72,2.72,0,0,0-2.31,1.24,7.07,7.07,0,0,0-.9,4.08,7.6,7.6,0,0,0,.87,4.2,2.67,2.67,0,0,0,2.27,1.24,2.32,2.32,0,0,0,1.77-.79A5,5,0,0,0,54.24,122Z"/><path d="M58.93,112.11h2.58v8.46a22.23,22.23,0,0,0,.09,2.57,2.65,2.65,0,0,0,.82,1.6,2.88,2.88,0,0,0,3.17.16,2,2,0,0,0,.77-1.1,13.61,13.61,0,0,0,.21-3v-8.64h2.58v8.21a21.84,21.84,0,0,1-.34,4.54,3.85,3.85,0,0,1-1.51,2.27,5.12,5.12,0,0,1-3.11.87,5.8,5.8,0,0,1-3.13-.72,4.09,4.09,0,0,1-1.63-2,15.58,15.58,0,0,1-.5-4.81Z"/><path d="M71.94,127.73V112.24h2.58v12.85H81v2.64Z"/><path d="M84.37,127.73v-13h-3.8v-2.64H90.75v2.64H87v13Z"/><path d="M92.4,112.11H95v8.46a22.23,22.23,0,0,0,.09,2.57,2.65,2.65,0,0,0,.82,1.6,2.88,2.88,0,0,0,3.17.16,2,2,0,0,0,.77-1.1,13.61,13.61,0,0,0,.21-3v-8.64h2.58v8.21a21.16,21.16,0,0,1-.34,4.54,3.85,3.85,0,0,1-1.51,2.27,5.12,5.12,0,0,1-3.11.87,5.8,5.8,0,0,1-3.13-.72,4.14,4.14,0,0,1-1.63-2,15.58,15.58,0,0,1-.5-4.81Z"/><path d="M105.35,127.73V112.11h5.44a7.57,7.57,0,0,1,3,.42,3.35,3.35,0,0,1,1.48,1.46,5.14,5.14,0,0,1,.57,2.49,4.61,4.61,0,0,1-.88,3,3.88,3.88,0,0,1-2.5,1.41,6.42,6.42,0,0,1,1.38,1.31,18.53,18.53,0,0,1,1.48,2.54l1.55,3h-3.08l-1.87-3.4a22.24,22.24,0,0,0-1.38-2.3,2,2,0,0,0-.76-.64,3.46,3.46,0,0,0-1.3-.18h-.54v6.52Zm2.57-9h1.92a9.13,9.13,0,0,0,2.24-.16,1.43,1.43,0,0,0,.78-.62,2.29,2.29,0,0,0,.3-1.25,2.12,2.12,0,0,0-.3-1.19,1.53,1.53,0,0,0-.81-.63,10,10,0,0,0-2.1-.12h-2Z"/><path d="M118.26,127.73V112.11h9.51v2.64h-6.93v3.47h6.44v2.63h-6.44v4.24H128v2.64Z"/></svg>