<svg id="Layer_1" data-name="Layer 1" xmlns="http://www.w3.org/2000/svg" width="128" height="128" viewBox="0 0 128 128"><defs><style>.cls-1{fill:#d62525;}</style></defs><title>Agriculture (active)</title><path class="cls-1" d="M69,66.28c-3.4,0-4.58-1.29-4.25-4.69.26-2.67,1.44-3.34,5.47-3.12,2,.09,2.92,1.23,3,3.55C73.27,65.38,72.38,66.27,69,66.28Z"/><path class="cls-1" d="M68.55,57c-2.79,0-3.82-.91-3.91-3.47s.88-3.9,3.13-4h1.56c2.46,0,3.51,1.16,3.51,3.76S71.68,57,69.23,57Z"/><path class="cls-1" d="M59.35,66.28c3.41,0,4.58-1.29,4.25-4.69-.26-2.67-1.44-3.34-5.51-3.12-2,.09-2.92,1.23-3,3.55C55,65.38,55.92,66.27,59.35,66.28Z"/><path class="cls-1" d="M59.76,57c2.78,0,3.81-.91,3.9-3.47s-.87-3.9-3.12-4H59c-2.46,0-3.52,1.16-3.51,3.76S56.63,57,59.08,57Z"/><path class="cls-1" d="M77.13,48.11c-3.08,0-4.18-1.35-3.68-4.5a3.87,3.87,0,0,1,.13-.59c.58-1.82,4-2.75,6-1.61,1.28.71,1.85,3.2,1.16,5.05C80.3,47.78,79.63,48.11,77.13,48.11Z"/><path class="cls-1" d="M50.87,48.11c3.08,0,4.18-1.35,3.68-4.5a3.87,3.87,0,0,0-.13-.59c-.58-1.82-4-2.75-6-1.61-1.29.71-1.86,3.2-1.17,5.05C47.7,47.78,48.41,48.11,50.87,48.11Z"/><path class="cls-1" d="M76.66,32.92c2.67,0,3.54.78,3.56,3.27,0,2.22-.78,3.25-2.65,3.36H76.05c-2.34,0-3.12-.93-3.12-3.39s.78-3.2,3-3.25Z"/><path class="cls-1" d="M51.58,32.9c2.54,0,3.38.73,3.48,2.94.13,2.59-.68,3.64-2.83,3.71H50.87c-2.25,0-3.06-.89-3.12-3.23s.78-3.38,3.12-3.42Z"/><path class="cls-1" d="M68.18,39.55c-1.49,0-3.06.14-3.51-2.21-.54-2.76.52-4.35,2.87-4.43h1.35c2.21.06,3,.91,3,3.36s-.78,3.25-3,3.29Z"/><path class="cls-1" d="M68.18,47.84c-1.49,0-3.06.13-3.51-2.22-.54-2.76.52-4.35,2.87-4.43h1.35c2.21.05,3,.91,3,3.35s-.78,3.26-3,3.3Z"/><path class="cls-1" d="M59.81,39.55c-1.42,0-2.92.19-3.52-1.95-.74-2.65.43-4.61,2.76-4.69h1.18c2.43,0,3.18.79,3.19,3.27s-.72,3.34-3.12,3.37Z"/><path class="cls-1" d="M59.81,47.83c-1.42,0-2.92.19-3.52-1.95-.74-2.65.43-4.61,2.76-4.68h1.18c2.43,0,3.18.78,3.19,3.27s-.72,3.33-3.12,3.37Z"/><path class="cls-1" d="M75.37,31.43c-2.49,0-3.25-.66-3.3-2.86s.65-3,2.4-3.12H76c1.92.06,2.66.92,2.63,3s-.78,2.9-2.74,2.94A4.3,4.3,0,0,1,75.37,31.43Z"/><path class="cls-1" d="M67.77,31.44c-2.53,0-3.21-.71-3.19-3.19,0-1.88.78-2.77,2.3-2.8H68.4c1.94,0,2.7.87,2.71,2.95s-.78,3-2.67,3Z"/><path class="cls-1" d="M52.62,25.45c1.24,0,2.57-.22,3.13,1.62.78,2.39-.3,4.28-2.42,4.36H52c-1.92-.06-2.65-.92-2.62-3.06s.73-2.85,2.55-2.92Z"/><path class="cls-1" d="M60.23,25.45c2.48,0,3.12.55,3.23,2.68.09,2.34-.6,3.24-2.56,3.3H59.55c-1.8-.06-2.58-.92-2.58-2.91s.72-3,2.61-3.07Z"/><path class="cls-1" d="M60.72,18.55c2.09,0,2.83.74,2.82,2.77s-.78,2.71-3,2.69c-2.09,0-2.85-.78-2.83-2.76S58.45,18.53,60.72,18.55Z"/><path class="cls-1" d="M53.7,24c-2.11,0-2.88-.71-2.92-2.63-.05-2.08.78-2.84,3.13-2.83,2.11,0,2.81.7,2.79,2.74S56,24,53.7,24Z"/><path class="cls-1" d="M74.3,18.56c2.12,0,2.89.72,2.89,2.7s-.78,2.76-3,2.75-2.85-.63-2.85-2.7S72,18.55,74.3,18.56Z"/><path class="cls-1" d="M67.5,24c-2.34,0-3-.62-3-2.78s.67-2.67,2.86-2.68,3,.74,3,2.79S69.62,24,67.5,24Z"/><path class="cls-1" d="M69.55,10.87c-2.07,0-2.67-.52-2.7-2.35s.7-2.47,2.62-2.48c2.07,0,2.66.52,2.67,2.4S71.63,10.87,69.55,10.87Z"/><path class="cls-1" d="M63.27,10.86c-2,0-2.62-.66-2.57-2.5S61.44,6,63.47,6C64.84,6,66,6.27,66,8.36S65.45,10.88,63.27,10.86Z"/><path class="cls-1" d="M54.78,17.11c-2,0-2.66-.6-2.66-2.34s.71-2.44,2.66-2.44,2.63.58,2.63,2.43S56.8,17.11,54.78,17.11Z"/><path class="cls-1" d="M73.21,17.11c-2,0-2.65-.56-2.65-2.34s.66-2.45,2.64-2.44,2.64.61,2.65,2.42S75.19,17.11,73.21,17.11Z"/><path class="cls-1" d="M60.88,17.12c-1.94,0-2.61-.67-2.57-2.5S59,12.27,61,12.27s2.59.65,2.55,2.53S62.92,17.13,60.88,17.12Z"/><path class="cls-1" d="M57.05,10.87c-1.21.1-2.46,0-2.5-2.31,0-1.94.59-2.53,2.72-2.51,2,0,2.62.63,2.61,2.46S59.31,10.87,57.05,10.87Z"/><path class="cls-1" d="M67.13,17.12c-2,0-2.65-.58-2.65-2.39s.64-2.44,2.63-2.44,2.65.61,2.66,2.42S69.11,17.11,67.13,17.12Z"/><path class="cls-1" d="M60.72,4.64c-1.19.13-2.35-.11-2.35-2.28C58.37.61,59,0,60.9,0s2.51.68,2.48,2.43S62.75,4.63,60.72,4.64Z"/><path class="cls-1" d="M66.63,4.63c-1.34.1-2.41-.18-2.4-2.23,0-1.87.55-2.4,2.65-2.4,1.39,0,2.34.45,2.34,2.4C69.19,4.6,68,4.69,66.63,4.63Z"/><path class="cls-1" d="M95.7,39S80.85,38.07,70.8,52.7C67.65,57.3,64,68.38,64,68.38S60.35,57.3,57.2,52.7C47.14,38.07,32.3,39,32.3,39s16.36,7.6,12,27.27C40.2,85,53.7,91.69,64,91.69S87.8,85,83.67,66.26C79.34,46.59,95.7,39,95.7,39Z"/><path class="cls-1" d="M68.8,100H59.2a1.28,1.28,0,0,1-1.26-1.3h0V93.06a23.71,23.71,0,0,0,12.12,0V98.7A1.28,1.28,0,0,1,68.8,100Z"/><path d="M12.86,127.73h-2.8L8.94,124.2H3.81l-1.06,3.53H0l5-15.62H7.73ZM8.1,121.55l-1.77-5.79L4.6,121.55Z"/><path d="M20.18,122v-2.64h5.58v6.22a7,7,0,0,1-2.39,1.71,7.44,7.44,0,0,1-3.1.71,6.07,6.07,0,0,1-3.35-.93,6.3,6.3,0,0,1-2.29-2.79,10.4,10.4,0,0,1-.85-4.38,10.2,10.2,0,0,1,.86-4.41,6.5,6.5,0,0,1,2.22-2.74,5.86,5.86,0,0,1,3.28-.9A5.47,5.47,0,0,1,23.81,113a5.54,5.54,0,0,1,1.77,3.43L23,117A3.33,3.33,0,0,0,22,115.18a2.74,2.74,0,0,0-1.83-.64,3.24,3.24,0,0,0-2.67,1.29,6.15,6.15,0,0,0-1,3.91,7.07,7.07,0,0,0,1.11,4.3,3,3,0,0,0,2.57,1.26,3.86,3.86,0,0,0,1.57-.35,4.92,4.92,0,0,0,1.45-1v-2Z"/><path d="M28.15,127.73V112.11H33.6a7.57,7.57,0,0,1,3,.42A3.29,3.29,0,0,1,38.05,114a5,5,0,0,1,.58,2.49,4.61,4.61,0,0,1-.88,3,3.9,3.9,0,0,1-2.5,1.41,6.66,6.66,0,0,1,1.38,1.31,18.53,18.53,0,0,1,1.48,2.54l1.55,3H36.58l-1.87-3.4a24.31,24.31,0,0,0-1.38-2.3,2,2,0,0,0-.77-.64,3.4,3.4,0,0,0-1.29-.18h-.54v6.52Zm2.58-9h1.92a9.13,9.13,0,0,0,2.24-.16,1.43,1.43,0,0,0,.78-.62,2.38,2.38,0,0,0,.29-1.25,2.21,2.21,0,0,0-.29-1.19,1.53,1.53,0,0,0-.81-.63,10.13,10.13,0,0,0-2.1-.12h-2Z"/><path d="M41,127.73V112.11h2.58v15.62Z"/><path d="M54.24,122l2.5,1a7,7,0,0,1-2,3.83A4.86,4.86,0,0,1,51.44,128a5,5,0,0,1-4.06-1.93,9.28,9.28,0,0,1-1.79-6,9.77,9.77,0,0,1,1.8-6.25,5.1,5.1,0,0,1,4.21-2,4.87,4.87,0,0,1,3.61,1.47,6.35,6.35,0,0,1,1.51,3.1l-2.56.74a3.41,3.41,0,0,0-1-1.94,2.47,2.47,0,0,0-1.73-.68,2.72,2.72,0,0,0-2.31,1.24,7.07,7.07,0,0,0-.9,4.08,7.6,7.6,0,0,0,.87,4.2,2.67,2.67,0,0,0,2.27,1.24,2.32,2.32,0,0,0,1.77-.79A5,5,0,0,0,54.24,122Z"/><path d="M58.93,112.11h2.58v8.46a22.23,22.23,0,0,0,.09,2.57,2.65,2.65,0,0,0,.82,1.6,2.88,2.88,0,0,0,3.17.16,2,2,0,0,0,.77-1.1,13.61,13.61,0,0,0,.21-3v-8.64h2.58v8.21a21.84,21.84,0,0,1-.34,4.54,3.85,3.85,0,0,1-1.51,2.27,5.12,5.12,0,0,1-3.11.87,5.8,5.8,0,0,1-3.13-.72,4.09,4.09,0,0,1-1.63-2,15.58,15.58,0,0,1-.5-4.81Z"/><path d="M71.94,127.73V112.24h2.58v12.85H81v2.64Z"/><path d="M84.37,127.73v-13h-3.8v-2.64H90.75v2.64H87v13Z"/><path d="M92.4,112.11H95v8.46a22.23,22.23,0,0,0,.09,2.57,2.65,2.65,0,0,0,.82,1.6,2.88,2.88,0,0,0,3.17.16,2,2,0,0,0,.77-1.1,13.61,13.61,0,0,0,.21-3v-8.64h2.58v8.21a21.16,21.16,0,0,1-.34,4.54,3.85,3.85,0,0,1-1.51,2.27,5.12,5.12,0,0,1-3.11.87,5.8,5.8,0,0,1-3.13-.72,4.14,4.14,0,0,1-1.63-2,15.58,15.58,0,0,1-.5-4.81Z"/><path d="M105.35,127.73V112.11h5.44a7.57,7.57,0,0,1,3,.42,3.35,3.35,0,0,1,1.48,1.46,5.14,5.14,0,0,1,.57,2.49,4.61,4.61,0,0,1-.88,3,3.88,3.88,0,0,1-2.5,1.41,6.42,6.42,0,0,1,1.38,1.31,18.53,18.53,0,0,1,1.48,2.54l1.55,3h-3.08l-1.87-3.4a22.24,22.24,0,0,0-1.38-2.3,2,2,0,0,0-.76-.64,3.46,3.46,0,0,0-1.3-.18h-.54v6.52Zm2.57-9h1.92a9.13,9.13,0,0,0,2.24-.16,1.43,1.43,0,0,0,.78-.62,2.29,2.29,0,0,0,.3-1.25,2.12,2.12,0,0,0-.3-1.19,1.53,1.53,0,0,0-.81-.63,10,10,0,0,0-2.1-.12h-2Z"/><path d="M118.26,127.73V112.11h9.51v2.64h-6.93v3.47h6.44v2.63h-6.44v4.24H128v2.64Z"/></svg>