<svg id="Layer_1" data-name="Layer 1" xmlns="http://www.w3.org/2000/svg" width="128" height="128" viewBox="0 0 128 128"><defs><style>.cls-1{fill:#d62525;}</style></defs><title>Artboard 2</title><path class="cls-1" d="M70.34,84.84c-4.36,0-5.86-1.65-5.44-6,.33-3.42,1.84-4.28,7-4,2.51.12,3.73,1.58,3.81,4.54C75.87,83.68,74.73,84.83,70.34,84.84Z"/><path class="cls-1" d="M69.82,73c-3.57,0-4.88-1.17-5-4.44s1.13-5,4-5.12c.65,0,1.3,0,2,0,3.15,0,4.5,1.48,4.49,4.81S73.83,73,70.69,73Z"/><path class="cls-1" d="M58.05,84.84c4.36,0,5.86-1.65,5.44-6-.33-3.42-1.84-4.28-7.06-4-2.5.12-3.73,1.58-3.8,4.54C52.52,83.68,53.66,84.83,58.05,84.84Z"/><path class="cls-1" d="M58.57,73c3.56,0,4.88-1.17,5-4.44s-1.12-5-4-5.12c-.65,0-1.3,0-2,0-3.15,0-4.5,1.48-4.49,4.81S54.56,73,57.7,73Z"/><path class="cls-1" d="M80.81,61.58c-3.94,0-5.36-1.73-4.71-5.76a4.66,4.66,0,0,1,.16-.76C77,52.73,81.42,51.55,84,53c1.65.91,2.38,4.1,1.49,6.47C84.87,61.16,84,61.58,80.81,61.58Z"/><path class="cls-1" d="M47.19,61.58c3.94,0,5.36-1.73,4.71-5.76a4.66,4.66,0,0,0-.16-.76C51,52.73,46.58,51.55,44,53c-1.65.91-2.38,4.1-1.49,6.47C43.13,61.16,44.05,61.58,47.19,61.58Z"/><path class="cls-1" d="M80.2,42.14c3.42,0,4.54,1,4.56,4.18,0,2.84-1,4.16-3.39,4.3-.64,0-1.29,0-1.94,0-3,0-4-1.18-4-4.33s1-4.1,3.9-4.16Z"/><path class="cls-1" d="M48.1,42.11c3.25,0,4.33.93,4.46,3.76.16,3.32-.87,4.67-3.63,4.75-.58,0-1.16,0-1.73,0-2.88-.06-3.92-1.14-4-4.13,0-3.16,1-4.33,4-4.38Z"/><path class="cls-1" d="M69.35,50.63c-1.91,0-3.91.17-4.49-2.83-.69-3.54.66-5.57,3.67-5.67.58,0,1.15,0,1.73,0,2.83.07,3.79,1.16,3.78,4.29s-1,4.17-3.82,4.22Z"/><path class="cls-1" d="M69.35,61.23c-1.91,0-3.91.17-4.49-2.84-.69-3.53.66-5.57,3.67-5.67.58,0,1.15,0,1.73,0,2.83.07,3.79,1.17,3.78,4.29s-1,4.18-3.82,4.23C69.93,61.24,69.64,61.23,69.35,61.23Z"/><path class="cls-1" d="M58.64,50.62c-1.82,0-3.74.25-4.51-2.49-.94-3.39.55-5.9,3.54-6,.5,0,1,0,1.51,0,3.1,0,4.06,1,4.08,4.18s-.92,4.27-4,4.31C59.07,50.63,58.86,50.62,58.64,50.62Z"/><path class="cls-1" d="M58.64,61.22c-1.82,0-3.74.24-4.51-2.49-.94-3.4.55-5.91,3.54-6h1.51c3.1,0,4.06,1,4.08,4.19s-.92,4.26-4,4.31Z"/><path class="cls-1" d="M78.56,40.23c-3.2,0-4.17-.84-4.23-3.66s.83-3.86,3.07-4c.64,0,1.3,0,1.95,0,2.45.08,3.4,1.18,3.37,3.89s-1,3.71-3.51,3.76C79,40.24,78.77,40.23,78.56,40.23Z"/><path class="cls-1" d="M68.82,40.24c-3.23,0-4.1-.91-4.08-4.08,0-2.41,1-3.54,2.94-3.58.65,0,1.3,0,1.95,0,2.49.05,3.46,1.11,3.47,3.77s-1,3.81-3.42,3.88Z"/><path class="cls-1" d="M49.44,32.57c1.58,0,3.28-.28,4,2.08,1,3.06-.38,5.48-3.1,5.58-.58,0-1.16,0-1.73,0-2.45-.08-3.39-1.18-3.35-3.92s.93-3.65,3.27-3.74Z"/><path class="cls-1" d="M59.17,32.57c3.18,0,4,.71,4.14,3.43.12,3-.77,4.15-3.28,4.23-.58,0-1.16,0-1.73,0C56,40.15,55,39.05,55,36.51c0-2.73.92-3.87,3.34-3.93Z"/><path class="cls-1" d="M59.8,23.75c2.68,0,3.62.94,3.61,3.54s-1,3.47-3.9,3.44c-2.68,0-3.65-1-3.62-3.53S56.9,23.72,59.8,23.75Z"/><path class="cls-1" d="M50.82,30.73c-2.7,0-3.69-.9-3.74-3.37-.06-2.66,1-3.63,4-3.61,2.71,0,3.6.89,3.58,3.5S53.77,30.74,50.82,30.73Z"/><path class="cls-1" d="M77.18,23.76c2.72,0,3.7.92,3.7,3.45s-1,3.53-3.86,3.52-3.65-.81-3.65-3.45S74.24,23.75,77.18,23.76Z"/><path class="cls-1" d="M68.48,30.73c-3,0-3.81-.79-3.78-3.55s.86-3.42,3.66-3.43,3.84.94,3.82,3.56S71.2,30.73,68.48,30.73Z"/><path class="cls-1" d="M71.11,13.91c-2.66,0-3.43-.66-3.46-3S68.54,7.74,71,7.73c2.65,0,3.41.67,3.42,3.07S73.76,13.91,71.11,13.91Z"/><path class="cls-1" d="M63.06,13.9c-2.5,0-3.35-.85-3.29-3.2s.95-3,3.55-3c1.75,0,3.24.32,3.28,3C66.63,13.24,65.86,13.93,63.06,13.9Z"/><path class="cls-1" d="M52.2,21.9c-2.54,0-3.4-.77-3.4-3s.9-3.12,3.4-3.12,3.37.75,3.37,3.11S54.79,21.9,52.2,21.9Z"/><path class="cls-1" d="M75.79,21.9c-2.58,0-3.39-.72-3.39-3s.84-3.13,3.37-3.12,3.39.78,3.4,3.1S78.32,21.9,75.79,21.9Z"/><path class="cls-1" d="M60,21.91c-2.48,0-3.34-.86-3.28-3.2s.89-3,3.49-3,3.32.83,3.27,3.23S62.62,21.93,60,21.91Z"/><path class="cls-1" d="M55.1,13.91c-1.54.13-3.15,0-3.2-2.95,0-2.49.76-3.24,3.49-3.22,2.5,0,3.35.81,3.34,3.15S58,13.91,55.1,13.91Z"/><path class="cls-1" d="M68,21.91c-2.56,0-3.38-.74-3.38-3.06s.81-3.12,3.36-3.12,3.39.78,3.4,3.1S70.54,21.9,68,21.91Z"/><path class="cls-1" d="M59.8,5.94c-1.52.16-3-.14-3-2.92,0-2.24.81-3,3.23-3s3.22.87,3.18,3.11S62.4,5.93,59.8,5.94Z"/><path class="cls-1" d="M67.36,5.92c-1.71.14-3.08-.22-3.07-2.85C64.3.68,65,0,67.68,0c1.78,0,3,.57,3,3.07C70.64,5.89,69.08,6,67.36,5.92Z"/><path class="cls-1" d="M104.57,49.91s-19-1.18-31.86,17.55C68.67,73.34,64,87.53,64,87.53s-4.67-14.19-8.71-20.07C42.42,48.73,23.43,49.91,23.43,49.91s20.94,9.73,15.39,34.9c-5.29,24,12,32.55,25.18,32.55s30.47-8.59,25.18-32.55C83.63,59.64,104.57,49.91,104.57,49.91Z"/><path class="cls-1" d="M70.14,128H57.86a1.64,1.64,0,0,1-1.62-1.66v-7.22a30.32,30.32,0,0,0,15.52,0v7.22A1.64,1.64,0,0,1,70.14,128Z"/></svg>