<svg id="Layer_1" data-name="Layer 1" xmlns="http://www.w3.org/2000/svg" width="128" height="128" viewBox="0 0 128 128"><defs><style>.cls-1{fill:#e29b29;}</style></defs><title>Artboard 3</title><path class="cls-1" d="M97.48,100l0-.32-1.72-5.65a.68.68,0,0,0-.52-.49L87.48,92.3a.63.63,0,0,0-.67.39c-.81,1.83-3.79,8.54-5,11.1a.81.81,0,0,0,.72,1.12l8.4.87,6-1Z"/><path class="cls-1" d="M103.21,99l-2.3-.44a.59.59,0,0,0-.57.22l-1.91,2.26a.78.78,0,0,0-.18.5l0,2a12,12,0,0,0,1.86.25c.49,0,2.66-.13,3.85-.2a.63.63,0,0,0,.61-.75l-.8-3.35A.7.7,0,0,0,103.21,99Z"/><path class="cls-1" d="M98,105.91a.35.35,0,0,0-.25.1s-1.4,1.14-1.4,1.38c.55.6,3.25.27,3.42,0s-.44-1.48-.44-1.48Z"/><path class="cls-1" d="M41.12,105.24c-.73-1.14-3-1.11-4.79-.91.42-1.31,4.82-2,5.7-1.71-1.29-1.44-4.58-1.21-6-.1.41-4.46,2.09-6,4.26-8.55-1.62.36-5.26,4.26-5.9,5.73-.27-1,.26-6,2.17-9.32-4.9,3.42-4.29,9.25-3.85,11.23-.82-1.27-3.67-2.38-6.31-2.11a8,8,0,0,1,5.55,4.19c-2.2-1.41-3.46-1.1-6.46,1a14.1,14.1,0,0,1,4.76,0,4.48,4.48,0,0,1,2.46,1.62H35.6C35.92,105.74,38.89,104.8,41.12,105.24Z"/><path class="cls-1" d="M30.62,99.62a2.91,2.91,0,0,1,1.05.54,8.68,8.68,0,0,1-.63-4A6.12,6.12,0,0,0,30.62,99.62Z"/><path class="cls-1" d="M113.54,125.34c-.38-2.72-.88-5.41-1.39-8.08-1-5.36-2.73-10.48-4.15-15.71s-2.85-10.44-4.32-15.65c-1.32-4.55-1.93-9.12-3.26-13.67.07,0,22.83.14,27.58-.46V70.54c-2.28-.28-18.21-.51-20.53-.71a9.9,9.9,0,0,0,.1-2.24c-.16-1.83-2.25-2.12-2.25-2.12a2.65,2.65,0,0,0-.77-2.87c-.51-.38-1.4.18-2.16.58a.56.56,0,0,1-.79-.37c-.81-2.53-1.62-3.86-3.52-2.27-.06-.11-.1-.21-.15-.3-1.42-2.58-3.41-2.8-5.12-.6a1.41,1.41,0,0,1-.34.23,1.06,1.06,0,0,1-.38,0c-1.86-.5-3.5,1.1-3.91,3.79a1.49,1.49,0,0,1-.45.84,5.19,5.19,0,0,0-2,4.16h0c-6.76-.22-13.51,0-20.26.2-1.56-1.1-2.58-1-4,.14l0,0c1-1.91,1.88-3.76,5-4.75-2.38-.31-4.5-.1-5.24,1.37.4-2.28,1.23-6.49-3.19-10.42,1.53,5.24,1.47,8.17,1.24,9.28-.59-1.69-2.75-4-4.21-4.48,2,2.9,2.36,2.59,2.73,7.73-1.3-1.28-4.26-1.55-5.43.11.66-.32,3.5.21,4.66,1.26l-28.21.62-6.36,0-.38-.56c.5-1.18.94-2.38,1.33-3.6.57-1.75,1-3.53,1.43-5.34a40.55,40.55,0,0,0,.8-5.52c.08-.92.1-1.9.16-2.79l.12-1.25L26,49.44c.69-3.3,2.6-6.2,4.37-9.29a29.82,29.82,0,0,0,2.28-5,29.89,29.89,0,0,0,1.24-6l-.34.53a25.93,25.93,0,0,1-1.65,5.07,28.88,28.88,0,0,1-2.61,4.44c-1,1.43-2,2.82-3,4.35a21.36,21.36,0,0,0-2.38,5.13c-.12.47-.26.94-.38,1.43L23.3,51.6c-.15.94-.26,1.79-.43,2.68q-.45,2.65-.8,5.35c-.14,1.11-.27,2.23-.4,3.35l0-.2-.27-1.64c-.19-1.09-.35-2.18-.57-3.26-.5-2.14-.91-4.31-1.61-6.39l-1.84-6.14c-.31-1-.51-2.06-.77-3.08s-.5-2.06-.67-3.12a93.56,93.56,0,0,1-1.55-12.77c-.11-1.69-.17-3.39-.19-5.09a9.41,9.41,0,0,0,1.45-1.85l.06-.1a1.9,1.9,0,0,0,2.6-.09,5.15,5.15,0,0,1,2.5-1.84,4.51,4.51,0,0,0-2.94-.29,5.15,5.15,0,0,0-1.38.62c.14-.34.28-.69.42-1,.39-.93.75-1.86,1.12-2.79s.68-1.9,1.07-2.8L19,11.07c-.51.85-.94,1.74-1.4,2.62s-.89,1.76-1.35,2.62-1,1.68-1.39,2.58c-.24.52-.47,1.05-.71,1.58,0-2.35,0-4.71.14-7.06C14.5,9.09,15.66.74,15.65.51A1.46,1.46,0,0,0,15.49,0a114.42,114.42,0,0,0-2,13.34A114.57,114.57,0,0,0,13,26.45,96,96,0,0,0,14.2,39.56c.08.62.19,1.23.31,1.84a31.53,31.53,0,0,0-3.28-3.79C10,36.34,8.88,34.34,7.71,33a47.55,47.55,0,0,1-2.89-4l-.53-.58a44.16,44.16,0,0,0,2.58,5.09A52.36,52.36,0,0,0,10,38.18c1.1,1.48,2,3.08,3.07,4.31a16.1,16.1,0,0,1,2.61,4.43h0l1.43,5.34c.11.4.21.81.31,1.21A9.19,9.19,0,0,0,15.77,52a6.9,6.9,0,0,0-4.4-1,31.84,31.84,0,0,1,3,3.9,3,3,0,0,0,3.72,1.48l.39,2.09c.18,1,.28,2.11.42,3.16l.2,1.58c.05.53.08,1.07.12,1.6L19.48,68l.07,1.76L0,69.85V71l19.62.57c.06,1,.07,1.91.09,2.87s.09,2.14.06,3.21a239.29,239.29,0,0,1-1.36,25.87h.07c-3.15,4.38-6.42,8.66-9.26,13.33C7.58,119.49,6,122.18,4.41,125s0,4.22,2,1.81,3.81-4.9,5.65-7.41,3.55-5.13,5.2-7.81l4.93-8.06c.2-.31.39-.63.59-1l.72-.15,1-.23a.9.9,0,0,0,.69-1c-.05-.45-.1-1-.12-1.27s-.05-.61-.07-.93c2.38-3.85,4.77-7.71,7.13-11.59q2.43-4.07,4.82-8.16c1.34-2.38,2.73-4.71,3.95-7.2l16.37.36c2.84,0,5.09.14,7.93.23-2.51,3.51-4.21,7.23-6.41,11a160.22,160.22,0,0,0-7.93,16.41c-.59,1.42-1.14,2.86-1.71,4.29s-1.11,2.76-1.72,4.12c-1.19,2.71-2.39,5.43-3.55,8.2L40.32,125c-1.16,2.79.55,4.06,2.16,1.53s3.08-5.16,4.47-7.86a65.94,65.94,0,0,0,3.6-8.49c.52-1.46,1-3,1.44-4.46s.91-2.88,1.4-4.31a156.75,156.75,0,0,1,6.85-16.67c2-4.14,4.08-8.19,6.41-12.08,4.25.13,7.78.25,12,.25-.94,4-1.11,8-2,12A127.35,127.35,0,0,0,74,101.27a75.53,75.53,0,0,1-1.25,7.85c-.5,2.65-1,5.33-1.32,8s-.68,5.41-.92,8.15,1.72,3.25,2.45.62,1.38-5.28,2-8a81.16,81.16,0,0,0,1.3-8.14c.14-1.38.28-2.75.38-4.15.06-.7.13-1.39.16-2.11l.06-1.06,0-1.12a70.94,70.94,0,0,1,.59-8q.45-4.05,1-8.11C79,81.16,79.57,77,80.16,72.92c1.85,0,3.7,0,5.56-.08,4.49-.14,9-.31,13.48-.58C100.09,77,101,81.73,102,86.47q1.61,8,3.29,16c1.12,5.32,2,10.74,3.47,15.93.75,2.59,1.52,5.19,2.41,7.74S113.94,128.05,113.54,125.34ZM36,78.49q-2.66,3.86-5.35,7.67c-2,2.94-4.11,5.87-6.17,8.8-.8-6.28-2.1-14.31-2-17.31q.06-3,0-6l6.27.18,10.46.26C39,72.25,36,78.49,36,78.49Z"/><path class="cls-1" d="M3.72,28.29A3.65,3.65,0,0,0,3,24a38.58,38.58,0,0,1-3-2.65,8.12,8.12,0,0,0,.68,4.31C1.75,27.56,3.32,28.58,3.72,28.29Z"/><path class="cls-1" d="M5.05,39.31c1.65.66,3.25.32,3.39-.16s-.86-2.3-2.59-2.55a10.22,10.22,0,0,0-3.39.15A5.89,5.89,0,0,0,5.05,39.31Z"/><path class="cls-1" d="M22.69,9.62a8.55,8.55,0,0,0,1.87-3.95s-1.73,1-3.52,1.84a3.87,3.87,0,0,0-1.87,4C19.46,11.83,21.2,11.22,22.69,9.62Z"/><path class="cls-1" d="M33.52,28.77c.39.19,1.77-1.21,2.56-3.38a9.25,9.25,0,0,0,.3-4.5s-1.18,1.72-2.56,3.38S33.12,28.57,33.52,28.77Z"/><path class="cls-1" d="M23.67,39.25c.57,2.27,1.79,3.84,2.21,3.7s1.4-2.38.14-4.51c-1.14-1.94-2.2-3.7-2.2-3.7A9.21,9.21,0,0,0,23.67,39.25Z"/><path class="cls-1" d="M25.17,61.05c.31.34,2.74.12,3.41-2.11a24.53,24.53,0,0,1,1.64-4.09A6.47,6.47,0,0,0,26.81,57C25.41,58.67,24.86,60.7,25.17,61.05Z"/></svg>