<svg id="Layer_1" data-name="Layer 1" xmlns="http://www.w3.org/2000/svg" width="128" height="128" viewBox="0 0 128 128"><title>Artboard 4</title><path d="M14,111.5h5.33a8.18,8.18,0,0,1,3.07.4,3.32,3.32,0,0,1,1.49,1.4,4.57,4.57,0,0,1,.09,4.4,3.4,3.4,0,0,1-1.36,1.4,3.55,3.55,0,0,1,1.85,1.44,4.4,4.4,0,0,1,.67,2.48,5.07,5.07,0,0,1-.85,3,3.48,3.48,0,0,1-2,1.51,20.2,20.2,0,0,1-3.76.2H14Zm2.68,2.7V118h1.77c1.06,0,1.72,0,2,0a1.74,1.74,0,0,0,1.07-.58,2,2,0,0,0,.39-1.28,2,2,0,0,0-.32-1.17,1.29,1.29,0,0,0-.76-.56,16.86,16.86,0,0,0-2.57-.11Zm0,6.45V125h2.49a8,8,0,0,0,2.11-.17,1.58,1.58,0,0,0,.78-.68,2.34,2.34,0,0,0,.32-1.27,2.38,2.38,0,0,0-.34-1.31,1.79,1.79,0,0,0-.9-.71,9,9,0,0,0-2.29-.19Z"/><path d="M39.69,127.72H36.77l-1.16-3.67H30.28l-1.1,3.67H26.33l5.18-16.22h2.84Zm-4.95-6.42-1.83-6-1.81,6Z"/><path d="M43,127.72V114.24H39V111.5H49.57v2.74H45.63v13.48Z"/><path d="M51.55,127.72V111.5h9.87v2.74H54.23v3.6h6.68v2.73H54.23V125h7.43v2.74Z"/><path d="M64.23,127.72V111.63h2.68V125H73.6v2.74Z"/><path d="M75.75,127.72V111.5h9.87v2.74H78.43v3.6h6.68v2.73H78.43V125h7.43v2.74Z"/><path d="M88.34,111.5H91v8.79a20.79,20.79,0,0,0,.1,2.66,2.68,2.68,0,0,0,.84,1.66,3,3,0,0,0,3.29.18,2.16,2.16,0,0,0,.81-1.16,14.53,14.53,0,0,0,.21-3.16v-9H99V120a22.65,22.65,0,0,1-.35,4.72A4,4,0,0,1,97,127.1a5.31,5.31,0,0,1-3.23.9,6,6,0,0,1-3.24-.75,4.22,4.22,0,0,1-1.7-2.1,15.92,15.92,0,0,1-.52-5Z"/><path d="M102,127.72V111.5h5.65a7.71,7.71,0,0,1,3.1.44,3.42,3.42,0,0,1,1.53,1.51,5.25,5.25,0,0,1,.6,2.59,4.79,4.79,0,0,1-.92,3.06,4,4,0,0,1-2.59,1.46,6.91,6.91,0,0,1,1.43,1.36,19.81,19.81,0,0,1,1.54,2.64l1.61,3.16h-3.2l-2-3.53a24.12,24.12,0,0,0-1.42-2.39,2.22,2.22,0,0,0-.8-.67,3.69,3.69,0,0,0-1.35-.18h-.55v6.77Zm2.68-9.36h2a9.73,9.73,0,0,0,2.32-.16,1.47,1.47,0,0,0,.81-.65,2.32,2.32,0,0,0,.31-1.29,2.23,2.23,0,0,0-.31-1.25,1.57,1.57,0,0,0-.84-.64,9.75,9.75,0,0,0-2.18-.13h-2.1Z"/><path d="M46.63,80.34a6.8,6.8,0,0,0,.78-.64,4.85,4.85,0,0,0,.49-.61,39.55,39.55,0,0,0-.14-4.62l.17,0a23.52,23.52,0,0,1,.53,2.88l.34,2.9c.11,1,.22,1.92.38,2.84a8,8,0,0,0,.75,2.47,2.05,2.05,0,0,0,1.25.7c.33.08.75.11,1.22.2.05-.16.1-.31.14-.47.13-.43.23-.86.32-1.3a21.78,21.78,0,0,0,.37-2.77l.17,0a7.22,7.22,0,0,1,.7,2.88A8.77,8.77,0,0,1,54,86.9a.2.2,0,0,1,.08,0c.36-.17.71-.33,1-.5a5.05,5.05,0,0,0,1.54-1.16l.37-.43.55.14a.72.72,0,0,0,.42,0,1.62,1.62,0,0,0,.62-.43,6.22,6.22,0,0,0,1-1.61A16.72,16.72,0,0,0,60.4,81c.11-.34.22-.69.3-1a3.9,3.9,0,0,1-.78-1.13,8.2,8.2,0,0,1-.53-1.4,9.36,9.36,0,0,1-.33-3l.16,0a16.66,16.66,0,0,1,1.61,2.42c.23.4.46.8.67,1.19l.2.38c.06-.19.11-.38.16-.61.12-.67.18-1.4.28-2.12A18.52,18.52,0,0,1,63,72c-.69-.44-1.37-.88-2-1.34-1.8-1.23-3.55-2.53-5.28-3.86a27.68,27.68,0,0,1-7.75-1.91,51,51,0,0,1-7.43-3.45A17.82,17.82,0,0,1,37,59c-1-.89-2-1.82-3-2.74a80.66,80.66,0,0,1-5.68-5.86,33.42,33.42,0,0,1-2.51-3.25A13.86,13.86,0,0,1,24,43.37a8.66,8.66,0,0,1-.3-4.23,7,7,0,0,1,2-3.75,5.76,5.76,0,0,1,1.8-1.23,6.87,6.87,0,0,1,2.1-.39c.35,0,.69,0,1,0A4.35,4.35,0,0,1,32,32a4.54,4.54,0,0,1,1.84-.91c2.56-.67,3.49-.81,17.37.28a27.74,27.74,0,0,1-2.75-2.06c-1.14-1-2.23-2-3.32-3S43,24.15,42,23.07a5.52,5.52,0,0,1-2-4.55l.14-1.18,1.18.56a.5.5,0,0,0,.35,0h0l-.61-1.43-.46-1.1c-.08-.2-.14-.3-.21-.46l-.27-.45a19.26,19.26,0,0,0-3-3.42,24.48,24.48,0,0,0-7.8-4.87,15.46,15.46,0,0,0-4.45-1.11,10.65,10.65,0,0,0-4.51.59,11.83,11.83,0,0,0-3.92,2.43A11.11,11.11,0,0,0,14.23,11L14,10.81a9.47,9.47,0,0,0-.37.93,3.36,3.36,0,0,0-.79.43,3.5,3.5,0,0,0-1.31,1.94,3.55,3.55,0,0,0-1.47,1.11,4.49,4.49,0,0,0-.9,1.7,4.27,4.27,0,0,0-.08,2,4.76,4.76,0,0,0,.8,1.81l.74,1.08,0-1.31c0-.49,0-1,.06-1.42,0-.08.57.16.91.21a2.23,2.23,0,0,0,1.06-.11,2.44,2.44,0,0,0,1.28-1c.38,0,.75,0,1.12,0a12.59,12.59,0,0,1,2.61,2.68A13.51,13.51,0,0,1,19,25a7.43,7.43,0,0,1-.22,2.27c-.17.71-.39,1.41-.6,2.11l-.63,2.05,0-.05.58-.9c1.37-2.22,1.85-.57,1.85-.57,0,1.24.23,2.53.3,3.88a12,12,0,0,1,0,2.07c-.1.74-.2,1.26-.23,1.89a33.66,33.66,0,0,0-.07,3.76c0,.73.1,1.46.2,2.18a4.46,4.46,0,0,1,1.29-2.28,5,5,0,0,1,1.16-.85c-.39.87-.8,1.68-1.14,2.53-.2.47-.37.94-.56,1.4,1.09,3.54,2,7.13,3.25,10.57A24.38,24.38,0,0,0,25.2,57.7a5.33,5.33,0,0,0,.71,1.12l.92,1.11c1.23,1.48,2.48,2.93,3.76,4.37a67.31,67.31,0,0,0,8.2,7.92c1.48,1.21,3,2.44,4.4,3.79A16.16,16.16,0,0,1,46.63,80.34Zm-36.14-63a1.72,1.72,0,0,0-.48.82,4.16,4.16,0,0,0-.13.67.61.61,0,0,1-.05-.12,4.08,4.08,0,0,1-.07-1.67,5.27,5.27,0,0,1,.6-1.63,6.79,6.79,0,0,1,1.16-1.25.08.08,0,0,1,.08,0l.48.6c.17.22.36.41.54.61a7.83,7.83,0,0,0,.86.75l-.33.07-.08,0-.06.09a1.65,1.65,0,0,1-.92.77,2.08,2.08,0,0,1-.62,0,2.77,2.77,0,0,0-.44,0A1,1,0,0,0,10.49,17.36Zm12.89-.64-.3,0a9,9,0,0,1-3.24-.22,2.92,2.92,0,0,1,.29.23,1.53,1.53,0,0,1,.38.47.42.42,0,0,1-.06.45.69.69,0,0,1-.34.19,19.68,19.68,0,0,1-2.25.14l-.7,0,.7-.76a9.32,9.32,0,0,0-2.24,0,4.64,4.64,0,0,0-1.82.62c-.53.15-1,.68-1.39.83a13,13,0,0,1-1.68.05A1.59,1.59,0,0,1,11,18c0-.17.69,0,1.25-.18a2.06,2.06,0,0,0,1.14-1.08,4.73,4.73,0,0,1,1.21-.25,11,11,0,0,1,1.4,0,6.64,6.64,0,0,0-1.4-.33,5.39,5.39,0,0,0-.7,0,2,2,0,0,0-.18-.56,2.83,2.83,0,0,0-1.25-1.28,1.59,1.59,0,0,0-.87-.18A3.37,3.37,0,0,1,13,12.33a3.46,3.46,0,0,1,2.19-.57h0l.05,0-.31-.23.18,0A20.68,20.68,0,0,1,18.26,9.4a11.63,11.63,0,0,1,1.79-.74A4.65,4.65,0,0,1,22,8.45a2.55,2.55,0,0,1,2.41,1,3,3,0,0,1,.66,2.62,1.86,1.86,0,0,1-.36.68c-.15.19-.26.3-.37.46a4.37,4.37,0,0,0-.57.94,5.8,5.8,0,0,0-.37,2.21Z"/><path d="M85.19,58.84a1.32,1.32,0,0,1,0,.94A2.47,2.47,0,0,1,83.91,61a10.73,10.73,0,0,1-3.17.92,25.11,25.11,0,0,1-3.23.26c-.54,0-1.08,0-1.62-.06a8.71,8.71,0,0,1-1.37-.2,5.13,5.13,0,0,1-1.9.53,13.07,13.07,0,0,1-2.17,0,14.65,14.65,0,0,1-2.1-.38,7,7,0,0,1-1.73-.66,8.63,8.63,0,0,1-4.07,1,11.41,11.41,0,0,1-2.26-.16,6.54,6.54,0,0,1-2-.65,10.32,10.32,0,0,1-1.73.86,15.17,15.17,0,0,1-2.06.61,9,9,0,0,1-2.14.18,5.35,5.35,0,0,1-1.06-.19c1.5,1.1,3,2.23,4.47,3.32,1.79,1.3,3.6,2.56,5.46,3.75A58.16,58.16,0,0,0,67,73.48a17.34,17.34,0,0,0,6.12,1.94h.16l.12.1a20.29,20.29,0,0,0,3,2,14.88,14.88,0,0,0,3.33,1.34,16.92,16.92,0,0,0,3.54.46A4.71,4.71,0,0,0,84.9,79a13.83,13.83,0,0,1,1.87-.48l.2,0,.19.09a4.23,4.23,0,0,0,2.49.26A9.42,9.42,0,0,0,92.23,78l.39-.2.35.28a4.89,4.89,0,0,0,2,1.05,2.43,2.43,0,0,0,1.94-.41l.52-.4.49.52a2.33,2.33,0,0,0,.46.39,1.37,1.37,0,0,0,.49.2,1.36,1.36,0,0,0,.53,0,2.11,2.11,0,0,0,.49-.18l.6-.38.46.57a13,13,0,0,0,1.24,1.34,5.28,5.28,0,0,0,1.09.79,6.29,6.29,0,0,0-.37-.73l-.13-.27a1.47,1.47,0,0,1-.14-.51,1.41,1.41,0,0,1,0-.38,1,1,0,0,1,.42-.53,1,1,0,0,1,.46-.14.76.76,0,0,1,.23,0l.08,0a1,1,0,0,0,.34-.67,1.55,1.55,0,0,0,0-.64,2.65,2.65,0,0,0-.11-.3l-.08-.13-.14-.23c-.72-1.14-1.4-2.25-2.15-3.32a12.89,12.89,0,0,0-2.37-2.84c-.12-.08-.16-.08-.29-.17a3.83,3.83,0,0,1-.57-.31,10,10,0,0,1-.86-.62c-.56-.43-1.07-.86-1.58-1.29-2.07-1.74-4-3.61-6-5.43-1.8-1.66-3.56-3.36-5.37-5l.08.15A2,2,0,0,1,85.19,58.84Z"/><path d="M36.43,31.67a16.63,16.63,0,0,0-1.87.78,14.14,14.14,0,0,1-1.72,1,6.57,6.57,0,0,1-1.06.33c.63,0,1.25,0,1.88.09,2.7.16,5.4.41,8.09.48v.17c-2.71.05-5.41-.09-8.11-.13a38.47,38.47,0,0,0-4,.08,5.9,5.9,0,0,0-1.84.42A4.85,4.85,0,0,0,26.29,36a6.21,6.21,0,0,0-1.61,3.33,7.91,7.91,0,0,0,.4,3.72,12.89,12.89,0,0,0,1.82,3.38,32,32,0,0,0,2.53,3.05c1.23,1.32,2.54,2.57,3.88,3.8l.16,0a3.8,3.8,0,0,0,2.25-.65,3.41,3.41,0,0,0,1.39-1.83,4.09,4.09,0,0,0,0-2.3l-.28-1,.73.71a10.59,10.59,0,0,0,3.73,2.57,3,3,0,0,0,2,0,2.31,2.31,0,0,0,1.17-1.53l.26-1,.52.86a3.83,3.83,0,0,0,1.25,1.14,7.22,7.22,0,0,0,1.63.72,4.36,4.36,0,0,0,1.67.2.65.65,0,0,0,.27-.09l0-.05a1,1,0,0,0-.18-.51l-1.53-2.4L50.72,50a17.27,17.27,0,0,0,1.68,1.1,3.57,3.57,0,0,0,1.75.49l1,0h.11s0,0,0-.12a3.69,3.69,0,0,0-.24-1.66l-.7-2,1.72,1.33a19.44,19.44,0,0,0,1.78,1.23,9.12,9.12,0,0,0,1.87.9,2.73,2.73,0,0,0,.44.1c.06,0,.06,0,.09,0h0a1.1,1.1,0,0,0,.11-.41A5.85,5.85,0,0,0,60.25,49l-1-4.44,2.47,3.87a10.69,10.69,0,0,0,1.48,1.83A5.6,5.6,0,0,0,65,51.51a1.91,1.91,0,0,0,1.64-.06,1.35,1.35,0,0,0,.46-.61,2.69,2.69,0,0,0,.19-.9l.09-3.07,1.55,2.64a5.58,5.58,0,0,0,1.49,1.62,3.81,3.81,0,0,0,2,.75,1.45,1.45,0,0,0,.56,0,1.12,1.12,0,0,0,0-.59,8,8,0,0,0-1-2.14l-3-4.8,4,3.94a39.2,39.2,0,0,0,4.14,3.56,27,27,0,0,0,2.26,1.52,13.46,13.46,0,0,0,2.43,1.14L80.49,52.7c-1.41-2-2.75-4-4.09-6a21.81,21.81,0,0,0-2.34-2.6c-.85-.85-1.72-1.68-2.62-2.48A66.15,66.15,0,0,0,65.85,37c-1-.71-2-1.37-3-2a13.71,13.71,0,0,0-3.21-1.43,44.39,44.39,0,0,0-7.13-1.32c-4.69-.6-9.44-.87-14.17-1.22C37.68,31.25,37,31.43,36.43,31.67Z"/><path d="M76.58,52.51c-.75-.45-1.47-.94-2.18-1.45a3.19,3.19,0,0,1,.09.65,1.7,1.7,0,0,1-.32,1.07,2.46,2.46,0,0,1-.48.43,5.1,5.1,0,0,1-.5.19,3.5,3.5,0,0,1-.88.07,5.56,5.56,0,0,1-2.89-.95,6.77,6.77,0,0,1-.86-.71,2.82,2.82,0,0,1-.93,1.08,3,3,0,0,1-1.7.51,4.23,4.23,0,0,1-1.59-.29A7.13,7.13,0,0,1,62,51.42a.76.76,0,0,0-.11-.14,2.35,2.35,0,0,1-.2.62,1.7,1.7,0,0,1-.7.74,1.9,1.9,0,0,1-1,.13,4.08,4.08,0,0,1-.67-.18,10.13,10.13,0,0,1-2.15-1.11l-.57-.39a2.76,2.76,0,0,1-.08.73,1.44,1.44,0,0,1-.5.74,1.33,1.33,0,0,1-.87.26l-1.08-.09a4.62,4.62,0,0,1-2.21-.68c-.28-.17-.53-.34-.78-.51a1.16,1.16,0,0,1-.49.55,1.73,1.73,0,0,1-.65.2A5.08,5.08,0,0,1,47.84,52,8.34,8.34,0,0,1,46,51.14a6.28,6.28,0,0,1-1-.85,2.93,2.93,0,0,1-1.38,1.29A3.73,3.73,0,0,1,41,51.46a9.85,9.85,0,0,1-3.3-2.28,4.34,4.34,0,0,1-.19,1.75,3.86,3.86,0,0,1-1.6,2,4.17,4.17,0,0,1-2.31.61c.53.48,1.07,1,1.61,1.44,1,.91,2,1.76,3,2.71A17.28,17.28,0,0,0,41.34,60a75.21,75.21,0,0,0,7,3.82c1.2.58,2.43,1.12,3.68,1.6a22.39,22.39,0,0,0,3.24,1.08c-1.66-1.28-3.29-2.62-4.94-3.89l.06-.07.05-.06a3.24,3.24,0,0,0,1.93.51,7.71,7.71,0,0,0,2-.3A12.54,12.54,0,0,0,56.34,62a8.58,8.58,0,0,0,1.72-1l.18-.15.24.13a6,6,0,0,0,1.94.51,11.1,11.1,0,0,0,2.08,0,7.4,7.4,0,0,0,3.77-1.25l.33-.26.41.27a5.06,5.06,0,0,0,1.65.56,14.57,14.57,0,0,0,1.89.21,10.28,10.28,0,0,0,1.86-.11,3.56,3.56,0,0,0,1.48-.54l.31-.25.49.12a10,10,0,0,0,1.35.19c.5,0,1,.09,1.51.11,1,.06,2,.06,3,0a13.46,13.46,0,0,0,3-.38,2,2,0,0,0,1.12-.63,1.12,1.12,0,0,0,0-1.11c-.7-.91-1.37-1.82-2.05-2.74l-.82-1.14,0,.13a11.53,11.53,0,0,1-2.69-.85A19,19,0,0,1,76.58,52.51Z"/><path d="M62.23,99l-6.53-1.4.11-4.31c0-.42,0-.84.06-1.26l-.1,0c-.35-.08-.68-.18-1-.29s-.87-.3-1.29-.47c0,2,0,4.39.06,6.39,0,0,6.86,2,6.85,2.07S60,101,60,101.05l1.55.43a.25.25,0,0,0,.31-.17c.17-.61.44-1.58.56-2A.25.25,0,0,0,62.23,99Z"/><path d="M86.8,79.79c-.52.1-1,.22-1.56.37a6.14,6.14,0,0,1-2,.27,18.1,18.1,0,0,1-3.8-.58,16.62,16.62,0,0,1-3.53-1.49,21.67,21.67,0,0,1-3-2.06,17.84,17.84,0,0,1-6.27-2.17c-1.16-.61-2.28-1.28-3.38-2-.06.5-.11,1-.13,1.48,0,.71,0,1.42,0,2.13s0,1.43,0,2.18a4.54,4.54,0,0,1-.18,1.25,2.13,2.13,0,0,1-.14.37,4.5,4.5,0,0,1-.28.37,2.1,2.1,0,0,1-.41.31,2.29,2.29,0,0,1-.46.17l-.31.11-.23-.19-.06.81a11.39,11.39,0,0,1-.37,1.9,12.8,12.8,0,0,0,2.7.84,21.16,21.16,0,0,0,3.28.41,25.78,25.78,0,0,0,3.29,0,12.22,12.22,0,0,0,3.13-.59l.34-.13.28.29a2.93,2.93,0,0,0,1.87.63,10.14,10.14,0,0,0,2.32-.13,19.54,19.54,0,0,0,4.52-1.26l.3-.13.35.11a7.87,7.87,0,0,0,2.47.52,3.87,3.87,0,0,0,2.19-.85l.3-.23.29.08a7.36,7.36,0,0,0,2.49.32A3.94,3.94,0,0,0,92.86,82c-1.26-.65-2.52-1.27-3.82-1.81A5.06,5.06,0,0,1,86.8,79.79Z"/><path d="M57,88.12V88c0-.28,0-.56-.08-.84l-.08.06a4.77,4.77,0,0,1-1.33.42,5.6,5.6,0,0,1-1.29.08l-.44,0a.06.06,0,0,0,0,0l-.22.78.06.23a8.85,8.85,0,0,1,1.84.87c.18.11.33.24.49.36,0-.12,0-.24,0-.36l0-1.18L57,89a14.88,14.88,0,0,0,2.53,1.44c.3-.07.3-.2.3-.47s-2.2-1.51-2.72-1.78Z"/><path d="M118.34,87c-.69-.69-1.42-1.34-2.14-2-1.47-1.32-3-2.59-4.55-3.78l.09-.15c.51.3,1,.61,1.48.92a2,2,0,0,1,.73-.39,7.1,7.1,0,0,1,.76-.2c-.43-.39-.87-.73-1.33-1.1a13.11,13.11,0,0,0-2.76-1.6c-1-.46-2-.85-3.06-1.31-.71-.31-1.42-.64-2.1-1v0l.17.29a3.9,3.9,0,0,1,.26.64,3.31,3.31,0,0,1,.09,1.33,2.78,2.78,0,0,1-.53,1.34,2.52,2.52,0,0,1-.71.62l.2.45a2.47,2.47,0,0,1,.18.69,1.48,1.48,0,0,1-.27,1.08,1.29,1.29,0,0,1-.17.16q.84.57,1.65,1.17a12.6,12.6,0,0,1,3.53.32,33,33,0,0,1,3.73,1c1.21.4,2.38.92,3.55,1.42l1.76.74.09,0C118.79,87.42,118.57,87.18,118.34,87Z"/><path d="M110.62,89.67c-1.12-1.22-2.27-2.42-3.42-3.62-.93-1-1.87-1.93-2.84-2.87a1.79,1.79,0,0,1-1.31.09,3.43,3.43,0,0,1-1.13-.6,8.48,8.48,0,0,1-.83-.7,12.88,12.88,0,0,1-1-1.11,2.22,2.22,0,0,1-.39.1,3.19,3.19,0,0,1-1.11,0,2.93,2.93,0,0,1-1-.44,2.1,2.1,0,0,1-.33-.26,3.83,3.83,0,0,1-2.55.27,5.71,5.71,0,0,1-2.27-1.13,9.58,9.58,0,0,1-2.6.74l-.38.05c2.48.92,4.85,2.07,7.25,3.18s5,2.4,7.41,3.71c.62.34,1.23.65,1.85,1s1.14.79,1.72,1.18l3.41,2.34c1,.72,2.11,1.44,3.18,2.14l-.35-.42C112.85,92.11,111.75,90.87,110.62,89.67Z"/><path d="M58.3,99.77c-1.1-.27-4.15-1-5.58-1.39l-.53-.14,0-.51c.08-2.42.19-4.83.31-7.24l0-.75.64.35a15.08,15.08,0,0,0,2.69,1.19c.14-.08.11-.48,0-.69s-.47-.43-.71-.62a9.53,9.53,0,0,0-1.75-1l-.07,0v-.06l0-.36-.7-.21c-.48-.15-1.13-.18-1.92-.41a3.79,3.79,0,0,1-.8-.36c.15,1.55.24,3.12.3,4.69l.06,2.67a23.06,23.06,0,0,1-.06,2.74.54.54,0,0,1,0,.11l-.07.2c0,.15-.17.19-.27.27a1,1,0,0,1-.22.12l-.16.08-.63.27-1.26.51c-.84.33-1.67.64-2.51.95L41,101.62a.47.47,0,0,0-.31.51l.09.48a.46.46,0,0,0,.59.37c1.54-.44,3.08-.88,4.63-1.3l6-1.63.26-.07.25.1,5.09,1.83a.41.41,0,0,0,.51-.24c.14-.4.34-1,.48-1.4A.39.39,0,0,0,58.3,99.77Z"/><path d="M21.47,9.5c-.92.35-1.53,1.63-1.3,2a2.25,2.25,0,0,0,2.32.62,1.62,1.62,0,0,0,1.16-2A1.64,1.64,0,0,0,21.47,9.5Z"/><path d="M14.54,13.61s-.08.7.14.92a1,1,0,0,0,1.15,0L15,14.19Z"/></svg>