<svg id="Layer_1" data-name="Layer 1" xmlns="http://www.w3.org/2000/svg" width="128" height="128" viewBox="0 0 128 128"><title>Artboard 5</title><path d="M36.24,111.77h5.24a8.17,8.17,0,0,1,3,.39A3.42,3.42,0,0,1,46,113.55a4.49,4.49,0,0,1,.09,4.32,3.43,3.43,0,0,1-1.34,1.38,3.53,3.53,0,0,1,1.82,1.41,4.34,4.34,0,0,1,.66,2.44,5.05,5.05,0,0,1-.84,3,3.45,3.45,0,0,1-2,1.48,20.42,20.42,0,0,1-3.69.2H36.24Zm2.64,2.66v3.69h1.74a17.34,17.34,0,0,0,1.93-.06,1.63,1.63,0,0,0,1.06-.57,2,2,0,0,0,.38-1.26,1.9,1.9,0,0,0-.31-1.14,1.28,1.28,0,0,0-.75-.55,15,15,0,0,0-2.53-.11Zm0,6.34V125h2.45a7.74,7.74,0,0,0,2.07-.17,1.52,1.52,0,0,0,.77-.66,2.31,2.31,0,0,0,.31-1.26,2.27,2.27,0,0,0-.33-1.28,1.71,1.71,0,0,0-.89-.7,8.62,8.62,0,0,0-2.25-.19Z"/><path d="M49.58,127.73v-16h2.63v16Z"/><path d="M55,127.73v-16h5.56a7.87,7.87,0,0,1,3,.43,3.42,3.42,0,0,1,1.5,1.49,5.21,5.21,0,0,1,.59,2.54,4.74,4.74,0,0,1-.9,3,4,4,0,0,1-2.55,1.44,6.38,6.38,0,0,1,1.4,1.33,18.7,18.7,0,0,1,1.52,2.6l1.59,3.11H63.57l-1.91-3.47a21.09,21.09,0,0,0-1.4-2.36,2.08,2.08,0,0,0-.78-.65,3.6,3.6,0,0,0-1.33-.18h-.54v6.66Zm2.64-9.21h2a9.53,9.53,0,0,0,2.29-.16,1.39,1.39,0,0,0,.79-.63,2.31,2.31,0,0,0,.31-1.28,2.12,2.12,0,0,0-.31-1.22,1.54,1.54,0,0,0-.82-.64,10.48,10.48,0,0,0-2.15-.12H57.61Z"/><path d="M68.36,111.77h4.82a7.21,7.21,0,0,1,2.76.41,4.54,4.54,0,0,1,1.71,1.38,7.09,7.09,0,0,1,1.23,2.51,14,14,0,0,1,.44,3.84,12.45,12.45,0,0,1-.46,3.6,7.09,7.09,0,0,1-1.19,2.42,4.53,4.53,0,0,1-1.73,1.35,6.52,6.52,0,0,1-2.62.45h-5Zm2.64,2.7V125h2a5.1,5.1,0,0,0,1.84-.24,2.24,2.24,0,0,0,.94-.72,4.33,4.33,0,0,0,.6-1.53,12.72,12.72,0,0,0,.24-2.75,12.91,12.91,0,0,0-.24-2.8,3.78,3.78,0,0,0-.76-1.61,2.52,2.52,0,0,0-1.26-.77,10.75,10.75,0,0,0-2.14-.14Z"/><path d="M81.13,122.53l2.57-.31c.29,2,1.25,3.06,2.86,3.06a2.69,2.69,0,0,0,1.88-.63,2,2,0,0,0,.68-1.55,1.77,1.77,0,0,0-.23-.92,1.82,1.82,0,0,0-.73-.63,22.73,22.73,0,0,0-2.38-.82,8.13,8.13,0,0,1-2.47-1.11,4.23,4.23,0,0,1-1.24-1.57A4.78,4.78,0,0,1,81.6,116a4.64,4.64,0,0,1,.6-2.35A3.84,3.84,0,0,1,83.84,112a5.65,5.65,0,0,1,2.57-.53,4.53,4.53,0,0,1,5,4.83l-2.65.14a2.79,2.79,0,0,0-.75-1.79,2.39,2.39,0,0,0-1.64-.51,2.6,2.6,0,0,0-1.64.44,1.38,1.38,0,0,0-.06,2.2,7.2,7.2,0,0,0,2.41,1A9.83,9.83,0,0,1,89.94,119a4.08,4.08,0,0,1,1.35,1.64,5.77,5.77,0,0,1,.47,2.44,5.05,5.05,0,0,1-1.28,3.5,5.15,5.15,0,0,1-4,1.41Q81.66,128,81.13,122.53Z"/><path d="M36.34,74c-5.89,6.35-15.11,13.5-22.73,18.59a40.19,40.19,0,0,0-5,3.67,13.74,13.74,0,0,0,5.78-.09c12.85-2.41,22.87-8.79,36.42-24-.73-.43-3.82-1-4.53-1.49C44.05,71.54,36.74,73.84,36.34,74Z"/><path d="M104.39,17.84a3.09,3.09,0,0,1-1.45-1.61c-1.28-2.73-3-5-5.89-6.2-2-.8-4.28-.72-6.25-1.61C85.18,6,84.87,4.25,80.43.11,81.24,2.25,83,4.64,83,6.61c-.44.19-1.34-.28-1.71-.43a10.64,10.64,0,0,0,1.81,3.7c-.89-.59-2.18-.28-3.14-.09,1.08,1.49,2.14,2.19,2.83,4-.24,0-.81.15-.74.21,1.2,1.32.8,2.41-.12,3.82a56.16,56.16,0,0,0-4.08,7.51,15.18,15.18,0,0,1-5.18,6.29s-11.21,8.3-12.05,10l-.08.17-.16.08a31.35,31.35,0,0,0-4.6,3q-2.22,1.73-4.31,3.61a108,108,0,0,0-8,8c-1.28,1.4-2.53,2.81-3.74,4.28a55.29,55.29,0,0,0-3.43,4.47,54.48,54.48,0,0,0-2.81,4.93c-.63,1.23-1.26,2.49-1.86,3.74,2.83-.8,5.69-1.74,8.49-2.74,3.26-1.16,6.49-2.41,9.64-3.79A80.11,80.11,0,0,0,59,62.79a39.73,39.73,0,0,0,4.26-2.93,17.81,17.81,0,0,0,3.51-3.69l.12-.19.19-.06c3.21-1,13.52-6.43,13.52-6.43s-9.82,6.52-13,7.57c-7.68,10-19,12.68-19.85,13C63.45,77,73,76.25,76.87,75.25c7.38-1.91,26.14-11.38,25-40.65a58.73,58.73,0,0,1,0-6.5,2.21,2.21,0,0,1,1.61-1.84c2.55-1,5.33-1.23,8-2.34A21.85,21.85,0,0,0,104.39,17.84Z"/><path d="M94.48,95.6c0-1.5-1.6-2.65-1.77-2.76s0-.24-.17-.39a4.67,4.67,0,0,0-3.46-1c-1.61,0-4.28.15-5.89.1A1.78,1.78,0,0,1,82,91c-2.27-2.59-4.49-8.34-6.7-11A3.88,3.88,0,0,1,75,76.82a10.84,10.84,0,0,1-2.41.25,11.32,11.32,0,0,1-2.47-.16l-.07,1c1.09,1.14,7.52,11.37,9.64,13.76l-.14.39a20,20,0,0,0-3.69,1.07c-.23.22-.44.45-.65.69-1.27,1.2-3,1.18-3.34.56-2.11-3.42-5-10-7.08-13.46a1.38,1.38,0,0,1,0-1c.39-1.24.68-1.84,1.3-2.12l.66-.74a10.06,10.06,0,0,1-3.14-.23,20.5,20.5,0,0,1-2.69-.6c-.06.81-.06,1.5-.16,2.14a2.47,2.47,0,0,0,.62,2c2.7,3.62,8.78,15.45,8.84,15.85-1.08,0-4.29.54-5.08.45-.28,0-.43.47-.68.44-1.67-.16-2.88.55-3.83,2.42,1-.36,2-.72,3.05-1.06a1.17,1.17,0,0,1,.81-.09c1.26.71,1.84,0,3.44,0a28.73,28.73,0,0,1,4.82.12c1.11.27,2.14,1.1,3.22,1.45a9.48,9.48,0,0,1,3,1.47s.31-.1.36,0c.35.28,1.1,1.43,1.36,1.61a4.5,4.5,0,0,0-.65-2.11s.09-.19.07-.23a12.68,12.68,0,0,0-1.4-2A9.54,9.54,0,0,1,83,99.84s.21-.21.25-.18a5.92,5.92,0,0,1,1,1.47,2.91,2.91,0,0,0-.91-2.81,1.74,1.74,0,0,0-.16-.47C82,96.77,80,96,76.94,95.31c-1.1-.28-1.29-.67-.87-.8.06,0,.33.12.42.09a14.46,14.46,0,0,1,2.08-.29c2.17-.15,5.21-.54,7.29.62a20.23,20.23,0,0,0,3.06,1.42c.29,0,.43-.24.56-.22a4.6,4.6,0,0,1,2.59,1.76c-.24-1.56-.8-1.88-1.84-2.78a.4.4,0,0,0-.08-.39c-.17-.18-1.27-.45-1.47-.6a4.14,4.14,0,0,1,2.11-.35c.42.08.9.26,1.07.3s.36-.19.38-.18A7.34,7.34,0,0,1,94.48,95.6Z"/></svg>