<svg id="Layer_1" data-name="Layer 1" xmlns="http://www.w3.org/2000/svg" width="128" height="128" viewBox="0 0 128 128"><title>Artboard 6</title><path d="M0,112.26H5.08a8,8,0,0,1,2.93.38A3.26,3.26,0,0,1,9.44,114a4.2,4.2,0,0,1,.58,2.18,4.14,4.14,0,0,1-.5,2,3.25,3.25,0,0,1-1.29,1.33A3.41,3.41,0,0,1,10,120.89a4.14,4.14,0,0,1,.64,2.36,4.89,4.89,0,0,1-.81,2.86,3.42,3.42,0,0,1-1.92,1.44,20.66,20.66,0,0,1-3.58.19H0Zm2.55,2.58v3.58H4.24a16.45,16.45,0,0,0,1.88-.06,1.61,1.61,0,0,0,1-.55,1.91,1.91,0,0,0,.37-1.22,1.87,1.87,0,0,0-.3-1.11,1.29,1.29,0,0,0-.73-.54,16.06,16.06,0,0,0-2.46-.1Zm0,6.15v4.13H4.93a7.24,7.24,0,0,0,2-.17,1.44,1.44,0,0,0,.75-.64A2.24,2.24,0,0,0,8,123.1a2.27,2.27,0,0,0-.32-1.25,1.69,1.69,0,0,0-.86-.68A8.27,8.27,0,0,0,4.63,121Z"/><path d="M13.08,127.74V112.39h2.56v12.73H22v2.62Z"/><path d="M35.51,127.74H32.73l-1.11-3.51H26.54l-1.05,3.51H22.77l4.94-15.48h2.71Zm-4.71-6.13L29,115.87l-1.71,5.74Z"/><path d="M45.2,122.05l2.48,1a7,7,0,0,1-1.94,3.79,4.82,4.82,0,0,1-3.32,1.2,4.92,4.92,0,0,1-4-1.91,9.19,9.19,0,0,1-1.78-6,9.69,9.69,0,0,1,1.79-6.2A5,5,0,0,1,42.58,112a4.79,4.79,0,0,1,3.57,1.45,6.23,6.23,0,0,1,1.5,3.08l-2.53.73a3.35,3.35,0,0,0-1-1.92,2.4,2.4,0,0,0-1.7-.67,2.73,2.73,0,0,0-2.3,1.22,7.1,7.1,0,0,0-.89,4,7.45,7.45,0,0,0,.87,4.15,2.62,2.62,0,0,0,2.25,1.24,2.31,2.31,0,0,0,1.75-.79A5,5,0,0,0,45.2,122.05Z"/><path d="M50.11,127.74V112.26h2.55v6.89l5.19-6.89H61.3l-4.78,6,5,9.45H58.24l-3.5-7.28-2.08,2.6v4.68Z"/><path d="M68.24,127.74V112.26h9.42v2.62H70.8v3.43h6.37v2.61H70.8v4.2h7.09v2.62Z"/><path d="M91.72,127.74H89l-1.11-3.51H82.76l-1.05,3.51H79l4.94-15.48h2.72ZM87,121.61l-1.75-5.74-1.72,5.74Z"/><path d="M99.19,122.06v-2.62h5.52v6.16a6.61,6.61,0,0,1-2.36,1.69,7.27,7.27,0,0,1-3.07.71,6.07,6.07,0,0,1-3.32-.92,6.33,6.33,0,0,1-2.27-2.77,10.36,10.36,0,0,1-.84-4.33,10.17,10.17,0,0,1,.85-4.37,6.47,6.47,0,0,1,2.2-2.72,5.84,5.84,0,0,1,3.25-.89,5.46,5.46,0,0,1,3.64,1.15,5.55,5.55,0,0,1,1.76,3.4l-2.54.58a3.3,3.3,0,0,0-1-1.83,2.78,2.78,0,0,0-1.82-.63,3.23,3.23,0,0,0-2.65,1.27,6.21,6.21,0,0,0-1,3.88,6.93,6.93,0,0,0,1.1,4.25,3,3,0,0,0,2.54,1.26,4,4,0,0,0,1.56-.35,4.87,4.87,0,0,0,1.44-1v-2Z"/><path d="M107.37,127.74V112.39h2.55v12.73h6.38v2.62Z"/><path d="M118.35,127.74V112.26h9.42v2.62h-6.86v3.43h6.37v2.61h-6.37v4.2H128v2.62Z"/><path d="M32.56,7.81a1.25,1.25,0,0,1,.33-.48A1.88,1.88,0,0,1,33.32,7a3,3,0,0,1,1-.33,6.84,6.84,0,0,1,1.92,0l.53,0V6.73s0,0,0-.05l0-.06a2.1,2.1,0,0,0-.15-.3c-.1-.2-.22-.4-.34-.59s-.23-.4-.35-.58a2.48,2.48,0,0,1-.35-.71A2,2,0,0,1,35.74,3l-.09,0a4.86,4.86,0,0,0-2.42,1.45,5.53,5.53,0,0,0-.8,1.15A2.9,2.9,0,0,0,32.17,7a4.76,4.76,0,0,0,.27,1.37A2.53,2.53,0,0,1,32.56,7.81Z"/><path d="M36.18,7a9.83,9.83,0,0,0-1.82.12,2.58,2.58,0,0,0-.78.33,3,3,0,0,0-.27.23A7.65,7.65,0,0,0,34.87,8a6.11,6.11,0,0,0,1.82-.06l.06,0,.08,0,0,0c0-.12,0-.25,0-.36A5.4,5.4,0,0,0,36.77,7Z"/><path d="M42.3,8.1,42.4,8c-.67-.08-1.33-.21-2-.35-.86-.2-1.7-.45-2.55-.73l-.6,0a2.57,2.57,0,0,1-.09.61,1.55,1.55,0,0,1-.13.36V8c.92.2,1.87.43,2.78.7.5.15,1,.3,1.48.49l.49.2a1,1,0,0,1,0-.6A1.48,1.48,0,0,1,42.3,8.1Z"/><path d="M36.35,4.78c.15.2.28.41.42.61s.22.43.32.66a3.82,3.82,0,0,1,.13.36l0,.11s0,.1,0,.13v.2l.45.05-.12,0a4.48,4.48,0,0,1,1.5-.08A12.46,12.46,0,0,1,40.58,7a10.41,10.41,0,0,1,2.21.79,5.21,5.21,0,0,0-.92-1.12c-.48-.39-1-.67-1.52-1.05A6.64,6.64,0,0,1,39,4.28a4.52,4.52,0,0,1-.5-.85A2.57,2.57,0,0,1,38.31,3c0-.16-.13-.32,0-.45L35.79,3A3.07,3.07,0,0,0,36,4.27,3.51,3.51,0,0,0,36.35,4.78Z"/><path d="M53.18,74.4a2.9,2.9,0,0,1-1.1,0,2.64,2.64,0,0,1-.55-.17,3.81,3.81,0,0,1-.45-.26,11.18,11.18,0,0,1-1.45-1.13,45.81,45.81,0,0,1-4.74-5.13l-.8-1a20.78,20.78,0,0,1,1.3,3.64c.27,1,.48,2,.67,3s.38,1.94.64,2.83a6.55,6.55,0,0,1,1,2,16.93,16.93,0,0,1,.65,2.14c.18.72.34,1.43.48,2.16.07.36.13.72.19,1.09l.06.46,2.66-.24,2.85-.22.17-1.76c-.06-.77-.11-1.54-.12-2.31A15.24,15.24,0,0,1,54.79,77a2.25,2.25,0,0,1,.08-.33l.09-.28a3.52,3.52,0,0,0,.11-.53c0-.14.09-1.14.09-1.15,0-.56,0-1.13,0-1.7a2.83,2.83,0,0,1-.2.28A3.06,3.06,0,0,1,53.18,74.4Z"/><path d="M51.9,85l-1.65.17L50,88.21l-5.38,0a.5.5,0,0,0-.48.66l.34,1a.51.51,0,0,0,.52.35l8.61-.64c.08,0,2,.41,3.14.69a.73.73,0,0,0,.85-.47c.15-.43.51-.78.36-1a28.77,28.77,0,0,0-4.06-1.06s.38-2.14.57-3.06Z"/><path d="M74.43,70.48a9.45,9.45,0,0,1-.92-1.41c0,.1.09.2.13.31.44,1.1.91,2.21,1.33,3.33h0v.06c0,.23.11.45.16.68a11.65,11.65,0,0,1,.35-2A4.76,4.76,0,0,1,74.43,70.48Z"/><path d="M78,43.73a3.08,3.08,0,0,1-.43,0,2,2,0,0,1-.42-.12,1.5,1.5,0,0,1-.53-.5,9.1,9.1,0,0,1-.09,3.71,7.91,7.91,0,0,1-.84,2.27c.26.27.52.54.79.79a4.86,4.86,0,0,0,1.28,1l.15,0H78a3.26,3.26,0,0,0,.15-.44,12.69,12.69,0,0,0,.25-1.63c.18-1.82.26-3.7.48-5.59l-.12.13a2,2,0,0,1-.38.24A3,3,0,0,1,78,43.73Z"/><path d="M78.6,53.89a13.34,13.34,0,0,1,0-1.79l0-.22,0,0a.84.84,0,0,1-.47.13,1.14,1.14,0,0,1-.37,0,2.83,2.83,0,0,1-.31-.11l-.26-.14a4.47,4.47,0,0,1-1.3-1.47,8,8,0,0,1-.45-.93,4.58,4.58,0,0,1-.92,1,3.11,3.11,0,0,1-.53.32,8,8,0,0,1-.59,2,19.44,19.44,0,0,1-.94,2c-.32.64-.72,1.27-1,1.86a3.3,3.3,0,0,1-1.75,1.74c.48.91,1,1.81,1.41,2.73.6,1.19,1.17,2.4,1.71,3.62S73.9,67,74.38,68.25c.23.63.43,1.25.68,1.83a7.28,7.28,0,0,0,.54,1c0-.14.07-.28.12-.42a31,31,0,0,1,1.36-3.36c.51-1.06,1-2.1,1.46-3.14.12-1.1.19-2.23.28-3.34s.12-2.31.11-3.46a13.15,13.15,0,0,0-.12-1.68A17.11,17.11,0,0,1,78.6,53.89Z"/><path d="M79.23,53.81c.11.57.25,1.1.41,1.68A12.66,12.66,0,0,1,80,57.28a30.31,30.31,0,0,1,.11,3.56c0,1.19-.1,2.36-.21,3.54v.1l0,.1c-.48,1.12-1,2.19-1.56,3.25S77.19,69.94,76.77,71a13.58,13.58,0,0,0-.89,3.32c0,.18,0,.37,0,.55.8.69,1.6,1.37,2.38,2.06.1-.18.19-.36.28-.56a22.49,22.49,0,0,0,1-2.51,29.87,29.87,0,0,0,1.3-5.19c.3-3.52.36-7.2.58-10.81.1-1.82.2-3.62.4-5.46.06-.49.11-.86.13-1.31s0-.88,0-1.32c0-.9,0-1.79-.06-2.69-.08-1.79-.21-3.59-.41-5.38q-.15-1.35-.36-2.67c-.08-.44-.17-.87-.27-1.3a3.41,3.41,0,0,0-.44-1.1l-.11-.16,0-.13a3.38,3.38,0,0,0,0-1.41,9.48,9.48,0,0,0-.43-1.44c-.18-.44-.38-.87-.59-1.31l0,.64a23.92,23.92,0,0,1-.07,4.31,6.16,6.16,0,0,1,.36,1.24,9.85,9.85,0,0,1,.18,1.42,6.49,6.49,0,0,1-.42,2.79,19.72,19.72,0,0,1,.42,2.74,20.83,20.83,0,0,1,0,3.62,8.68,8.68,0,0,1-.37,1.88,3.14,3.14,0,0,1-.23.5c-.06.09-.11.19-.18.29s0,.31,0,.47A16,16,0,0,0,79.23,53.81Z"/><path d="M74.34,93.35a1,1,0,0,0-.15-.3,6.67,6.67,0,0,0-.94-1c-.38-.34-.76-.63-1.19-1a13.71,13.71,0,0,1-1.1-1.2,34.41,34.41,0,0,1-3.5-5.24,29.75,29.75,0,0,1-1.38-2.84,12.54,12.54,0,0,1-.87-2.81c-.24-.24-.48-.49-.7-.74-1-1.18-1.83-2.44-2.74-3.66.52.56,1,1.12,1.54,1.68s1,1.15,1.53,1.66a7.09,7.09,0,0,0,3.8,2h.1l.09.09c2.28,2.1,4.58,4.19,6.92,6.2,1.18,1,2.37,2,3.6,2.87l.93.61a4.18,4.18,0,0,0,.9.42l.07,0,.3-.24a1.51,1.51,0,0,0,.4-.69,2.81,2.81,0,0,0-.3-1.81,8.56,8.56,0,0,0-1.19-1.81,28.85,28.85,0,0,1-2.66-3.93l-1.13-2-.57-1q-.21-.39-.42-.81s0,0,0,0a2.56,2.56,0,0,1-.11-.24,16.37,16.37,0,0,1-1.28-4.58l-1-3.4-.52-1.71-.19-.67c-.32-.67-.64-1.36-.93-2.05-.52-1.24-1-2.49-1.42-3.77a25.8,25.8,0,0,1-.8-3,3.08,3.08,0,0,1-1.13,0c0,.58,0,1.15-.07,1.72l-.11,1.17a5.78,5.78,0,0,1-.08.6l0,.3a1.78,1.78,0,0,1-.13.4,2,2,0,0,1-1.24,1,4.59,4.59,0,0,1-.66.17,8.16,8.16,0,0,1-.93,1.9,2.76,2.76,0,0,1-.49.54,1.66,1.66,0,0,1-.37.23,1,1,0,0,1-.56.06l-.15,0h-.06s-.06,0-.06,0l0,0a1.73,1.73,0,0,0-.27.33,4.5,4.5,0,0,1-.38.41c.48.78.84,1.61,1.24,2.4s.85,1.7,1.3,2.5a10.15,10.15,0,0,0,1.57,2.17,2.87,2.87,0,0,0,.93.65,1.47,1.47,0,0,0,.83.07A3.77,3.77,0,0,0,69,73.71a5.64,5.64,0,0,0,.14-1.56,32.41,32.41,0,0,0-.45-3.38A12.32,12.32,0,0,1,70,72.05a5.49,5.49,0,0,1,.09,1.86,4.15,4.15,0,0,1-.7,1.83l-.09.14-.2.09a2.65,2.65,0,0,1-1.84,0,3.88,3.88,0,0,1-1.44-.94,9.21,9.21,0,0,1-1.67-2.57,17.25,17.25,0,0,1-1-2.77c-.24-.86-.39-1.75-.56-2.62l-.11.11a1.81,1.81,0,0,1-.86.32,2.17,2.17,0,0,1-.44,0H60.9a3.64,3.64,0,0,0-.54.07,23.59,23.59,0,0,0-2.38.7,13,13,0,0,1-1.3.32,4.75,4.75,0,0,1-1.5.09,2.49,2.49,0,0,1-1.43-.81,6.29,6.29,0,0,1-.8-1.15c-.84-1.54-1.53-3-2.36-4.58a1,1,0,0,1-.2.3,1.16,1.16,0,0,1-.27.18,1.22,1.22,0,0,1-.26.06,1.16,1.16,0,0,1-.69-.19,4,4,0,0,1-1.11-1.22,15,15,0,0,1-1.32-2.5c0,.32,0,.64,0,1s-.05.6-.09.91-.06.31-.11.49a1.61,1.61,0,0,1-.1.28.68.68,0,0,1-.09.16,1,1,0,0,1-.19.21L46,62l-.22-.08a3.57,3.57,0,0,1-.88-.43,1.8,1.8,0,0,1-.63-.8,8.15,8.15,0,0,1-.31-1.76c.29.5.5,1.08.79,1.49a1.42,1.42,0,0,0,.85.53c0-.1,0-.22,0-.34s0-.54,0-.82c0-.56-.07-1.13-.11-1.7l-.25-3.44c-.07-1.15-.13-2.3-.16-3.46s0-2.32,0-3.5a32,32,0,0,1,.87,3.4c.22,1.15.4,2.29.54,3.45l.17,1.73.06,1.24c.18.31.37.62.56.92a21.2,21.2,0,0,0,1.62,2.28,6.94,6.94,0,0,0,.58.62s0-.06,0-.09a18.12,18.12,0,0,0-.49-2.7c-.4-1.84-.88-3.68-1.26-5.55a18,18,0,0,1-.47-5.76,41.86,41.86,0,0,0,1.48,5.49c.59,1.81,1.13,3.65,1.56,5.53a18.11,18.11,0,0,1,.45,2.93,2.42,2.42,0,0,1-.12.94l0,.08a26.59,26.59,0,0,1,3.24,4c.49.67,1,1.28,1.53,1.28a4.45,4.45,0,0,0,1.06-.12c.37-.08.74-.19,1.12-.31a4.05,4.05,0,0,1-.86-.58,8,8,0,0,1-1.57-2,11.82,11.82,0,0,1-1-2.21,15.37,15.37,0,0,1-.59-2.36,9.51,9.51,0,0,1,1.54,1.9c.43.67.82,1.34,1.21,2s.77,1.32,1.19,1.93a7.28,7.28,0,0,0,.88,1.06,13.09,13.09,0,0,1,1.82-.45,4.59,4.59,0,0,1,.75,0l.37,0a.76.76,0,0,0,.21,0c.25,0,.42-.1.72-.4a1.94,1.94,0,0,1,.68-.53,1,1,0,0,1,.58,0,.69.69,0,0,1,.23.08l.1,0h0s0,0,.07,0a.65.65,0,0,0,.19-.09,1.87,1.87,0,0,0,.44-.34,10.23,10.23,0,0,0,1.21-1.44l-.4.06a14.32,14.32,0,0,1-2.45,0,6.14,6.14,0,0,1-1.32-.21,4.22,4.22,0,0,1-1.19-.71A10.89,10.89,0,0,1,58.7,61c-1-1.28-1.71-2.65-2.58-4a29.09,29.09,0,0,1,3.37,3.28,12,12,0,0,0,1.65,1.5,3.21,3.21,0,0,0,.83.47,5.58,5.58,0,0,0,1,.12,14.05,14.05,0,0,0,2.24.07,4.86,4.86,0,0,0,1-.12,1.33,1.33,0,0,0,.66-.32,1.77,1.77,0,0,0,.15-.42l.16-.55.33-1.13c.16-.55.32-1.09.51-1.64a1.45,1.45,0,0,1-.56-.25A2.22,2.22,0,0,1,67,57.6a7.66,7.66,0,0,1-1.28-1.92A14.07,14.07,0,0,1,65,53.79a4.7,4.7,0,0,1-2.66,2.05,2.18,2.18,0,0,1-1.14.14,2.51,2.51,0,0,1-.57-.16,2.48,2.48,0,0,1-.49-.24,5.73,5.73,0,0,1-1.49-1.35,16.88,16.88,0,0,1-2-3.17,34.94,34.94,0,0,1-1.46-3.37,20.28,20.28,0,0,1,2.35,2.83c.71,1,1.39,2,2.12,2.85a6.14,6.14,0,0,0,1.14,1.14,1.66,1.66,0,0,0,.3.19,1,1,0,0,0,.3.12.73.73,0,0,0,.29,0,1,1,0,0,0,.37,0,6.27,6.27,0,0,0,2.86-1.24,9.56,9.56,0,0,1-.4-2.12,30,30,0,0,0,2.13,3.68,8.83,8.83,0,0,0,1.25,1.54,2.66,2.66,0,0,0,.32.24l.12.06.12,0A1.77,1.77,0,0,0,69.2,57a1.66,1.66,0,0,0,.65-.38,2.6,2.6,0,0,0,.26-.32,1.88,1.88,0,0,0,.12-.18l.14-.23c.41-.65.8-1.22,1.24-1.8.78-1.1,1.62-2.15,2.33-3.32a3.16,3.16,0,0,1-1.59.25,4.88,4.88,0,0,1-2-.65,4.27,4.27,0,0,1-2.09-3.14l-.39,0a5.44,5.44,0,0,1-.61-.12,1.37,1.37,0,0,1-.61-.36,3.4,3.4,0,0,1-.59-1c0-.1-.07-.19-.1-.29a2.27,2.27,0,0,1-.51.14l-.29.06a.46.46,0,0,0-.2.05,2.2,2.2,0,0,0-.76.52,7.71,7.71,0,0,1-2,1.65,4.81,4.81,0,0,1-1.32.41,2.29,2.29,0,0,1-.75,0,2.92,2.92,0,0,1-.72-.18,5.89,5.89,0,0,1-2.11-1.58,17.47,17.47,0,0,1-1.5-2c-.87-1.33-1.59-2.71-2.32-4.09a1.62,1.62,0,0,1-.1.18,1.73,1.73,0,0,1-1.14.56,4.21,4.21,0,0,1-1.13-.05,6,6,0,0,1-2.07-.77,4.77,4.77,0,0,1-1.58-1.64,5,5,0,0,1-.66-2.15,10.66,10.66,0,0,1,.13-2.09,4.06,4.06,0,0,0-.11-1.8,18.35,18.35,0,0,0-.69-1.86,7.48,7.48,0,0,1,1.29,1.6,4.17,4.17,0,0,1,.55,2.1c0,.68,0,1.35.08,1.91A4.54,4.54,0,0,0,48.63,38a4.75,4.75,0,0,0,2.74,2.06,1.9,1.9,0,0,0,1.54.06,1.24,1.24,0,0,0,.41-.7,6.2,6.2,0,0,0,.16-1,3.85,3.85,0,0,1,.21,1,1.77,1.77,0,0,1-.18.91c1,1.24,1.83,2.54,2.83,3.73a16.61,16.61,0,0,0,1.59,1.75,5.28,5.28,0,0,0,1.84,1.22,1.57,1.57,0,0,0,.91,0,4,4,0,0,0,1-.35,6,6,0,0,0,1.53-1.36c-.19-.08-.35-.17-.52-.26l-.45-.24-.48-.25A7.1,7.1,0,0,1,60,43.2a8.38,8.38,0,0,1-.7-.9l-.6-.89c-.77-1.19-1.52-2.4-2.19-3.66a20.39,20.39,0,0,1-1.73-3.94c.89,1.14,1.78,2.23,2.61,3.38S59,39.5,59.77,40.68l.57.89a9.73,9.73,0,0,0,.57.81,7.52,7.52,0,0,0,1.4,1.36l.44.31c.15.11.29.23.42.34a4.11,4.11,0,0,0,.62.43,2.7,2.7,0,0,1,.76-.44c.13,0,1-.26,1.1-.3a2.08,2.08,0,0,0,1-1.44,3.25,3.25,0,0,0-.2-2,9.06,9.06,0,0,0-1.19-1.91,25.75,25.75,0,0,0-3.23-3.47c-.58-.54-1.2-1.05-1.82-1.55s-1.31-1-1.92-1.52a17.43,17.43,0,0,1-3.18-3.74,22.36,22.36,0,0,0,3.59,3.23c.63.47,1.32.86,2,1.32s1.18.83,1.74,1.27a34.2,34.2,0,0,1-2.44-2.43,15.77,15.77,0,0,0-2.32-2.79c-.84-.66-.78-1-1.43-2s-2.2-1.4-3.41-1.8,0-1.09,1-1.15A6.57,6.57,0,0,1,57,25a28.1,28.1,0,0,1,3.18,3.85,42.12,42.12,0,0,0,2.66,3.51c.72.69,1.23,1.55,1.74,1.55.23,0,.44-2.62,1.32-4a12.25,12.25,0,0,1,1.3-2.22c.66-.71,2.19-1.93,3-1.86s0,1.54-.37,2.64c-.51,1.38-.06,1.76-1.06,3.06a28.7,28.7,0,0,0-3.32,5.4c.31.34.62.69.91,1a9.58,9.58,0,0,1,1.41,2.19A4.5,4.5,0,0,1,68,42.94a3.45,3.45,0,0,1-1.76,2.3c.06.07.11.15.17.21a3.19,3.19,0,0,0,.69.72,1.4,1.4,0,0,0,.83.1l1-.09.55,0,.27,0,.12,0a1.51,1.51,0,0,0,.52-.49,7.42,7.42,0,0,0,.88-1.76c.51-1.29.9-2.67,1.3-4l.3-1,.15-.52a1.33,1.33,0,0,0,0-.43,3.23,3.23,0,0,0-.7-1.91,3,3,0,0,1,1.35,1.82,1.83,1.83,0,0,1,.07.65l0,.54c0,.37-.09.73-.14,1.1a20.62,20.62,0,0,1-1.08,4.31,7.57,7.57,0,0,1-1.15,2.06,2.3,2.3,0,0,1-1.18.82,1.48,1.48,0,0,1-.41,0h-.27l-.55,0-.69,0a5.41,5.41,0,0,0,2.52,2.2,5.17,5.17,0,0,0,1.6.32,2.11,2.11,0,0,0,1.29-.41,6.64,6.64,0,0,0,1.75-2.78,26.31,26.31,0,0,0,1.06-3.46l0-.06a3,3,0,0,1-.28-1.41,6.92,6.92,0,0,1,.16-1.36,4.79,4.79,0,0,0,.57,2.5.74.74,0,0,0,.86.29,1,1,0,0,0,.63-.68,5.81,5.81,0,0,0,.14-2.44A7.19,7.19,0,0,0,78,37.54l-.1-.17,0-.19a29.07,29.07,0,0,0,0-4.28l0-1.08a4.4,4.4,0,0,0-.18-.92,6.64,6.64,0,0,0-.87-1.8,11.77,11.77,0,0,0-2.86-3,5.21,5.21,0,0,0-.9-.5,4.19,4.19,0,0,0-1-.32,4.72,4.72,0,0,1-1.93-1.15,18.35,18.35,0,0,0-3.92-3.85c-1.44-1.16-2.93-2.24-4.38-3.44a12.26,12.26,0,0,1-1.08-1l-.26-.32a1.37,1.37,0,0,1-.13-.2l-.09-.14a3.91,3.91,0,0,0-.34-.49,18.92,18.92,0,0,0-2-1.74,4.82,4.82,0,0,1-.56-.55,1.83,1.83,0,0,0-.13-.16c0-.07-.1-.14-.14-.21a2.69,2.69,0,0,1-.19-.38,13.69,13.69,0,0,1-.47-1.41c-.24-.89-.48-1.77-.76-2.63a11,11,0,0,0-2.52-4.54A10.25,10.25,0,0,0,48.58.56,14.77,14.77,0,0,0,45.94.08a11,11,0,0,0-2.68.14A12,12,0,0,0,40.64,1a6.32,6.32,0,0,0-2.25,1.49c.07,0,.19.58.36.81a4.94,4.94,0,0,0,.61.68A11.77,11.77,0,0,0,40.74,5.1c.24.17.51.35.77.55a6.4,6.4,0,0,1,.72.66A3.25,3.25,0,0,1,43.09,8l.24.13a6.3,6.3,0,0,1-.75,0l-.16.17a1.19,1.19,0,0,0-.31.61.74.74,0,0,0,.14.58,2,2,0,0,0,.51.44l-.2.29c.17.17.33.35.49.53a3,3,0,0,0,.75.49,5.54,5.54,0,0,0,1.71.56,17.94,17.94,0,0,0,1.8.07l1.85,0,0,.06a4.69,4.69,0,0,1-1.85.57,5.74,5.74,0,0,1-1.93-.22,5.81,5.81,0,0,1-1.76-.78A13.3,13.3,0,0,1,45,14a14.87,14.87,0,0,1,.82,2.71,14.69,14.69,0,0,1,.34,2.82,10.25,10.25,0,0,1,0,1.46,7.11,7.11,0,0,1-.15.75,2.85,2.85,0,0,1-.11.39l-.13.34A19.21,19.21,0,0,1,44.44,25c-.35.58-.73,1.14-1.12,1.7a11.32,11.32,0,0,1,2.58-1.39,15.2,15.2,0,0,1,3-.8A11.37,11.37,0,0,1,52,24.43a13.3,13.3,0,0,0-3,.39,14.72,14.72,0,0,0-2.83,1,11.93,11.93,0,0,0-2.5,1.59,7,7,0,0,0-1.78,2.24l-.15.32-.38-.07a3.22,3.22,0,0,0-1.92.45,6.11,6.11,0,0,0-1.64,1.36,6.39,6.39,0,0,0-1.12,1.83,10.25,10.25,0,0,0-.54,2.15,46.49,46.49,0,0,0-.56,9.21A39.2,39.2,0,0,0,36,49.52c.13.74.3,1.5.47,2.27l.47,2.3a17,17,0,0,0,1.33,4.36,8.42,8.42,0,0,0,1.25,1.84,12.8,12.8,0,0,0,1.63,1.48,1,1,0,0,0,.11-.27,4.61,4.61,0,0,0,.11-.77,11,11,0,0,0,0-1.62,15.37,15.37,0,0,0-.55-3.23,13,13,0,0,1,.88,3.19c.07.44.12.88.15,1.33a4.44,4.44,0,0,0,.77-.81,1.66,1.66,0,0,0,.25-.92c0-.69-.11-1.48-.17-2.29a22,22,0,0,1,0-2.44A12,12,0,0,1,43,51.47a12.53,12.53,0,0,1,.71,2.39A19.71,19.71,0,0,1,44,56.29a7.51,7.51,0,0,1-.13,2.56,2.14,2.14,0,0,1-.84,1.22,2.69,2.69,0,0,1-1.22.37c0,.1,0,.2,0,.3a4.32,4.32,0,0,1,0,.87,1.44,1.44,0,0,1-.17.49.6.6,0,0,1-.28.26h-.08L45.68,67c.81.82,1.59,1.66,2.4,2.47s1.61,1.62,2.45,2.37a11.2,11.2,0,0,0,1.25,1c.11.08.21.13.3.19l.28.09a1.85,1.85,0,0,0,.62,0,2.17,2.17,0,0,0,1.69-1.84,1,1,0,0,0-.1-.58,6.13,6.13,0,0,0-.39-.7,16.47,16.47,0,0,0-1-1.39c-.67-.93-1.39-1.83-2.1-2.75a27.15,27.15,0,0,1,2.6,2.31c.41.42.82.85,1.19,1.31a5.25,5.25,0,0,1,.53.77,2.69,2.69,0,0,1,.22.51,1.88,1.88,0,0,1,.06.57,3,3,0,0,1-.45,1.52c.1.6.21,1.2.26,1.81,0,.25,0,.49,0,.73.25.43.53.84.79,1.26.56.87,1.15,1.72,1.74,2.57l3.54,5.09C62.83,86,64,87.78,65.11,89.5c.59.85,1.13,1.72,1.79,2.51a10,10,0,0,0,2.23,2.09,4.67,4.67,0,0,0,2.75.91,3.09,3.09,0,0,0,1.31-.41,3.53,3.53,0,0,0,1.06-.79.63.63,0,0,0,.12-.28l-.09-.13ZM52.22,54a9.29,9.29,0,0,0,.64,1,4.22,4.22,0,0,0,.79.79,2.27,2.27,0,0,0,.41.24.38.38,0,0,0,.24.05s0,0,.11-.09a1.29,1.29,0,0,0,.15-.37,6,6,0,0,0-.05-2.26c-.12-.82-.31-1.65-.45-2.49-.34-1.67-.67-3.36-.88-5.08a40.4,40.4,0,0,1,1.88,4.82,23.56,23.56,0,0,1,.69,2.53,6.51,6.51,0,0,1,.1,2.84,2.49,2.49,0,0,1-.37.8,1.53,1.53,0,0,1-.95.59,1.77,1.77,0,0,1-1-.15,3.19,3.19,0,0,1-.68-.44,6.15,6.15,0,0,1-1-1.1,7.47,7.47,0,0,1-.62-1.23,24.62,24.62,0,0,1-1.45-5C50.67,51,51.41,52.54,52.22,54ZM46,4.41A.43.43,0,0,1,46,5a2.73,2.73,0,0,1-1.79,1A2.62,2.62,0,0,1,42.43,5a.46.46,0,0,1,0-.67,3.16,3.16,0,0,1,1.14-.8c-.2,0-1.17.1-1.82.14a4,4,0,0,1,2.42-1,5.37,5.37,0,0,1,2.71,1,10.28,10.28,0,0,0-2.18-.17A3.27,3.27,0,0,1,46,4.41Z"/><path d="M82.36,94.42c-1.4-1.13-2.93-2.23-4.3-3.54a14.92,14.92,0,0,1-1.84-2.19,9.19,9.19,0,0,1-.59-1l-.68-.6c-2.3-2.07-4.49-4.24-6.62-6.47a7.87,7.87,0,0,1-2.07-.88,7.61,7.61,0,0,1-.72-.55A34.71,34.71,0,0,0,68.43,84c1.16,1.69,2.39,3.34,3.64,4.93.32.39.64.78,1,1.14s.72.69,1.1,1.07a7,7,0,0,1,1.09,1.32,2,2,0,0,1,.31,1,1.18,1.18,0,0,1-.09.46,20.1,20.1,0,0,0,3.86,1.46,7.21,7.21,0,0,0,2.63.45,2.16,2.16,0,0,0,.63-.16.87.87,0,0,0,.4-.34c0-.09,0-.28-.16-.44A4,4,0,0,0,82.36,94.42Z"/><path d="M78.06,77.61s-.16-.11-.14-.15c-.7-.77-1.4-1.56-2.09-2.35a5,5,0,0,0,0,.55,13.29,13.29,0,0,0,.61,1.39A10.29,10.29,0,0,0,77,78l.18.29,0,0,.42.67,1.18,2a31.58,31.58,0,0,0,2.65,3.71,10.37,10.37,0,0,1,1.38,2.07,4.23,4.23,0,0,1,.46,2.37c1,.73,2,1.49,3,2.23.62.47,1.25.92,1.89,1.33a6.4,6.4,0,0,0,1.92.93,1.06,1.06,0,0,0,.76,0c.1,0,.08,0,.1-.09a.75.75,0,0,0,0-.28,5.92,5.92,0,0,0-.81-1.89,30,30,0,0,0-2.66-3.67c-.49-.6-1-1.15-1.52-1.7L84.4,84.3l-3.23-3.36C80.13,79.83,79.09,78.73,78.06,77.61Z"/><path d="M117,88.11a4.59,4.59,0,0,0-.77-1.42,2.32,2.32,0,0,0-1.55-.86,2.73,2.73,0,0,0-1.7.49c-.24.15-.45.33-.62.43a3.53,3.53,0,0,1-.57.33,12.3,12.3,0,0,1-5.52.76,57.5,57.5,0,0,1-5.83-.57c-3.9-.56-7.8-1.25-11.74-1.75l1.71,2.24,1.3,4.18.21,3.3-5.58-2.62-3.52.81a7.06,7.06,0,0,0,1.61.53c.54.13,7.9,2.5,7.9,2.5.53.11,1.33-.67,1.76-.48s1,.42,1.46.66c4,1.94,7.88,4,11.85,5.94l.67.33.28-.68c.4-1,.84-2,1.33-2.91.13-.23.25-.46.38-.67s.14-.2.21-.3l.09-.12,0,0s.07-.09.09-.13a.78.78,0,0,0,.13-.38.86.86,0,0,0-.14-.56,1.05,1.05,0,0,0-.21-.27,2.78,2.78,0,0,0-.4-.33,5.58,5.58,0,0,0-.76-.47,30.39,30.39,0,0,0-3-1.37c-.51-.2-1-.39-1.52-.57,3.34-.59,6.68-1.17,10-1.65l1.47-.22.37-.06a.87.87,0,0,0,.45-.22,1.55,1.55,0,0,0,.4-.77A5.89,5.89,0,0,0,117,88.11Z"/><path d="M63.43,88a32.48,32.48,0,0,0-4.38,0l-.55,2.42a.75.75,0,0,1-.87.57l-2.48-.46-4.73-.15L44.34,91l-.56-1.18c-2.14.28-3.63.77-5.72,1.23s-4.19.92-6.24,1.56l-1.53.49-.77.24a2,2,0,0,0-.83.47,1.88,1.88,0,0,0-.58,1.72,1.91,1.91,0,0,0,.36.82l.43.67c1.18,1.79,2.21,3.66,3.25,5.54l.25.45.42-.4a43.65,43.65,0,0,1,5-4c.88-.6,1.78-1.17,2.7-1.7s1.84-1.06,2.78-1.56a57.61,57.61,0,0,1,5.81-2.67c2-.8,7.84-.88,9.92-1.5a47.94,47.94,0,0,1,5.49.33c.74.08,1.14.12,1.37.12l-2.46-3Z"/></svg>