<svg id="Layer_1" data-name="Layer 1" xmlns="http://www.w3.org/2000/svg" width="128" height="128" viewBox="0 0 128 128"><title>Artboard 7</title><path d="M39.3,111.77h5.24a8.17,8.17,0,0,1,3,.39A3.42,3.42,0,0,1,49,113.55a4.49,4.49,0,0,1,.09,4.32,3.43,3.43,0,0,1-1.34,1.38,3.53,3.53,0,0,1,1.82,1.41,4.34,4.34,0,0,1,.66,2.44,5.05,5.05,0,0,1-.84,3,3.39,3.39,0,0,1-2,1.48,20.42,20.42,0,0,1-3.69.2H39.3Zm2.64,2.66v3.69h1.74a17.34,17.34,0,0,0,1.93-.06,1.63,1.63,0,0,0,1.06-.57,2,2,0,0,0,.38-1.26,1.9,1.9,0,0,0-.31-1.14,1.28,1.28,0,0,0-.75-.55,15,15,0,0,0-2.53-.11Zm0,6.34V125h2.45a7.69,7.69,0,0,0,2.07-.17,1.52,1.52,0,0,0,.77-.66,2.31,2.31,0,0,0,.31-1.26,2.27,2.27,0,0,0-.33-1.28,1.72,1.72,0,0,0-.88-.7,8.77,8.77,0,0,0-2.26-.19Z"/><path d="M52.18,119.85a11.22,11.22,0,0,1,.85-4.7,6.36,6.36,0,0,1,2.2-2.75,5.86,5.86,0,0,1,3.3-.9,5.66,5.66,0,0,1,4.58,2.14A11.45,11.45,0,0,1,63,126a5.46,5.46,0,0,1-4.46,2,5.53,5.53,0,0,1-4.48-2A9.37,9.37,0,0,1,52.18,119.85Zm2.72-.11A6.78,6.78,0,0,0,56,123.87a3.13,3.13,0,0,0,5.18,0,7,7,0,0,0,1-4.2,6.88,6.88,0,0,0-1-4.1,3.24,3.24,0,0,0-5.24,0A6.85,6.85,0,0,0,54.9,119.74Z"/><path d="M79,127.73H76.11L75,124.11H69.73l-1.09,3.62h-2.8l5.09-16h2.8Zm-4.86-6.31-1.8-5.93-1.78,5.93Z"/><path d="M82.19,127.73V114.47H78.3v-2.7H88.7v2.7H84.82v13.26Z"/><path d="M52,39.78h8.69A1.23,1.23,0,0,1,61.87,41V62.22h4.66V41a1.22,1.22,0,0,1,1.18-1.19H83a1.26,1.26,0,0,1,.87.4l19.44,21.88c.08.08.08.08.08.16h5.92L86,35.52H52a2.13,2.13,0,1,0,0,4.26Z"/><path d="M124.76,71.31A48.45,48.45,0,0,0,128,64.59H6.16l1.35,6.72Z"/><path d="M124.05,90a17.45,17.45,0,0,1-11.54-4.5c2.53-1.82,9.25-7.11,11.78-12.88H7.74l2.93,14.46a17.06,17.06,0,0,1-9.48,3,1.19,1.19,0,1,0,0,2.37A19.61,19.61,0,0,0,16.51,84.9a19.29,19.29,0,0,0,30.66,0,19.29,19.29,0,0,0,30.66,0,19.28,19.28,0,0,0,30.65,0,19.52,19.52,0,0,0,15.33,7.58A1.22,1.22,0,0,0,125,91.3,1,1,0,0,0,124.05,90Z"/></svg>