<svg id="Layer_1" data-name="Layer 1" xmlns="http://www.w3.org/2000/svg" width="128" height="128" viewBox="0 0 128 128"><title>Artboard 40</title><path d="M17.47,123.76V109.44h5a6.86,6.86,0,0,1,2.73.39,3,3,0,0,1,1.35,1.33,4.68,4.68,0,0,1,.53,2.28,4.27,4.27,0,0,1-.81,2.71A3.6,3.6,0,0,1,24,117.44a5.76,5.76,0,0,1,1.26,1.19A17.24,17.24,0,0,1,26.59,121l1.42,2.8H25.19l-1.72-3.12a18.36,18.36,0,0,0-1.26-2.11,1.8,1.8,0,0,0-.7-.59,3.15,3.15,0,0,0-1.19-.16h-.49v6Zm2.36-8.27h1.76a8.51,8.51,0,0,0,2.05-.14,1.27,1.27,0,0,0,.71-.57,2.14,2.14,0,0,0,.28-1.14,2,2,0,0,0-.28-1.1,1.35,1.35,0,0,0-.74-.57,9.37,9.37,0,0,0-1.92-.11H19.83Z"/><path d="M29.5,123.76V109.44h8.72v2.42H31.87V115h5.9v2.41h-5.9v3.88h6.56v2.43Z"/><path d="M40.64,123.76V109.44h8.71v2.42H43V115h5.9v2.41H43v3.88h6.57v2.43Z"/><path d="M51.76,109.44h4.32a6.28,6.28,0,0,1,2.47.37A4.07,4.07,0,0,1,60.09,111a6.2,6.2,0,0,1,1.1,2.26,12.45,12.45,0,0,1,.4,3.44,11.05,11.05,0,0,1-.42,3.23,6.36,6.36,0,0,1-1.06,2.17,4.07,4.07,0,0,1-1.56,1.21,5.78,5.78,0,0,1-2.34.41H51.76Zm2.36,2.42v9.47H55.9a4.79,4.79,0,0,0,1.66-.21,2,2,0,0,0,.84-.65,4,4,0,0,0,.54-1.37,11.69,11.69,0,0,0,.21-2.47,11.12,11.12,0,0,0-.22-2.51,3.22,3.22,0,0,0-.68-1.44,2.19,2.19,0,0,0-1.13-.69,8.87,8.87,0,0,0-1.92-.13Z"/><path d="M63.81,109.44h4.7a7.45,7.45,0,0,1,2.71.35A3,3,0,0,1,72.53,111a4,4,0,0,1,.08,3.88,3.06,3.06,0,0,1-1.2,1.24,3.2,3.2,0,0,1,1.64,1.27,3.93,3.93,0,0,1,.59,2.19,4.51,4.51,0,0,1-.75,2.64,3.09,3.09,0,0,1-1.78,1.33,18,18,0,0,1-3.31.18h-4Zm2.36,2.38v3.31h1.56a15.07,15.07,0,0,0,1.74,0,1.46,1.46,0,0,0,1-.51,1.77,1.77,0,0,0,.34-1.13,1.81,1.81,0,0,0-.28-1,1.17,1.17,0,0,0-.67-.49,13.67,13.67,0,0,0-2.27-.1Zm0,5.7v3.81h2.2a7,7,0,0,0,1.86-.15,1.43,1.43,0,0,0,.69-.59,2.15,2.15,0,0,0,.28-1.13,2,2,0,0,0-.3-1.15,1.51,1.51,0,0,0-.79-.62,7.32,7.32,0,0,0-2-.17Z"/><path d="M75.82,109.44h2.36v7.75a18.81,18.81,0,0,0,.09,2.36A2.42,2.42,0,0,0,79,121a2.28,2.28,0,0,0,1.56.52,2.21,2.21,0,0,0,1.34-.37,1.81,1.81,0,0,0,.71-1,12.36,12.36,0,0,0,.19-2.79v-7.92h2.37V117a20.11,20.11,0,0,1-.31,4.16,3.55,3.55,0,0,1-1.39,2.08,4.69,4.69,0,0,1-2.84.8,5.3,5.3,0,0,1-2.87-.66,3.69,3.69,0,0,1-1.49-1.85,14,14,0,0,1-.47-4.41Z"/><path d="M95.4,118.49l2.29.89a6.41,6.41,0,0,1-1.79,3.51A4.44,4.44,0,0,1,92.83,124a4.55,4.55,0,0,1-3.72-1.77,8.49,8.49,0,0,1-1.64-5.51A9,9,0,0,1,89.12,111,4.67,4.67,0,0,1,93,109.2a4.42,4.42,0,0,1,3.3,1.34,5.78,5.78,0,0,1,1.39,2.84l-2.34.69a3.12,3.12,0,0,0-.9-1.78,2.2,2.2,0,0,0-1.58-.62,2.5,2.5,0,0,0-2.12,1.13,6.49,6.49,0,0,0-.82,3.74,7,7,0,0,0,.8,3.85,2.44,2.44,0,0,0,2.08,1.14,2.15,2.15,0,0,0,1.62-.73A4.61,4.61,0,0,0,95.4,118.49Z"/><path d="M99.94,123.76V109.44h2.37v6.37l4.79-6.37h3.2L105.87,115l4.66,8.74h-3.06L104.23,117l-1.92,2.4v4.33Z"/><path d="M33.72,89.85h4.7a7.12,7.12,0,0,1,2.71.36,3,3,0,0,1,1.32,1.24,4,4,0,0,1,.08,3.88,3,3,0,0,1-1.2,1.23A3.2,3.2,0,0,1,43,97.83a3.93,3.93,0,0,1,.59,2.19,4.45,4.45,0,0,1-.76,2.64A3,3,0,0,1,41,104a18,18,0,0,1-3.31.18h-4Zm2.37,2.39v3.31h1.56c.94,0,1.52,0,1.74,0a1.53,1.53,0,0,0,.94-.51,1.73,1.73,0,0,0,.35-1.13,1.77,1.77,0,0,0-.28-1,1.18,1.18,0,0,0-.68-.5,15.53,15.53,0,0,0-2.27-.09Zm0,5.69v3.82h2.2a7,7,0,0,0,1.86-.15,1.4,1.4,0,0,0,.69-.6,2.11,2.11,0,0,0,.27-1.12,2.08,2.08,0,0,0-.29-1.16,1.53,1.53,0,0,0-.8-.62,7.7,7.7,0,0,0-2-.17Z"/><path d="M45.28,97.1A10,10,0,0,1,46,92.89a5.66,5.66,0,0,1,2-2.47,5.25,5.25,0,0,1,3-.81,5.09,5.09,0,0,1,4.11,1.92A8.4,8.4,0,0,1,56.67,97,8.55,8.55,0,0,1,55,102.63a5.44,5.44,0,0,1-8,0A8.43,8.43,0,0,1,45.28,97.1Zm2.44-.1a6.07,6.07,0,0,0,.94,3.71A2.83,2.83,0,0,0,51,101.94a2.79,2.79,0,0,0,2.32-1.22A6.3,6.3,0,0,0,54.23,97a6.12,6.12,0,0,0-.9-3.68,2.91,2.91,0,0,0-4.7,0A6.14,6.14,0,0,0,47.72,97Z"/><path d="M58.73,104.17V89.85H61.1v5.64h4.65V89.85h2.37v14.32H65.75V97.91H61.1v6.26Z"/><path d="M70.28,97.1A10,10,0,0,1,71,92.89a5.66,5.66,0,0,1,2-2.47,5.25,5.25,0,0,1,3-.81,5.09,5.09,0,0,1,4.11,1.92A8.4,8.4,0,0,1,81.67,97,8.55,8.55,0,0,1,80,102.63a5.44,5.44,0,0,1-8,0A8.43,8.43,0,0,1,70.28,97.1Zm2.44-.1a6.07,6.07,0,0,0,.94,3.71A2.83,2.83,0,0,0,76,101.94a2.79,2.79,0,0,0,2.32-1.22A6.31,6.31,0,0,0,79.22,97a6.12,6.12,0,0,0-.89-3.68,2.91,2.91,0,0,0-4.7,0A6.14,6.14,0,0,0,72.72,97Z"/><path d="M83.73,104.17V89.85h5a6.91,6.91,0,0,1,2.74.39,3,3,0,0,1,1.34,1.34,4.63,4.63,0,0,1,.53,2.28,4.22,4.22,0,0,1-.81,2.7,3.51,3.51,0,0,1-2.29,1.29,6,6,0,0,1,1.26,1.2,15.66,15.66,0,0,1,1.36,2.33l1.43,2.79H91.45l-1.72-3.11a19.41,19.41,0,0,0-1.25-2.12,1.91,1.91,0,0,0-.71-.59,3.34,3.34,0,0,0-1.19-.16h-.49v6Zm2.36-8.26h1.76a9,9,0,0,0,2.05-.14,1.38,1.38,0,0,0,.72-.57,2.15,2.15,0,0,0,.27-1.15,2,2,0,0,0-.27-1.1,1.47,1.47,0,0,0-.75-.57,9.72,9.72,0,0,0-1.92-.1H86.09Z"/><path d="M90.49,84.05h4l.32-1L92,82.41Z"/><path d="M101.07,59.74c-.31-.61-1.57-.17-3.46-1.53-3.3-2.37-2.47-8.52-1.91-11.22,0,.22,0,.46,0,.72,0,1.7.37,4.13,2.29,5.31.26-4.89.91-5,1.78-7.24,1.25-3.24,1.44-5.47,0-7.49-1.92-2.71-5-6.6-9.28-8.25s-16.37-2.26-27.18.29c-5.4,1.28-5.79-1-11.62-.33-2.57.3-3.74,2.07-5.51,1.43-1.53-.54-1-1.52-1.27-3.93l0-.37c-.37.34-.74.66-1.08,1a4,4,0,0,0-.57,1.07l-.54,1.32A5.12,5.12,0,0,1,40.93,33a.82.82,0,0,1-.47.14,2.23,2.23,0,0,1-.39,0l-1.12,0c-.54-.1-.68-.42-1-.8a10.52,10.52,0,0,1-1.24-2.73c-.17-.46-.29-.92-.41-1.37a2.12,2.12,0,0,0-.52-1.06,6.25,6.25,0,0,0-.93-.8,2,2,0,0,1-.09.33A15.68,15.68,0,0,0,36,35.77c1.67,3,5.35,9.19,9.29,11.47s3,4.5,7.92,5.74a1.09,1.09,0,0,1,.43.27c0,3,.3,8.3,1.21,10.6,0,3.36.82,7.17.64,8.44s.15,3.4,0,5.1c-.06.62-.42,2.27-.59,3.12.08,0,1.53.33,2.64.58l.23-1.22s1,.13,1.1-.11a9.26,9.26,0,0,0-.92-2.26s0-4.55.09-5.92-.46-6-.18-6.73a15.74,15.74,0,0,0,0-3.58l-1.08-2.64a14.34,14.34,0,0,0,3,3.4c.89,3.3,2.8,8.13,3.31,10.16s1.14,5.33,1.26,6.35a16.48,16.48,0,0,1-.8,3.9c.52.12,1.59.48,2.33.64V80.44a3.14,3.14,0,0,0,1.23,0c.58-.3-1.1-2.25-1.1-2.25a40.71,40.71,0,0,0-.91-6.79c-.62-1.78-.49-4.57-1.13-6.22s-1.14-4.07-1.39-4.7-.41-6.19-1.18-9.62c3.18,3.43,15,2,20.65-.91.09,3.47.21,4.56,1,6.21s2.82,3.24,4.3,4.6c1.74,1.6,3.2,5.41,2.55,9.49-.31,2-5.46,11.3-5.46,11.3L84,82l2.48.54.78-.3a1.37,1.37,0,0,0,.83-1c.24-1,.67-2.77.85-3.75.25-1.4,2-3.43,2.92-5.71s2.53-5.08,2.66-6.86c0-.43.06-.94.09-1.47a2.92,2.92,0,0,1,1.75,1.93c.45,1.84-.34,8.79-1.11,11a16.57,16.57,0,0,1-2.46,5l2.37.51.33-.75a2.56,2.56,0,0,1,.84.06A.28.28,0,0,0,96.7,81a59.39,59.39,0,0,1,3.82-17.74C101.1,61.75,101.37,60.35,101.07,59.74ZM82,49a35.46,35.46,0,0,1-9.35,2.37c-4.88.38-8.07.48-11.3-1.46,3.15.3,4.29-1.64,6.59-.9,3.72,1.2,8.54-.63,11.82-1.53,1.76-.48,1.76-.51,1.77-2.3a3.41,3.41,0,0,1,.14-.54c.3.66.5,1.09.68,1.52,1,2.33,5,9.44,7.85,10.91C86.26,55.44,84.35,52.87,82,49Z"/><path d="M61.66,85.27h4.19V84.08c-.83-.21-2-.6-2.75-.8Z"/><path d="M53,84.05l4.39.14V82l-2.72-.67C54.21,82.19,53,84.05,53,84.05Z"/><path d="M83.17,82.93l-2.09,2.34H86.8l-.29-1.51C85.8,83.57,84.15,83.17,83.17,82.93Z"/><path d="M35,25.71a5.54,5.54,0,0,1,1.37.81,2.77,2.77,0,0,1,.83,1.4c.12.47.22.93.3,1.39a6.16,6.16,0,0,0,.86,2.61,1.51,1.51,0,0,0,1.06.67h.7l.32,0c.12,0,.07,0,.18-.11.86-.35.88-1.45,1.21-2.3l.45-1.35A3.92,3.92,0,0,1,43,27.38a14.15,14.15,0,0,1,1.84-1.44,8.61,8.61,0,0,1,.43-2.5l1.27-2.16s3.43,0,5-5.84c-2-.13-4.19.12-4.57,1.39a31.32,31.32,0,0,1-1.52,3.56s-.64-1.14-1-1.78a4.15,4.15,0,0,1-.34-.9,2.1,2.1,0,0,1,.7-2.18A28.94,28.94,0,0,0,49.47,11c1.14-1.77,1.65-3.3,1.14-4.31A10.25,10.25,0,0,0,47,3c.41,1.76,1.28,2.74,1.73,4s-.5,2.54-1.39,3.69A15.18,15.18,0,0,1,43.24,14a4.85,4.85,0,0,0-2,2.81,3.57,3.57,0,0,0-2-.15l-1.43.14a14.2,14.2,0,0,0-2.46-4.17C34,11,29.47,8.07,34,3c-.65,0-3,1.7-3.35,4s.19,3.67,1.47,5.69,3,3.47,3.09,5-.32,1.35-.48,1.5c-.8-.23-1.51-2.41-2.46-3.37-1.34-1.33-4.58-2.92-5.31-2s2.29,6,4.61,6.48,2,1.6,2.43,1.92C34.76,22.68,35.19,24.17,35,25.71ZM43,22.76a1.55,1.55,0,0,1,1.2-.18.28.28,0,0,1,.22.29A1.57,1.57,0,0,1,44,24a1.6,1.6,0,0,1-1.2.18.3.3,0,0,1-.23-.3A1.58,1.58,0,0,1,43,22.76Zm-3,7.54c.35-.22.81-.29.81-.58.15.45.14.92-.25,1.15s-.55.15-.56-.08S40.07,30.3,40.07,30.3Zm-1.46-.57c0,.28.47.35.81.57,0,0,0,.27,0,.49s-.18.3-.57.08A.92.92,0,0,1,38.61,29.73Zm-2.75-7.14a1.53,1.53,0,0,1,1.19.18,1.54,1.54,0,0,1,.48,1.11.3.3,0,0,1-.23.29A1.57,1.57,0,0,1,36.11,24a1.6,1.6,0,0,1-.48-1.11A.29.29,0,0,1,35.86,22.59Z"/></svg>