<svg id="Layer_1" data-name="Layer 1" xmlns="http://www.w3.org/2000/svg" width="128" height="128" viewBox="0 0 128 128"><title>Artboard 8</title><path d="M12.14,127.73v-16H17.7a7.9,7.9,0,0,1,3.05.43,3.42,3.42,0,0,1,1.5,1.49,5.21,5.21,0,0,1,.59,2.54,4.74,4.74,0,0,1-.9,3,4,4,0,0,1-2.55,1.44,6.61,6.61,0,0,1,1.4,1.33,17.91,17.91,0,0,1,1.51,2.6l1.59,3.11H20.74l-1.91-3.47a22.85,22.85,0,0,0-1.4-2.36,2,2,0,0,0-.79-.65,3.5,3.5,0,0,0-1.32-.18h-.55v6.66Zm2.63-9.21h2a9.53,9.53,0,0,0,2.29-.16,1.42,1.42,0,0,0,.79-.63,2.31,2.31,0,0,0,.31-1.28,2.12,2.12,0,0,0-.31-1.22,1.56,1.56,0,0,0-.83-.64,10.35,10.35,0,0,0-2.14-.12H14.77Z"/><path d="M25.55,127.73v-16h9.71v2.7H28.19V118h6.57v2.69H28.19V125H35.5v2.7Z"/><path d="M38,127.73v-16h9.7v2.7H40.6V118h6.57v2.69H40.6V125h7.31v2.7Z"/><path d="M50.36,111.77h4.81a7.21,7.21,0,0,1,2.76.41,4.54,4.54,0,0,1,1.71,1.38,6.93,6.93,0,0,1,1.23,2.51,14,14,0,0,1,.45,3.84,12.43,12.43,0,0,1-.47,3.6,7.09,7.09,0,0,1-1.19,2.42,4.46,4.46,0,0,1-1.73,1.35,6.51,6.51,0,0,1-2.61.45h-5Zm2.63,2.7V125h2a5.17,5.17,0,0,0,1.85-.24,2.21,2.21,0,0,0,.93-.72,4.13,4.13,0,0,0,.61-1.53,12.72,12.72,0,0,0,.24-2.75,12.22,12.22,0,0,0-.25-2.8,3.78,3.78,0,0,0-.76-1.61,2.44,2.44,0,0,0-1.26-.77,10.75,10.75,0,0,0-2.14-.14Z"/><path d="M63.78,111.77H69a8.17,8.17,0,0,1,3,.39,3.42,3.42,0,0,1,1.47,1.39,4.49,4.49,0,0,1,.09,4.32,3.37,3.37,0,0,1-1.34,1.38,3.59,3.59,0,0,1,1.83,1.41,4.42,4.42,0,0,1,.65,2.44,5.05,5.05,0,0,1-.84,3,3.39,3.39,0,0,1-2,1.48,20.42,20.42,0,0,1-3.69.2H63.78Zm2.64,2.66v3.69h1.74a17.7,17.7,0,0,0,1.94-.06,1.61,1.61,0,0,0,1.05-.57,2,2,0,0,0,.38-1.26,1.9,1.9,0,0,0-.31-1.14,1.28,1.28,0,0,0-.75-.55,15,15,0,0,0-2.53-.11Zm0,6.34V125h2.45a7.69,7.69,0,0,0,2.07-.17,1.52,1.52,0,0,0,.77-.66,2.31,2.31,0,0,0,.31-1.26,2.27,2.27,0,0,0-.33-1.28,1.72,1.72,0,0,0-.88-.7,8.77,8.77,0,0,0-2.26-.19Z"/><path d="M77.17,111.77h2.64v8.64a20.32,20.32,0,0,0,.1,2.63,2.64,2.64,0,0,0,.83,1.63,2.57,2.57,0,0,0,1.74.58,2.53,2.53,0,0,0,1.49-.41,2.07,2.07,0,0,0,.8-1.13A14.16,14.16,0,0,0,85,120.6v-8.83h2.63v8.38a22.06,22.06,0,0,1-.34,4.64,3.9,3.9,0,0,1-1.55,2.32,5.22,5.22,0,0,1-3.17.89,5.89,5.89,0,0,1-3.19-.73,4.19,4.19,0,0,1-1.67-2.07,15.76,15.76,0,0,1-.52-4.92Z"/><path d="M99,121.86l2.56,1a7.13,7.13,0,0,1-2,3.91A5,5,0,0,1,96.13,128,5.09,5.09,0,0,1,92,126a9.52,9.52,0,0,1-1.83-6.14A10,10,0,0,1,92,113.5a5.22,5.22,0,0,1,4.3-2A5,5,0,0,1,100,113a6.5,6.5,0,0,1,1.55,3.17l-2.61.76a3.59,3.59,0,0,0-1-2,2.52,2.52,0,0,0-1.76-.69,2.79,2.79,0,0,0-2.37,1.27,7.26,7.26,0,0,0-.91,4.16,7.7,7.7,0,0,0,.89,4.29,2.72,2.72,0,0,0,2.32,1.28,2.4,2.4,0,0,0,1.8-.81A5.08,5.08,0,0,0,99,121.86Z"/><path d="M104.06,127.73v-16h2.63v7.1l5.35-7.1h3.56L110.67,118l5.19,9.74h-3.42l-3.61-7.5-2.14,2.68v4.82Z"/><path d="M30.25.27H35.5a8.11,8.11,0,0,1,3,.39A3.5,3.5,0,0,1,40,2.05a4.31,4.31,0,0,1,.59,2.24,4.24,4.24,0,0,1-.51,2.08,3.41,3.41,0,0,1-1.33,1.38,3.61,3.61,0,0,1,1.82,1.41,4.34,4.34,0,0,1,.66,2.44,5.05,5.05,0,0,1-.84,3,3.45,3.45,0,0,1-2,1.48,20.42,20.42,0,0,1-3.69.2H30.25Zm2.64,2.66V6.62h1.74a17.57,17.57,0,0,0,1.94-.06,1.61,1.61,0,0,0,1-.57A1.9,1.9,0,0,0,38,4.73a1.9,1.9,0,0,0-.31-1.14A1.22,1.22,0,0,0,36.94,3a14.92,14.92,0,0,0-2.53-.11Zm0,6.34v4.26h2.45a7.69,7.69,0,0,0,2.07-.17,1.48,1.48,0,0,0,.77-.66,2.31,2.31,0,0,0,.31-1.26,2.27,2.27,0,0,0-.33-1.28,1.68,1.68,0,0,0-.88-.7A8.73,8.73,0,0,0,35,9.27Z"/><path d="M43.14,8.35A11.39,11.39,0,0,1,44,3.65,6.43,6.43,0,0,1,46.18.9a5.86,5.86,0,0,1,3.3-.9,5.66,5.66,0,0,1,4.58,2.14,9.37,9.37,0,0,1,1.77,6.11A9.51,9.51,0,0,1,54,14.51a5.46,5.46,0,0,1-4.46,2,5.53,5.53,0,0,1-4.48-2A9.36,9.36,0,0,1,43.14,8.35Zm2.72-.11a6.85,6.85,0,0,0,1,4.13,3.16,3.16,0,0,0,2.6,1.38,3.11,3.11,0,0,0,2.58-1.37,7,7,0,0,0,1-4.2,6.87,6.87,0,0,0-1-4.1,3.24,3.24,0,0,0-5.24,0A6.93,6.93,0,0,0,45.86,8.24Z"/><path d="M58.13,16.23V.27h2.63V6.55H66V.27h2.64v16H66v-7H60.76v7Z"/><path d="M71,8.35a11.39,11.39,0,0,1,.84-4.7A6.38,6.38,0,0,1,74.05.9,5.8,5.8,0,0,1,77.34,0a5.65,5.65,0,0,1,4.58,2.14,9.37,9.37,0,0,1,1.77,6.11,9.56,9.56,0,0,1-1.87,6.26,6,6,0,0,1-8.95,0A9.36,9.36,0,0,1,71,8.35Zm2.72-.11a6.78,6.78,0,0,0,1,4.13,3.12,3.12,0,0,0,5.17,0,7,7,0,0,0,1-4.2,6.8,6.8,0,0,0-1-4.1,3.12,3.12,0,0,0-2.61-1.33,3.18,3.18,0,0,0-2.63,1.34A6.93,6.93,0,0,0,73.72,8.24Z"/><path d="M86,16.23V.27h5.56a7.9,7.9,0,0,1,3,.43,3.42,3.42,0,0,1,1.5,1.49,5.21,5.21,0,0,1,.59,2.54,4.74,4.74,0,0,1-.9,3,4,4,0,0,1-2.55,1.44,6.38,6.38,0,0,1,1.4,1.33,18.7,18.7,0,0,1,1.52,2.6l1.59,3.11H94.59l-1.91-3.47a22.85,22.85,0,0,0-1.4-2.36,2.08,2.08,0,0,0-.78-.65,3.6,3.6,0,0,0-1.33-.18h-.55v6.66ZM88.62,7h2a9.53,9.53,0,0,0,2.29-.16,1.39,1.39,0,0,0,.79-.63A2.31,2.31,0,0,0,94,5a2.12,2.12,0,0,0-.31-1.22,1.57,1.57,0,0,0-.82-.64A10.48,10.48,0,0,0,90.69,3H88.62Z"/><path d="M91.05,103.75h4.06l.33-1c-.8-.2-2-.5-2.82-.69Z"/><path d="M101.85,78.93c-.32-.62-1.6-.17-3.53-1.56C95,75,95.8,68.67,96.37,65.92c0,.22,0,.46,0,.73,0,1.74.38,4.22,2.34,5.42.26-5,.93-5.1,1.81-7.39,1.28-3.31,1.47-5.59,0-7.65-2-2.76-5.1-6.74-9.47-8.42s-16.72-2.31-27.75.29c-5.52,1.31-5.91-1-11.87-.33-2.62.3-3.82,2.11-5.62,1.46-1.57-.55-1-1.55-1.3-4,0-.14,0-.26,0-.38-.38.34-.76.67-1.1,1a4,4,0,0,0-.59,1.09l-.55,1.35a5.2,5.2,0,0,1-1.78,2.52.87.87,0,0,1-.48.14,2.25,2.25,0,0,1-.4,0l-1.15,0c-.55-.1-.69-.43-1-.81a11,11,0,0,1-1.26-2.79,13.05,13.05,0,0,1-.42-1.4,2.16,2.16,0,0,0-.53-1.08,6.53,6.53,0,0,0-1-.82,2.46,2.46,0,0,1-.09.34,16,16,0,0,0,1.24,9.34c1.71,3.11,5.47,9.38,9.49,11.71S48,70.76,53,72a1,1,0,0,1,.44.28c0,3,.31,8.47,1.24,10.82,0,3.43.84,7.32.65,8.62s.16,3.47,0,5.2c-.06.64-.43,2.32-.6,3.19.08,0,1.56.33,2.69.59l.24-1.24s1,.13,1.12-.12-.94-2.3-.94-2.3,0-4.65.1-6-.47-6.13-.19-6.87a15.77,15.77,0,0,0,0-3.65l-1.1-2.7a14.72,14.72,0,0,0,3,3.47c.91,3.37,2.86,8.3,3.38,10.37s1.17,5.45,1.29,6.49a16.93,16.93,0,0,1-.82,4c.53.13,1.62.49,2.38.65v-2.69a3.29,3.29,0,0,0,1.26,0c.59-.31-1.13-2.3-1.13-2.3a40.83,40.83,0,0,0-.93-6.93c-.63-1.82-.5-4.67-1.15-6.35s-1.16-4.16-1.42-4.8-.42-6.32-1.2-9.82C64.56,73.4,76.67,72,82.4,69c.09,3.54.21,4.65,1,6.34s2.88,3.31,4.39,4.7c1.78,1.63,3.27,5.52,2.61,9.68-.32,2-5.58,11.54-5.58,11.54l-.37.41,2.53.55.8-.3a1.41,1.41,0,0,0,.85-1c.24-1,.68-2.83.87-3.83.25-1.43,2.07-3.51,3-5.83s2.58-5.19,2.71-7c0-.44.07-1,.1-1.5a3,3,0,0,1,1.78,2c.46,1.88-.34,9-1.13,11.26a16.94,16.94,0,0,1-2.51,5.11l2.42.52.33-.77a2.54,2.54,0,0,1,.86.07.29.29,0,0,0,.36-.26,60.44,60.44,0,0,1,3.9-18.11C101.88,81,102.16,79.56,101.85,78.93ZM82.4,68a36.58,36.58,0,0,1-9.55,2.42c-5,.39-8.24.49-11.53-1.49,3.21.3,4.38-1.68,6.72-.92,3.8,1.22,8.72-.65,12.07-1.56,1.8-.49,1.8-.53,1.81-2.35a3.16,3.16,0,0,1,.14-.55c.31.67.51,1.11.7,1.55,1,2.38,5.15,9.64,8,11.14C86.73,74.54,84.78,71.92,82.4,68Z"/><path d="M61.61,105h4.28v-1.22c-.85-.21-2-.61-2.81-.82Z"/><path d="M52.77,103.75l4.48.15v-2.22L54.48,101C54,101.86,52.77,103.75,52.77,103.75Z"/><path d="M83.57,102.61,81.44,105h5.84L87,103.46C86.26,103.26,84.58,102.86,83.57,102.61Z"/><path d="M34.37,44.19a5.75,5.75,0,0,1,1.4.82,2.82,2.82,0,0,1,.85,1.43c.12.48.22,1,.3,1.42a6.44,6.44,0,0,0,.88,2.67,1.54,1.54,0,0,0,1.08.68h.72l.33,0c.12,0,.07,0,.18-.11.88-.36.9-1.48,1.24-2.35l.45-1.38a4.1,4.1,0,0,1,.77-1.47,14.76,14.76,0,0,1,1.88-1.47,8.71,8.71,0,0,1,.44-2.55l1.29-2.21s3.51,0,5.06-6c-2.07-.13-4.28.12-4.67,1.42A32.43,32.43,0,0,1,45,38.76s-.65-1.17-1-1.82a4.33,4.33,0,0,1-.35-.92,2.15,2.15,0,0,1,.72-2.23,29.74,29.74,0,0,0,4.82-4.63c1.16-1.81,1.68-3.37,1.16-4.4A10.44,10.44,0,0,0,46.6,21c.42,1.8,1.31,2.8,1.77,4.06s-.51,2.6-1.42,3.77a15.42,15.42,0,0,1-4.14,3.41,5,5,0,0,0-2,2.87,3.62,3.62,0,0,0-2-.15l-1.46.14a14.47,14.47,0,0,0-2.51-4.26c-1.44-1.67-6-4.66-1.43-9.84-.66,0-3,1.74-3.42,4.07s.19,3.75,1.5,5.81,3.08,3.55,3.16,5.11-.33,1.38-.49,1.53c-.82-.23-1.55-2.46-2.52-3.44-1.36-1.36-4.67-3-5.42-2.08s2.34,6.11,4.71,6.61,2,1.64,2.48,2C34.15,41.09,34.59,42.62,34.37,44.19Zm8.22-3A1.58,1.58,0,0,1,43.82,41a.29.29,0,0,1,.22.3,1.58,1.58,0,0,1-.48,1.14,1.62,1.62,0,0,1-1.22.19.32.32,0,0,1-.24-.31A1.58,1.58,0,0,1,42.59,41.18Zm-3,7.69c.36-.22.83-.29.83-.59.15.46.14.94-.26,1.18s-.56.15-.57-.09S39.57,48.87,39.57,48.87Zm-1.49-.58c0,.29.48.36.82.58a3.72,3.72,0,0,1,0,.5c0,.24-.18.31-.58.09A1,1,0,0,1,38.08,48.29ZM35.27,41a1.53,1.53,0,0,1,1.21.19,1.59,1.59,0,0,1,.5,1.13.33.33,0,0,1-.24.3,1.58,1.58,0,0,1-1.21-.19A1.62,1.62,0,0,1,35,41.3.29.29,0,0,1,35.27,41Z"/></svg>