<svg id="Layer_1" data-name="Layer 1" xmlns="http://www.w3.org/2000/svg" width="128" height="128" viewBox="0 0 128 128"><title>Artboard 9</title><path d="M45.79,111.5h5.33a8.18,8.18,0,0,1,3.07.4,3.32,3.32,0,0,1,1.49,1.4,4.33,4.33,0,0,1,.61,2.28,4.27,4.27,0,0,1-.52,2.12,3.4,3.4,0,0,1-1.36,1.4,3.62,3.62,0,0,1,1.86,1.44,4.48,4.48,0,0,1,.66,2.48,5.07,5.07,0,0,1-.85,3,3.48,3.48,0,0,1-2,1.51,20.14,20.14,0,0,1-3.75.2H45.79Zm2.68,2.7V118h1.77c1.06,0,1.72,0,2,0a1.71,1.71,0,0,0,1.07-.58,2,2,0,0,0,.39-1.28,2,2,0,0,0-.32-1.17,1.29,1.29,0,0,0-.76-.56A16.86,16.86,0,0,0,50,114.2Zm0,6.45V125H51a8,8,0,0,0,2.11-.17,1.58,1.58,0,0,0,.78-.68,2.34,2.34,0,0,0,.32-1.27,2.3,2.3,0,0,0-.34-1.31,1.72,1.72,0,0,0-.9-.7,8.36,8.36,0,0,0-2.29-.2Z"/><path d="M59.41,111.5h2.68v8.79a20.79,20.79,0,0,0,.1,2.66,2.68,2.68,0,0,0,.84,1.66,3,3,0,0,0,3.29.18,2.13,2.13,0,0,0,.81-1.16,14.53,14.53,0,0,0,.21-3.16v-9H70V120a22.65,22.65,0,0,1-.35,4.72,4,4,0,0,1-1.57,2.36,5.31,5.31,0,0,1-3.23.9,6,6,0,0,1-3.24-.75,4.22,4.22,0,0,1-1.7-2.1,15.92,15.92,0,0,1-.52-5Z"/><path d="M73.09,127.72V111.5h9.12v2.74H75.77v3.84h5.58v2.75H75.77v6.89Z"/><path d="M39.65,99.26l.13.29L45,99.44s-1.79-2.17-1.83-2.17S39.65,99.26,39.65,99.26Z"/><path d="M31.39,62.68a19.4,19.4,0,0,0-1.14,1.84c-.39.7-.75,1.42-1.09,2.14-.53,1.11-1,2.23-1.52,3.37.19.66.39,1.32.57,2a7.08,7.08,0,0,1,.27,2.44,4.53,4.53,0,0,1-.13.64c-.05.19-.1.37-.14.56L28,76.84c-.08.38-.18.77-.3,1.16C30.74,75.72,32.76,67.45,31.39,62.68Z"/><path d="M64.09,21.77a10.77,10.77,0,0,0-3.84,1.48c2.3,2.81,5.6,3,8.89,2.06a28.41,28.41,0,0,0,2.78-.95,31,31,0,0,0,5-2.84c-.57,0-1.14,0-1.7,0-.75,0-1.5,0-2.24-.06-1.49,0-3-.15-4.44-.12A23.3,23.3,0,0,0,64.09,21.77Z"/><path d="M79.76,29.58a2.88,2.88,0,0,1,.26-.25.91.91,0,0,0,.14-.62A5.18,5.18,0,0,0,80,27.5c-.62.38-2.8,1.59-3.66,2-.19.55-.38,1.1-.62,1.65-.13.32-.27.64-.43,1A4.44,4.44,0,0,1,74,33.2c-1.18.78-2.4,1.44-3.58,2.19S68,36.83,67.58,38.12a11.79,11.79,0,0,0-.64,3.7,58.78,58.78,0,0,0,6.38.57,5,5,0,0,0,3-.87A3,3,0,0,0,77.71,39v-.09l0,0a3.79,3.79,0,0,1,.67-.8c.24-.23.49-.44.75-.65.44-.36.89-.69,1.36-1-.09-.31-.19-.62-.28-.92L79.87,34a10.31,10.31,0,0,1-.32-1.43,5.15,5.15,0,0,1,0-2.7A2.9,2.9,0,0,1,79.76,29.58Z"/><path d="M91.42,44.75a7.82,7.82,0,0,1-2.53.35,9.53,9.53,0,0,1-2.6-.3,4.5,4.5,0,0,1-1.43-.61,4.14,4.14,0,0,0-.56-.32,2.33,2.33,0,0,1-.7-.46,1.38,1.38,0,0,1-.38-.9,1.65,1.65,0,0,0-.16-.54,4.89,4.89,0,0,0-.76-1.06l-.24-.27a2.35,2.35,0,0,1-.24-.37,5.89,5.89,0,0,1-.3-.7c-.18-.46-.65-2-.82-2.6-.4.36-2.22,1.93-2.33,2.14.09.59.13,3.74-5,4.13A16.27,16.27,0,0,1,69.91,43c-1.13-.16-2.25-.37-3.35-.51l-.32,0,0-.31c.09-1.41-.19-2.75.38-4.11a5.55,5.55,0,0,1,1.49-2.15c.58-.43,6-3,6.87-4.54a12,12,0,0,0,.65-1.52l-.7.32c-1.15.52-2.3,1-3.47,1.45a10.75,10.75,0,0,1-3.75.83c-4,.16-8.62-.83-11-4.42-.44-.66-.56-1.95-1.06-2.48s-1.69-.42-2.4-.59c-2.69-.61-5,1-7.63.58l-1.48-.18c-2-.21-4-.4-6-.49a16.44,16.44,0,0,0-2.9,0,10.41,10.41,0,0,0-2.6,1.23,42.74,42.74,0,0,0-4.82,3.45,20.82,20.82,0,0,0-4.14,4.14,30.26,30.26,0,0,0-5,10.69c-.12.48-.15,1-.23,1.46a14.19,14.19,0,0,0-.07,1.47c0,1,.09,2,.09,3a57.09,57.09,0,0,1-.32,6l-.3,3a10.75,10.75,0,0,0,0,2.94,30,30,0,0,1,1,5.93,4.92,4.92,0,0,1-.23,1.52l-.38,1.45a6.52,6.52,0,0,1-.51,1.46,1.61,1.61,0,0,1-.25.35,1.35,1.35,0,0,0-.18.26,2.53,2.53,0,0,0-.21.64,4.4,4.4,0,0,0-.05,1.4,2.05,2.05,0,0,0,.2.62,4.94,4.94,0,0,1,.33.7,12.39,12.39,0,0,1,.74,3c.1,1.63.19,3.25.28,4.86,0,.14,0,.27,0,.41,0,5.42-.19,12.21-.09,12.36s.48-.06.75-.11a.56.56,0,0,1,.64.43l.4,1.85,3.67-1.92a19.86,19.86,0,0,1-1.6-5.76,28,28,0,0,1,0-6h0c0-.29.08-.58.13-.87a42.71,42.71,0,0,1,2.21-6.93,34.81,34.81,0,0,0,1.06-3.42l.21-1.54c.53-3.73,1.94-7.93,4.57-10.62,0,0-.9-2.39-1.46-3.78-.28-.72-.5-1.45-.71-2.19s-1.15-6.06-1.26-6.82a13.62,13.62,0,0,1-.09-2.3,8.3,8.3,0,0,1,.36-2.33l.06.06c.15,1.47,1.95,11.86,2.46,13.28s1.08,2.7,1.64,4.12a12.43,12.43,0,0,1,1,1.48c.4.47.82.94,1.23,1.38a28.09,28.09,0,0,0,2.68,2.44,14,14,0,0,0,3.08,2,13.19,13.19,0,0,0,1.73.62,16,16,0,0,0,1.8.37c1.22.19,2.45.3,3.66.42s2.44.13,3.66.14a41.54,41.54,0,0,0,7.12-.45c-.24-.2-.48-.41-.7-.63a1.89,1.89,0,0,1-.29-.36c-.08-.14-.13-.27-.19-.4s-.19-.52-.27-.77L55.77,67a5.77,5.77,0,0,0-.57-1.35,11.4,11.4,0,0,1-1.1-3.15,32.34,32.34,0,0,1-.57-3.19,31,31,0,0,1-.12-6.46c.16-2.14.36-4.27.66-6.4l.08,0c-.19,2.13-.29,4.26-.33,6.4a30.48,30.48,0,0,0,.35,6.34,29.4,29.4,0,0,0,.7,3.09c.14.51.29,1,.47,1.51a7.52,7.52,0,0,0,.56,1.37,6,6,0,0,1,.59,1.63l.35,1.57a3.9,3.9,0,0,0,.46,1.41l1,1.28,0,0h.05c.83,2.08,1.66,4.18,2.47,6.27L63,82.56l.45,1.2a7.77,7.77,0,0,1,.36,1.29c.17.87.24,1.72.37,2.55a5.87,5.87,0,0,0,.69,2.19l0,.06v.05a6.42,6.42,0,0,1,.22,1.54c0,.47,0,1,0,1.42,0,.94-.09,1.88-.17,2.81-.18,1.75-.54,5-.49,5.57s.61.36.61.36a2.63,2.63,0,0,1,.64-.56c.3-.14,1,.95,1,.95s1.76-.95,3.68-2.09c-.38-1.33-1-5.25-1.14-6A12.93,12.93,0,0,1,69,91.66h0a18.72,18.72,0,0,1,.9-2.4,6.64,6.64,0,0,0,.41-2.41c0-.84,0-1.69,0-2.5a4.64,4.64,0,0,0-.88-2.13l0,0,0,0A23.73,23.73,0,0,1,68.3,77.4s0,0,0,0a23.86,23.86,0,0,0-.21-2.59,4.19,4.19,0,0,1,.18-1.39,2.38,2.38,0,0,1,.88-1.16,19.27,19.27,0,0,1,2.36-1.13,4.31,4.31,0,0,0,1.6-1.77A23.65,23.65,0,0,0,75,64.65h.08a19.39,19.39,0,0,1-1.57,4.93,4.77,4.77,0,0,1-1.72,2c-.77.45-1.62.7-2.24,1.15a1.57,1.57,0,0,0-.53.67c.47.09,1,.18,1.42.24.3,0,.6.06.91.08a1.16,1.16,0,0,1,.89.45,3.23,3.23,0,0,1,.46,1.85c0,.62,0,1.21,0,1.83,0,0,.1,4.6.37,6.79a32.62,32.62,0,0,0,.73,3.48c.15.57.31,1.14.49,1.7a5.18,5.18,0,0,1,.31,2c0,1.29-1,6.57-1.14,7.11s0,.65.42.65,1-1,1.37-.81.64,1.31.64,1.31c.63-.26,3.58-1.65,3.78-1.8a15.06,15.06,0,0,1-.4-2c-.12-.7-.22-1.41-.3-2.12-.17-1.44-.35-2.89-.47-4.34a4.65,4.65,0,0,1,0-1.12,4.33,4.33,0,0,1,.31-1.08,4.09,4.09,0,0,0,.5-2c-.05-.71-.17-1.43-.23-2.16l0-1.82a20.49,20.49,0,0,1,1.25-4.24c.25-.68.58-1.39.77-2a20.66,20.66,0,0,0,.48-2.1c.52-2.85,1-5.74,1.25-8.62v-.09l0-.07A16.5,16.5,0,0,0,85,60.12a23.26,23.26,0,0,0,1-4.2c-.58.56-1.18,1.09-1.78,1.62L80.08,61,80,60.91l3.86-3.68a23.86,23.86,0,0,0,3.51-3.9c1-1.51,2-2.94,2.93-4.43a21,21,0,0,0,2.28-4.72,2.18,2.18,0,0,1-.49.29A5,5,0,0,1,91.42,44.75Z"/><path d="M93.58,38.1a1.79,1.79,0,0,0-.51-.77,4.59,4.59,0,0,0-1.92-.55,18.94,18.94,0,0,0-2.14-.1,17.1,17.1,0,0,0-2.15.08,5.14,5.14,0,0,0-2,.46,4.36,4.36,0,0,0-1.08,1.69,11,11,0,0,0-.63,1.77,4.76,4.76,0,0,1,.64.91,2.16,2.16,0,0,1,.23.86.59.59,0,0,0,.13.39c.18.22.73.43,1.14.79a4,4,0,0,0,1.15.6l.4.14a6.09,6.09,0,0,0,4-.06l.32-.13c.2-.1.41-.19.59-.3s.28-.22.55-.41c.45-.3,1-.43,1.14-.59a.81.81,0,0,0,.06-.13.28.28,0,0,0,0-.1l0-.19a3,3,0,0,1,.18-.78,4.57,4.57,0,0,1,.57-1c-.11-.54-.24-1.07-.39-1.58A7.49,7.49,0,0,0,93.58,38.1ZM87.2,40.46c-.29.38-.86.11-1.39-.34s-.64-1.53,0-1.81A.88.88,0,0,0,86,39c.27.15.58.12.92.38S87.49,40.08,87.2,40.46Zm5.32-.34c-.54.45-1.1.72-1.4.34s0-.82.32-1.07.66-.21.92-.35a.88.88,0,0,0,.13-.73C93.16,38.59,93.05,39.67,92.52,40.12Z"/><path d="M97.4,30.05a1.25,1.25,0,0,0-.3-.57.89.89,0,0,1-.31-.67,3.18,3.18,0,0,1,.26-1.14l-1.73-1.11a7.33,7.33,0,0,0-1.61-.85,2.21,2.21,0,0,0-1.7.14,6.94,6.94,0,0,1-3.59.87,7,7,0,0,1-3.6-.87,2.26,2.26,0,0,0-1.7-.14,7.26,7.26,0,0,0-1.6.85c-.42.27-.84.53-1.25.81a5.41,5.41,0,0,1,.33,1.2,1.07,1.07,0,0,1-.16.75c-.09.11-.17.18-.23.26a2.09,2.09,0,0,0-.16.29,5.72,5.72,0,0,0-.1,2.76c.17.89.53,1.81.8,2.72s.59,1.82.92,2.71c.16.44.33.89.52,1.31a4.2,4.2,0,0,0,.3.6.89.89,0,0,0,.16.22l.25.25a5.41,5.41,0,0,0,.54-1.58,7.3,7.3,0,0,1,.38-1.08,2.54,2.54,0,0,1,.71-1,5,5,0,0,1,2.24-.72A16.83,16.83,0,0,1,89,35.93a15.56,15.56,0,0,1,2.25.15,4.76,4.76,0,0,1,2.22.82A2.31,2.31,0,0,1,94.09,38a7.3,7.3,0,0,1,.23,1.11,7.27,7.27,0,0,0,.23,1.34l.25-.27a1,1,0,0,0,.14-.22,5.41,5.41,0,0,0,.29-.59c.19-.41.35-.85.51-1.28l.57-1.69c.41-1.21.79-2.43,1.12-3.64A6,6,0,0,0,97.4,30.05ZM83,31.11A2.26,2.26,0,0,1,81.59,31a1.82,1.82,0,0,1-.82-.9,1.45,1.45,0,0,1,1.51-.21C83.07,30.37,83.07,31,83,31.11ZM96.13,31a2.26,2.26,0,0,1-1.36.08c-.12-.11-.12-.74.67-1.19a1.46,1.46,0,0,1,1.52.21A1.81,1.81,0,0,1,96.13,31Z"/><path d="M107.48,37a7,7,0,0,0-2.8-1.55l-.12,0-.07-.08a7.21,7.21,0,0,0-3.4-2.38l-.11,0-.06-.06a16.26,16.26,0,0,1-1.55-2.1,7.63,7.63,0,0,1-.93-2.32c-.44-.25-.71-.38-1.14-.64a2.87,2.87,0,0,0-.19,1.06.77.77,0,0,0,.29.55,1.58,1.58,0,0,1,.39.64,5.68,5.68,0,0,1,0,2.72,10.07,10.07,0,0,1-.33,1.39l-.36,1.35c-.18.69-.38,1.36-.59,2A15.58,15.58,0,0,0,97,39.68a3.27,3.27,0,0,0,2,2.45,12,12,0,0,0,3.32.54c.57,0,1.14,0,1.71,0s1.1-.13,1.72-.16a17,17,0,0,1,1.76.09l.83.06a1.3,1.3,0,0,0,.66-.1,1.81,1.81,0,0,0,.48-1.3,3.24,3.24,0,0,0-.3-1.51A8,8,0,0,0,107.48,37Z"/><path d="M120.08,17.86c-1.06-2.31-3.57-3.74-6-4.4a9.55,9.55,0,0,0-3.28-.28,8.16,8.16,0,0,0-1.64.29,4,4,0,0,0-.84.32,1.56,1.56,0,0,0-.46.29,15.85,15.85,0,0,1,5.68.78,7,7,0,0,1,2.58,1.65,7.59,7.59,0,0,1,1.62,2.61,4.41,4.41,0,0,1,.07,3.1A6.6,6.6,0,0,1,116,24.75a6.81,6.81,0,0,1-2.65,1.67,7.38,7.38,0,0,1-3.13.19,17.78,17.78,0,0,1-3-.69,20.79,20.79,0,0,1-2.87-1.08,36.69,36.69,0,0,1-5.21-3.16c-.82-.59-1.63-1.18-2.46-1.73A11.27,11.27,0,0,0,94,18.56a11.68,11.68,0,0,0-5.88.36l0,0v0a21,21,0,0,0-2.93-.54,5.92,5.92,0,0,0-2.84.33,34.52,34.52,0,0,0-5,3.22A32,32,0,0,1,72.2,25c-.94.4-1.89.72-2.85,1-2.4.73-5,1.12-7.27-.28-1.73-1.09-3.34-2.94-3.27-5.09.16-5.27,6-6.61,10.2-6.57-2.07-1.8-5.54-1-7.82-.08a8.15,8.15,0,0,0-5.09,6.06,9.71,9.71,0,0,0,2.34,8.65c2.39,2.41,6,3,9.25,2.85a10.66,10.66,0,0,0,3.52-.71c1.16-.43,2.32-.88,3.46-1.36s2.28-1,3.38-1.55,2.16-1.2,3.24-1.83A7.43,7.43,0,0,1,83,25.27a2.4,2.4,0,0,1,1-.07,4.34,4.34,0,0,1,.92.32l.31.11a10.71,10.71,0,0,0,6.34,0l.33-.11a4.07,4.07,0,0,1,.91-.32,2.4,2.4,0,0,1,1,.07,7.89,7.89,0,0,1,1.73.83c1.07.64,2.13,1.28,3.23,1.84S101,29,102.15,29.49s2.3.93,3.47,1.36a10.66,10.66,0,0,0,3.52.71,14.66,14.66,0,0,0,7.07-1.27,8.36,8.36,0,0,0,4.35-5.36A11.2,11.2,0,0,0,120.08,17.86Z"/><path d="M41.22,94.9a8.84,8.84,0,0,1-1.53-3.48,58.39,58.39,0,0,1-1.23-7.27c-.12-1.23-.22-2.45-.24-3.69a6.29,6.29,0,0,1,.24-1.92,12.19,12.19,0,0,1,.67-1.75,68.35,68.35,0,0,1,3.32-6.14c-1-.29-2-.63-3-1A17.27,17.27,0,0,1,36.12,68a12,12,0,0,1-2.75-2.57,11.84,11.84,0,0,1-.78-1.08A14.6,14.6,0,0,1,32.74,66a4.75,4.75,0,0,0,.56,2.25l0,0v.05a2.52,2.52,0,0,1-.08,1.08c-.07.33-.17.65-.27,1-.21.62-.44,1.24-.69,1.84-.5,1.14-1,2.25-1.62,3.35A44.92,44.92,0,0,1,32.9,81.1c.65,2,1.25,3.93,1.76,5.93a17.85,17.85,0,0,1,.57,3.07c.08,1,.11,2.06.16,3.08,0,0,.08,2.15.13,3.23a.42.42,0,0,0,.58.37l.44-.18a1,1,0,0,1,1.12.27L39,98.41c1.63-.71,2.18-1.14,3.7-1.74A11.69,11.69,0,0,1,41.22,94.9Z"/><path d="M20.91,100.43l.14.29,5.24-.12s-1.78-2.16-1.82-2.16S20.91,100.43,20.91,100.43Z"/><path d="M67.23,102.71l.14.29,5.24-.12s-1.79-2.16-1.82-2.16S67.23,102.71,67.23,102.71Z"/><path d="M76.23,100.75l.13.29,5.25-.11s-1.79-2.17-1.82-2.17S76.23,100.75,76.23,100.75Z"/></svg>