<svg id="Layer_1" data-name="Layer 1" xmlns="http://www.w3.org/2000/svg" width="128" height="128" viewBox="0 0 128 128"><title>Artboard 11</title><path d="M11.63,111.77h5.24a8.17,8.17,0,0,1,3,.39,3.42,3.42,0,0,1,1.47,1.39,4.49,4.49,0,0,1,.09,4.32,3.37,3.37,0,0,1-1.34,1.38,3.59,3.59,0,0,1,1.83,1.41,4.42,4.42,0,0,1,.65,2.44,5.05,5.05,0,0,1-.84,3,3.39,3.39,0,0,1-2,1.48,20.42,20.42,0,0,1-3.69.2H11.63Zm2.64,2.66v3.69H16a17.7,17.7,0,0,0,1.94-.06,1.61,1.61,0,0,0,1.05-.57,2.27,2.27,0,0,0,.07-2.4,1.25,1.25,0,0,0-.75-.55,15,15,0,0,0-2.53-.11Zm0,6.34V125h2.45a7.69,7.69,0,0,0,2.07-.17,1.52,1.52,0,0,0,.77-.66,2.31,2.31,0,0,0,.31-1.26,2.27,2.27,0,0,0-.33-1.28,1.72,1.72,0,0,0-.88-.7,8.77,8.77,0,0,0-2.26-.19Z"/><path d="M25,111.77h2.63v8.64a20.32,20.32,0,0,0,.1,2.63,2.64,2.64,0,0,0,.83,1.63,2.92,2.92,0,0,0,3.24.17,2.11,2.11,0,0,0,.79-1.13,14.16,14.16,0,0,0,.21-3.11v-8.83h2.63v8.38a22.06,22.06,0,0,1-.34,4.64,3.9,3.9,0,0,1-1.55,2.32,5.2,5.2,0,0,1-3.17.89,5.89,5.89,0,0,1-3.19-.73,4.19,4.19,0,0,1-1.67-2.07,15.84,15.84,0,0,1-.51-4.92Z"/><path d="M37.8,122.53l2.58-.31q.43,3.06,2.85,3.06a2.67,2.67,0,0,0,1.88-.63,2,2,0,0,0,.69-1.55,1.68,1.68,0,0,0-.24-.92,1.82,1.82,0,0,0-.73-.63,23.13,23.13,0,0,0-2.37-.82A8.09,8.09,0,0,1,40,119.62a4.23,4.23,0,0,1-1.24-1.57,4.77,4.77,0,0,1-.46-2.09,4.64,4.64,0,0,1,.59-2.35A3.84,3.84,0,0,1,40.51,112a5.67,5.67,0,0,1,2.58-.53,4.53,4.53,0,0,1,5,4.83l-2.64.14a2.9,2.9,0,0,0-.75-1.79,2.43,2.43,0,0,0-1.65-.51,2.6,2.6,0,0,0-1.64.44,1.35,1.35,0,0,0-.58,1.11,1.39,1.39,0,0,0,.52,1.09,7.3,7.3,0,0,0,2.41,1A9.83,9.83,0,0,1,46.61,119,4.08,4.08,0,0,1,48,120.65a5.77,5.77,0,0,1,.47,2.44,5.05,5.05,0,0,1-1.28,3.5,5.13,5.13,0,0,1-4,1.41C40,128,38.16,126.18,37.8,122.53Z"/><path d="M50.89,127.73v-16h2.63v6.28h5.19v-6.28h2.63v16H58.71v-7H53.52v7Z"/><path d="M64.29,111.77h5.24a8.17,8.17,0,0,1,3,.39A3.42,3.42,0,0,1,74,113.55a4.22,4.22,0,0,1,.6,2.24,4.14,4.14,0,0,1-.52,2.08,3.35,3.35,0,0,1-1.33,1.38,3.57,3.57,0,0,1,1.82,1.41,4.34,4.34,0,0,1,.66,2.44,5.05,5.05,0,0,1-.84,3,3.45,3.45,0,0,1-2,1.48,20.42,20.42,0,0,1-3.69.2H64.29Zm2.63,2.66v3.69h1.74a17.57,17.57,0,0,0,1.94-.06,1.66,1.66,0,0,0,1.06-.57,2.27,2.27,0,0,0,.07-2.4,1.28,1.28,0,0,0-.75-.55,15.09,15.09,0,0,0-2.53-.11Zm0,6.34V125h2.46a7.79,7.79,0,0,0,2.07-.17,1.56,1.56,0,0,0,.77-.66,2.4,2.4,0,0,0,.31-1.26,2.2,2.2,0,0,0-.34-1.28,1.68,1.68,0,0,0-.88-.7,8.73,8.73,0,0,0-2.25-.19Z"/><path d="M77.68,111.77h2.63v8.64a22.43,22.43,0,0,0,.1,2.63,2.7,2.7,0,0,0,.84,1.63,2.57,2.57,0,0,0,1.74.58,2.53,2.53,0,0,0,1.49-.41,2,2,0,0,0,.79-1.13,14.16,14.16,0,0,0,.21-3.11v-8.83h2.64v8.38a22.77,22.77,0,0,1-.34,4.64,4,4,0,0,1-1.55,2.32,5.22,5.22,0,0,1-3.17.89,5.92,5.92,0,0,1-3.2-.73,4.17,4.17,0,0,1-1.66-2.07,15.45,15.45,0,0,1-.52-4.92Z"/><path d="M99.5,121.86l2.56,1a7.13,7.13,0,0,1-2,3.91A5,5,0,0,1,96.64,128a5.09,5.09,0,0,1-4.15-2,9.52,9.52,0,0,1-1.83-6.14,10,10,0,0,1,1.84-6.39,5.23,5.23,0,0,1,4.3-2,5,5,0,0,1,3.69,1.5,6.5,6.5,0,0,1,1.54,3.17l-2.61.76a3.59,3.59,0,0,0-1-2,2.49,2.49,0,0,0-1.76-.69,2.79,2.79,0,0,0-2.36,1.27,7.25,7.25,0,0,0-.92,4.16,7.79,7.79,0,0,0,.89,4.29,2.73,2.73,0,0,0,2.32,1.28,2.4,2.4,0,0,0,1.81-.81A5.17,5.17,0,0,0,99.5,121.86Z"/><path d="M104.56,127.73v-16h2.64v7.1l5.35-7.1h3.56L111.17,118l5.2,9.74H113l-3.61-7.5-2.14,2.68v4.82Z"/><path d="M68.53,98.19v1c0,.65.83,1.37.83,1.37h4.29l-2.47-3Z"/><path d="M107.91,12.62c-2.24.44-4,1.89-5.91,3.43.07-1.71,1.23-2.21,2-3s1.92-1.61,1.83-2.79A29.85,29.85,0,0,1,106.39,0a10.22,10.22,0,0,0-3.33,7.09c-.1,1.15,0,2.37-1.2,3a12.19,12.19,0,0,0-5.24,6.19c-.76,1.78-1.74,1.92-2.74.15-.8-1.4-1.39-3-2.91-3.8-3.31-1.68-5-4.44-6-7.92A5.13,5.13,0,0,0,81.38,1c3.73,3.81.2,10.23,5.16,13.69-1.21-.45-2.38-1-3.62-1.37a2.36,2.36,0,0,0-3.19,2.82c.54,3.63,2.39,5.49,6.46,6.19,2,.34,3.6,1,3.28,3.38-.27,2.09-.58,4.19-.94,6.27v.21a6.25,6.25,0,0,1-2.17,3.71A5.84,5.84,0,0,1,84,37c-.43.09-.86.18-1.29.25a5.47,5.47,0,0,1-.69.05,2.23,2.23,0,0,1-.36,0,.51.51,0,0,1-.22-.07.25.25,0,0,1-.13-.15c-1.72-.53-3.35-1.23-5-1.82a53,53,0,0,0-5.17-1.58,44.81,44.81,0,0,0-10.7-1.21h-.08c-5.62-.92-11.33-1.68-17-1a44.67,44.67,0,0,0-8.26,1.88c-1.36.42-2.7.91-4,1.44-.65.28-1.29.56-1.91.88a5.91,5.91,0,0,0-1.64,1.08A32.54,32.54,0,0,0,24.65,40c-.42.58-2.08,2.89-2.19,3s-.18.13-.28.28A17.43,17.43,0,0,0,20.37,47c-.5,1.33-.88,2.7-1.28,4.05a20.29,20.29,0,0,0-.33,8.31,14.86,14.86,0,0,1-1.07,8,7.05,7.05,0,0,0,4.07-3,16.92,16.92,0,0,0,2.54-5.44,12.51,12.51,0,0,0,.18-3l-.12-3.07a38.76,38.76,0,0,1,.1-5.6,4.77,4.77,0,0,1-.13-.51c0,.15.09.3.13.45,0-.16,0-.32.05-.48,0,.19,0,.37,0,.54a28.3,28.3,0,0,0,3.12,6.62,40.18,40.18,0,0,0,4.45,5.74A14.06,14.06,0,0,1,33.3,61a7.57,7.57,0,0,1,.88,1.66,13.47,13.47,0,0,1,.88,3.63A10.61,10.61,0,0,1,34.88,70a13.26,13.26,0,0,1-1.63,3.36,20,20,0,0,0-1.69,3.13,2.41,2.41,0,0,0-.16.74,1.1,1.1,0,0,0,.16.66,14.55,14.55,0,0,0,1,1.44,47,47,0,0,1,4.22,6,13.52,13.52,0,0,1,.77,1.74l.64,1.71,1.3,3.39,2.31,6.06a.6.6,0,0,0,.57.4,4,4,0,0,1,1.11,0c.27.09.52.73.52.73.52-.19,2.77-.67,2.77-.67a40.31,40.31,0,0,1-4.61-7.36A15.91,15.91,0,0,1,41.21,89l-.74-2.35a37.51,37.51,0,0,1-1.26-4.85,12.67,12.67,0,0,1-.07-5.1,24.09,24.09,0,0,1,2-4.65c1.49-2.92,3.28-5.76,4-8.89l0-.09,0-.05a20.74,20.74,0,0,0,3.92-6.38A14.38,14.38,0,0,0,49.93,53a16.27,16.27,0,0,0-.17-3.75v0a7.63,7.63,0,0,0-.49-2.53A9.68,9.68,0,0,0,48,44.39a5.79,5.79,0,0,1,2.5,2.26,6.91,6.91,0,0,1,.6,2.56,16.25,16.25,0,0,1,.3,3.81,14.43,14.43,0,0,1-.72,3.79l-.1.31c.38-.22.78-.73,1.15-.85.19-.05.75.38,1,.5-.13.22-.23.85-.41,1a1.35,1.35,0,0,1-1.86-.31,19,19,0,0,1-2.39,4.38,32.1,32.1,0,0,0,3.42-.12c1.59-.12,3.19-.11,4.76-.31a12.44,12.44,0,0,0,2.28-.49,6.06,6.06,0,0,1,2.49-.46,8.29,8.29,0,0,1,4,1.2c0-.68-.08-1.34-.11-2s0-1.23,0-1.85c0-.32,0-.63,0-1a2.36,2.36,0,0,1,.33-.92,27,27,0,0,1,2-3.15A15.32,15.32,0,0,1,69.94,50a15.87,15.87,0,0,0-2.27,2.9,26.91,26.91,0,0,0-1.86,3.2,2.1,2.1,0,0,0-.25.82,6.76,6.76,0,0,0,0,.9c0,.61.07,1.22.11,1.84L66,63.37l.76,7.37c.15,1.22.25,2.48.42,3.67a19.39,19.39,0,0,0,.93,3.48l0,.11v.12l-.86,9.5c-.11,1.64-.36,3.2-.59,4.78,0,0-.14,4.55.18,4.83s1.15-.59,1.35-.45.18.72.18.72l2.33-.67c-.28-1.41-.63-3-.85-4.39a32.3,32.3,0,0,1-.47-5c.11-1.72.38-3.29.62-4.92l.79-4.84,0-.06,0-.08a3.27,3.27,0,0,0,.19-.53,1.6,1.6,0,0,1-.42-.1c-1.15-.46-.77-2.93-.42-3.84s.81-2.47,1.73-2.55a3.74,3.74,0,0,0,.48-.11c0-.15.06-.29.08-.43l.66-3.9c.19-1.29.4-2.6.53-3.89l0-.2.2-.06a7.84,7.84,0,0,0,2.9-1.63,14.21,14.21,0,0,0,2.37-2.47,10.31,10.31,0,0,0,2.27-6.4c.51,2.34-.46,4.83-1.78,6.74a14.66,14.66,0,0,1-2.34,2.64,9.14,9.14,0,0,1-3.08,1.61c0,.35-.06.69-.11,1A10.55,10.55,0,0,0,77,63.3a9.21,9.21,0,0,0,2.89-1.06,10.83,10.83,0,0,0,2.45-1.8,11.29,11.29,0,0,0,1.88-2.35l.06-.1.09-.06c.45-.33.9-.66,1.34-1a4,4,0,0,1-1.21-2.36s-1.4-5.21-.68-5.21,2.33,3.59,2.33,3.59a3.94,3.94,0,0,0,2,1.59l.31.11c.68-.57,1.34-1.17,2-1.78a29.24,29.24,0,0,0,5.09-6,30.15,30.15,0,0,0,2.91-7.33c.14-.52.28-1,.39-1.56-1.62.12-3.47-.18-4.38-1.85,0,0-3.15-4.62-2.55-5S95.77,33,95.77,33c.64.32,3-1.19,4.3-1.86.17-1.83.34-3.43.43-5.31.14-2.55,1.07-3.9,3.36-4,4.11-.16,5.49-2.86,6.36-7.19C110.61,12.81,109.62,12.28,107.91,12.62ZM31.51,45.85c-.07-.38.54-.92.93-.93s.66,0,.66.53-.32.9-1.17.92C31.84,46.26,31.57,46.08,31.51,45.85Zm.72,12.74c-.08-.08-.35-.21-.4-.4s1-1,1.48-1a.58.58,0,0,1,.41.38C33.76,58,33,58.57,32.23,58.59Zm3.28,2.14c.23-.86.77-1.16,1.51-.88A2.1,2.1,0,0,1,35.51,60.73Zm1.28-7.06c-.93-.22-.94-.62-.54-1,.39-.56.86-.5,1.58-.14C37.93,53.5,37.15,53.42,36.79,53.67Zm5.09,3.15c-.06.59-.81.35-.71-.26,0-.14.11-.26.15-.4.3-.22.77-.15.77.34C42,56.62,41.92,56.82,41.88,56.82Zm-1.54-2.56c-.27.08-.66-.33-1-.52.48-1.07,1.15-1,2.19-.43C41.53,54.27,40.75,54.14,40.34,54.26Zm1-7.27a11.14,11.14,0,0,1-.68-1.06c0-.06.19-.26.38-.5l1.1,1C41.93,46.6,41.65,46.79,41.39,47Zm2.29,3.74L43,50.1a3.68,3.68,0,0,1,.87-.6c.12,0,.51.38.48.42A4.89,4.89,0,0,1,43.68,50.73Zm1.45,1.82a11.65,11.65,0,0,1,.8-1.18c.25.23.51.44.74.66-.11.48-.75,1.1-1.09,1C45.39,53,45.09,52.62,45.13,52.55Zm1.81,4.17c-.68.16-1-.07-1.23-.93a8.68,8.68,0,0,1,1-.27.68.68,0,0,1,.82.59C47.62,56.56,47.25,56.65,46.94,56.72Zm9.77,1.4a1,1,0,0,1,.12-1.4c.36,0,1.12-.28,1.41.55,0,.17-.12.69-.12.85Zm4,.7a1.36,1.36,0,0,1-1.68.59c.47-.55,1.52-.66.83-1.77.29,0,.72,0,.8.19A1.23,1.23,0,0,1,60.71,58.82Zm3.56-.36a9.24,9.24,0,0,1-1.18.11c0-.1-.05-.2-.08-.3.4-.14.78-.3,1.19-.4.09,0,.23.14.34.22C64.45,58.22,64.39,58.44,64.27,58.46Zm1.88-.84c0-.49.58-.93,1.32-.9C67,57.06,66.56,57.33,66.15,57.62ZM92.67,23.78a1.65,1.65,0,0,1-1.18,0,1.61,1.61,0,0,1-.71-1,.25.25,0,0,1,.15-.29,1.32,1.32,0,0,1,1.89.94A.28.28,0,0,1,92.67,23.78Zm4.56,3.74c-.11.23-.89.24-.84.5s.43.4.38.57a1.3,1.3,0,0,1-.9.47,1.35,1.35,0,0,1-.9-.47c-.06-.14.32-.29.37-.57s-.76-.34-.84-.5.46-.9,1.37-.9S97.36,27.3,97.23,27.52Zm2.16-3.74a1.69,1.69,0,0,1-1.17,0,.2.2,0,0,1-.13-.27A1.37,1.37,0,0,1,100,22.6a.19.19,0,0,1,.13.27A1.61,1.61,0,0,1,99.39,23.78Z"/><path d="M44.38,100.15v1.48c0,.65.83,1.37.83,1.37H49.5l-2.79-3.32Z"/><path d="M23.44,98.79v1.32c0,.65.83,1.36.83,1.36h4.3l-2.68-3.19Z"/><path d="M33.23,66.34C33,64,32.34,61.58,30.51,60c-1.63-1.85-2.46-4-3.73-6.1a24.87,24.87,0,0,1-2.3-6.54c-.14,1.84.65,3.78.75,5.61l.15,2.15a26.05,26.05,0,0,1,1,5.43,13.4,13.4,0,0,1-.1,5.2,14.28,14.28,0,0,1-2.42,4.64c-.53.7-1.07,1.36-1.61,2-.28.33-.55.66-.8,1a3,3,0,0,0-.47.89c.36,1.88.51,3.69.69,5.52l.46,5.61a18.34,18.34,0,0,1,.06,2.87l-.16,2.81c-.09,1.63-.19,3.25-.31,4.85a.28.28,0,0,0,.31.31c.33,0,.82,0,.95.1a5.09,5.09,0,0,1,.27,1.58,15.39,15.39,0,0,1,2.27-.34S24.4,92,24.13,89.31c-.06-.73-.13-1.45-.13-2.2s.14-1.47.19-2.19a32.27,32.27,0,0,1,.58-4.31,11,11,0,0,1,1.76-4,33.07,33.07,0,0,1,2.8-3.31c1-1.06,2-2.1,2.9-3.19C33,69.14,33.25,66.6,33.23,66.34Z"/><path d="M83.68,91.46a29.61,29.61,0,0,1-1.44-3.94,67.8,67.8,0,0,1-1.09-8.22,18.26,18.26,0,0,1-.08-2.09,11,11,0,0,0-.19-2c-.21-1.33-.7-2.62-.84-4-.24-2.68-.46-5.15-.61-7.82A8.53,8.53,0,0,1,77,64a10,10,0,0,1-2.89-.09c-.11.9-.19,1.46-.3,2.38l-.17,1.14,1,2.73c1.84,1.38,2.54.45,2.92,0s1.15.81,1.07,2.17-.49,3.33-1.93,3.15c.11.3.24.59.37.89.39.94.81,1.89,1.23,2.81v0l0,0c.6,2.57,1.22,5.13,1.79,7.73l.21,1A7.61,7.61,0,0,1,80.48,89c.07.67.1,1.34.14,2,0,1.16-.11,3.27.11,3.47s1.25-.25,1.53,0,.68.67.68.67a11.85,11.85,0,0,1,2-.29S84.1,92.45,83.68,91.46Z"/><path d="M83,96v1.2c0,.66.83,1.38.83,1.38h4.29l-2.6-3.1Z"/></svg>