<svg id="Layer_1" data-name="Layer 1" xmlns="http://www.w3.org/2000/svg" width="128" height="128" viewBox="0 0 128 128"><title>Artboard 10</title><path d="M39.14.27h5.24a8.13,8.13,0,0,1,3,.39,3.42,3.42,0,0,1,1.47,1.39,4.22,4.22,0,0,1,.6,2.24A4.24,4.24,0,0,1,49,6.37a3.41,3.41,0,0,1-1.33,1.38,3.61,3.61,0,0,1,1.82,1.41,4.42,4.42,0,0,1,.65,2.44,5,5,0,0,1-.83,3,3.45,3.45,0,0,1-2,1.48,20.42,20.42,0,0,1-3.69.2H39.14Zm2.64,2.66V6.62h1.74a17.7,17.7,0,0,0,1.94-.06,1.61,1.61,0,0,0,1-.57,1.9,1.9,0,0,0,.38-1.26,1.9,1.9,0,0,0-.31-1.14A1.22,1.22,0,0,0,45.83,3a15,15,0,0,0-2.53-.11Zm0,6.34v4.26h2.45a7.69,7.69,0,0,0,2.07-.17,1.48,1.48,0,0,0,.77-.66,2.31,2.31,0,0,0,.31-1.26,2.27,2.27,0,0,0-.33-1.28,1.72,1.72,0,0,0-.88-.7,8.73,8.73,0,0,0-2.25-.19Z"/><path d="M52.54.27h2.63V8.91a20.32,20.32,0,0,0,.1,2.63,2.66,2.66,0,0,0,.83,1.63,2.92,2.92,0,0,0,3.24.17,2.06,2.06,0,0,0,.79-1.13,14.16,14.16,0,0,0,.21-3.11V.27H63V8.65a22.06,22.06,0,0,1-.34,4.64,3.93,3.93,0,0,1-1.54,2.32,5.19,5.19,0,0,1-3.18.89,5.89,5.89,0,0,1-3.19-.73,4.19,4.19,0,0,1-1.67-2.07,15.84,15.84,0,0,1-.51-4.92Z"/><path d="M65.31,11l2.58-.31q.44,3.06,2.85,3.06a2.65,2.65,0,0,0,1.88-.63,2,2,0,0,0,.69-1.55,1.68,1.68,0,0,0-.24-.92,1.76,1.76,0,0,0-.73-.63A23.13,23.13,0,0,0,70,9.23,7.91,7.91,0,0,1,67.5,8.12a4.08,4.08,0,0,1-1.25-1.57,4.77,4.77,0,0,1-.46-2.09,4.64,4.64,0,0,1,.59-2.35A3.9,3.9,0,0,1,68,.53,5.73,5.73,0,0,1,70.6,0a5,5,0,0,1,3.6,1.25,5,5,0,0,1,1.37,3.58L72.93,5a2.9,2.9,0,0,0-.75-1.79,2.43,2.43,0,0,0-1.65-.51,2.6,2.6,0,0,0-1.64.44,1.35,1.35,0,0,0-.58,1.11,1.37,1.37,0,0,0,.53,1.09,7.12,7.12,0,0,0,2.4,1,9.83,9.83,0,0,1,2.88,1.22,4.08,4.08,0,0,1,1.35,1.64,5.62,5.62,0,0,1,.47,2.44,5,5,0,0,1-1.28,3.5,5.13,5.13,0,0,1-4,1.41C67.46,16.5,65.67,14.68,65.31,11Z"/><path d="M78.4,16.23V.27H81V6.55h5.19V.27h2.64v16H86.22v-7H81v7Z"/><path d="M35.68,127.73V114.47H31.8v-2.7H42.19v2.7H38.32v13.26Z"/><path d="M44.13,127.73v-16H49.7a7.84,7.84,0,0,1,3,.43,3.49,3.49,0,0,1,1.51,1.49,5.21,5.21,0,0,1,.58,2.54,4.8,4.8,0,0,1-.89,3,4,4,0,0,1-2.56,1.44A6.44,6.44,0,0,1,52.79,122a18.91,18.91,0,0,1,1.51,2.6l1.59,3.11H52.74l-1.91-3.47a22.24,22.24,0,0,0-1.41-2.36,1.94,1.94,0,0,0-.78-.65,3.6,3.6,0,0,0-1.33-.18h-.54v6.66Zm2.64-9.21h2a9.43,9.43,0,0,0,2.28-.16,1.44,1.44,0,0,0,.8-.63,2.4,2.4,0,0,0,.3-1.28,2.2,2.2,0,0,0-.3-1.22,1.6,1.6,0,0,0-.83-.64,10.42,10.42,0,0,0-2.14-.12H46.77Z"/><path d="M69.35,127.73H66.48l-1.14-3.62H60.1L59,127.73H56.21l5.09-16h2.8Zm-4.86-6.31-1.81-5.93-1.77,5.93Z"/><path d="M79.33,121.86l2.56,1a7.13,7.13,0,0,1-2,3.91A5,5,0,0,1,76.47,128a5.1,5.1,0,0,1-4.15-2,9.52,9.52,0,0,1-1.83-6.14,10,10,0,0,1,1.85-6.39,5.22,5.22,0,0,1,4.3-2,5,5,0,0,1,3.68,1.5,6.5,6.5,0,0,1,1.55,3.17l-2.61.76a3.59,3.59,0,0,0-1-2,2.52,2.52,0,0,0-1.76-.69,2.79,2.79,0,0,0-2.37,1.27,7.26,7.26,0,0,0-.91,4.16,7.7,7.7,0,0,0,.89,4.29,2.72,2.72,0,0,0,2.32,1.28,2.38,2.38,0,0,0,1.8-.81A5.08,5.08,0,0,0,79.33,121.86Z"/><path d="M84.4,127.73v-16H87v7.1l5.35-7.1h3.56L91,118l5.19,9.74H92.78l-3.61-7.5L87,122.91v4.82Z"/><path d="M3.64,92.87A3.64,3.64,0,0,1,0,89.23c0-1.62,0-1.62,12.09-14.37,6.05-6.37,13.11-13.78,17.15-18a14.5,14.5,0,0,1,10.65-4.46c12.65.19,22.4-.36,26.77-1.53a4.8,4.8,0,0,0,1.53-.74c9.39-6.72,49-34.14,49.42-34.41a3.64,3.64,0,0,1,4.14,6c-.4.28-40,27.66-49.33,34.35a11.79,11.79,0,0,1-3.89,1.85C62,59.61,49.31,59.8,39.78,59.66a7,7,0,0,0-5.27,2.21c-16,16.8-26.65,28-27.91,29.48A3.64,3.64,0,0,1,3.64,92.87Zm3.64-3.63Zm0,0Z"/><path d="M8.32,113a3.64,3.64,0,0,1-3.64-3.64c0-1.62,0-1.62,12.09-14.36,6.05-6.38,13.11-13.79,17.15-18a14.54,14.54,0,0,1,10.65-4.47c12.64.19,22.4-.36,26.77-1.53a4.77,4.77,0,0,0,1.53-.73c9.39-6.72,49-34.14,49.42-34.42a3.64,3.64,0,0,1,4.14,6c-.4.27-40,27.66-49.33,34.34A12,12,0,0,1,73.21,78C66.72,79.7,54,79.89,44.46,79.74A7.1,7.1,0,0,0,39.19,82c-16,16.79-26.65,28-27.92,29.48A3.62,3.62,0,0,1,8.32,113ZM12,109.32Zm0,0Z"/></svg>