<svg id="Layer_1" data-name="Layer 1" xmlns="http://www.w3.org/2000/svg" width="128" height="128" viewBox="0 0 128 128"><title>Artboard 14</title><path d="M22.92,111.77h5.24a8.17,8.17,0,0,1,3,.39,3.42,3.42,0,0,1,1.47,1.39,4.22,4.22,0,0,1,.6,2.24,4.14,4.14,0,0,1-.52,2.08,3.35,3.35,0,0,1-1.33,1.38,3.57,3.57,0,0,1,1.82,1.41,4.34,4.34,0,0,1,.66,2.44,5.05,5.05,0,0,1-.84,3,3.45,3.45,0,0,1-2,1.48,20.42,20.42,0,0,1-3.69.2H22.92Zm2.63,2.66v3.69h1.74a17.44,17.44,0,0,0,1.94-.06,1.66,1.66,0,0,0,1.06-.57,2,2,0,0,0,.38-1.26,1.9,1.9,0,0,0-.31-1.14,1.28,1.28,0,0,0-.75-.55,15.09,15.09,0,0,0-2.53-.11Zm0,6.34V125H28a7.79,7.79,0,0,0,2.07-.17,1.56,1.56,0,0,0,.77-.66,2.4,2.4,0,0,0,.31-1.26,2.27,2.27,0,0,0-.33-1.28,1.75,1.75,0,0,0-.89-.7,8.67,8.67,0,0,0-2.25-.19Z"/><path d="M36.31,111.77H39v8.64A23.29,23.29,0,0,0,39,123a2.7,2.7,0,0,0,.84,1.63,2.57,2.57,0,0,0,1.74.58,2.53,2.53,0,0,0,1.49-.41,2,2,0,0,0,.79-1.13,13.94,13.94,0,0,0,.22-3.11v-8.83h2.63v8.38a22.06,22.06,0,0,1-.34,4.64,4,4,0,0,1-1.55,2.32,5.22,5.22,0,0,1-3.17.89,5.92,5.92,0,0,1-3.2-.73,4.17,4.17,0,0,1-1.66-2.07,15.45,15.45,0,0,1-.52-4.92Z"/><path d="M49.08,122.53l2.58-.31q.44,3.06,2.85,3.06a2.7,2.7,0,0,0,1.89-.63,2,2,0,0,0,.68-1.55,1.68,1.68,0,0,0-.24-.92,1.76,1.76,0,0,0-.73-.63,21.38,21.38,0,0,0-2.37-.82,8,8,0,0,1-2.47-1.11A4.13,4.13,0,0,1,50,118.05a4.78,4.78,0,0,1-.47-2.09,4.64,4.64,0,0,1,.6-2.35A3.88,3.88,0,0,1,51.79,112a5.73,5.73,0,0,1,2.58-.53,4.53,4.53,0,0,1,5,4.83l-2.65.14a2.79,2.79,0,0,0-.75-1.79,2.39,2.39,0,0,0-1.64-.51,2.65,2.65,0,0,0-1.65.44,1.38,1.38,0,0,0,0,2.2,7.2,7.2,0,0,0,2.41,1A10.08,10.08,0,0,1,57.9,119a4.08,4.08,0,0,1,1.35,1.64,5.77,5.77,0,0,1,.47,2.44,5.05,5.05,0,0,1-1.28,3.5,5.15,5.15,0,0,1-4,1.41C51.23,128,49.45,126.18,49.08,122.53Z"/><path d="M62.17,127.73v-16h2.64v6.28H70v-6.28h2.63v16H70v-7H64.81v7Z"/><path d="M75.57,127.73v-16h4.25a13,13,0,0,1,3.1.23,3.49,3.49,0,0,1,1.92,1.58,5.71,5.71,0,0,1,.76,3.11,5.92,5.92,0,0,1-.65,2.9,3.84,3.84,0,0,1-1.64,1.65,8.55,8.55,0,0,1-3.37.47H78.21v6Zm2.64-13.26V119h1.46a6.28,6.28,0,0,0,2-.21,1.82,1.82,0,0,0,.87-.74,2.53,2.53,0,0,0,.34-1.33,2.45,2.45,0,0,0-.35-1.34,1.67,1.67,0,0,0-.86-.73,7.64,7.64,0,0,0-2.17-.19Z"/><path d="M87.91,127.73v-16h2.64v16Z"/><path d="M99.39,121.87v-2.7h5.69v6.36a7.08,7.08,0,0,1-2.44,1.74,7.4,7.4,0,0,1-3.16.73,6.19,6.19,0,0,1-3.42-1,6.52,6.52,0,0,1-2.35-2.85,10.83,10.83,0,0,1-.86-4.47,10.64,10.64,0,0,1,.87-4.51A6.58,6.58,0,0,1,96,112.43a5.9,5.9,0,0,1,3.34-.93,5.62,5.62,0,0,1,3.75,1.19,5.7,5.7,0,0,1,1.82,3.5l-2.62.6a3.33,3.33,0,0,0-1.07-1.88,2.84,2.84,0,0,0-1.88-.66,3.33,3.33,0,0,0-2.73,1.32,6.37,6.37,0,0,0-1,4A7.23,7.23,0,0,0,96.7,124a3.12,3.12,0,0,0,2.62,1.3,3.91,3.91,0,0,0,1.61-.37,4.93,4.93,0,0,0,1.48-1v-2Z"/><path d="M118.55,73.34a6,6,0,0,0-2.32,1,6.37,6.37,0,0,0-2.2,3.59c-.12.49-.11,1.52.53,1.82s4-2.7,5-5.13C120,73.71,119.5,73.14,118.55,73.34Z"/><path d="M78.37,97.91a8.09,8.09,0,0,1-.55-.93l-4.95,1A9,9,0,0,1,73,99.57a1.71,1.71,0,0,0,1.37,2c1.57.49,3.16.93,4.75,1.37.81.22,1.05-.18.81-.89A16.62,16.62,0,0,0,78.37,97.91Z"/><path d="M19.05,93.16l-4.61,1c.1.47.19,1,.25,1.45a2.34,2.34,0,0,0,1.77,2.27c1.18.35,3.81,1.18,5.09,1.51a.44.44,0,0,0,.53-.52,9.29,9.29,0,0,0-2-4.31A9.3,9.3,0,0,1,19.05,93.16Z"/><path d="M117.61,72.83c-1.45-2.07-3-4.1-4.38-6.2a12.21,12.21,0,0,1-2.07-9.69,10.92,10.92,0,0,0,.2-2.8,20.44,20.44,0,0,0-.33-3.23,2.55,2.55,0,0,1,.29-1.84c1.52-3,2.38-6,1.54-9.4a1.82,1.82,0,0,0-.07-.25c-.22-.61-.31-1.48-1.09-1.43-.4,0-.75.75-1.14,1.15L106.78,43c-1.09-2.23-4.33-3.21-6.19-3.92.14.47,1,1.19,1.34,1.91.83,1.71,0,3.62-1,5.24a17.05,17.05,0,0,0,.3-3.6c-.2-2.22-2.69-5.38-2.69-5.38-.81-1.17-1.65-2.32-2.48-3.47-.26-.36-.57-.67-1-1.14a4.52,4.52,0,0,0-.38.8C94.17,35.68,93.6,38,93,40.25a11.59,11.59,0,0,0,1,8.73,25,25,0,0,0,2.15,2.73,5.23,5.23,0,0,1-2.72-2.2,11.47,11.47,0,0,1-1.88-5.76,25.11,25.11,0,0,1,1.22-7.44c-2-3.26-4.07-3.75-7.84-6.25-.45-.3-.92-.57-1.39-.82a13.87,13.87,0,0,0-2-.82c-.79-.27-4.56-1.79-6.51-2.58a.46.46,0,0,0-.62.56c.16.52.12,1.07-.7,1.2-2.76.44-4.42-.74-7.77-.57-6-2.35-18.27-5.56-30.91-3.21-14.83,3.65-20.5,14.9-21.37,18.7a47.56,47.56,0,0,0-.73,13.73c.23,2.21-.5,5.76-1.25,8.66a10.92,10.92,0,0,1-.94,1.23,5.6,5.6,0,0,0-1.59,3.25c-.22,1.58-.63,3.13-1,4.75a8,8,0,0,0,3.87-2.62,5.37,5.37,0,0,0,.73-2c.23-1.31.39-3.42.45-4.1A88.14,88.14,0,0,0,16,53.62c2,3,2.4,5.92,3.13,9.7a11.28,11.28,0,0,1-3.67,10.86,3.53,3.53,0,0,0-1.1,3.15,31.15,31.15,0,0,1-.71,10.41c-.26,1-.66,2-.95,2.94a4.08,4.08,0,0,0,0,2.24.57.57,0,0,0,.55.42l1.08,0c.15,0,2.63-.66,4.32-.92a5,5,0,0,1-.46-3.9c.58-2.56,1.21-5.1,1.93-7.61A6.42,6.42,0,0,1,22.7,77.5c1.88-1.34,3.76-2.68,5.5-4.2a18.39,18.39,0,0,0,4.62-6.68A11.54,11.54,0,0,0,32.68,64a37.77,37.77,0,0,1,12,2.06C50,70.28,58.94,69.7,60.3,69.11a8.11,8.11,0,0,1,2.27-.56C64.63,71.84,69,81.77,70.11,84c1.83,3.71,1.44,7.32.85,11.07,0,.18-.11.66-.18,1.08a.8.8,0,0,0,.65.93l1.33.16s2.84-.62,4.74-1a16.94,16.94,0,0,1-.94-4.49c-.58-3.79.25-7.43.91-11.09a9.08,9.08,0,0,0,.17-1.13c.21-2-2.11-9.15-1.08-11.38,4.08-.25,7.87-.48,9.1-.52a6.08,6.08,0,0,1,2,0L85,64.6a1.91,1.91,0,0,1-.44-.93L83.32,56.3l3.2,8a1.87,1.87,0,0,0,.56.77l6.35,5.08a.88.88,0,0,0,.36,0c1.76-.34,2.86,1.36,4.47,2.13s3.08,1.16,4.62,1.74a3.5,3.5,0,0,1,1,.66A7,7,0,0,0,108.43,77a9.69,9.69,0,0,1,3,1.13,19.23,19.23,0,0,1,1.93,1.19C113.25,76,114.73,73.81,117.61,72.83Zm-17.27-14.3a2,2,0,0,1-1.6.1,2,2,0,0,1-.92-1.31.38.38,0,0,1,.21-.44,2.16,2.16,0,0,1,1.6-.11,2.1,2.1,0,0,1,.93,1.32A.37.37,0,0,1,100.34,58.53Z"/><path d="M35.48,65.71c-.95,1.07-1.41,1.72-2.31,2.84a2.36,2.36,0,0,0-.38.65c-.71,1.86-1.32,3.75-2.12,5.57a2.85,2.85,0,0,0,.14,2.59A25.63,25.63,0,0,1,34.4,87.81a16.85,16.85,0,0,0,.77,2.77.69.69,0,0,0,.71.47c.28,0,2-.41,2-.41s2.69-.51,4.58-.81c-.14-.22-.3-.42-.46-.63a21.82,21.82,0,0,1-4.25-9.93,4.28,4.28,0,0,1,1.71-4.18,39.19,39.19,0,0,0,3.88-3.74,25.82,25.82,0,0,0,2.11-3.08,35.65,35.65,0,0,0-9.18-3A1.08,1.08,0,0,0,35.48,65.71Z"/><path d="M42.83,90.32l-5.64,1.19c.05.29.08.62.12.78a1.89,1.89,0,0,0,1.54,1.61c1.71.39,3.42.79,5.14,1.12.87.18,1.29-.2.81-1.07C44.14,92.74,43.55,91.48,42.83,90.32Z"/><path d="M89.21,94a6.4,6.4,0,0,1-1.36-3.08,26,26,0,0,0-.58-3c-.62-2.11.15-4.1.49-6.12.54-3.19-.56-9.74,0-12.88-3,0-6.12-.23-9.65,1,0,3.45,2.08,11.52,3.69,14a3.67,3.67,0,0,1,.6,1.63c0,1.92,0,3.85,0,5.78a12.12,12.12,0,0,0,.17,2.63c.1.42-.06,1.35.25,1.65s1.08,0,1.5-.07l.3-.2a47.55,47.55,0,0,1,4.71-1.08A2.26,2.26,0,0,1,89.21,94Z"/><path d="M89.8,94.89,84.68,96c-.23,1.59.71,2.24,2,2.7A16.42,16.42,0,0,0,92.05,100a4.72,4.72,0,0,0-.2-1.15C91.18,97.5,90.58,96.14,89.8,94.89Z"/></svg>