<svg id="Layer_1" data-name="Layer 1" xmlns="http://www.w3.org/2000/svg" width="128" height="128" viewBox="0 0 128 128"><defs><style>.cls-1{fill:#61ce63;}</style></defs><title>Bushmeat camp (old)</title><path class="cls-1" d="M110.55,104,65.93,38.29,73.8,26.6a1.73,1.73,0,0,0-.34-2.32,1.55,1.55,0,0,0-2.16.38l0,0L64,35.41l-7.21-10.7a1.54,1.54,0,0,0-2.13-.44l0,0a1.71,1.71,0,0,0-.39,2.31l7.85,11.67L17.45,104H48.89V79.37H79.11V104Z"/><path d="M13.75.27H19a8.13,8.13,0,0,1,3,.39,3.36,3.36,0,0,1,1.47,1.39,4.22,4.22,0,0,1,.6,2.24,4.24,4.24,0,0,1-.51,2.08,3.41,3.41,0,0,1-1.33,1.38,3.61,3.61,0,0,1,1.82,1.41,4.34,4.34,0,0,1,.65,2.44,5.12,5.12,0,0,1-.83,3,3.45,3.45,0,0,1-2,1.48,20.42,20.42,0,0,1-3.69.2H13.75Zm2.64,2.66V6.62h1.74a17.7,17.7,0,0,0,1.94-.06A1.61,1.61,0,0,0,21.12,6a1.9,1.9,0,0,0,.38-1.26,1.9,1.9,0,0,0-.31-1.14A1.22,1.22,0,0,0,20.44,3a15,15,0,0,0-2.53-.11Zm0,6.34v4.26h2.45a7.69,7.69,0,0,0,2.07-.17,1.48,1.48,0,0,0,.77-.66A2.31,2.31,0,0,0,22,11.44a2.27,2.27,0,0,0-.33-1.28,1.72,1.72,0,0,0-.88-.7,8.73,8.73,0,0,0-2.25-.19Z"/><path d="M26.92.27h2.64V8.91a20.32,20.32,0,0,0,.1,2.63,2.64,2.64,0,0,0,.83,1.63,2.57,2.57,0,0,0,1.74.58,2.53,2.53,0,0,0,1.49-.41,2,2,0,0,0,.79-1.13,13.33,13.33,0,0,0,.22-3.11V.27h2.63V8.65A22.06,22.06,0,0,1,37,13.29a4,4,0,0,1-1.55,2.32,5.22,5.22,0,0,1-3.17.89,5.89,5.89,0,0,1-3.19-.73,4.19,4.19,0,0,1-1.67-2.07,15.76,15.76,0,0,1-.52-4.92Z"/><path d="M39.47,11l2.58-.31q.44,3.06,2.85,3.06a2.7,2.7,0,0,0,1.89-.63,2,2,0,0,0,.68-1.55,1.68,1.68,0,0,0-.24-.92,1.76,1.76,0,0,0-.73-.63,21.38,21.38,0,0,0-2.37-.82,8,8,0,0,1-2.47-1.11,4.17,4.17,0,0,1-1.25-1.57A4.91,4.91,0,0,1,40,4.46a4.74,4.74,0,0,1,.59-2.35A4,4,0,0,1,42.18.53,5.73,5.73,0,0,1,44.76,0a5,5,0,0,1,3.61,1.25,5,5,0,0,1,1.37,3.58L47.09,5a2.79,2.79,0,0,0-.75-1.79,2.39,2.39,0,0,0-1.64-.51,2.65,2.65,0,0,0-1.65.44,1.38,1.38,0,0,0,0,2.2,7.2,7.2,0,0,0,2.41,1,9.87,9.87,0,0,1,2.87,1.22,4,4,0,0,1,1.36,1.64,5.77,5.77,0,0,1,.47,2.44,5.05,5.05,0,0,1-1.28,3.5,5.15,5.15,0,0,1-4,1.41C41.62,16.5,39.84,14.68,39.47,11Z"/><path d="M52.34,16.23V.27H55V6.55h5.19V.27H62.8v16H60.16v-7H55v7Z"/><path d="M65.49,16.23V.27h4l2.37,10.9L74.17.27h4v16H75.68V3.66l-2.6,12.57H70.53L68,3.66V16.23Z"/><path d="M80.76,16.23V.27h9.7V3H83.39V6.51H90V9.2H83.39v4.33H90.7v2.7Z"/><path d="M104.74,16.23h-2.86l-1.15-3.62H95.5l-1.08,3.62H91.61L96.7.27h2.8ZM99.88,9.92,98.08,4,96.31,9.92Z"/><path d="M107.74,16.23V3h-3.89V.27h10.4V3h-3.88V16.23Z"/><path d="M46.79,121.86l2.56,1a7.13,7.13,0,0,1-2,3.91A5,5,0,0,1,43.93,128a5.09,5.09,0,0,1-4.15-2A9.52,9.52,0,0,1,38,119.89a10,10,0,0,1,1.85-6.39,5.22,5.22,0,0,1,4.3-2,5,5,0,0,1,3.68,1.5,6.5,6.5,0,0,1,1.55,3.17l-2.61.76a3.59,3.59,0,0,0-1-2,2.52,2.52,0,0,0-1.76-.69,2.79,2.79,0,0,0-2.37,1.27,7.26,7.26,0,0,0-.91,4.16,7.7,7.7,0,0,0,.89,4.29,2.72,2.72,0,0,0,2.32,1.28,2.4,2.4,0,0,0,1.8-.81A5.08,5.08,0,0,0,46.79,121.86Z"/><path d="M63.41,127.73H60.55l-1.15-3.62H54.17l-1.09,3.62h-2.8l5.09-16h2.8Zm-4.86-6.31-1.8-5.93L55,121.42Z"/><path d="M64.76,127.73v-16h3.95l2.38,10.9,2.36-10.9h4v16H75V115.16l-2.61,12.57H69.81l-2.59-12.57v12.57Z"/><path d="M80,127.73v-16h4.25a13.1,13.1,0,0,1,3.1.23,3.55,3.55,0,0,1,1.92,1.58,6.72,6.72,0,0,1,.1,6,3.82,3.82,0,0,1-1.63,1.65,8.58,8.58,0,0,1-3.37.47H82.66v6Zm2.64-13.26V119h1.46a6.28,6.28,0,0,0,2-.21,1.82,1.82,0,0,0,.87-.74,2.52,2.52,0,0,0,.33-1.33,2.37,2.37,0,0,0-.35-1.34,1.63,1.63,0,0,0-.86-.73,7.54,7.54,0,0,0-2.17-.19Z"/></svg>