<svg id="Layer_1" data-name="Layer 1" xmlns="http://www.w3.org/2000/svg" width="128" height="128" viewBox="0 0 128 128"><defs><style>.cls-1{fill:#61ce63;}</style></defs><title>Artboard 16</title><path class="cls-1" d="M119.58,117.58l-52.74-94L75.42,8.43a1.64,1.64,0,0,0-.59-2.21,1.57,1.57,0,0,0-2.17.59L65,20.32l0,0,0,.05L57.31,6.81a1.57,1.57,0,0,0-2.17-.59,1.63,1.63,0,0,0-.58,2.21L63.14,23.6l-52.72,94H2V122H128v-4.42Zm-80.28,0L46,108.69A108.72,108.72,0,0,0,63.4,73.45L65,67.86l1.6,5.59a108.72,108.72,0,0,0,17.45,35.24l6.65,8.89Z"/><path class="cls-1" d="M0,55.94V23.15H5.41V55.94Z"/><path class="cls-1" d="M11.5,23.15h9.9a14.67,14.67,0,0,1,5.66.84,9.31,9.31,0,0,1,3.52,2.83A14.39,14.39,0,0,1,33.11,32a29,29,0,0,1,.91,7.9,25.39,25.39,0,0,1-1,7.39,14.82,14.82,0,0,1-2.43,5A9.39,9.39,0,0,1,27.06,55a13.27,13.27,0,0,1-5.37.93H11.5Zm5.41,5.54v21.7H21a10.52,10.52,0,0,0,3.79-.49,4.58,4.58,0,0,0,1.93-1.48,8.6,8.6,0,0,0,1.24-3.14,26.14,26.14,0,0,0,.49-5.66,26.1,26.1,0,0,0-.5-5.74,7.69,7.69,0,0,0-1.57-3.31A5.08,5.08,0,0,0,23.78,29a21.78,21.78,0,0,0-4.41-.29Z"/><path class="cls-1" d="M116,47.49h-4.68l0-1.44a12,12,0,0,1,.76-4.67A13,13,0,0,1,115,37.44a19.39,19.39,0,0,0,2.93-3.31,4.24,4.24,0,0,0,.5-2.08,4.31,4.31,0,0,0-4.46-4.45q-4.14,0-5.1,5.5l-4.72-.71A10,10,0,0,1,107,25.5a9.2,9.2,0,0,1,6.77-2.69,9.42,9.42,0,0,1,6.89,2.71,9.08,9.08,0,0,1,2.75,6.75,8.34,8.34,0,0,1-1,3.91,24,24,0,0,1-4.14,5,9.23,9.23,0,0,0-2,2.66A10.9,10.9,0,0,0,116,47.49Zm-4.68,8.45V49.66h5.15v6.28Z"/></svg>