<svg id="Layer_1" data-name="Layer 1" xmlns="http://www.w3.org/2000/svg" width="128" height="128" viewBox="0 0 128 128"><defs><style>.cls-1{fill:#61ce63;}</style></defs><title>Camp unidentified (old)</title><path class="cls-1" d="M102.33,101,66,36.12l5.92-10.45a1.12,1.12,0,0,0-.41-1.52,1.08,1.08,0,0,0-1.48.38l0,0-5.28,9.31h0v0l-5.3-9.35a1.08,1.08,0,0,0-1.48-.42h0a1.11,1.11,0,0,0-.4,1.52l5.92,10.47L27.05,101H21.24v3h86.9v-3ZM47,101l4.62-6.13a75,75,0,0,0,12-24.3l1.1-3.86,1.1,3.86a74.9,74.9,0,0,0,12,24.3L82.41,101Z"/><path class="cls-1" d="M19.86,58.44V35.83h3.73V58.44Z"/><path class="cls-1" d="M27.79,35.83h6.83a10,10,0,0,1,3.9.58,6.41,6.41,0,0,1,2.43,2,9.92,9.92,0,0,1,1.75,3.57,20,20,0,0,1,.62,5.45,17.18,17.18,0,0,1-.69,5.09A10,10,0,0,1,41,55.92a6.49,6.49,0,0,1-2.44,1.87,9,9,0,0,1-3.7.64h-7Zm3.73,3.82v15h2.82A7.06,7.06,0,0,0,37,54.27a3,3,0,0,0,1.33-1,5.78,5.78,0,0,0,.85-2.16,17.68,17.68,0,0,0,.34-3.9,18.12,18.12,0,0,0-.34-4,5.34,5.34,0,0,0-1.09-2.29,3.49,3.49,0,0,0-1.79-1.08,14.71,14.71,0,0,0-3-.2Z"/><path class="cls-1" d="M99.86,52.61H96.64v-1a8,8,0,0,1,.52-3.22,9,9,0,0,1,2-2.72,13.25,13.25,0,0,0,2-2.28,2.9,2.9,0,0,0,.35-1.44,3,3,0,0,0-2.87-3.06h-.21q-2.85,0-3.51,3.79l-3.26-.49a6.87,6.87,0,0,1,2-4.75,6.31,6.31,0,0,1,4.66-1.86,6.55,6.55,0,0,1,4.76,1.87A6.27,6.27,0,0,1,105,42.12a5.64,5.64,0,0,1-.69,2.69,16.32,16.32,0,0,1-2.85,3.45,6.22,6.22,0,0,0-1.38,1.84A7.58,7.58,0,0,0,99.86,52.61Zm-3.22,5.83V54.11h3.55v4.33Z"/><path d="M1.15,0H3.78V8.64a22.22,22.22,0,0,0,.1,2.62,2.7,2.7,0,0,0,.84,1.64,2.57,2.57,0,0,0,1.74.57A2.52,2.52,0,0,0,8,13.07a2,2,0,0,0,.79-1.14A14,14,0,0,0,9,8.83V0h2.64V8.38A22.77,22.77,0,0,1,11.25,13,4,4,0,0,1,9.7,15.34a5.22,5.22,0,0,1-3.17.89,5.92,5.92,0,0,1-3.2-.74,4.19,4.19,0,0,1-1.66-2.06,15.45,15.45,0,0,1-.52-4.92Z"/><path d="M14.4,16V0H17l5.35,10.66V0h2.46V16H22.12L16.86,5.55V16Z"/><path d="M27.48,16V0h2.63V16Z"/><path d="M32.63,0h4.81A7.21,7.21,0,0,1,40.2.41a4.61,4.61,0,0,1,1.71,1.37A7.23,7.23,0,0,1,43.14,4.3a14,14,0,0,1,.45,3.84,12.43,12.43,0,0,1-.47,3.6,7.19,7.19,0,0,1-1.19,2.42A4.53,4.53,0,0,1,40.2,15.5a6.34,6.34,0,0,1-2.62.46H32.63Zm2.63,2.7V13.26h2A5.17,5.17,0,0,0,39.09,13a2.16,2.16,0,0,0,.93-.73,4,4,0,0,0,.61-1.52A12.78,12.78,0,0,0,40.87,8a12.68,12.68,0,0,0-.25-2.8,3.72,3.72,0,0,0-.76-1.61,2.41,2.41,0,0,0-1.26-.77,10.75,10.75,0,0,0-2.14-.14Z"/><path d="M45.84,16V0h9.71V2.7H48.47V6.24h6.58V8.92H48.47v4.34h7.32V16Z"/><path d="M58.05,16V0h2.57L66,10.66V0h2.46V16H65.78L60.51,5.55V16Z"/><path d="M74.16,16V2.7H70.27V0h10.4V2.7H76.79V16Z"/><path d="M82.3,16V0h2.64V16Z"/><path d="M87.48,16V0h9V2.7H90.12V6.48H95.6v2.7H90.12V16Z"/><path d="M98.55,16V0h2.63V16Z"/><path d="M103.72,16V0h9.71V2.7h-7.08V6.24h6.58V8.92h-6.58v4.34h7.32V16Z"/><path d="M115.89,0h4.82a7.19,7.19,0,0,1,2.75.41,4.61,4.61,0,0,1,1.71,1.37A6.9,6.9,0,0,1,126.4,4.3a14,14,0,0,1,.45,3.84,12.43,12.43,0,0,1-.47,3.6,7.38,7.38,0,0,1-1.18,2.42,4.64,4.64,0,0,1-1.74,1.34,6.33,6.33,0,0,1-2.61.46h-5Zm2.63,2.7V13.26h2a5.17,5.17,0,0,0,1.85-.24,2.16,2.16,0,0,0,.93-.73,4,4,0,0,0,.61-1.52A12.78,12.78,0,0,0,124.13,8a12.1,12.1,0,0,0-.25-2.8,3.61,3.61,0,0,0-.76-1.61,2.37,2.37,0,0,0-1.26-.77,10.75,10.75,0,0,0-2.14-.14Z"/><path d="M46.79,121.86l2.56,1a7.13,7.13,0,0,1-2,3.91A5,5,0,0,1,43.93,128a5.09,5.09,0,0,1-4.15-2A9.52,9.52,0,0,1,38,119.89a10,10,0,0,1,1.85-6.39,5.22,5.22,0,0,1,4.3-2,5,5,0,0,1,3.68,1.5,6.59,6.59,0,0,1,1.55,3.17l-2.61.76a3.59,3.59,0,0,0-1-2,2.52,2.52,0,0,0-1.76-.69,2.79,2.79,0,0,0-2.37,1.27,7.26,7.26,0,0,0-.91,4.16,7.7,7.7,0,0,0,.89,4.29,2.72,2.72,0,0,0,2.32,1.28,2.38,2.38,0,0,0,1.8-.81A5.12,5.12,0,0,0,46.79,121.86Z"/><path d="M63.41,127.73H60.55l-1.15-3.62H54.16l-1.08,3.62h-2.8l5.09-16h2.8Zm-4.86-6.31-1.8-5.93L55,121.42Z"/><path d="M64.76,127.73v-16h3.95l2.38,10.9,2.36-10.9h4v16H75V115.16l-2.61,12.57H69.81l-2.59-12.57v12.57Z"/><path d="M80,127.73v-16h4.25a13.1,13.1,0,0,1,3.1.23,3.55,3.55,0,0,1,1.92,1.58,6.72,6.72,0,0,1,.1,6,3.82,3.82,0,0,1-1.63,1.65,8.58,8.58,0,0,1-3.37.47H82.66v6Zm2.64-13.26V119h1.46a6.28,6.28,0,0,0,2-.21,1.8,1.8,0,0,0,.86-.74,2.44,2.44,0,0,0,.34-1.33,2.37,2.37,0,0,0-.35-1.34,1.63,1.63,0,0,0-.86-.73,7.54,7.54,0,0,0-2.17-.19Z"/></svg>