<svg id="Layer_1" data-name="Layer 1" xmlns="http://www.w3.org/2000/svg" width="128" height="128" viewBox="0 0 128 128"><title>Artboard 17</title><path d="M40.28,121.86l2.56,1a7.13,7.13,0,0,1-2,3.91A5,5,0,0,1,37.42,128a5.08,5.08,0,0,1-4.14-2,9.52,9.52,0,0,1-1.83-6.14,10,10,0,0,1,1.84-6.39,5.23,5.23,0,0,1,4.3-2,5,5,0,0,1,3.68,1.5,6.5,6.5,0,0,1,1.55,3.17l-2.61.76a3.59,3.59,0,0,0-1-2,2.5,2.5,0,0,0-1.76-.69,2.79,2.79,0,0,0-2.37,1.27,7.26,7.26,0,0,0-.91,4.16,7.79,7.79,0,0,0,.89,4.29,2.73,2.73,0,0,0,2.32,1.28,2.4,2.4,0,0,0,1.81-.81A5.17,5.17,0,0,0,40.28,121.86Z"/><path d="M57.13,127.73H54.26l-1.14-3.62H47.88l-1.08,3.62H44l5.1-16h2.79Zm-4.86-6.31-1.81-5.93-1.77,5.93Z"/><path d="M58.77,127.73v-16h2.56l5.36,10.66V111.77h2.46v16H66.49l-5.26-10.41v10.41Z"/><path d="M71.61,119.85a11.22,11.22,0,0,1,.85-4.7,6.36,6.36,0,0,1,2.2-2.75,5.86,5.86,0,0,1,3.3-.9,5.66,5.66,0,0,1,4.58,2.14A11.45,11.45,0,0,1,82.43,126,5.46,5.46,0,0,1,78,128a5.53,5.53,0,0,1-4.48-2A9.37,9.37,0,0,1,71.61,119.85Zm2.72-.11a6.78,6.78,0,0,0,1,4.13,3.15,3.15,0,0,0,2.6,1.38,3.12,3.12,0,0,0,2.58-1.37,7,7,0,0,0,1-4.2,6.88,6.88,0,0,0-1-4.1,3.24,3.24,0,0,0-5.24,0A6.85,6.85,0,0,0,74.33,119.74Z"/><path d="M86.61,127.73v-16h9.7v2.7H89.24V118h6.57v2.69H89.24V125h7.31v2.7Z"/><path d="M125,82.87a26.86,26.86,0,0,1-8.3,1.3H38.37L28,65.37a2,2,0,0,0,.6-.41,2,2,0,0,0,0-2.89L23.28,56.7l-1-1.88,0-.87v-.26L31,52.42a2,2,0,0,0-.59-4.05l-8.27,1.2-3.27-.87-1.95-3.54a5.2,5.2,0,1,0-2.38-4.36s0,0,0,0l-3.1-5.63-1.28.7,6.93,12.62a3.34,3.34,0,0,0-2.91,3.31V66.69c0,2.37,2.14,7.79,2.14,7.79l-2.14,9.4a2.85,2.85,0,0,0,0,.29H0a7.44,7.44,0,0,0,2.82,5.91c4.69,3.59,10.56,2.61,16.36,2.58,30.54-.14,61.07,0,91.61.09,7.53,0,13.77-1.83,17.21-10.78C127,82.22,126,82.55,125,82.87Zm-98.13.36S23.77,72.82,22.05,67h0l.09-5.6L25.75,65a2.06,2.06,0,0,0,.64.43L36.71,84.17H26.89A2.71,2.71,0,0,0,26.83,83.23Zm-7.49.65,1-4.48c.65,2.23,1.18,4,1.4,4.77H19.31A2.85,2.85,0,0,0,19.34,83.88Z"/></svg>