<?xml version="1.0" encoding="UTF-8" standalone="no"?>
<svg
   id="Layer_1"
   data-name="Layer 1"
   width="128"
   height="128"
   viewBox="0 0 128 128"
   version="1.1"
   sodipodi:docname="Cattle boma (old).svg"
   inkscape:version="1.3.2 (091e20e, 2023-11-25, custom)"
   xmlns:inkscape="http://www.inkscape.org/namespaces/inkscape"
   xmlns:sodipodi="http://sodipodi.sourceforge.net/DTD/sodipodi-0.dtd"
   xmlns="http://www.w3.org/2000/svg"
   xmlns:svg="http://www.w3.org/2000/svg">
  <defs
     id="defs11" />
  <sodipodi:namedview
     id="namedview11"
     pagecolor="#ffffff"
     bordercolor="#000000"
     borderopacity="0.25"
     inkscape:showpageshadow="2"
     inkscape:pageopacity="0.0"
     inkscape:pagecheckerboard="0"
     inkscape:deskcolor="#d1d1d1"
     inkscape:zoom="9.1640625"
     inkscape:cx="63.890878"
     inkscape:cy="72.729753"
     inkscape:window-width="2127"
     inkscape:window-height="1237"
     inkscape:window-x="1053"
     inkscape:window-y="116"
     inkscape:window-maximized="0"
     inkscape:current-layer="Layer_1" />
  <title
     id="title1">Artboard 9</title>
  <path
     d="M58.65,21.18c-.83-.83-1.6-1.6-2.23-2.28-1.92-2-3.21-3.64-4.59-5.37-.58-.73-1.17-1.47-1.83-2.27a43.41,43.41,0,0,1-3.32-4.64C44.35,2.89,39.6,0,37.06,0S28.62,4.22,19.82,12.53C12.16,19.78,7.69,33.62,7.5,34.21l0,.15V59.53a16.23,16.23,0,0,0-6.39,3.38A3.63,3.63,0,0,0,2.3,68.84c6.92,2.86,24.9,1.28,30.64.68a67.48,67.48,0,0,0,9.61.85c16.42,0,23.52-10,23.82-10.41l.18-.27v-22a4,4,0,0,0,1.79-2.94C68.34,30.93,63,25.52,58.65,21.18ZM39,55.2V68.12A153.41,153.41,0,0,1,18,64.44a16.81,16.81,0,0,1-2.23-.92,66.72,66.72,0,0,1-6.25-3.88V37.36c4.91,1.78,21.17,7.39,30.18,7.39,1,0,2.05,0,3.18-.14C39,47.89,39,55.2,39,55.2ZM64.46,59a24.5,24.5,0,0,1-9.37,6.81V53c0-1.57.5-7.66-4.51-9.45,5.18-1,10.44-2.58,13.88-4.48ZM39.73,42.66c-9.06,0-26.53-6.19-30.18-7.53v-.44c.5-1.52,4.85-14.14,11.71-20.64,9.33-8.82,14.27-12,15.8-12,1.7,0,5.84,2.42,7.85,5.64a46.3,46.3,0,0,0,3.48,4.87c.65.78,1.23,1.52,1.81,2.24,1.4,1.76,2.72,3.42,4.7,5.5.64.69,1.42,1.47,2.27,2.32,3.61,3.63,9.08,9.13,9.08,12.07S50.66,42.66,39.73,42.66Z"
     id="path6" />
  <path
     d="M30.64,11a9.67,9.67,0,0,0,3,.73,28.82,28.82,0,0,0,3.07.34,17,17,0,0,0,3.1-.06l0-.18a21.9,21.9,0,0,1-2.92-.66c-1-.26-1.92-.54-2.86-.85s-1.81-.81-2.75-1a21.45,21.45,0,0,0-3-.53L28.18,9A5.91,5.91,0,0,0,30.64,11Z"
     id="path7" />
  <path
     d="M23.54,19.8a13.33,13.33,0,0,0,3.13,1.47,20.54,20.54,0,0,0,6.73.8,42.31,42.31,0,0,0,6.67-.62,48.24,48.24,0,0,0,6.42-1.74l-.05-.17a57.9,57.9,0,0,1-6.49,1,40.34,40.34,0,0,1-6.5.07,44.91,44.91,0,0,1-6.29-1.09l-.78-.17-.75-.22c-.52-.11-1-.32-1.51-.47a15.7,15.7,0,0,1-2.88-1.42l-.13.12A7.62,7.62,0,0,0,23.54,19.8Z"
     id="path8" />
  <path
     d="M40.83,33.28a56.62,56.62,0,0,1-9.21-.3,81.73,81.73,0,0,1-9-1.74c-1.48-.33-2.93-.77-4.39-1.22A31.16,31.16,0,0,1,14,28.25l-.11.14a15.13,15.13,0,0,0,3.85,2.81A28.09,28.09,0,0,0,22.14,33a37.69,37.69,0,0,0,9.36,1.43,57.82,57.82,0,0,0,9.4-.23,58.35,58.35,0,0,0,9.19-1.81l0-.18A62.48,62.48,0,0,1,40.83,33.28Z"
     id="path9" />
  <path
     d="M78,65.34c.93-.47,1.11-1.33,1.81-1.88A1.94,1.94,0,0,0,80.34,62c.06-1.8-.09-3.73-.12-5.52s-.07-3.65-.08-5.48c0-1,.41-1.94.41-3.06,0,.6-.09,1.19-.14,1.78a11.37,11.37,0,0,0,0,4,20.38,20.38,0,0,1,.5,4.39,10.9,10.9,0,0,1-.42,3.11A4.68,4.68,0,0,1,79.28,63a3.34,3.34,0,0,0-.31,1.7c-.16,2.3,0,5.59-.16,7.86a38.9,38.9,0,0,1-.35,4.32c-.06.37,0,.64.45.58s.39.15.41.39a4.91,4.91,0,0,1,0,.86c-.06.74.12,1,.83,1a6.59,6.59,0,0,1,1.47.06c.23,0,.51.08.65-.17a.6.6,0,0,0-.19-.72,4.28,4.28,0,0,1-1.27-2.65,27.4,27.4,0,0,1,.21-5.43,3.19,3.19,0,0,1,.85-1.72,11.8,11.8,0,0,1,.74,3.79c.07,1.15.1,2.69.16,3.84,0,.32,0,.71.49.33.14-.12.26-.07.3.13a1.16,1.16,0,0,0,0,.18c.36,1.37.36,1.37,1.76,1.5.47,0,1.1.19,1.35-.21s-.33-.77-.49-1.18a.86.86,0,0,0-.13-.2A10.73,10.73,0,0,1,84.2,72a6.59,6.59,0,0,1,.48-4c1-2,1.65-5.65,2.53-7.71a1,1,0,0,1,1.61-.5c1.56,1,.78,1.91,2.76,2.19,1.56.22,2-.34,3.51-.45,1.16-.08,5.6.74,6.72.38a4.2,4.2,0,0,1,2.77.29c.27.09.28.3.28.53,0,1.87,0,5.21,0,7.08a2.18,2.18,0,0,0,.28,1.3.81.81,0,0,1,.12.53,14,14,0,0,1-.9,5.37,1.65,1.65,0,0,0-.13.53c0,.53.13.72.62.54s.67.08.68.54a6.15,6.15,0,0,1,0,.86.66.66,0,0,0,.7.84c.53,0,1.06,0,1.59,0s.78-.2.52-.84c-.06-.15-.3-.3-.11-.48s.34-.06.51,0a2.77,2.77,0,0,0,1.4.12c.38,0,.46-.23.4-.57a2,2,0,0,0-.83-1.49,1.8,1.8,0,0,1-.72-1.4,17.91,17.91,0,0,1-.16-3.19c0-1.19.41-2.28.53-3.44.11-1,.34-3.37.49-4.32,0-.28.13-.46.44-.46a3.4,3.4,0,0,0,2.59-1.15,8.19,8.19,0,0,0,2.49-4.32,3.85,3.85,0,0,1,.83-1.94c.62-.76,1.24-1.51,1.88-2.24,1.39-1.83,3.84.59,4.13.86a1.34,1.34,0,0,0,2.16-.11.9.9,0,0,1,.19-.15c.25-.16.7-.1.73-.51a2.22,2.22,0,0,0-.36-1.89,7.9,7.9,0,0,1-1.32-4.86c0-.41-.36-1-.07-1.27.64-.57,1.55-.87,1.9-1.68.16-.38.43-.79.1-1.12a1.49,1.49,0,0,0-1.33-.41c-.75.14-.65.33-1,1-.14.24-.22,0-.23-.13s.16-.21.29-.26c.42-.17.86-.3,1.26-.51A4.22,4.22,0,0,0,126,42.23a15.07,15.07,0,0,0,.92-2.33c.21-.43.72-.69,1.11-1.13a1.81,1.81,0,0,0-1.27.52c-1,1.16-.85,2-1.8,2.72a2.5,2.5,0,0,1-3,.23,3.91,3.91,0,0,0-3.63.3c-1.54,1-2.81-1.39-2.93-2.64-.08-.82.74-1.64.61-2.46a6.34,6.34,0,0,0-.78-2.14c0,.06-.08.09-.08.11.67,3.06-1,3.78-1,5a4.23,4.23,0,0,0,1.82,3.47,1.2,1.2,0,0,0-1.11.72c-.12.3-.42.17-.63.15a7.73,7.73,0,0,0-5.11,1.22c-2.08.14-4.28-.62-6.33-.13a6.55,6.55,0,0,1-1.65.15c-3.67-.14-7.51-1.45-11.11-2.26-2.45-.55-4.68-.1-7.15,0a3.29,3.29,0,0,0-2.4,1.9,8.46,8.46,0,0,0-.82,3.53,77,77,0,0,0,0,9c0,1.09.17,2.16-.73,2.9a2.26,2.26,0,0,0-.75,1.69C78.1,63.62,78.09,64.4,78,65.34Zm29.14,7.25a12,12,0,0,1,0,3.28A12.42,12.42,0,0,1,107.14,72.59Z"
     id="path10" />
  <path
     d="M120.78,27c1.15-1.43,2.31-2.85,3.5-4.23q.9-1,1.83-2c.31-.33.63-.66,1-1a4,4,0,0,1,.93-.69v-.6a1.76,1.76,0,0,0-.8.31,5.19,5.19,0,0,0-.59.42,13.61,13.61,0,0,0-1.09.89c-.71.61-1.39,1.24-2.06,1.88-1.34,1.27-2.64,2.58-3.94,3.89l-7.69,8c-3.77,3.87-7.44,7.82-11,11.89-2.42-3.62-4.79-7.28-7.54-10.67-2.06-2.57-4.17-5.1-6.43-7.53-1.11-1.22-2.28-2.4-3.48-3.55l-.92-.85L82,22.72a4.09,4.09,0,0,0-.56-.42,16.29,16.29,0,0,0-2.24-1.22l-.33.51a22.89,22.89,0,0,1,1.71,1.7,3.76,3.76,0,0,1,.33.42l.34.5.69,1,2.7,4.08,5.41,8.15c2.56,3.89,5.48,7.53,8.26,11.28-.43.51-.86,1-1.28,1.52C94.72,53.08,92.4,55.93,90,58.7L82.75,67c-2.37,2.79-4.68,5.63-7,8.47l-3.5,4.22c-.58.67-1.21,1.43-1.76,2a20.18,20.18,0,0,1-2.12,1.65l.27.54a15.91,15.91,0,0,0,2.63-1.15c.86-.58,1.55-1.11,2.3-1.71,1.46-1.16,2.86-2.39,4.22-3.64,2.74-2.51,5.35-5.13,7.86-7.84S90.49,64,92.9,61.21s4.85-5.54,7.28-8.3l.62-.73c.26.38.53.75.79,1.14,3.69,5.4,6.45,11.46,10.56,16.61,2,2.6,4.13,5.13,6.4,7.55,1.14,1.21,2.34,2.37,3.59,3.51.64.55,1.27,1.11,2,1.63.35.25.69.51,1.07.74a3.38,3.38,0,0,0,1.38.56l.08-.6a5.23,5.23,0,0,1-.62-.84c-.22-.32-.42-.67-.62-1-.4-.71-.81-1.41-1.19-2.14l-2.4-4.27c-1.64-2.83-3.33-5.62-5.12-8.36-3.48-5.53-8.21-10.21-12-15.52-.46-.62-.91-1.25-1.36-1.88,3.71-4.41,7.24-9,10.71-13.58Q117.32,31.32,120.78,27Z"
     id="path11" />
  <path
     d="m 44.483547,100.73423 2.29,0.89 a 6.41,6.41 0 0 1 -1.78,3.51 4.48,4.48 0 0 1 -3.08,1.11 4.55,4.55 0 0 1 -3.72,-1.77 8.57,8.57 0 0 1 -1.64,-5.509987 9,9 0 0 1 1.65,-5.73 4.69,4.69 0 0 1 3.86,-1.8 4.46,4.46 0 0 1 3.31,1.35 5.86,5.86 0 0 1 1.38,2.84 l -2.34,0.69 a 3.17,3.17 0 0 0 -0.89,-1.78 2.24,2.24 0 0 0 -1.58,-0.66 2.51,2.51 0 0 0 -2.13,1.13 6.57,6.57 0 0 0 -0.82,3.74 7,7 0 0 0 0.8,3.849987 2.45,2.45 0 0 0 2.08,1.14 2.12,2.12 0 0 0 1.62,-0.73 4.52,4.52 0 0 0 0.99,-2.27 z"
     id="path1"
     style="fill:#e29b29;fill-opacity:1" />
  <path
     d="m 59.593547,106.00423 h -2.57 l -1,-3.25 h -4.7 l -1,3.25 h -2.52 l 4.58,-14.319987 h 2.51 z m -4.36,-5.66999 -1.62,-5.309997 -1.59,5.309997 z"
     id="path2"
     style="fill:#e29b29;fill-opacity:1" />
  <path
     d="M 62.483547,106.00423 V 94.104243 h -3.49 v -2.42 h 9.33 v 2.42 h -3.48 v 11.899987 z"
     id="path3"
     style="fill:#e29b29;fill-opacity:1" />
  <path
     d="M 72.703547,106.00423 V 94.104243 h -3.49 v -2.42 h 9.330002 v 2.42 h -3.480002 v 11.899987 z"
     id="path4"
     style="fill:#e29b29;fill-opacity:1" />
  <path
     d="M 80.343549,106.00423 V 91.804243 h 2.36 v 11.769987 h 5.9 v 2.43 z"
     id="path5"
     style="fill:#e29b29;fill-opacity:1" />
  <path
     d="M 90.503549,106.00423 V 91.684243 h 8.71 v 2.42 h -6.35 v 3.17 h 5.9 v 2.42 h -5.9 v 3.879987 h 6.56 v 2.43 z"
     id="path6-9"
     style="fill:#e29b29;fill-opacity:1" />
  <path
     d="m 43.227989,110.09599 h 4.7 a 7.37,7.37 0 0 1 2.71,0.35 3.06,3.06 0 0 1 1.32,1.21 3.78,3.78 0 0 1 0.54,2 3.87,3.87 0 0 1 -0.46,1.87 3.06,3.06 0 0 1 -1.2,1.24 3.14,3.14 0 0 1 1.63,1.27 3.85,3.85 0 0 1 0.59,2.19 4.51,4.51 0 0 1 -0.75,2.64 3.06,3.06 0 0 1 -1.78,1.33 17.86,17.86 0 0 1 -3.31,0.18 h -4 z m 2.36,2.38 v 3.31 h 1.57 a 15,15 0 0 0 1.73,0 1.44,1.44 0 0 0 0.95,-0.51 1.71,1.71 0 0 0 0.34,-1.13 1.74,1.74 0 0 0 -0.28,-1 1.14,1.14 0 0 0 -0.67,-0.49 13.58,13.58 0 0 0 -2.27,-0.1 z m 0,5.7 v 3.81 h 2.21 a 6.86,6.86 0 0 0 1.85,-0.15 1.35,1.35 0 0 0 0.69,-0.59 2.39,2.39 0 0 0 0,-2.28 1.47,1.47 0 0 0 -0.79,-0.62 7.27,7.27 0 0 0 -2,-0.17 z"
     id="path8-8"
     style="fill:#e29b29;fill-opacity:1" />
  <path
     d="m 54.787989,117.34599 a 10.29,10.29 0 0 1 0.75,-4.22 5.77,5.77 0 0 1 2,-2.46 5.25,5.25 0 0 1 3,-0.81 5.09,5.09 0 0 1 4.11,1.92 8.38,8.38 0 0 1 1.58,5.48 8.52,8.52 0 0 1 -1.68,5.61 5.41,5.41 0 0 1 -8,0 8.41,8.41 0 0 1 -1.76,-5.52 z m 2.44,-0.1 a 6,6 0 0 0 0.94,3.7 2.81,2.81 0 0 0 2.33,1.24 2.77,2.77 0 0 0 2.31,-1.23 6.2,6.2 0 0 0 0.92,-3.76 6.1,6.1 0 0 0 -0.89,-3.68 2.79,2.79 0 0 0 -2.34,-1.19 2.83,2.83 0 0 0 -2.36,1.2 6.14,6.14 0 0 0 -0.91,3.72 z"
     id="path9-1"
     style="fill:#e29b29;fill-opacity:1" />
  <path
     d="m 68.197989,124.41599 v -14.32 h 3.54 l 2.14,9.77 2.12,-9.77 h 3.56 v 14.32 h -2.2 v -11.28 l -2.34,11.28 h -2.29 l -2.32,-11.28 v 11.28 z"
     id="path10-3"
     style="fill:#e29b29;fill-opacity:1" />
  <path
     d="m 92.687989,124.41599 h -2.57 l -1,-3.25 h -4.76 l -1,3.25 h -2.46 l 4.57,-14.32 h 2.51 z m -4.33,-5.67 -1.62,-5.31 -1.59,5.31 z"
     id="path11-6"
     style="fill:#e29b29;fill-opacity:1" />
</svg>
