<svg id="Layer_1" data-name="Layer 1" xmlns="http://www.w3.org/2000/svg" width="128" height="128" viewBox="0 0 128 128"><title>Artboard 21</title><path d="M37.58,121.86l2.55,1a7.13,7.13,0,0,1-2,3.91A5,5,0,0,1,34.71,128a5.08,5.08,0,0,1-4.14-2,9.52,9.52,0,0,1-1.83-6.14,10,10,0,0,1,1.84-6.39,5.23,5.23,0,0,1,4.3-2,5,5,0,0,1,3.68,1.5,6.5,6.5,0,0,1,1.55,3.17l-2.61.76a3.59,3.59,0,0,0-1-2,2.5,2.5,0,0,0-1.76-.69,2.81,2.81,0,0,0-2.37,1.27,7.26,7.26,0,0,0-.91,4.16,7.79,7.79,0,0,0,.89,4.29,2.73,2.73,0,0,0,2.32,1.28,2.4,2.4,0,0,0,1.81-.81A5.3,5.3,0,0,0,37.58,121.86Z"/><path d="M54.42,127.73H51.55l-1.14-3.62H45.17l-1.08,3.62H41.28l5.1-16h2.79Zm-4.86-6.31-1.81-5.93L46,121.42Z"/><path d="M57.63,127.73V114.47H53.75v-2.7H64.14v2.7H60.27v13.26Z"/><path d="M69,127.73V114.47H65.14v-2.7H75.53v2.7H71.66v13.26Z"/><path d="M77.54,127.73V111.9h2.63V125h6.58v2.7Z"/><path d="M88.86,127.73v-16h9.71v2.7H91.5V118h6.57v2.69H91.5V125h7.31v2.7Z"/><path d="M20.57,98.35c-.81.15-3.15.46-4.59.65a4.51,4.51,0,0,1,0,.9c-.13,1.64.28,2.2,1.82,2.22a14.61,14.61,0,0,1,3.24.13c.51.1,1.12.17,1.43-.39s0-1.15-.42-1.58A13.38,13.38,0,0,1,20.57,98.35Z"/><path d="M120.2,12.61c-2.19,2.57-1.87,4.37-4,6s-4.16,1.72-6.58.51a8.52,8.52,0,0,0-8,.67C98.3,22,95.5,16.73,95.23,14c-.18-1.82,1.64-3.62,1.34-5.45a13.87,13.87,0,0,0-1.7-4.72c-.09.1-.19.19-.19.22,1.48,6.79-2.12,8.39-2.25,11-.18,3.64,2.07,6.1,4,7.68a2.65,2.65,0,0,0-1.85.73,8.7,8.7,0,0,1,.65.85l2.45.57-.15.34s-1.63-.58-2.39-.8l-.08,0L95,24.26a10.81,10.81,0,0,0-1.88-1.94,6.17,6.17,0,0,0-1.1-.7c-.41-.2-.84-.36-1.27-.52a8.76,8.76,0,0,0-2.71-.58,4.18,4.18,0,0,0-1.37.13,1.34,1.34,0,0,0-.88.6,3.22,3.22,0,0,0,.56.85c.26.3.55.61.83.91.58.59,1.21,1.15,1.81,1.74.3.27.66.65.87.81a2.83,2.83,0,0,0,1,.36,7.74,7.74,0,0,0,2.39-.12l.27-.05.06.2c.18.67.39,2.05.39,2.05h0a.77.77,0,0,1,0,.15l-.39.2c-.14-.37-.21-.82-.32-1.18s-.16-.59-.25-.88a5.86,5.86,0,0,1-2,.18,3.49,3.49,0,0,1-1.33-.34,6,6,0,0,1-1-.86,7.7,7.7,0,0,1-.59-.56,17.65,17.65,0,0,0-6.78,2.6c-4.57.31-9.41-1.37-13.93-.29a13.05,13.05,0,0,1-3.63.35c-8.06-.31-16.51-3.22-24.43-5-5.4-1.23-10.31-.21-15.72.09-2.46.13-4.05,2.18-5.3,4.2-1.36,2.2-1.54,5.25-1.78,7.84-.63,6.63-.11,13.26,0,19.89.05,2.43.38,4.8-1.61,6.44a5.07,5.07,0,0,0-1.66,3.74c-.13,2-.14,3.66-.35,5.74a5.8,5.8,0,0,0,2.15-2c0,.19,0,.36,0,.52s0,.31,0,.48l.34-.53a17.91,17.91,0,0,0,2-4.66c.23-.76.44-1.51.71-2.26.05-3.7-.22-7.59-.28-11.22-.07-4-.17-8.1-.19-12.15a34.7,34.7,0,0,1,.76-5c0,.72-.12,1.44-.17,2.17-.26,2.94-.71,6,.05,8.83a45,45,0,0,1,1.1,9.71,22.36,22.36,0,0,1-.78,6.32c.18-.46.38-.92.61-1.37a11.34,11.34,0,0,1,3.28-4.08l.05.07a11.22,11.22,0,0,0-2.95,4.19,32.28,32.28,0,0,0-1.54,4.95c-.22.85-.42,1.7-.71,2.55-.16.42-.32.84-.51,1.26a9.44,9.44,0,0,1-.74,1.15A10.56,10.56,0,0,1,15,70.67c-.19,4.93,0,11.16-.25,15.62-.17,2.91-.28,6.7-.75,9.57-.15.81.05,1.41,1,1.28.67-.09.84.32.9.86l4-.92a7.34,7.34,0,0,1-.61-2.66,59.85,59.85,0,0,1,.44-12,7.36,7.36,0,0,1,1.33-3.17,20.17,20.17,0,0,1,1.73-4.71,19.48,19.48,0,0,1,2.39-3.61,18.38,18.38,0,0,1,3.11-3.06,4.9,4.9,0,0,1,.48-.31l.46-.26a8.63,8.63,0,0,0,.83-.6,15.89,15.89,0,0,0,1.54-1.42,40.46,40.46,0,0,0,2.87-3.13c.46-.54.91-1.09,1.34-1.65h0c0-.1.09-.21.14-.31a3.4,3.4,0,0,1,.41-.76,2,2,0,0,1,.65-.66l.05,0a4.34,4.34,0,0,0,.38-.5,3.15,3.15,0,0,0,.22-.33c1.32-2.11,2.33-6.12,2.79-7,.6-1.12-.19-9.47-.31-10.62L42.2,51.46l-4.53,8.23c.27.06,2.82,2.15,4.7,3.17a1.06,1.06,0,0,0,1.19-.09,8.27,8.27,0,0,1,4.53-1.64c2.56-.19,15.55,5,25.37,3.18-1.81-3.26-5.19-9.48-5.46-9.74s3.48-7.24,3.9-8a78.78,78.78,0,0,0-2,8c-.11,1.65,4.6,8.35,5,9.8v0a.65.65,0,0,1,.06.21.11.11,0,0,1,0,0h0a2.55,2.55,0,0,1,0,.4c0,4.15,0,11.53,0,15.67a4.77,4.77,0,0,0,.61,2.88,2,2,0,0,1,.28,1.17c-.09,3.8-.4,8.41-2,11.92a3.49,3.49,0,0,0-.31,1.17c-.1,1.15.31,1.57,1.36,1.19.78-.27,1.35-.42,1.35-.42l4.09-1.38c-.6-.68-.53-2.63-.71-3.63a42.84,42.84,0,0,1-.35-7.07c0-2.82,1-5.43,1.24-8.2a83.19,83.19,0,0,1,1-9.18,1.08,1.08,0,0,1,.32-.64c1.68-2.81,5-10.88,5.51-14.21,0,4.93-1.6,8.3-2.18,10.18-1.19,1.79-2,3.23-2,3.84.08,3.87.78,7,.83,9.65a4.66,4.66,0,0,0,.66,2.85,2,2,0,0,1,.31,1.18c0,3.8-.23,8.41-1.75,12A3.35,3.35,0,0,0,83,95.18c-.08,1.15.34,1.56,1.39,1.16.76-.29,1.33-.45,1.33-.45L90,94.53c-.6-.67-.72-2.72-.92-3.72a42.72,42.72,0,0,1-.5-7c0-2.83.93-5.45,1.07-8.24a86,86,0,0,1,.87-9.19,1.1,1.1,0,0,1,.3-.65,41.47,41.47,0,0,0,1.86-3.93,13.7,13.7,0,0,0,2.53-6A8.65,8.65,0,0,1,97,51.46c1.37-1.67,2.72-3.34,4.13-5a3.9,3.9,0,0,1,1.16-1l-3.16-3.8V34l1.22,6.94s2.52,2.43,4.5,4.17c2.5.49,5,2.93,5.38,3.32,1.69,1.58,3.17,1.42,4.75-.25a1.53,1.53,0,0,1,.41-.31c.56-.36,1.54-.24,1.61-1.14a14.91,14.91,0,0,0,.1-2.1,2.87,2.87,0,0,0-.3.58c-.43.68-.86.78-1.06.44a1.18,1.18,0,0,1,.15-1.16,2.45,2.45,0,0,1,1.07-.64,3.56,3.56,0,0,0-.75-1.3c-2-2.17-3.2-7.55-2.92-10.78.08-.89-.77-2.22-.14-2.79,1.4-1.28,3.41-1.93,4.17-3.72.37-.85.94-1.77.23-2.5a3.24,3.24,0,0,0-1.88-.93,9.5,9.5,0,0,0,2.87-2.68c1.16-1.61,1.09-3.32,2-5.16.47-1,1.58-1.53,2.45-2.51A4.07,4.07,0,0,0,120.2,12.61ZM104.66,32.33a2.06,2.06,0,0,1-1.53-.19,2,2,0,0,1-.63-1.42.36.36,0,0,1,.28-.37,1.56,1.56,0,0,1,2.15,1.6A.35.35,0,0,1,104.66,32.33Zm7.83-9.17c.12-.06.26-.11.39-.16-.12.27-.29.59-.51,1s-.48.08-.49-.28S112.23,23.27,112.49,23.16Zm.71,22.51a1.18,1.18,0,0,1,.58,1c-.06.4-.5.47-1.15,0,0,0-.51-.54-.67-.45a.34.34,0,0,1-.34-.55C111.9,45.26,113,45.53,113.2,45.67Z"/><path d="M31.73,96.7c-.13-.16-.27-.33-.39-.5-.81.29-3.55,1-4.9,1.42.63,2.29.87,2.33,3.69,2.59,1,.09,2.41.42,3-.45s-.72-1.71-1.07-2.61A1.74,1.74,0,0,0,31.73,96.7Z"/><path d="M32.85,65.62c-.5.51-1,1-1.56,1.5a6.14,6.14,0,0,1-.89.68c-.34.22-.57.34-.86.56a23.35,23.35,0,0,0-5.14,6.55,22.64,22.64,0,0,0-1.81,4,26.49,26.49,0,0,1,1.47,8c.16,2.54.23,5.94.37,8.5,0,.7,0,1.57,1.07.71.32-.25.58-.13.65.3l0,.11.47-.07L30.54,95c-1.76-3-2.55-6.73-3-10a14.76,14.76,0,0,1,1.06-8.94c2-3.92,5.37-9.77,7.48-14.23l-.4.51Q34.34,64.05,32.85,65.62Z"/><path d="M80.86,98.76c-.87.16-3.35.5-4.9.7a5.13,5.13,0,0,1,0,1c-.14,1.75.3,2.34,1.94,2.36a16.75,16.75,0,0,1,3.47.14c.53.11,1.19.19,1.52-.4s0-1.24-.45-1.7A13.43,13.43,0,0,1,80.86,98.76Z"/><path d="M90.21,96.16c-.86.16-3.35.49-4.89.69a5.13,5.13,0,0,1,0,1c-.14,1.75.3,2.35,1.94,2.37a16.66,16.66,0,0,1,3.46.14c.54.11,1.19.19,1.52-.41s0-1.24-.44-1.69A14.55,14.55,0,0,1,90.21,96.16Z"/></svg>