<svg id="Layer_1" data-name="Layer 1" xmlns="http://www.w3.org/2000/svg" width="128" height="128" viewBox="0 0 128 128"><defs><style>.cls-1{fill:#61ce63;}</style></defs><title>Artboard 19</title><path id="path6" class="cls-1" d="M64,23.13c-.91-.9-1.75-1.74-2.43-2.49a76.29,76.29,0,0,1-5-5.86c-.63-.8-1.28-1.61-2-2.48a47.61,47.61,0,0,1-3.62-5.07C48.39,3.16,43.2,0,40.43,0S31.21,4.61,21.6,13.69c-8.37,7.91-13.25,23-13.46,23.68V65a17.75,17.75,0,0,0-7,3.69,4,4,0,0,0,0,5.61,4.07,4.07,0,0,0,1.3.87c7.56,3.12,27.2,1.4,33.47.74a73.81,73.81,0,0,0,10.5.93c17.93,0,25.69-10.92,26-11.37l.2-.29v-24a4.4,4.4,0,0,0,2-3.22C74.6,33.78,68.76,27.87,64,23.13ZM42.55,60.29V74.4a166.84,166.84,0,0,1-22.94-4,17.73,17.73,0,0,1-2.43-1,74,74,0,0,1-6.83-4.24V40.81c5.36,1.94,23.12,8.07,33,8.07a26.37,26.37,0,0,0,3.48-.16C42.55,52.31,42.55,60.29,42.55,60.29Zm27.81,4.15a26.84,26.84,0,0,1-10.24,7.44v-14c0-1.72.55-8.37-4.92-10.32,5.65-1.1,11.4-2.82,15.16-4.9Zm-27-17.85c-9.9,0-29-6.76-33-8.22v-.48c.55-1.66,5.3-15.44,12.79-22.54C33.36,5.71,38.76,2.24,40.43,2.24c1.86,0,6.38,2.64,8.57,6.16a51,51,0,0,0,3.81,5.32c.71.85,1.34,1.66,2,2.44a78.28,78.28,0,0,0,5.14,6c.69.76,1.55,1.61,2.47,2.54,4,4,9.92,10,9.92,13.18S55.28,46.59,43.35,46.59Z"/><path id="path7" class="cls-1" d="M33.42,12a10.59,10.59,0,0,0,3.27.8,29.25,29.25,0,0,0,3.36.37,19.07,19.07,0,0,0,3.38-.06v-.2a25.31,25.31,0,0,1-3.19-.72c-1.09-.28-2.09-.59-3.12-.93a28.61,28.61,0,0,0-3-1.09,24.21,24.21,0,0,0-3.28-.58l-.11.23A6.44,6.44,0,0,0,33.42,12Z"/><path id="path8" class="cls-1" d="M25.66,21.63a14.6,14.6,0,0,0,3.42,1.6,22.57,22.57,0,0,0,7.35.88,46.84,46.84,0,0,0,7.29-.68,53,53,0,0,0,7-1.9l0-.19a62.89,62.89,0,0,1-7.09,1.09,43.17,43.17,0,0,1-7.1.08,48.38,48.38,0,0,1-6.87-1.19l-.85-.19L28,20.89c-.57-.12-1.1-.35-1.65-.51a17.38,17.38,0,0,1-3.15-1.55L23,19A8.44,8.44,0,0,0,25.66,21.63Z"/><path id="path9" class="cls-1" d="M44.55,36.35A62.6,62.6,0,0,1,34.49,36a88.8,88.8,0,0,1-9.83-1.9c-1.62-.36-3.2-.84-4.8-1.33a35.2,35.2,0,0,1-4.62-1.93l-.12.15a16.56,16.56,0,0,0,4.21,3.07,29.84,29.84,0,0,0,4.8,2,41.22,41.22,0,0,0,10.23,1.57,62.8,62.8,0,0,0,10.26-.26,63.42,63.42,0,0,0,10-2v-.2A68.81,68.81,0,0,1,44.55,36.35Z"/><path id="path10" class="cls-1" d="M67.09,109.76c1.13-.57,1.35-1.62,2.21-2.29a2.38,2.38,0,0,0,.64-1.78c.07-2.19-.11-4.54-.15-6.72s-.08-4.44-.09-6.67c0-1.22.5-2.36.5-3.72,0,.73-.11,1.44-.17,2.16a13.74,13.74,0,0,0,0,4.87,24.72,24.72,0,0,1,.6,5.35,12.72,12.72,0,0,1-.51,3.78,5.66,5.66,0,0,1-1.47,2.17,4.09,4.09,0,0,0-.38,2.07c-.19,2.8,0,6.81-.19,9.57a48.85,48.85,0,0,1-.43,5.26c-.07.45,0,.78.55.7s.47.19.5.48a6.14,6.14,0,0,1,0,1.05c-.07.9.15,1.21,1,1.21a8.24,8.24,0,0,1,1.79.08c.28,0,.62.09.79-.21a.73.73,0,0,0-.23-.88A5.22,5.22,0,0,1,70.51,123a33.2,33.2,0,0,1,.26-6.61,3.9,3.9,0,0,1,1-2.1,14,14,0,0,1,.9,4.62c.09,1.4.13,3.27.2,4.67,0,.39,0,.87.6.4.17-.14.31-.08.36.16v.22c.44,1.67.44,1.67,2.14,1.83.58,0,1.34.23,1.65-.26s-.4-.94-.6-1.44a.91.91,0,0,0-.16-.24,13.06,13.06,0,0,1-2.25-6.4,8.06,8.06,0,0,1,.58-4.87c1.22-2.44,2-6.88,3.08-9.39a1.22,1.22,0,0,1,1.5-.85,1.13,1.13,0,0,1,.46.24c1.9,1.22.95,2.33,3.36,2.67,1.9.27,2.44-.42,4.28-.55,1.41-.1,6.82.9,8.18.46a5.09,5.09,0,0,1,3.37.36c.33.11.34.36.34.64v8.62a2.72,2.72,0,0,0,.34,1.58,1,1,0,0,1,.15.65,17,17,0,0,1-1.1,6.54,2,2,0,0,0-.15.64c0,.65.15.88.75.66s.82.1.83.66a9,9,0,0,1,0,1,.8.8,0,0,0,.55,1,.77.77,0,0,0,.3,0h1.94c.64,0,.95-.25.63-1-.07-.18-.37-.36-.14-.58s.42-.07.63,0a3.5,3.5,0,0,0,1.7.15c.46,0,.56-.28.49-.7a2.43,2.43,0,0,0-1-1.81,2.21,2.21,0,0,1-.88-1.71,20.94,20.94,0,0,1-.19-3.88,38.83,38.83,0,0,1,.64-4.19c.13-1.22.41-4.1.6-5.26a.49.49,0,0,1,.53-.56,4.11,4.11,0,0,0,3.16-1.4,10,10,0,0,0,3-5.26,4.71,4.71,0,0,1,1-2.36c.75-.92,1.51-1.84,2.29-2.73,1.69-2.22,4.67.72,5,1a1.64,1.64,0,0,0,2.3.24,1.65,1.65,0,0,0,.33-.37,1.12,1.12,0,0,1,.24-.19c.3-.19.85-.12.88-.62a2.7,2.7,0,0,0-.43-2.3,9.54,9.54,0,0,1-1.61-5.91c0-.5-.44-1.22-.09-1.55.78-.69,1.89-1.06,2.32-2,.19-.46.52-1,.12-1.36a1.83,1.83,0,0,0-1.62-.5c-.91.17-.79.4-1.22,1.22-.17.29-.27,0-.28-.16s.2-.26.36-.32a14.4,14.4,0,0,0,1.53-.62,5.06,5.06,0,0,0,1.79-1.62,19.14,19.14,0,0,0,1.12-2.83c.25-.53.88-.84,1.35-1.38a2.25,2.25,0,0,0-1.55.63c-1.21,1.42-1,2.44-2.19,3.32a3.05,3.05,0,0,1-3.65.28,4.75,4.75,0,0,0-4.42.36c-1.87,1.22-3.42-1.69-3.57-3.21-.09-1,.9-2,.75-3a7.75,7.75,0,0,0-1-2.6c0,.07-.1.11-.1.13.82,3.73-1.22,4.6-1.22,6.09a5.14,5.14,0,0,0,2.22,4.22,1.46,1.46,0,0,0-1.35.88c-.15.36-.51.21-.77.18A9.44,9.44,0,0,0,105,86.18c-2.53.17-5.21-.76-7.71-.16a8,8,0,0,1-2,.18c-4.46-.17-9.14-1.76-13.52-2.75-3-.67-5.7-.12-8.71,0a4,4,0,0,0-2.92,2.31,10.34,10.34,0,0,0-1,4.3,95.41,95.41,0,0,0,0,11c0,1.32.21,2.63-.89,3.53a2.76,2.76,0,0,0-.91,2.06C67.21,107.66,67.2,108.61,67.09,109.76Zm35.48,8.83a14.81,14.81,0,0,1,0,4A14.81,14.81,0,0,1,102.57,118.59Z"/><path id="path11" class="cls-1" d="M119.94,64.81c1.28-1.59,2.56-3.16,3.89-4.69.66-.74,1.34-1.48,2-2.22.34-.37.7-.74,1.11-1.11a4.08,4.08,0,0,1,1-.77v-.67a2,2,0,0,0-.89.35,5.06,5.06,0,0,0-.65.46,14.48,14.48,0,0,0-1.21,1c-.79.68-1.55,1.38-2.29,2.09-1.49,1.41-2.93,2.86-4.37,4.32l-8.54,8.88q-6.28,6.44-12.21,13.2c-2.69-4-5.32-8.08-8.37-11.85a68.8,68.8,0,0,0-4.8-5.47c-1.24-1.35-2.54-2.66-3.87-3.94l-1-.94L79.23,63a5.73,5.73,0,0,0-.63-.47,18,18,0,0,0-2.48-1.35l-.37.57a24.08,24.08,0,0,1,1.9,1.88,5.9,5.9,0,0,1,.37.47l.37.55.77,1.11,3,4.53,3.67,6.16c2.84,4.32,6.08,8.36,9.17,12.52-.48.57-1,1.11-1.42,1.69C91,93.76,88.44,96.93,85.77,100l-8,9.22c-2.63,3.09-5.19,6.25-7.77,9.4l-3.88,4.68c-.65.75-1.35,1.59-2,2.22a21.87,21.87,0,0,1-2.35,1.84l.3.6A18.08,18.08,0,0,0,65,126.68c1-.64,1.72-1.23,2.55-1.9,1.62-1.29,3.18-2.65,4.69-4,3-2.79,5.94-5.7,8.72-8.7s5.37-6.15,8-9.25,5.38-6.15,8.08-9.21l.69-.82c.29.43.59.84.88,1.27,4.09,6,7.16,12.72,11.72,18.44q3.33,4.34,7.1,8.38c1.27,1.34,2.6,2.63,4,3.9.71.61,1.41,1.23,2.22,1.81.39.27.77.56,1.19.82a3.72,3.72,0,0,0,1.53.62l.09-.67a5.75,5.75,0,0,1-.69-.93c-.24-.35-.47-.74-.69-1.11-.44-.79-.9-1.56-1.32-2.37l-2.66-4.74c-1.82-3.15-3.7-6.24-5.69-9.29-3.86-6.13-9.11-11.33-13.32-17.22-.51-.69-1-1.39-1.51-2.09,4.12-4.9,8-10,11.89-15.08Q116.11,69.61,119.94,64.81Z"/></svg>