<svg id="Layer_1" data-name="Layer 1" xmlns="http://www.w3.org/2000/svg" width="128" height="128" viewBox="0 0 128 128"><defs><style>.cls-1{fill:#d62525;}</style></defs><title>Cattle boma (active)</title><path d="M38.36,10.36l2.56,1a7.13,7.13,0,0,1-2,3.91A5,5,0,0,1,35.5,16.5a5.09,5.09,0,0,1-4.15-2,9.52,9.52,0,0,1-1.83-6.14A10,10,0,0,1,31.36,2a5.23,5.23,0,0,1,4.3-2,5,5,0,0,1,3.69,1.5,6.5,6.5,0,0,1,1.54,3.17l-2.61.76a3.59,3.59,0,0,0-1-2,2.5,2.5,0,0,0-1.76-.69A2.79,2.79,0,0,0,33.16,4a7.25,7.25,0,0,0-.92,4.16,7.79,7.79,0,0,0,.89,4.29,2.73,2.73,0,0,0,2.32,1.28,2.4,2.4,0,0,0,1.81-.81A5.21,5.21,0,0,0,38.36,10.36Z"/><path d="M55,16.23H52.11L51,12.61H45.73l-1.08,3.62H41.84l5.09-16h2.8ZM50.12,9.92,48.31,4,46.54,9.92Z"/><path d="M58,16.23V3H54.08V.27h10.4V3H60.6V16.23Z"/><path d="M69.14,16.23V3H65.25V.27h10.4V3H71.77V16.23Z"/><path d="M77.43,16.23V.4h2.63V13.53h6.58v2.7Z"/><path d="M88.53,16.23V.27h9.71V3H91.17V6.51h6.57V9.2H91.17v4.33h7.31v2.7Z"/><path d="M36.77,111.77H42a8.13,8.13,0,0,1,3,.39,3.42,3.42,0,0,1,1.47,1.39,4.49,4.49,0,0,1,.09,4.32,3.37,3.37,0,0,1-1.34,1.38,3.59,3.59,0,0,1,1.83,1.41,4.42,4.42,0,0,1,.65,2.44,5.12,5.12,0,0,1-.83,3,3.45,3.45,0,0,1-2,1.48,20.42,20.42,0,0,1-3.69.2H36.77Zm2.64,2.66v3.69h1.74a17.7,17.7,0,0,0,1.94-.06,1.61,1.61,0,0,0,1-.57,2.27,2.27,0,0,0,.07-2.4,1.22,1.22,0,0,0-.75-.55,15,15,0,0,0-2.53-.11Zm0,6.34V125h2.45a7.69,7.69,0,0,0,2.07-.17,1.52,1.52,0,0,0,.77-.66,2.31,2.31,0,0,0,.31-1.26,2.27,2.27,0,0,0-.33-1.28,1.72,1.72,0,0,0-.88-.7,8.77,8.77,0,0,0-2.26-.19Z"/><path d="M49.43,119.85a11.22,11.22,0,0,1,.85-4.7,6.36,6.36,0,0,1,2.2-2.75,5.86,5.86,0,0,1,3.3-.9,5.64,5.64,0,0,1,4.57,2.14,9.37,9.37,0,0,1,1.77,6.11A9.5,9.5,0,0,1,60.25,126a5.47,5.47,0,0,1-4.46,2,5.55,5.55,0,0,1-4.49-2A9.42,9.42,0,0,1,49.43,119.85Zm2.72-.11a6.78,6.78,0,0,0,1.05,4.13,3.13,3.13,0,0,0,5.18,0,7,7,0,0,0,1-4.2,6.8,6.8,0,0,0-1-4.1,3.23,3.23,0,0,0-5.23,0A6.85,6.85,0,0,0,52.15,119.74Z"/><path d="M64.16,127.73v-16h4l2.38,10.9,2.36-10.9h4v16H74.36V115.16l-2.61,12.57H69.21l-2.59-12.57v12.57Z"/><path d="M91.23,127.73H88.36l-1.14-3.62H82l-1.08,3.62H78.09l5.09-16H86Zm-4.86-6.31-1.81-5.93-1.77,5.93Z"/><path id="path12" class="cls-1" d="M58.61,43.22c-.83-.83-1.6-1.6-2.23-2.28a70.57,70.57,0,0,1-4.59-5.37c-.58-.73-1.17-1.47-1.83-2.27a44.92,44.92,0,0,1-3.32-4.64C44.31,24.93,39.56,22,37,22s-8.44,4.22-17.24,12.53C12.12,41.82,7.65,55.66,7.46,56.25V81.57A16.3,16.3,0,0,0,1.07,85a3.62,3.62,0,0,0,0,5.13,3.52,3.52,0,0,0,1.19.8c6.92,2.86,24.9,1.28,30.64.68a67.28,67.28,0,0,0,9.61.85c16.42,0,23.52-10,23.82-10.41l.18-.27v-22a4,4,0,0,0,1.79-2.94C68.3,53,63,47.56,58.61,43.22ZM39,77.24V90.16a154.31,154.31,0,0,1-21-3.68,16.61,16.61,0,0,1-2.23-.92,67,67,0,0,1-6.25-3.88V59.4c4.91,1.78,21.17,7.39,30.18,7.39a25.18,25.18,0,0,0,3.18-.14C39,69.93,39,77.24,39,77.24ZM64.42,81a24.39,24.39,0,0,1-9.37,6.81V75c0-1.57.5-7.66-4.51-9.45,5.18-1,10.44-2.58,13.88-4.48ZM39.69,64.7c-9.06,0-26.53-6.19-30.18-7.53v-.44c.5-1.52,4.85-14.14,11.71-20.64,9.33-8.82,14.27-12,15.8-12,1.7,0,5.84,2.42,7.85,5.64a47.83,47.83,0,0,0,3.48,4.87c.65.78,1.23,1.52,1.81,2.24,1.4,1.76,2.72,3.42,4.7,5.5.64.69,1.42,1.47,2.27,2.32,3.61,3.63,9.08,9.13,9.08,12.07S50.62,64.7,39.69,64.7Z"/><path id="path13" class="cls-1" d="M30.6,33a9.76,9.76,0,0,0,3,.73,28.82,28.82,0,0,0,3.07.34,17.82,17.82,0,0,0,3.1-.06v-.18a21.22,21.22,0,0,1-2.92-.66c-1-.26-1.92-.54-2.86-.85a25.33,25.33,0,0,0-2.75-1,21.65,21.65,0,0,0-3-.53l-.1.21A6,6,0,0,0,30.6,33Z"/><path id="path14" class="cls-1" d="M23.5,41.84a13.55,13.55,0,0,0,3.13,1.47,20.44,20.44,0,0,0,6.73.8A42.54,42.54,0,0,0,40,43.49a47.16,47.16,0,0,0,6.42-1.74l-.05-.17a56.82,56.82,0,0,1-6.49,1,40.3,40.3,0,0,1-6.5.07,44.72,44.72,0,0,1-6.29-1.09l-.78-.17-.75-.22c-.52-.11-1-.32-1.51-.47a15.72,15.72,0,0,1-2.88-1.42l-.13.12A7.75,7.75,0,0,0,23.5,41.84Z"/><path id="path15" class="cls-1" d="M40.79,55.32a56.7,56.7,0,0,1-9.21-.3,81.2,81.2,0,0,1-9-1.74c-1.48-.33-2.93-.77-4.39-1.22A32.58,32.58,0,0,1,14,50.29l-.11.14a15.42,15.42,0,0,0,3.85,2.81A28.43,28.43,0,0,0,22.1,55a37.62,37.62,0,0,0,9.36,1.43,57.84,57.84,0,0,0,9.4-.23,58.57,58.57,0,0,0,9.19-1.81v-.18A62.53,62.53,0,0,1,40.79,55.32Z"/><path id="path16" class="cls-1" d="M78,87.38c.93-.47,1.11-1.33,1.81-1.88A1.89,1.89,0,0,0,80.3,84c.06-1.8-.09-3.73-.12-5.52s-.07-3.65-.08-5.48c0-1,.41-1.94.41-3.06,0,.6-.09,1.19-.14,1.78a11.68,11.68,0,0,0,0,4,19.64,19.64,0,0,1,.5,4.39,10.9,10.9,0,0,1-.42,3.11A4.63,4.63,0,0,1,79.24,85a3.44,3.44,0,0,0-.31,1.7c-.16,2.3,0,5.59-.16,7.86a36.64,36.64,0,0,1-.35,4.32c-.06.37,0,.64.45.58s.39.15.41.39a4.12,4.12,0,0,1,0,.86c-.06.74.12,1,.83,1a7.21,7.21,0,0,1,1.47.06c.23,0,.51.08.65-.17a.59.59,0,0,0-.19-.72,4.31,4.31,0,0,1-1.27-2.65A27.4,27.4,0,0,1,81,92.84a3.19,3.19,0,0,1,.85-1.72,11.4,11.4,0,0,1,.74,3.79c.07,1.15.1,2.69.16,3.84,0,.32,0,.71.49.33.14-.12.26-.07.3.13v.18c.36,1.37.36,1.37,1.76,1.5.47,0,1.1.19,1.35-.21s-.33-.77-.49-1.18a.63.63,0,0,0-.13-.2A10.79,10.79,0,0,1,84.16,94a6.63,6.63,0,0,1,.48-4c1-2,1.65-5.65,2.53-7.71a1,1,0,0,1,1.23-.7,1.07,1.07,0,0,1,.38.2c1.56,1,.78,1.91,2.76,2.19,1.56.22,2-.34,3.51-.45,1.16-.08,5.6.74,6.72.38a4.2,4.2,0,0,1,2.77.29c.27.09.28.3.28.53v7.08a2.26,2.26,0,0,0,.28,1.3.76.76,0,0,1,.12.53,13.86,13.86,0,0,1-.9,5.37,2,2,0,0,0-.13.53c0,.53.13.72.62.54s.67.08.68.54a6.17,6.17,0,0,1,0,.86.66.66,0,0,0,.45.82.71.71,0,0,0,.25,0h1.59c.53,0,.78-.2.52-.84-.06-.15-.3-.3-.11-.48s.34-.06.51,0a2.78,2.78,0,0,0,1.4.12c.38,0,.46-.23.4-.57a2,2,0,0,0-.83-1.49,1.83,1.83,0,0,1-.72-1.4,17.91,17.91,0,0,1-.16-3.19,32.81,32.81,0,0,1,.53-3.44c.11-1,.34-3.37.49-4.32a.4.4,0,0,1,.44-.46,3.41,3.41,0,0,0,2.59-1.15,8.21,8.21,0,0,0,2.49-4.32,3.88,3.88,0,0,1,.83-1.94c.62-.76,1.24-1.51,1.88-2.24,1.39-1.83,3.84.59,4.13.86a1.35,1.35,0,0,0,1.89.19,1.12,1.12,0,0,0,.27-.3.9.9,0,0,1,.19-.15c.25-.16.7-.1.73-.51a2.2,2.2,0,0,0-.36-1.89A7.9,7.9,0,0,1,123.57,70c0-.41-.36-1-.07-1.27.64-.57,1.55-.87,1.9-1.68.16-.38.43-.79.1-1.12a1.48,1.48,0,0,0-1.33-.41c-.75.14-.65.33-1,1-.14.24-.22,0-.23-.13s.16-.21.29-.26c.42-.17.86-.3,1.26-.51A4.18,4.18,0,0,0,126,64.27a15,15,0,0,0,.92-2.33c.21-.43.72-.69,1.11-1.13a1.84,1.84,0,0,0-1.27.52c-1,1.16-.85,2-1.8,2.72a2.5,2.5,0,0,1-3,.23,3.93,3.93,0,0,0-3.63.3c-1.54,1-2.81-1.39-2.93-2.64-.08-.82.74-1.64.61-2.46a6.34,6.34,0,0,0-.78-2.14c0,.06-.08.09-.08.11.67,3.06-1,3.78-1,5a4.28,4.28,0,0,0,1.82,3.47,1.22,1.22,0,0,0-1.11.72c-.12.3-.42.17-.63.15A7.75,7.75,0,0,0,109.08,68c-2.08.14-4.28-.62-6.33-.13a6.5,6.5,0,0,1-1.65.15c-3.67-.14-7.51-1.45-11.11-2.26-2.45-.55-4.68-.1-7.15,0a3.3,3.3,0,0,0-2.4,1.9,8.61,8.61,0,0,0-.82,3.53,79.48,79.48,0,0,0,0,9c0,1.09.17,2.16-.73,2.9a2.27,2.27,0,0,0-.75,1.69C78.06,85.66,78.05,86.44,78,87.38Zm29.14,7.25a12,12,0,0,1,0,3.28A12.86,12.86,0,0,1,107.1,94.63Z"/></svg>