<svg id="Layer_1" data-name="Layer 1" xmlns="http://www.w3.org/2000/svg" width="128" height="128" viewBox="0 0 128 128"><title>Artboard 20</title><path d="M37.8,10.36l2.56,1a7.19,7.19,0,0,1-2,3.91,5,5,0,0,1-3.43,1.24,5.09,5.09,0,0,1-4.15-2A9.52,9.52,0,0,1,29,8.39,10,10,0,0,1,30.8,2a5.25,5.25,0,0,1,4.31-2,5,5,0,0,1,3.68,1.5,6.59,6.59,0,0,1,1.55,3.17l-2.62.76a3.58,3.58,0,0,0-1-2A2.52,2.52,0,0,0,35,2.75,2.79,2.79,0,0,0,32.6,4a7.25,7.25,0,0,0-.92,4.16,7.69,7.69,0,0,0,.9,4.29,2.7,2.7,0,0,0,2.31,1.28,2.4,2.4,0,0,0,1.81-.81A5.17,5.17,0,0,0,37.8,10.36Z"/><path d="M54.64,16.23H51.78l-1.15-3.62H45.4l-1.09,3.62h-2.8L46.6.27h2.8ZM49.78,9.92,48,4,46.2,9.92Z"/><path d="M57.86,16.23V3H54V.27h10.4V3H60.49V16.23Z"/><path d="M69.25,16.23V3H65.36V.27h10.4V3H71.88V16.23Z"/><path d="M77.76,16.23V.4H80.4V13.53H87v2.7Z"/><path d="M89.09,16.23V.27H98.8V3H91.72V6.51H98.3V9.2H91.72v4.33H99v2.7Z"/><path d="M35,127.73V114.47H31.09v-2.7H41.48v2.7H37.61v13.26Z"/><path d="M43.43,127.73v-16H49a7.9,7.9,0,0,1,3,.43,3.42,3.42,0,0,1,1.5,1.49,5.21,5.21,0,0,1,.59,2.54,4.74,4.74,0,0,1-.9,3,4,4,0,0,1-2.55,1.44,6.61,6.61,0,0,1,1.4,1.33,17.91,17.91,0,0,1,1.51,2.6l1.59,3.11H52l-1.91-3.47a25,25,0,0,0-1.4-2.36,2,2,0,0,0-.79-.65,3.5,3.5,0,0,0-1.32-.18h-.55v6.66Zm2.63-9.21h2a9.53,9.53,0,0,0,2.29-.16,1.42,1.42,0,0,0,.79-.63,2.4,2.4,0,0,0,.31-1.28,2.2,2.2,0,0,0-.31-1.22,1.56,1.56,0,0,0-.83-.64,10.35,10.35,0,0,0-2.14-.12H46.06Z"/><path d="M68.64,127.73H65.78l-1.15-3.62H59.39l-1.08,3.62H55.5l5.1-16h2.8Zm-4.86-6.31L62,115.49l-1.77,5.93Z"/><path d="M70.17,127.73v-16H72.8v16Z"/><path d="M75.63,127.73V111.9h2.63V125h6.58v2.7Z"/><path d="M86.28,122.53l2.58-.31q.44,3.06,2.85,3.06a2.67,2.67,0,0,0,1.88-.63,2,2,0,0,0,.69-1.55,1.68,1.68,0,0,0-.24-.92,1.82,1.82,0,0,0-.73-.63,22.73,22.73,0,0,0-2.38-.82,8.13,8.13,0,0,1-2.47-1.11,4.23,4.23,0,0,1-1.24-1.57,4.78,4.78,0,0,1-.47-2.09,4.64,4.64,0,0,1,.6-2.35A3.84,3.84,0,0,1,89,112a5.67,5.67,0,0,1,2.58-.53,4.53,4.53,0,0,1,5,4.83l-2.65.14a2.79,2.79,0,0,0-.75-1.79,2.39,2.39,0,0,0-1.64-.51,2.6,2.6,0,0,0-1.64.44,1.35,1.35,0,0,0-.58,1.11,1.39,1.39,0,0,0,.52,1.09,7.3,7.3,0,0,0,2.41,1A9.83,9.83,0,0,1,95.09,119a4.08,4.08,0,0,1,1.35,1.64,5.77,5.77,0,0,1,.47,2.44,5.05,5.05,0,0,1-1.28,3.5,5.13,5.13,0,0,1-4,1.41Q86.82,128,86.28,122.53Z"/><path d="M128,36.44V28.59s-26.19-.08-26.88,0l-.88.07-.78.43C94.24,32,70.78,45.19,61.47,51.8a119.64,119.64,0,0,0-12.38-9.47c-10.24-7-11.17-6.72-13.37-7.14a10.18,10.18,0,0,0-2-.16c-2,0-6,0-12.61-.11a13.09,13.09,0,0,0-4.36.64,9.32,9.32,0,0,1-3,.5,6.52,6.52,0,0,0-.76,0,6.69,6.69,0,0,0-3.25,1.28,14.21,14.21,0,0,0-3.59-1.54L0,34.16v8.29l4.06,1.1a6.72,6.72,0,0,1,2.44,1.3,4.41,4.41,0,0,0,1.1,1.26A20.77,20.77,0,0,0,10.67,48c2.87,1.51,5.82,3.07,8.46,10.52l.35,1,.12,2.12-.87.17C8.19,62.89,6.61,63.77,3.14,65A23.47,23.47,0,0,1,0,65.53v8.6s6.68-.95,7.74-1.69c1.64-.54,6.92-1.71,11.61-2.65l9.48,2.6c-5.7,3-12.87,6.93-17.24,9.53L0,88.78v8.66H0v2s17.38-10.88,22.79-14.1l1.31-.77a25.47,25.47,0,0,1,4.62,2.58c3,2.61,5.21,6.52,9.75,8.35a16.46,16.46,0,0,0,6.16,1.17,18.19,18.19,0,0,0,1.95-.1l2-.23c11.77-1.31,25.1-2.79,33-10.14h0L83,84.59c.31.23.6.47.91.71,6.17,4.81,10.11,7.79,12.88,8.54l.42.11.44,0c.52,0,1.24,0,2.12,0,2.72,0,7-.1,11.74-.21,5.13-.12,16.52-.27,16.52-.27v-8h-2c-4.25,0-9.59.14-14.75.26-5.38.12-10.29-.41-12.54-.45-1.76-.8-6.52-5.53-9.42-7.94,1.75-1.81,3.59-3.6,5.29-5.25,2.08-2,3.94-3.83,5.36-5.39,4.27-.35,8.86-.45,12-.5l1,.38c1,.37,15,3.28,15,3.28V61.49s-8.48-1.06-11.2-2c-2-2.55-7.8-9.29-13.85-12.19-3.94-1.89-8.81-2.7-14.06-3,4.82-2.8,9.62-5.54,13.7-7.83C105.65,36.28,128,36.44,128,36.44ZM18.65,43.54A11.73,11.73,0,0,1,21,42.91c4.46.1,7.7.15,10.08.16a15.83,15.83,0,0,1,8.53,2.54,158.19,158.19,0,0,1,15.22,11C47.68,61.07,40.53,64.5,38,64.5H38a51.53,51.53,0,0,0-9-7.77c-1-.69-1.85-1.32-2.61-1.93l0,0C24,48.8,21.22,45.56,18.65,43.54ZM76,80.49l0,0c-6,5.42-16.39,6.88-26.81,8h0L46,88.62h0a10.84,10.84,0,0,1-5.15-2.74c-3.11-2.35-5-2.6-7.65-4.91a7,7,0,0,0-1.34-.9c7.2-4.17,14.7-8.45,14.82-8.52a1.63,1.63,0,0,0,.45-.35c1-.46,2.1-1,3.26-1.63,2.68-1.45,6.79-5,8.81-6.32a.11.11,0,0,1,.16,0c4,6.57,12.23,12.84,17.41,16.35Zm23.48-26a24.73,24.73,0,0,1,5.66,4.14c-2.28,0-4.85.09-7.31.23A4,4,0,0,0,95,60.37h0c-1.19,1.46-3.48,3.69-5.91,6.05-2.27,2.21-4.76,4.64-7.07,7.11-6.41-4.27-13.92-10.48-16.23-15,2.12-1.54,5.65-3.78,9.85-6.35C84.68,52,94,51.9,99.49,54.53Z"/></svg>