<svg id="Layer_1" data-name="Layer 1" xmlns="http://www.w3.org/2000/svg" width="128" height="128" viewBox="0 0 128 128"><defs><style>.cls-1{fill:#61ce63;}</style></defs><title>Charcoal burning (old)</title><path class="cls-1" d="M32.07,72.77A29,29,0,0,1,32,66c1.07-7.55,3.67-10.52,4.3-13.37,1.18-5.39-1.66-11.15-5-15a9.12,9.12,0,0,1-1.52,6.17c-1.34,1.89-7.07,4.52-7.41,13.45S32.07,72.77,32.07,72.77Z"/><path class="cls-1" d="M104.89,63.78c1.76,3.13,2,9.38.7,12.73,4-3.91,8.37-7.92,8.37-14s-6.36-13.17-10.61-16.74-5.42-9.71-2.59-17.75c0,0-11.79,6.81-11.79,16.64S103.11,60.66,104.89,63.78Z"/><path class="cls-1" d="M51,58.31s-2.23-6.65.93-11.3c3.86,2.44,7.49,5.28,10.3,5.28,7.81,0,8.31-12.94,8.31-12.94s7.73,10.87,6.56,17.85c2.46-1.73,9.84-10.86,9.84-15a20.36,20.36,0,0,0-5.47-13.07c-3.52-3.66-10.54-11.09-11.72-15S69.21,4,70.84,0C61.13,5.7,57.26,12.64,57.26,17.41s3.28,10,4.57,13-.19,7.12-1.52,9.14c-2-1.39-3.75-1.39-4.57-8.15s-8.53-10.64-8.53-10.64a21.62,21.62,0,0,1,.69,6c-.12,3.12-6.79,3.21-6.79,14.63S50.48,58,51,58.31Z"/><polygon class="cls-1" points="51.13 75.54 23.04 78.34 14 87.97 22.29 100 52.4 100 62.28 87.97 51.13 75.54"/><path class="cls-1" d="M90.23,74.31,67.1,87.16l-4.8,5.46,6,7.38h36.28L114,87.77s-7-5.55-11.17-8.22S90.23,74.31,90.23,74.31Z"/><path class="cls-1" d="M42.23,69.68c4.4.78,12.36,2.45,12.36,2.45L65.15,84,89,70.59S72.16,59.5,67.5,58.16C62.28,59.23,50.42,62.12,42.23,69.68Z"/><path d="M21.28,121.86l2.56,1a7.13,7.13,0,0,1-2,3.91A5,5,0,0,1,18.42,128a5.09,5.09,0,0,1-4.15-2,9.52,9.52,0,0,1-1.83-6.14,10,10,0,0,1,1.84-6.39,5.25,5.25,0,0,1,4.31-2,5,5,0,0,1,3.68,1.5,6.59,6.59,0,0,1,1.55,3.17l-2.62.76a3.58,3.58,0,0,0-1-2,2.52,2.52,0,0,0-1.76-.69,2.79,2.79,0,0,0-2.37,1.27,7.25,7.25,0,0,0-.92,4.16,7.69,7.69,0,0,0,.9,4.29,2.7,2.7,0,0,0,2.31,1.28,2.4,2.4,0,0,0,1.81-.81A5.12,5.12,0,0,0,21.28,121.86Z"/><path d="M26.1,127.73v-16h2.64v6.28h5.19v-6.28h2.63v16H33.93v-7H28.74v7Z"/><path d="M51.09,127.73H48.23l-1.15-3.62H41.84l-1.08,3.62H38l5.1-16h2.8Zm-4.86-6.31-1.81-5.93-1.77,5.93Z"/><path d="M52.48,127.73v-16h5.57a7.84,7.84,0,0,1,3,.43,3.49,3.49,0,0,1,1.51,1.49,5.21,5.21,0,0,1,.58,2.54,4.74,4.74,0,0,1-.9,3,4,4,0,0,1-2.55,1.44A6.44,6.44,0,0,1,61.14,122a18.91,18.91,0,0,1,1.51,2.6l1.59,3.11H61.09l-1.92-3.47a21.09,21.09,0,0,0-1.4-2.36,1.94,1.94,0,0,0-.78-.65,3.57,3.57,0,0,0-1.33-.18h-.54v6.66Zm2.64-9.21h2a9.37,9.37,0,0,0,2.28-.16,1.49,1.49,0,0,0,.8-.63,2.4,2.4,0,0,0,.3-1.28,2.2,2.2,0,0,0-.3-1.22,1.6,1.6,0,0,0-.83-.64,10.42,10.42,0,0,0-2.14-.12H55.12Z"/><path d="M74.05,121.86l2.55,1a7.13,7.13,0,0,1-2,3.91A5,5,0,0,1,71.18,128,5.08,5.08,0,0,1,67,126a9.52,9.52,0,0,1-1.83-6.14,10,10,0,0,1,1.84-6.39,5.23,5.23,0,0,1,4.3-2A5,5,0,0,1,75,113a6.42,6.42,0,0,1,1.55,3.17l-2.61.76a3.59,3.59,0,0,0-1-2,2.5,2.5,0,0,0-1.76-.69,2.79,2.79,0,0,0-2.37,1.27,7.26,7.26,0,0,0-.91,4.16,7.79,7.79,0,0,0,.89,4.29,2.73,2.73,0,0,0,2.32,1.28,2.4,2.4,0,0,0,1.81-.81A5.3,5.3,0,0,0,74.05,121.86Z"/><path d="M78.32,119.85a11.39,11.39,0,0,1,.84-4.7,6.45,6.45,0,0,1,2.21-2.75,5.86,5.86,0,0,1,3.3-.9,5.64,5.64,0,0,1,4.57,2.14A9.37,9.37,0,0,1,91,119.75,9.5,9.5,0,0,1,89.14,126a5.46,5.46,0,0,1-4.46,2,5.53,5.53,0,0,1-4.48-2A9.37,9.37,0,0,1,78.32,119.85Zm2.72-.11a6.78,6.78,0,0,0,1,4.13,3.13,3.13,0,0,0,5.18,0,7,7,0,0,0,1-4.2,6.88,6.88,0,0,0-1-4.1,3.24,3.24,0,0,0-5.24,0A6.85,6.85,0,0,0,81,119.74Z"/><path d="M104.89,127.73H102l-1.15-3.62H95.64l-1.08,3.62H91.75l5.1-16h2.79ZM100,121.42l-1.81-5.93-1.77,5.93Z"/><path d="M106.35,127.73V111.9H109V125h6.58v2.7Z"/></svg>