<svg id="Layer_1" data-name="Layer 1" xmlns="http://www.w3.org/2000/svg" width="128" height="128" viewBox="0 0 128 128"><defs><style>.cls-1{fill:#d62525;}</style></defs><title>Artboard 22</title><path class="cls-1" d="M23.14,93.15A37.31,37.31,0,0,1,23,84.47C24.37,74.8,27.7,71,28.51,67.35c1.51-6.89-2.13-14.27-6.45-19.17a11.7,11.7,0,0,1-1.94,7.9c-1.72,2.42-9.06,5.78-9.49,17.21S23.14,93.15,23.14,93.15Z"/><path class="cls-1" d="M116.38,81.64c2.26,4,2.56,12,.9,16.29,5.13-5,10.72-10.14,10.72-17.86s-8.15-16.86-13.59-21.43-6.94-12.43-3.32-22.72c0,0-15.09,8.72-15.09,21.29S114.11,77.64,116.38,81.64Z"/><path class="cls-1" d="M47.31,74.64s-2.85-8.51,1.2-14.47c4.94,3.12,9.59,6.76,13.19,6.76,10,0,10.64-16.56,10.64-16.56s9.9,13.91,8.4,22.85C83.89,71,93.33,59.31,93.33,54.06a26,26,0,0,0-7-16.74c-4.5-4.68-13.5-14.19-15-19.16S70.7,5.11,72.79,0C60.35,7.3,55.4,16.18,55.4,22.28s4.2,12.77,5.85,16.6S61,48,59.3,50.59c-2.55-1.78-4.8-1.78-5.85-10.43S42.53,26.54,42.53,26.54a28.18,28.18,0,0,1,.88,7.66c-.15,4-8.69,4.11-8.69,18.73S46.71,74.21,47.31,74.64Z"/><polygon class="cls-1" points="47.54 96.69 11.57 100.28 0 112.6 10.62 128 49.17 128 61.82 112.6 47.54 96.69"/><path class="cls-1" d="M97.61,95.12,68,111.56l-6.15,7L69.6,128h46.45l12-15.66s-9-7.1-14.3-10.52S97.61,95.12,97.61,95.12Z"/><path class="cls-1" d="M36.15,89.19c5.63,1,15.83,3.14,15.83,3.14L65.5,107.47,96,90.36S74.48,76.16,68.51,74.44C61.82,75.81,46.64,79.52,36.15,89.19Z"/></svg>