<svg id="Layer_1" data-name="Layer 1" xmlns="http://www.w3.org/2000/svg" width="128" height="128" viewBox="0 0 128 128"><title>Artboard 24</title><path d="M61.44,94.22a3.9,3.9,0,0,0-2.06-2.94c-.13,0-.29-.07-.43-.11s-.3,0-.45,0H55.3l-.08-.06a18.91,18.91,0,0,1-3.07-2.4,8.12,8.12,0,0,1-2.21-3.28,4.52,4.52,0,0,1-.17-1,4.77,4.77,0,0,1,.12-1,18.3,18.3,0,0,1,.58-1.86c.46-1.21,1-2.37,1.53-3.52s1.1-2.29,1.62-3.45c.24-.58.5-1.16.7-1.75a5,5,0,0,0,.34-1.82l.24-7.63c-1.23-.16-3.19-.44-4.88-.69l-1.8-.25h0l-1.46-.21c-.83,1.47-1.67,3-2.55,4.45a.77.77,0,0,1,.25.33,1,1,0,0,1-.29,1,1.24,1.24,0,0,1-.8.09l-.37.62c.41,1.29.84,2.78,1.12,4.07a35.18,35.18,0,0,1,.69,4.19,8,8,0,0,1,0,2.18c-.14.67-.25,1.37-.36,2.06s-.22,1.4-.39,2.1a6.83,6.83,0,0,1-.64,1.84c.84.77,1.73,1.52,2.62,2.26l2.84,2.34,5.64,4.57,4,.06h2.05l.94,0Zm-17.1-25a.71.71,0,0,1,.43-.54c.56-.17,1.91.36,1.82.72s-.38.5-.49.64C45.25,70.18,44.39,69.74,44.34,69.22Zm3.28,7.33a2.6,2.6,0,0,1-1,0A1.6,1.6,0,0,1,47,74.32a1,1,0,0,1,.88,0C48.32,74.76,48.11,76.38,47.62,76.55Zm5.63-9.47c-.14,1.56-.3,1.65-2,1C51.92,67.51,52.45,67,53.25,67.08Zm-2,5.75c1.14,1.06.85,2.27.35,3.51-.12.32-.34.49-.64.41s-.41-.27-.4-.41C50.64,75.15,49.66,73.76,51.27,72.83Zm-2.94-5.55c0-.22.24-.47.32-.61.9-.11,1.57.26,1.55.76,0,.16-.34.44-.57.49C49,68,48.42,67.89,48.33,67.28Zm1.23,2.63a2.27,2.27,0,0,1,.93-.12,1.32,1.32,0,0,1-.41,2,1,1,0,0,1-.87-.2A1,1,0,0,1,49.56,69.91Z"/><path d="M103.47,90.13a.24.24,0,0,0,0,.12s0,0,0,0a0,0,0,0,1,0,0A.84.84,0,0,1,103.47,90.13Z"/><path d="M104.16,90a.42.42,0,0,1,0,.15.11.11,0,0,0,0-.06A.15.15,0,0,0,104.16,90Z"/><path d="M21.08,69c0,.08-.09.16-.14.24a2.2,2.2,0,0,1-.31.3,1.43,1.43,0,0,1-.91.4.89.89,0,0,1-.81-.36c-.24-.31,0-1,.05-1.56l.35,0c-.24-.3-.47-.61-.59-.75l-.49,0h0a.93.93,0,0,1-.73.27,3,3,0,0,1-1.17-.15c0,.89.09,1,1,1.93a2.82,2.82,0,0,1,.51.79c.17.32.32.65.47,1a3.18,3.18,0,0,1,.16.32l.32-.2a20.38,20.38,0,0,0,2.44-1.75A1.77,1.77,0,0,0,21.08,69ZM126.84,49c-.21-.35-.41-.71-.59-1.08a11,11,0,0,1-.44-1.16,7,7,0,0,1-.38-2.48,2.57,2.57,0,0,0,0-1.06,6,6,0,0,0-.36-1,6.69,6.69,0,0,0-1.24-1.84,3,3,0,0,0-.41-.32l-.22-.11-.28-.09-1.12-.39c-1.47-.49-2.65-.92-4.12-1.48a7.89,7.89,0,0,1,.49.65l.06.08v.06l-.1,1.2c.15.31,0,.52.14.84-.22-.29-.43-.59-.64-.88v-.06l-.1-1.13a6.17,6.17,0,0,0-2.77-1.95,1.2,1.2,0,0,0-1.27.38,3,3,0,0,0-.52,1.5,7.32,7.32,0,0,0,.43,3.48A5.57,5.57,0,0,1,113,45.9a6.38,6.38,0,0,0-.14-3.56c0-.13-.11-.24-.18-.4a3.08,3.08,0,0,1-.19-.47,6.29,6.29,0,0,1-.24-.95,7.47,7.47,0,0,1-.07-2,4.29,4.29,0,0,1,.21-1,7.33,7.33,0,0,1-2.6-.51c-.87-.28-1.73-.61-2.61-.84a6.92,6.92,0,0,0-2.67-.24c-.91.09-1.81.25-2.74.34a5.57,5.57,0,0,1-1.86-.07A3.86,3.86,0,0,1,99,35.9l-.43-.2s0,0,0,0c-.68-.29-1.37-.57-2.07-.83a16.72,16.72,0,0,0-5.25-1.15,6.9,6.9,0,0,0-4.74,2c-.7.57-1.37,1.21-2.12,1.78A6.3,6.3,0,0,1,81.7,38.7c-1.88.27-3.69.36-5.53.47s-3.68.18-5.52.23-3.68.05-5.52,0-3.7-.28-5.51-.48-3.66-.42-5.48-.67c-.91-.12-1.81-.25-2.73-.41a15.07,15.07,0,0,0-2.68-.3,49.78,49.78,0,0,0-5.46.15,33.71,33.71,0,0,0-5.4.84,13.38,13.38,0,0,0-2.57.86A14.26,14.26,0,0,0,33,40.86c-.75.53-1.49,1.08-2.21,1.64-.35.29-1.54,1.55-1.54,1.55s-.59.74-.77,1c-.44.79-.88,1.68-1.24,2.35S26.4,49,26,49.79a4,4,0,0,0-.24.46c-.24.48-.48,1-.71,1.44-.31.65-.61,1.3-.9,2,.62.15,1.49.1,1.49,1,0,.48-.56.52-1.07.51a3.21,3.21,0,0,1-1-.24c-.15.38-.29.77-.44,1.16l.65,0a1.47,1.47,0,0,1,1.63,1c-.06.71-.56.92-1.17.93a1.63,1.63,0,0,1-1.53-.67,28.49,28.49,0,0,1-1.26,2.82c.49.46,1,.89.53,1.5s-.91.42-1.37.07c-.08.16-.17.32-.26.48a1,1,0,0,1-.11.17,2.89,2.89,0,0,1,.75.63,4.6,4.6,0,0,1,.42,1.25A5.4,5.4,0,0,1,20,64.5c-.28,0-.55-.35-.78-.51l-.34.64-.1,0a3.55,3.55,0,0,1-.23.31.18.18,0,0,1-.05.07.65.65,0,0,1,.09.3,2.61,2.61,0,0,1,1.89,2.85l.58.2a1,1,0,0,1,.61-.26,2.73,2.73,0,0,1,.67.3,13.22,13.22,0,0,0,1.15-1.5,38.12,38.12,0,0,0,3-5.71c.45-1,.86-2,1.25-3a28.09,28.09,0,0,0,1-3.1,38.74,38.74,0,0,1-2.06,6.19,39.46,39.46,0,0,1-2.91,5.86,11.55,11.55,0,0,1-1.16,1.57,4.44,4.44,0,0,1,.84,1.12c.05.08-.62,1-1.25.86a1.06,1.06,0,0,1-.86-.73,24.31,24.31,0,0,1-2.32,1.71c-.56.36-1.14.7-1.73,1-.4,1.65-.94,3.27-1.44,4.9L14.26,82.8c-.56,1.76-1.12,3.51-1.63,5.28-.13.44-.26.88-.36,1.32a2.85,2.85,0,0,0-.12,1.25,4.57,4.57,0,0,0,1,2.15l5.86,0a3,3,0,0,0-.59-1.72,3.1,3.1,0,0,0-.8-.73,2,2,0,0,0-.95-.32h-.43l0-.39a3.78,3.78,0,0,1,.12-.77l.15-.68c.11-.46.23-.91.35-1.37a20.7,20.7,0,0,1,.92-2.68c.41-.87.88-1.67,1.36-2.48s1-1.58,1.48-2.36l.06-.08.07,0a27.54,27.54,0,0,1,3.7-1.72c.63-.25,1.28-.46,1.88-.7s1.22-.51,1.83-.79c2.42-1.12,4.83-2.29,7.21-3.51q1.8-.9,3.54-1.86a5,5,0,0,0,1.55-1.16,14.33,14.33,0,0,0,1.2-1.56c.25-.37.54-.82.86-1.31a0,0,0,0,1,0,0l0,0c1.48-2.32,3.42-5.55,3.47-5.62.33-.71.7-1.38,1-2.09.34-.86.67-1.71,1-2.59A43.25,43.25,0,0,1,50.19,51a26.63,26.63,0,0,1-1.38,5.44c-.27.71-.6,3.08-1.05,4.27v0a0,0,0,0,1,0,0h0v0a1.57,1.57,0,0,1-.31.53l.5.08a13.49,13.49,0,0,0,2.12.24h.29c1.45,0,2.9.06,4.35.19a12,12,0,0,1,4.32,1,13.65,13.65,0,0,0,4,1.28,59.49,59.49,0,0,0,6.93.94c.38,0,.76.07,1.14.09.15,0,.3,0,.45,0,1.43.08,2.87.15,4.3.11a28.47,28.47,0,0,0,3.92-.26h0a1.84,1.84,0,0,0-.55-.68l-.09-.07,0-.12a11.91,11.91,0,0,1,2.27-3.9.39.39,0,0,1,.08-.1,3.11,3.11,0,0,0,.65-.82,4.85,4.85,0,0,0,.26-.51c.07-.15.14-.3.2-.45a.94.94,0,0,1,.06-.15,1,1,0,0,0,0-.13h0c.18-.48.33-1,.47-1.46-.69.1-1.35.26-1.44.1-.69-1.22.93-1,1-1.44l.71.18c.3-1.18.56-2.4.78-3.61v0a.22.22,0,0,0,0-.08,31,31,0,0,0,.55-4.42A17.64,17.64,0,0,1,84.88,52c0,.25-.06.5-.1.75a1.88,1.88,0,0,1,2.31.09l-2.43.79c-.11.77-.25,1.53-.43,2.29a5.22,5.22,0,0,1,.34.62c-.19.07-.37.17-.56.23-.17.61-.36,1.23-.59,1.83a.84.84,0,0,0-.06.14,6.11,6.11,0,0,1-.55,1.08,3.15,3.15,0,0,1-.68.81l-.12.11a15.56,15.56,0,0,0-2.54,3.53,2.11,2.11,0,0,1,.42.76,1.38,1.38,0,0,1-.13.87,2.42,2.42,0,0,1-.12.35h0c-.11.35-.23.7-.35,1.06-.66,1.89-1.41,3.86-2,5.69-.39,1.19-.79,2.39-1.22,3.57q-.31.89-.69,1.77a5.4,5.4,0,0,1-.46.86,8.76,8.76,0,0,0-.41.81,15.31,15.31,0,0,1-.85,1.73,1.56,1.56,0,0,1-.37.41,2.63,2.63,0,0,1-.26.16.44.44,0,0,0-.13.09,3.53,3.53,0,0,0-.5.68c-.31.52-.59,1.08-.9,1.64a9,9,0,0,1-.48.84c-.09.13-.19.27-.3.4a3.14,3.14,0,0,0-.24.35A7.05,7.05,0,0,0,69.87,88a2.57,2.57,0,0,1-.45,1,.89.89,0,0,1-.29.22l-.08,0h0s0,0,0,0a1,1,0,0,0-.16.28,6.73,6.73,0,0,0-.29,1.73c0,.3,0,.61,0,.9a4.44,4.44,0,0,0,.08.56l7.26,0a4.47,4.47,0,0,0-.16-.63,2.87,2.87,0,0,0-.52-.9,2.11,2.11,0,0,0-.82-.59,3.38,3.38,0,0,0-1-.23,1.56,1.56,0,0,1-.79-.16,1,1,0,0,1-.49-.89,1.67,1.67,0,0,1,.9-1.3,20.31,20.31,0,0,0,1.79-1.57c.6-.57,1.19-1.14,1.84-1.69A3.47,3.47,0,0,1,77.82,84a2.27,2.27,0,0,0,.76-.65,10.67,10.67,0,0,0,1.27-2c.17-.35.34-.76.55-1.14s.42-.73.64-1.07a22.18,22.18,0,0,1,3.09-4,2.65,2.65,0,0,1,.56-.42,4.13,4.13,0,0,0,.46-.31c.3-.26.59-.55.87-.83.56-.6,1.1-1.22,1.64-1.84s1.07-1.25,1.68-1.84,1.22-1.12,1.85-1.67l.72-.63c.77-.65,1.53-1.29,2.35-1.87.27-.2.55-.39.83-.57a19.26,19.26,0,0,0,4.08-2.76C98,63.59,97,65.35,95.5,66.12c-.28.2-.57.43-.88.68s-.82.72-1.23,1.12c-.75.72-1.49,1.48-2.11,2a5.73,5.73,0,0,0,.1,2.61,5.38,5.38,0,0,0,.8,1.74c.35.56.71,1.11,1.09,1.64.76,1.06,1.56,2.1,2.41,3.1a34.43,34.43,0,0,0,2.74,2.8c.94.91,1.9,1.82,2.78,2.84a4.43,4.43,0,0,1,1.09,1.82c.07.7.07,1.33.13,2,0,.16,0,.33,0,.48a2.27,2.27,0,0,0,.06.25h0l.24.07.49.13c.16.06.33.11.51.19a.85.85,0,0,1,.15.09.54.54,0,0,1,.22.22v0l.07.06c.21.2.49.39.74.59,1.06.76,2.14,1.51,3.23,2.24l0,0,0,0,1,1,7.65,0c-.3-1.64-1.13-3.37-2.7-3.78a11.56,11.56,0,0,0-2.79-.11c-.23,0-.49,0-.67.06h0s0,0,0,0a.36.36,0,0,1-.24.1.45.45,0,0,1-.16,0l-.18,0-.11,0a.75.75,0,0,1-.2-.09,8.61,8.61,0,0,1-1.33-.78,9.11,9.11,0,0,1-1.17-1,5.26,5.26,0,0,1-.51-.62,5,5,0,0,1-.34-.72l-.6-1.36-.57-1.33-.38-.87-2-4.52v0h0v0l-.28-.65-.28-.66a8.86,8.86,0,0,1-.5-1.42,1.74,1.74,0,0,0-.05-.22h0c-.06-.28-.12-.52-.17-.8v-.07a16.4,16.4,0,0,1-.23-1.85,7.13,7.13,0,0,1,0-1.53,1.46,1.46,0,0,1,.05-.2,2.45,2.45,0,0,1,.08-.39h0c.06-.29.14-.57.2-.85l.77-2.84a40.39,40.39,0,0,0,1.35-5.68c.18-1.6.28-3.39.34-5.07,0-.22,0-.44,0-.65h0a1.27,1.27,0,0,0,0-.2,13.52,13.52,0,0,0-1.26.53,17.7,17.7,0,0,1,5.47-2.29c1-.28,1.91-.49,2.86-.73a26.84,26.84,0,0,1,3-.54,13.48,13.48,0,0,1,3,0,2.64,2.64,0,0,1,.83.26,3.68,3.68,0,0,1,.65.51c.38.35.71.72,1,1.08s.66.72,1,1c.09.07.18.15.26.2l.08,0h.15c.23,0,.47,0,.72,0,.48,0,1-.06,1.47-.07.2.06.32-.2.44-.39s.15-.33.22-.5a5.07,5.07,0,0,1-1-.08,2.87,2.87,0,0,1-1.78-1.07,3,3,0,0,0,1.82.82,4.83,4.83,0,0,0,1,0,3.56,3.56,0,0,0,.89-.19c1-1.13,1.89-2.28,2.87-3.39C127.59,50.19,127.2,49.61,126.84,49ZM23.48,64.43c-.21,0-.43-.35-.5-.58s.15-.53.46-.54.24.37.37.54C23.71,64.09,23.93,64.5,23.48,64.43ZM19.24,79.28a2.35,2.35,0,0,1-.82-.65,1.75,1.75,0,0,1,1.39-1.92.94.94,0,0,1,.69.56C20.65,77.94,19.71,79.41,19.24,79.28Zm4.83-3.07a1.77,1.77,0,0,1-1.08.91,1.56,1.56,0,0,1-1.34-.46,1.48,1.48,0,0,1,.21-1.34,1.57,1.57,0,0,1,2-.3C24,75.43,24.21,75.91,24.07,76.21Zm55.21,1.06a.91.91,0,0,1-.86-.21,1,1,0,0,1,.35-1.63,1.92,1.92,0,0,1,.92-.11A1.3,1.3,0,0,1,79.28,77.27Zm1.37-4.63a1.72,1.72,0,0,1-1.3.36c-.28-.1-.44-.66-.36-1,.14-.7.81-1,1.54-1.19.23.22.64.42.64.69A1.64,1.64,0,0,1,80.65,72.64ZM97,37.73c1,0,1.74.47,1.62,1.35-.06.46-.21,1.73-1,1.44S96.43,39.2,96,38.67C96,37.66,96.49,37.75,97,37.73Zm1.82,7c0,.17-.34.44-.57.49-.64.13-1.21,0-1.3-.63,0-.22.24-.47.32-.61C98.16,43.89,98.83,44.25,98.82,44.75Zm-9.48-3.24c.06.48-.46.36-.68.48-.68-.12-1.42-.11-1.52-.88-.08-.53.41-.63.85-.57C88.62,40.62,89.28,40.77,89.34,41.51Zm-2.45-4.6c.56.12,1.29.23,1.35,1-.22.72-.79.75-1.38.69s-1.28-.47-1.27-1.15C85.6,36.58,86.43,36.82,86.89,36.91ZM77,39.74l2,.45c-.82.45.1,1.14-.26,1.77C77.74,41.47,75.4,42.2,77,39.74ZM75.83,42c1,0,1.74.49,1.62,1.42-.06.49-.21,1.82-1,1.52s-1.23-1.4-1.67-2C74.8,41.89,75.32,42,75.83,42ZM65.72,41.1c.55.13,1.3.23,1.35,1-.22.76-.79.8-1.39.73s-1.27-.49-1.27-1.21C64.42,40.74,65.26,41,65.72,41.1Zm-1.94-1c-.14.16-.28.31-.41.47-1.63,2.18-2.06,2.16-3.44-.13C61.21,40.25,62.44,39.67,63.78,40.07Zm-5.36,1c.65,0,1.39.33,1.34,1.07a1.32,1.32,0,0,1-1.52,1.18c-.77,0-1-.62-1.24-1.15A1.22,1.22,0,0,1,58.42,41.08Zm-18.86,0c.55-.41,1-.21,1.34.69l-1.49.1C39.45,41.6,39.41,41.2,39.56,41.08ZM38.24,51.81c.06.55,0,1-.81,1-.86-.57-1.71-1.19-1.67-2.44,0-.92.72-1,1.36-.9C38.59,49.66,38.14,50.88,38.24,51.81Zm1.39,4.53c.1,1.14-1,.66-1.45.79-1.12.13-1.93,0-2-1.24s.91-1.31,1.76-1.39C39.33,54.37,39.55,55.5,39.63,56.34Zm-4.15-10.1c-.08-.1-.17-.19-.25-.28.07-.31.14-.61.23-1L36.6,45c0,.17,0,.32.07.49Zm2.71-5.32c-.44,1.21-1.06,1.3-1.77.83-.17-.12-.17-.48-.25-.72Zm-.85,2.56-3,1A1.85,1.85,0,0,1,37.34,43.48ZM33,46a7.11,7.11,0,0,1,1.3.4c.24.15.34.51.5.78a2.86,2.86,0,0,1-.77.28.45.45,0,0,1-.3-.16h0c-.82.08-1.67.33-1.78.14C31.28,46.22,32.9,46.46,33,46Zm-4.28,1.49c.15-.58.31-1.13.45-1.64,1-.07,1.06.61,1,1.12s-.45.82-1.08.83a2.16,2.16,0,0,1-.43,0C28.7,47.68,28.72,47.59,28.74,47.49ZM27.83,54c-.66,0-1.42,0-1.46-.81-.05-.66.62-.73,1.09-.62s1.47-.16,1.49.79C29,54,28.33,53.94,27.83,54ZM26.77,67.71c-.85-.14-1-.82-1-1.54,0-.42.08-1,.61-.84.94.17.55,1.09.81,1.62C27.22,67.32,27.21,67.78,26.77,67.71Zm.17,6.94c.72-.56,1.25-1,2.06-1C28.85,75.15,28.69,75.24,26.94,74.65Zm3.19-17a1.08,1.08,0,0,1-1.19-.94c.12-.61.67-.68,1.14-.66s1.21.28,1.19.94S30.62,57.66,30.13,57.67ZM31.7,66h0a.72.72,0,0,1-.26-.23,1,1,0,0,1-.16-.72c.07-.42.22-.9.75-.73a5.3,5.3,0,0,1,.56.19h0a6.87,6.87,0,0,1,1.28.41c.24.13.35.5.51.76a2.37,2.37,0,0,1-.78.28.49.49,0,0,1-.29-.15h0l-.34,0a.87.87,0,0,1-.75.32A1.27,1.27,0,0,1,31.7,66Zm1.12,4.15c0-.84.28-1.32,1.2-1.2l.84,1.39C34.05,71,33.5,70,32.82,70.11ZM35,64.69l-.25-.29c.07-.3.14-.59.23-1l1.14.09c0,.17,0,.33.06.48C35.82,64.21,35.42,64.44,35,64.69Zm-1.15-1.78a1.85,1.85,0,0,1,3-1ZM36,60.19c-.17-.11-.16-.47-.24-.72.63,0,1.26-.06,2-.1C37.29,60.58,36.67,60.66,36,60.19Zm3.54,8c-.24,1.07-1,1.32-2,1.11.41-1.13-.69-2.61.8-3.49C39.59,66.12,39.77,67,39.5,68.15ZM39,60.31c0-.26,0-.66.15-.78.56-.41,1-.22,1.34.69ZM39.54,48c-.42,0-.88.07-1.08-.47-.34-.93,1.83-3.94,3.37-3.88.11,0,.43.53.78,1s-.06.89-.35,1.09C41.28,46.4,41.23,48.2,39.54,48Zm3.83,1.61c-.11.77-.8.89-1.65.92-.65.1-.84-.53-.8-1.05.06-.72.76-.74,1.31-.74S43.5,48.86,43.37,49.64ZM40.65,53c-.17-.92.59-.82,1.15-.72.82.12,1.61.36,1.53,1.44a2,2,0,0,1-1.49,1.65C40.76,54.94,40.8,53.88,40.65,53Zm4.71,4.74c-.27.71.17,2-1.1,2a2,2,0,0,1-2.16-1.15,4.26,4.26,0,0,1,2.5-1.82C45.25,56.56,45.52,57.33,45.36,57.77Zm-.62-10.25c-.81-.05-1.84-.33-1.84-1.12,0-1.08,1.12-.32,1.65-.58.75.17,1.87-.2,1.76,1C46.24,47.75,45.35,47.54,44.74,47.52Zm3.21-3a2.12,2.12,0,0,1-2.2-1.06c-.37-.8.29-1.31.88-1.43a1.84,1.84,0,0,0,1.55-1.17,2,2,0,0,1-.2-.21c.61-1.45,1.62-1.24,2.73-.66a.39.39,0,0,0,.06.33,2.3,2.3,0,0,1,2.44,1.27.23.23,0,0,1,.07.2c.51.39,1.18.93.43,1.48-1,.76-1.8.08-2.32-.88L51,41.61l-.46.33c-.16.58-.71.74-1.11,1.06C49.68,44.23,49,44.53,48,44.56ZM51,49.66c-.86,0-1.6-.35-1.7-1.24s.76-.73,1.24-.77a1.44,1.44,0,0,1,1.62,1C52.14,49.42,51.65,49.65,51,49.66Zm.3-2.94c-.58-.1-1.32-.13-1.4-1a.64.64,0,0,1,.88-.65c.62.19,1.58.08,1.59,1.07C52.4,46.69,51.83,46.74,51.33,46.72ZM53.54,60c-.86-.14-1-.86-1-1.62,0-.45.07-1,.6-.89.93.19.55,1.15.81,1.71C54,59.57,54,60.05,53.54,60ZM54.6,45.46c-.65,0-1.42,0-1.47-.84,0-.7.63-.78,1.1-.67s1.47-.17,1.49.84C55.73,45.5,55.1,45.44,54.6,45.46Zm2.3,3.91a1.1,1.1,0,0,1-1.2-1c.14-.64.68-.72,1.16-.69s1.2.29,1.18,1S57.4,49.36,56.9,49.37ZM59,58.27A1,1,0,0,1,58,57.12c.07-.45.21-.95.75-.78s1.15.29,1.14,1A.89.89,0,0,1,59,58.27Zm.82-8.67c.12-.65.61-.75,1.13-.72s1.33.22,1.45,1c.1.63-.4.65-.84.68A1.54,1.54,0,0,1,59.8,49.6Zm2.73,5.62c-.56-.19-1.42-.08-1.51-.9-.05-.51.49-.66.94-.58s1.16.2,1.32.9C63.2,55.06,62.89,55.34,62.53,55.22Zm.57-10a.8.8,0,0,1-1-.89c0-.93.58-1.23,1.46-1.05.57.09,1.5-.08,1.35.87S63.87,45.17,63.1,45.24Zm3.22,17.55c-.6-.31-1.68,0-1.54-1.1.09-.67.4-1.47,1.29-1.48a1.55,1.55,0,0,1,1.67,1.37C67.83,62.42,67,62.65,66.32,62.79ZM67,58c-.44-.19-1.2-.1-1.22-.87,0-.56.53-.66,1-.59s1.25,0,1.24.86C68,58,67.58,58.06,67,58Zm1.21-3.08c-.69-.07-1.55-.24-1.5-1.11,0-.66.71-.74,1.43-.45.5,0,1.42-.35,1.35.86C69.47,55.06,68.77,55,68.25,54.91Zm3.36,6.59c-.59-.3-1.67,0-1.52-1.11.08-.66.39-1.46,1.28-1.48a1.59,1.59,0,0,1,1.68,1.38C73.13,61.13,72.32,61.35,71.61,61.5Zm1.55-11.94c-.2.47-.7.36-1.12.25-.74-.2-1.43-.7-2.25-.35a1.93,1.93,0,0,1,.06.41c0,.63,1.26,1.11.28,1.78a1.11,1.11,0,0,1-1.63-.48c-.38-.87-.49-1.84.75-2.25-.32-1.85.56-2,1.93-1.32a10.83,10.83,0,0,1,1.42.93C72.94,48.78,73.38,49.08,73.16,49.56Zm.67-5.32c-.25.3-.9,0-1.17-.46-.37-.62-.93-1-1.57-.75-1,.44.06.83.13,1.27.12.74-.29,1-1,1-.56-.38-1.81-.34-1.64-.79.39-1.07-.56-2.07,0-2.9.4-.61,1.17-.05,1.78.11,1.1.27,2.32.08,3.23,1A1.18,1.18,0,0,1,73.83,44.24Zm6.1,12.11c-.07.55-.46.82-1.08.83a2.13,2.13,0,0,1-.43,0c0-.1,0-.19.07-.29.15-.59.3-1.13.45-1.65C79.9,55.16,80,55.84,79.93,56.35Zm3.55-10.5h-.31a3.23,3.23,0,0,1-.47,0,2.51,2.51,0,0,1-.88-.1h-.57c-.85,1.07.42,1,.78,1.2.61.39,1.18.83.87,1.49s-1.1.44-1.66.08c-1.33-.85-2.22-1-1.71,1.06.12.51-.2.65-.61.59-.61-.09-1.35-.42-1.16-1,.47-1.51-.2-1.54-1.41-1.59s-1.3-1.07-1.65-2.33c1.52.63,2.74,1.1,3.93,1.65.31.16.36.88,1,.4s.25-.85-.12-1.24-.94-1.12-.57-1.73,1-.28,1.49.08l.55-.32a7,7,0,0,1,.69.21,2.42,2.42,0,0,1,.47,0c.68,0,1.34.21,1.46,1a.43.43,0,0,1-.16.48C83.42,45.78,83.45,45.8,83.48,45.85Zm.79-5a.78.78,0,0,1-1-.84c0-.88.58-1.16,1.46-1,.57.1,1.5-.07,1.35.83S85,40.77,84.27,40.83Zm1.39,2.28c-.11-.55.45-.61.85-.57.63.06,1.37.18,1.44.9,0,.56-.61.36-.92.43C86.33,43.93,85.79,43.68,85.66,43.11Zm.5,8c-.16-.11-.16-.47-.24-.71l2-.11C87.5,51.51,86.87,51.6,86.16,51.12Zm-1,3.19,1.13.09.08.49-1.2.73c-.07-.1-.16-.19-.24-.29C85.05,55,85.11,54.73,85.21,54.31ZM84,71.44c-.12.35-.64.56-1,.78-.09,0-.44-.13-.45-.2a7.61,7.61,0,0,1,.07-1.79c.08-.3.51-.5.79-.75.3.14.63.21.64.31A3.81,3.81,0,0,1,84,71.44Zm.93-6.16a2.66,2.66,0,0,1-1,0,1.6,1.6,0,0,1,.42-2.2,1,1,0,0,1,.88,0C85.63,63.5,85.43,65.12,84.94,65.28Zm2.47-3.67A1.93,1.93,0,0,1,86,62c-.31-.11-.5-.73-.41-1.12.16-.78.9-1.14,1.7-1.32.27.25.72.47.72.77A1.81,1.81,0,0,1,87.41,61.61Zm1.48,5.72a.92.92,0,0,1-.87-.21,1,1,0,0,1,.35-1.63,1.93,1.93,0,0,1,.92-.11A1.31,1.31,0,0,1,88.89,67.33Zm.27-16.08c0-.27,0-.67.15-.79.55-.42,1-.22,1.34.69Zm2-7.44c.34-.1.74-.33,1-.25a1.36,1.36,0,0,1,.88.68,1,1,0,0,1-.29,1,1.47,1.47,0,0,1-1.18,0C91,44.91,91,44.36,91.19,43.81Zm1.59,12.42c-.59-.29-1.67,0-1.53-1,.09-.63.4-1.38,1.29-1.4a1.55,1.55,0,0,1,1.67,1.3C94.3,55.88,93.49,56.09,92.78,56.23ZM94.2,49.5c-.56-.18-1.43-.08-1.51-.85,0-.48.48-.63.94-.55s1.15.19,1.31.86A.59.59,0,0,1,94.2,49.5Zm.52-2.14c-.85.14-1.71-.29-1.75-.81a.7.7,0,0,1,.42-.54c.56-.17,1.91.36,1.82.71S94.83,47.23,94.72,47.36ZM97,58.85c-.49-.2-1.16-.28-1.2-1,0-.43.16-.88.72-.8a1.25,1.25,0,0,1,1.22,1.19C97.73,58.66,97.44,58.9,97,58.85Zm-.75-7.14c-.14-.63.65-.81,1-.85.72-.1,1.13.54,1.55.94.06.75-.48.86-1,.93A1.3,1.3,0,0,1,96.23,51.71Zm2.24,3.43c-.1-.57.37-.7.81-.64s1.13.3,1.14,1c0,.36-.2.65-.91.53C99.19,55.91,98.59,55.77,98.47,55.14ZM95,75.41a1.54,1.54,0,0,1-1.74-.93c.12-.61.61-.7,1.13-.67.68,0,1.33.21,1.46,1S95.41,75.39,95,75.41Zm1.56-5a.79.79,0,0,1-1-.84c0-.88.58-1.17,1.47-1,.56.09,1.49-.07,1.34.83S97.3,70.29,96.53,70.36Zm2.76,3c-.7.06-1.24-.19-1.36-.76s.44-.62.85-.58c.62.07,1.36.19,1.43.91C100.26,73.53,99.6,73.33,99.29,73.4Zm-.17-5.28c-.71-.09-1.28-.47-1.27-1.15,0-.87.84-.62,1.3-.53s1.3.23,1.36,1C100.29,68.14,99.71,68.18,99.12,68.12Zm3.91-28c.34-.1.74-.33,1-.26a1.43,1.43,0,0,1,.88.69,1.06,1.06,0,0,1-.3,1,1.52,1.52,0,0,1-1.18,0C102.82,41.24,102.83,40.69,103,40.14Zm-1.36,9.3c-.22-.24-.44-.71,0-.86a2.19,2.19,0,0,1,2.39.91C103.13,50.13,102.35,50.2,101.67,49.44Zm.32,5.17c.36-.82,1.79-.32,1.87-1.4-.32,0-.28-.06,0-.12s.23-.14.36-.2l.6,1C104.22,55.22,103.52,56.21,102,54.61Zm1.27-8c-.07-.09.08-.45.2-.48.9-.29,1.46.19,2,1A1.75,1.75,0,0,1,103.26,46.61Zm3.31-2.92c-.86.15-1.71-.3-1.76-.81a.7.7,0,0,1,.43-.55c.56-.17,1.9.37,1.82.72S106.68,43.56,106.57,43.69Zm3.52-2.12c-.64.13-1.21,0-1.3-.63,0-.22.24-.47.31-.61.9-.12,1.58.26,1.56.75C110.66,41.25,110.33,41.52,110.09,41.57Zm3.3,10.29a1.34,1.34,0,0,1-1.73-.13c0-.36-.12-.82.06-1a1.5,1.5,0,0,1,1.07-.58,1.35,1.35,0,0,1,1,.65A1.29,1.29,0,0,1,113.39,51.86Zm1.16-5.27c-.25-.05-.46-.4-.59-.52.18-.88.84-1.39,1.39-1.18a.85.85,0,0,1,.36.72C115.63,46.25,115.27,46.74,114.55,46.59Zm.82,4.47a.8.8,0,0,1-.46-.6c0-.6,1.06-1.66,1.43-1.46s.44.54.56.7C116.76,50.55,116,51.2,115.37,51.06Zm8.73-1.72a4.59,4.59,0,0,1-.33,1,10.28,10.28,0,0,1-.49.93,5.84,5.84,0,0,1-1.49,1.53l-.07,0a8,8,0,0,1,.78-2,15.49,15.49,0,0,1,1-1.63c.2-.28.38-.58.24-.88a2.63,2.63,0,0,0-.61-.78,5.78,5.78,0,0,1-.55-1.26.89.89,0,0,1-.62.13c-1.5-.83-1.26-1.7-1.26-1.7l1.77,0,.76-.28a3.41,3.41,0,0,1-.34,1.54,3.29,3.29,0,0,1,1.05,1.2,4.9,4.9,0,0,1,.28,1.08A2.52,2.52,0,0,1,124.1,49.34ZM17.18,71.85a3,3,0,0,1-1.91-1.69A2.51,2.51,0,0,1,15,68.1a9.45,9.45,0,0,1-1.08.49c.23,1.52.46,3,.7,4.66A2.63,2.63,0,0,1,11.9,70.9a1.83,1.83,0,0,1,.51-1.58,2.3,2.3,0,0,1,.45-.36,13.29,13.29,0,0,1-2.85.55,8.67,8.67,0,0,1-1.14,0c-.08.31-.17.61-.25.9-.21.74-.42,1.45-.64,2.14-.05.17-.28.41-.41.4a1.18,1.18,0,0,1-.7-.31,1.87,1.87,0,0,1-.37-2.16q.06-.14.15-.3a1.59,1.59,0,0,1,1-.8,3.08,3.08,0,0,1-.8-.29c-.41.46-.79.91-1.18,1.3a5,5,0,0,1-.54.49,2,2,0,0,1-1.46.21c-.23,0-.59-.78-.49-1s.38-.65.59-1a2.78,2.78,0,0,1,.93-.91,2.16,2.16,0,0,1,1-.28,2.69,2.69,0,0,1-.24-.48,2.54,2.54,0,0,1-.08-1.89A.85.85,0,0,1,6,65.13a.91.91,0,0,1,.61.08,2.32,2.32,0,0,0,.68.12,2,2,0,0,0,1.28-.43,2.22,2.22,0,0,0,.74-1.15,2.42,2.42,0,0,0,.13-1.36,1.29,1.29,0,0,0-.87-.84c-.5-.18-1-.35-1.51-.5a8.24,8.24,0,0,0-3-.36,3.68,3.68,0,0,0-2.48,1.42A7.15,7.15,0,0,0,.23,64.9,8,8,0,0,0,.09,68,5.66,5.66,0,0,0,.5,69.45a4.93,4.93,0,0,0,.84,1.24,11.42,11.42,0,0,0,5.41,3.09,11.72,11.72,0,0,0,4.95.36c-.89-.57-1.79-1.13-2.65-1.75-.15-.11-.17-.47-.17-.71a2.09,2.09,0,0,1,.48-1.39,2.81,2.81,0,0,1,2.13-.81,2.22,2.22,0,0,0-.24.32c-1.14,1.6-.3,2.92.89,4.14l-.18.15a9.09,9.09,0,0,0,1-.25,22.13,22.13,0,0,0,4.54-1.93A1.35,1.35,0,0,1,17.18,71.85ZM1.29,68c-.21.08-.63,0-.71-.12a1.45,1.45,0,0,1-.2-1,2.39,2.39,0,0,1,1.93-2l.4,0c1.5-.15,2,.84,2.46,1.72l-1.24.45C3,67.43,2.15,67.74,1.29,68Z"/><path d="M29.81,122.71l2.56,1a7.16,7.16,0,0,1-2,3.91A5,5,0,0,1,27,128.85a5.1,5.1,0,0,1-4.15-2A9.59,9.59,0,0,1,21,120.74a10,10,0,0,1,1.84-6.39,5.23,5.23,0,0,1,4.3-2,5,5,0,0,1,3.68,1.5A6.5,6.5,0,0,1,32.35,117l-2.61.76a3.56,3.56,0,0,0-1-2A2.5,2.5,0,0,0,27,115.1a2.81,2.81,0,0,0-2.37,1.26,7.32,7.32,0,0,0-.91,4.17,7.79,7.79,0,0,0,.89,4.29,2.71,2.71,0,0,0,2.32,1.27,2.38,2.38,0,0,0,1.8-.81A5.08,5.08,0,0,0,29.81,122.71Z"/><path d="M34.86,128.58v-16h2.63v6.28h5.19v-6.28h2.64v16H42.68v-7H37.49v7Z"/><path d="M48.27,128.58v-16H58v2.7H50.91v3.54h6.57v2.68H50.91v4.34h7.31v2.7Z"/><path d="M60.69,128.58v-16h9.7v2.7H63.32v3.54h6.57v2.68H63.32v4.34h7.31v2.7Z"/><path d="M76,128.58V115.32H72.15v-2.7h10.4v2.7H78.67v13.26Z"/><path d="M95,128.58H92.08L90.94,125H85.7l-1.08,3.62H81.81l5.1-16H89.7Zm-4.86-6.32-1.81-5.92-1.77,5.92Z"/><path d="M96.56,128.58v-16H99.2v6.28h5.19v-6.28H107v16h-2.63v-7H99.2v7Z"/></svg>