<svg id="Layer_1" data-name="Layer 1" xmlns="http://www.w3.org/2000/svg" width="128" height="128" viewBox="0 0 128 128"><title>Artboard 25</title><path d="M28.55,112.47h4.89a7.47,7.47,0,0,1,2.81.41,4.79,4.79,0,0,1,1.74,1.4,7.37,7.37,0,0,1,1.25,2.56,14.44,14.44,0,0,1,.45,3.91,12.74,12.74,0,0,1-.47,3.65A7.39,7.39,0,0,1,38,126.87a4.65,4.65,0,0,1-1.76,1.36,6.55,6.55,0,0,1-2.66.46h-5Zm2.67,2.74V126h2a5.26,5.26,0,0,0,1.87-.24,2.35,2.35,0,0,0,1-.74,4.36,4.36,0,0,0,.61-1.55,13.17,13.17,0,0,0,.24-2.8,12.49,12.49,0,0,0-.25-2.84,3.74,3.74,0,0,0-.77-1.64,2.42,2.42,0,0,0-1.28-.78,10.13,10.13,0,0,0-2.18-.15Z"/><path d="M42.17,112.47h2.68v8.79a23,23,0,0,0,.1,2.66,2.69,2.69,0,0,0,.85,1.66,2.61,2.61,0,0,0,1.77.59,2.55,2.55,0,0,0,1.52-.42,2,2,0,0,0,.8-1.15,13.69,13.69,0,0,0,.22-3.16v-9h2.68V121a22.65,22.65,0,0,1-.35,4.72,4,4,0,0,1-1.57,2.36,5.33,5.33,0,0,1-3.23.9,6,6,0,0,1-3.25-.75,4.3,4.3,0,0,1-1.69-2.1,15.84,15.84,0,0,1-.53-5Z"/><path d="M55.76,128.69V112.47h2.68v16.22Z"/><path d="M61.26,128.69V112.47h2.68v7.22l5.44-7.22H73l-5,6.32,5.29,9.9H69.79l-3.67-7.62-2.18,2.72v4.9Z"/><path d="M74.88,128.69V112.47h9.87v2.74H77.56v3.6h6.68v2.73H77.56V126H85v2.74Z"/><path d="M87.5,128.69V112.47h5.66a7.93,7.93,0,0,1,3.1.44,3.45,3.45,0,0,1,1.52,1.51,5.25,5.25,0,0,1,.6,2.59,4.79,4.79,0,0,1-.91,3.06,4.06,4.06,0,0,1-2.6,1.46,6.91,6.91,0,0,1,1.43,1.36,18.75,18.75,0,0,1,1.54,2.64l1.61,3.16h-3.2l-1.94-3.53a23.45,23.45,0,0,0-1.43-2.39,2.12,2.12,0,0,0-.8-.67,3.69,3.69,0,0,0-1.35-.18h-.55v6.77Zm2.68-9.36h2a9.9,9.9,0,0,0,2.33-.16,1.45,1.45,0,0,0,.8-.65,2.32,2.32,0,0,0,.31-1.29A2.23,2.23,0,0,0,95.3,116a1.5,1.5,0,0,0-.84-.64,9.75,9.75,0,0,0-2.18-.13h-2.1Z"/><path d="M38.27,75.5,38.6,75l-1.4-.94L32,67.27s.6-13.07,2.22-14.35c2.56-.47,6.31-.49,9.1-1.75-1-2.3-2.8-6-3.72-6.68-2.31.67-3.89,1.83-6.62,3.37a24,24,0,0,0-2.44,1,4.91,4.91,0,0,0-.4,3.18l-2,15.82S37.6,79.3,37.6,79.62,41,77.23,41,77.23Z"/><path d="M94.21,65.43c-5.37-3.07-6.84-7-6.85-7-.58.19-1.49.53-2.2.7.08.63,0,.24.19,1.56,1.38,8.32.78,12.59.78,12.59s.2,3.84-4,9.4A72.18,72.18,0,0,1,77,88.74c-3.87,4-9.54,9.32-9.54,9.32l3.46,1.14,1.17-1.68,1.27.23.92-1,2.08-2.36a20.63,20.63,0,0,1,3-3.9c3.72-3.75,12.23-12.36,14.34-14.61C93.64,73.32,94.47,67.61,94.21,65.43Z"/><path d="M118.86,94.08a76.9,76.9,0,0,0-.23-8.39A103.6,103.6,0,0,1,118,70.07c-3.09-2.06-9.06-6.1-11.28-7.59l-.86-.59.13-.11.44-.43c1.36-1.31,4.69-4.7,5.58-7.57a5.24,5.24,0,0,1-.27,3.52c-.68,1.1-1.21,3-.18,6.41.42-2,3.35-5.07,4.18-8.91,1.07-5-8.16-12.51-8.44-12.72-2.51-3.28-5.87-6.31-9.91-7.52-8-2.32-17.79-1.59-25.64-.64a17.15,17.15,0,0,1-9-1.37C55.37,29.3,50.52,29.8,46.42,29.8a48.2,48.2,0,0,1-8-4.88,20.74,20.74,0,0,1-5-5.57c-.16-.28-.41-.55-.34-.94A4.36,4.36,0,0,1,35.6,16a20.12,20.12,0,0,0,4.59-1.12,3.64,3.64,0,0,0,2-1.94,9.86,9.86,0,0,0,.86-5.61,1.61,1.61,0,0,0-2-1.25,21.85,21.85,0,0,0-6.78,3.1A2.25,2.25,0,0,0,33.09,11c0,1.9-1.11,2.88-2.62,3.55-.54.24-1,1.25-1.75.36-.43-.52-.16-.92.17-1.28s1-1.19,1.44-1.64c1.18-1.24,2.39-2.44,3.55-3.7a1.2,1.2,0,0,0,.5-1.07,35.91,35.91,0,0,0-6,3.2c.66-1.31,1.33-2.6,2.08-4A1.87,1.87,0,0,0,29.3,7a36.29,36.29,0,0,0-5.44,6c-.25.37-.45.77-1,.86a5.33,5.33,0,0,0-3,1.74,6.87,6.87,0,0,1-2.36,1.57,43.4,43.4,0,0,0-8.37,4.66,1.28,1.28,0,0,0-.47,1.85c.52.94.35,2.31,1.7,2.75.06,0,.08.17.12.27.59,1.27,1.13,1.59,2.5,1.22a6.59,6.59,0,0,1,3-.14c1.42.23,2.85.49,4.26.77a18.18,18.18,0,0,0,5.14.61l3-1.43,2.3-3.45-1.48,4-2.82,1.87c1.43,2.47,6.23,7.92,9.33,10.72,0,0,0,0,0,0,.41.37.79.7,1.14,1h0a5.93,5.93,0,0,0,.89.64l0,0c.83.57,1.08.62,2.87,1.74a29.31,29.31,0,0,1,3.66,6.4c2.1,2.75,4,4.64,4,6.27-2.11.31-12.06,2.79-12.32,4-.42,2-1.69,3.46,1.49,4.75,4.43,1.78,16.5,14.56,16.5,14.56l2,2.34,2.45-3-2.59-1.14.45-.78-1.9-1L42.39,64.51l13.33-.26a2.44,2.44,0,0,0,2.41-2.49,6.46,6.46,0,0,1,.41-2.26,9.15,9.15,0,0,1,.35-2.87c.34-1.25.8-2.39,1.12-3.55a9.14,9.14,0,0,0,.36-3.61l.11,0a9.29,9.29,0,0,1,.11,3.75c-.18,1.25-.54,2.46-.73,3.64a9.74,9.74,0,0,0,0,2.8c5.82,1.23,20.85.36,27.09-2.35a19.52,19.52,0,0,1-.75-3.37,20.51,20.51,0,0,1,.7-8.92l.1,0c-.76,2.89,0,5.77.43,8.66s1.54,5.82,3.73,7.7A17.67,17.67,0,0,0,94.74,64l3.67,1.41c2.75,1.24,5.5,2.49,8.16,3.95a28.65,28.65,0,0,1,3.81,2.49A6.38,6.38,0,0,1,112,73.6c2.31,4.31,3,11.66,3.19,13h0a33.1,33.1,0,0,1-.48,12.57l3.26.9.22-1.71,1.35-.17Zm-93.36-76a2.33,2.33,0,0,1-1.23,1.08,2.28,2.28,0,0,1-1.59-.36.35.35,0,0,1-.12-.46,2.22,2.22,0,0,1,1.22-1.07,2.25,2.25,0,0,1,1.6.35A.34.34,0,0,1,25.5,18.08Z"/><polygon points="38.06 80.29 39.76 83.43 42.53 79.21 41.33 78.35 38.06 80.29"/><polygon points="56.34 83.03 58.65 85.75 60.49 81.05 59.15 80.45 56.34 83.03"/><polygon points="65.24 101.94 70.29 102.05 70.38 100.58 67 98.83 65.24 101.94"/><polygon points="112.53 102.89 117.57 103 117.67 101.53 114.28 99.78 112.53 102.89"/></svg>