<svg id="Layer_1" data-name="Layer 1" xmlns="http://www.w3.org/2000/svg" width="128" height="128" viewBox="0 0 128 128"><title>Artboard 26</title><path d="M46.5,122.71l2.56,1a7.16,7.16,0,0,1-2,3.91,5,5,0,0,1-3.43,1.24,5.09,5.09,0,0,1-4.15-2,9.54,9.54,0,0,1-1.83-6.14,10,10,0,0,1,1.84-6.39,5.25,5.25,0,0,1,4.31-2,5,5,0,0,1,3.68,1.5A6.5,6.5,0,0,1,49,117l-2.61.76a3.56,3.56,0,0,0-1-2,2.52,2.52,0,0,0-1.76-.69,2.81,2.81,0,0,0-2.37,1.26,7.32,7.32,0,0,0-.91,4.17,7.7,7.7,0,0,0,.89,4.29,2.7,2.7,0,0,0,2.32,1.27,2.4,2.4,0,0,0,1.8-.81A5.08,5.08,0,0,0,46.5,122.71Z"/><path d="M51.55,128.58v-16h5.56a7.62,7.62,0,0,1,3,.43,3.44,3.44,0,0,1,1.51,1.49,5.21,5.21,0,0,1,.58,2.54,4.74,4.74,0,0,1-.89,3,4,4,0,0,1-2.56,1.43,6.47,6.47,0,0,1,1.41,1.34,18.64,18.64,0,0,1,1.51,2.59l1.59,3.12H60.15l-1.91-3.48a24.28,24.28,0,0,0-1.4-2.35,2.07,2.07,0,0,0-.79-.66,3.57,3.57,0,0,0-1.33-.18h-.54v6.67Zm2.63-9.21h2a10,10,0,0,0,2.28-.16,1.47,1.47,0,0,0,.8-.64,2.36,2.36,0,0,0,.3-1.27,2.18,2.18,0,0,0-.3-1.22,1.51,1.51,0,0,0-.83-.64,10.35,10.35,0,0,0-2.14-.12H54.18Z"/><path d="M64.42,120.7a11.36,11.36,0,0,1,.84-4.7,6.38,6.38,0,0,1,2.2-2.75,5.86,5.86,0,0,1,3.3-.9,5.66,5.66,0,0,1,4.58,2.14,9.37,9.37,0,0,1,1.77,6.11,9.52,9.52,0,0,1-1.88,6.26,6,6,0,0,1-8.94,0A9.38,9.38,0,0,1,64.42,120.7Zm2.72-.11a6.85,6.85,0,0,0,1,4.13,3.15,3.15,0,0,0,2.6,1.37,3.09,3.09,0,0,0,2.58-1.36,7,7,0,0,0,1-4.2,6.85,6.85,0,0,0-1-4.1,3.12,3.12,0,0,0-2.61-1.33,3.16,3.16,0,0,0-2.63,1.34A6.91,6.91,0,0,0,67.14,120.59Z"/><path d="M87.78,122.71l2.56,1a7.17,7.17,0,0,1-2,3.91,5,5,0,0,1-3.42,1.24,5.09,5.09,0,0,1-4.15-2,9.54,9.54,0,0,1-1.83-6.14,10,10,0,0,1,1.84-6.39,5.24,5.24,0,0,1,4.31-2,5,5,0,0,1,3.68,1.5A6.5,6.5,0,0,1,90.31,117l-2.61.76a3.56,3.56,0,0,0-1-2,2.49,2.49,0,0,0-1.76-.69,2.8,2.8,0,0,0-2.36,1.26,7.31,7.31,0,0,0-.92,4.17,7.79,7.79,0,0,0,.89,4.29,2.72,2.72,0,0,0,2.32,1.27,2.4,2.4,0,0,0,1.81-.81A5.17,5.17,0,0,0,87.78,122.71Z"/><path d="M87.36,58.07a7.52,7.52,0,0,0-1.64-.72,4.69,4.69,0,0,0-1.79,0,18.84,18.84,0,0,0-3.34,1,1.66,1.66,0,0,1,.13.14A9.22,9.22,0,0,0,83,60a13.55,13.55,0,0,0,2.57,1,21.21,21.21,0,0,0,2.74.42l4,.48a5.08,5.08,0,0,1-.57-.47,2.51,2.51,0,0,1-.36-.37c-.12-.13-.23-.3-.3-.35a6.61,6.61,0,0,0-.66-.54C89.43,59.48,88.44,58.69,87.36,58.07Z"/><path d="M127.92,63.7a2,2,0,0,0-.84-.9,10,10,0,0,0-1.31-.68,7.41,7.41,0,0,0-2.64-1.22,7.66,7.66,0,0,0-1.45-.07,3.39,3.39,0,0,0-1.47.32,24.48,24.48,0,0,0-2.5,1.45l0,0h-.06a54.23,54.23,0,0,0-8.83,0c-2.93.21-5.85.61-8.76,1.06l-.12,0-.14-.07c-.47-.22-.94-.43-1.44-.61a8.89,8.89,0,0,0-1.48-.43,4.88,4.88,0,0,0-1.47-.07,2.25,2.25,0,0,0-1.17.44l-.19.19-.23,0c-1.89-.23-3.75-.5-5.63-.75a19.07,19.07,0,0,1-2.83-.49,12.53,12.53,0,0,1-2.71-1.1A9.78,9.78,0,0,1,80.26,59a13.28,13.28,0,0,0-1-1,6.67,6.67,0,0,0-1.12-.79,14.4,14.4,0,0,0-5.09-1.67L73,55.6c-2.25-1.18-4.54-2.29-6.81-3.41s-4.51-2.3-6.8-3.34a17.26,17.26,0,0,0-3.53-1.1c-1.23-.29-2.48-.52-3.73-.72a34.35,34.35,0,0,0-7.57-.35h-.1l-.14-.08a10.62,10.62,0,0,0-3.46-.93h-.1l-.06,0c-.52-.23-1.12-.43-1.69-.62l-1.76-.56c-.59-.18-1.19-.33-1.79-.49a13.74,13.74,0,0,0-2.26-.13,9.5,9.5,0,0,0-4.09-2.91l0-.12a11.51,11.51,0,0,1,2.61.72c.23.1.47.19.7.3-.19-.46-.34-1-.57-1.44a16,16,0,0,0-1-1.65,8.14,8.14,0,0,0-1.17-1.51l.07-.09a10.65,10.65,0,0,1,2.81,2.79,5.17,5.17,0,0,1,1,1.82,2.76,2.76,0,0,1-.08,1.58,6,6,0,0,1,1.62-1.16,15.72,15.72,0,0,1,2.33-.93,24,24,0,0,1,4.9-1.13,85.54,85.54,0,0,1,10-.7c6.72,0,13.32.7,20,1.22,3.35.36,6.63,1,9.9,1.65l4.88,1,2.45.51c.32.06.64.12.94.16l-.75-.4-2.23-1.11c-1.34-.65-2.71-1.28-4.07-1.91.41-.22,1-.59.93-.73s-2.36-.07-2.29-.1a7.31,7.31,0,0,0,.46-1,8,8,0,0,0-2.43.23c.07-.44-.74-.85-1.68-.67l-2.66-1.15c.5-.34.87-.7.71-1s-1.9-.27-3.28-.14h0c.75-.54,1.33-1.07,1-1.37s-2.58.11-3.63.38l-1.29-.46c.26-.38.38-.71.17-.77a2.32,2.32,0,0,0-1.39-.39,3.69,3.69,0,0,0-1.21.38l-.63-.18c.33-.69.53-1.33.25-1.57s-1.81.26-2.93.84l-.41-.11c.28-.73.45-1.47.07-1.62s-1.67.41-2.79,1c-1.11-.24-2.23-.46-3.35-.66.22-.74.32-1.37,0-1.45A6.52,6.52,0,0,0,54.75,31c-.82-.12-1.64-.23-2.47-.33,0-.65-.18-1.17-.52-1.26-.5-.14-1.18.35-1.83,1L49,30.39c0-.81-.19-1.69-.54-1.7s-1.06.68-1.58,1.54l-1.26-.08c0-.51,0-1-.33-1.13s-1.08.36-1.71,1l-1.47,0c.05-.36.06-.63,0-.7s-.74.21-1.35.68c-1.69,0-3.37,0-5,.07a1,1,0,0,0-.12-.33c-.35-.45-1.06-.15-1.43.1a.9.9,0,0,0-.26.37c-.75.08-1.49.17-2.24.28-.29-.4-.61-.75-.84-.8-.56-.12-1,.63-1.11,1.1v0c-.63.11-1.25.23-1.87.36a1.84,1.84,0,0,0-1-.22.52.52,0,0,0-.34.52l-1.29.31c-.11,0-.21.06-.32.09a2.92,2.92,0,0,0-1.5-.45c-.41.13-.34.61-.35,1.07-.32.12-.64.25-.95.39-.61-.33-1.64-.84-2-.72-.54.17-.24,1-.42,1.51L20,34a16.08,16.08,0,0,0-3.2,2.41,11.14,11.14,0,0,0-2.64,4A16.58,16.58,0,0,0,13,45.09a11.27,11.27,0,0,0,.61,4.81,28.33,28.33,0,0,0,2.31,4.38,20,20,0,0,0,.27,3.2,9.86,9.86,0,0,0,.94,2.93l1.75,3.4L16.3,61a30.5,30.5,0,0,1-1.91-2.63A2.86,2.86,0,0,0,12,56.89a5.13,5.13,0,0,0-2.94,1A3.2,3.2,0,0,0,8,59a5.19,5.19,0,0,1-.95,1.42c-.78.87-1.84,1.35-2.31,2.1a15.53,15.53,0,0,0-1.17,2.86c-.18.51-.9.85-1.13,1.37S1.22,68.38,1,68.88c.16,0,.41.41.27.63C1.83,69.22,3,68.37,3.57,68l.07.09-.2.19a4.59,4.59,0,0,0-1,1.52l-.26.66-.25.33a.69.69,0,0,1,.44.07c.21.13.24.2.24.2A12.86,12.86,0,0,1,4,69.83l.86-.59a9.79,9.79,0,0,0,.89-.59l.1,0c0,.33-.58,1-.73,1.3.43.1.53.34.59.8.17-.14.37-.1.54-.24a11.36,11.36,0,0,0,.84-.86c.56-.57,1.15-1,1.77-1.61l.11,0a3.59,3.59,0,0,1-.28,1.14c.23,0,.64.36.61.82a8.55,8.55,0,0,0,1.55-1.81,3.93,3.93,0,0,0,.26-1.19c.05-.53.15-1,.23-1.61l.1,0A3.42,3.42,0,0,1,12,66.87c.58.34,1.39.8,1.89,1a9.15,9.15,0,0,0,1.72.72,7,7,0,0,0,3.66.11,8.33,8.33,0,0,0,1.61-.88,9,9,0,0,0,1.47-1.14c.93-.74,1-2.15,2.34-3.21l.08-.06c-.11-.76-.17-1.52-.21-2.27-.07-1.11.07-2.23.07-3.34a8.22,8.22,0,0,0-.11-1.59A5.44,5.44,0,0,0,24,54.77a8.68,8.68,0,0,0-2.13-2.48L22,52.2a8.33,8.33,0,0,1,2.53,2.28,5.66,5.66,0,0,1,.78,1.6,8.35,8.35,0,0,1,.3,1.74,18.23,18.23,0,0,1,.15,3.38A16.3,16.3,0,0,1,25.29,64a10.44,10.44,0,0,0,2.43,2.83,15.66,15.66,0,0,0,3.57,2.08c2.55,1.14,5.09,2.4,7.64,3.27s5.33,1.66,8,2.55c2.46.81,4.9,1.68,7.38,2.38.41-.35.82-.7,1.26-1a8.79,8.79,0,0,1,2-1,19.88,19.88,0,0,1,2.1-.56c.7-.16,3.67-1.31,3.25-3.62-.18-1-.44-2-.73-3l.1,0a11.59,11.59,0,0,1,1.5,2.83A3.91,3.91,0,0,1,64,72.31c-.06.44-.05.79-.31,1-4.58,3.42-5.54,1.86-7.53,3.67a18.36,18.36,0,0,0-2.93,2.85,5.5,5.5,0,0,0-1.4,3.56,8,8,0,0,0,.2,2,6.25,6.25,0,0,0,.71,1.89,3.57,3.57,0,0,0,1.43,1.37c.61.38,1.22.73,1.84,1.07A11.35,11.35,0,0,0,60,91.05,8.89,8.89,0,0,0,62,91a5.67,5.67,0,0,1,1.16,0,2,2,0,0,1,.68.23.88.88,0,0,1,.41,1.07l-.09.21-.22.07a21.92,21.92,0,0,0-2.2.88l-.24.1a.6.6,0,0,1,.3.32,4,4,0,0,1,.14.42c1-.23,2.09-.44,3.15-.62,0-.3.05-.6.09-.9h.11c.13,1,.24,2.12.33,3.18a4,4,0,0,1,.65,0,2.94,2.94,0,0,1,.58.19A8.32,8.32,0,0,1,67.12,95c.17-.34.25-1.45.43-1.65l.1,0a16.79,16.79,0,0,0,1.43,1.91,3,3,0,0,1,.37,2.09,2.09,2.09,0,0,1,.77-.2.94.94,0,0,1,.68.18v-.24l-.06-.73a23.15,23.15,0,0,1-.55-3.24l.1-.05a6.35,6.35,0,0,1,1.4,1.71c.22.4.48.61.68,1a1.67,1.67,0,0,1,.45-.61,1.39,1.39,0,0,1,.74-.31c-.55-.79-1-1.7-1.53-2.52l.09-.07c.84.85,1.65,1.72,2.45,2.61a1.36,1.36,0,0,1,.89-1.18c-1-.82-2-1.64-3-2.5h0l0,0c-.68-.66-1.33-1.34-2-2s-1.33-1.35-2-2L68.36,87l0-.13a3.33,3.33,0,0,0-.74-1.43,1.19,1.19,0,0,0-.54-.43c-.06,0,0,0-.14,0a1,1,0,0,1-.34,0,1.36,1.36,0,0,1-.54-.26,7.51,7.51,0,0,1-1.24-1.53,8.52,8.52,0,0,1-.53-.85s-4.7-1.52-5.63-1.82v-.11a20.25,20.25,0,0,1,3,0,3.39,3.39,0,0,1,1.54.37c.39.25,1.33.94,1.38.94a3.67,3.67,0,0,1,.51-.09,8.63,8.63,0,0,0,.93-.09,2.58,2.58,0,0,0,.42-.13,1.91,1.91,0,0,1,.53-.1,6.75,6.75,0,0,1,2,.23c.6.15,1.28.38,1.79.53A.49.49,0,0,0,71.2,82c.14-.1.32-.27.53-.45a14.83,14.83,0,0,0-.39-3.71c-.27-1.33-.63-2.66-1-4l.1,0a22.12,22.12,0,0,1,1.62,3.82,17.35,17.35,0,0,1,.5,2,8.93,8.93,0,0,1,.12,2.08c.48,0,1-.1,1.18-.15a2.56,2.56,0,0,0,.46-.11,2.08,2.08,0,0,0,.4-.15l.28-.15.24.36a6,6,0,0,0,.67.8,10.26,10.26,0,0,0,.79.69,4,4,0,0,0,2,1h.06a8.26,8.26,0,0,0,2.62.78,20.29,20.29,0,0,0,2.62.31c.39,0,.88,0,1.34,0l1.35.05a12.87,12.87,0,0,0,2.64-.39,5.2,5.2,0,0,1-2.72-.86,7.86,7.86,0,0,1-2.16-2.37,26.28,26.28,0,0,1-2.65-5.6l.11-.05A33.44,33.44,0,0,0,85.17,81a18.92,18.92,0,0,0,2.12,2,14.48,14.48,0,0,0,2.44,1.66s4,1.32,6,2a19.79,19.79,0,0,1,3,1.45l2.9,1.57c1,.5,1.94,1,2.91,1.43a14.11,14.11,0,0,0,3,.8,33.17,33.17,0,0,0,6.46.32h.11l.09,0a42.78,42.78,0,0,0,5.27,1.33,16.62,16.62,0,0,0,2.68.33c.83.16,1.41-.6,1.59-1.39l0-.17.13,0a2,2,0,0,0,.78-.49,1.32,1.32,0,0,0,.29-.37.41.41,0,0,0,.07-.37,2.33,2.33,0,0,0-.61-1,10,10,0,0,0,.9-1.92c-.07-.13-.78.84-1.57,1.28a16.1,16.1,0,0,0-1.64-1.35,29.53,29.53,0,0,0,0-4.42c-.22-.14-.59,2.24-1.71,3.06a.78.78,0,0,0-.16.15c-.61-.42-1.74-1.25-3-2.32a4,4,0,0,0-.24-1.35c-.1,0-.2.37-.41.82-.5-.42-1-.86-1.54-1.32a5.27,5.27,0,0,0-.05-1.62c-.11,0-.27.49-.6,1l-.35-.32c-.49-.46-.62-1.24-1-1.6a2.26,2.26,0,0,0-.21-.16,12.8,12.8,0,0,0-.05-2.65c-.15-.1-.39,1.29-1,2.13a3.89,3.89,0,0,0-.41-.18l-1.22-.46A2.43,2.43,0,0,0,110,78c-.09,0-.16.32-.33.71l-.25-.1a10,10,0,0,1-1.84-1.18C107,77,106.5,76.49,106,76s-1.43-5-1.8-5.58a5.56,5.56,0,0,1-.39-.77l.22-.1c.26-.14.51-.27.76-.42l.34-.21.15-.1a2.17,2.17,0,0,1,.34-.19,2.38,2.38,0,0,1,1.14,0c.12.54.26,1,.38,1.06s.24-.39.36-.87l.23,0c.75.25,1.47.54,2.17.83.15.85.66,3.51,1,3.57s.83-2.83,1-3.63l.61-.3.26-.14c.3.83.74,1.95,1,2s.31-1.79.32-2.64l.29-.15.4-.21c.24.64.53,1.34.69,1.35s.24-1.12.26-1.87l1.09-.6c.13.6.28,1.18.41,1.2s.4-1,.54-1.7a2,2,0,0,1,1.2-.09c.17.86.44,2,.64,2s.4-.89.56-1.72a8.14,8.14,0,0,0,1.11.18,8.78,8.78,0,0,0,2.52-.17c.14.53.29,1,.41,1s.32-.58.47-1.25a10.11,10.11,0,0,0,1.72-.76c.14.57.3,1,.43,1.07s.4-.89.55-1.71C127.79,64.62,128.17,64.16,127.92,63.7Zm-31.71.19a1.81,1.81,0,0,1,1.53.75,1.84,1.84,0,0,1-1.53.76,1.92,1.92,0,0,1-1.54-.76A1.89,1.89,0,0,1,96.21,63.89Zm8.1,15.22q1.89,1.2,3.81,2.36c1.34.79,2.67,1.61,4,2.25a11,11,0,0,0,1,.42l1.14.36c.48.18,3.65,1.66,4.3,2.09a8.18,8.18,0,0,1,1,.72,9.69,9.69,0,0,1,1.07,1,2.07,2.07,0,0,1-2.07,1.42c-.38.06-.76.1-1.14.13a16,16,0,0,0,0-3.28c-.21-.14-.58,2.24-1.7,3.06a.56.56,0,0,0-.23.27l-1.11,0-1-.1a2.59,2.59,0,0,0,0-.94c-.08,0-.24.4-.51.87l-.6-.1a12,12,0,0,1-1.39-.42,5,5,0,0,0,.42-1.38c-.09-.1-.55.67-1.18,1.09a17.41,17.41,0,0,1-2.51-1.4,5.16,5.16,0,0,0,.38-1.28c-.08-.09-.44.47-.94.91l-.5-.34-.1-.07-.05-.06A4.64,4.64,0,0,0,104.62,85a9,9,0,0,0-.06-2.1c-.13-.09-.33.92-.78,1.75a3.36,3.36,0,0,0-.45-.14c-.43-.08-.89-.11-1.36-.16a4.13,4.13,0,0,0,.33-1.15c-.08-.1-.51.61-1.11,1a5.53,5.53,0,0,1-1.75-1.09c-.15-.1-.31-.19-.47-.28a4.41,4.41,0,0,0,.36-1.23c-.07-.09-.43.47-.92.89a18.94,18.94,0,0,1-2.59-1.45,8.7,8.7,0,0,1-2.88-3.2l-.1-.18.06-.17a8.52,8.52,0,0,1,2-3.42,13.64,13.64,0,0,1,2.37-2.06c-2.33-.59-4.4-1.74-6.62-2.09a7.81,7.81,0,0,0-6.26,2.4l-.08-.07a8.84,8.84,0,0,1,2.84-2.19,6.79,6.79,0,0,1,3.57-.72c2.45.3,4.64,1.36,6.88,1.82a4.44,4.44,0,0,0,1.61.12l.12,0c.12.55.27,1.06.39,1.09s.31-.62.45-1.25l.68-.19.66-.24c.13.62.29,1.25.43,1.27s.39-.93.53-1.67l.32-.13c.12.8.33,2.11.52,3.87A17.87,17.87,0,0,0,104.31,79.11Z"/><path d="M61.13,93.79s-.93.43-1.5,0a2.07,2.07,0,0,0,1.88.67.82.82,0,0,0-.08-.44A.48.48,0,0,0,61.13,93.79Z"/><path d="M65.76,96.39s.24,1.06-.46,1.42c1.44-.6,1.39-1.53,1.39-1.53a1.28,1.28,0,0,0-.56-.09A.53.53,0,0,0,65.76,96.39Z"/><path d="M8.79,69.64a.43.43,0,0,0-.36,0s-.14.86-.81.79A1.45,1.45,0,0,0,9.14,70,1.09,1.09,0,0,0,8.79,69.64Z"/><path d="M4.83,70.38s-.32.8-1,.55a1.33,1.33,0,0,0,1.54,0,1,1,0,0,0-.26-.41A.41.41,0,0,0,4.83,70.38Z"/><path d="M1.8,71.05s.09.72-.47.8c.74.16,1.13-.65,1.13-.65A.84.84,0,0,0,2.1,71,.33.33,0,0,0,1.8,71.05Z"/><path d="M.8,69s-.43.46-.8.13a1,1,0,0,0,1.06.39A.8.8,0,0,0,1,69.21.31.31,0,0,0,.8,69Z"/><path d="M69.81,97.88s.24,1.06-.46,1.43c1.43-.61,1.39-1.53,1.39-1.53a1.28,1.28,0,0,0-.56-.09A.47.47,0,0,0,69.81,97.88Z"/><path d="M73.11,95.72a.54.54,0,0,0-.22.41s1,.62.56,1.38c.93-1.46.25-2.12.25-2.12A1.8,1.8,0,0,0,73.11,95.72Z"/><path d="M75.62,94.07a1.28,1.28,0,0,0-.45.34.5.5,0,0,0-.12.41s.94.55.72,1.31C76.32,94.67,75.62,94.07,75.62,94.07Z"/></svg>