<svg id="Layer_1" data-name="Layer 1" xmlns="http://www.w3.org/2000/svg" width="128" height="128" viewBox="0 0 128 128"><title>Artboard 27</title><path d="M28.84,112.59h5a7.43,7.43,0,0,1,2.85.42,4.87,4.87,0,0,1,1.77,1.43,7.34,7.34,0,0,1,1.27,2.6,14.43,14.43,0,0,1,.46,4,12.82,12.82,0,0,1-.48,3.72,7.47,7.47,0,0,1-1.23,2.5,4.65,4.65,0,0,1-1.79,1.39,6.56,6.56,0,0,1-2.71.47H28.84Zm2.72,2.79V126.3h2.05a5.24,5.24,0,0,0,1.91-.25,2.27,2.27,0,0,0,1-.74,4.26,4.26,0,0,0,.63-1.58,13.52,13.52,0,0,0,.25-2.85A12.88,12.88,0,0,0,37.1,118a3.89,3.89,0,0,0-.78-1.66,2.51,2.51,0,0,0-1.3-.8,10.65,10.65,0,0,0-2.22-.15Z"/><path d="M42.64,129.09v-16.5h2.72v16.5Z"/><path d="M48.24,129.09v-16.5H51v7.35l5.54-7.35h3.68L55.07,119l5.38,10.07H56.91l-3.73-7.75L51,124.11v5Z"/><path d="M67.55,112.59h5a7.43,7.43,0,0,1,2.85.42,4.82,4.82,0,0,1,1.78,1.43,7.34,7.34,0,0,1,1.27,2.6,14.82,14.82,0,0,1,.46,4,12.47,12.47,0,0,1-.49,3.72,7.47,7.47,0,0,1-1.22,2.5,4.68,4.68,0,0,1-1.8,1.39,6.54,6.54,0,0,1-2.7.47H67.55Zm2.73,2.79V126.3h2a5.17,5.17,0,0,0,1.9-.25,2.24,2.24,0,0,0,1-.74,4.44,4.44,0,0,0,.63-1.58,13.62,13.62,0,0,0,.24-2.85,13,13,0,0,0-.25-2.89,3.78,3.78,0,0,0-.79-1.66,2.47,2.47,0,0,0-1.3-.8,10.47,10.47,0,0,0-2.21-.15Z"/><path d="M81.36,129.09v-16.5h2.72v16.5Z"/><path d="M87,129.09v-16.5h2.72v7.35l5.53-7.35h3.68L93.79,119l5.37,10.07H95.63l-3.73-7.75-2.22,2.77v5Z"/><path d="M21.94,15.2c-.45-.51-.92-1.12-.65-1.78a3.71,3.71,0,0,1,.83-1.23c.09.43.18.86.23,1.3s.08.63.18,1a2.31,2.31,0,0,0,.62,1,7.13,7.13,0,0,0,.85.6c.26.18.53.34.77.52a8.21,8.21,0,0,1,1.35,1.17c-.15,0-.28.05-.42.09a15.86,15.86,0,0,0-2.69.85c-.28.11-.55.24-.83.37a3.1,3.1,0,0,0,.75-1.79,2.39,2.39,0,0,0-.32-1.26A8.26,8.26,0,0,0,21.94,15.2Z"/><path d="M26.77,17.73a8.67,8.67,0,0,0,1.37-1.27c.28-.32.48-.61.73-.92a7.45,7.45,0,0,0,.69-.95c.42-.68.76-1.41,1.17-2.09.07-.11.64-1.58.78-1.85a7.77,7.77,0,0,1-1.19,3.89c-.52.88-2.09,3.13-2.09,3.13A8.87,8.87,0,0,0,26.77,17.73Z"/><path d="M65.62,61.19A28,28,0,0,1,69,60.28a14.91,14.91,0,0,0-1.08,2.24c-.33.86-.66,1.74-.94,2.62-.57,1.77-1.06,3.57-1.48,5.35l0,.12v.07a8.56,8.56,0,0,1,0,3,10.44,10.44,0,0,1-.87,3v0h0L64,81.33c-.22,1.52-.41,3-.58,4.57s-.33,3-.55,4.57a25.6,25.6,0,0,0,.1,4.47l-1.19,1.33-.28.31.29.28.5.47c-.11.19-.22.4-.34.59l-.54-.29-.24-.12-.12.2-.54.88-1-.1-.37-.39L60.23,97l.12-.12v-.18a34.24,34.24,0,0,1,0-4.53c.21-1.49.36-3.06.52-4.57L61.29,83c.14-1.49.25-3.06.43-4.48a15.17,15.17,0,0,0,1-3,9.69,9.69,0,0,0,.1-3.23l1.6-6.44.86-3.25C65.36,62.08,65.49,61.62,65.62,61.19Z"/><path d="M107.67,67.87a11.77,11.77,0,0,1,2.58,1.76c0,1,0,2-.08,3,0,.29,0,.57-.06.84s-.11.61-.13.86l-.16,1.74c-.22,2.29-.36,4.6-.53,6.9q-.47,6.73-.69,13.46l-1.12.25-.38.09v.38l.06,4.22-3.58-.36s0-.06,0-.11.08-.33.13-.49c.1-.33.21-.66.33-1,.22-.65.48-1.32.74-2v0l.58-4.48.63-4.47c.44-3,.92-6,1.19-9a28.87,28.87,0,0,0,.14-4.57,11.42,11.42,0,0,0-1.29-4.46,18.09,18.09,0,0,0-5.13-5.63c1.07.44,2.15.86,3.19,1.34S106.52,67.29,107.67,67.87Z"/><path d="M110.25,36.35c-.08-.41-.19-.82-.3-1.22l0,0a20.46,20.46,0,0,1,2,4.05,12.87,12.87,0,0,1,.31,4.49,14.91,14.91,0,0,1-.5,2.73c0-.18-.08-.36-.13-.54a3.54,3.54,0,0,0-.41-1.18,1.5,1.5,0,0,0-.87-.58c0-.23.09-.46.12-.69A19.21,19.21,0,0,0,110.25,36.35Z"/><path d="M119.34,95.72l0-.49-.22-2-.49-4-1.06-8c-.29-2.68-.48-5.34-.69-8s-.38-5.26-.51-7.91a3.69,3.69,0,0,0-.4-.55,4.45,4.45,0,0,0-.56-.51l-6.84-3.87-1.72-1a6,6,0,0,1-1.57-1.27A16.51,16.51,0,0,1,104,56.64a9.23,9.23,0,0,1-.94-1.75l.09,0c.06.11.13.22.19.34a34.89,34.89,0,0,0,4-5.51,16.59,16.59,0,0,0,2.36-6.36,17.93,17.93,0,0,0-.43-6.76,19.5,19.5,0,0,0-1.07-3.21,10.48,10.48,0,0,0-.8-1.44,6.4,6.4,0,0,0-1.11-1.17,46.53,46.53,0,0,0-5.57-4,25.6,25.6,0,0,0-3-1.64,18,18,0,0,0-3.23-1,64.94,64.94,0,0,0-6.85-1c-2.31-.18-4.63-.41-6.93-.47a36.42,36.42,0,0,0-13.42,3.14c-1.09.43-2.12.92-3.21,1.39a28.74,28.74,0,0,1-3.37,1,16.31,16.31,0,0,0-1.63.51c-.52.21-1,.48-1.53.74-1,.55-2,1.13-3,1.72-2,1.16-4,2.4-6,3.54-1,.59-2,1.16-3.1,1.67a5.42,5.42,0,0,1-3.67.32,10.05,10.05,0,0,1-3.24-1.57,9.13,9.13,0,0,1-2.34-2.71,18,18,0,0,1-1.55-3.18,15.35,15.35,0,0,1-.83-2.93c-.15.17-.3.33-.45.52q-.69.86-1.32,1.8l-.1-.05a12.61,12.61,0,0,1,1-2.07,5.21,5.21,0,0,1,1.6-1.8,7.5,7.5,0,0,1,1.07-.52c.38-.16.75-.27,1-.4a5.25,5.25,0,0,0,1.66-1.16,4.79,4.79,0,0,0,1.08-1.7,9.22,9.22,0,0,0,.43-2.08c.11-.73.18-1.48.25-2.22,0-.37.06-.75.06-1.1a3.33,3.33,0,0,0,0-.55,2.06,2.06,0,0,0,0-.26V14.6a20.22,20.22,0,0,0-2.9.87A14,14,0,0,0,34.43,17a7.77,7.77,0,0,0-2.1,2.1,6.85,6.85,0,0,0-1,2.76l0,.2-.11,0c-.35.19-.69.38-1,.55a8.56,8.56,0,0,1-1.1.51L29,23c.14-.09.3-.23.46-.34l.45-.36.82-.63a4.74,4.74,0,0,1,.09-1.07l-.91-.77c-.69.69-1.38,1.37-2.11,2l-.07-.07c.59-1,4.84-4.61,6.19-10.5-.31.5-1,1.31-1.28,1.81l-1.77,2.77a9.74,9.74,0,0,1-1.05,1.34c-.38.41-.76.8-1.16,1.19a21.16,21.16,0,0,1-2.53,2.16l-.05-.08c.63-.89,1.31-1.76,2-2.61a13,13,0,0,0-2.22.61c-.86.32-1.68.69-2.5,1.08s-1.57.87-2.32,1.35a7.78,7.78,0,0,0-1.89,1.63l-.1.16-.13.07a5.15,5.15,0,0,0-1.49,1.16,20.13,20.13,0,0,0-1.29,1.58c-.83,1.11-1.63,2.27-2.47,3.4l0,0,0,0a12.74,12.74,0,0,0-3.07,3.31,16.1,16.1,0,0,0-1.11,2c-.3.61-.54,1.23-.79,1.82.42.45.83.92,1.23,1.37,2-.51,4-1,6-1.32l0,.08c-1.32.56-2.67,1-4,1.49a2.76,2.76,0,0,0,1.21.69,3,3,0,0,0,.89,0l1-.13c1.26-.16,2.55-.33,3.82-.47a33.67,33.67,0,0,1,3.88-.24c.65,0,1.31,0,2,.06a7,7,0,0,1,1,.13,3.61,3.61,0,0,1,.38.1A6.8,6.8,0,0,1,27.55,37a7.27,7.27,0,0,1,1.07-.26l.94-.2c.42-.76.86-1.51,1.3-2.25l.09,0c-.24.9-.53,1.79-.83,2.68l0,.12-.19.08-1,.4a5.21,5.21,0,0,1-1,.38,6.79,6.79,0,0,1-1.08.19v0a53.49,53.49,0,0,0,5.36,8.57,21.94,21.94,0,0,0,3.78,3.27c1.34,1,2.72,2,4.1,3l2.08,1.46a21.83,21.83,0,0,0,2.12,1.24c1.48.75,3,1.47,4.54,2.19,3,1.38,6,2.69,9.07,4,0-.84-.07-1.68-.14-2.52a8.71,8.71,0,0,0-.86-1.14,4.47,4.47,0,0,0-1-.79A7.3,7.3,0,0,1,52,52.92a17.91,17.91,0,0,1-.73-2.86l.09,0a24.16,24.16,0,0,0,1.11,2.69A8.28,8.28,0,0,0,54,55c.66.64,1.53.91,2.37,1.56a3.4,3.4,0,0,1,1.42,2.69c.28,1.41.4,2.83.57,4.24s.28,2.83.33,4.29c-.1,1.43-.2,2.92-.37,4.28a14.16,14.16,0,0,0,.16,4.12v.12l-.19,5.74c-.11,1.92-.14,3.85-.41,5.77l-.63,5.73A5.19,5.19,0,0,1,56.94,95c-.17.45-.38.88-.59,1.32-.4.82-.82,1.61-1.24,2.41l2,1.11.38-.55.15-.22.23.12.55.32.42-.65-.53-.51-.24-.23.24-.27,1.2-1.31a29.19,29.19,0,0,1-.12-4.49c.19-1.56.3-3,.43-4.57l.36-4.6c.15-1.54.25-3,.48-4.63l0,0,0-.08a13.56,13.56,0,0,0,1-2.88,8.38,8.38,0,0,0,.19-3v-.11l0-.09.91-3.23,1-3.22c.34-1.07.69-2.14,1.07-3.21a21.65,21.65,0,0,1,1.34-3.1s1-2.64,1.59-3.94c-.78-1.08-1.79-2.09-2.65-3.2a12.15,12.15,0,0,1-1.11-1.92,7.48,7.48,0,0,1-.63-2.13l.08,0,1.27,1.76L66,51.54c.41.58.79,1.19,1.21,1.77s.85,1.17,1.22,1.85l.08.15-.07.14c-.75,1.44-2.65,5.15-2.79,5.61a33.47,33.47,0,0,1,5.14-1.66l2.72-.64,2.69-.71a51.38,51.38,0,0,1,5.45-1.3,23.86,23.86,0,0,1,2.81-.27,8.4,8.4,0,0,1,2.34.2,20.3,20.3,0,0,1-5.2-10.3,13.07,13.07,0,0,1,.13-4A25.45,25.45,0,0,1,84.16,35l.09,0a25.41,25.41,0,0,0-1.09,3.68,22.06,22.06,0,0,0-.59,3.77,31.23,31.23,0,0,0,.05,3.75c.1,2.72,3.15,8.15,4.67,10.17,1.46,2.21,3.95,3.14,6.35,4.19a31.85,31.85,0,0,1,3.62,1.68c1.12.57,2.36,1,3.57,1.54s2.45,1,3.65,1.54,2.38,1.12,3.57,1.76a12.08,12.08,0,0,1,3.19,2.51,8.94,8.94,0,0,1,1.83,3.62c.63,2.57,1.09,5.17,1.49,7.76s.86,5.21,1,7.84.4,5.26.58,7.89v.11l-.43,1.51,3.5,1-.75-2.73-.13-.5.54-.06.42-.08h0v-.26ZM25.57,26.62a3.71,3.71,0,0,1-1.81,2.12A3.74,3.74,0,0,1,21,28.53a.58.58,0,0,1-.31-.72,3.79,3.79,0,0,1,1.82-2.13,3.78,3.78,0,0,1,2.78.21A.56.56,0,0,1,25.57,26.62Z"/><path d="M54.88,99.33c.08,0,2,1,2,1l-.13.37h-2.4Z"/><path d="M103.72,101.4l2.38,1.16-.16.44h-2.88Z"/><path d="M115.6,99c.1,0,2.38,1.16,2.38,1.16l-.16.44H115Z"/><path d="M58.74,98.17l2,1-.13.36h-2.4Z"/></svg>