<svg id="Layer_1" data-name="Layer 1" xmlns="http://www.w3.org/2000/svg" width="128" height="128" viewBox="0 0 128 128"><title>Artboard 28</title><path d="M44.17,112.62H49a7.19,7.19,0,0,1,2.75.41,4.72,4.72,0,0,1,1.72,1.37,7.05,7.05,0,0,1,1.22,2.52,14,14,0,0,1,.45,3.84,12.43,12.43,0,0,1-.47,3.6,7.19,7.19,0,0,1-1.18,2.42,4.64,4.64,0,0,1-1.74,1.34,6.46,6.46,0,0,1-2.61.46h-5Zm2.63,2.7v10.56h2a5.17,5.17,0,0,0,1.85-.24,2.25,2.25,0,0,0,.94-.73,4.19,4.19,0,0,0,.6-1.52,12.78,12.78,0,0,0,.24-2.75,12.1,12.1,0,0,0-.25-2.8,3.61,3.61,0,0,0-.76-1.61,2.39,2.39,0,0,0-1.25-.77,10.87,10.87,0,0,0-2.15-.14Z"/><path d="M57.06,120.7a11.19,11.19,0,0,1,.85-4.7,6.3,6.3,0,0,1,2.2-2.75,5.86,5.86,0,0,1,3.3-.9A5.64,5.64,0,0,1,68,114.49a9.37,9.37,0,0,1,1.77,6.11,9.52,9.52,0,0,1-1.87,6.26,6,6,0,0,1-8.95,0A9.44,9.44,0,0,1,57.06,120.7Zm2.72-.11a6.78,6.78,0,0,0,1,4.13,3.16,3.16,0,0,0,2.59,1.37A3.13,3.13,0,0,0,66,124.73a7,7,0,0,0,1-4.2,6.78,6.78,0,0,0-1-4.1,3.09,3.09,0,0,0-2.61-1.33,3.14,3.14,0,0,0-2.62,1.34A6.83,6.83,0,0,0,59.78,120.59Z"/><path d="M78.14,122.72V120h5.69v6.36a7.08,7.08,0,0,1-2.44,1.74,7.59,7.59,0,0,1-3.17.73,6.18,6.18,0,0,1-3.41-.95A6.49,6.49,0,0,1,72.46,125a12.06,12.06,0,0,1,0-9,6.67,6.67,0,0,1,2.28-2.8,6,6,0,0,1,3.34-.92,5.59,5.59,0,0,1,3.75,1.19,5.67,5.67,0,0,1,1.82,3.5l-2.62.6A3.39,3.39,0,0,0,80,115.75a2.88,2.88,0,0,0-1.88-.65,3.34,3.34,0,0,0-2.73,1.31,6.42,6.42,0,0,0-1,4,7.25,7.25,0,0,0,1.13,4.39,3.11,3.11,0,0,0,2.62,1.29,4.06,4.06,0,0,0,1.61-.36,4.93,4.93,0,0,0,1.48-1v-2Z"/><path d="M32.9,77c-2.74,2.64-4.72,4.52-6.13,6l7.82,18.49H42.8c-.28-1.23-1-3.3-3.4-3.3a1,1,0,0,1-.84-.47c-.29-.38-.57-.66-1-1.13-1.88-2.08-4.71-5.29-4-14.25A4.26,4.26,0,0,1,36,78.85c3.58-1.88,13-7,13.3-15.37a48.86,48.86,0,0,0-10.38-1.13C39.5,64.71,39.69,70.36,32.9,77Z"/><path d="M72.51,76.59a11.22,11.22,0,0,0,1-1,24,24,0,0,0,3.68-3.86,69.68,69.68,0,0,1-13.4-2.17c.29,3.3-.09,12.07-.09,12.16,0,.29.57,6.7.94,10.85.1.38,1.42,3.3,2.55,5.94l1.51,2.17a2,2,0,0,0,1.51.76H77A3.73,3.73,0,0,0,75.91,99a3.13,3.13,0,0,0-2.36-.85,1.08,1.08,0,0,1-.76-.28C69,94.32,68.93,84.42,70.44,79.42A18.06,18.06,0,0,1,72.51,76.59Z"/><path d="M123.63,25.09a10.48,10.48,0,0,0-3.3-2,4,4,0,0,1-3-4.15,4.71,4.71,0,0,0-1-3.11c-2.17-2.46-7-5-7-5a1,1,0,0,1-.38-1.32L111.28,5c-3.68,1.6-10.57,4.81-13.49,7.45-2.64,2.36-5.47,6.7-7.92,10.47-2.17,3.4-4.06,6.32-5.76,7.83C80.15,34.24,71.19,38,58,38A82.23,82.23,0,0,1,45.25,36.6c-8-1.32-15.47-2.64-21.88.75A12.09,12.09,0,0,0,18,43.2c-.28.57-.66,1.51-1.13,2.45A33.16,33.16,0,0,0,15,51c-.1.38-.19.75-.29,1-1.79,4.62-5.85,11.31-11,19A64.14,64.14,0,0,0,15.35,54.71a.1.1,0,0,1,.1-.1.09.09,0,0,1,.09-.09.3.3,0,0,1,.19-.1.09.09,0,0,0,.09-.09h.1c.09,0,.09,0,.19.09s.09,0,.19.1h0l.09.09c.09,0,.09.1.19.19s.09.1.09.19.1.09.1.19v.28l-.85,17.36v.09l-1.51,8.4a12.54,12.54,0,0,0-.09,3.77l2.16,16.6A1.57,1.57,0,0,0,18.09,103h7.26c-.47-1.32-1.41-3.21-3.21-3.21a.94.94,0,0,1-.94-.66c-.57-2-.38-6.88-.09-10.66a7.58,7.58,0,0,1,2-4.52c1.32-1.42,3.77-4.06,8.39-8.49,6.23-5.94,5.94-10.94,5.47-12.83h0c0-.09-.09-.19-.09-.28a7.7,7.7,0,0,0-1.61-3.3,1,1,0,0,1-.09-1.32,1,1,0,0,1,1.42-.1,11.2,11.2,0,0,1,1.69,2.83h.47c4.15,0,14.53.66,21.51,5.38,4.15,2.92,13.77,3.68,18,4a19.05,19.05,0,0,1-3-6.89,1,1,0,0,1,.85-1.13,1,1,0,0,1,1.13.76,16.71,16.71,0,0,0,3.86,7.54c.85.47,1.8,2.36,1.33,13.21,0,.28.56,6.69.94,10.84.09.38,1.41,3.31,2.55,6l1.5,2.17a2,2,0,0,0,1.51.75h6.79a3.66,3.66,0,0,0-1.13-2.36,3.15,3.15,0,0,0-2.36-.85,1.06,1.06,0,0,1-.75-.28c-4-3.87-2.83-19.81-.94-24.15a33.28,33.28,0,0,1,3.2-5c2.55-3.49,5.76-7.73,6.51-13.48,1-8,2.45-24.81,2.64-28.11a8.84,8.84,0,0,1-3.11-2.83,1,1,0,0,1,1.79-.94,7.87,7.87,0,0,0,2.83,2.35l6.42,2.74a6.83,6.83,0,0,0,3.11.47l7.26-.56a2.53,2.53,0,0,0,1.89-1.14l.56-.94A1.77,1.77,0,0,0,123.63,25.09Zm-10.37-4.43a1.71,1.71,0,0,1-1.79-1.7,1.78,1.78,0,0,1,1.79-1.7,1.71,1.71,0,0,1,1.79,1.7A1.77,1.77,0,0,1,113.26,20.66Z"/></svg>