<svg id="Layer_1" data-name="Layer 1" xmlns="http://www.w3.org/2000/svg" width="128" height="128" viewBox="0 0 128 128"><title>Artboard 29</title><path d="M25,112.62h4.82a7.19,7.19,0,0,1,2.75.41,4.72,4.72,0,0,1,1.72,1.37,7.05,7.05,0,0,1,1.22,2.52,14,14,0,0,1,.45,3.84,12.43,12.43,0,0,1-.47,3.6,7.19,7.19,0,0,1-1.18,2.42,4.64,4.64,0,0,1-1.74,1.34,6.46,6.46,0,0,1-2.61.46H25Zm2.63,2.7v10.56h2a5.14,5.14,0,0,0,1.84-.24,2.25,2.25,0,0,0,.94-.73,4.19,4.19,0,0,0,.6-1.52,16.16,16.16,0,0,0,0-5.55,3.73,3.73,0,0,0-.77-1.61,2.39,2.39,0,0,0-1.25-.77,10.87,10.87,0,0,0-2.15-.14Z"/><path d="M37.89,120.7a11.19,11.19,0,0,1,.85-4.7,6.3,6.3,0,0,1,2.2-2.75,5.86,5.86,0,0,1,3.3-.9,5.64,5.64,0,0,1,4.57,2.14,9.37,9.37,0,0,1,1.77,6.11,9.52,9.52,0,0,1-1.87,6.26,5.49,5.49,0,0,1-4.46,2,5.56,5.56,0,0,1-4.49-2A9.44,9.44,0,0,1,37.89,120.7Zm2.72-.11a6.78,6.78,0,0,0,1,4.13,3.16,3.16,0,0,0,2.59,1.37,3.13,3.13,0,0,0,2.59-1.36,7,7,0,0,0,1-4.2,6.78,6.78,0,0,0-1-4.1,3.09,3.09,0,0,0-2.61-1.33,3.14,3.14,0,0,0-2.62,1.34A6.83,6.83,0,0,0,40.61,120.59Z"/><path d="M52.91,128.58v-16h2.56l5.36,10.66V112.62h2.46v16H60.63l-5.26-10.41v10.41Z"/><path d="M66.32,128.58v-16H69v7.1l5.35-7.1h3.56l-4.93,6.22,5.19,9.74H74.71l-3.61-7.5L69,123.75v4.83Z"/><path d="M79.71,128.58v-16h9.71v2.7H82.35v3.54h6.57v2.68H82.35v4.34h7.31v2.7Z"/><path d="M95.55,128.58v-6.72l-4.78-9.24h3.09l3.07,6.31,3-6.31h3l-4.81,9.26v6.7Z"/><path d="M123.87,48a12.56,12.56,0,0,0-.85-2.53c-.38-.83-.82-1.66-1.28-2.47-.22-.41-.46-.82-.71-1.22l-.19-.3a2.43,2.43,0,0,1-.2-.35,2.29,2.29,0,0,1-.14-.27,14.62,14.62,0,0,1-1.15,2.31,7.61,7.61,0,0,1-1.1,1.4,5.26,5.26,0,0,1-.74.58,3.61,3.61,0,0,1-.44.22l-.38.17a32.55,32.55,0,0,0-2.87,1.67c-.48.27-.95.55-1.4.84a8.72,8.72,0,0,0-1,.72c.4.15.82.3,1.23.43l.54.17.28.08a1.3,1.3,0,0,1,.44.22,3,3,0,0,1,.77,1.14c.34.74.56,1.48.85,2.16a3,3,0,0,0,.5.89s0,0,.06,0l.11.06a1.17,1.17,0,0,0,.24.09,1.78,1.78,0,0,0,.5.1,2.79,2.79,0,0,0,1.86-.75l0,0c-.21-.43-.43-.86-.63-1.3-.41-.88-.81-1.76-1.17-2.66a.09.09,0,0,1,.06-.12s.07,0,.1,0c.64.73,1.25,1.49,1.84,2.26.3.38.59.77.87,1.15l.42.56.1,0,.3-.14.57-.31a7.91,7.91,0,0,0,1.05-.74,7.47,7.47,0,0,0,.88-.9c.13-.15.25-.32.37-.49l.17-.26.12-.21A4.07,4.07,0,0,0,123.87,48ZM122,50.46c-.35,0-.72-.59-.83-1.42s.08-1.55.43-1.59,0,1.07.83,1.43S122.37,50.41,122,50.46Z"/><path d="M113.12,46.16a7.39,7.39,0,0,1,1.56-.85,16.47,16.47,0,0,1,1.65-.63l.43-.13a2.33,2.33,0,0,0,.33-.14,3.22,3.22,0,0,0,.65-.41,7.44,7.44,0,0,0,1.14-1.17,14.48,14.48,0,0,0,1.49-2.26l-.06-.14c-.74-1.85-1.23-3.68-1.9-5.5a42.59,42.59,0,0,1-1.82-5.53c-.06-.24-.1-.48-.14-.73s-.08-.41-.13-.62a7.35,7.35,0,0,0-.43-1.22,8.54,8.54,0,0,0-1.4-2.23,7.54,7.54,0,0,0-4.59-2.66c-.22.65-.46,1.3-.74,1.94a.09.09,0,0,1-.12.05.09.09,0,0,1-.06-.08,36,36,0,0,1,.11-3.9c.1-1.29.23-2.57.41-3.85s.44-2.53.7-3.79c.22-1,.43-2.05.67-3.06a2.3,2.3,0,0,0-1,.45,6,6,0,0,0-1.43,1.54,13.73,13.73,0,0,0-1.62,4l-1.28,4.07A34.46,34.46,0,0,1,104,23.43a.09.09,0,0,1-.12.05s-.06-.05-.06-.08a15.35,15.35,0,0,1,0-1.8l-1.65,1c-1,.54-1.9,1.09-2.87,1.58s-1.95,1-2.95,1.46c-.51.22-1,.45-1.53.65s-1,.39-1.48.61c-1.94.88-3.81,1.93-5.7,3-.94.55-1.9,1.06-2.87,1.58s-1.93,1-3,1.44a19,19,0,0,1-3.33.72c-1.1.15-2.18.27-3.28.37-2.19.19-4.37.31-6.54.45s-4.36.26-6.54.37S57.7,35,55.5,35a45,45,0,0,1-6.58-.65q-3.26-.51-6.46-1.18t-6.41-1.39c-1.06-.23-2.12-.5-3.18-.76l-1.6-.4c-.53-.14-1.05-.26-1.63-.45-1.11-.38-2.08-.85-3-1.14a6.9,6.9,0,0,0-2.84-.31,7.44,7.44,0,0,0-1.43.3l-1.55.49c-1,.33-2,.67-3,1A27.34,27.34,0,0,0,12,33.3a13.14,13.14,0,0,0-2.41,2.05A7.55,7.55,0,0,0,8,38s0,0,0,0a20.22,20.22,0,0,0,.69,6.66,60.1,60.1,0,0,0,2,6.45c.75,2.13,1.63,4.21,2.51,6.29S15.05,61.6,16,63.63l.06.14v.14a16.46,16.46,0,0,1,.1,2.75,6.1,6.1,0,0,1-.94,2.8c-.93,1.42-1.65,3-2.47,4.6a21,21,0,0,1-1.36,2.32,4.22,4.22,0,0,0-.52,2.34,11.65,11.65,0,0,0,1.23,5l0,0v.08c0,1.22.11,2.46.21,3.68s.24,2.46.38,3.69c.27,2.38.57,4.77.88,7.14.57.62,1.12,1.26,1.69,1.89l3.59-1L17.73,97.5l-.12-.16,0-.21C17,93.25,16.31,89.45,16,85.46l0-.39c0-.14,0-.34,0-.51a3.1,3.1,0,0,1,.11-.5l.13-.4c.18-.51.36-1,.56-1.43.39-.91.8-1.81,1.21-2.7l1.23-2.64.3-.7a5.47,5.47,0,0,1,.46-.75c.31-.43.64-.82,1-1.2,1.33-1.51,2.7-2.9,4.08-4.3.7-.7,1.4-1.37,2-2.09s1.24-1.48,1.81-2.26c.29-.38.56-.78.82-1.18a7.06,7.06,0,0,0,.69-1.21c.36-.93.77-1.81,1.15-2.71s.77-1.79,1.13-2.7a17.59,17.59,0,0,0,.93-2.73h0a.1.1,0,0,1,.11-.08.11.11,0,0,1,.07.1,17.85,17.85,0,0,1-.77,2.85c-.31.91-.64,1.82-1,2.72a57.68,57.68,0,0,0,8.43,4.75,31.62,31.62,0,0,0,9.43,2.84,84,84,0,0,0,9.9.32,12.19,12.19,0,0,0,4.74-1,22.94,22.94,0,0,0,2.19-1.15c.54-.31,1.53-.81,2.27-1.22.13-.92.28-1.85.46-2.75.3-1.44.63-2.91,1-4.29v0a.09.09,0,0,1,.12-.05.09.09,0,0,1,.06.09c-.13,1.5-.31,2.93-.4,4.4s-.2,2.9-.24,4.36,0,2.89,0,4.33a35.21,35.21,0,0,0,.5,4.25v.08c.09,1,.17,2,.16,3.1a6.48,6.48,0,0,1-.2,1.73,2.68,2.68,0,0,1-.49.93l-.25.31s0,0,0,0h0s0,0,0,0a4.16,4.16,0,0,0-.14,1.23,14.16,14.16,0,0,0,.07,1.44,11.87,11.87,0,0,0,.58,2.81l.07.17,0,.11c-.15.89-.25,1.83-.37,2.75s-.18,1.86-.26,2.79l-.19,2.79-.12,2.65c.77.71,1.53,1.41,2.31,2.1l4.17-.76v0c-.79-.6-1.59-1.2-2.36-1.81l-.26-.2,0-.36c-.07-1.51-.15-3-.19-4.53l-.16-4.52v-.2l.09-.21c.6-1.36,1.14-2.78,1.63-4.18a21,21,0,0,0,.64-2.1c.08-.34.15-.69.2-1a3.54,3.54,0,0,0,0-.76l0-.52.12-.22a27.21,27.21,0,0,0,1.41-2.92c.43-1,.84-2,1.23-3.07s.74-2.08,1-3.13c.15-.53.29-1,.4-1.58A8.35,8.35,0,0,0,79.7,67l0-.31.17-.18a19.47,19.47,0,0,0,1.42-1.8c.46-.63.91-1.29,1.35-1.95.91-1.29,1.78-2.62,2.68-3.93a.1.1,0,0,1,.13,0,.08.08,0,0,1,0,.11c-.67,1.44-1.41,2.85-2.15,4.27-.38.7-.77,1.39-1.18,2.09S81.4,66.46,81,67.07a6.72,6.72,0,0,1,0,1.2,25.21,25.21,0,0,0,5-5.54l1.14-1.64a18.71,18.71,0,0,1,1.29-1.71,3,3,0,0,1,.51-.47,1.12,1.12,0,0,0,.23-.21,3.07,3.07,0,0,0,.44-.68c.28-.55.56-1.18.86-1.8a40,40,0,0,1,4.44-7.1,15.86,15.86,0,0,1,3.06-2.79,20.41,20.41,0,0,1,2.59-1.62,8.86,8.86,0,0,1-.89-1.07,8.46,8.46,0,0,1-1.16-2.33,5.5,5.5,0,0,1-.25-2.54.1.1,0,0,1,.12-.07.09.09,0,0,1,.07.06,8.57,8.57,0,0,0,1,2.1,10.67,10.67,0,0,0,1.43,1.76,7.25,7.25,0,0,0,3.5,2.16l.4.08.17.22a10.85,10.85,0,0,0,3.49,2.45c.86.42,1.76.78,2.67,1.12a3.55,3.55,0,0,1,.73-1.25A6.68,6.68,0,0,1,113.12,46.16ZM110.79,33a5,5,0,0,1-.84-.58,10.35,10.35,0,0,0,1-.38,1.49,1.49,0,0,1,1.57-.5,1.53,1.53,0,0,1,1.06.87,4.35,4.35,0,0,1,1.39,2,12.13,12.13,0,0,0-1.46-.94,1.49,1.49,0,0,1-1.65.6A1.55,1.55,0,0,1,110.79,33Z"/><path d="M80.89,68.69c-.09.58-.2,1.14-.32,1.7q-.39,1.68-.9,3.3c-.35,1.09-.71,2.17-1.13,3.23s-.78,1.9-1.27,2.86a4.89,4.89,0,0,1,0,1.09A9.08,9.08,0,0,1,77,82.11a23.25,23.25,0,0,1-.7,2.28c-.25.74-.54,1.46-.85,2.18s-.56,1.29-.87,2v4.31c0,1.4,0,2.81,0,4.22l1.52,1.35,4.32-.78c-.14-.08-2.21-2.36-2.21-2.36l-.15-.12v-.21l-.43-9.06v-.13l.07-.16c.58-1.38,1.11-2.8,1.57-4.23a21,21,0,0,0,.57-2.13,10.37,10.37,0,0,0,.16-1,3.1,3.1,0,0,0,0-.77L79.93,77l.15-.28c.5-.92,1-1.92,1.42-2.91s.88-2,1.3-3.05.82-2.06,1.21-3.1l.21-.62a11.47,11.47,0,0,1-3.35,1.64S80.89,68.68,80.89,68.69Z"/><path d="M29.61,66.11c-.53.83-1.09,1.65-1.69,2.44S26.65,70.09,26,70.83c-1.28,1.48-2.59,2.94-3.78,4.44-.3.37-.59.75-.84,1.12a4.15,4.15,0,0,0-.29.51l-.25.66c-.38.92-.76,1.81-1.16,2.71s-.77,1.79-1.13,2.68c-.18.44-.35.89-.49,1.31A1.94,1.94,0,0,0,18,85.34c.14,1.86.43,3.82.66,5.74l.73,5.61,1.07,1.58q1-.48,2-.9L24,96.82l-.36-.49c-.32-.43-.62-.88-.9-1.34l-.1-.17,0-.09c-.24-1.32-.27-2.66-.39-4a39.82,39.82,0,0,0-.6-3.94A20.38,20.38,0,0,1,21,82.74a4.33,4.33,0,0,1,.15-1.15,8.1,8.1,0,0,1,.35-1c.27-.65.55-1.27.86-1.88a18.89,18.89,0,0,1,2.2-3.46,9.23,9.23,0,0,1,.75-.81c.37-.33.55-.45.81-.67.46-.41.94-.85,1.39-1.31a28.47,28.47,0,0,0,2.55-2.93,10.31,10.31,0,0,0,1.51-2.63,13.61,13.61,0,0,1-1.26-1.94C30.1,65.34,29.86,65.72,29.61,66.11Z"/><path d="M9.13,61.26a16.27,16.27,0,0,0-.62-2.52,5.68,5.68,0,0,0-1.06-2.07l-.19-.2,0-.18A14,14,0,0,1,7,53.2c0-1,.06-2,.13-3s.17-2,.34-2.94a20.45,20.45,0,0,1,.46-2.2c0-.07,0-.14,0-.21a26.32,26.32,0,0,1-.3-3.44,13.84,13.84,0,0,1,.25-3,8.56,8.56,0,0,0-.66,1.63c-.21.71-.38,1.44-.55,2.17s-.3,1.48-.43,2.22l-.38,2.23c-.2,1.49-.41,3-.52,4.46-.06.74-.12,1.48-.13,2.21a9.07,9.07,0,0,0,.09,2.06l.07.33-.12.2a10.1,10.1,0,0,0-.87,2.8,18.93,18.93,0,0,0-.3,3.1A16.19,16.19,0,0,0,4.26,65a9.27,9.27,0,0,0,1,2.9V68a8,8,0,0,1,.06,3.55c0,.09-.06.19-.08.29A13.1,13.1,0,0,0,7,70.54a7.31,7.31,0,0,0,2.45-4.13,9.17,9.17,0,0,0,.05-1.21c0-.44,0-.87,0-1.31C9.38,63,9.27,62.13,9.13,61.26Z"/><path d="M110,21.74a6,6,0,0,1,2.87.31c.61-1.21,1.29-2.34,2-3.45l1.07-1.83c.36-.6.74-1.18,1.05-1.79a12.94,12.94,0,0,0,.75-1.84,3.92,3.92,0,0,0,.19-.94,2.26,2.26,0,0,0,0-.26,5,5,0,0,0-.49.53,8.42,8.42,0,0,0-.6.91c-.36.64-.62,1.34-1,2v0l-.2.17a14,14,0,0,1-1.28,1c-.46.29-.92.58-1.4.85a20.54,20.54,0,0,1-2,1q-.23.88-.48,1.77C110.32,20.7,110.17,21.22,110,21.74Z"/><path d="M81.22,31.47c.9-.41,1.88-1,2.82-1.46l2.85-1.56a53.48,53.48,0,0,1,5.94-2.89c.51-.21,1.08-.39,1.57-.55s1-.35,1.51-.54c1-.38,2-.78,3-1.2l3-1.25,2-.85c.07-.74.17-1.47.3-2.2.07-.39.15-.78.24-1.16-2,.88-4,1.66-6,2.42-2.32.9-4.8,1.41-7,2.52s-4.17,2.68-6.34,4a14.46,14.46,0,0,1-3.53,1.65,8,8,0,0,1-3.36.21c-.06.69-.12,1.4-.21,2.09s-.15,1.19-.24,1.79l.5-.1A24.07,24.07,0,0,0,81.22,31.47Z"/><path d="M59.82,69.14a64,64,0,0,1-10-.43,32.41,32.41,0,0,1-9.5-3.06c-2.92-1.42-5.88-2.57-8.5-4.44-.33.9-.5,1.32-.81,2.21a8.73,8.73,0,0,1-.59,1.35c.4.29.68.54,1,.82l1,.84c.68.54,1.34,1.08,2,1.59s1.37,1,2.08,1.48l2.14,1.37a16.08,16.08,0,0,0,4.6,2.23,11.1,11.1,0,0,0,2.56.34,17.72,17.72,0,0,0,2.6-.2c1.72-.25,3.44-.51,5.15-.79s3.42-.63,5.13-.92c3.26-.53,6.51-1.07,9.84-1.47,0-1.1.08-2.2.2-3.29,0-.48.12-1,.19-1.44a41.46,41.46,0,0,1-4.25,2.57A12.29,12.29,0,0,1,59.82,69.14Z"/><path d="M21.36,102.61l-1.45-2-3.74.9.46,1.48h5l-.29-.38Z"/><path d="M24.34,98.13c-.54.11-1.07.19-1.61.27s-1.39.17-2.09.21l.19.28a.75.75,0,0,1,.24.23l1.51,2.07H26.5l-2.05-2.81A1.89,1.89,0,0,1,24.34,98.13Z"/><path d="M120.26,53.3l0,.07s0,0,0,0,0,0,0,0S120.28,53.31,120.26,53.3Z"/><polygon points="72.4 101.22 72.95 103 77.97 103 76.36 100.8 72.4 101.22"/><path d="M76.86,99.18l2.06,2h4s-2-2.94-2.19-3.11Z"/></svg>