<svg id="Layer_1" data-name="Layer 1" xmlns="http://www.w3.org/2000/svg" width="128" height="128" viewBox="0 0 128 128"><title>Artboard 30</title><path d="M0,111.92H4.77a7.16,7.16,0,0,1,2.74.4,4.52,4.52,0,0,1,1.69,1.36,7,7,0,0,1,1.22,2.5,13.72,13.72,0,0,1,.44,3.8,12.23,12.23,0,0,1-.46,3.57A7.26,7.26,0,0,1,9.23,126a4.62,4.62,0,0,1-1.72,1.33,6.45,6.45,0,0,1-2.6.45H0Zm2.61,2.67v10.46h2a5.09,5.09,0,0,0,1.83-.23,2.21,2.21,0,0,0,.93-.72,4.12,4.12,0,0,0,.6-1.51,12.52,12.52,0,0,0,.24-2.73,11.93,11.93,0,0,0-.25-2.77,3.63,3.63,0,0,0-.75-1.59,2.39,2.39,0,0,0-1.25-.77,10.51,10.51,0,0,0-2.12-.14Z"/><path d="M13.32,127.73V111.92h5.51a7.77,7.77,0,0,1,3,.42,3.42,3.42,0,0,1,1.49,1.48,5.1,5.1,0,0,1,.58,2.52,4.67,4.67,0,0,1-.89,3,3.93,3.93,0,0,1-2.53,1.42,6.29,6.29,0,0,1,1.39,1.32,18.18,18.18,0,0,1,1.5,2.58L25,127.73H21.84L20,124.29A23.53,23.53,0,0,0,18.56,122a1.91,1.91,0,0,0-.78-.64,3.48,3.48,0,0,0-1.31-.18h-.54v6.6Zm2.61-9.13h1.94a10.19,10.19,0,0,0,2.27-.15,1.49,1.49,0,0,0,.78-.63,2.36,2.36,0,0,0,.3-1.27,2.19,2.19,0,0,0-.3-1.21,1.47,1.47,0,0,0-.82-.63,10.17,10.17,0,0,0-2.12-.12H15.93Z"/><path d="M29.35,127.73v-6.66l-4.74-9.15h3.06l3,6.25,3-6.25h3L32,121.09v6.64Z"/><path d="M38.17,127.73V111.92h2.61v15.81Z"/><path d="M43.54,127.73V111.92h2.54l5.31,10.56V111.92h2.44v15.81H51.2L46,117.42v10.31Z"/><path d="M62.84,121.93v-2.68h5.65v6.3a6.94,6.94,0,0,1-2.42,1.73,7.44,7.44,0,0,1-3.14.72,6.13,6.13,0,0,1-3.39-.94,6.41,6.41,0,0,1-2.32-2.83,10.64,10.64,0,0,1-.86-4.43,10.4,10.4,0,0,1,.87-4.46,6.56,6.56,0,0,1,2.25-2.78,5.9,5.9,0,0,1,3.32-.91,5.09,5.09,0,0,1,5.51,4.65l-2.59.59A3.38,3.38,0,0,0,64.66,115a2.82,2.82,0,0,0-1.86-.64,3.3,3.3,0,0,0-2.71,1.29,6.32,6.32,0,0,0-1,4A7.14,7.14,0,0,0,60.18,124a3.08,3.08,0,0,0,2.6,1.28,4,4,0,0,0,1.59-.36,5,5,0,0,0,1.47-1v-2Z"/><path d="M76.39,127.73V111.92H81.9a7.86,7.86,0,0,1,3,.42,3.35,3.35,0,0,1,1.48,1.48,5.1,5.1,0,0,1,.59,2.52,4.73,4.73,0,0,1-.89,3,4,4,0,0,1-2.53,1.42A6.51,6.51,0,0,1,85,122.07a20.39,20.39,0,0,1,1.5,2.58L88,127.73H84.92L83,124.29A21.63,21.63,0,0,0,81.63,122a2,2,0,0,0-.77-.64,3.54,3.54,0,0,0-1.32-.18H79v6.6ZM79,118.6h1.94a10.13,10.13,0,0,0,2.27-.15,1.51,1.51,0,0,0,.79-.63,2.36,2.36,0,0,0,.3-1.27,2.19,2.19,0,0,0-.3-1.21,1.51,1.51,0,0,0-.82-.63,10.37,10.37,0,0,0-2.13-.12H79Z"/><path d="M101.38,127.73H98.54l-1.13-3.58H92.22l-1.08,3.58H88.36l5-15.81h2.77Zm-4.82-6.26-1.79-5.87L93,121.47Z"/><path d="M111.28,121.92l2.53,1a7.09,7.09,0,0,1-2,3.88,5,5,0,0,1-3.4,1.22,5,5,0,0,1-4.11-2,9.44,9.44,0,0,1-1.81-6.09,10,10,0,0,1,1.82-6.33,5.19,5.19,0,0,1,4.27-2,4.93,4.93,0,0,1,3.65,1.48,6.47,6.47,0,0,1,1.53,3.14l-2.59.76a3.43,3.43,0,0,0-1-2,2.45,2.45,0,0,0-1.74-.68,2.78,2.78,0,0,0-2.35,1.25,7.24,7.24,0,0,0-.9,4.13,7.67,7.67,0,0,0,.88,4.25,2.7,2.7,0,0,0,2.3,1.26,2.39,2.39,0,0,0,1.79-.8A5.13,5.13,0,0,0,111.28,121.92Z"/><path d="M116.3,127.73V111.92h2.61v7l5.3-7h3.53l-4.89,6.16,5.15,9.65h-3.39L121,120.3,118.91,123v4.78Z"/><path d="M73.71,87.16a7.81,7.81,0,0,1-2.5,2.32,11,11,0,0,1-3.69,1.32,18.64,18.64,0,0,1-2.11.23l-.44.11c1.79.54,3.56,1.1,5.31,1.71l.1,0a14.76,14.76,0,0,1,2.56-1.5,13.28,13.28,0,0,1,1.48-.57c.25-.08.53-.15.71-.22a1.92,1.92,0,0,0,.53-.32A1.6,1.6,0,0,0,75.8,88,2.45,2.45,0,0,0,73.71,87.16Z"/><path d="M55.27,80A6.28,6.28,0,0,1,54,78.22a9.91,9.91,0,0,1-.71-2,1.55,1.55,0,0,1-.06-.23,14.62,14.62,0,0,0-1.34,4,9.47,9.47,0,0,0,0,2.91,7.69,7.69,0,0,0,1,2.73,8.22,8.22,0,0,0,2,2.21,12,12,0,0,0,2.63,1.58,14.05,14.05,0,0,0,1.74.65,5.44,5.44,0,0,1-.9-.7,4,4,0,0,1-.92-1.36,4.19,4.19,0,0,1,0-3.15,7.1,7.1,0,0,1,1.75-2.61c0,.07,0,.22.05.28a2.4,2.4,0,0,0,0,.24,4.28,4.28,0,0,0,.48,1.35A2.71,2.71,0,0,0,61,85.41a3.6,3.6,0,0,0,2.83-2.18,6.59,6.59,0,0,0,.53-1.82,10.09,10.09,0,0,0,.11-1.89l-.07-1.69.86,1.45a17.45,17.45,0,0,1,.91,1.77,18,18,0,0,1,.68,1.86,12.8,12.8,0,0,1,.43,1.93,8.34,8.34,0,0,1,.06,1.32l.28-.25c.25-.26.49-.55.73-.84s.46-.59.68-.89l.67-.93.28-.4.09.47c.09.5.2,1,.27,1.51a4,4,0,0,1-.08,1.55,6.45,6.45,0,0,1-.57,1.44,5.75,5.75,0,0,1-.94,1.26,7.28,7.28,0,0,1-2.16,1.5l.86-.19A10.82,10.82,0,0,0,70.89,89a7.31,7.31,0,0,0,2.42-2.62,9.13,9.13,0,0,0,1-3.39,13.37,13.37,0,0,0-.18-3.57c0-.3-.11-.6-.18-.89s-.13-.59-.21-.91-.13-.62-.18-.95-.08-.64-.11-1a11.89,11.89,0,0,1,.95-5.78c-.24.17-.48.34-.71.53A8.42,8.42,0,0,0,72,72.56a14.63,14.63,0,0,0-1.46,5.35l-.14,1.29-.88-1c-1-1.12-2.23-2.13-3.3-3.34-.27-.29-.5-.64-.76-1l-.33-.53L65,73.16l-.12-.29c-.08-.2-.17-.39-.24-.58l-.15-.61a2.81,2.81,0,0,1-.08-.31l0-.28,0-.61a11.28,11.28,0,0,1,1.1-4.61c.28-.74.66-1.42,1-2.12l.54-1c-.48.32-1,.64-1.42,1-.77.6-1.56,1.18-2.27,1.85a26.73,26.73,0,0,0-2.09,2,21.63,21.63,0,0,0-1.78,2.29,13.83,13.83,0,0,0-2.19,5.23,11.55,11.55,0,0,0,.44,5.54l.27.81-.84-.32A5.2,5.2,0,0,1,55.27,80Z"/><path d="M54.33,95l-.42.19-.62.28-.16.07-.12.07a1.68,1.68,0,0,0-.92,1.77,1.63,1.63,0,0,0,.51.83,2.22,2.22,0,0,0,1,.46,2.36,2.36,0,0,0,1.12-.07c.27-.08.56-.19.85-.29a2.49,2.49,0,0,0,.3-1,3.87,3.87,0,0,0,0-.68,1.44,1.44,0,0,0-.22-.71A2.28,2.28,0,0,0,54.33,95Z"/><path d="M55.19,94.59a3,3,0,0,1,1.24.8,2.94,2.94,0,0,1,.62,1,1.86,1.86,0,0,1,0,1.21,1.47,1.47,0,0,1-.1.22l1.61-.57c1.55-.52,3.1-1.06,4.65-1.57l-5.76-2.34A24.32,24.32,0,0,1,55.19,94.59Z"/><path d="M72.68,94.77c-.91-.39-1.82-.76-2.72-1.17-1.77-.76-3.53-1.58-5.27-2.41a7.61,7.61,0,0,1-1.85.11A7.25,7.25,0,0,1,61.23,91l-.38-.12-.43-.06A16.21,16.21,0,0,1,57.29,90a11.31,11.31,0,0,1-4.56-3.1,1.7,1.7,0,0,0-.76.46,2.87,2.87,0,0,0-.35.6l-.31.65a5.73,5.73,0,0,0-.29.63,1,1,0,0,0,0,.63,1.35,1.35,0,0,0,.94.85l5.56,2,11.1,4.12,2.13.79a1.82,1.82,0,0,1,0-1.06,2.83,2.83,0,0,1,.61-1,3,3,0,0,1,1.27-.81Z"/><path d="M75.39,95.9l-1.72-.72-.12,0a2.4,2.4,0,0,0-1.34,1,1.44,1.44,0,0,0-.22.7,5.35,5.35,0,0,0,0,.69,2.61,2.61,0,0,0,.15.63l.66.24.7.25a2.13,2.13,0,0,0,.56.16,1.17,1.17,0,0,0,.89-.28.54.54,0,0,0,.14-.16s0-.06,0-.09l.08-.16.33-.64.16-.32c0-.1.13-.24.14-.28a.83.83,0,0,0,0-.38A.87.87,0,0,0,75.39,95.9Z"/><path d="M109.92,0V6.21C106.5,7,103,7.59,99.51,8.05c-1.4.19-2.81.36-4.21.52l.06-.79c0-.55.12-1.06.17-1.58a.89.89,0,0,0-.18-.75,1,1,0,0,0-.74-.29l-.86,0-.48,0-.09.51-.47,2.68-.09.58C91,9,89.34,9.17,87.7,9.3c-4.86.4-9.71.62-14.58.73,0-.13-.05-.26-.07-.39L72.75,8l0-.11v0a.43.43,0,0,0,0-.14.23.23,0,0,0-.05-.1,1,1,0,0,0-.33-.36.75.75,0,0,0-.14-.08.44.44,0,0,0-.13,0,.57.57,0,0,0-.39,0h0a.29.29,0,0,1-.12,0,4.39,4.39,0,0,0-.52,0,1.32,1.32,0,0,0-.65.32l-.2.07a1.37,1.37,0,0,0-.33.15.84.84,0,0,0-.26.27.67.67,0,0,0-.08.32,1.7,1.7,0,0,0,.1.53l.11.41.23.87c-2,0-4,0-6,0H52c-3.63,0-7.27-.06-10.89-.22,0-.11,0-.22,0-.33l0-1.17c.06-.78.11-1.56.18-2.34l0-.43L41,5.7a.53.53,0,0,0-.14-.11,1.11,1.11,0,0,0-.42-.21,2.29,2.29,0,0,0-.4-.06l-.33,0a2.14,2.14,0,0,0-.43,0,1,1,0,0,0-.32.13.9.9,0,0,0-.28.31,1.66,1.66,0,0,0-.12.48l0,.33c-.05.82-.08,1.64-.08,2.46v.71a87.62,87.62,0,0,1-10-1.38C25,7.72,21.45,6.91,18,6.19V0H12V100h6V39.3c3.38.86,6.88,1.54,10.32,2.17,1.22.21,2.44.41,3.67.6-.08.48-.17,1-.26,1.41v.13a2.14,2.14,0,0,0-.34.09,2.09,2.09,0,0,0-1,.85c-.09.13-.17.27-.23.36a1.66,1.66,0,0,1-.17.22,3.4,3.4,0,0,0-.29.33c-.06.07-.16.17-.29.34a2,2,0,0,0-.18.33.21.21,0,0,0,0,.11l0,.06,0,.11-.11.4-.21.81-.21.8a5.25,5.25,0,0,0-.14.87c0,.58-.07,1.05-.14,1.59l-.15,1.59a5.84,5.84,0,0,0-.06.89,3.67,3.67,0,0,0,.14.93,4.9,4.9,0,0,0,.33.84l.36.72a14.1,14.1,0,0,0,.8,1.47c.29.47.58.93.89,1.38s.62.91.93,1.35a1.53,1.53,0,0,0,.73.61,2.1,2.1,0,0,0,.5.09l.25,0,.12,0h0a3,3,0,0,1,.35.09l.41.13.79.26.21.06.05,0h.1a.66.66,0,0,0,.2,0,1.47,1.47,0,0,0,.5-.26,1.59,1.59,0,0,0,.57-.85l.43-1.55.1-.38a1.34,1.34,0,0,1,.13-.32l.17-.36a.9.9,0,0,0,.1-.25.74.74,0,0,0,0-.25h0a2.35,2.35,0,0,0,.18-.58l.06-.6a8.68,8.68,0,0,1,.19-1,1.16,1.16,0,0,0,.07-.45A1.56,1.56,0,0,0,37.8,54l-.07-.29,0-.24a6.43,6.43,0,0,1-.13-1,2.8,2.8,0,0,1,0-.5c0-.2,0-.41,0-.61,0-.4,0-.79,0-1.17v-.5c0-.05,0-.1,0-.15s.09-.17.13-.27a1.88,1.88,0,0,0,.16-.81,1.21,1.21,0,0,0-.44-.83l-.21-.18-.22,0h-.05l-.17-.08a2.65,2.65,0,0,1-.44-.25,2.13,2.13,0,0,1-.62-.77,2.84,2.84,0,0,1-.17-.49l-.07-.31a1,1,0,0,0-.19-.32,2.79,2.79,0,0,0-.49-.42l-.27-.15-.13-.07c-.05,0-.09-.05-.1,0,0-.26.08-.48.11-.72a2.55,2.55,0,0,1,.09-.71c.06-.2.12-.4.19-.61,1.77.25,3.56.49,5.35.68,4.29.51,8.6.86,12.91,1.09l0,.36-.24.07a2.59,2.59,0,0,0-1.19,1c-.23.39-.38.75-.53,1s-.33.6-.48.91c0,.06,0,0,0,0h0l0,0h0l-.09,0a1.73,1.73,0,0,0-.71.75,1.55,1.55,0,0,0-.11.57c0,.22,0,.21,0,.27a.61.61,0,0,1,0,.14s0,0,0,.07,0,.15,0,.23a2,2,0,0,0,.09.82c0,.11.08.22.12.31s.06.16.13.3l.09.2,0,.53L50,53c0,.18,0,.35,0,.55l0,.48a.68.68,0,0,0-.07.26v.19l0,.13,0,.48a5.36,5.36,0,0,0,.23,1l.29.88c0,.14.1.31.13.41s0,.28.09.46l0,.1a.42.42,0,0,0,.08.15c.05.07.09.09.1.11h0l0,0,.06.09.22.39a6,6,0,0,1,.41.8c.06.13.11.27.16.41s.07.26.13.44a2.07,2.07,0,0,0,.56.88,1.57,1.57,0,0,0,1,.4,2,2,0,0,0,.54-.07,3.26,3.26,0,0,1,.45-.09c.3-.06.61-.09.92-.13a9.18,9.18,0,0,0,1-.11,1.49,1.49,0,0,0,1-.64l.52-.75c.17-.24.39-.5.56-.79a7.9,7.9,0,0,0,.47-.85c.28-.58.49-1.17.73-1.73a8.45,8.45,0,0,0,.61-1.86,3.1,3.1,0,0,0,0-.61,2.55,2.55,0,0,0-.12-.55q-.12-.42-.27-.84c-.16-.56-.26-1.16-.43-1.77a12.32,12.32,0,0,0-.65-1.79A14,14,0,0,0,58,47.37a9.84,9.84,0,0,0-1.12-1.53,2.82,2.82,0,0,0-.77-.59,3.05,3.05,0,0,0-.45-.16c-.12,0-.12-.16-.08-.32l.06-.43c2.79.13,5.59.2,8.37.24,2,0,4,0,6,0s4-.11,6-.17c4-.22,7.94-.46,11.89-.9q2.91-.31,5.81-.72V43l0,.87-.24.07A2.4,2.4,0,0,0,92.23,45a11.05,11.05,0,0,0-.52,1c-.16.3-.33.59-.48.9,0,.06,0,0,0,0h0l0,0h0l-.08.05a1.63,1.63,0,0,0-.7.74,1.23,1.23,0,0,0-.11.57,2.28,2.28,0,0,1,0,.27v.14s0,0,0,.07a1.7,1.7,0,0,0,0,.22,2.14,2.14,0,0,0,.08.82,1.46,1.46,0,0,0,.11.3c.05.09.07.17.13.31l.1.19,0,.52-.07,1.07c0,.18,0,.35,0,.54l0,.48a.68.68,0,0,0-.07.25.34.34,0,0,0,0,.1v.09l0,.12,0,.47a6.35,6.35,0,0,0,.22,1l.29.86c0,.14.1.31.13.41s0,.28.09.46l0,.1a.35.35,0,0,0,.08.15l.1.12h0v0l0,0,.06.1.22.38a7.46,7.46,0,0,1,.4.8,2.78,2.78,0,0,1,.16.4c0,.14.07.27.12.44a1.9,1.9,0,0,0,.56.87,1.6,1.6,0,0,0,1,.41,3.07,3.07,0,0,0,.53-.07,3.48,3.48,0,0,1,.44-.1c.3-.05.61-.09.92-.12a9,9,0,0,0,1-.12,1.42,1.42,0,0,0,1-.63l.52-.75c.16-.23.38-.5.55-.78a7.77,7.77,0,0,0,.47-.84c.27-.58.49-1.16.72-1.71a8.91,8.91,0,0,0,.61-1.85,3.88,3.88,0,0,0,0-.6,2.37,2.37,0,0,0-.13-.54c-.08-.29-.17-.56-.26-.84-.17-.55-.26-1.14-.43-1.75a15.47,15.47,0,0,0-1.5-3.43,10.1,10.1,0,0,0-1.11-1.51,2.74,2.74,0,0,0-.76-.58,3.52,3.52,0,0,0-.45-.16c-.11,0-.11-.16-.08-.31l.1-.66v0l0,0c-.07-.07-.06-.27-.06-.44s0-.31,0-.46A107.57,107.57,0,0,0,110,39.27V100h6V0ZM96.06,41.52v-.19c.05-.69.1-1.38.18-2.07l0-.42-.39.07-.12-.09a1,1,0,0,0-.39-.19,1.72,1.72,0,0,0-.36-.05l-.29,0a3,3,0,0,0-.39,0,.78.78,0,0,0-.3.12.73.73,0,0,0-.27.29,2.05,2.05,0,0,0-.15.75c0,.69-.07,1.39-.09,2.08q-3,.31-5.93.55c-2,.16-3.94.27-5.91.4s-4,.19-5.92.25c-4,.11-7.9.19-11.86.13l-3,0L58,43,55.5,43l0-.89c.06-.7.11-1.4.18-2.09l0-.43-.39.08-.11-.1a1.09,1.09,0,0,0-.39-.19,1.8,1.8,0,0,0-.37-.05l-.3,0a1.68,1.68,0,0,0-.38,0,.88.88,0,0,0-.31.12.77.77,0,0,0-.27.3,2.25,2.25,0,0,0-.14.75Q53,41.55,53,42.64v.22l-.94,0c-2-.07-3.95-.22-5.92-.33s-3.95-.27-5.91-.46c-1.74-.15-3.47-.31-5.2-.49l.38-1.34.1-.36a2,2,0,0,0,.1-.48.61.61,0,0,0-.08-.31.66.66,0,0,0-.25-.27,1.06,1.06,0,0,0-.31-.14l-.16,0a1.22,1.22,0,0,0-.6-.3,3.62,3.62,0,0,0-.47,0l-.09,0h0a.56.56,0,0,0-.39,0,.44.44,0,0,0-.13.05l-.13.08a1.33,1.33,0,0,0-.32.34l0,.1a.7.7,0,0,0,0,.14v.14l-.28,1.48-.12.67c-1.24-.14-2.48-.28-3.71-.44-3.47-.42-7-1-10.44-1.58V6.29c1.46.42,3,.86,4.47,1.26,1.91.52,3.83,1,5.76,1.51a78.16,78.16,0,0,0,10.23,1.79l0,.47-.32.09a2.75,2.75,0,0,0-1.28,1.15c-.25.42-.42.82-.58,1.15l-.55,1c0,.07,0,0,0,0h0l0,0,0,0-.09.05a1.76,1.76,0,0,0-.76.79,1.5,1.5,0,0,0-.11.6c0,.23,0,.22,0,.3a.86.86,0,0,1,0,.17.22.22,0,0,0,0,.09,1.69,1.69,0,0,0,0,.24,2.11,2.11,0,0,0,.09.89c0,.13.08.24.12.34a3.57,3.57,0,0,0,.14.34l.12.23h0v0l0,.6L35,20.7c0,.21,0,.4,0,.61l0,.55a1.23,1.23,0,0,0-.07.29.41.41,0,0,0,0,.11v.23L35,23a5.7,5.7,0,0,0,.24,1.07l.32,1c0,.15.11.34.14.46s.06.32.11.51l0,.11a.66.66,0,0,0,.09.15l.12.13h0l0,0,.06.11.25.44a7.56,7.56,0,0,1,.45.9c.06.16.13.31.18.47s.08.3.14.5a2.21,2.21,0,0,0,.62,1,1.76,1.76,0,0,0,1.11.46,2,2,0,0,0,.6-.08l.51-.11c.34-.06.69-.1,1-.15s.7-.05,1.09-.13a1.62,1.62,0,0,0,1-.7l.58-.85c.18-.27.42-.57.61-.88s.36-.63.52-.95c.31-.65.54-1.31.8-1.94a9.85,9.85,0,0,0,.68-2.07,2.49,2.49,0,0,0,0-.67,2.53,2.53,0,0,0-.14-.6c-.09-.32-.19-.63-.3-.94-.18-.63-.29-1.3-.47-2a16.28,16.28,0,0,0-.7-2,16.69,16.69,0,0,0-.95-1.89,11.45,11.45,0,0,0-1.24-1.71,2.9,2.9,0,0,0-.85-.66,3.42,3.42,0,0,0-.5-.18c-.14,0-.13-.19-.1-.36l.06-.39c7.59.53,15.19.47,22.76.51q3.18,0,6.37-.06c.09.32.18.64.28,1a2.84,2.84,0,0,1,.09.8c0,.28.08.52.11.81,0,0-.07,0-.12.06l-.14.07a3,3,0,0,0-.3.18,2.68,2.68,0,0,0-.54.46,1.14,1.14,0,0,0-.21.36l-.07.34a2.31,2.31,0,0,1-.19.56,2.27,2.27,0,0,1-.7.88,4.07,4.07,0,0,1-.49.31l-.22.1h-.07l-.22-.05-.21.18a1.3,1.3,0,0,0-.47.89,1.89,1.89,0,0,0,.18.88c0,.11.12.25.14.31a.78.78,0,0,1,0,.18v.57c0,.43,0,.86,0,1.32,0,.22,0,.45.06.68a5.59,5.59,0,0,1,0,.57,6.9,6.9,0,0,1-.14,1.18c0,.11,0,.18,0,.28l-.08.33a1.56,1.56,0,0,0-.06.46,1.63,1.63,0,0,0,.07.48,10.72,10.72,0,0,1,.22,1.18l.06.67a3,3,0,0,0,.19.64v0a.87.87,0,0,0,0,.26c0,.14.07.18.1.28l.2.4c0,.13.08.2.13.36l.12.43.47,1.74a1.68,1.68,0,0,0,.62.93,1.26,1.26,0,0,0,.54.29.44.44,0,0,0,.2,0l.12,0h.05l.23-.07.9-.29.46-.14c.14,0,.31-.1.39-.11h0l.13,0h.28a1.66,1.66,0,0,0,.54-.1,1.72,1.72,0,0,0,.81-.66c.35-.51.72-1,1-1.53s.68-1,1-1.55a16.39,16.39,0,0,0,.88-1.65l.4-.82a4.86,4.86,0,0,0,.36-.93,3.93,3.93,0,0,0,.15-1,9.4,9.4,0,0,0-.07-1l-.19-1.78c-.07-.6-.11-1.15-.16-1.79a6.57,6.57,0,0,0-.17-1L77,17.59l-.24-.9-.13-.46,0-.1,0-.07a.36.36,0,0,0,0-.11,1.53,1.53,0,0,0-.2-.34,4.31,4.31,0,0,0-.32-.38,4.53,4.53,0,0,0-.32-.38,1.53,1.53,0,0,1-.2-.25c-.07-.1-.16-.26-.26-.4a2.69,2.69,0,0,0-.39-.49,2,2,0,0,0-.67-.42,1.4,1.4,0,0,0-.39-.1h0V13c-.1-.49-.19-1-.28-1.5L76,11.4c4-.21,8-.45,11.92-.91,1.55-.16,3.1-.36,4.64-.56-.06.35-.14.7-.21,1.05l-.06.27.16.25a.73.73,0,0,1,0,.29l-.2.1-.82.41-.41.22a1.7,1.7,0,0,0-.62.52,1.42,1.42,0,0,0-.25,1,.57.57,0,0,1,0,.13,3.2,3.2,0,0,1-.36.59c0,.07-.1.15-.15.25a2.81,2.81,0,0,0-.13.33l-.12.4a1.12,1.12,0,0,1-.08.18h-.2l-1,0,.16.89c.15.78.3,1.57.48,2.34.08.39.16.77.23,1.15l.23,1.12a10.87,10.87,0,0,1,0,1.11c0,.15,0,.36,0,.61a1.83,1.83,0,0,0,0,.4l.09.32c.31.82.51,1.42.75,2.27a5.21,5.21,0,0,0,.61,1.15c.23.33.44.66.64,1a4.43,4.43,0,0,1,.47,1,1.84,1.84,0,0,0,.82,1.07,1.73,1.73,0,0,0,1.39.13L95.13,30c.39-.16.73-.26,1.18-.46a2.59,2.59,0,0,0,.58-.42,2.62,2.62,0,0,0,.4-.55,13.62,13.62,0,0,0,1.07-2.21c.3-.74.59-1.48.87-2.23.13-.38.27-.73.41-1.15a4.77,4.77,0,0,0,.18-1.37,3.44,3.44,0,0,0-.09-.7l-.09-.34c0-.13-.06-.17-.08-.26-.09-.32-.14-.73-.24-1.13a15.16,15.16,0,0,0-.61-2.38,11.26,11.26,0,0,0-.48-1.13l-.49-1.1a2.56,2.56,0,0,0-.89-1.1.91.91,0,0,0-.16-.11l0,0-.15-.2a3.66,3.66,0,0,0-.51-.46,3.06,3.06,0,0,0-.57-.34l-.3-.12c-.08,0-.06,0-.08,0a.05.05,0,0,1,0,0v-.05l0-.15,0-.3.07-.59.07-.82c0-.24,0-.48,0-.71A110.87,110.87,0,0,0,110,6.33V39.22h0c-3.46.79-7,1.4-10.52,1.87Z"/></svg>