<svg id="Layer_1" data-name="Layer 1" xmlns="http://www.w3.org/2000/svg" width="128" height="128" viewBox="0 0 128 128"><title>Artboard 31</title><path d="M15.7,111.77h4.82a7.16,7.16,0,0,1,2.75.41A4.65,4.65,0,0,1,25,113.56a6.92,6.92,0,0,1,1.22,2.51,14,14,0,0,1,.45,3.84,12.43,12.43,0,0,1-.47,3.6A7.09,7.09,0,0,1,25,125.93a4.56,4.56,0,0,1-1.74,1.35,6.47,6.47,0,0,1-2.61.45h-5Zm2.63,2.7V125h2a5.14,5.14,0,0,0,1.84-.24,2.31,2.31,0,0,0,.94-.72,4.33,4.33,0,0,0,.6-1.53,12.72,12.72,0,0,0,.24-2.75,12.91,12.91,0,0,0-.24-2.8,3.78,3.78,0,0,0-.77-1.61,2.45,2.45,0,0,0-1.25-.77,10.87,10.87,0,0,0-2.15-.14Z"/><path d="M31,127.73l-3.14-16h2.71l2,11,2.39-11h3.15l2.29,11.15,2-11.15H45l-3.18,16H39.05l-2.62-11.94-2.59,11.94Z"/><path d="M46.61,127.73v-16h9.71v2.7H49.24V118h6.58v2.69H49.24V125h7.32v2.7Z"/><path d="M59.09,127.73V111.9h2.63V125H68.3v2.7Z"/><path d="M70.48,127.73V111.9h2.63V125h6.58v2.7Z"/><path d="M81.72,127.73v-16h2.63v16Z"/><path d="M87.13,127.73v-16H89.7l5.35,10.66V111.77h2.46v16H94.86l-5.27-10.41v10.41Z"/><path d="M106.61,121.87v-2.7h5.69v6.36a7.08,7.08,0,0,1-2.44,1.74,7.44,7.44,0,0,1-3.17.73,6.18,6.18,0,0,1-3.41-1,6.52,6.52,0,0,1-2.35-2.85,12.09,12.09,0,0,1,0-9,6.51,6.51,0,0,1,2.28-2.79,5.87,5.87,0,0,1,3.34-.93,5.14,5.14,0,0,1,5.56,4.69l-2.61.6a3.33,3.33,0,0,0-1.07-1.88,2.84,2.84,0,0,0-1.88-.66,3.33,3.33,0,0,0-2.73,1.32,6.3,6.3,0,0,0-1,4,7.17,7.17,0,0,0,1.13,4.39,3.11,3.11,0,0,0,2.62,1.3,3.91,3.91,0,0,0,1.61-.37,4.93,4.93,0,0,0,1.48-1v-2Z"/><path d="M98.39,30.05c-1.17-1.19-2.24-2.28-3.14-3.23-2.69-2.87-4.51-5.18-6.43-7.62-.82-1-1.65-2.09-2.58-3.22a63,63,0,0,1-4.67-6.59C78.3,4.1,71.62,0,68.05,0S56.2,6,43.85,17.78c-10.76,10.28-17,29.91-17.31,30.74l-.07.22V84.45c-2.46.74-6.56,2.33-9,4.79a5.16,5.16,0,0,0,1.74,8.41c9.72,4,35,1.82,43,1a94.92,94.92,0,0,0,13.5,1.2c23.07,0,33.05-14.16,33.46-14.76l.26-.38V53.44c1.59-1.33,2.51-2.73,2.51-4.18C112,43.87,104.45,36.21,98.39,30.05ZM70.73,78.3V96.63c-9.12-.74-20.66-3.14-29.41-5.22a26.62,26.62,0,0,1-3.13-1.3,97.85,97.85,0,0,1-8.78-5.51V53c6.9,2.51,29.74,10.48,42.41,10.48,1.36,0,2.87-.07,4.47-.2C70.77,67.94,70.73,78.3,70.73,78.3Zm35.82,5.41a34.5,34.5,0,0,1-13.17,9.65V75.17c0-2.22.71-10.86-6.33-13.4,7.28-1.43,14.67-3.67,19.5-6.36ZM71.82,60.51c-12.73,0-37.28-8.78-42.41-10.67v-.63c.71-2.16,6.82-20.07,16.46-29.27C59,7.43,65.92,3,68.05,3c2.4,0,8.21,3.43,11,8A66.57,66.57,0,0,0,84,17.87c.91,1.11,1.73,2.15,2.54,3.18,2,2.49,3.82,4.85,6.6,7.81.91,1,2,2.07,3.19,3.28,5.07,5.16,12.75,13,12.75,17.12C109.06,53.24,87.16,60.51,71.82,60.51Z"/><path d="M59,15.63a13.48,13.48,0,0,0,4.26,1,37.16,37.16,0,0,0,4.31.49A23.5,23.5,0,0,0,72,17.06l0-.25a32.21,32.21,0,0,1-4.1-.93c-1.36-.37-2.7-.78-4-1.21a39.57,39.57,0,0,0-3.87-1.45,27.92,27.92,0,0,0-4.2-.74l-.14.21A8.28,8.28,0,0,0,59,15.63Z"/><path d="M49.07,28.09a19.37,19.37,0,0,0,4.39,2.08,28.47,28.47,0,0,0,9.46,1.14,57.4,57.4,0,0,0,9.37-.89,67.33,67.33,0,0,0,9-2.46l-.07-.25a77,77,0,0,1-9.11,1.44,55.71,55.71,0,0,1-9.13.1,64.55,64.55,0,0,1-8.84-1.55l-1.09-.24L52,27.15c-.73-.16-1.4-.46-2.12-.67a20.61,20.61,0,0,1-4-2l-.19.18A10.94,10.94,0,0,0,49.07,28.09Z"/><path d="M73.36,47.21a77.76,77.76,0,0,1-13-.43,111.39,111.39,0,0,1-12.63-2.47c-2.09-.46-4.13-1.09-6.18-1.72a44.56,44.56,0,0,1-6-2.52l-.16.2a21.43,21.43,0,0,0,5.41,4,38.55,38.55,0,0,0,6.21,2.54,52.83,52.83,0,0,0,13.13,2,79.91,79.91,0,0,0,13.22-.34,79.19,79.19,0,0,0,12.9-2.57l-.06-.25A87.18,87.18,0,0,1,73.36,47.21Z"/></svg>