<svg id="Layer_1" data-name="Layer 1" xmlns="http://www.w3.org/2000/svg" width="128" height="128" viewBox="0 0 128 128"><title>Artboard 32</title><path d="M32.93,127.73v-16h9.71v2.7H35.57V118h6.57v2.69H35.57V125h7.31v2.7Z"/><path d="M51.43,121.87v-2.7h5.69v6.36a7,7,0,0,1-2.44,1.74,7.4,7.4,0,0,1-3.16.73,6.24,6.24,0,0,1-3.42-1,6.52,6.52,0,0,1-2.35-2.85,10.83,10.83,0,0,1-.86-4.47,10.64,10.64,0,0,1,.87-4.51A6.58,6.58,0,0,1,48,112.43a5.91,5.91,0,0,1,3.35-.93A5.14,5.14,0,0,1,57,116.19l-2.61.6a3.4,3.4,0,0,0-1.08-1.88,2.81,2.81,0,0,0-1.87-.66,3.33,3.33,0,0,0-2.74,1.32,6.37,6.37,0,0,0-1,4A7.23,7.23,0,0,0,48.74,124a3.12,3.12,0,0,0,2.62,1.3,3.91,3.91,0,0,0,1.61-.37,5.1,5.1,0,0,0,1.49-1v-2Z"/><path d="M59.79,127.73v-16h5.57a7.65,7.65,0,0,1,3,.43,3.42,3.42,0,0,1,1.5,1.49,5.1,5.1,0,0,1,.59,2.54,4.74,4.74,0,0,1-.9,3A4,4,0,0,1,67,120.69,6.44,6.44,0,0,1,68.45,122a18.91,18.91,0,0,1,1.51,2.6l1.59,3.11H68.4l-1.92-3.47a21.09,21.09,0,0,0-1.4-2.36,1.94,1.94,0,0,0-.78-.65,3.6,3.6,0,0,0-1.33-.18h-.54v6.66Zm2.64-9.21h2a9.43,9.43,0,0,0,2.28-.16,1.49,1.49,0,0,0,.8-.63,2.4,2.4,0,0,0,.3-1.28,2.2,2.2,0,0,0-.3-1.22,1.6,1.6,0,0,0-.83-.64,10.42,10.42,0,0,0-2.14-.12H62.43Z"/><path d="M73.21,127.73v-16h9.71v2.7H75.84V118h6.58v2.69H75.84V125h7.32v2.7Z"/><path d="M88.56,127.73V114.47H84.67v-2.7h10.4v2.7H91.19v13.26Z"/><path d="M28.89,66.08a11,11,0,0,1,.79-2,24,24,0,0,1,2.24-3.59,39.86,39.86,0,0,1,2.68-3.25,34.49,34.49,0,0,1,2.79-2.75,3.23,3.23,0,0,1-.59-.22,1.42,1.42,0,0,1-.58-.51.58.58,0,0,1-.09-.38v0l-.26.19c-.43.33-.86.67-1.27,1L34,55.1l-.12.1c-.28.43-.64.79-1,1.2s-.78,1-1.16,1.46c-.77,1-1.51,2-2.24,3s-1.46,2-2.22,3c-.08.12-.18.23-.26.34a9.46,9.46,0,0,0,.28,1.93c.16.67.45,1.41.94,1.56a2.4,2.4,0,0,0,.48.1A4.24,4.24,0,0,1,28.89,66.08Z"/><path d="M37.25,63.54c.38-.61.72-1.24,1-1.87.47-.92.94-1.85,1.39-2.79s.91-1.87,1.39-2.8.82-1.59,1.3-2.35a9.82,9.82,0,0,1-1.23.56,6.87,6.87,0,0,1-2.91.38,5.24,5.24,0,0,1-.79-.15c-.74,1.09-1.53,2.14-2.31,3.18S33.46,59.92,32.65,61s-1.63,2.24-2.36,3.4a15.62,15.62,0,0,0-1,1.79,4.7,4.7,0,0,0-.47,1.59,6.41,6.41,0,0,0,1.38,0,6,6,0,0,0,1-.2,4.9,4.9,0,0,0,.88-.45,43.19,43.19,0,0,0,3.62-2.36C36.23,64.38,36.75,64,37.25,63.54Z"/><path d="M47.48,64.93l-.56,1-.33,1L46,68.77c-.42,1.29-.84,2.57-1.29,3.85-.22.64-.44,1.28-.69,1.91-.13.31-.26.63-.41.94l-.13.24a.78.78,0,0,1-.22.24,1.14,1.14,0,0,0-.32.3A4.8,4.8,0,0,0,42.08,78a5.29,5.29,0,0,0-.17,1.24,3.11,3.11,0,0,0,.07.69V80a20.89,20.89,0,0,0-.29,2.52q-.09,1.27-.15,2.55c-.09,1.7-.13,3.43-.26,5.13s-.3,3.41-.35,5.11a33,33,0,0,1-.6,4.69.76.76,0,0,1-.74.67c-1.1,0-3.25,0-3.72,0v1.38l5.53-.73s7,.78,7.1.73-.07-.38-.11-.63a.6.6,0,0,0-.51-.47l-1.68-.2-4.3-.47s-.15-3.32-.17-4.84A28.47,28.47,0,0,1,42,90.88l.61-4.53.33-2.26c.13-.76.23-1.49.41-2.27v0l0,0a4,4,0,0,0,.55-1.23,13.54,13.54,0,0,0,.33-1.4c.09-.47.15-.95.2-1.43,0-.28,0-.56,0-.84a3.38,3.38,0,0,0,0-.56l0-.08,0-.06a11.17,11.17,0,0,0,.7-1.43c.22-.5.43-1,.64-1.5.41-1,.81-2,1.21-3l1.17-3,.56-1.53.27-.77.13-.39v0a2.86,2.86,0,0,1-.95-.35Q47.86,64.49,47.48,64.93Z"/><path d="M56.22,59.16v-.78a2.08,2.08,0,0,0,0-.23,3.05,3.05,0,0,0-.2-.46l-.09-.12q-.47.2-.93.36a17.86,17.86,0,0,1-2.8.78,9.43,9.43,0,0,1-1.65,1,6.28,6.28,0,0,1-1.89.49,10.84,10.84,0,0,1-3.1,1.63,8.1,8.1,0,0,1-1.74.39,3.78,3.78,0,0,1-.89,0,1.31,1.31,0,0,1-.79-.3,1.72,1.72,0,0,1-.75.49,2.3,2.3,0,0,1-.94.12c-1.34-.15-1.55-.47-1.56-.47a1,1,0,0,1-.12.16,11.87,11.87,0,0,1-2.59,3.06,21.11,21.11,0,0,1-2.26,1.73,4.83,4.83,0,0,0-.16.5,2.3,2.3,0,0,0-.1.63.7.7,0,0,0,.13.44,2.92,2.92,0,0,0,1.52-.48,13.63,13.63,0,0,0,1.46-1c.47-.36.92-.75,1.36-1.15s.89-.81,1.31-1.22l1.53-1.55-.87,2c-.15.36-.3.75-.43,1.13-.07.19-.12.38-.17.57V67a2.59,2.59,0,0,0,.6-.19,10.18,10.18,0,0,0,1.11-.61,22,22,0,0,0,2.09-1.54l1-.78-.26,1.19a11.58,11.58,0,0,0-.18,1.18,5.28,5.28,0,0,0,0,.56.65.65,0,0,0,0,.2,4,4,0,0,0,1.33-.64,14.18,14.18,0,0,0,1.51-1.2c.48-.44,1-.89,1.4-1.36s.91-1,1.34-1.43C49,63,48.63,63.48,48.24,64a6,6,0,0,0,1.41-.07,9.64,9.64,0,0,0,1.49-.4,9.87,9.87,0,0,0,2.68-1.43l0,0,1.29-.77.64-.41.4-.27Z"/><path d="M63.31,101.56,60.6,92.27l-1.41-4.78c-.47-1.59-.93-3.2-1.43-4.77l0-.08.05-.06a3.51,3.51,0,0,0,.47-2.2,9.12,9.12,0,0,0-.46-2.3v0c.06-1.16.16-2.32.25-3.47l.32-3.47c.11-1.15.24-2.31.37-3.46L59,65.91l.13-.87a1.42,1.42,0,0,1,.08-.41l-.21,0c-.31,0-.63,0-1,0l-.5,0-.2,0a3.39,3.39,0,0,1,0,.78l-.08,1.19-.14,2.4-.3,4.79c0,.8-.11,1.6-.18,2.41,0,.4-.08.8-.14,1.21,0,.1,0,.21-.07.32a.89.89,0,0,1-.06.2l0,.11a2.65,2.65,0,0,0-.11.52,9.36,9.36,0,0,0,.06,2.3,10.16,10.16,0,0,0,.56,2.25c.53,1.55.93,3.08,1.38,4.62l1.29,4.63,2.42,9.11-4.17.34a.55.55,0,0,0-.51.49l-.08.55,5.08-.33s6.91.53,7,.4a2.58,2.58,0,0,0,.05-1.38C69.11,101.43,63.31,101.56,63.31,101.56Z"/><path d="M44.91,52.2c-.39.27-.78.53-1.2.77s-.76.46-1.15.66a31,31,0,0,1-2.06,5.65A21.78,21.78,0,0,1,39,61.93c1.23,1,3.13-.14,3.13-.14l0,.05a1.17,1.17,0,0,0,.76.29,4.17,4.17,0,0,0,.86,0,8.84,8.84,0,0,0,1.68-.44,10.54,10.54,0,0,0,3-1.72l0,0h.05a5.73,5.73,0,0,0,1.81-.54,8.52,8.52,0,0,0,1.58-1.08l0,0,.06,0a18.06,18.06,0,0,0,2.74-.85c.45-.18.89-.37,1.31-.58a4.7,4.7,0,0,0,1.13-.74l.23-.23.23.21a.57.57,0,0,0,.3.08,1.79,1.79,0,0,0,.45,0,5.77,5.77,0,0,0,1-.25A12.07,12.07,0,0,0,61.25,55,12.34,12.34,0,0,0,63,53.86a4.33,4.33,0,0,0,1.23-1.41l.6-.25a.82.82,0,0,0,.37-.06,3.25,3.25,0,0,0,.57-.27,10.24,10.24,0,0,0,1.11-.79,19.57,19.57,0,0,0,2-1.92A20.92,20.92,0,0,0,70.7,47a10.87,10.87,0,0,0,1.36-2.41,20.15,20.15,0,0,0,.52-3.48,24.88,24.88,0,0,0,0-3.56,14.34,14.34,0,0,0-.23-1.76,15,15,0,0,0-.48-1.71,4.67,4.67,0,0,0-.76-1.57,4.47,4.47,0,0,0-.6-.63l-.34-.28a1.32,1.32,0,0,1-.22-.18h0l-.21-.16-.44-.3a8.17,8.17,0,0,0-.93-.48,8.27,8.27,0,0,0-2-.58l-.52-.07a3.08,3.08,0,0,0-.51,0,4.51,4.51,0,0,0-1,.16,12.91,12.91,0,0,0-2,.74,35.18,35.18,0,0,0-3.71,2c-.61.38-1.2.77-1.78,1.16-.3.2-.58.41-.85.62s-.6.43-.89.63a69.48,69.48,0,0,0-6.81,5.06,7,7,0,0,0-.71.74,3.57,3.57,0,0,0-.3.38c-.11.15-.21.31-.33.46a17.57,17.57,0,0,1-1.43,1.66,41.69,41.69,0,0,1-3.18,2.91,11.55,11.55,0,0,0-1.87,2.56,9.94,9.94,0,0,1-3.28,3.71l-1,.71v.09a.46.46,0,0,0,.15.26,1.34,1.34,0,0,0,.55.3,4.55,4.55,0,0,0,1.33.12,8.21,8.21,0,0,0,2.59-.59,8.4,8.4,0,0,0,1.2-.6l1.22-.68,1.22-.7.64-.35a2.31,2.31,0,0,1,.38-.15l.19,0a2.63,2.63,0,0,1,.28-.61,5.75,5.75,0,0,1,.54-.73,4.66,4.66,0,0,1,1.39-1.08,4.92,4.92,0,0,0-.57.64c-.17.23-.33.46-.48.7a.41.41,0,0,1,0,.09,3.1,3.1,0,0,0,.51.11,2.25,2.25,0,0,0,.73,0,1.64,1.64,0,0,0,.67-.2,1.55,1.55,0,0,0,.45-.47h0a2.2,2.2,0,0,1,.42-.54,6.33,6.33,0,0,1,.46-.44,11.06,11.06,0,0,1,1-.81,9.85,9.85,0,0,1,1.07-.7,4.3,4.3,0,0,1,1.07-.45,3.12,3.12,0,0,1,1-1.07,5.3,5.3,0,0,1,.7-.38,4.64,4.64,0,0,1,.65-.26c.23-.17.49-.37.73-.57l.76-.63c.51-.42,1-.86,1.5-1.31l.12-.11h.18a10.11,10.11,0,0,0,2.41-.23,3.67,3.67,0,0,0,2-1.14,5.16,5.16,0,0,0,.94-2.22c.18-.83.28-1.68.43-2.53,0,.86,0,1.72-.06,2.59a5.26,5.26,0,0,1-.82,2.55,4.27,4.27,0,0,1-2.27,1.51l-.65.17-.66.09A8.74,8.74,0,0,1,59,43c-.46.42-.91.84-1.38,1.25l-.79.65c-.27.21-.53.41-.84.62l-.05,0-.06,0a5.41,5.41,0,0,0-.63.24,5,5,0,0,0-.6.32,2.22,2.22,0,0,0-.86.83l-.1.23-.23,0a3.64,3.64,0,0,0-1,.36c-.35.17-.7.38-1.05.59s-.68.45-1,.69l-.47.38a2.71,2.71,0,0,0-.38.37v0a1.76,1.76,0,0,1-.67.54,1.75,1.75,0,0,1-.81.15A3.29,3.29,0,0,1,46.79,50c-.11.19-.22.4-.31.6a2.28,2.28,0,0,0-.17.71v.34l-.38,0C45.72,51.63,45.3,52,44.91,52.2Z"/><path d="M84.5,13.86l.09-.23a1.64,1.64,0,0,0,.1-.82.63.63,0,0,0-.51-.51,14,14,0,0,0-1.81.11l-.9.14a6.93,6.93,0,0,0-.87.21l-.5.17.31-.43.29-.36a1.15,1.15,0,0,1,0-2.19c-.25-.26-.34-.4-.16-.5s2.65.35,3.33.4a4.79,4.79,0,0,0,1,0,2.23,2.23,0,0,0,.84-.22,9.52,9.52,0,0,0-4.47-2.29,8.72,8.72,0,0,0-5.15.46,11.9,11.9,0,0,0-4.18,3.09A11.29,11.29,0,0,0,70.44,13a9.39,9.39,0,0,0-.88,2.44,7.76,7.76,0,0,0-.1,2.59,22.48,22.48,0,0,0,.39,2.61,8.25,8.25,0,0,0,2.34,4.49,7,7,0,0,0,2.16,1.3l.3.12a1.65,1.65,0,0,1,.36.16,1.89,1.89,0,0,1,.86,2.15,3.83,3.83,0,0,1-.3.67c-.11.21-.23.41-.36.61a4.87,4.87,0,0,1-1,1.08,2.51,2.51,0,0,1-2.87.33l-.11-.05-.06-.11a6.54,6.54,0,0,0-2.37-2.75,3.75,3.75,0,0,0-.82-.35,9.26,9.26,0,0,0-.9-.26c-.62-.16-1.24-.28-1.86-.38a16.5,16.5,0,0,0-3.77-.18,6.47,6.47,0,0,0-3.37,1.17l0,0,0,0c-1,.61-2,1.26-2.89,1.94-.47.34-.92.69-1.36,1.06a8.15,8.15,0,0,0-1.19,1.15l-.05.07-.07.05c-1.83,1.14-3.63,2.39-5.4,3.65s-3.55,2.53-5.23,3.9c-.21.17-.42.34-.62.52l-.59.53a4.64,4.64,0,0,0-.53.56l-.5.64c-.67.86-1.31,1.74-1.94,2.63s-1.24,1.79-1.8,2.72A11.89,11.89,0,0,0,34.53,51l0,.09,0,.06c-1.65,1.85-3.27,3.76-4.79,5.72-.77,1-1.5,2-2.18,3-.17.26-.34.52-.49.79a8.94,8.94,0,0,0-.44.8,8.21,8.21,0,0,0-.35.83c-.08.29-.14.6-.21.9s-.12.61-.16.9,0,.62.11.68l0,0a.58.58,0,0,0,.13-.11c.1-.09.2-.21.3-.32s.39-.48.58-.73c.75-1,1.48-2,2.23-3s1.51-2,2.29-3c.39-.49.79-1,1.2-1.45.25-.28.49-.58.77-.85a2.42,2.42,0,0,1,.37-.42c.19-.19.39-.38.6-.56.41-.37.82-.72,1.24-1.07s.85-.69,1.28-1a11.08,11.08,0,0,0,1.2-1.06A10.76,10.76,0,0,0,40,48.6a11.65,11.65,0,0,1,1.87-2.79h0a38.61,38.61,0,0,0,3-3,17.05,17.05,0,0,0,1.35-1.6l.29-.42c.11-.16.23-.32.35-.47a9.91,9.91,0,0,1,.77-.81,31.06,31.06,0,0,1,3.4-2.71c1.18-.83,2.37-1.62,3.57-2.39l.87-.58c.3-.22.6-.42.9-.61.62-.4,1.23-.76,1.86-1.11a35.63,35.63,0,0,1,3.86-1.93,14.2,14.2,0,0,1,2.06-.68,4.94,4.94,0,0,1,1.1-.13,9.24,9.24,0,0,1,1.09.15,8,8,0,0,1,2.07.65,7.43,7.43,0,0,1,.94.55,4.46,4.46,0,0,1,.43.33l.21.17a.48.48,0,0,1,.12.16,4.44,4.44,0,0,1,2,2.56,16.73,16.73,0,0,1,.54,1.74A15.52,15.52,0,0,1,73,37.49a25.81,25.81,0,0,1,.11,3.63,19.33,19.33,0,0,1-.43,3.61h0v0a11.3,11.3,0,0,1-1.36,2.63,25.2,25.2,0,0,1-1.8,2.29,21.51,21.51,0,0,1-2.1,2.06,12,12,0,0,1-1.2.88,4.84,4.84,0,0,1-.72.36,2.35,2.35,0,0,1-.44.11h-.13a3.55,3.55,0,0,1-.53.71,6.62,6.62,0,0,1-.85.75,12.11,12.11,0,0,1-1.87,1.16,13.23,13.23,0,0,1-2,.84,5.66,5.66,0,0,1-1.1.24,2.94,2.94,0,0,1-.6,0,1.89,1.89,0,0,1-.44-.11,5.94,5.94,0,0,1-1.13.66l-.35.15.09.09a1.8,1.8,0,0,1,.31.45,1.08,1.08,0,0,1,.1.27l.06.27.08.52c.1.71.17,1.41.22,2.11s.09,1.4.11,2.11v.41a.09.09,0,0,0,.06.06h.06l.26,0,.55-.06a5.86,5.86,0,0,1,1.11,0l.28,0,.15,0,.11,0s0,0,0,0l0,0,0-.24.08-.51.16-1c.1-.7.22-1.39.33-2.08l.2-1.05.12-.52a3.55,3.55,0,0,1,.19-.54h0a1.11,1.11,0,0,1,.17-.3,1.32,1.32,0,0,1,.25-.28,1.44,1.44,0,0,1,.63-.34,1.71,1.71,0,0,0-.51.45,1.22,1.22,0,0,0-.17.29,1.32,1.32,0,0,0-.1.3l0,0c0,.09-.05.3-.07.45l0,.52,0,.68L63,58.68a11.82,11.82,0,0,0,2.33-1.17,16.67,16.67,0,0,0,2.08-1.57A10.33,10.33,0,0,0,69.15,54l0,0,0,0a19.31,19.31,0,0,0,2.42-2.2q1.14-1.19,2.19-2.46a43.71,43.71,0,0,0,3.86-5.35c.28-.47.51-.92.77-1.44s.53-1,.82-1.48c.57-1,1.15-1.9,1.66-2.87A23,23,0,0,0,83.22,32a13.17,13.17,0,0,0-.65-7.94,5.22,5.22,0,0,0-.78-1.33A5.85,5.85,0,0,0,79.25,21a5,5,0,0,0-1.52-.28,1.44,1.44,0,0,1-1-.28,1.81,1.81,0,0,1-.56-.82,3.23,3.23,0,0,1,0-1.82,3,3,0,0,1,.37-.84,2.18,2.18,0,0,1,.68-.64.92.92,0,0,1,.52-.16l.42,0,.81,0a8.78,8.78,0,0,0,1.62-.13,5.22,5.22,0,0,0,1.52-.5,3.61,3.61,0,0,0,.66-.44,3.83,3.83,0,0,0,.29-.28l.14-.15.06-.09a.4.4,0,0,1,.13-.09h0a7.26,7.26,0,0,0,1.66-.26,3.25,3.25,0,0,0,1.26-.66,10.5,10.5,0,0,0-1.58.2Z"/><path d="M83.87,10.17c-.69-.07-1.36-.17-2-.26h-.15l-.15,0-.29-.06-.28,0a.86.86,0,0,0-.23,0,.53.53,0,0,1,.13.13h.19a1.15,1.15,0,0,1,0,2.3h-.11v0a1.47,1.47,0,0,0-.06.14l.55-.07c.3,0,.61-.08.92-.11a14.15,14.15,0,0,1,1.85-.1h0l.14.05a43.63,43.63,0,0,1,4.42-.24c1.67,0,3.33,0,5,.09s3.32.21,5,.41c.83.09,1.65.21,2.48.36l.77.17a14.59,14.59,0,0,0-2.65-.83c-.72-.17-1.46-.27-2.21-.39l-2.25-.34-4.5-.67c-1.49-.25-3-.46-4.46-.77a2.64,2.64,0,0,1-1,.26A7.49,7.49,0,0,1,83.87,10.17Z"/><path d="M101.17,13.09c-.82-.07-1.65-.12-2.47-.17l-5-.25-5-.25-4.22-.2.13.08a.84.84,0,0,1,.25.46,1.41,1.41,0,0,1,0,.5,1.84,1.84,0,0,1,0,.25,10.5,10.5,0,0,1,2.16-.23c.79,0,1.57,0,2.37,0,1.57,0,3.15-.09,4.73-.1h1.2c.38,0,.77,0,1.16,0l2.37,0c.86,0,2.43.13,3.3.11C102.08,13.25,101.28,13.09,101.17,13.09Z"/></svg>