<svg id="Layer_1" data-name="Layer 1" xmlns="http://www.w3.org/2000/svg" width="128" height="128" viewBox="0 0 128 128"><title>Artboard 33</title><path d="M37.46,121.87v-2.7h5.69v6.36a7,7,0,0,1-2.44,1.74,7.4,7.4,0,0,1-3.16.73,6.24,6.24,0,0,1-3.42-1,6.52,6.52,0,0,1-2.35-2.85,10.83,10.83,0,0,1-.86-4.47,10.49,10.49,0,0,1,.88-4.51,6.49,6.49,0,0,1,2.27-2.79,5.91,5.91,0,0,1,3.35-.93A5.14,5.14,0,0,1,43,116.19l-2.61.6a3.4,3.4,0,0,0-1.08-1.88,2.81,2.81,0,0,0-1.87-.66,3.33,3.33,0,0,0-2.74,1.32,6.37,6.37,0,0,0-1,4A7.23,7.23,0,0,0,34.77,124a3.12,3.12,0,0,0,2.62,1.3,3.88,3.88,0,0,0,1.61-.37,5,5,0,0,0,1.49-1v-2Z"/><path d="M45.28,119.85a11.39,11.39,0,0,1,.84-4.7,6.45,6.45,0,0,1,2.21-2.75,5.82,5.82,0,0,1,3.3-.9,5.64,5.64,0,0,1,4.57,2.14A9.37,9.37,0,0,1,58,119.75,9.5,9.5,0,0,1,56.1,126a5.47,5.47,0,0,1-4.46,2,5.55,5.55,0,0,1-4.49-2A9.36,9.36,0,0,1,45.28,119.85Zm2.72-.11a6.78,6.78,0,0,0,1,4.13,3.13,3.13,0,0,0,5.18,0,7,7,0,0,0,1-4.2,6.8,6.8,0,0,0-1-4.1,3.23,3.23,0,0,0-5.23,0A6.85,6.85,0,0,0,48,119.74Z"/><path d="M59.73,119.85a11.39,11.39,0,0,1,.84-4.7,6.38,6.38,0,0,1,2.21-2.75,5.8,5.8,0,0,1,3.29-.9,5.65,5.65,0,0,1,4.58,2.14,9.37,9.37,0,0,1,1.77,6.11A9.56,9.56,0,0,1,70.55,126a6,6,0,0,1-8.95,0A9.36,9.36,0,0,1,59.73,119.85Zm2.72-.11a6.78,6.78,0,0,0,1,4.13,3.12,3.12,0,0,0,5.17,0,7,7,0,0,0,1-4.2,6.8,6.8,0,0,0-1-4.1,3.12,3.12,0,0,0-2.61-1.33,3.16,3.16,0,0,0-2.63,1.34A6.93,6.93,0,0,0,62.45,119.74Z"/><path d="M74.05,122.53l2.58-.31q.44,3.06,2.85,3.06a2.67,2.67,0,0,0,1.88-.63,2,2,0,0,0,.69-1.55,1.68,1.68,0,0,0-.24-.92,1.82,1.82,0,0,0-.73-.63,22.73,22.73,0,0,0-2.38-.82,8.13,8.13,0,0,1-2.47-1.11A4.23,4.23,0,0,1,75,118.05a4.78,4.78,0,0,1-.47-2.09,4.64,4.64,0,0,1,.6-2.35A3.84,3.84,0,0,1,76.76,112a5.67,5.67,0,0,1,2.58-.53,4.53,4.53,0,0,1,5,4.83l-2.65.14a2.79,2.79,0,0,0-.75-1.79,2.39,2.39,0,0,0-1.64-.51,2.6,2.6,0,0,0-1.64.44,1.38,1.38,0,0,0-.06,2.2,7.2,7.2,0,0,0,2.41,1A9.83,9.83,0,0,1,82.86,119a4.08,4.08,0,0,1,1.35,1.64,5.77,5.77,0,0,1,.47,2.44,5.05,5.05,0,0,1-1.28,3.5,5.15,5.15,0,0,1-4,1.41C76.19,128,74.41,126.17,74.05,122.53Z"/><path d="M87.13,127.73v-16h9.71v2.7H89.77V118h6.57v2.69H89.77V125h7.31v2.7Z"/><path d="M17.9,16.23V.27h9.71V3H20.53V6.51h6.58V9.2H20.53v4.33h7.32v2.7Z"/><path d="M36.4,10.37V7.67h5.69V14a7,7,0,0,1-2.44,1.74,7.44,7.44,0,0,1-3.17.73,6.18,6.18,0,0,1-3.41-.95,6.52,6.52,0,0,1-2.35-2.85,10.68,10.68,0,0,1-.86-4.47,10.64,10.64,0,0,1,.87-4.51A6.57,6.57,0,0,1,33,.93,5.87,5.87,0,0,1,36.35,0,5.64,5.64,0,0,1,40.1,1.19a5.64,5.64,0,0,1,1.81,3.5l-2.61.6a3.33,3.33,0,0,0-1.07-1.88,2.84,2.84,0,0,0-1.88-.66,3.33,3.33,0,0,0-2.73,1.32,6.3,6.3,0,0,0-1,4,7.17,7.17,0,0,0,1.13,4.39,3.08,3.08,0,0,0,2.62,1.3,3.91,3.91,0,0,0,1.61-.37,4.93,4.93,0,0,0,1.48-1v-2Z"/><path d="M48.19,16.23V9.51L43.4.27h3.09l3.07,6.31,3-6.31h3L50.82,9.53v6.7Z"/><path d="M57.16,16.23V.27h4.25a13.1,13.1,0,0,1,3.1.23,3.49,3.49,0,0,1,1.92,1.58,5.8,5.8,0,0,1,.76,3.11,5.81,5.81,0,0,1-.66,2.9A3.82,3.82,0,0,1,64.9,9.74a8.58,8.58,0,0,1-3.37.47H59.8v6ZM59.8,3V7.51h1.46a6.28,6.28,0,0,0,2-.21,1.82,1.82,0,0,0,.87-.74,2.53,2.53,0,0,0,.34-1.33,2.45,2.45,0,0,0-.35-1.34,1.68,1.68,0,0,0-.87-.73A7.54,7.54,0,0,0,61.08,3Z"/><path d="M72.52,16.23V3H68.64V.27H79V3H75.16V16.23Z"/><path d="M80.89,16.23V.27h2.63v16Z"/><path d="M98.08,16.23H95.22l-1.15-3.62H88.83l-1.08,3.62H84.94L90,.27h2.8ZM93.22,9.92,91.41,4,89.64,9.92Z"/><path d="M99.72,16.23V.27h2.57l5.35,10.66V.27h2.46v16h-2.65L102.18,5.82V16.23Z"/><path d="M76.75,37.1c.16.55.42,1.09.66,1.68l0,.12v0a11.77,11.77,0,0,1,2.15.17c.42.06.84.17,1.25.27l.62.18a1.7,1.7,0,0,0,.5.09,3.56,3.56,0,0,0,2-.86,20.85,20.85,0,0,1,1.81-1.29A5.3,5.3,0,0,1,85.3,37a3.41,3.41,0,0,1-.55-1,7.47,7.47,0,0,1-.38-2.07,1.61,1.61,0,0,1,.3-1.08,2.45,2.45,0,0,1,.86-.66c.63-.32,1.29-.47,1.88-.82s1.06-.69,1.63-1a1.42,1.42,0,0,1-.44-.64.88.88,0,0,1,.05-.55,3.55,3.55,0,0,1,.23-.4,1.59,1.59,0,0,0,.42-1.22,3.4,3.4,0,0,0-.27-.68,3.61,3.61,0,0,1-.17-.45.94.94,0,0,1,0-.34.7.7,0,0,1,.14-.3,1.85,1.85,0,0,1,.76-.56,2.23,2.23,0,0,1,.84-.19,10.31,10.31,0,0,0-2.7-2.29,4.69,4.69,0,0,0-1.67-.55,5.28,5.28,0,0,0-.89,0l-.91,0a13.34,13.34,0,0,0-3.55.63,4.89,4.89,0,0,0-.77.35,5,5,0,0,0-.69.5A8.22,8.22,0,0,0,78.15,25a7.68,7.68,0,0,0-1.5,3.12,14.58,14.58,0,0,0-.37,3.57c0,1.23,0,2.46.15,3.67A10.19,10.19,0,0,0,76.75,37.1Zm4.83-11.76h0a4.2,4.2,0,0,1,1-1.85,3.3,3.3,0,0,1,1.16-.78A3.62,3.62,0,0,1,85,22.58a4.73,4.73,0,0,1,2.27.59A4.88,4.88,0,0,1,89,24.85h0a10.62,10.62,0,0,1-1.31,1.86,3.56,3.56,0,0,1-2.16,1A3.63,3.63,0,0,1,83.21,27a5.81,5.81,0,0,1-1.6-1.64l0,0,0,0Z"/><path d="M84.4,39.23a5.06,5.06,0,0,1-1.07.8A2.72,2.72,0,0,1,82,40.4a2.24,2.24,0,0,1-.73-.13l-.58-.2c-.39-.14-.79-.25-1.18-.38-.68-.21-1.36-.41-2-.64-.18.79-.52,1.47-.72,2.13a1.67,1.67,0,0,0-.08,1,3.31,3.31,0,0,0,.52.89c.21.31.45.6.66.93a2.4,2.4,0,0,1,.16.27,14.46,14.46,0,0,1,2.2.71,5,5,0,0,0,1.76-1.33c.28-.3.53-.61.8-.92a9.59,9.59,0,0,1,.87-.94,24.06,24.06,0,0,1,2-1.57c.61-.44,1.24-.85,1.81-1.33-.42-.38-.86-.75-1.3-1.14a1.07,1.07,0,0,1-.16-.14C85.4,38.11,85,38.71,84.4,39.23Z"/><path d="M85,23.17a2.58,2.58,0,0,0-1.89.5,12.47,12.47,0,0,0-1.47,1.69A18.85,18.85,0,0,0,83.5,26.5a4.07,4.07,0,0,0,1.93.47,3.71,3.71,0,0,0,1.83-.72,20.57,20.57,0,0,0,1.68-1.39A9.29,9.29,0,0,0,87,23.7,5.87,5.87,0,0,0,85,23.17Zm1.07,2.09a1.07,1.07,0,0,1-1.89,0,.29.29,0,0,1,0-.39,1.07,1.07,0,0,1,1.89,0A.32.32,0,0,1,86.05,25.26Z"/><path d="M37.65,74.59a2.44,2.44,0,0,1,1,.07c.23-.29.59-.76.9-1.13H39.5a17.38,17.38,0,0,1-2.16-.12l-.35,0,.13-.31a2.47,2.47,0,0,0,.08-.82c0-.31,0-.63,0-1,0-.11,0-.22,0-.32-.68.44-1.32.91-1.94,1.4S33.91,73.44,33.3,74a13.67,13.67,0,0,0-1.66,1.85,5.31,5.31,0,0,0-.76,1.32c.41-.14.84-.32,1.26-.5l2.12-1a21.06,21.06,0,0,1,2.21-.86A6.92,6.92,0,0,1,37.65,74.59Z"/><path d="M90,25.58a1.82,1.82,0,0,0-.45.55c0,.1,0,.06,0,.14l.17.31a3.35,3.35,0,0,1,.37.85,1.93,1.93,0,0,1,0,.54,2,2,0,0,1-.16.49,2.35,2.35,0,0,1-.4.56,9.61,9.61,0,0,0,1.76.27c.69.06,1.39.08,2.08.09h1.06a5.65,5.65,0,0,1,1.08.11,3.51,3.51,0,0,1,1,.36,2.08,2.08,0,0,1,.6.5A1.28,1.28,0,0,0,97,30a1.75,1.75,0,0,0-.38-.39,1.38,1.38,0,0,0-.24-.14,2.68,2.68,0,0,0-.28-.1,8.16,8.16,0,0,1-1.29-.64c-.41-.23-.78-.49-1.17-.72l-.05,0,0,0a7.16,7.16,0,0,0-.75-.68c-.26-.22-.55-.42-.83-.63a4.15,4.15,0,0,0-.43-.3l-.22-.13a.88.88,0,0,1-.24-.19,1.44,1.44,0,0,1-.23-.51,2.25,2.25,0,0,0-.23-.43l0,0A5.51,5.51,0,0,0,90,25.58Z"/><path d="M92.18,45.6c-.64-1.19-1.33-2.37-2-3.55-.18-.29-.35-.61-.51-.86a6.91,6.91,0,0,0-.61-.75A19.08,19.08,0,0,0,87.61,39l-.19-.16a11.63,11.63,0,0,1-1.54,1.68c-.6.57-1.21,1.12-1.78,1.7a9.78,9.78,0,0,0-.79.9,12.41,12.41,0,0,1-.84,1,6.27,6.27,0,0,1-1,.84,3.3,3.3,0,0,1-1.24.54l-.12,0-.07,0-2-1.15a1.09,1.09,0,0,1,.08.15.9.9,0,0,1,.07.65,10.53,10.53,0,0,1-.41,1.06,2.44,2.44,0,0,1-.39.61,20.43,20.43,0,0,1,3,.52A12,12,0,0,1,83,48.58c.8.5,1.58,1,2.35,1.58s1.5,1.13,2.23,1.73S89,53.1,89.66,53.75c-1.49-1.13-3-2.2-4.62-3.18-.79-.49-1.59-1-2.41-1.41a11.59,11.59,0,0,0-2.47-1.08,31.58,31.58,0,0,0-11-.06,27.12,27.12,0,0,0-5.26,1.64c-1.72.69-3.4,1.49-5,2.34-.82.43-1.63.89-2.42,1.37l-.57.37c-.19.13-.37.26-.56.41-.38.29-.77.56-1.16.82l-.7.44a4,4,0,0,0-.26.32,10.07,10.07,0,0,0-.71,1.12,6.89,6.89,0,0,0-.85,2.45,1.33,1.33,0,0,0,.06.55.57.57,0,0,0,.34.27,3.22,3.22,0,0,0,1.22.11,14.8,14.8,0,0,0,2.57-.41l.24-.06.17.22a1.26,1.26,0,0,0,.46.37,2,2,0,0,0,.65.1,9.14,9.14,0,0,0,1.53-.27l.42-.1a1.77,1.77,0,0,1,.54,0,1.26,1.26,0,0,1,.61.26,2.46,2.46,0,0,1,.35.39,4.35,4.35,0,0,1,.46.79c.12.25.23.54.33.72l0,0a.39.39,0,0,0,.2.13,1.93,1.93,0,0,0,.51.06,5.16,5.16,0,0,0,1.2-.19,8.69,8.69,0,0,0,2.32-1l.29-.17.28.19a2.62,2.62,0,0,0,1,.36,6.44,6.44,0,0,0,2.42-.11,4,4,0,0,0,1.07-.4l.22-.15.22.09a2.75,2.75,0,0,0,1.61,0,2.91,2.91,0,0,0,1.42-.85l.3-.37c.12-.14.24-.26.36-.38s.5-.46.75-.66A4.35,4.35,0,0,0,77,57.63l.17-.38.35.16a1.86,1.86,0,0,0,1.25,0A3.54,3.54,0,0,0,80,56.66l.18-.17.19.12a1.2,1.2,0,0,0,.85.15,2,2,0,0,0,.85-.41,6.21,6.21,0,0,0,1.36-1.6l.1-.16.14.1a1,1,0,0,0,.81.1,3.31,3.31,0,0,0,.88-.31l.88-.41a1.88,1.88,0,0,1,.87-.2,1.81,1.81,0,0,0-.83.3l-.83.48a3.93,3.93,0,0,1-.91.4,1.4,1.4,0,0,1-.88,0,6.47,6.47,0,0,1-1.26,1.7,2.47,2.47,0,0,1-1.07.58,1.69,1.69,0,0,1-1-.07A3.78,3.78,0,0,1,79,58a2.63,2.63,0,0,1-1.43.18,3.47,3.47,0,0,1-.5.61c-.24.24-.49.46-.73.67s-.47.42-.69.64l-.29.33-.31.39A3.81,3.81,0,0,1,73.24,62a3.69,3.69,0,0,1-2,.06,5.46,5.46,0,0,1-1.16.43,7.38,7.38,0,0,1-1.4.2,6.79,6.79,0,0,1-1.42-.06,3.56,3.56,0,0,1-1.16-.37,7,7,0,0,1-1,.48,9,9,0,0,1-1.33.44,6.67,6.67,0,0,1-1.44.21,2.69,2.69,0,0,1-.82-.11,1.35,1.35,0,0,1-.79-.69c-.14-.29-.22-.51-.32-.74a4,4,0,0,0-.35-.65.7.7,0,0,0-.32-.3,2.61,2.61,0,0,0-.67.1,7.67,7.67,0,0,1-1.72.24,2.58,2.58,0,0,1-1-.2,1.92,1.92,0,0,1-.62-.47,14,14,0,0,1-2.5.26,3.63,3.63,0,0,1-1.43-.23,1.07,1.07,0,0,1-.62-.6,1.6,1.6,0,0,1,0-.78,7.16,7.16,0,0,1,1.08-2.53,9.39,9.39,0,0,1,.81-1.07c-1.2.77-3.27,2.43-3.36,2.49-1.84,1.15-3.8,2-5.75,3-.26.13-.51.26-.78.38a4.08,4.08,0,0,1-.42.17l-.38.15c-.51.21-1,.45-1.51.7s-1,.5-1.46.79a4.67,4.67,0,0,0-.51.36l.73-.12c.54-.11,1.08-.25,1.62-.39,1.09-.28,2.17-.62,3.24-1q.81-.25,1.59-.54L47.68,61c1.06-.41,2.12-.83,3.2-1.21-1,.59-2,1.13-3,1.67l-1.52.8c-.53.26-1.06.47-1.59.68-1.06.44-2.15.8-3.25,1.14-.55.17-1.11.31-1.68.44-.29,0-.58.11-.89.15a2.72,2.72,0,0,1-.5,0,1.25,1.25,0,0,1-.31,0,.59.59,0,0,1-.22-.08l-.13-.08a.68.68,0,0,1-.11-.12,16.36,16.36,0,0,0-2.63,2,2.29,2.29,0,0,0-.48.63c-.12.28-.24.54-.33.81a2.35,2.35,0,0,0-.14.75.64.64,0,0,0,.23.5,1.12,1.12,0,0,0,.62.2,5.55,5.55,0,0,0,.81,0,11.33,11.33,0,0,0,1.7-.33,15.38,15.38,0,0,0,3.24-1.23c1.07-.59,2.16-1.12,3.24-1.64s2.15-1,3.19-1.63c2.08-1.19,4.18-2.35,6.35-3.43-1.94,1.44-3.94,2.8-6,4.12a27.32,27.32,0,0,1-3.15,1.81c-1.07.54-2.14,1.08-3.17,1.66a15.24,15.24,0,0,1-3.51,1.27l-.36.07a8.81,8.81,0,0,0,.12,1.36l.14.93a4,4,0,0,1,0,.7,15.74,15.74,0,0,0,1.82-.06c.35,0,.69-.06,1-.11a4.75,4.75,0,0,0,1-.22h.44l.28,0a4.47,4.47,0,0,0,.61-.14c.42-.11.82-.24,1.23-.37.82-.28,1.64-.57,2.43-.92a20.26,20.26,0,0,0,2.28-1.15c.69-.43,1.39-1,2.09-1.51,1.41-1,2.8-2.12,4.25-3.13a12.59,12.59,0,0,1,2.3-1.37c.8-.36,1.61-.71,2.42-1.05-.74.47-1.49.94-2.25,1.39l-.54.34c-.18.12-.34.25-.52.39-.34.26-.68.54-1,.82-1.35,1.12-2.69,2.26-4.06,3.36-.35.28-.69.55-1,.82s-.71.53-1.1.79a15.34,15.34,0,0,1-2.43,1.22l-.58.23a2.58,2.58,0,0,0,0,.38.66.66,0,0,0,.16.46.62.62,0,0,0,.45.13,4,4,0,0,0,.95-.4l.93-.51L49,72l-.06.34a3.77,3.77,0,0,0-.09.8s0,.1,0,.13l.28-.11a15,15,0,0,0,1.38-.92l.49-.34-.07.6a2.32,2.32,0,0,0,0,.84c0,.11.08.16.11.16a.77.77,0,0,0,.19-.08,3.55,3.55,0,0,0,.68-.57c.22-.22.44-.45.63-.68l.66-.78,0,1a3.17,3.17,0,0,0,.06.76.7.7,0,0,0,.09.25,2,2,0,0,0,.55-.36,7.53,7.53,0,0,0,.56-.57l.62-.7.11.94a2.05,2.05,0,0,0,.24.77l.06.07h0l.29-.1a4.69,4.69,0,0,0,.8-.46,3.89,3.89,0,0,0,.39-.28l.18-.14a.75.75,0,0,0,.09-.09h0v0l0-.06a1.47,1.47,0,0,1,.1-.13l.16-.21c.12-.14.23-.28.35-.4s.47-.52.72-.76a8,8,0,0,1,1.7-1.34,1.92,1.92,0,0,1,.63-.2l.54-.06,1-.06,2-.08c.67,0,1.35,0,2-.11L67,69l.53-.09,1-.11c1.36-.13,2.71-.2,4-.38a20.74,20.74,0,0,0,3.81-1,12.58,12.58,0,0,0,1.8-.79c.55-.32,1.14-.7,1.71-1.06l1.72-1.06.85-.55.41-.28.35-.26.4-.38,0,.51c0,.08,0,.09.07.13a.6.6,0,0,0,.29.05l.37-.06.16,0,0,0h0a.33.33,0,0,0,.06-.06,13.05,13.05,0,0,1,1.18-1.17,5.17,5.17,0,0,1,1.42-.9,3.12,3.12,0,0,1,1.65-.2,3.12,3.12,0,0,0-1.59.33,5.27,5.27,0,0,0-1.3,1A13,13,0,0,0,85,63.77l-.09.1-.07.05-.06,0-.21.09a2.37,2.37,0,0,1-.46.11,1.24,1.24,0,0,1-.52-.06.77.77,0,0,1-.19-.14l-.16.14-.41.3L82,65l-1.67,1.16c-.57.38-1.1.76-1.71,1.13a13,13,0,0,1-1.87.92,21.4,21.4,0,0,1-4,1.19c-1.38.23-2.73.31-4.06.44l-1,.11-.46.08-.55.09c-.71.07-1.38.1-2.06.13l-2,.06c-.33,0-.66,0-1,.06l-.46.05a1,1,0,0,0-.35.09,7.94,7.94,0,0,0-1.47,1.16c-.23.23-.47.46-.68.7l-.33.36-.15.18,0,.07,0,0v0l-.06.09a2.51,2.51,0,0,1-.25.24l-.22.17a4.27,4.27,0,0,1-.44.3,8,8,0,0,1-1,.53,1.7,1.7,0,0,1-.69.14.93.93,0,0,1-.74-.47,1.85,1.85,0,0,1-.18-.38l-.1.09a2.33,2.33,0,0,1-.93.51.79.79,0,0,1-.44,0,.84.84,0,0,1-.31-.27,1.28,1.28,0,0,1-.21-.54.41.41,0,0,1,0-.11l-.11.11a4.16,4.16,0,0,1-.84.62,1.32,1.32,0,0,1-.29.13.72.72,0,0,1-.43,0,.83.83,0,0,1-.45-.57,2.53,2.53,0,0,1-.06-.53l-.63.36c-.27.38-.53.77-.76,1.17a4.9,4.9,0,0,0-.38.76,1.46,1.46,0,0,0-.11.36.38.38,0,0,0,0,.11l0,0,0,.54,0,0,0,0,0,0-.15.2-.31.42-.6.89-.75,1.13c.46-.12.92-.25,1.38-.36l2.39-.61,2.37-.62,1.15-.35a4.77,4.77,0,0,0,1-.41l.77.25c0-.06.05,0,.17.12a3.29,3.29,0,0,0,.42.2,7.42,7.42,0,0,0,1,.35c.69.19,1.39.34,2.1.49s1.43.26,2.14.37a14.22,14.22,0,0,0,2.12.18h.14l.08.06a5.07,5.07,0,0,0,1,.77,7.54,7.54,0,0,0,1.05.45c0-.53,0-1,0-1.57a38.78,38.78,0,0,1,.77,4.12l.08.52,0,.13h0l0,0c.16-.09.32-.16.49-.24a9.83,9.83,0,0,1,2.1-.64,4.54,4.54,0,0,1,1.17,0,2.37,2.37,0,0,1,.62.13l.1,0,0-.1.12-.52c.08-.34.17-.68.28-1a28.35,28.35,0,0,1,1.45-4c-.09.67-.19,1.34-.3,2a12.81,12.81,0,0,1,1.32-.57c.65-.23,1.3-.44,1.91-.71,1.24-.56,2.46-1.18,3.66-1.81a22.63,22.63,0,0,0,3.43-2.13c1.06-.83,2.09-1.72,3.11-2.62s2-1.83,3-2.76l.37-.35c.12-.11.23-.21.34-.33a7.34,7.34,0,0,0,.59-.76A9.48,9.48,0,0,0,91.47,65a11.47,11.47,0,0,0,.64-1.84c.13-.63.26-1.35.43-2s.34-1.34.53-2a13.91,13.91,0,0,0,.45-1.94,28,28,0,0,0,.35-4,21.79,21.79,0,0,0-.22-4A14.85,14.85,0,0,0,92.18,45.6Z"/><path d="M58.12,72.89a.14.14,0,0,0,0-.06v0A.36.36,0,0,1,58.12,72.89Z"/><path d="M95.43,29.9c-.68-.07-1.36,0-2.08,0a13.72,13.72,0,0,1-2.13-.2,5.55,5.55,0,0,1-1.77-.61l-.11.11-.25.27a.36.36,0,0,0-.11.25,1.63,1.63,0,0,0,.12.66l.07,0-.07,0h0a10.57,10.57,0,0,1,1.77-.15c.61,0,1.22,0,1.83,0,0,0,2.37.2,2.65.18s1-.08,1-.08c.22.08.44,0,.65.09l0,0a1.89,1.89,0,0,0-.66-.34A4.13,4.13,0,0,0,95.43,29.9Z"/><path d="M47.26,76.58l.37-.42.21-.2s0,0,.06,0,0,0,0,0a1,1,0,0,1,0-.32,2,2,0,0,1,.21-.46,5.05,5.05,0,0,1,.53-.75,10,10,0,0,1,.77-.82l-.12.07a1.14,1.14,0,0,1-.49.14.37.37,0,0,1-.13,0,.24.24,0,0,1-.11-.08.71.71,0,0,1-.09-.17,1.28,1.28,0,0,1,0-.26,2.54,2.54,0,0,1,.07-.57l-.68.32a3.77,3.77,0,0,1-1.06.34.73.73,0,0,1-.53-.21.71.71,0,0,1-.15-.54c0-.12,0-.24.06-.36-.62.24-1.24.47-1.88.65-.43.13-.86.25-1.3.35-.23,0-.45.09-.68.12a2.1,2.1,0,0,1-.37,0l-.2,0-.13,0a4.87,4.87,0,0,1-1,.16,9.1,9.1,0,0,1-.91,0,52.08,52.08,0,0,1-2.92,4.94,6.06,6.06,0,0,1-.47.59,4.63,4.63,0,0,0-.41.49,8.34,8.34,0,0,0-.69,1.15,7.81,7.81,0,0,0-.51,1.21,2.7,2.7,0,0,0-.11.57.56.56,0,0,0,0,.2h.34a4.69,4.69,0,0,0,.62-.1,12.11,12.11,0,0,0,1.31-.36,19.45,19.45,0,0,0,2.56-1,7.73,7.73,0,0,0,1.15-.68,8.68,8.68,0,0,0,1-1c.68-.66,1.36-1.32,2.1-1.92L41.91,79.9l-.43.56A2.61,2.61,0,0,1,41,81a5.45,5.45,0,0,1-.46.38,12,12,0,0,0-.61,1.32,6.55,6.55,0,0,0-.3,1,1.57,1.57,0,0,0,0,.47c0,.07,0,.11,0,.17s0,0,0,0a.43.43,0,0,0,.23,0,2.07,2.07,0,0,0,.43-.13c.3-.13.6-.29.91-.46s.59-.36.89-.56l.45-.3.14-.08s0,0,0,0l0,0,.13-.18c.8-1.17,1.63-2.38,2.47-3.54.43-.59.86-1.17,1.3-1.74Z"/><path d="M64.47,82.39l.47-1.88-1.86-1-1.47-.33-.86-.46-.6,3.67A7,7,0,0,1,64.47,82.39Z"/><path d="M77.8,99.29l-.61-.06,1.56-.44a.28.28,0,0,0,0-.49,4.84,4.84,0,0,0-1.51-.56,7,7,0,0,0-2.16.65,4.93,4.93,0,0,1-1.27-1.72c-.25-.53-.54-1-.78-1.58a24.52,24.52,0,0,1-1.19-3.3,31,31,0,0,1-.71-3.42c-.08-.58-.16-1.16-.19-1.74a6.08,6.08,0,0,1,.09-1.7,3.38,3.38,0,0,1,0-1.89c-.18,0-1.39.18-1.58.21a22,22,0,0,0-2.36.7,10.22,10.22,0,0,1,.25,1.33c0,1.24.59,1.54.59,1.54s1.42,3.41,2.08,5.11c.34.86.68,1.7,1,2.59a10.67,10.67,0,0,1,.31,1.37l.29,1.5-.48.65c-.54-.46-2.63-.27-2.63-.27a4.93,4.93,0,0,1-1.27-1.72c-.25-.54-.54-1-.78-1.59a24.87,24.87,0,0,1-1.18-3.3,31,31,0,0,1-.71-3.42c-.09-.57-.16-1.15-.2-1.73a6.15,6.15,0,0,1,.1-1.71c-.29-1-.1-1.25-.09-1.32a7.74,7.74,0,0,0-3.83.35,12.35,12.35,0,0,1,.26,1.32c0,1.25.58,1.55.58,1.55s1.42,3.4,2.09,5.11c.33.85.67,1.7,1,2.58a10.72,10.72,0,0,1,.3,1.38l.3,1.5-1.57,2.12.28.4,1.77-1.53s.43,2.52,1.59,3.09a25.93,25.93,0,0,0,5.61.63,5,5,0,0,1-.7-2.55l-.37-.15h0l.45-.39s.43,2.52,1.6,3.09,8.73.73,8.73.73c-.21-.68.39-1.53,1.29-2.33A17,17,0,0,0,82,99.44C81,99.24,78.82,99.4,77.8,99.29Zm-7-.74,0,.07h-.11Z"/></svg>