<svg id="Layer_1" data-name="Layer 1" xmlns="http://www.w3.org/2000/svg" width="128" height="128" viewBox="0 0 128 128"><title>Artboard 34</title><path d="M32.17,128V111.5h10v2.79H34.89V118h6.8v2.78h-6.8v4.48h7.56V128Z"/><path d="M45.07,128V111.64h2.72v13.57h6.8V128Z"/><path d="M69,128H66l-1.19-3.74H59.42L58.3,128H55.4l5.26-16.5h2.9Zm-5-6.53-1.86-6.12-1.84,6.12Z"/><path d="M70.67,128V111.5h2.66l5.54,11v-11h2.54V128H78.67l-5.45-10.76V128Z"/><path d="M84.5,111.5h5a7.43,7.43,0,0,1,2.85.42,4.77,4.77,0,0,1,1.77,1.43,7.1,7.1,0,0,1,1.27,2.6,14.43,14.43,0,0,1,.46,4,12.92,12.92,0,0,1-.48,3.72,7.47,7.47,0,0,1-1.22,2.5,4.76,4.76,0,0,1-1.8,1.39,6.71,6.71,0,0,1-2.7.47H84.5Zm2.72,2.79v10.92h2a5.2,5.2,0,0,0,1.91-.25,2.24,2.24,0,0,0,1-.75,4.2,4.2,0,0,0,.62-1.58,12.79,12.79,0,0,0,.25-2.84,12.92,12.92,0,0,0-.25-2.89,3.78,3.78,0,0,0-.79-1.66,2.45,2.45,0,0,0-1.3-.8,10.52,10.52,0,0,0-2.22-.15Z"/><path d="M120,71.14c.65,1.7,2.36,6,2.36,6S124,73,124,70.46s-2.09-4.3-2.22-5-.9-1.28-1.44-7.44,0-10.64-.32-15.87a12.28,12.28,0,0,0-.78-3.44c-.22-.56-.45-1.12-.59-1.45a9.89,9.89,0,0,0-1.54-2.36,8.35,8.35,0,0,0-2.17-1.76,13.61,13.61,0,0,0-2.64-1,35.42,35.42,0,0,0-5.62-1,40.22,40.22,0,0,0-5.7-.26,68.88,68.88,0,0,1-9.51.58c-3.19,0-6.37-.05-9.54-.16-1.6-.07-3.18-.13-4.78-.24a21.7,21.7,0,0,1-4.77-.84,20.68,20.68,0,0,1-4.46-1.91c-1.41-.75-2.72-1.76-4.06-2.45-2.75-1.43-6-1.59-9.11-1.68a14.1,14.1,0,0,0-4.53.81c-1.52.46-3,1-4.48,1.55s-3,1.13-4.48,1.66a8.65,8.65,0,0,1-2.38.59,9.25,9.25,0,0,1-2.41-.37A34,34,0,0,1,32,26.68a30.13,30.13,0,0,1-4.2-2.22,4.41,4.41,0,0,1-1.6.81c-.21.61-.43,1.21-.69,1.81l-.1,0a20.83,20.83,0,0,1,.22-2.12v-.14l.21-.11a4.43,4.43,0,0,0,1.64-1.3,4.56,4.56,0,0,0,.58-2,17.3,17.3,0,0,0,.12-2.29v-1.9a9.32,9.32,0,0,0-1.84,1.49A17.56,17.56,0,0,0,24.58,21a3.31,3.31,0,0,0-.25.47c0,.21,0,.44-.09.67,0,.45-.07.93-.07,1.38v.33c0,.11,0,.18,0,.38a1.89,1.89,0,0,1-.19.84,14.26,14.26,0,0,1-.77,1.27l-.1-.05c.09-.48.28-1,.37-1.4a1.43,1.43,0,0,0,0-.58c0-.05-.07-.21-.09-.34a1.8,1.8,0,0,1-.08-.39,1.48,1.48,0,0,0,0-.21,10.07,10.07,0,0,0-2.1.27,4.27,4.27,0,0,1-.64.11,1.16,1.16,0,0,1-.84-.16,8.52,8.52,0,0,0-1.05-.39c-.78-.23-1.57-.45-2.37-.62q-.6-.14-1.17-.21a3.39,3.39,0,0,0-.52,0c-.11,0-.19.06-.35.17-1.2,1-2.16,2.42-3.52,3.5a2.78,2.78,0,0,0-1.72,1.68,3.89,3.89,0,0,0-.16,2.11L9,30V30a19.35,19.35,0,0,0-.1,2.85,1.63,1.63,0,0,1-.28.91l-.44.62-.86,1.15c-.87,1.16-2.38,2.83-3.1,3.59a.68.68,0,0,0,0,.87l1.55,2a2,2,0,0,0,1.52-.1l0,0a13.14,13.14,0,0,1,1.08.83.56.56,0,0,0,.56.09,16.82,16.82,0,0,1,1.67-.63,15.72,15.72,0,0,0,1.91-.91c.65-.34,1.32-.66,2-1a7.11,7.11,0,0,1,2.07-1c.75-.11,1.52-.12,2.23-.18a4.66,4.66,0,0,0,.82-.61,9.57,9.57,0,0,0,.78-.78c.5-.55,1-1.14,1.48-1.65s1-.94,1.58-1.4A18.33,18.33,0,0,1,24,32.4h.11a21.29,21.29,0,0,1,0,2.65v.11l-.11.12c-.51.54-4.26,4.7-4.63,4.89a14.93,14.93,0,0,0-1.82.19,7.43,7.43,0,0,1,1.87,1.52,28.12,28.12,0,0,1,2.25,2.73,21.15,21.15,0,0,1,3.22,6.31l.21.88.13.9.16,1.73c.1,1.17.2,2.33.33,3.49s.29,2.32.39,3.48a17.29,17.29,0,0,1,.12,3.39,7.14,7.14,0,0,1,.8.92,10.09,10.09,0,0,1,.67,1.16,2.09,2.09,0,0,0,.7.84,4.31,4.31,0,0,0,1,.46l.38.11-.05.4A1.7,1.7,0,0,0,30.34,70a3.77,3.77,0,0,0,1.38.89,5.88,5.88,0,0,0,3.33.13c.61-.28,1.23-.53,1.85-.76a14.63,14.63,0,0,1,2-.61l.18,0,.16.08a14.27,14.27,0,0,0,2.19,1.06,18.82,18.82,0,0,0,2.34.77,12.09,12.09,0,0,0,2.44.36,9.75,9.75,0,0,0,2-.12.26.26,0,0,0,0-.11c.13-1,.26-2.1.45-3.15l.15-.76A31.36,31.36,0,0,1,39,57.37c-.5-.84-.94-1.72-1.37-2.6S36.76,53,36.3,52.19a23.48,23.48,0,0,0-3.23-4.7,33.59,33.59,0,0,0-4.4-3.57c1.74.86,4.08,1.69,5.52,3.08a18.14,18.14,0,0,1,3.55,4.77c.94,1.76,1.95,3.38,2.8,5.11.13.29.27.57.42.85a13.29,13.29,0,0,0,2,3.05c1.23,1.42,3.13,3.61,4.5,5A8.36,8.36,0,0,1,49,67.17a2.33,2.33,0,0,1,.14-.33,1.68,1.68,0,0,0,.16-1.16l0-.05a41.49,41.49,0,0,1-1.74-6.23,23.19,23.19,0,0,1-.38-3.22A10.61,10.61,0,0,1,47.48,53l.1,0a10.59,10.59,0,0,0-.09,3.18A24,24,0,0,0,48,59.29a40.75,40.75,0,0,0,2,6.05,2.24,2.24,0,0,1-.11,1.83,5.92,5.92,0,0,0-.33,1.42c-.16,1-.27,2.07-.37,3.12S49,73.78,49,74.83s-.16,3.11-.17,4.12v.15l-.07.14a7.54,7.54,0,0,0-.78,3.05A18.38,18.38,0,0,0,48,85.61c0,.14,0,.21.06.36a2.86,2.86,0,0,1,.09.46c.06.3.09.59.12.89a17.08,17.08,0,0,1,.08,1.75,13.11,13.11,0,0,1-.08,1.77,22.79,22.79,0,0,1-1.34,4.56,36.24,36.24,0,0,1-2.38,4.48l2.62.53.55-.83.68,0s.3-1.22.78-3.3,1.27-2.42,1.42-3.56q.39-3.45.82-6.88v-.06l.06,0a4.75,4.75,0,0,0,1.35-2.28,21.59,21.59,0,0,0,.46-2.73c.28-1.85.68-4.7,1.11-6.52a29.32,29.32,0,0,1,1.73-5.41c.27-.49.52-.82.77-1.22l.77-1.18a8.22,8.22,0,0,1,1.89-2.07,7,7,0,0,0,.54-2c.1-.66.16-1.32.2-2,.07-1.58.11-3.17.07-4.75s-.1-3-.16-4.53-.2-3-.36-4.51H60a16.91,16.91,0,0,1,1.13,4.49c.19,1.5.29,3,.39,4.53s.14,3,.07,4.57a22.25,22.25,0,0,1-.17,2.29,6.94,6.94,0,0,1-.63,2.33l-.05.07-.07.06a9,9,0,0,0-2.2,2L57,69.18c.91-.62,2.17-1.38,2.76-1.73a22.19,22.19,0,0,1,2.5-1.33,16.17,16.17,0,0,1,2.7-.91,6.12,6.12,0,0,1,3,0c1.19.24,2.37.48,3.57.66s2.43.27,3.66.34,2.44,0,3.65,0a30.3,30.3,0,0,0,3.6-.31,16.3,16.3,0,0,0,3.37-1.08c1.11-.47,2.21-1,3.3-1.52,2.12-1,4.19-2.16,6.29-3.3a11.58,11.58,0,0,0-5.87-.57l0-.1a8.56,8.56,0,0,1,7,.31,12,12,0,0,1,2.91,1.86,15.24,15.24,0,0,1,2.3,2.59c1.38,1.82,2.57,3.88,4,5.6s2.66,3.77,4,5.57l4.16,5.43c.72,1,1.09,1.13,1.41,2.24s.58,2.24.79,3.37a57.47,57.47,0,0,1,1,5.8l.16,1.7.08.85a3.14,3.14,0,0,1-.08,1,5.7,5.7,0,0,1-1.61,2.63l2.45.54.76-1.2.15-.3h.33l1,0a45.64,45.64,0,0,1-1.09-7c-.46-4.79-.88-15.08-.88-15.08a43.38,43.38,0,0,1-4-6.06,9.68,9.68,0,0,1-1.13-3.64,15.37,15.37,0,0,1,.33-3.74v-.07c.7-1.82,1.61-3.51,2.44-5.23a40.34,40.34,0,0,0,2.16-5.28,18.17,18.17,0,0,0,.79-3.3,90.36,90.36,0,0,0,.25,10.26,46.74,46.74,0,0,0,1.27,7.5S119.17,69,120,71.14ZM14.34,29.89a1.92,1.92,0,0,1-1.42,0,.28.28,0,0,1-.18-.35,1.91,1.91,0,0,1,.84-1.15,2,2,0,0,1,1.42,0,.29.29,0,0,1,.18.35A1.88,1.88,0,0,1,14.34,29.89Z"/><path d="M16.8,21.74a19.31,19.31,0,0,1,2.2.69,8.86,8.86,0,0,1,1.84.62s.11.06.24.07a24.73,24.73,0,0,1,2-3.42A74.89,74.89,0,0,0,32.31,3.64,14.17,14.17,0,0,0,33.19.32c-.11,0-1.4,2.26-2,3.21C30,5.42,24.61,13.44,21.3,17.1,19.85,18.71,18.11,20,16.8,21.74Z"/><path d="M59.05,84.06a13.89,13.89,0,0,1,.2-1.92l.1-.48,0-.4q0-.44,0-.9c0-1.22-.06-2.47-.14-3.72-.11-2.4-.29-5.82-.24-8.24-.73.36-1.61.81-2.25,1.15a38.29,38.29,0,0,0-1.64,4.88c-.5,1.79-1,4.61-1.33,6.42-.12.62-.22,1.25-.36,1.88a8.08,8.08,0,0,0,.37.85c.21.43.44.84.68,1.24s.49.8.75,1.18a6.39,6.39,0,0,0,.85,1l.09.08,0,.14.57,3.28c.18,1.11.38,2.21.52,3.31s.32,2.21.37,3.39a1.79,1.79,0,0,1-.18,1.21,9,9,0,0,1-.52.91l2.5.51a2.22,2.22,0,0,1,.26-.87l1-.21a40.55,40.55,0,0,1-1.12-7.23A58.62,58.62,0,0,1,59.05,84.06Z"/><path d="M16.56,21.67l.1,0c3.08-3.9,7.64-8.29,8.71-11.3A101.09,101.09,0,0,0,28.25.29,18.21,18.21,0,0,0,26.4,2.64C25.47,4.45,24,7.23,23.29,9.13a50,50,0,0,1-4.77,8.18A51,51,0,0,1,15,21.43l.28,0A10,10,0,0,1,16.56,21.67Z"/><path d="M97.17,60.93A11.35,11.35,0,0,0,96,60.29c-.19-.1-.39-.18-.58-.26a43.67,43.67,0,0,1-6,4.09,20.36,20.36,0,0,1-7,2.71l-.54,0,1.5.74c.67.32,1.35.63,2,.88a9.46,9.46,0,0,1,1.15-1,17.13,17.13,0,0,1,1.55-1,30,30,0,0,0,3.15-1.86,27.9,27.9,0,0,1,2.93-2.19A30,30,0,0,1,97.17,60.93Z"/><path d="M110.06,78.05c-.07-.48-.13-1-.19-1.45l-.69-.93c-1.36-1.82-2.7-3.67-4.08-5.47s-2.78-3.63-4.12-5.46a15,15,0,0,0-2.18-2.56,10.69,10.69,0,0,0-1-.8c.32,1.42.64,2.85,1,4.26.2.75.41,1.51.67,2.24a8,8,0,0,0,1,2l.06.08v.09c.33,1.69.62,3.35,1,5,.21.82.43,1.63.69,2.42a8.61,8.61,0,0,0,1,2.19l.09.12v.14a31.38,31.38,0,0,1-.19,4.92c-.26,2,.11,2.38-.78,4.18s-2,3.45-3,5.14-2,3.09-3.05,4.6l2.49.59,1.27-1.57.2-.25.32.09,1.26.5a13.69,13.69,0,0,1,.69-3,4.53,4.53,0,0,1,.34-.76c.22-.4.44-.85.65-1.28l1.74-3.69,2.61-5.24c.94-1.69,1.77-2.34,2.6-4.1a5.71,5.71,0,0,1-.27-.93C110.18,78.74,110.12,78.39,110.06,78.05Z"/><polygon points="42.62 103 46.95 103 47.03 100.87 44.32 100.43 42.62 103"/><polygon points="55.01 102.54 59.34 102.54 59.42 100.41 56.71 99.97 55.01 102.54"/><polygon points="94.14 102.15 98.47 102.15 98.55 100.02 95.84 99.58 94.14 102.15"/><polygon points="113.39 101.69 117.73 101.69 117.81 99.55 115.1 99.12 113.39 101.69"/></svg>