<svg id="Layer_1" data-name="Layer 1" xmlns="http://www.w3.org/2000/svg" width="128" height="128" viewBox="0 0 128 128"><title>Artboard 40</title><path d="M46.55,16.5V0h10V2.79H49.27V6.45h6.8V9.23h-6.8v4.48h7.57V16.5Z"/><path d="M59.45,16.5V.14h2.73V13.71H69V16.5Z"/><path d="M71.16,16.5V0h10V2.79H73.89V6.45h6.8V9.23h-6.8v4.48h7.56V16.5Z"/><path d="M29.91,127.73V114.47H26v-2.7h10.4v2.7H32.54v13.26Z"/><path d="M38.36,127.73v-16h5.56a7.9,7.9,0,0,1,3,.43,3.42,3.42,0,0,1,1.5,1.49,5.21,5.21,0,0,1,.59,2.54,4.74,4.74,0,0,1-.9,3,4,4,0,0,1-2.55,1.44A6.38,6.38,0,0,1,47,122a18.7,18.7,0,0,1,1.52,2.6l1.59,3.11H47l-1.91-3.47a22.85,22.85,0,0,0-1.4-2.36,2.08,2.08,0,0,0-.78-.65,3.6,3.6,0,0,0-1.33-.18H41v6.66ZM41,118.52h2a9.53,9.53,0,0,0,2.29-.16,1.39,1.39,0,0,0,.79-.63,2.31,2.31,0,0,0,.31-1.28,2.12,2.12,0,0,0-.31-1.22,1.54,1.54,0,0,0-.82-.64,10.48,10.48,0,0,0-2.15-.12H41Z"/><path d="M63.57,127.73H60.71l-1.15-3.62H54.33l-1.09,3.62h-2.8l5.09-16h2.8Zm-4.86-6.31-1.8-5.93-1.78,5.93Z"/><path d="M73.56,121.86l2.56,1a7.19,7.19,0,0,1-2,3.91A5,5,0,0,1,70.7,128a5.09,5.09,0,0,1-4.15-2,9.52,9.52,0,0,1-1.83-6.14,10,10,0,0,1,1.84-6.39,5.24,5.24,0,0,1,4.31-2,5,5,0,0,1,3.68,1.5,6.59,6.59,0,0,1,1.55,3.17l-2.62.76a3.58,3.58,0,0,0-1-2,2.53,2.53,0,0,0-1.77-.69,2.79,2.79,0,0,0-2.36,1.27,7.25,7.25,0,0,0-.92,4.16,7.69,7.69,0,0,0,.9,4.29,2.7,2.7,0,0,0,2.31,1.28,2.4,2.4,0,0,0,1.81-.81A5.17,5.17,0,0,0,73.56,121.86Z"/><path d="M78.62,127.73v-16h2.64v7.1l5.35-7.1h3.56L85.23,118l5.2,9.74H87l-3.61-7.5-2.14,2.68v4.82Z"/><path d="M91.34,122.53l2.58-.31q.43,3.06,2.85,3.06a2.7,2.7,0,0,0,1.89-.63,2,2,0,0,0,.68-1.55,1.68,1.68,0,0,0-.24-.92,1.76,1.76,0,0,0-.73-.63,21.38,21.38,0,0,0-2.37-.82,8,8,0,0,1-2.47-1.11,4.25,4.25,0,0,1-1.25-1.57,4.91,4.91,0,0,1-.46-2.09,4.74,4.74,0,0,1,.59-2.35A4,4,0,0,1,94.05,112a5.73,5.73,0,0,1,2.58-.53,4.54,4.54,0,0,1,5,4.83l-2.65.14a2.79,2.79,0,0,0-.75-1.79,2.39,2.39,0,0,0-1.64-.51,2.65,2.65,0,0,0-1.65.44,1.38,1.38,0,0,0,0,2.2,7.2,7.2,0,0,0,2.41,1,9.87,9.87,0,0,1,2.87,1.22,4,4,0,0,1,1.36,1.64,5.77,5.77,0,0,1,.47,2.44,5.05,5.05,0,0,1-1.28,3.5,5.15,5.15,0,0,1-4,1.41C93.49,128,91.71,126.18,91.34,122.53Z"/><circle cx="23.36" cy="89.81" r="9.36"/><circle cx="46.21" cy="93" r="9.36"/><circle cx="66.26" cy="77.27" r="9.36"/><circle cx="85.93" cy="57.11" r="9.36"/><circle cx="104.64" cy="37.44" r="9.36"/><circle cx="40.74" cy="69.76" r="9.36"/><circle cx="62.13" cy="53.72" r="9.36"/><circle cx="79.17" cy="35" r="9.36"/></svg>