<svg id="Layer_1" data-name="Layer 1" xmlns="http://www.w3.org/2000/svg" width="128" height="128" viewBox="0 0 128 128"><title>Artboard 35</title><path d="M39.85,111.5h5.33a8.18,8.18,0,0,1,3.07.4,3.32,3.32,0,0,1,1.49,1.4,4.33,4.33,0,0,1,.61,2.28,4.27,4.27,0,0,1-.52,2.12,3.4,3.4,0,0,1-1.36,1.4,3.62,3.62,0,0,1,1.86,1.44A4.48,4.48,0,0,1,51,123a5.07,5.07,0,0,1-.85,3,3.48,3.48,0,0,1-2,1.51,20.14,20.14,0,0,1-3.75.2H39.85Zm2.68,2.7V118H44.3c1.06,0,1.72,0,2,0a1.71,1.71,0,0,0,1.07-.58,2,2,0,0,0,.39-1.28,2,2,0,0,0-.32-1.17,1.29,1.29,0,0,0-.76-.56,16.86,16.86,0,0,0-2.57-.11Zm0,6.45V125H45a8,8,0,0,0,2.11-.17,1.58,1.58,0,0,0,.78-.68,2.34,2.34,0,0,0,.32-1.27,2.38,2.38,0,0,0-.34-1.31,1.72,1.72,0,0,0-.9-.7,8.41,8.41,0,0,0-2.29-.2Z"/><path d="M53.47,111.5h2.68v8.79a20.79,20.79,0,0,0,.1,2.66,2.68,2.68,0,0,0,.84,1.66,3,3,0,0,0,3.29.18,2.13,2.13,0,0,0,.81-1.16,14.53,14.53,0,0,0,.21-3.16v-9h2.68V120a22.65,22.65,0,0,1-.35,4.72,4,4,0,0,1-1.57,2.36,5.31,5.31,0,0,1-3.23.9,6,6,0,0,1-3.24-.75,4.22,4.22,0,0,1-1.7-2.1,15.92,15.92,0,0,1-.52-5Z"/><path d="M67.21,127.72V111.63h2.67V125h6.69v2.74Z"/><path d="M78.79,127.72V111.63h2.68V125h6.68v2.74Z"/><path d="M99.49,81.51a23.12,23.12,0,0,1-3.77,8,12.18,12.18,0,0,1-3.48,3.36c.35.11.71.22,1.07.31A14.4,14.4,0,0,0,103,91.67c2.4-1.58-.92-4.83-2.32-8.17C99.41,80.34,99.81,80.18,99.49,81.51Z"/><path d="M109.49,67.46a110.08,110.08,0,0,1-8-13.67,9.71,9.71,0,0,1-1-5.81c.12-.87.22-1.72.31-2.59-.67-.08-1.34-.24-2-.27a25.7,25.7,0,0,0-2.63.05,24.16,24.16,0,0,0-2.68.31l0-.16a20.49,20.49,0,0,1,2.59-1,17.57,17.57,0,0,1,2.73-.53,10.27,10.27,0,0,1,2.22-.12c.08-1.07.12-2.13.12-3.19-.53,0-1,0-1.54,0-.83,0-1.67-.2-2.55-.2a26,26,0,0,0-2.63.16,24,24,0,0,0-2.65.43l-.06-.16a19.68,19.68,0,0,1,2.54-1.06A15.28,15.28,0,0,1,96.81,39a7,7,0,0,1,2.84-.13,4.3,4.3,0,0,1,1.31.51,25.87,25.87,0,0,0-1.91-9.23A11.87,11.87,0,0,1,98.39,25c.2-3.64-1-6.72-2.53-10.09C94.54,12,95.53,8,94.19,4.7c-.78-1.93-2.08-2.39-3.93-1.51a11.69,11.69,0,0,0-5.12,4c-.84,1.36-1.66,1.37-2.88.79-2.34-1.12-4.75-2-7.39-1.09a5.74,5.74,0,0,1-4.41-.26l.52,7.3-1.5,6.81.21-7.15L68.11,6.47a2.29,2.29,0,0,0-1.34-1.61c-2.41-1-8.18-3.47-10.48-4.35a5.83,5.83,0,0,0-4.23,0c-5,2-17.57,7.27-24.21,13.19-1.64,1.48-1.14,3.46-.27,5.1a3.84,3.84,0,0,1,.38,1c.86,1.3,1.74,2.57,2.66,3.79.38.53.76,1.05,1.18,1.55s.78,1,1.19,1.54c.83,1,1.64,2,2.44,3.06,1.59,2.07,3.13,4.24,4.94,6.17a60.48,60.48,0,0,0,5.75,5.46c1,.84,2.06,1.65,3.08,2.46s2,1.63,3.08,2.41a37.56,37.56,0,0,0,6.5,3.94c2.2,1,4.75,1.77,6.24.41a5.87,5.87,0,0,0,1-1.32c.28-.54.56-1.11.8-1.71.5-1.2.94-2.48,1.51-3.69l.23.06c-.17,1.33-.3,2.63-.56,4a8.46,8.46,0,0,1-1.66,4,4.63,4.63,0,0,1-2,1.39,6.3,6.3,0,0,1-2.37.29,13.2,13.2,0,0,1-4.22-1c-2.61-1.14-4.68-3-6.88-4.53a70.26,70.26,0,0,1-10.95-9.79A120.37,120.37,0,0,1,29.06,24.58a17.79,17.79,0,0,1-1.42-2.7,5.6,5.6,0,0,1-.67.84c-1,1-2,2.1-3,3.18a23,23,0,0,0-5.84,11.58,48.51,48.51,0,0,0,1.44,21.66c1,3.72,2.16,7.57,2.07,11.6-.14,7.93.49,15.86-.29,23.78-.23,2.19.73,3.47,3.17,3.3s4.93-.22,7.38-.37c3.42-.23,3.47-.3,2.41-3.81.76.11,1.2.17,1.64.28,3.35.83,5.15-.6,4.93-4-.07-.91-.23-1.81-.33-2.73-.75-6.33.18-12.19,4.74-17a14.49,14.49,0,0,0,3.22-4.74c.57-1.51,1.27-1.29,2-.21A26.42,26.42,0,0,1,54,71.75c2.13,6,3,12.23,4.34,18.36a14.2,14.2,0,0,1-.47,8.07c-1.19,3.26-.11,5,3.38,4.81,3.27-.17,6.56-.54,9.8-1,3-.44,3-.75,1.77-3.39-.13-.29-.67-.57-.31-.91,2.77-2.51.06-3.87-1.28-5.21a8.47,8.47,0,0,1-2.61-5.77,27.29,27.29,0,0,1,1.69-11.29c1-2.79,1.93-5.49,2.85-8.2a94.45,94.45,0,0,0,12.59,7.46,9.82,9.82,0,0,1,2.16,1.39,20.1,20.1,0,0,1-.35,7.41c-.57,2-1.41,4-3.48,4.61s-2.59-1.56-3.57-2.74S78.31,84,77.6,84.72c-.9.91-2.44,2.11-1.86,3.55,1.56,4,5.36,6,9.69,5.58a11.68,11.68,0,0,0,5.21-1.74,12.15,12.15,0,0,0,3.47-3.36,21.33,21.33,0,0,0,4.28-12.21,8,8,0,0,1,.35-2.72,4.5,4.5,0,0,1,1-1.53c1.2-1.26-1.64-1.84-1.18-3.65.69-2.74.69-5.66,1-8.6,1.22.39,1.5,1.23,2,1.87a45.68,45.68,0,0,0,5.92,7.17c.73.67,1.73,1.62,2.63.94C111.16,69.18,110,68.19,109.49,67.46ZM31.17,79.21c.63-3.68,1.13-7.4,3.26-10.58A23.25,23.25,0,0,1,31.17,79.21Zm47.4-50.54a1.09,1.09,0,1,1-1.09,1.09A1.09,1.09,0,0,1,78.57,28.67ZM98,71.83C96.57,73.64,84.69,63.08,83.18,61s-9-8.43-9.73-9.81c-.23-.45,0-1.06.52-1.66a3.14,3.14,0,0,1,4.87,0c1.91,2.35,4.91,5.89,8.12,9.23C92.69,64.69,98.89,70.32,98,71.83Z"/></svg>