<svg id="Layer_1" data-name="Layer 1" xmlns="http://www.w3.org/2000/svg" width="128" height="128" viewBox="0 0 128 128"><title>Artboard 41</title><path d="M16.08,125.27v-16.5h10v2.79H18.8v3.66h6.8V118H18.8v4.48h7.56v2.79Z"/><path d="M29,125.27V108.9H31.7v13.58h6.8v2.79Z"/><path d="M40.69,125.27v-16.5h10v2.79H43.41v3.66h6.8V118h-6.8v4.48H51v2.79Z"/><path d="M60.36,128H58.89a19.45,19.45,0,0,1-1.79-4.46,17.63,17.63,0,0,1-.63-4.57,17.4,17.4,0,0,1,.63-4.66A18.32,18.32,0,0,1,58.91,110h1.47a33.34,33.34,0,0,0-1.46,4.89,22.19,22.19,0,0,0-.38,4.16,22.91,22.91,0,0,0,.54,4.79A27.73,27.73,0,0,0,60.36,128Z"/><path d="M62.05,114h2v1.36a4,4,0,0,1,1.17-1.2,2.57,2.57,0,0,1,1.37-.4,2.33,2.33,0,0,1,1.37.4,2.88,2.88,0,0,1,.94,1.19,4.13,4.13,0,0,1,1.16-1.19,2.41,2.41,0,0,1,1.33-.4,2.64,2.64,0,0,1,1.44.4,2.53,2.53,0,0,1,.91,1.14,6.13,6.13,0,0,1,.32,2.28V124H71.88v-5.69a4.8,4.8,0,0,0-.26-2,.91.91,0,0,0-.88-.49,1.32,1.32,0,0,0-1.16.69,5.58,5.58,0,0,0-.44,2.69V124H67v-5.45a7.36,7.36,0,0,0-.18-2.09.91.91,0,0,0-1-.62,1.35,1.35,0,0,0-.88.32,1.76,1.76,0,0,0-.58.93,8.3,8.3,0,0,0-.18,2.08V124H62.05Z"/><path d="M76.39,112.67v-2.44h2.17v2.44Zm0,11.29V114h2.17V124Z"/><path d="M79.92,124l2.93-5.08L80,114h2.64l1.48,2.56L85.64,114h2.53l-2.74,4.75,3,5.19H85.78l-1.67-2.89L82.44,124Z"/><path d="M94.64,120.81l2.14.44a4.21,4.21,0,0,1-1.34,2.22,3.79,3.79,0,0,1-5-.48,6,6,0,0,1-1.16-3.94,6.32,6.32,0,0,1,1.17-4A3.13,3.13,0,0,1,93,113.78a3.28,3.28,0,0,1,2.74,1.3,7.08,7.08,0,0,1,1.14,4.37v.3h-5.4a3,3,0,0,0,.53,1.83,1.53,1.53,0,0,0,1.24.65C93.94,122.23,94.4,121.76,94.64,120.81Zm.11-2.67a2.89,2.89,0,0,0-.5-1.75,1.36,1.36,0,0,0-1.11-.59,1.39,1.39,0,0,0-1.15.61,2.7,2.7,0,0,0-.47,1.73Z"/><path d="M106.31,124h-2V122.5a3.81,3.81,0,0,1-1.17,1.27,2.54,2.54,0,0,1-1.39.43,2.93,2.93,0,0,1-2.38-1.37,6.42,6.42,0,0,1-1-3.9,6.3,6.3,0,0,1,1-3.85,3,3,0,0,1,2.44-1.3,2.51,2.51,0,0,1,1.28.35,3.67,3.67,0,0,1,1.09,1v-4.94h2.16Zm-5.75-5.18a6.64,6.64,0,0,0,.23,2,2.16,2.16,0,0,0,.65,1,1.53,1.53,0,0,0,1,.33,1.5,1.5,0,0,0,1.23-.77,4.14,4.14,0,0,0,.53-2.32,4.59,4.59,0,0,0-.51-2.48,1.48,1.48,0,0,0-2.57,0A3.88,3.88,0,0,0,100.56,118.78Z"/><path d="M108,128a27.16,27.16,0,0,0,1.27-4.11,23.37,23.37,0,0,0,.54-4.84,22.2,22.2,0,0,0-.37-4.16A33.34,33.34,0,0,0,108,110h1.47a19.11,19.11,0,0,1,1.82,4.36,17,17,0,0,1,.61,4.49,18.35,18.35,0,0,1-.61,4.62,19.2,19.2,0,0,1-1.8,4.53Z"/><path d="M120,84.34a4.46,4.46,0,0,0,.46-.67,3.16,3.16,0,0,0,.19-.75,13.73,13.73,0,0,0,.07-1.71,30.78,30.78,0,0,0-.25-3.45L120.25,76a8.29,8.29,0,0,1,0-1.86,18.44,18.44,0,0,1,2-6.89,10.92,10.92,0,0,1,1-1.55,10.22,10.22,0,0,0,1.06-1.35,6.81,6.81,0,0,0,1-3.15,9.43,9.43,0,0,0-.44-3.4,12.84,12.84,0,0,1-.36-3.54c0-1.18.07-2.35.11-3.52l0-1.76a10.28,10.28,0,0,1,.11-1.81,10.93,10.93,0,0,1,1.35-3.37,25.14,25.14,0,0,0,1.65-3,5.07,5.07,0,0,0-.15-3.23,15.8,15.8,0,0,0-1.48-3,14.66,14.66,0,0,1-2.26,2.57c-1,1-2,2-3.13,3l-1,.86h.06c-.09,3.14,0,6.28.14,9.41a87.07,87.07,0,0,1,.43,9.45,23.74,23.74,0,0,1-.66,4.74c-.4,1.53-.85,3-1.3,4.54s-.92,3-1.29,4.53a9.58,9.58,0,0,0-.36,2.29c0,.78,0,1.57,0,2.35v0a28.42,28.42,0,0,0-.07,3.06,6.54,6.54,0,0,0,.07.75,5.94,5.94,0,0,1,.11.77l.1,1.54a5.57,5.57,0,0,0,.26,1.44,2,2,0,0,0,.31.6,1.26,1.26,0,0,0,.2.2A24.41,24.41,0,0,0,120,84.34Z"/><path d="M105.74,18l.83-.31a15.89,15.89,0,0,0-4,0,15.14,15.14,0,0,0-2.26.67c-.64.22-1.28.5-2,.78,1.32.45,2.62.93,3.91,1.42A9.59,9.59,0,0,1,105.74,18Z"/><path d="M92.64,48.62a7.88,7.88,0,0,1-.4.76,20.85,20.85,0,0,0,.39,3q.3,1.56.66,3.12l1.47,6.2c.26,1,.51,2.07.7,3.15s.29,2.09.5,3.15c.39,2.09.84,4.17,1.15,6.3a63.43,63.43,0,0,1,.41,6.43l.07,3.2a4.4,4.4,0,0,1-.2,1.67,6.84,6.84,0,0,1-.72,1.52c-.28.46-.59.9-.9,1.33a6.31,6.31,0,0,0-.4.65.76.76,0,0,0-.09.25.73.73,0,0,0,.17.07,14.09,14.09,0,0,0,3.13.11c2-.07,4-.29,6-.37a3.63,3.63,0,0,1-.15-.51c-.07-.29-.11-.56-.15-.84-.07-.56-.13-1.11-.2-1.65a32.48,32.48,0,0,0-.49-3.24c-.37-2.18-.7-4.37-.91-6.56s-.45-4.4-.59-6.6c-.07-1.1-.15-2.21-.15-3.32,0-.55,0-1.11,0-1.66a5.94,5.94,0,0,1,.24-1.5,8.91,8.91,0,0,1-1.73-2.49,12.8,12.8,0,0,1-.89-2.9A25.35,25.35,0,0,1,99,52h.1a31.26,31.26,0,0,0,1.31,5.78c.31.93.75,1.82,1,2.75s.61,1.76.87,2.71v0a7.6,7.6,0,0,1,2.52.59,7.81,7.81,0,0,1,2.16,1.5,7.51,7.51,0,0,1,1.35,2.3c.31.76.57,1.53.82,2.31q0-1,0-2c0-1.66.36-3.28.57-4.9a34.5,34.5,0,0,0,.32-4.86c0-1.63-.11-3.27-.23-4.91h.1c.25,1.62.5,3.25.62,4.9a34.22,34.22,0,0,1,0,5c-.09,1.65-.19,3.28-.38,4.89-.14,1.29-.29,2.58-.46,3.89.27,1.08.52,2.17.71,3.28a14.49,14.49,0,0,1,.2,2.66,2.77,2.77,0,0,1-.12.76,4,4,0,0,0-.14.55,4.93,4.93,0,0,0,0,1.16c.12,1.65.62,3.25.83,5.07a3.67,3.67,0,0,1-.21,1.44,12.62,12.62,0,0,1-.48,1.26c-.16.4-.35.79-.56,1.2l-.14.24c1.47.07,3,0,4.57,0s3.12,0,4.68,0a5.28,5.28,0,0,0-1.28-2l-.26-.25a2.51,2.51,0,0,1-.3-.34,2.82,2.82,0,0,1-.37-.76,6.2,6.2,0,0,1-.22-1.58l0-1.54c0-.48-.15-1-.14-1.54a26.52,26.52,0,0,1,.12-3.09c0-.78,0-1.57,0-2.35a8.92,8.92,0,0,1,.33-2.37l1.1-4.6c.71-3.07,1.6-6.06,1.63-9.17,0-1.55,0-3.11,0-4.68s-.23-3.12-.24-4.7a65.62,65.62,0,0,1,.45-9.41,19.15,19.15,0,0,1-2.44,1.79,10.31,10.31,0,0,1-2,.92c-.64.26-1.27.58-1.9.89-1.28.64-2.53,1.34-3.85,1.95a16.4,16.4,0,0,1-2.06.83c-.38.1-.73.17-1.06.25s-.66.2-1,.31a8.14,8.14,0,0,1-2.16.55,1.8,1.8,0,0,1-1.2-.4,2.35,2.35,0,0,1-.68-1,11.72,11.72,0,0,1-.57-3.6,15.86,15.86,0,0,1-1.19,1.36,3.42,3.42,0,0,1-1.39.88,7.8,7.8,0,0,1-1.45.39,12,12,0,0,1-2.61.14A13.59,13.59,0,0,1,93.74,48l-.08.24a.82.82,0,0,1,0,.17.62.62,0,0,1-.22.24A.64.64,0,0,1,92.64,48.62Z"/><path d="M92.37,18c.56,0,1.13,0,1.71,0-.54-.37-1-.8-1.54-1.2a3.46,3.46,0,0,0-2.06-1c-.65.06-1,.75-1.43,1.43q-.31.57-.6,1.2a8,8,0,0,1,1.31-.3A17.66,17.66,0,0,1,92.37,18Z"/><path d="M88.81,51.8a5.39,5.39,0,0,0,1.09-.67c.33-.26.66-.6,1-.91.55-.55,1.07-1.14,1.6-1.73a.41.41,0,0,1-.12-.18,1.39,1.39,0,0,0-.49-.53,2.44,2.44,0,0,0-1.5-.33h-.06a12.57,12.57,0,0,1-1.58,1.76,26.09,26.09,0,0,1-2.11,1.83c-.73.58-1.5,1.13-2.27,1.64l-1.1.72a.11.11,0,0,0,0,.06h.09l.33,0A18.81,18.81,0,0,0,88.81,51.8Z"/><path d="M87.11,80c.21,0,2.28-2.09,2.33-2.07-3-2.7-5.62-7.23-4.66-11.31a59.93,59.93,0,0,1,2.4-7c.84-2.42,1.76-4.83,2.51-7.27-.14.09-.27.18-.42.26a13.82,13.82,0,0,1-5.49,1.54l-.36,0a.84.84,0,0,1-.58-.15.77.77,0,0,1-.09-1.16,1.55,1.55,0,0,1,.37-.24l.3-.17.59-.35c.8-.46,1.57-1,2.33-1.49s1.5-1.07,2.2-1.66a13.55,13.55,0,0,0,1.6-1.52h0a.43.43,0,0,1-.15,0,.9.9,0,0,1-.36-.08.74.74,0,0,1-.37-.53.73.73,0,0,1,0-.33,1.16,1.16,0,0,1,.07-.15,6.91,6.91,0,0,1,.54-.86,7.56,7.56,0,0,1,1.35-1.47l.08.06c-.29.59-.59,1.17-.83,1.75l-.24.58a2.89,2.89,0,0,1,2.19.51,2.39,2.39,0,0,1,.57.69A24.16,24.16,0,0,0,94,44c.25-1.26.47-2.55.64-3.83h.1c0,1.29-.12,2.6-.26,3.89-.08.65-.17,1.3-.28,1.93.81-.21,1.61-.43,2.38-.69a5.38,5.38,0,0,0,2.24-1.21c.66-.75,1.35-1.36,1.91-2.1a17.26,17.26,0,0,0,1.49-2.34,16.67,16.67,0,0,0,1.43-5.5c.15-.94.35-1.85.49-2.78l.38-2.73a5.86,5.86,0,0,1,.13-2.59,5.22,5.22,0,0,1,1.65-2.26,15.59,15.59,0,0,1,2.17-1.58c.78-.45,1.56-.84,2.36-1.23l.05.08c-.73.5-1.45,1-2.12,1.55a14.38,14.38,0,0,0-1.9,1.74,8.52,8.52,0,0,0-1.3,2.05c-.33.68-.5,1.53-.89,2.33a12.13,12.13,0,0,1-.23,5.59c-.28.93-.66,1.83-1,2.74s-.48,1.85-.76,2.79a9.62,9.62,0,0,1-1.77,3.4,13.59,13.59,0,0,0,.87,3.58,1.39,1.39,0,0,0,1.4.94,9.54,9.54,0,0,0,1.94-.64c.34-.13.69-.25,1-.35l1-.3a15.24,15.24,0,0,0,1.9-.86l3.79-2a21.37,21.37,0,0,1,2-.94,12.34,12.34,0,0,0,1.9-.83,23.38,23.38,0,0,0,3.38-2.5l3.22-2.84a12.43,12.43,0,0,0,2.8-3.09,2.47,2.47,0,0,0,.33-1.89,15,15,0,0,0-.75-2,32.62,32.62,0,0,0-1.94-3.82c-1.43-2.46-3.07-4.93-5.7-6a20.86,20.86,0,0,0-3.94-1.44,13.86,13.86,0,0,0-4.14-.54,11.18,11.18,0,0,0-7.72,2.87h-.06c-1.63-.46-3.26-1-4.91-1.43a19.7,19.7,0,0,0-2.47-.51,17.47,17.47,0,0,0-2.51,0,17,17,0,0,0-2.5.23,3.73,3.73,0,0,0-2.1.88,4.13,4.13,0,0,0-.51,1A5.27,5.27,0,0,0,87,22c0,.42-.11.85-.2,1.28l-.15.65a4.83,4.83,0,0,1-.24.67c-.85,1.67-2.23,2.78-3.08,4.13-1,1.32.19,2.78.74,4.46a5.23,5.23,0,0,1,.24,2.69,14,14,0,0,1-.78,2.5c-.61,1.6-1.31,3.16-1.9,4.76-.28.8-.56,1.61-.76,2.43a7.4,7.4,0,0,0-.23,1.23A4.78,4.78,0,0,0,80.73,48c.26,1.69.54,3.38.7,5.08a96.41,96.41,0,0,1-.53,15.11C80.36,72.49,83.31,77.41,87.11,80Zm7.94-47.39A1.5,1.5,0,0,1,97,31a.34.34,0,0,1,.28.34,1.93,1.93,0,0,1-.54,1.36,1.85,1.85,0,0,1-1.44.26A.34.34,0,0,1,95.05,32.65Z"/><path d="M71.09,53.32h0l1.46-.11c1-.08,1.94-.15,2.89-.25a11.1,11.1,0,0,0,2.77-.62c.88-.3,1.76-.58,2.66-.83-.13-1.15-.29-2.31-.47-3.47,0-.24-.07-.51-.09-.77a30.59,30.59,0,0,1-4.62,3.62A34.62,34.62,0,0,1,71.09,53.32Z"/><path d="M79.1,18.59c-.55-.75-1.14-1.48-1.74-2.19-1.13-1.33-2.25-2.67-3.46-3.94s-2.46-2.61-3.76-3.85a49.6,49.6,0,0,0-4-3.55,7,7,0,0,0-1-.71,2.25,2.25,0,0,0-1.08-.09,23.81,23.81,0,0,0-2.58.48c-1.73.41-3.45.9-5.19,1.37-.86.24-1.74.46-2.63.65-.44.09-.89.19-1.35.25A6.14,6.14,0,0,0,51,7.17a4.39,4.39,0,0,0-2,1.48,21.55,21.55,0,0,0-1.56,2.23,15.45,15.45,0,0,1,2.3.95c.94.49,1.91.89,2.9,1.34.25.12.51.24.78.4a2.25,2.25,0,0,1,.43.33,1.1,1.1,0,0,1,.32.7,1.6,1.6,0,0,1-.43,1.08,4.35,4.35,0,0,1-.62.66,5,5,0,0,0-1,1,2.34,2.34,0,0,0-.35,1.26,2.8,2.8,0,0,0,.55,1.27,15.41,15.41,0,0,1,1.21,1.53,1.47,1.47,0,0,1,.11.49,2.36,2.36,0,0,1-.07.46l-.18.78L53,24.69l.06.09a5.31,5.31,0,0,1,.63,3.16,4.56,4.56,0,0,1-.6,1.67c-.29.54-.68.93-.9,1.32A24.32,24.32,0,0,0,51,33.77a46.45,46.45,0,0,0-1.79,5.54,9.17,9.17,0,0,0,.66,1.76c.35.78.66,1.57.94,2.39.07.19.14.37.19.56A30.89,30.89,0,0,0,54.78,43c1.3-.4,2.6-.84,3.88-1.3s2.56-.91,3.82-1.41c.62-.26,1.28-.51,1.81-.8s1.1-.72,1.64-1.1A70,70,0,0,0,72,33c1-.94,1.95-1.89,2.87-2.88.46-.5.91-1,1.33-1.51a33.17,33.17,0,0,0,2.22-3,12.33,12.33,0,0,0,.6-1.68c.17-.59.34-1.19.55-1.78a7.19,7.19,0,0,1,.42-1,1.23,1.23,0,0,0,0-1.32C79.74,19.45,79.41,19,79.1,18.59Zm-26.72-3a2.88,2.88,0,0,0,.47-.53,1,1,0,0,0,.2-.34,1.66,1.66,0,0,0-.24-.18c-.19-.11-.42-.22-.66-.33-1-.43-2-.9-2.91-1.44a17.09,17.09,0,0,0-2.86-1.28A34.11,34.11,0,0,0,40.18,10a14.18,14.18,0,0,0-6.41,1.8c-1,.5-2,1.06-3,1.61S28.9,14.52,28,15.11A5.86,5.86,0,0,0,26.72,17a.77.77,0,0,0,.11.84,3.85,3.85,0,0,1,.48.42,4.25,4.25,0,0,1,.42.53,8,8,0,0,1,1,2.38,9.2,9.2,0,0,1,.21,1.26c0,.15,0,.31,0,.47.21-.25.41-.51.6-.76a18.63,18.63,0,0,0,2.32-5.89l.11,0a18.93,18.93,0,0,1-2,6.18,19.63,19.63,0,0,0-1.75,2.66,4.63,4.63,0,0,0-.65,2.82,1.86,1.86,0,0,0,.1.31,3.49,3.49,0,0,0,.15.34,4.34,4.34,0,0,0,.37.63c.25.38.67.78,1,1.31A8.67,8.67,0,0,1,29.83,32l.6,1.49a29.3,29.3,0,0,1,1.07,3.07,11.52,11.52,0,0,1,.5,2.47,45.34,45.34,0,0,0,.83-6.49h.1A34.65,34.65,0,0,1,32.47,40c-.07.32-.14.63-.23.93s-.13.58-.19.87c-.09.6-.14,1.21-.17,1.82-.06,1.1,0,2.22,0,3.33a8,8,0,0,1,1,.47,7.56,7.56,0,0,1,1.21.85,4.85,4.85,0,0,1,1,1.14,2.67,2.67,0,0,1,.4,1.41h-.11a3.16,3.16,0,0,0-.89-1.31c-.24,1.29-.43,2.58-.64,3.88a14.36,14.36,0,0,1-.46,2.18c-.24.71-.51,1.38-.75,2.07A11.3,11.3,0,0,0,32,59.74a9.26,9.26,0,0,0,.19,2.1,17.27,17.27,0,0,1,.25,2.23,3,3,0,0,1,0,.64.91.91,0,0,1-.17.39.48.48,0,0,1-.28.21.46.46,0,0,1-.36,0l-.23-.08c0,.51,0,1-.06,1.55a28.52,28.52,0,0,1,2.08-2.18,5.67,5.67,0,0,1,1.31-1.08,2.58,2.58,0,0,1,1.54-.29c-.15-1.52-.31-3-.42-4.56-.18-2.42,0-4.81-.21-7.17S35,46.77,35,44.36h.1c.43,2.36,1,4.68,1.31,7.1a33.81,33.81,0,0,1,.22,3.62l0,3.58c0,2.4,0,4.8.15,7.2s.4,4.77.78,7.13a47.35,47.35,0,0,0,1.81,6.88A13.23,13.23,0,0,0,40.88,83,2.86,2.86,0,0,0,42,84a4.05,4.05,0,0,0,1.54.33,4.83,4.83,0,0,0,3-1,3.7,3.7,0,0,0,1.42-2.73,2.24,2.24,0,0,0-.46-1.44,7.19,7.19,0,0,0-.61-.63,3.11,3.11,0,0,1-.3,2,1.81,1.81,0,0,1-1.22.76,3.21,3.21,0,0,1-.68.07,1.13,1.13,0,0,1-.43-.07,1,1,0,0,1-.39-.25,2.74,2.74,0,0,1-.64-1.29A8.23,8.23,0,0,1,43,78.49,21.27,21.27,0,0,1,42.83,76c0-1.65.2-3.28.33-4.93s.31-3.27.52-4.9.36-3.27.43-4.91.08-3.28.17-4.92a32.82,32.82,0,0,1,.65-4.92,14.59,14.59,0,0,1,1.64-4.68l.09,0a19,19,0,0,0-.7,3.07,7.64,7.64,0,0,1,1-1,18.08,18.08,0,0,1,2.09-1.48c.36-.22.72-.44,1-.66a1.7,1.7,0,0,0,.31-.26.75.75,0,0,0,0-.35A9.73,9.73,0,0,0,50,43.7c-.22-.8-.49-1.58-.78-2.37a11.35,11.35,0,0,1-.44-1.21c-.11-.42-.19-.84-.26-1.27a22.16,22.16,0,0,1-.15-5.08h.11A22,22,0,0,0,49,38.57a18.68,18.68,0,0,1,.28-2,30,30,0,0,1,.77-3.14c.16-.52.31-1,.49-1.53a6.89,6.89,0,0,1,.69-1.56c.34-.53.72-.88,1-1.27a3.76,3.76,0,0,0,.56-1.28A4.77,4.77,0,0,0,52.1,25a9.65,9.65,0,0,0-.81-1.33c-.28-.44-.64-.82-.93-1.32a19,19,0,0,1-2-6.12l.11,0a18.84,18.84,0,0,0,2.29,5.85c.28.42,1.27,1.6,1.51,2l.41-1.87a.74.74,0,0,0-.09-.62c-.47-.81-1.54-1.5-1.77-2.83a3.2,3.2,0,0,1,.36-1.84A5.1,5.1,0,0,1,52.38,15.57ZM31.53,30.09a.39.39,0,0,1-.42.27,2.12,2.12,0,0,1-1.44-.77,2.1,2.1,0,0,1-.1-1.62A.38.38,0,0,1,30,27.7a2.17,2.17,0,0,1,1.44.76A2.13,2.13,0,0,1,31.53,30.09Zm17.41-1.63a2.1,2.1,0,0,1,1.43-.76.38.38,0,0,1,.42.27,2.1,2.1,0,0,1-.1,1.62,2.12,2.12,0,0,1-1.44.77.39.39,0,0,1-.42-.27A2.09,2.09,0,0,1,48.94,28.46Zm2.19,27.47a24.18,24.18,0,0,1-.6-4.43c-.07-1.25-.13-2.5-.13-3.76-.27.18-.53.33-.79.48-.67.38-1.36.7-2,1.07.34,1.35.59,2.73.89,4.09a12.92,12.92,0,0,0,.54,2.1c.25.67.57,1.34.85,2a12,12,0,0,1,.69,2.15,9.47,9.47,0,0,1-.1,2.28,15.93,15.93,0,0,0-.17,2.14,2.38,2.38,0,0,0,0,.39,1.14,1.14,0,0,0,.11-.11c.11-.13.21-.25.31-.39a7.1,7.1,0,0,0,1.2-3.85A19.53,19.53,0,0,0,51.13,55.93Zm-2.51-.31a15.69,15.69,0,0,1-.46-2.18c-.22-1.38-.41-2.74-.68-4.1a9.7,9.7,0,0,0-1.62,1.15c0,.35-.1.7-.14,1-.21,1.61-.35,3.24-.58,4.86s-.57,3.25-.7,4.88-.17,3.27-.2,4.91c0,3.28-.19,6.55-.29,9.79l.82.45a36.38,36.38,0,0,1,.49-5.11c.15-.88.33-1.75.56-2.61.11-.43.24-.87.38-1.31s.27-.83.39-1.25c.47-1.7.89-3.42,1.28-5.14a47.88,47.88,0,0,0,.94-4.86C48.75,56,48.67,55.79,48.62,55.62ZM46.21,77.94c-.73-.59-1.48-1.17-2.26-1.74,0,.75,0,1.48,0,2.2a7.35,7.35,0,0,0,.13,1.16,2.11,2.11,0,0,0,.33.93s.07.08.11.08a.43.43,0,0,0,.17,0,3.37,3.37,0,0,0,.55,0,1.17,1.17,0,0,0,.88-.39,3.39,3.39,0,0,0,.54-1.91Zm-3,17,0,0v0A20.87,20.87,0,0,1,43,92.31,17.75,17.75,0,0,1,43,89.78a26.36,26.36,0,0,1,.82-4.41c-.12,0-.24,0-.37,0a5.3,5.3,0,0,1-2-.42A3.69,3.69,0,0,1,40,83.58a14.36,14.36,0,0,1-1.52-3.41c-.08-.27-.15-.54-.23-.81a36.13,36.13,0,0,0-2.16,4.31c-.33.8-.54,1.62-.9,2.39-.25.5-.49,1-.76,1.5.05,2,0,4,.11,5.91A17.64,17.64,0,0,1,35.9,96a8.71,8.71,0,0,1,.52,1.46A5,5,0,0,1,36.61,99c1.29,0,6.72.4,8.43.53a.28.28,0,0,0,.28-.39A36.24,36.24,0,0,0,43.26,94.93ZM24.17,96.09c-.24.71-.5,1.41-.73,2.11a.39.39,0,0,0,.38.51c3.92-.09,7.83-.13,11.75-.17a6,6,0,0,0-.16-.8,9.52,9.52,0,0,0-.5-1.31,18.66,18.66,0,0,0-1.41-2.49l-.08-.13v-.16c-.09-2.46,0-4.91-.1-7.32a14.74,14.74,0,0,0-.15-1.77c0-.28-.09-.56-.15-.83l-.31-.84A35.37,35.37,0,0,1,32,79.22c-.37-2.43-.61-4.85-1-7.26a26.64,26.64,0,0,1,.23-6.8c-.12-.09-.19-.17-.29-.25a4.12,4.12,0,0,1-.38-.47A7.87,7.87,0,0,1,29,60.08a11.63,11.63,0,0,1,.26-2.28c.17-.74.39-1.45.58-2.15a28.82,28.82,0,0,0,.88-4.23c.19-1.18.39-2.35.61-3.52l-.13-.06-.35-.11,0-.37a19.58,19.58,0,0,1,.08-3,59.73,59.73,0,0,1-8.3-1.76c-1.38-.36-2.76-.78-4.13-1.22-.68-.23-1.36-.45-2-.72a9.37,9.37,0,0,1-2-1,58.06,58.06,0,0,1-6.62-5.57c-1-1-2-2-3-3.11l-.14-.15a25.36,25.36,0,0,0,.2,3.58c.16,1.44.37,2.89.61,4.31S6,41.57,6.31,43s.87,2.76,1.25,4.16C9.29,52.7,10.41,58.46,12.8,63.8c1.13,2.69,2.37,5.32,3.64,7.93A38.71,38.71,0,0,1,19.57,80a21.88,21.88,0,0,1,.61,4.44,31.39,31.39,0,0,0,.48,4.26,19.52,19.52,0,0,1,.27,2.22,6.58,6.58,0,0,1,0,1.17,4.62,4.62,0,0,1-.32,1.14c-.41,1.09-.84,2.18-1.27,3.26a.35.35,0,0,0,.32.48c1.18,0,2.38.13,3.57.19.16-.42.33-.83.49-1.25s.38-1,.55-1.5a4.6,4.6,0,0,0,.32-1.53,53.65,53.65,0,0,0-.37-6.45c-.24-2.15-.5-4.3-.82-6.43l-.44-3.21c-.17-1.05-.43-2.09-.7-3.13-.36-1.46-.77-2.9-1.19-4.36A12.46,12.46,0,0,1,19,68.47a10.5,10.5,0,0,1-2.31-1.6,7.85,7.85,0,0,1-1.53-2.44c-.37-.85-.67-1.71-1-2.57C13,58.42,12,54.93,10.9,51.49l.09,0c1.41,3.34,2.59,6.76,3.94,10.1a20.39,20.39,0,0,0,2.44,4.57A19.68,19.68,0,0,0,20.94,69c-.14-.52-.29-1-.43-1.54a28.22,28.22,0,0,1-.73-3.21c-.17-1.09-.29-2.16-.4-3.24a64.51,64.51,0,0,1-.29-6.52A29.39,29.39,0,0,1,19.68,48l.1,0a37.58,37.58,0,0,0-.14,6.45c.09,2.16.32,4.31.55,6.44.13,1.07.26,2.14.45,3.19s.47,2.05.76,3.1c.58,2.08,1.17,4.16,1.65,6.29.23,1.07.43,2.14.56,3.24l.29,3.23.63,6.46c.17,2.16.45,4.31.41,6.51a5.32,5.32,0,0,1-.27,1.64C24.51,95.07,24.35,95.58,24.17,96.09Zm9.42-47.16a11.25,11.25,0,0,0-2.05-1c0,1.17,0,2.35-.11,3.52a25.07,25.07,0,0,1-.6,4.43A19.55,19.55,0,0,0,30,60.11,7,7,0,0,0,31.22,64c.09.14.2.26.29.39l.13.11a2.38,2.38,0,0,0,0-.39,17.76,17.76,0,0,0-.17-2.14,9.47,9.47,0,0,1-.1-2.28,10.6,10.6,0,0,1,.69-2.15c.28-.68.58-1.35.84-2a12.94,12.94,0,0,0,.55-2.1c.28-1.3.53-2.61.85-3.91A5,5,0,0,0,33.59,48.93ZM31.28,67a27.74,27.74,0,0,0,.26,4.84c.1.43.18.85.26,1.28.1-.46.21-.93.33-1.38.19-.79.53-1.54.75-2.33.39-1.35.66-2.76,1-4.15C33,65.85,32.16,66.44,31.28,67ZM28.85,32.44A12.83,12.83,0,0,0,28.23,31c-.21-.41-.57-.78-.89-1.3a7.35,7.35,0,0,1-.39-.8,5.45,5.45,0,0,1-.26-.88,5,5,0,0,1,.41-3.19,13.4,13.4,0,0,1,1.15-1.64,5.1,5.1,0,0,0-.08-.67,6.69,6.69,0,0,0-.3-1.19c-.26-.78-1.82-3.53-1.87-3.8a1.85,1.85,0,0,1,0-.78,6,6,0,0,1,1.33-2.31l0,0,.07,0a33.27,33.27,0,0,1,2.93-1.8,27,27,0,0,1,2.75-1.21,12.36,12.36,0,0,0-3.18-3.9,2.79,2.79,0,0,0-1.15-.43,11,11,0,0,1-1.38-.15c-.93-.18-1.82-.39-2.71-.63-1.77-.47-3.53-1-5.3-1.41-.88-.2-1.76-.41-2.64-.55a4.72,4.72,0,0,0-1.23-.06,2.52,2.52,0,0,0-1,.55,47.08,47.08,0,0,0-4.08,3.58C9.12,9.65,7.84,11,6.6,12.3S4.16,15,3,16.43c-.59.69-1.15,1.41-1.7,2.14C1,19,.64,19.41.36,19.83a2.09,2.09,0,0,0-.29,1.7A11.19,11.19,0,0,0,1.3,23.94a.46.46,0,0,1,0,.09A32,32,0,0,0,3,26.89s.76,1.29,1.18,1.81.92,1.06,1.4,1.57c1,1,2,2,3,3A58.74,58.74,0,0,0,15,38.78a8.42,8.42,0,0,0,1.77,1c.62.28,1.29.52,1.95.78,1.36.49,2.74.93,4.11,1.39s2.68.85,4,1.26a35.52,35.52,0,0,0,4,1.06c0-.24,0-.47.08-.71a17.41,17.41,0,0,1,.34-2c.06-.27.2-.7.29-1s.15-.47.21-.71v-.44a33,33,0,0,0-2.3-5.55C29.3,33.42,29.06,32.94,28.85,32.44Z"/><path d="M86.6,96.3A2.33,2.33,0,0,0,86,94.87s0-.36-.32-2.43a8.56,8.56,0,0,0-2-3.89h0c.24-.76.44-1.42.59-1.87a10.29,10.29,0,0,0-5.21-9c-1.73-1.06-3.65-.84-6.34-.13-.24.58-.44,1-.47,1.08s-3.88,3-4.21,2.89-2.5-.73-2.5-.73,1.6,0,2.1,0,3.68-2.09,4.44-3.06a5.24,5.24,0,0,0-.06-1.88,2.37,2.37,0,0,0-.73-1.29l-4.54-4.2c-3-1.05-5.2,3.08-7.4,5.36a7.77,7.77,0,0,0-5.8,7.15c-3,2.57-2.73,6.85-2.24,8.14s3.66,4.76,3.66,4.76l1.12-1a14.56,14.56,0,0,1-2.78-3.57,3.73,3.73,0,0,1,0-2.71c.78-.1,1.12-1.24,1.61-1.46s.92.12,1.56.31,1.94-.95,2.29-1.28.93-.1.93-.1.06,1,.1,1.62a.78.78,0,0,0,.65.7l.36-2.41a3,3,0,0,1,1.57.67c.92.66.39,2.8.29,3.76s-3,6-3.61,7.09-1.75,3.76-1.75,3.76l-1,1.34a.27.27,0,0,0,.22.42s3.64.11,3.86,0,.1-.62,0-1a.73.73,0,0,1,.13-.54L64,96.57a19.86,19.86,0,0,0-.39,3.58,11.28,11.28,0,0,0,.43,1.87,1.3,1.3,0,0,0,1.26.93l2.21,0a.72.72,0,0,0,.72-.7v-.72a.44.44,0,0,0-.3-.43,5.09,5.09,0,0,1-1.69-.72,1,1,0,0,1-.2-1.39,19.54,19.54,0,0,0,1.61-3.66c.39-1.19-.39-2.9.29-4,1.17,1.19,5,1.19,5,1.19a5.13,5.13,0,0,1-.54,1.85c-.32.55,0,1.14.38,2s5.32,4.43,5.32,4.43l-.05,1.57H84c.15-1.19-2.24-3.19-3.21-3.57a5,5,0,0,1,.29-3.38,42.23,42.23,0,0,0,2.25-6A20.42,20.42,0,0,1,85,92.71c.26,1,.57,2.2.57,2.2a4.64,4.64,0,0,0-.18,1.71,7.37,7.37,0,0,0,1,1.75A6.7,6.7,0,0,0,86.6,96.3ZM58.41,81.48a.9.9,0,0,1-.69,0,.16.16,0,0,1-.1-.19.91.91,0,0,1,.39-.58,1,1,0,0,1,.7,0,.2.2,0,0,1,.09.2A.87.87,0,0,1,58.41,81.48Z"/></svg>