<svg id="Layer_1" data-name="Layer 1" xmlns="http://www.w3.org/2000/svg" width="128" height="128" viewBox="0 0 128 128"><defs><style>.cls-1{fill:#fff;}.cls-2{fill:#d62525;}</style></defs><title>Artboard 36</title><rect class="cls-1" x="4" y="4" width="120" height="120"/><path class="cls-2" d="M120,8V120H8V8H120m8-8H0V128H128V0Z"/><path class="cls-2" d="M50.24,104.3l2.56,1a7.13,7.13,0,0,1-2,3.91,5,5,0,0,1-3.42,1.24,5.09,5.09,0,0,1-4.15-2,9.52,9.52,0,0,1-1.83-6.14,10,10,0,0,1,1.84-6.39,5.23,5.23,0,0,1,4.3-2,5,5,0,0,1,3.69,1.5,6.5,6.5,0,0,1,1.54,3.17l-2.61.76a3.59,3.59,0,0,0-1-2,2.49,2.49,0,0,0-1.76-.69A2.79,2.79,0,0,0,45,98a7.25,7.25,0,0,0-.92,4.16,7.79,7.79,0,0,0,.89,4.29,2.73,2.73,0,0,0,2.32,1.28,2.38,2.38,0,0,0,1.81-.82A5.09,5.09,0,0,0,50.24,104.3Z"/><path class="cls-2" d="M67.08,110.17H64.22l-1.15-3.62H57.83l-1.08,3.62H53.94l5.1-16h2.8Zm-4.86-6.32-1.81-5.92-1.77,5.92Z"/><path class="cls-2" d="M70.3,110.17V96.91H66.41v-2.7H76.8v2.7H72.93v13.26Z"/><path class="cls-2" d="M84,110.17v-16H86.6v16Z"/><path class="cls-2" d="M27.88,76.84l2.56,1a7.2,7.2,0,0,1-2,3.92A5,5,0,0,1,25,83a5.09,5.09,0,0,1-4.15-2A9.52,9.52,0,0,1,19,74.87a10,10,0,0,1,1.85-6.39,5.22,5.22,0,0,1,4.3-2A5,5,0,0,1,28.87,68a6.5,6.5,0,0,1,1.55,3.17l-2.61.76a3.53,3.53,0,0,0-1-2,2.49,2.49,0,0,0-1.76-.7,2.82,2.82,0,0,0-2.37,1.27,7.27,7.27,0,0,0-.91,4.17A7.66,7.66,0,0,0,22.66,79,2.72,2.72,0,0,0,25,80.23a2.38,2.38,0,0,0,1.8-.81A5.08,5.08,0,0,0,27.88,76.84Z"/><path class="cls-2" d="M44.73,82.71H41.86l-1.14-3.62H35.48L34.4,82.71H31.59l5.09-16h2.8ZM39.86,76.4l-1.8-5.93L36.29,76.4Z"/><path class="cls-2" d="M46.34,82.71v-16H51.9a7.9,7.9,0,0,1,3.05.43,3.42,3.42,0,0,1,1.5,1.49A5.21,5.21,0,0,1,57,71.21a4.74,4.74,0,0,1-.9,3,4,4,0,0,1-2.55,1.44A6.38,6.38,0,0,1,55,77a18.7,18.7,0,0,1,1.52,2.6l1.59,3.11H54.94L53,79.24a22.85,22.85,0,0,0-1.4-2.36,2.08,2.08,0,0,0-.78-.65,3.6,3.6,0,0,0-1.33-.18H49v6.66ZM49,73.5h2a9.53,9.53,0,0,0,2.29-.16,1.39,1.39,0,0,0,.79-.63,2.31,2.31,0,0,0,.31-1.28A2.14,2.14,0,0,0,54,70.21a1.54,1.54,0,0,0-.82-.64A10.48,10.48,0,0,0,51,69.45H49Z"/><path class="cls-2" d="M68.13,76.84l2.55,1a7.2,7.2,0,0,1-2,3.92A5,5,0,0,1,65.26,83a5.08,5.08,0,0,1-4.14-2,9.52,9.52,0,0,1-1.83-6.14,10,10,0,0,1,1.84-6.39,5.23,5.23,0,0,1,4.3-2A5,5,0,0,1,69.11,68a6.5,6.5,0,0,1,1.55,3.17l-2.61.76a3.53,3.53,0,0,0-1-2,2.47,2.47,0,0,0-1.76-.7,2.82,2.82,0,0,0-2.37,1.27A7.27,7.27,0,0,0,62,74.67,7.75,7.75,0,0,0,62.9,79a2.73,2.73,0,0,0,2.32,1.28A2.4,2.4,0,0,0,67,79.42,5.26,5.26,0,0,0,68.13,76.84Z"/><path class="cls-2" d="M85,82.71H82.1L81,79.09H75.72l-1.08,3.62H71.83l5.1-16h2.79ZM80.11,76.4,78.3,70.47,76.53,76.4Z"/><path class="cls-2" d="M85.91,77.51l2.58-.31q.44,3.06,2.85,3.06a2.65,2.65,0,0,0,1.88-.63,2,2,0,0,0,.69-1.55,1.68,1.68,0,0,0-.24-.92,1.83,1.83,0,0,0-.73-.63,23.13,23.13,0,0,0-2.37-.82A7.91,7.91,0,0,1,88.1,74.6,4.08,4.08,0,0,1,86.85,73,5,5,0,0,1,87,68.59,3.9,3.9,0,0,1,88.62,67a5.73,5.73,0,0,1,2.58-.53,4.53,4.53,0,0,1,5,4.83l-2.64.14a2.9,2.9,0,0,0-.75-1.79,2.43,2.43,0,0,0-1.65-.51,2.67,2.67,0,0,0-1.64.44,1.35,1.35,0,0,0-.58,1.11,1.41,1.41,0,0,0,.53,1.1,7.5,7.5,0,0,0,2.4,1A9.83,9.83,0,0,1,94.72,74a4.08,4.08,0,0,1,1.35,1.64,5.65,5.65,0,0,1,.47,2.44,5,5,0,0,1-1.28,3.5,5.13,5.13,0,0,1-4,1.41C88.06,83,86.27,81.16,85.91,77.51Z"/><path class="cls-2" d="M98.32,77.51l2.58-.31q.43,3.06,2.85,3.06a2.7,2.7,0,0,0,1.89-.63,2,2,0,0,0,.68-1.55,1.68,1.68,0,0,0-.24-.92,1.83,1.83,0,0,0-.73-.63,21.38,21.38,0,0,0-2.37-.82,8,8,0,0,1-2.47-1.11A4.17,4.17,0,0,1,99.26,73a5,5,0,0,1,.13-4.44A4,4,0,0,1,101,67a5.73,5.73,0,0,1,2.58-.53,4.54,4.54,0,0,1,5,4.83l-2.65.14a2.9,2.9,0,0,0-.75-1.79,2.4,2.4,0,0,0-1.64-.51,2.7,2.7,0,0,0-1.65.44,1.37,1.37,0,0,0-.57,1.11,1.4,1.4,0,0,0,.52,1.1,7.48,7.48,0,0,0,2.41,1A9.87,9.87,0,0,1,107.13,74a4.1,4.1,0,0,1,1.36,1.64,5.8,5.8,0,0,1,.47,2.44,5.05,5.05,0,0,1-1.28,3.5,5.16,5.16,0,0,1-4,1.41Q98.87,83,98.32,77.51Z"/><path class="cls-2" d="M46.55,58.52V42h10v2.79H49.27v3.66h6.8v2.78h-6.8v4.48h7.57v2.79Z"/><path class="cls-2" d="M59.45,58.52V42.16h2.73V55.73H69v2.79Z"/><path class="cls-2" d="M71.16,58.52V42h10v2.79H73.89v3.66h6.8v2.78h-6.8v4.48h7.56v2.79Z"/><path class="cls-2" d="M34,33.79v-16h9v2.7H36.59v3.78h5.49V27H36.59v6.78Z"/><path class="cls-2" d="M45.34,33.79v-16H50.9a7.9,7.9,0,0,1,3.05.43,3.42,3.42,0,0,1,1.5,1.49A5.22,5.22,0,0,1,56,22.3a4.73,4.73,0,0,1-.9,3,4,4,0,0,1-2.55,1.44A6.61,6.61,0,0,1,54,28.08a18.7,18.7,0,0,1,1.52,2.6l1.58,3.11H53.94L52,30.32A22.85,22.85,0,0,0,50.63,28a2.08,2.08,0,0,0-.78-.65,3.6,3.6,0,0,0-1.33-.18H48v6.66ZM48,24.58h2a9.53,9.53,0,0,0,2.29-.16,1.39,1.39,0,0,0,.79-.63,2.31,2.31,0,0,0,.31-1.28A2.12,2.12,0,0,0,53,21.29a1.57,1.57,0,0,0-.82-.64A10.55,10.55,0,0,0,50,20.53H48Z"/><path class="cls-2" d="M58.75,33.79v-16h9.71v2.7H61.39v3.54H68v2.69H61.39v4.33H68.7v2.7Z"/><path class="cls-2" d="M70.49,28.59l2.58-.31q.44,3.06,2.85,3.06a2.7,2.7,0,0,0,1.89-.63,2,2,0,0,0,.68-1.55,1.68,1.68,0,0,0-.24-.92,1.83,1.83,0,0,0-.73-.63,21.38,21.38,0,0,0-2.37-.82,8,8,0,0,1-2.47-1.11,4.17,4.17,0,0,1-1.25-1.57A4.91,4.91,0,0,1,71,22a4.74,4.74,0,0,1,.59-2.35,4,4,0,0,1,1.64-1.58,5.73,5.73,0,0,1,2.58-.53,5,5,0,0,1,3.6,1.25,5,5,0,0,1,1.38,3.58l-2.65.14a2.85,2.85,0,0,0-.75-1.79,2.39,2.39,0,0,0-1.64-.51,2.72,2.72,0,0,0-1.65.44,1.38,1.38,0,0,0,0,2.2,7.2,7.2,0,0,0,2.41,1,9.87,9.87,0,0,1,2.87,1.22,4.1,4.1,0,0,1,1.36,1.64,5.8,5.8,0,0,1,.47,2.44,5.05,5.05,0,0,1-1.28,3.5,5.16,5.16,0,0,1-4,1.41C72.64,34.06,70.86,32.24,70.49,28.59Z"/><path class="cls-2" d="M83.58,33.79v-16h2.63v6.28h5.2V17.83H94v16H91.41v-7h-5.2v7Z"/></svg>