<svg id="Layer_1" data-name="Layer 1" xmlns="http://www.w3.org/2000/svg" width="128" height="128" viewBox="0 0 128 128"><defs><style>.cls-1{fill:#fff;}.cls-2{fill:#e29b29;}</style></defs><title>Artboard 37</title><rect class="cls-1" x="4" y="4" width="120" height="120"/><path class="cls-2" d="M120,8V120H8V8H120m8-8H0V128H128V0Z"/><path class="cls-2" d="M47.58,104.3l2.56,1a7.13,7.13,0,0,1-2,3.91,5,5,0,0,1-3.43,1.24,5.08,5.08,0,0,1-4.14-2,9.52,9.52,0,0,1-1.83-6.14,10,10,0,0,1,1.84-6.39,5.23,5.23,0,0,1,4.3-2,5,5,0,0,1,3.68,1.5,6.5,6.5,0,0,1,1.55,3.17l-2.61.76a3.56,3.56,0,0,0-1-2,2.5,2.5,0,0,0-1.76-.69A2.81,2.81,0,0,0,42.38,98a7.26,7.26,0,0,0-.91,4.16,7.79,7.79,0,0,0,.89,4.29,2.73,2.73,0,0,0,2.32,1.28,2.41,2.41,0,0,0,1.81-.82A5.13,5.13,0,0,0,47.58,104.3Z"/><path class="cls-2" d="M64.43,110.17H61.56l-1.14-3.62H55.18l-1.08,3.62H51.29l5.1-16h2.79Zm-4.86-6.32-1.81-5.92L56,103.85Z"/><path class="cls-2" d="M67.64,110.17V96.91H63.76v-2.7H74.15v2.7H70.28v13.26Z"/><path class="cls-2" d="M81.31,110.17v-16H84v16Z"/><path class="cls-2" d="M86.62,110.17v-16h2.63v16Z"/><path class="cls-2" d="M27.88,76.84l2.56,1a7.2,7.2,0,0,1-2,3.92A5,5,0,0,1,25,83a5.09,5.09,0,0,1-4.15-2A9.52,9.52,0,0,1,19,74.87a10,10,0,0,1,1.85-6.39,5.22,5.22,0,0,1,4.3-2A5,5,0,0,1,28.87,68a6.5,6.5,0,0,1,1.55,3.17l-2.61.76a3.53,3.53,0,0,0-1-2,2.49,2.49,0,0,0-1.76-.7,2.79,2.79,0,0,0-2.37,1.27,7.27,7.27,0,0,0-.91,4.17A7.69,7.69,0,0,0,22.66,79,2.72,2.72,0,0,0,25,80.23a2.4,2.4,0,0,0,1.8-.81A5.08,5.08,0,0,0,27.88,76.84Z"/><path class="cls-2" d="M44.73,82.71H41.86l-1.14-3.62H35.48L34.4,82.71H31.59l5.09-16h2.8ZM39.86,76.4l-1.8-5.93L36.29,76.4Z"/><path class="cls-2" d="M46.34,82.71v-16H51.9a7.9,7.9,0,0,1,3.05.43,3.42,3.42,0,0,1,1.5,1.49A5.21,5.21,0,0,1,57,71.21a4.74,4.74,0,0,1-.9,3,4,4,0,0,1-2.55,1.44A6.61,6.61,0,0,1,55,77a18.7,18.7,0,0,1,1.52,2.6l1.58,3.11H54.94L53,79.24a22.85,22.85,0,0,0-1.4-2.36,2.08,2.08,0,0,0-.78-.65,3.6,3.6,0,0,0-1.33-.18H49v6.66ZM49,73.5h2a9.53,9.53,0,0,0,2.29-.16,1.43,1.43,0,0,0,.79-.63,2.31,2.31,0,0,0,.31-1.28A2.12,2.12,0,0,0,54,70.21a1.57,1.57,0,0,0-.82-.64A10.48,10.48,0,0,0,51,69.45H49Z"/><path class="cls-2" d="M68.12,76.84l2.56,1a7.2,7.2,0,0,1-2,3.92A5,5,0,0,1,65.26,83a5.08,5.08,0,0,1-4.14-2,9.52,9.52,0,0,1-1.83-6.14,10,10,0,0,1,1.84-6.39,5.23,5.23,0,0,1,4.3-2A5,5,0,0,1,69.11,68a6.5,6.5,0,0,1,1.55,3.17l-2.61.76a3.53,3.53,0,0,0-1-2,2.47,2.47,0,0,0-1.76-.7,2.79,2.79,0,0,0-2.37,1.27A7.27,7.27,0,0,0,62,74.67,7.77,7.77,0,0,0,62.9,79a2.73,2.73,0,0,0,2.32,1.28A2.4,2.4,0,0,0,67,79.42,5.17,5.17,0,0,0,68.12,76.84Z"/><path class="cls-2" d="M85,82.71H82.1L81,79.09H75.72l-1.08,3.62H71.83l5.1-16h2.79ZM80.11,76.4,78.3,70.47,76.53,76.4Z"/><path class="cls-2" d="M85.91,77.51l2.58-.31q.44,3.06,2.85,3.06a2.65,2.65,0,0,0,1.88-.63,2,2,0,0,0,.69-1.55,1.68,1.68,0,0,0-.24-.92,1.83,1.83,0,0,0-.73-.63,23.13,23.13,0,0,0-2.37-.82A7.91,7.91,0,0,1,88.1,74.6,4.15,4.15,0,0,1,86.85,73a4.77,4.77,0,0,1-.46-2.09A4.64,4.64,0,0,1,87,68.59,3.9,3.9,0,0,1,88.62,67a5.73,5.73,0,0,1,2.58-.53,4.53,4.53,0,0,1,5,4.83l-2.64.14a2.9,2.9,0,0,0-.75-1.79,2.43,2.43,0,0,0-1.65-.51,2.67,2.67,0,0,0-1.64.44,1.35,1.35,0,0,0-.58,1.11,1.37,1.37,0,0,0,.53,1.09,7.12,7.12,0,0,0,2.4,1A9.83,9.83,0,0,1,94.72,74a4.08,4.08,0,0,1,1.35,1.64,5.65,5.65,0,0,1,.47,2.44,5,5,0,0,1-1.28,3.5,5.13,5.13,0,0,1-4,1.41C88.06,83,86.27,81.16,85.91,77.51Z"/><path class="cls-2" d="M98.32,77.51l2.58-.31q.43,3.06,2.85,3.06a2.7,2.7,0,0,0,1.89-.63,2,2,0,0,0,.68-1.55,1.68,1.68,0,0,0-.24-.92,1.83,1.83,0,0,0-.73-.63,21.38,21.38,0,0,0-2.37-.82,7.91,7.91,0,0,1-2.47-1.11A4.25,4.25,0,0,1,99.26,73a5,5,0,0,1,.13-4.44A4,4,0,0,1,101,67a5.73,5.73,0,0,1,2.58-.53,4.54,4.54,0,0,1,5,4.83l-2.65.14a2.9,2.9,0,0,0-.75-1.79,2.4,2.4,0,0,0-1.64-.51,2.7,2.7,0,0,0-1.65.44,1.38,1.38,0,0,0-.05,2.2,7.2,7.2,0,0,0,2.41,1A9.87,9.87,0,0,1,107.13,74a4.1,4.1,0,0,1,1.36,1.64,5.8,5.8,0,0,1,.47,2.44,5.05,5.05,0,0,1-1.28,3.5,5.16,5.16,0,0,1-4,1.41Q98.87,83,98.32,77.51Z"/><path class="cls-2" d="M46.55,58.52V42h10v2.79H49.27v3.66h6.8v2.78h-6.8v4.48h7.57v2.79Z"/><path class="cls-2" d="M59.45,58.52V42.16h2.73V55.73H69v2.79Z"/><path class="cls-2" d="M71.16,58.52V42h10v2.79H73.89v3.66h6.8v2.78h-6.8v4.48h7.56v2.79Z"/><path class="cls-2" d="M26.74,33.79v-16H32.3a7.87,7.87,0,0,1,3.05.43,3.42,3.42,0,0,1,1.5,1.49,5.11,5.11,0,0,1,.59,2.55,4.73,4.73,0,0,1-.9,3A4,4,0,0,1,34,26.75a6.38,6.38,0,0,1,1.4,1.33,18.7,18.7,0,0,1,1.52,2.6l1.59,3.11H35.34l-1.91-3.47A21.09,21.09,0,0,0,32,28a2.08,2.08,0,0,0-.78-.65,3.6,3.6,0,0,0-1.33-.18h-.54v6.66Zm2.64-9.21h2a9.49,9.49,0,0,0,2.28-.16,1.44,1.44,0,0,0,.8-.63,2.4,2.4,0,0,0,.3-1.28,2.2,2.2,0,0,0-.3-1.22,1.6,1.6,0,0,0-.83-.64,10.48,10.48,0,0,0-2.15-.12H29.38Z"/><path class="cls-2" d="M40.16,33.79v-16h9.71v2.7H42.79v3.54h6.57v2.69H42.79v4.33H50.1v2.7Z"/><path class="cls-2" d="M60.94,27.92l2.56,1a7.2,7.2,0,0,1-2,3.92,5,5,0,0,1-3.42,1.23,5.09,5.09,0,0,1-4.15-2A9.52,9.52,0,0,1,52.1,26a10,10,0,0,1,1.84-6.39,5.24,5.24,0,0,1,4.31-2,5,5,0,0,1,3.68,1.5,6.5,6.5,0,0,1,1.54,3.17L60.86,23a3.58,3.58,0,0,0-1-2,2.49,2.49,0,0,0-1.77-.7,2.79,2.79,0,0,0-2.36,1.27,7.26,7.26,0,0,0-.92,4.17A7.77,7.77,0,0,0,55.71,30,2.73,2.73,0,0,0,58,31.31a2.4,2.4,0,0,0,1.81-.81A5.17,5.17,0,0,0,60.94,27.92Z"/><path class="cls-2" d="M66,33.79v-16h9.71v2.7H68.62v3.54h6.57v2.69H68.62v4.33h7.31v2.7Z"/><path class="cls-2" d="M78.42,33.79v-16H81l5.35,10.66V17.83H88.8v16H86.15L80.88,23.38V33.79Z"/><path class="cls-2" d="M94.75,33.79V20.53H90.86v-2.7h10.4v2.7H97.38V33.79Z"/></svg>