<svg id="Layer_1" data-name="Layer 1" xmlns="http://www.w3.org/2000/svg" width="128" height="128" viewBox="0 0 128 128"><defs><style>.cls-1{fill:#d62525;}.cls-2{fill:#fff;}</style></defs><title>Artboard 42</title><rect class="cls-1" x="4" y="4" width="120" height="120"/><path class="cls-2" d="M31.28,72V56H41v2.7H33.91v3.54h6.58V65H33.91v4.33h7.32V72Z"/><path class="cls-2" d="M43.69,72V56h5.56a7.9,7.9,0,0,1,3,.43,3.42,3.42,0,0,1,1.5,1.49,5.21,5.21,0,0,1,.59,2.54,4.74,4.74,0,0,1-.9,3,4,4,0,0,1-2.55,1.44,6.38,6.38,0,0,1,1.4,1.33,18.7,18.7,0,0,1,1.52,2.6L55.45,72H52.29l-1.91-3.47A22.85,22.85,0,0,0,49,66.15a2.08,2.08,0,0,0-.78-.65,3.6,3.6,0,0,0-1.33-.18h-.54V72Zm2.64-9.21h2a9.53,9.53,0,0,0,2.29-.16,1.39,1.39,0,0,0,.79-.63,2.31,2.31,0,0,0,.31-1.28,2.12,2.12,0,0,0-.31-1.22,1.54,1.54,0,0,0-.82-.64,10.48,10.48,0,0,0-2.15-.12H46.33Z"/><path class="cls-2" d="M57.1,72V56h5.57a7.84,7.84,0,0,1,3,.43,3.49,3.49,0,0,1,1.51,1.49,5.21,5.21,0,0,1,.58,2.54,4.8,4.8,0,0,1-.89,3,4,4,0,0,1-2.56,1.44,6.44,6.44,0,0,1,1.41,1.33,18.91,18.91,0,0,1,1.51,2.6L68.86,72H65.71L63.8,68.51a22.24,22.24,0,0,0-1.41-2.36,1.94,1.94,0,0,0-.78-.65,3.57,3.57,0,0,0-1.33-.18h-.54V72Zm2.64-9.21h2A9.43,9.43,0,0,0,64,62.61a1.41,1.41,0,0,0,.8-.63,2.4,2.4,0,0,0,.3-1.28,2.2,2.2,0,0,0-.3-1.22,1.56,1.56,0,0,0-.83-.64,10.42,10.42,0,0,0-2.14-.12H59.74Z"/><path class="cls-2" d="M70,64.1a11.38,11.38,0,0,1,.85-4.7A6.43,6.43,0,0,1,73,56.65a5.86,5.86,0,0,1,3.3-.9,5.66,5.66,0,0,1,4.58,2.14A9.37,9.37,0,0,1,82.67,64a9.51,9.51,0,0,1-1.88,6.26,5.46,5.46,0,0,1-4.46,2,5.53,5.53,0,0,1-4.48-2A9.37,9.37,0,0,1,70,64.1ZM72.7,64a6.85,6.85,0,0,0,1,4.13,3.15,3.15,0,0,0,2.6,1.38,3.11,3.11,0,0,0,2.58-1.37,7,7,0,0,0,1-4.2,6.88,6.88,0,0,0-1-4.1,3.24,3.24,0,0,0-5.24,0A6.86,6.86,0,0,0,72.7,64Z"/><path class="cls-2" d="M85,72V56h5.56a7.9,7.9,0,0,1,3,.43,3.42,3.42,0,0,1,1.5,1.49,5.21,5.21,0,0,1,.59,2.54,4.74,4.74,0,0,1-.9,3,4,4,0,0,1-2.55,1.44,6.61,6.61,0,0,1,1.4,1.33,18.91,18.91,0,0,1,1.51,2.6L96.72,72H93.57l-1.91-3.47a25,25,0,0,0-1.4-2.36,2,2,0,0,0-.79-.65,3.54,3.54,0,0,0-1.32-.18H87.6V72Zm2.63-9.21h2a9.53,9.53,0,0,0,2.29-.16,1.42,1.42,0,0,0,.79-.63A2.4,2.4,0,0,0,93,60.7a2.2,2.2,0,0,0-.31-1.22,1.56,1.56,0,0,0-.83-.64,10.35,10.35,0,0,0-2.14-.12H87.6Z"/><path class="cls-2" d="M120,8V120H8V8H120m8-8H0V128H128V0Z"/></svg>