<svg id="Layer_1" data-name="Layer 1" xmlns="http://www.w3.org/2000/svg" width="128" height="128" viewBox="0 0 128 128"><defs><style>.cls-1{fill:#d62525;}.cls-2{fill:#fff;}</style></defs><title>Artboard 16</title><rect class="cls-1" x="4" y="4" width="120" height="120"/><path class="cls-2" d="M120,8V120H8V8H120m8-8H0V128H128V0Z"/><path class="cls-2" d="M35,69.79V55.47H43.7v2.42H37.35v3.18h5.9v2.41h-5.9v3.89h6.56v2.42Z"/><path class="cls-2" d="M46.13,69.79V55.47h5a6.89,6.89,0,0,1,2.73.39A3,3,0,0,1,55.2,57.2a4.63,4.63,0,0,1,.52,2.28,4.21,4.21,0,0,1-.8,2.7,3.58,3.58,0,0,1-2.29,1.29,5.8,5.8,0,0,1,1.26,1.2A17.68,17.68,0,0,1,55.25,67l1.42,2.79H53.84l-1.71-3.12a21.25,21.25,0,0,0-1.26-2.11,1.89,1.89,0,0,0-.7-.59A3.41,3.41,0,0,0,49,63.81h-.49v6Zm2.36-8.26h1.76a9.16,9.16,0,0,0,2-.14,1.33,1.33,0,0,0,.71-.58,2.09,2.09,0,0,0,.27-1.14,2,2,0,0,0-.27-1.1,1.45,1.45,0,0,0-.74-.57,9.5,9.5,0,0,0-1.93-.11H48.49Z"/><path class="cls-2" d="M58.16,69.79V55.47h5a6.82,6.82,0,0,1,2.73.39,3,3,0,0,1,1.35,1.34,4.63,4.63,0,0,1,.53,2.28,4.22,4.22,0,0,1-.81,2.7,3.56,3.56,0,0,1-2.29,1.29,5.8,5.8,0,0,1,1.26,1.2A15.66,15.66,0,0,1,67.28,67l1.43,2.79H65.88l-1.72-3.12a20,20,0,0,0-1.25-2.11A1.91,1.91,0,0,0,62.2,64,3.34,3.34,0,0,0,61,63.81h-.49v6Zm2.36-8.26h1.76a9,9,0,0,0,2-.14,1.3,1.3,0,0,0,.71-.58,2,2,0,0,0,.28-1.14,1.93,1.93,0,0,0-.28-1.1A1.41,1.41,0,0,0,64.3,58a9.37,9.37,0,0,0-1.92-.11H60.52Z"/><path class="cls-2" d="M69.71,62.72a10.29,10.29,0,0,1,.75-4.22,5.77,5.77,0,0,1,2-2.46,5.25,5.25,0,0,1,3-.81,5.09,5.09,0,0,1,4.11,1.92,8.4,8.4,0,0,1,1.58,5.48,8.54,8.54,0,0,1-1.67,5.62,5.44,5.44,0,0,1-8,0A8.43,8.43,0,0,1,69.71,62.72Zm2.44-.1a6.07,6.07,0,0,0,.94,3.71,2.82,2.82,0,0,0,2.33,1.23,2.79,2.79,0,0,0,2.31-1.22,6.23,6.23,0,0,0,.92-3.77,6.12,6.12,0,0,0-.89-3.68,2.91,2.91,0,0,0-4.7,0A6.14,6.14,0,0,0,72.15,62.62Z"/><path class="cls-2" d="M83.16,69.79V55.47h5a6.82,6.82,0,0,1,2.73.39,3,3,0,0,1,1.35,1.34,4.63,4.63,0,0,1,.53,2.28,4.22,4.22,0,0,1-.81,2.7,3.56,3.56,0,0,1-2.29,1.29,5.8,5.8,0,0,1,1.26,1.2A15.66,15.66,0,0,1,92.28,67l1.43,2.79H90.88l-1.72-3.12a20,20,0,0,0-1.25-2.11A2,2,0,0,0,87.2,64,3.34,3.34,0,0,0,86,63.81h-.49v6Zm2.36-8.26h1.76a9,9,0,0,0,2-.14,1.3,1.3,0,0,0,.71-.58,2,2,0,0,0,.28-1.14,1.93,1.93,0,0,0-.28-1.1A1.41,1.41,0,0,0,89.3,58a9.37,9.37,0,0,0-1.92-.11H85.52Z"/></svg>