<svg id="Layer_1" data-name="Layer 1" xmlns="http://www.w3.org/2000/svg" width="128" height="128" viewBox="0 0 128 128"><title>Artboard 43</title><path d="M9.28,127.73v-16h9v2.7H11.92v3.78H17.4V121H11.92v6.78Z"/><path d="M20.58,127.73v-16h2.63v16Z"/><path d="M25.3,122.53l2.57-.31c.29,2,1.25,3.06,2.86,3.06a2.69,2.69,0,0,0,1.88-.63,2,2,0,0,0,.68-1.55,1.77,1.77,0,0,0-.23-.92,1.82,1.82,0,0,0-.73-.63,22.73,22.73,0,0,0-2.38-.82,8.13,8.13,0,0,1-2.47-1.11,4.13,4.13,0,0,1-1.24-1.57,4.78,4.78,0,0,1-.47-2.09,4.64,4.64,0,0,1,.6-2.35A3.84,3.84,0,0,1,28,112a5.65,5.65,0,0,1,2.57-.53,5,5,0,0,1,3.61,1.25,5,5,0,0,1,1.37,3.58l-2.65.14a2.79,2.79,0,0,0-.75-1.79,2.39,2.39,0,0,0-1.64-.51,2.6,2.6,0,0,0-1.64.44,1.38,1.38,0,0,0-.06,2.2,7.2,7.2,0,0,0,2.41,1A9.83,9.83,0,0,1,34.11,119a4.08,4.08,0,0,1,1.35,1.64,5.77,5.77,0,0,1,.47,2.44,5.05,5.05,0,0,1-1.28,3.5,5.15,5.15,0,0,1-4,1.41C27.44,128,25.66,126.17,25.3,122.53Z"/><path d="M38.38,127.73v-16H41v6.28h5.19v-6.28h2.63v16H46.21v-7H41v7Z"/><path d="M57.1,127.73v-16h9.71v2.7H59.74V118h6.57v2.69H59.74V125h7.31v2.7Z"/><path d="M81.31,127.73H78.45l-1.15-3.62H72.07L71,127.73h-2.8l5.09-16h2.8Zm-4.86-6.31-1.8-5.93-1.77,5.93Z"/><path d="M89,121.87v-2.7h5.7v6.36a7.18,7.18,0,0,1-2.44,1.74,7.44,7.44,0,0,1-3.17.73,6.24,6.24,0,0,1-3.42-1,6.5,6.5,0,0,1-2.34-2.85,10.67,10.67,0,0,1-.87-4.47,10.49,10.49,0,0,1,.88-4.51,6.49,6.49,0,0,1,2.27-2.79A5.93,5.93,0,0,1,89,111.5a5.14,5.14,0,0,1,5.56,4.69l-2.61.6a3.4,3.4,0,0,0-1.08-1.88,2.79,2.79,0,0,0-1.87-.66,3.33,3.33,0,0,0-2.73,1.32,6.3,6.3,0,0,0-1,4A7.16,7.16,0,0,0,86.33,124a3.11,3.11,0,0,0,2.62,1.3,3.87,3.87,0,0,0,1.6-.37,5,5,0,0,0,1.49-1v-2Z"/><path d="M97.44,127.73V111.9h2.64V125h6.57v2.7Z"/><path d="M108.77,127.73v-16h9.71v2.7H111.4V118H118v2.69H111.4V125h7.32v2.7Z"/><path d="M18.13,9.05a3.05,3.05,0,0,0-.5-.94l-.5.2a12.06,12.06,0,0,0-1.25.61,3,3,0,0,0-1,.82A7.86,7.86,0,0,0,14,12.28a3.78,3.78,0,0,0,.09,1.42,1,1,0,0,1,.08-.22,4.47,4.47,0,0,1,.35-.69,3.38,3.38,0,0,1,.54-.62l.08-.06h.1a8.15,8.15,0,0,0,1.2-.13,3.65,3.65,0,0,0,.57-.14,1.72,1.72,0,0,0,.49-.24l.06-.05h0a7,7,0,0,1,.79-.07,8.74,8.74,0,0,0,0-1.15A5,5,0,0,0,18.13,9.05Z"/><path d="M49.75,67a1.17,1.17,0,0,0,.19-.7,2.63,2.63,0,0,0-.19-1l.11,0a3.67,3.67,0,0,1,.26.65,4.35,4.35,0,0,0,1.13.28,5.72,5.72,0,0,0,1.24,0,3.32,3.32,0,0,0,1.17-.31,1.87,1.87,0,0,0,.84-.78l.07-.14.16.07a8.75,8.75,0,0,0,2.22.73A2.22,2.22,0,0,0,58,65.72a1.36,1.36,0,0,0,.72-.66l.16-.32.29.25a3.73,3.73,0,0,0,2.17,1,1.87,1.87,0,0,0,1.09-.24,2.07,2.07,0,0,0,.79-.79l.22-.33.34.24a2.33,2.33,0,0,0,1.08.24A5.37,5.37,0,0,0,66.12,65a5.63,5.63,0,0,0,1.18-.39,2.46,2.46,0,0,0,.9-.65l.32-.47.43.43a15.09,15.09,0,0,0,1.77,1.52,7.84,7.84,0,0,0,2,1.07,2.48,2.48,0,0,0,1.91,0A3.14,3.14,0,0,0,76,65.09l.22-.42.42.17a12.86,12.86,0,0,0,1.69.56,5,5,0,0,0,1.71.18,1.36,1.36,0,0,0,1.21-.85,1.82,1.82,0,0,0,.15-.66l-.17-.1a12.87,12.87,0,0,1-1.59-1.33,31.31,31.31,0,0,1-4.72-6.45l.08-.07c1.84,1.92,3.5,4,5.41,5.7A12.36,12.36,0,0,0,81.86,63a4.52,4.52,0,0,0,1.55.7,1.54,1.54,0,0,0,.71,0l.4-.18.39-.19A1.44,1.44,0,0,0,85.63,62a7.8,7.8,0,0,0-.29-1.83c-.16-.64-.33-1.29-.46-2a11.16,11.16,0,0,0-1.46-3.55,33.28,33.28,0,0,0-2.15-3.3c-.38-.53-.78-1.06-1.18-1.58L79.46,49l-.33-.36L79,48.51c-.61-.27-1.22-.55-1.82-.86l0-.1c.52.25,1.05.48,1.58.69a.16.16,0,0,1,.09,0l0,0,0,0v0l.68.28c.81.36,1.62.72,2.42,1.11a47.13,47.13,0,0,1,4.64,2.62c1.5,1,3,2,4.35,3.09s2.68,2.2,4,3.36a.87.87,0,0,0,.79-.54A2,2,0,0,0,95.76,57a9.47,9.47,0,0,0-1.38-2.5,24.89,24.89,0,0,0-4.15-4.12A52.29,52.29,0,0,0,85.43,47a45.5,45.5,0,0,0-5.15-2.86L80.2,44,80.12,44c-.61-.65-1.27-1.27-1.92-1.89-.61-.33-1.22-.62-1.83-.92C75,40.52,73.59,40,72.18,39.42c-2.84-1.07-5.7-2.05-8.56-3.08l-2.16-.78c-.68-.27-1.4-.48-2.12-.69l-.5-.13a.75.75,0,0,0,.17.14c-.08,0-.14-.1-.22-.15-1.27-.33-2.57-.63-3.87-.91-1.47-.3-3-.57-4.47-.77A21.08,21.08,0,0,0,46,32.8h-.07a30.16,30.16,0,0,0-5.54-.14A23.59,23.59,0,0,0,37.6,33c-.43.09-.86.19-1.29.32,1.13,1.11,2.12,2.35,3.18,3.52a14.1,14.1,0,0,0,1.7,1.67c.29.23.68.45.89.39s.16-.11.22-.27.08-.33.14-.54a6.76,6.76,0,0,1,.35-1.22,3.27,3.27,0,0,1,.7-1.15,1,1,0,0,1,.83-.29A1.07,1.07,0,0,1,45,36a.83.83,0,0,1,.09.16l.07.12a2,2,0,0,0,.14.23c.1.15.22.3.34.45a8.63,8.63,0,0,0,1.73,1.53,2.26,2.26,0,0,0,.46.24.32.32,0,0,0,.16,0,.26.26,0,0,0,.11,0,4.61,4.61,0,0,0,.86-.66,2.92,2.92,0,0,1,1.23-.71,1.41,1.41,0,0,1,.9.08l.21.07.25,0A23.94,23.94,0,0,1,54,37.9a8.94,8.94,0,0,1,2.39,1,12.32,12.32,0,0,1,1,.73l.94.76a9.62,9.62,0,0,0,4.15,1.9,9.1,9.1,0,0,0,2.33.18A6.38,6.38,0,0,0,67.17,42l.06.09a6.41,6.41,0,0,1-2.71.94c1.21.64,2.46,1.24,3.73,1.76.68.29,1.38.56,2.07.79A8,8,0,0,0,72.4,46a1.13,1.13,0,0,0,.73-.16c.11-.1.14-.26.08-.54a6.56,6.56,0,0,0-.82-1.79,20.75,20.75,0,0,0-1.24-1.76,9.13,9.13,0,0,0-1.49-1.61l0-.1a5.25,5.25,0,0,1,2,1.14,10.33,10.33,0,0,1,1.6,1.7,4.91,4.91,0,0,1,1,2.28,2.35,2.35,0,0,1-.07.77,1.38,1.38,0,0,1-.52.71,2,2,0,0,1-1.4.27,9.23,9.23,0,0,1-2.27-.65c-.71-.29-1.39-.62-2.06-1a42.15,42.15,0,0,1-3.72-2.24,10.73,10.73,0,0,1-1.88,0,9.52,9.52,0,0,1-4.72-1.78l-1-.75c-.32-.22-.62-.45-1-.64A8.08,8.08,0,0,0,53.71,39a18.26,18.26,0,0,0-2.34-.41c-.11,0-.24-.07-.35-.1a2.32,2.32,0,0,1-.35-.14.44.44,0,0,0-.28,0,2.19,2.19,0,0,0-.86.49,5.47,5.47,0,0,1-1.11.75,1.2,1.2,0,0,1-.49.08,1.1,1.1,0,0,1-.41-.12,2.75,2.75,0,0,1-.61-.34,9.45,9.45,0,0,1-1.83-1.74c-.13-.18-.26-.34-.38-.53s-.11-.19-.17-.29l-.07-.16a.37.37,0,0,0-.05-.11.48.48,0,0,0-.21-.22.35.35,0,0,0-.28.12,2.8,2.8,0,0,0-.58.89A9.77,9.77,0,0,0,43,38.24a5.65,5.65,0,0,1-.18.62.9.9,0,0,1-.6.55,1.09,1.09,0,0,1-.75-.15,4.33,4.33,0,0,1-.54-.38,15,15,0,0,1-1.68-1.8c-1-1.23-2-2.53-3-3.7a9.24,9.24,0,0,0-1.24.46l0-.06v.07a12.54,12.54,0,0,0-6.11,2A4.36,4.36,0,0,0,27,38.42,3.21,3.21,0,0,0,27.09,40c.12.48.36,1,.55,1.52a48,48,0,0,0,2.55,6,20.46,20.46,0,0,0,3.9,5.15l0,.05,0,.07a24.08,24.08,0,0,0,3,4.43c.58.69,1.18,1.35,1.81,2s1.27,1.27,2,1.86a38.06,38.06,0,0,0,4.27,3.28A45.81,45.81,0,0,0,49.75,67Z"/><path d="M57.83,86.65a1.77,1.77,0,0,1-.92.24h-.26c.09,1.89.18,3.78.23,5.68l.1,3.09c.28-.06.57-.12.85-.16l.86-.1a19.5,19.5,0,0,1,.52-3c.28-1.08.55-2.16.8-3.23L60.75,86a29.33,29.33,0,0,0,.54-2.89l-.2,0-.28.05a3.28,3.28,0,0,1-.34,0,1.35,1.35,0,0,1-1.16-.75,2.3,2.3,0,0,1-.1-.35l0-.28-.06-.57c0-.37-.07-.75-.09-1.12s0-.75,0-1.13c0,0,0,0,0,0a10,10,0,0,0-.38,1.13,12.07,12.07,0,0,0-.34,2.4,10.66,10.66,0,0,0,.08,2.4l.06.28a1.39,1.39,0,0,1-.57,1.44Z"/><path d="M28.75,31.16c.06.52.1,1,.13,1.57a14,14,0,0,1,0,1.58,7,7,0,0,1-.18,1.29,10.61,10.61,0,0,1,3-1.34,15,15,0,0,1,3.25-.53,11.89,11.89,0,0,1,2.65-.92,22.11,22.11,0,0,1,2.78-.47,29.93,29.93,0,0,1,5.6-.08,20.66,20.66,0,0,1,4.59.12c1.52.17,3,.39,4.54.65l1.88.36a38.19,38.19,0,0,1-3.45-2.91q-2.58-2.39-5.12-4.83c-.86-.81-1.68-1.64-2.5-2.5-.42-.45-.78-.88-1.18-1.31l-1.21-1.28c-.79-.86-1.6-1.72-2.37-2.62a23.36,23.36,0,0,1-2.18-2.83L38.88,15v-.1a11.4,11.4,0,0,0-.7-2.93,5.69,5.69,0,0,0-1.73-2.34,15.08,15.08,0,0,0-1.22-.94c-.43-.32-.82-.66-1.24-1a12.11,12.11,0,0,0-2.64-1.51,12.44,12.44,0,0,0-6-.85,13.71,13.71,0,0,0-3,.62c-.49.16-1,.36-1.45.57a5.45,5.45,0,0,0-1.27.77,2,2,0,0,0,.24,0l-.13,0c.73,0,1.46,0,2.17,0l.59,0a.34.34,0,0,0,.17,0,.71.71,0,0,0,.17-.09,6.68,6.68,0,0,1,1-.71,3,3,0,0,1,1.36-.43,3.4,3.4,0,0,1,1.42.19,2.82,2.82,0,0,1,1.76,2,3.8,3.8,0,0,0-.86-.92A3.26,3.26,0,0,0,26.44,7a3,3,0,0,0-2.17.35l0,0c-.32.18-.58.41-1,.68a1.21,1.21,0,0,1-.38.16,1.38,1.38,0,0,1-.44,0,6.37,6.37,0,0,1-.63-.11,13,13,0,0,1-2.27-.65c-.59.18-1.17.39-1.74.61a2.19,2.19,0,0,1,.76.81,3.51,3.51,0,0,1,.43,1.4,4.55,4.55,0,0,1-.07,1.17h.24c.5,0,1,0,1.49,0l-1.48.21-.29,0v0a4.38,4.38,0,0,1-.38,1h0a6.34,6.34,0,0,0,1.05,0c.37,0,.74,0,1.12-.06a9.83,9.83,0,0,1,2.28.21c.19.05.37.1.56.17l.14,0h.14a.24.24,0,0,0,.13-.13,3.36,3.36,0,0,1,.31-.56,4.84,4.84,0,0,1,1.87-1.47l.05,0h.06a4.07,4.07,0,0,0,.95-.18,2.36,2.36,0,0,0,.85-.43,1.37,1.37,0,0,0,.49-.79,2.52,2.52,0,0,0-.07-1,2.13,2.13,0,0,1,.29,1,1.62,1.62,0,0,1-.42,1.07,2.86,2.86,0,0,1-.94.64,4.22,4.22,0,0,1-1,.31,4.49,4.49,0,0,0-1.47,1.33c-.08.13-.15.27-.22.41a1.07,1.07,0,0,1-.62.61,1,1,0,0,1-.45.05.85.85,0,0,1-.23,0l-.13,0-.5-.14a10.15,10.15,0,0,0-1.36-.22,10.08,10.08,0,0,1,3.53,4.14,13,13,0,0,1,1,3.05,30.45,30.45,0,0,0,.84,2.95c.62,2,1.29,4,1.77,6A13.19,13.19,0,0,1,28.75,31.16ZM27.48,9.43a2.52,2.52,0,0,1-1.69.91,2.55,2.55,0,0,1-1.69-.91.39.39,0,0,1,0-.55A2.55,2.55,0,0,1,25.79,8a2.52,2.52,0,0,1,1.69.91A.39.39,0,0,1,27.48,9.43Zm-2.32,7.06c-.68-.94-1.94-2.29-1.94-2.29l1.37.08c.64-.15,1.05-.91,1.68-1.69s2.08-1.22,2.57-1.69a2.42,2.42,0,0,0,.25-2.44c-.37-.74-1.22-2.24-1.67-2.31a3.94,3.94,0,0,1-1.33-.41,6.35,6.35,0,0,1,2.3,0c.81.26,4.42,1.34,5.8,2.83,1,.6,3.83,2.87,4,6.24a24.1,24.1,0,0,0,2.5,4c.67.82,3.79,3.8,4.23,4.7a13.41,13.41,0,0,0,2.54,3c.78.67,4.61,3.71,5.48,4.45s2.25,1.59,2.09,1.67-5.53-1.07-6.76-1.07-6.61.07-7.84.19a52.22,52.22,0,0,0-6.77,1.38c-.63.29-4.16,1.23-4.16,1.23s0-4.78-.63-5.64S27.38,24.81,27,22.82,25.82,17.42,25.16,16.49Z"/><path d="M94.94,59.41h-.13l-.08-.08c-1.29-1.21-2.6-2.41-4-3.51S88,53.63,86.52,52.64A47.59,47.59,0,0,0,82,49.93c-.79-.41-1.58-.78-2.39-1.15l-.25-.12.27.27c.22.24.45.48.67.73.44.5.87,1,1.29,1.52a37.71,37.71,0,0,1,2.36,3.2,16.87,16.87,0,0,1,1,1.76,7.8,7.8,0,0,1,.4.94,6.17,6.17,0,0,1,.29,1c.16.63.35,1.25.54,1.9a7.93,7.93,0,0,1,.4,2.05,2.21,2.21,0,0,1-.26,1.18,2.59,2.59,0,0,1-.8.9l-.27.16c3,2.72,6,5.51,9.16,8.13a59.57,59.57,0,0,0,5,3.89,12.89,12.89,0,0,0,1.32.8,4.79,4.79,0,0,0,.65.25c.25,0,.51.12.76.16a8.72,8.72,0,0,0,3,.11,2.14,2.14,0,0,0,1.17-.55,1.16,1.16,0,0,0,.3-.49c.09-.27.19-.51.3-.76a4.36,4.36,0,0,0,.5-2.71,5.21,5.21,0,0,0-.32-.65,2.25,2.25,0,0,1-.19-1.06c.09-.71.12-.8-.1-1.19a5.68,5.68,0,0,0-1-1.06L104.63,68c-1.5-1.5-3-3-4.49-4.53S97.33,60.57,96,59.07l-.18.12A1.67,1.67,0,0,1,94.94,59.41Z"/><path d="M94.77,76.65a13.76,13.76,0,0,0,2.68-.87c-1.19-1-2.33-2-3.47-3-3-2.75-5.94-5.65-8.89-8.49l-.1.06-.48.23a2.43,2.43,0,0,1-1.24.18,4.31,4.31,0,0,1-1.56-.54,3.38,3.38,0,0,1,0,.62,3,3,0,0,1-.21.49,1.39,1.39,0,0,1-.35.41l-.22.18-.24.12a2.51,2.51,0,0,1-.5.18,5.19,5.19,0,0,1-1.84,0c.82.65,1.63,1.31,2.43,2,1.46,1.19,2.9,2.37,4.41,3.45a48.9,48.9,0,0,0,4.72,2.85,29.17,29.17,0,0,0,4.89,2.1Z"/><path d="M84.6,72.42c-1.47-1.19-2.86-2.46-4.23-3.74-.89-.84-1.77-1.68-2.67-2.5-.33-.07-.67-.15-1-.25a3.83,3.83,0,0,1-1.62,1.67,3.39,3.39,0,0,1-2,.23l.9.69c1.62,1.27,3.24,2.51,4.93,3.66s3.47,2.11,5.22,3.09A33.66,33.66,0,0,0,89,77.45c.87-.07,1.75-.15,2.61-.26A24.39,24.39,0,0,0,94,76.8a14,14,0,0,1-4.65-1.22A22.26,22.26,0,0,1,84.6,72.42Z"/><path d="M57.3,33.46c.76.15,1.51.32,2.27.49s1.49.38,2.25.64,1.43.46,2.16.7a89.35,89.35,0,0,1,8.58,3.18c1.2.54,2.38,1.12,3.53,1.75q-1-.82-2-1.62c-1.06-.85-2.13-1.66-3.23-2.46s-2.18-1.57-3.32-2.28c-.57-.35-1.15-.71-1.72-1s-1.21-.55-1.82-.78a37.69,37.69,0,0,0-3.86-1.22c-1.29-.35-2.62-.64-3.94-.93-.67-.14-1.32-.28-2-.39l-1-.16-.25,0c.28.26.54.55.82.82A45.26,45.26,0,0,0,57.3,33.46Z"/><path d="M16.59,12.48a6.35,6.35,0,0,1-1.13.25,2.12,2.12,0,0,0-.3.44.73.73,0,0,1-.05.09,1.85,1.85,0,0,0,.57.15,4.14,4.14,0,0,0,.93,0,3.12,3.12,0,0,0,1.65-.62l.08-.07c0-.33.05-.65.07-1l-.68.14A2.68,2.68,0,0,1,16.59,12.48Z"/><path d="M101.23,84.23a14.39,14.39,0,0,1-2.31-2.17c-.72-.76-1.41-1.56-2.07-2.38-.32-.42-.63-.83-.94-1.26a7.31,7.31,0,0,1-.75-1.34,2.34,2.34,0,0,1-.24.09,29.44,29.44,0,0,1-3.19.86l-.62.11c.67.9,1.36,1.8,2.1,2.63A28.67,28.67,0,0,0,96,83.58c1,.88,2.09,1.58,3.11,2.38s1.82,1.31,2.78,2a5.27,5.27,0,0,0,1-1.09,4.4,4.4,0,0,0,.41-.74,5.46,5.46,0,0,1,.39-.73,3.73,3.73,0,0,1-1-.34A8,8,0,0,1,101.23,84.23Z"/><path d="M104.3,81.08c-.89-.42-1.77-.86-2.64-1.31s-1.89-1-2.81-1.53a26.12,26.12,0,0,1-2.55-1.62l-1,.42a13.72,13.72,0,0,0,2,2.26q1.11,1.1,2.28,2.1c.77.67,1.63,1.25,2.37,1.93s1.27,1.14,2,1.68a10,10,0,0,0,.72-1.42,2.86,2.86,0,0,0,.24-1.64A1.67,1.67,0,0,0,104.3,81.08Z"/><path d="M95.39,84.24a30,30,0,0,1-2.62-3.12,33.37,33.37,0,0,1-1.87-3c-.8.14-1.62.26-2.43.35s-1.47.12-2.22.12a7,7,0,0,1,1.21,1c.45.45.86.93,1.27,1.41L91.16,84a24.08,24.08,0,0,0,2.56,2.68,5.3,5.3,0,0,0,1.46,1,3.92,3.92,0,0,0,.82.17,7.4,7.4,0,0,1,1,.18,12.94,12.94,0,0,1,1.85.61,2.32,2.32,0,0,0,1.51.24,3.87,3.87,0,0,0,1.23-.59,10.73,10.73,0,0,1-3-1.28A16,16,0,0,1,95.39,84.24Z"/><path d="M113.31,80.17a11.59,11.59,0,0,0-1.61-2.06,26,26,0,0,0-1.94-1.83c-.49-.43-1-.83-1.53-1.21-.14.4-.3.78-.46,1.13l-.16.39a6.48,6.48,0,0,1,2.28,1.33,7.94,7.94,0,0,1,2,2.71,7.41,7.41,0,0,1,.3.87l1.81.27A5.31,5.31,0,0,0,113.31,80.17Z"/><path d="M63.77,82A11.59,11.59,0,0,1,65,82l.29,0h.22a.42.42,0,0,0,.24-.09.45.45,0,0,0,.14-.19.68.68,0,0,0,0-.13L66,81.3c.08-.37.19-.73.3-1.09a24.06,24.06,0,0,1,1.58-3.84c-.45-.17-.89-.34-1.33-.53-1.79-.76-3.53-1.6-5.24-2.5a16.53,16.53,0,0,1-1.72,4.57c-.09.18-.22.38-.3.55a.2.2,0,0,1,0,.08c0,.51.1,1,.18,1.52s.12.74.19,1.1l.11.54.06.27c0,.06,0,.12.07.19a.76.76,0,0,0,.66.36c.1,0,.3-.06.48-.1l.56-.12A15.38,15.38,0,0,1,63.77,82Z"/><path d="M107.49,76.85s0,0,0,.06a2.22,2.22,0,0,1-.56.84,3.14,3.14,0,0,1-1.68.75,9.19,9.19,0,0,1-3.32-.2l-.78-.19a3.69,3.69,0,0,1-.83-.34,14.67,14.67,0,0,1-1.38-.87l-1.33-1a8.16,8.16,0,0,1-1.15.66A27.57,27.57,0,0,0,99,77.94c.94.46,1.91.89,2.89,1.32,1.93.86,3.89,1.67,5.87,2.4a20.82,20.82,0,0,0,3,.91,1.05,1.05,0,0,0,.33,0,1.39,1.39,0,0,0,0-.25,3.58,3.58,0,0,0-.26-1.32A8.73,8.73,0,0,0,107.49,76.85Z"/><path d="M83.58,76.28a27.55,27.55,0,0,1-5.24-3.37c-1.66-1.25-3.22-2.59-4.78-4l-1.65-1.5a8.07,8.07,0,0,1-1.85-1.14A13.83,13.83,0,0,1,68.57,65a3.84,3.84,0,0,1-.89.51,7,7,0,0,1-1.4.41,6.89,6.89,0,0,1-1.44.1,3.88,3.88,0,0,1-.75-.11c1.33,1,2.65,2,4,3.06,1.61,1.26,3.24,2.51,4.93,3.66s3.47,2.11,5.22,3.09a33.81,33.81,0,0,0,4.1,1.89c1,0,1.89,0,2.81-.09h.11c.65,0,1.32.06,2,0A16.88,16.88,0,0,1,83.58,76.28Z"/><path d="M50.22,66.58a1.44,1.44,0,0,1-.27.79l-.07.1-.15,0a34.4,34.4,0,0,1-4.46-2,15,15,0,0,0,1.43,4.21c.75,1.5,1.67,2.92,2.46,4.43,1.56,3,3.11,6,4.4,9.2.17.4.32.8.46,1.22a6.6,6.6,0,0,1,.2.63,3.69,3.69,0,0,0,.13.51.28.28,0,0,0,.18.13H55c.42,0,.83,0,1.24,0s.9,0,.9-.07a.17.17,0,0,0,.08-.14.14.14,0,0,0,0-.09l-.06-.34a10.88,10.88,0,0,1-.06-2.67,12.11,12.11,0,0,1,.52-2.6,7.88,7.88,0,0,1,.51-1.24,9.82,9.82,0,0,1,.71-1.12,19.21,19.21,0,0,0,1.28-2.14,16.41,16.41,0,0,0,1-2.09c-1-.54-2.06-1.12-3.08-1.7C55.36,70,52.77,68.33,50.22,66.58Z"/><path d="M56.52,99.28l-.43-.06v-.41c0-1,0-2.08.07-3.12l.09-3.12c0-1.9.14-3.79.23-5.68h-.22c-.44,0-.87,0-1.3-.08l-.32,0-.18,0-.26-.06a1.14,1.14,0,0,1-.29-.15c-.12,1-.25,2-.39,3L53,93l-1,6.94,0,.18-.19,0-8,.49.41,2.38,11.54-1.41h.12l8.42,1.15v-2.41c-1.2-.16-2.4-.3-3.6-.47Z"/><path d="M63.09,97.06,62.65,97l.06-.41,1.08-7L64.85,83h0c-.34,0-.69-.07-1-.08a17.57,17.57,0,0,0-2.17.14l-.18,0a23.18,23.18,0,0,1-.22,3c-.12,1.1-.28,2.2-.44,3.31l-.48,3.3a20.31,20.31,0,0,1-.76,3.24l-.13.4-.33,0c-.42,0-.84-.09-1.26-.15L57,96c0,.8,0,1.61.05,2.42l3.72.39c1.38.13,2.75.31,4.12.46l.51.06v1.58c1.31-.15,2.61-.26,3.92-.33q.26-1.2.54-2.4c-1-.14-2.06-.3-3.07-.47Z"/><path d="M66.33,73.41A81.62,81.62,0,0,1,55,65.58l-.31-.15a2.2,2.2,0,0,1-.92.74,3.81,3.81,0,0,1-1.28.27,5.47,5.47,0,0,1-1.28-.07,4.85,4.85,0,0,1-1.07-.3c0,.07,0,.13,0,.2a1,1,0,0,1,0,.17c2.63,1.67,5.3,3.27,8,4.73a77.59,77.59,0,0,0,8.52,4,32.47,32.47,0,0,0,8,2.17c-.7-.21-1.4-.45-2.08-.71A44.5,44.5,0,0,1,66.33,73.41Z"/><path d="M72.46,73.31c-1.64-1.25-3.21-2.59-4.76-4-1.36-1.21-2.69-2.43-4.05-3.63a2.76,2.76,0,0,1-.88.7,2.56,2.56,0,0,1-1.48.26,4.16,4.16,0,0,1-2.27-1,1.67,1.67,0,0,1-.85.58,2.62,2.62,0,0,1-1.3,0,7.07,7.07,0,0,1-1.18-.37c1.59,1.13,3.23,2.2,4.9,3.23q3,1.86,6.17,3.49c2.09,1.09,4.27,2,6.4,3,1.59.7,3.18,1.37,4.83,1.94.67,0,1.35,0,2,0a19,19,0,0,1-2.31-.89A29.14,29.14,0,0,1,72.46,73.31Z"/></svg>