<svg id="Layer_1" data-name="Layer 1" xmlns="http://www.w3.org/2000/svg" width="128" height="128" viewBox="0 0 128 128"><title>Artboard 47</title><path d="M5.87,127.73v-16h9v2.7H8.5v3.78H14V121H8.5v6.78Z"/><path d="M17.16,127.73v-16H19.8v16Z"/><path d="M21.88,122.53l2.58-.31q.43,3.06,2.85,3.06a2.65,2.65,0,0,0,1.88-.63,2,2,0,0,0,.69-1.55,1.68,1.68,0,0,0-.24-.92,1.76,1.76,0,0,0-.73-.63,23.13,23.13,0,0,0-2.37-.82,7.91,7.91,0,0,1-2.47-1.11,4.15,4.15,0,0,1-1.25-1.57,5,5,0,0,1,.13-4.44A3.9,3.9,0,0,1,24.59,112a5.73,5.73,0,0,1,2.58-.53,5,5,0,0,1,3.6,1.25,5,5,0,0,1,1.37,3.58l-2.64.14a2.9,2.9,0,0,0-.75-1.79,2.41,2.41,0,0,0-1.65-.51,2.62,2.62,0,0,0-1.64.44,1.37,1.37,0,0,0-.05,2.2,7.22,7.22,0,0,0,2.4,1A9.83,9.83,0,0,1,30.69,119a4.19,4.19,0,0,1,1.36,1.64,5.78,5.78,0,0,1,.46,2.44,5,5,0,0,1-1.28,3.5,5.13,5.13,0,0,1-4,1.41C24,128,22.24,126.18,21.88,122.53Z"/><path d="M35,127.73v-16H37.6v6.28h5.19v-6.28h2.64v16H42.79v-7H37.6v7Z"/><path d="M48.29,127.73v-16h2.64v16Z"/><path d="M53.71,127.73v-16h2.57l5.35,10.66V111.77h2.46v16H61.44l-5.27-10.41v10.41Z"/><path d="M73.19,121.87v-2.7h5.69v6.36a7.18,7.18,0,0,1-2.44,1.74,7.44,7.44,0,0,1-3.17.73,6.18,6.18,0,0,1-3.41-1,6.52,6.52,0,0,1-2.35-2.85,12.09,12.09,0,0,1,0-9,6.44,6.44,0,0,1,2.28-2.79,5.87,5.87,0,0,1,3.34-.93,5.14,5.14,0,0,1,5.56,4.69l-2.61.6A3.29,3.29,0,0,0,75,114.91a2.79,2.79,0,0,0-1.87-.66,3.33,3.33,0,0,0-2.73,1.32,6.3,6.3,0,0,0-1,4A7.17,7.17,0,0,0,70.5,124a3.11,3.11,0,0,0,2.62,1.3,3.91,3.91,0,0,0,1.61-.37,4.93,4.93,0,0,0,1.48-1v-2Z"/><path d="M86.88,127.73v-16h2.57l5.35,10.66V111.77h2.46v16H94.6l-5.26-10.41v10.41Z"/><path d="M100.27,127.73v-16H110v2.7H102.9V118h6.58v2.69H102.9V125h7.32v2.7Z"/><path d="M115.62,127.73V114.47h-3.88v-2.7h10.39v2.7h-3.87v13.26Z"/><path d="M120,61.67a.74.74,0,0,0-1,.08L97.86,82.05a1.14,1.14,0,0,0-.24.73.85.85,0,0,0,.48.56l5.08,2.34A15.66,15.66,0,0,1,89.4,94.06,16,16,0,0,1,83,92.69a15.55,15.55,0,0,1-7.66-20.55l1.21-2.74c10.31-2.33,17-1.69,20.87-.72-.24,1.29.8,2.82,2.58,3.7a5.31,5.31,0,0,0,2.17.57,2.47,2.47,0,0,0,2.5-1.37c.64-1.45-.4-3.3-2.42-4.19a5.48,5.48,0,0,0-2.17-.57,3.33,3.33,0,0,0-1.29.25c-1.86-1-5.56-3.79-12.09-20a.08.08,0,0,0-.08-.08L95,28.56a11.74,11.74,0,0,0,11.76-15.8,11.56,11.56,0,0,0-6.12-6.52,11,11,0,0,0-4.83-1,11.68,11.68,0,0,0-8.22,20l-5,11C81,31.21,75.78,15.74,77,7.53A4.11,4.11,0,0,0,79.89,5c.89-2,.57-4.11-.88-4.75A3.66,3.66,0,0,0,78,0a3.92,3.92,0,0,0-3.22,2.58,4.22,4.22,0,0,0,0,4c-.08.08-.16.08-.24.16a32.38,32.38,0,0,1-5.8,5.56,3.31,3.31,0,0,0-1.7-.56,3.21,3.21,0,0,0-1.69.48l-4.67,3.14a3.11,3.11,0,0,0-1.21,3.47c-1.85.88-4.19,1.93-6.85,3.06a3.16,3.16,0,0,0-2.5-1.37,4.68,4.68,0,0,0-1,.16l-5.4,1.93A2.86,2.86,0,0,0,42,24.12a2.71,2.71,0,0,0-.24,1.62l-2.5.8a33.61,33.61,0,0,1-4.68,1.29,3.08,3.08,0,0,0-3.14-1.93l-5.64.56a2.83,2.83,0,0,0-2,1.13,3.09,3.09,0,0,0-.57,1.13,34.27,34.27,0,0,1-8-.57h-.16a4,4,0,0,0-2.58-3.06,5.5,5.5,0,0,0-2.18-.56A2.52,2.52,0,0,0,7.87,25.9c-.65,1.45.4,3.3,2.41,4.19a5.5,5.5,0,0,0,2.18.56,3.4,3.4,0,0,0,1.29-.24c5.48,5.72,10.63,15.06,15.31,28,6.2,17.16,7,26.5,6.52,31.5a4.4,4.4,0,0,0-2.82,2.58c-.88,2-.56,4.1.89,4.75a1.82,1.82,0,0,0,.88.24,4,4,0,0,0,3.23-2.58c.8-1.77.56-3.62-.49-4.51,2.9-4,10.24-11.28,27.64-17.56.56-.24,1.13-.41,1.61-.57a23.57,23.57,0,0,0,12.73,28.69A22.57,22.57,0,0,0,89,103h0a23.63,23.63,0,0,0,21.51-13.94l9.75-26.67C120.42,62.23,120.26,61.83,120,61.67ZM29.78,32.5l.48-.08.08.08,6.53,3.06-3,6.61-7-3.3,2.9-6.13C29.7,32.66,29.78,32.58,29.78,32.5Zm21.27-5.8-1.53,3.39-3.38-1.53Zm-.81,5.48,6.53,3.06-3.14,6.53-6.45-3.06ZM65.71,19.53l.33-.24,6.36,3L69.18,29.2l-6.53-3.06,3-6.45A.25.25,0,0,0,65.71,19.53ZM62.49,47.65l6.69,3.14L66,57.48l-6.69-3.14Zm-4.51,6-6.61-3.14,3.15-6.69L61.12,47Zm11.84-4.35L63.06,46.2l3.06-6.61,6.36,3,.16.81ZM73.13,46l1,5.32L71.27,50Zm-2.5,5.4,3.87,1.85.16.81-2.82,6.2-4.35-2.1ZM99.31,15.66a3.61,3.61,0,0,1-.08,2.74A3.52,3.52,0,0,1,96,20.5a3.15,3.15,0,0,1-1.45-.32,3.61,3.61,0,0,1-1.78-4.76A3.54,3.54,0,0,1,96,13.33a3.21,3.21,0,0,1,1.45.32A3.51,3.51,0,0,1,99.31,15.66ZM78,46.68l-1.61-2.25,2.17,1Zm-4.19-5.8-.16-.24a.77.77,0,0,0-1-.24,1,1,0,0,0-.4.4l-5.48-2.58L70,31.38l6.77,3.22ZM68.61,30.65,65.47,37.5l-6.6-3.06,3.22-6.85ZM64.75,39l-3.06,6.61-6.61-3.15,3.06-6.52ZM53,43.14l-3.14,6.69L43.4,46.76l3.06-6.6ZM49.2,51.28,46.06,58,39.53,54.9l3.14-6.77ZM42,46,35.26,42.9l3-6.61L45,39.51Zm-7.34-1.69,6.69,3.14-3.14,6.77-6.61-3.15Zm4.27,12,6.53,3.06-3.22,6.85L35.66,63.2Zm7.9,3.71,6.69,3.14-3.14,6.93L43.56,67Zm.73-1.45,3.14-6.69,6.68,3.14-3.06,6.69ZM58.7,55.79l6.69,3.14-3.06,6.61-6.69-3.15Zm8.14,3.86,4.35,2.1-3.06,6.61-4.43-2.1Zm10.56,8,1-2.42,3.39,1.61A36.88,36.88,0,0,0,77.4,67.63Zm1.77-3.87,3.14-6.93,3.55,1.7-3.23,6.84Zm15.39,1.53c.48.57,1,1,1.37,1.45-.57-.08-1.21-.24-1.94-.32Zm-1.13-1.45L92.3,66.26a40.26,40.26,0,0,0-7.49.16L84,66l3.23-6.85,4.59,2.18C92.38,62.31,93,63.12,93.43,63.84Zm-2.9-4.91L88,57.72l1-2A23,23,0,0,0,90.53,58.93ZM88,53.85,86.5,57.08,83,55.38l2.9-6.44C86.66,50.71,87.31,52.4,88,53.85Zm-6.2-15.63L79.17,44,75,42.09l.08-.08,3.14-6.69,3,1.45A6,6,0,0,1,81.83,38.22Zm-1.29-3.7-1.61-.73.8-1.69C80,32.91,80.3,33.79,80.54,34.52ZM79,29.84h0l-1.53,3.23-6.77-3.23,3.22-6.92,3.71,1.69C78,26.46,78.52,28.23,79,29.84Zm-2.9-11.68c.24,1.53.64,3.06,1,4.51l-2.49-1.2ZM75.3,8.33a31.2,31.2,0,0,0,0,3.87L72.72,11A35.49,35.49,0,0,0,75.3,8.33Zm-6.52,9.11a3.05,3.05,0,0,0,1-4c.57-.48,1.13-.89,1.61-1.37l4,1.85c.08.49.08.89.16,1.37l-.08.08L73,20.74l-5.48-2.58Zm-8.46,2.82a2.84,2.84,0,0,0,2.09.8,2.94,2.94,0,0,0,.89-.16l-2.1,4.43-6-2.66C57.17,21.79,58.87,21,60.32,20.26Zm-6.21,3.62,6.53,3.06-3.22,6.85-6.53-3.06ZM42,28.31l6.84,3.23-3.06,6.52L39,34.84Zm-7.82,2.82a3.64,3.64,0,0,0,.65-1.53,43.29,43.29,0,0,0,5-1.37,4.75,4.75,0,0,1,.57-.16l-2.82,6-4.6-2.17A2.39,2.39,0,0,0,34.13,31.13Zm-19-1.21a31.66,31.66,0,0,0,4.19.49l-1.37,2.9A41.53,41.53,0,0,0,15.12,29.92Zm4,4.84.08-.08,1.93-4.19h2.09a3,3,0,0,0,3,2.34h.32L28,32.66l-2.58,5.48-6-2.82A1.43,1.43,0,0,1,19.07,34.76Zm2,3.14,3.62,1.69-1.2,2.58C22.69,40.64,21.88,39.19,21.08,37.9Zm3.38,6,1.7-3.62,7,3.38L30,50.55,26.72,49C26,47.17,25.27,45.56,24.46,43.94Zm4.27,9.59-1-2.42,1.69.81ZM30.43,58c-.33-.8-.57-1.61-.89-2.41l1.37-3,6.61,3.06-3.23,6.84-2.66-1.28C31.23,60.22,30.83,59.17,30.43,58Zm2.49,7.42c-.24-.65-.4-1.37-.64-2l1.29.65Zm.65,2.25,1.37-3,6.52,3.06-3.22,6.85L35,73.11C34.61,71.34,34.13,69.56,33.57,67.71Zm2.74,11.12c-.25-1.21-.49-2.42-.73-3.79l2.1,1ZM37.19,88V85.92l1.29.64C38,87.05,37.6,87.53,37.19,88Zm8.3-7.33h0a48,48,0,0,0-5.8,4.68L37,84.15c-.08-.81-.16-1.61-.24-2.5l2.34-4.92,6.76,3.15Zm-5.8-5.4,3.22-6.84,6.77,3.14-3.14,6.85Zm8.22,3.79,3.14-6.85,5.24,2.42C53.15,76.17,50.33,77.62,47.91,79.07Zm10.31-5.24-6.44-3.06,3.14-6.85,6.68,3.15-3.14,6.68A.29.29,0,0,0,58.22,73.83Zm6.12-2.41c-1.28.48-2.49,1-3.7,1.45l2.42-5.16,4.43,2.1c-.08.16-.16.4-.25.56C66.28,70.69,65.31,71,64.34,71.42Z"/></svg>