<svg id="Layer_1" data-name="Layer 1" xmlns="http://www.w3.org/2000/svg" width="128" height="128" viewBox="0 0 128 128"><defs><style>.cls-1{fill:#d62525;}</style></defs><title>Fishing camp (active)</title><path class="cls-1" d="M95.33,104,58,46.11,64.58,35.8a1.56,1.56,0,0,0-.32-2,1.26,1.26,0,0,0-1.77.24l-.08.12-6,9.45-6-9.45a1.26,1.26,0,0,0-1.73-.44l-.12.08a1.56,1.56,0,0,0-.33,2l6.6,10.31L17.33,104H43.68V82.3H69V104Z"/><path class="cls-1" d="M116.42,45.27c-.07-.35-.4-.38-.66-.48s-.56.06-.8-.25c.3-.36.59-.7.88-1.06.58-.75.55-1.1-.14-1.66-3.43-2.75-7-5.1-11.25-5.83-.55-.09-1.56.23-1.89-.66-.18-.48-1,.45-1.59-.09a.8.8,0,0,0-.59-.06c-.81.27-.64-.33-1.67,0a23.46,23.46,0,0,0-3.59,1.94c-.22.13.21,1.11-.63,1.6a24.94,24.94,0,0,0-2.19,1.5c-5,3.61-7,2-7.5,1.67C83.15,41,81.6,40,79.89,39.25c-.54-.23-.8-.06-.88.58-.21,1.64,1,3.33,1.08,5s-1,3-.75,4.5c.08.54.38.75.81.58A5.59,5.59,0,0,0,81,49.5a38.79,38.79,0,0,0,3.45-1.92c1.38-.89,1.81-.86,3.38-.37-.15.09-.27.09-.28.17-.06,1.5-1.87,1.41-1.15,3.2v.08c.6,1.45,2.13,1.11,3.46.54,1.08-.46,1.22-1.12,2.52-.89.09,0,.23-.13.3-.23.63-.89,1.36-.8,2.16-.33a7.18,7.18,0,0,0,4.7.75,1.53,1.53,0,0,1,1,0c.13.06-.75-.06-.63,1,0,.19-.36.45-.33.64.09.55-.35,1.07.15,1.24a3,3,0,0,0,2.15-.83c.75-.78.75-.63,1.5-1.45.37-.41.88-1,1.39-1.06a17.91,17.91,0,0,0,6.6-1.55c1.56-.68,2.94-1.75,4.5-2.48A.75.75,0,0,0,116.42,45.27Zm-7.17-1.38a1.25,1.25,0,1,1,1.26-1.25h0a1.25,1.25,0,0,1-1.25,1.24Z"/><path class="cls-1" d="M118.67,30.75h-1.5V25.5h-5.25V24h6a.76.76,0,0,1,.75.75Z"/><path class="cls-1" d="M76.67,30.75h1.5V25.5h5.25V24h-6a.75.75,0,0,0-.75.75Z"/><path class="cls-1" d="M76.67,57.75h1.5V63h5.25v1.5h-6a.75.75,0,0,1-.75-.75Z"/><path class="cls-1" d="M118.67,57.75h-1.5V63h-5.25v1.5h6a.76.76,0,0,0,.75-.75Z"/><path d="M28.16,16.23V.27h9V3H30.8V6.75h5.48v2.7H30.8v6.78Z"/><path d="M39.23,16.23V.27h2.64v16Z"/><path d="M43.73,11l2.58-.31q.44,3.06,2.85,3.06A2.65,2.65,0,0,0,51,13.15a2,2,0,0,0,.69-1.55,1.68,1.68,0,0,0-.24-.92,1.76,1.76,0,0,0-.73-.63,23.13,23.13,0,0,0-2.37-.82,7.91,7.91,0,0,1-2.47-1.11,4.15,4.15,0,0,1-1.25-1.57,4.8,4.8,0,0,1-.46-2.09,4.74,4.74,0,0,1,.59-2.35A3.9,3.9,0,0,1,46.44.53,5.73,5.73,0,0,1,49,0a5,5,0,0,1,3.6,1.25A5,5,0,0,1,54,4.83L51.35,5a2.9,2.9,0,0,0-.75-1.79A2.43,2.43,0,0,0,49,2.67a2.67,2.67,0,0,0-1.64.44,1.35,1.35,0,0,0-.58,1.11,1.37,1.37,0,0,0,.53,1.09,7.22,7.22,0,0,0,2.4,1,9.83,9.83,0,0,1,2.88,1.22,4.08,4.08,0,0,1,1.35,1.64,5.62,5.62,0,0,1,.47,2.44,5,5,0,0,1-1.28,3.5,5.13,5.13,0,0,1-4,1.41C45.88,16.5,44.09,14.68,43.73,11Z"/><path d="M56.59,16.23V.27h2.64V6.55h5.19V.27h2.63v16H64.42v-7H59.23v7Z"/><path d="M69.7,16.23V.27h2.63v16Z"/><path d="M74.89,16.23V.27h2.57l5.35,10.66V.27h2.46v16H82.62L77.35,5.82V16.23Z"/><path d="M94.14,10.37V7.67h5.7V14a7.18,7.18,0,0,1-2.44,1.74,7.44,7.44,0,0,1-3.17.73,6.24,6.24,0,0,1-3.42-.95,6.5,6.5,0,0,1-2.34-2.85,10.67,10.67,0,0,1-.87-4.47,10.49,10.49,0,0,1,.88-4.51A6.49,6.49,0,0,1,90.75.93,5.93,5.93,0,0,1,94.1,0a5.64,5.64,0,0,1,3.75,1.19,5.69,5.69,0,0,1,1.81,3.5l-2.61.6A3.4,3.4,0,0,0,96,3.41a2.79,2.79,0,0,0-1.87-.66,3.3,3.3,0,0,0-2.73,1.32,6.3,6.3,0,0,0-1.05,4,7.23,7.23,0,0,0,1.13,4.39,3.13,3.13,0,0,0,2.63,1.3,4,4,0,0,0,1.6-.37,5,5,0,0,0,1.49-1v-2Z"/><path d="M46.79,121.86l2.56,1a7.13,7.13,0,0,1-2,3.91A5,5,0,0,1,43.93,128a5.09,5.09,0,0,1-4.15-2A9.52,9.52,0,0,1,38,119.89a10,10,0,0,1,1.85-6.39,5.22,5.22,0,0,1,4.3-2,5,5,0,0,1,3.68,1.5,6.5,6.5,0,0,1,1.55,3.17l-2.61.76a3.59,3.59,0,0,0-1-2,2.52,2.52,0,0,0-1.76-.69,2.79,2.79,0,0,0-2.37,1.27,7.26,7.26,0,0,0-.91,4.16,7.7,7.7,0,0,0,.89,4.29,2.72,2.72,0,0,0,2.32,1.28,2.38,2.38,0,0,0,1.8-.81A5.12,5.12,0,0,0,46.79,121.86Z"/><path d="M63.41,127.73H60.55l-1.15-3.62H54.17l-1.09,3.62h-2.8l5.09-16h2.8Zm-4.86-6.31-1.8-5.93L55,121.42Z"/><path d="M64.76,127.73v-16h3.95l2.38,10.9,2.36-10.9h4v16H75V115.16l-2.61,12.57H69.81l-2.59-12.57v12.57Z"/><path d="M80,127.73v-16h4.25a13.1,13.1,0,0,1,3.1.23,3.55,3.55,0,0,1,1.92,1.58,6.72,6.72,0,0,1,.1,6,3.82,3.82,0,0,1-1.63,1.65,8.58,8.58,0,0,1-3.37.47H82.66v6Zm2.64-13.26V119h1.46a6.28,6.28,0,0,0,2-.21,1.87,1.87,0,0,0,.87-.74,2.55,2.55,0,0,0,.33-1.33,2.45,2.45,0,0,0-.34-1.34,1.68,1.68,0,0,0-.87-.73,7.54,7.54,0,0,0-2.17-.19Z"/></svg>