<svg id="Layer_1" data-name="Layer 1" xmlns="http://www.w3.org/2000/svg" width="128" height="128" viewBox="0 0 128 128"><defs><style>.cls-1{fill:#61ce63;}</style></defs><title>Artboard 46</title><path class="cls-1" d="M104,128,54.16,50.81,63,37.06a2.07,2.07,0,0,0-.43-2.71,1.68,1.68,0,0,0-2.47.48l-8,12.6-8-12.6a1.68,1.68,0,0,0-2.47-.48,2.07,2.07,0,0,0-.43,2.71l8.79,13.75L0,128H35.13V99.07H68.87V128Z"/><path class="cls-1" d="M125,28.36c-.09-.47-.53-.51-.88-.64s-.74.08-1.06-.34c.4-.48.79-.93,1.17-1.41.78-1,.74-1.46-.19-2.21-4.57-3.67-9.36-6.8-15-7.78-.73-.12-2.08.31-2.52-.87-.23-.64-1.3.59-2.12-.13a1.13,1.13,0,0,0-.78-.08c-1.08.37-.86-.44-2.23,0a32.71,32.71,0,0,0-4.79,2.59c-.29.17.29,1.48-.83,2.13a33.81,33.81,0,0,0-2.93,2c-6.59,4.82-9.27,2.64-10,2.23-2.19-1.16-4.26-2.58-6.54-3.52-.72-.3-1.07-.08-1.18.77-.28,2.19,1.33,4.45,1.44,6.63s-1.29,4-1,6c.11.72.51,1,1.09.78A6.86,6.86,0,0,0,77.8,34a50.63,50.63,0,0,0,4.6-2.56c1.84-1.19,2.42-1.15,4.51-.5-.2.12-.36.12-.37.23-.08,2-2.49,1.88-1.53,4.27a.49.49,0,0,0,0,.11c.8,1.93,2.84,1.48,4.61.72,1.44-.61,1.63-1.49,3.36-1.19.12,0,.3-.17.4-.31.84-1.18,1.81-1.06,2.88-.44a9.53,9.53,0,0,0,6.27,1,2,2,0,0,1,1.31.06c.18.08-1-.08-.83,1.31,0,.26-.49.6-.44.86.12.73-.47,1.42.19,1.65s2.26-.48,2.87-1.1c1-1.05,1-.85,2-1.94.5-.54,1.17-1.39,1.85-1.41a23.8,23.8,0,0,0,8.81-2.07c2.08-.9,3.92-2.33,6-3.3A1,1,0,0,0,125,28.36Zm-9.55-1.84a1.67,1.67,0,1,1,1.67-1.66A1.66,1.66,0,0,1,115.44,26.52Z"/><path class="cls-1" d="M128,9h-2V2h-7V0h8a1,1,0,0,1,1,1Z"/><path class="cls-1" d="M72,9h2V2h7V0H73a1,1,0,0,0-1,1Z"/><path class="cls-1" d="M72,45h2v7h7v2H73a1,1,0,0,1-1-1Z"/><path class="cls-1" d="M128,45h-2v7h-7v2h8a1,1,0,0,0,1-1Z"/></svg>