<svg id="Layer_1" data-name="Layer 1" xmlns="http://www.w3.org/2000/svg" width="128" height="128" viewBox="0 0 128 128"><title>Artboard 44</title><path d="M42.59,128V114.29h-4V111.5H49.32v2.79h-4V128Z"/><path d="M51.33,128V111.5h5.75a8.15,8.15,0,0,1,3.15.44,3.53,3.53,0,0,1,1.56,1.55,5.37,5.37,0,0,1,.6,2.62,4.91,4.91,0,0,1-.93,3.12,4.07,4.07,0,0,1-2.63,1.49,7.1,7.1,0,0,1,1.45,1.38,19.83,19.83,0,0,1,1.56,2.68L63.49,128H60.23l-2-3.59A22.78,22.78,0,0,0,56.8,122a2.08,2.08,0,0,0-.81-.67,3.56,3.56,0,0,0-1.37-.19h-.57V128Zm2.72-9.52h2a9.83,9.83,0,0,0,2.36-.17,1.42,1.42,0,0,0,.82-.65,2.43,2.43,0,0,0,.32-1.32,2.27,2.27,0,0,0-.32-1.27,1.5,1.5,0,0,0-.85-.65,10.1,10.1,0,0,0-2.22-.13H54.05Z"/><path d="M77.4,128h-3l-1.18-3.74H67.84L66.72,128h-2.9l5.27-16.5H72Zm-5-6.53-1.87-6.12-1.84,6.12Z"/><path d="M79.06,128V111.5h4.39a13.21,13.21,0,0,1,3.21.24,3.67,3.67,0,0,1,2,1.63,6,6,0,0,1,.78,3.22,6.1,6.1,0,0,1-.68,3,4,4,0,0,1-1.69,1.7,8.82,8.82,0,0,1-3.48.49H81.79V128Zm2.73-13.71V119H83.3a6.76,6.76,0,0,0,2.07-.21,1.83,1.83,0,0,0,.89-.77,2.47,2.47,0,0,0,.35-1.37,2.52,2.52,0,0,0-.36-1.39,1.75,1.75,0,0,0-.89-.76,8.47,8.47,0,0,0-2.24-.19Z"/><path d="M44.22,16.23V.27h9V3H46.86V6.75h5.48v2.7H46.86v6.78Z"/><path d="M55.51,16.23V.27h2.64v16Z"/><path d="M60.23,11l2.58-.31q.44,3.06,2.85,3.06a2.7,2.7,0,0,0,1.89-.63,2,2,0,0,0,.68-1.55,1.68,1.68,0,0,0-.24-.92,1.76,1.76,0,0,0-.73-.63,22.22,22.22,0,0,0-2.37-.82,7.91,7.91,0,0,1-2.47-1.11,4.25,4.25,0,0,1-1.25-1.57,4.77,4.77,0,0,1-.46-2.09,4.74,4.74,0,0,1,.59-2.35A3.9,3.9,0,0,1,62.94.53,5.73,5.73,0,0,1,65.52,0a5,5,0,0,1,3.6,1.25,5,5,0,0,1,1.37,3.58L67.85,5a2.9,2.9,0,0,0-.75-1.79,2.4,2.4,0,0,0-1.64-.51,2.64,2.64,0,0,0-1.65.44,1.38,1.38,0,0,0-.05,2.2,7.2,7.2,0,0,0,2.41,1A9.87,9.87,0,0,1,69,7.51,4.19,4.19,0,0,1,70.4,9.15a5.77,5.77,0,0,1,.47,2.44,5.05,5.05,0,0,1-1.28,3.5,5.16,5.16,0,0,1-4,1.41Q60.78,16.5,60.23,11Z"/><path d="M73.32,16.23V.27H76V6.55h5.19V.27h2.64v16H81.14v-7H76v7Z"/><path d="M105.94,64.55l-.55-38.27s0,0,0,0a.71.71,0,0,0,0-.14c0-.72-.37-3.05-5.16-3.05-3,0-6.27.95-6.27,3.05,0,0,0,.08,0,.12s0,0,0,.06V44.66l-6.08-.81L88,27.38h0c0-2.09-2.94-3.05-5.67-3.05s-5.68,1-5.68,3.05c0,0,0,0,0,.06v0l1.07,14.4c0,.36,0,.72,0,1.08l-.14,5.57-7.43-1.11V29.72c0-2.1-2.82-2.35-5.56-2.35-4.12,0-4.67,1.43-4.67,2.35v17.8H52.07V35.66c0-2.1-3-1.83-5.68-2.26s-5.67.16-5.67,2.26V47.52H32.85V36.77s0,0,0-.05,0-.07,0-.11c0-2.1-3.64-2.65-6.46-2.26s-4.89.16-4.89,2.26c0,0,0,.08,0,.12s0,0,0,.06l1.11,55.6a1.11,1.11,0,0,0,1.11,1.08h0a1.1,1.1,0,0,0,1.09-1.13l-.31-15.69h6.11l.68,11.71-.68,1.78a1.11,1.11,0,0,0,2.22,0v-17h7.87v8.14a1.11,1.11,0,0,0,2.22,0V69.61h6.91V82.37a1.11,1.11,0,0,0,2.22,0V49.75L60,50.86V78.65a1.11,1.11,0,1,0,2.22,0V67.74H68V78.65a1.11,1.11,0,0,0,2.22,0v-9.8l7-1.11-.48,19a1.11,1.11,0,0,0,1.09,1.13h0a1.11,1.11,0,0,0,1.12-1.08l.4-16.38h6.13l-.15,17.44a1.1,1.1,0,0,0,1.1,1.12h0a1.11,1.11,0,0,0,1.11-1.1l.29-34.13L94,52.89v29a1.11,1.11,0,0,0,2.22,0v-9.2l7.78.83.32,11.74a1.11,1.11,0,0,0,1.11,1.08h0a1.11,1.11,0,0,0,1.08-1.14ZM46.39,34.83a5.58,5.58,0,0,1,3.4.83,5.65,5.65,0,0,1-3.4.83A5.64,5.64,0,0,1,43,35.66,5.56,5.56,0,0,1,46.39,34.83Zm3.46,3.31V51.66H42.94V38.14a7.8,7.8,0,0,0,3,1A13.45,13.45,0,0,0,49.85,38.14Zm-26.08,1a15.69,15.69,0,0,0,4.24.52,5.91,5.91,0,0,0,2.62-.54V66.57H24.32Zm3.4-3.33a5.58,5.58,0,0,1,3.4.83,4.86,4.86,0,0,1-3.2.83,6.47,6.47,0,0,1-3.59-.83A5.56,5.56,0,0,1,27.17,35.78Zm-2.7,37.54-.11-4.53h6.27v5.64Zm8.38-3.53V50.86l7.87-1.11V70.9Zm10.09-2.41V53.89h6.91V66.27ZM103.2,28.73,103.44,45H96.18V28.51a11.87,11.87,0,0,0,4,.66A8.73,8.73,0,0,0,103.2,28.73Zm.34,22.93H96.18V47.22h7.29Zm-7.36,2.23h7.39l.15,10.71,0,.91H96.18Zm4-28.6c2.2,0,2.86.58,2.94.83.27.82-.74.82-2.94.82a7.71,7.71,0,0,1-3.93-.82A7.57,7.57,0,0,1,100.23,25.29ZM80,41.76l-.89-11.84a10.29,10.29,0,0,0,3.28.5,10,10,0,0,0,3.43-.56l-.11,11.9Zm2.39-15.22a5.64,5.64,0,0,1,3.39.83c-.09,1.15-1.49.83-3.39.83a5.58,5.58,0,0,1-3.4-.83C78.77,26.36,80.45,26.54,82.36,26.54ZM62.2,32.45a15.16,15.16,0,0,0,3.41.63c1.2,0,1.37-.5,2.38-.88V53.93H62.2Zm2.48-4a4.5,4.5,0,0,1,3.26,1.3c-.18,1.6-1.49.83-3.4.83-1.13,0-2.34-.22-2.34-.83S63.55,28.42,64.68,28.42ZM62.2,65.51V56.15H68v9.36Zm8,0V50.73h7.38l-.38,14.78Zm9.16,2.65L80,44h5.69l-.2,23.07Zm8.45-17.8,0-4.27,6.1.81v3.75Zm8.36,20.1V67.74h7.63l.09,3.54Z"/><path d="M29.23,91.21c2.84,1.35,5.4,3.33,8.28,4.58a33.25,33.25,0,0,0,12.25,2.88c1,0,1.88,1.2,2.58,2,1.38,1.52,1.38,1.23,2.81,2.69.84.86,2.93,1.91,4,1.54s.1-1.28.27-2.31c.06-.35-.66-.82-.62-1.18.19-1.94-1.4-1.71-1.15-1.83a2.75,2.75,0,0,1,1.82-.08,13.19,13.19,0,0,0,8.71-1.41c1.48-.85,2.84-1,4,.62.13.2.39.46.55.43,2.41-.42,2.67.8,4.67,1.65,2.46,1,5.29,1.69,6.41-1l.06-.15c1.32-3.32-2-3.2-2.14-5.94,0-.14-.24-.14-.51-.32,2.9-.9,3.71-1,6.27.7a72.92,72.92,0,0,0,6.39,3.56,9.67,9.67,0,0,0,1.71.68c.81.25,1.36-.08,1.51-1.08.43-2.81-1.52-5.52-1.37-8.34.16-3,2.39-6.17,2-9.22-.15-1.18-.63-1.48-1.63-1.07-3.17,1.31-6,3.28-9.08,4.89-1.1.58-4.82,3.61-14-3.09A48.6,48.6,0,0,0,69,77.61c-1.55-.9-.74-2.72-1.15-3-1.25-.72-4.78-3-6.66-3.59s-1.6.55-3.1,0a1.5,1.5,0,0,0-1.07.12c-1.15,1-2.63-.71-2.95.17-.61,1.66-2.49,1.05-3.51,1.22C42.65,74,36,78.3,29.63,83.41c-1.28,1-1.33,1.7-.25,3.07.52.66,1.07,1.3,1.62,2-.44.59-1,.31-1.47.48s-1.1.23-1.22.89A1.32,1.32,0,0,0,29.23,91.21Zm10-6.28a2.32,2.32,0,1,1,2.32,2.32A2.32,2.32,0,0,1,39.26,84.93Z"/></svg>