<svg id="Layer_1" data-name="Layer 1" xmlns="http://www.w3.org/2000/svg" width="128" height="128" viewBox="0 0 128 128"><title>Artboard 48</title><path d="M40.73,128V111.5h4.39a13.16,13.16,0,0,1,3.2.24,3.6,3.6,0,0,1,2,1.63,6,6,0,0,1,.78,3.22,6.11,6.11,0,0,1-.67,3,4,4,0,0,1-1.69,1.7,8.91,8.91,0,0,1-3.49.49H43.45V128Zm2.72-13.71V119H45a6.68,6.68,0,0,0,2.07-.21,1.81,1.81,0,0,0,.9-.77,2.56,2.56,0,0,0,.35-1.37,2.52,2.52,0,0,0-.36-1.39,1.79,1.79,0,0,0-.89-.76,8.57,8.57,0,0,0-2.25-.19Z"/><path d="M64.39,128h-3l-1.18-3.74H54.83L53.71,128h-2.9l5.26-16.5H59Zm-5-6.53-1.87-6.12-1.83,6.12Z"/><path d="M67.72,128V114.29h-4V111.5H74.45v2.79h-4V128Z"/><path d="M76.46,128V111.5h2.72V118h5.37V111.5h2.72V128H84.55v-7.21H79.18V128Z"/><path d="M39.14,16.23V.27h9V3H41.77V6.75h5.49v2.7H41.77v6.78Z"/><path d="M50,8.35a11.38,11.38,0,0,1,.85-4.7A6.36,6.36,0,0,1,53,.9a5.86,5.86,0,0,1,3.3-.9A5.66,5.66,0,0,1,60.9,2.14a9.37,9.37,0,0,1,1.77,6.11,9.51,9.51,0,0,1-1.88,6.26,5.46,5.46,0,0,1-4.46,2,5.53,5.53,0,0,1-4.48-2A9.37,9.37,0,0,1,50,8.35Zm2.73-.11a6.78,6.78,0,0,0,1,4.13,3.15,3.15,0,0,0,2.6,1.38,3.12,3.12,0,0,0,2.58-1.37,7,7,0,0,0,1-4.2,6.88,6.88,0,0,0-1-4.1,3.24,3.24,0,0,0-5.24,0A6.86,6.86,0,0,0,52.7,8.24Z"/><path d="M64.42,8.35a11.22,11.22,0,0,1,.85-4.7A6.36,6.36,0,0,1,67.47.9a5.86,5.86,0,0,1,3.3-.9,5.63,5.63,0,0,1,4.57,2.14,9.37,9.37,0,0,1,1.77,6.11,9.5,9.5,0,0,1-1.87,6.26,5.46,5.46,0,0,1-4.46,2,5.55,5.55,0,0,1-4.49-2A9.42,9.42,0,0,1,64.42,8.35Zm2.72-.11a6.78,6.78,0,0,0,1,4.13,3.13,3.13,0,0,0,5.18,0,7,7,0,0,0,1-4.2,6.8,6.8,0,0,0-1-4.1,3.23,3.23,0,0,0-5.23,0A6.85,6.85,0,0,0,67.14,8.24Z"/><path d="M82.35,16.23V3H78.47V.27H88.86V3H85V16.23Z"/><path d="M3.73,107.17a3.87,3.87,0,0,1-1.49-.29,3.43,3.43,0,0,1-1.93-4.61L9.68,82.18,38.94,53a16,16,0,0,1,8.72-4.38c4.41-.69,10.71-1.09,15.7,1a42.64,42.64,0,0,0,8.42,2.54,3.2,3.2,0,0,0,2.14-.34c4.5-2.41,13.29-6.45,21.71-6.45h0a5.14,5.14,0,0,0,3.58-1.48c3.22-3.16,7.14-7,10.79-10.63,7-7,11.07-10.92,11.64-11.44a3.92,3.92,0,0,1,5.28.1,3.35,3.35,0,0,1-.1,5c-.55.5-6.08,5.95-11.42,11.22L104.65,48.71a12.91,12.91,0,0,1-9,3.64h0c-6.95,0-14.9,3.87-18,5.53A11.19,11.19,0,0,1,70.33,59a51.05,51.05,0,0,1-10-3c-2.58-1.06-6.64-1.22-11.46-.46a8.31,8.31,0,0,0-4.53,2.27L16,86.1l-8.84,19A3.75,3.75,0,0,1,3.73,107.17Z"/></svg>