<?xml version="1.0" encoding="UTF-8" standalone="no"?>
<svg
   id="Layer_1"
   data-name="Layer 1"
   width="128"
   height="128"
   viewBox="0 0 128 128"
   version="1.1"
   sodipodi:docname="Giraffe.svg"
   inkscape:version="1.3.2 (091e20e, 2023-11-25, custom)"
   xmlns:inkscape="http://www.inkscape.org/namespaces/inkscape"
   xmlns:sodipodi="http://sodipodi.sourceforge.net/DTD/sodipodi-0.dtd"
   xmlns="http://www.w3.org/2000/svg"
   xmlns:svg="http://www.w3.org/2000/svg">
  <defs
     id="defs11" />
  <sodipodi:namedview
     id="namedview11"
     pagecolor="#ffffff"
     bordercolor="#000000"
     borderopacity="0.25"
     inkscape:showpageshadow="2"
     inkscape:pageopacity="0.0"
     inkscape:pagecheckerboard="0"
     inkscape:deskcolor="#d1d1d1"
     inkscape:zoom="9.1640625"
     inkscape:cx="63.945439"
     inkscape:cy="64"
     inkscape:window-width="3440"
     inkscape:window-height="1369"
     inkscape:window-x="-8"
     inkscape:window-y="-8"
     inkscape:window-maximized="1"
     inkscape:current-layer="Layer_1" />
  <title
     id="title1">Artboard 53</title>
  <path
     d="m 36.784535,118.82737 v -2.42 h 5.11 v 5.7 a 6.18,6.18 0 0 1 -2.19,1.57 6.79,6.79 0 0 1 -2.84,0.65 5.5,5.5 0 0 1 -3.06,-0.85 5.83,5.83 0 0 1 -2.11,-2.56 10.84,10.84 0 0 1 0,-8 6,6 0 0 1 2,-2.51 5.29,5.29 0 0 1 3,-0.83 5,5 0 0 1 3.47,1.01 5.12,5.12 0 0 1 1.63,3.14 l -2.35,0.54 a 3.07,3.07 0 0 0 -1,-1.69 2.54,2.54 0 0 0 -1.68,-0.58 3,3 0 0 0 -2.46,1.17 5.75,5.75 0 0 0 -0.93,3.59 6.52,6.52 0 0 0 1,3.94 2.81,2.81 0 0 0 2.36,1.16 3.57,3.57 0 0 0 1.43,-0.33 4.37,4.37 0 0 0 1.33,-0.89 v -1.81 z"
     id="path1" />
  <path
     d="m 44.214535,124.08737 v -14.32 h 2.36 v 14.32 z"
     id="path2" />
  <path
     d="m 49.054535,124.08737 v -14.32 h 5 a 6.82,6.82 0 0 1 2.73,0.39 3,3 0 0 1 1.38,1.33 4.68,4.68 0 0 1 0.53,2.28 4.27,4.27 0 0 1 -0.81,2.71 3.6,3.6 0 0 1 -2.29,1.29 5.76,5.76 0 0 1 1.26,1.19 16.22,16.22 0 0 1 1.31,2.37 l 1.43,2.8 h -2.82 l -1.72,-3.12 a 18.88,18.88 0 0 0 -1.25,-2.11 1.89,1.89 0 0 0 -0.71,-0.59 3.12,3.12 0 0 0 -1.19,-0.16 h -0.49 v 6 z m 2.36,-8.27 h 1.75 a 8.45,8.45 0 0 0 2.05,-0.14 1.27,1.27 0 0 0 0.71,-0.57 2,2 0 0 0 0.28,-1.14 1.91,1.91 0 0 0 -0.28,-1.1 1.32,1.32 0 0 0 -0.76,-0.54 9.37,9.37 0 0 0 -1.92,-0.11 h -1.83 z"
     id="path3" />
  <path
     d="m 71.674535,124.08737 h -2.57 l -1,-3.25 h -4.72 l -1,3.25 h -2.49 l 4.57,-14.32 h 2.51 z m -4.36,-5.67 -1.62,-5.31 -1.59,5.31 z"
     id="path4" />
  <path
     d="m 73.164535,124.08737 v -14.32 h 8 v 2.42 h -5.67 v 3.39 h 4.93 v 2.42 h -4.93 v 6.09 z"
     id="path5" />
  <path
     d="m 91.974731,123.86913 v -14.32 h 8.679999 v 2.42 h -6.319999 v 3.14 h 5.899999 v 2.41 h -5.899999 v 3.88 h 6.559999 v 2.43 z"
     id="path7" />
  <path
     d="M92.17,72.82a3.73,3.73,0,0,0-1.42-2.29L87.62,58.32h0a13.73,13.73,0,0,0-1.94-4.92c-1.17-1.81-9-6.9-11.78-7.11s-3.82-.7-7.63-2.71-4.67-3.49-7.11-7.1c-1.84-2.73-5.72-9.39-9.58-14.9-1.23-2.28-2.82-4.88-3.28-5.69-.57-1-.92-1.55-.55-2.32a3.06,3.06,0,0,1,.5-.61,14.88,14.88,0,0,0,1.85-.16,10.8,10.8,0,0,0,1.61-3c-.24-.37-2.28.07-2.62.3s-.84,1.35-1.38,1.58-.47-.27-.53-.47a4,4,0,0,0-.64-.74l.2-2a1,1,0,0,0,.58-.72.94.94,0,0,0-.73-1.11.89.89,0,0,0-1,.71c-.07.3,0,.92.23,1a2,2,0,0,1-.47,1.28,1.68,1.68,0,0,1-1.14.47c-.34-.07-.81-.64-.88-.74a6.34,6.34,0,0,1,0-1.07.67.67,0,0,0,.46-.73c-.06-.57-.21-1.07-.7-1.07s-.86.59-.86,1a1.79,1.79,0,0,0,.42.86,8.62,8.62,0,0,1-.29,1.47c-.13.27-.67.92-.81,1.23s-.4.33-.87.16-.44-.9-.77-1.24a8.76,8.76,0,0,0-2.75-.57,6.85,6.85,0,0,0,.93,2.49c.37.33,1.92.2,2.15.53a3.06,3.06,0,0,1,.24,1.26l-.66,0v.48h.46a.76.76,0,0,1,1,.74.15.15,0,0,1-.12.17,1.16,1.16,0,0,1-.55,0A12,12,0,0,1,38.7,18a4.32,4.32,0,0,0-1,2.7c.19.86,1.29,1.09,1.91,1.14a2.39,2.39,0,0,0,2-1.14c.15-.41.2-.56.23-.63s2.52-2.12,2.52-2.12L45,15.74,44.78,18l-2.43,2.75a6.33,6.33,0,0,1,.36.83c.2.63,5.95,13.34,7.48,15.58,1.55,4,3.13,8.34,3.13,9.41,0,1.91.19,3.27-1,5.07s-2.21,3.41-1,6.49A9.45,9.45,0,0,0,54.45,62c-.11,2.08,0,4.6.47,5.09.67.78,1.9,4.24.56,6.14s-3.69,9.28-3.69,9.28L57,89.05c0,2.68-.12,5-.1,5.46a15.35,15.35,0,0,1-.37,2l-.76,1.33,2,.89,0-1.75.86-.17-.34-1.7.62-3.74,3.19,4,2.23,1.49.8.46.69-2.08L64.36,95l.07-.53-1-.19s-2.51-3.64-2.73-4L59,87.89c.15-3.42.29-6.86.23-7.1-.11-.51.67-6,.79-8.44a8.53,8.53,0,0,1,.18-1.29l2.57-5.45a40.54,40.54,0,0,0,10.24-.54,1.49,1.49,0,0,0,.13.25,12.29,12.29,0,0,0,.51,4.24c.56,1,2.79,5.92,3.8,7s1.34,2.12.67,3.46S72,94.45,72,94.45l-.62,2.7-.52,1.14,2.39,1-.09-1.88.76-.26-.31-2.3S81.51,81,81.62,79a19.72,19.72,0,0,1,.81-3.4l2,3.12.67,8.88V96L85,98l-.54,1.58,2.32,1L87,98.85l.64-.16L86.78,96s.29-5.3.51-7.2-.2-7.72.4-8.49a11.73,11.73,0,0,0,1.18-3.08,24.38,24.38,0,0,0-.93-2.62,37.6,37.6,0,0,1-2.45-7.49l1-3.56s.65-1.69,1-3.18h0c.8,2.58,1.86,6.88,3,10.11-.24.15-.17,1.3-.08,2.19a4.29,4.29,0,0,0,.89,2.22,5.42,5.42,0,0,0,1.54,1.36A14.9,14.9,0,0,1,92.17,72.82Zm-48.88-58a.92.92,0,0,1-.72.05.17.17,0,0,1-.12-.19A.75.75,0,0,1,43.51,14a.17.17,0,0,1,.12.19A.89.89,0,0,1,43.29,14.78Z"
     id="path8" />
  <polygon
     points="70.72 98.68 69.59 100.49 73.14 100.56 73.03 99.58 70.72 98.68"
     id="polygon8" />
  <polygon
     points="55.5 98.25 54.37 100.06 57.92 100.13 57.81 99.15 55.5 98.25"
     id="polygon9" />
  <polygon
     points="65.43 97.46 67.23 98.59 67.31 95.03 66.32 95.14 65.43 97.46"
     id="polygon10" />
  <polygon
     points="84.32 100.04 83.19 101.85 86.75 101.92 86.64 100.94 84.32 100.04"
     id="polygon11" />
  <path
     d="m 82.456095,123.97474 v -14.32 h 8 v 2.42 h -5.67 v 3.39 h 4.93 v 2.42 h -4.93 v 6.09 z"
     id="path5-5" />
</svg>
