<svg id="Layer_1" data-name="Layer 1" xmlns="http://www.w3.org/2000/svg" width="128" height="128" viewBox="0 0 128 128"><title>Artboard 49</title><path d="M30.66,121.87v-2.7h5.69v6.36a7.08,7.08,0,0,1-2.44,1.74,7.44,7.44,0,0,1-3.17.73,6.18,6.18,0,0,1-3.41-1A6.52,6.52,0,0,1,25,124.2a12.09,12.09,0,0,1,0-9,6.51,6.51,0,0,1,2.28-2.79,5.87,5.87,0,0,1,3.34-.93,5.64,5.64,0,0,1,3.75,1.19,5.7,5.7,0,0,1,1.82,3.5l-2.62.6a3.33,3.33,0,0,0-1.07-1.88,2.84,2.84,0,0,0-1.88-.66,3.33,3.33,0,0,0-2.73,1.32,6.37,6.37,0,0,0-1,4A7.17,7.17,0,0,0,28,124a3.11,3.11,0,0,0,2.62,1.3,3.91,3.91,0,0,0,1.61-.37,4.93,4.93,0,0,0,1.48-1v-2Z"/><path d="M38.93,127.73v-16h2.64v16Z"/><path d="M44.33,127.73v-16h5.56a7.9,7.9,0,0,1,3,.43,3.42,3.42,0,0,1,1.5,1.49,5.21,5.21,0,0,1,.59,2.54,4.74,4.74,0,0,1-.9,3,4,4,0,0,1-2.55,1.44A6.61,6.61,0,0,1,53,122a18.91,18.91,0,0,1,1.51,2.6l1.59,3.11H52.93L51,124.26a25,25,0,0,0-1.4-2.36,2,2,0,0,0-.79-.65,3.57,3.57,0,0,0-1.33-.18H47v6.66ZM47,118.52h2a9.53,9.53,0,0,0,2.29-.16,1.42,1.42,0,0,0,.79-.63,2.4,2.4,0,0,0,.3-1.28,2.2,2.2,0,0,0-.3-1.22,1.56,1.56,0,0,0-.83-.64,10.35,10.35,0,0,0-2.14-.12H47Z"/><path d="M69.54,127.73H66.68l-1.15-3.62H60.29l-1.08,3.62H56.4l5.1-16h2.8Zm-4.86-6.31-1.81-5.93-1.77,5.93Z"/><path d="M71.17,127.73v-16h9v2.7H73.8v3.78h5.49V121H73.8v6.78Z"/><path d="M82.56,127.73v-16h9v2.7H85.19v3.78h5.49V121H85.19v6.78Z"/><path d="M93.94,127.73v-16h9.7v2.7H96.57V118h6.57v2.69H96.57V125h7.31v2.7Z"/><path d="M94.4,71.6a4.06,4.06,0,0,0-1.53-2.48L89.49,56h0a15.08,15.08,0,0,0-2.09-5.31c-1.27-2-9.74-7.44-12.72-7.67s-4.12-.75-8.23-2.92-5-3.77-7.67-7.66c-2-3-6.17-10.14-10.34-16.08-1.33-2.46-3-5.27-3.54-6.14-.61-1.09-1-1.68-.59-2.51A3.38,3.38,0,0,1,44.85,7a15.48,15.48,0,0,0,2-.17,11.77,11.77,0,0,0,1.74-3.19c-.26-.4-2.46.07-2.83.32s-.9,1.46-1.49,1.71-.5-.29-.57-.51a4,4,0,0,0-.69-.8l.22-2.17a1,1,0,0,0,.62-.77,1,1,0,0,0-.78-1.2A1,1,0,0,0,42,1C42,1.3,42,2,42.28,2a2.14,2.14,0,0,1-.51,1.38,1.85,1.85,0,0,1-1.23.51c-.37-.08-.87-.69-.95-.8a7.32,7.32,0,0,1,0-1.15.74.74,0,0,0,.5-.79C40,.56,39.86,0,39.33,0s-.93.64-.93,1a1.93,1.93,0,0,0,.46.93,8.56,8.56,0,0,1-.32,1.58c-.14.3-.72,1-.87,1.33s-.43.36-.94.17-.47-1-.83-1.33a9.26,9.26,0,0,0-3-.62,7.38,7.38,0,0,0,1,2.69c.4.35,2.07.21,2.32.57a3.3,3.3,0,0,1,.26,1.36l-.72,0V8.3h.5a1,1,0,0,1,.73.11,1,1,0,0,1,.35.69.15.15,0,0,1-.13.18,1.2,1.2,0,0,1-.59,0,13.35,13.35,0,0,1,.05,3.13,4.71,4.71,0,0,0-1.07,2.91c.21.93,1.39,1.18,2.06,1.24a2.58,2.58,0,0,0,2.2-1.24c.17-.44.22-.6.25-.67s2.72-2.29,2.72-2.29L43.44,10l-.18,2.49-2.62,3a8.18,8.18,0,0,1,.39.9c.21.68,6.42,14.4,8.07,16.81,1.67,4.34,3.38,9,3.38,10.16,0,2.06.2,3.53-1,5.47s-2.39,3.68-1.12,7a10.17,10.17,0,0,0,3.39,4.15c-.12,2.24,0,5,.5,5.49.73.84,2,4.57.61,6.62s-4,10-4,10l5.65,7c0,2.9-.13,5.36-.11,5.9a16.84,16.84,0,0,1-.4,2.18l-.82,1.43,2.13,1,0-1.89.92-.18-.36-1.83.67-4,3.44,4.29,2.4,1.61.87.5.74-2.25-1.54-.22.07-.57-1-.21-3-4.28c-.08-.13-.85-1.24-1.82-2.65.16-3.69.31-7.4.25-7.66-.12-.55.72-6.45.85-9.11a10.24,10.24,0,0,1,.19-1.39l2.78-5.88c4.13.23,8.86,0,11-.58a1.4,1.4,0,0,0,.14.27,13.08,13.08,0,0,0,.55,4.57c.6,1.08,3,6.39,4.1,7.6S80,78,79.28,79.4s-6.7,15.53-6.7,15.53l-.67,2.92-.56,1.23,2.58,1-.1-2,.82-.28-.33-2.48s8.58-15,8.69-17.06a21.7,21.7,0,0,1,.88-3.67L86,78l.73,9.58v9l-.1,2.13-.58,1.7,2.5,1,.24-1.79.69-.17-.91-2.87s.32-5.72.55-7.77-.21-8.33.44-9.16a13.08,13.08,0,0,0,1.27-3.33,25.26,25.26,0,0,0-1-2.83,41.39,41.39,0,0,1-2.64-8.08l1-3.84s.7-1.82,1.11-3.43h0c.86,2.78,2,7.43,3.2,10.91-.26.16-.18,1.4-.08,2.36a4.64,4.64,0,0,0,1,2.4,5.9,5.9,0,0,0,1.67,1.47A15.91,15.91,0,0,1,94.4,71.6ZM41.65,9a1,1,0,0,1-.77,0,.17.17,0,0,1-.13-.2,1,1,0,0,1,.36-.69,1,1,0,0,1,.78-.06.18.18,0,0,1,.13.21A1,1,0,0,1,41.65,9Z"/><polygon points="71.25 99.5 70.03 101.45 73.86 101.53 73.75 100.47 71.25 99.5"/><polygon points="54.82 99.04 53.6 100.99 57.44 101.06 57.32 100.01 54.82 99.04"/><polygon points="65.54 98.18 67.49 99.4 67.57 95.56 66.51 95.68 65.54 98.18"/><polygon points="85.93 100.97 84.71 102.92 88.55 103 88.43 101.94 85.93 100.97"/></svg>