<svg id="Layer_1" data-name="Layer 1" xmlns="http://www.w3.org/2000/svg" width="128" height="128" viewBox="0 0 128 128"><title>Artboard 50</title><path d="M30.55,10.37V7.67h5.7V14a7.18,7.18,0,0,1-2.44,1.74,7.44,7.44,0,0,1-3.17.73,6.24,6.24,0,0,1-3.42-.95,6.57,6.57,0,0,1-2.34-2.85A10.67,10.67,0,0,1,24,8.23a10.64,10.64,0,0,1,.88-4.51A6.58,6.58,0,0,1,27.16.92,6,6,0,0,1,30.51,0a5.64,5.64,0,0,1,3.75,1.19,5.69,5.69,0,0,1,1.81,3.5l-2.61.6a3.29,3.29,0,0,0-1.08-1.88,2.79,2.79,0,0,0-1.87-.66,3.33,3.33,0,0,0-2.73,1.32,6.3,6.3,0,0,0-1.05,4,7.16,7.16,0,0,0,1.14,4.39,3.11,3.11,0,0,0,2.62,1.3,3.87,3.87,0,0,0,1.6-.37,4.85,4.85,0,0,0,1.49-1v-2Z"/><path d="M38.37,8.35a11.38,11.38,0,0,1,.85-4.7A6.36,6.36,0,0,1,41.42.9a5.86,5.86,0,0,1,3.3-.9A5.66,5.66,0,0,1,49.3,2.14a9.37,9.37,0,0,1,1.77,6.11,9.51,9.51,0,0,1-1.88,6.26,5.46,5.46,0,0,1-4.46,2,5.53,5.53,0,0,1-4.48-2A9.37,9.37,0,0,1,38.37,8.35Zm2.73-.11a6.78,6.78,0,0,0,1,4.13,3.15,3.15,0,0,0,2.6,1.38,3.11,3.11,0,0,0,2.58-1.37,7,7,0,0,0,1-4.2,6.9,6.9,0,0,0-1-4.1,3.24,3.24,0,0,0-5.24,0A6.88,6.88,0,0,0,41.1,8.24Z"/><path d="M53.43,16.23V.4h2.64V13.53h6.57v2.7Z"/><path d="M64.67,16.23V.27H67.3v16Z"/><path d="M81.86,16.23H79l-1.15-3.62H72.61l-1.08,3.62H68.72l5.1-16h2.8ZM77,9.92,75.19,4,73.42,9.92Z"/><path d="M85.08,16.23V3H81.19V.27h10.4V3H87.71V16.23Z"/><path d="M93.53,16.23V.27h2.63V6.55h5.19V.27H104v16h-2.64v-7H96.16v7Z"/><path d="M32,127.73v-16h2.64v6.28h5.19v-6.28h2.63v16H39.78v-7H34.59v7Z"/><path d="M45.37,127.73v-16h9.7v2.7H48V118h6.57v2.69H48V125h7.31v2.7Z"/><path d="M57.78,127.73v-16h5.56a7.9,7.9,0,0,1,3,.43,3.42,3.42,0,0,1,1.5,1.49,5.21,5.21,0,0,1,.59,2.54,4.74,4.74,0,0,1-.9,3A4,4,0,0,1,65,120.69a6.61,6.61,0,0,1,1.4,1.33,18.24,18.24,0,0,1,1.51,2.59l1.59,3.12H66.38l-1.91-3.47a22.85,22.85,0,0,0-1.4-2.36,2,2,0,0,0-.79-.65,3.5,3.5,0,0,0-1.32-.18h-.55v6.66Zm2.63-9.21h2a9.53,9.53,0,0,0,2.29-.16,1.47,1.47,0,0,0,.79-.63,2.31,2.31,0,0,0,.31-1.28,2.12,2.12,0,0,0-.31-1.22,1.57,1.57,0,0,0-.82-.64,10.55,10.55,0,0,0-2.15-.12H60.41Z"/><path d="M70.65,119.85a11.39,11.39,0,0,1,.84-4.7,6.38,6.38,0,0,1,2.21-2.75,5.8,5.8,0,0,1,3.29-.9,5.65,5.65,0,0,1,4.58,2.14,9.37,9.37,0,0,1,1.77,6.11A9.5,9.5,0,0,1,81.47,126,5.49,5.49,0,0,1,77,128a5.55,5.55,0,0,1-4.49-2A9.36,9.36,0,0,1,70.65,119.85Zm2.72-.11a6.78,6.78,0,0,0,1,4.13,3.12,3.12,0,0,0,5.17,0,7,7,0,0,0,1-4.2,6.82,6.82,0,0,0-1-4.1A3.12,3.12,0,0,0,77,114.25a3.18,3.18,0,0,0-2.63,1.34A7,7,0,0,0,73.37,119.74Z"/><path d="M85.66,127.73v-16h2.57l5.36,10.66V111.77h2.46v16H93.39l-5.27-10.41v10.41Z"/><path d="M45.23,26.58a3.92,3.92,0,0,1,.67-1.42c-1.07.27-2.12.61-3.18.91-1.23.36-2.46.71-3.71,1a31.61,31.61,0,0,1-3.83.57c-.9.08-1.81.15-2.72.16a14.72,14.72,0,0,0,2.19.27,15,15,0,0,0,3.53-.27c1.18-.19,2.36-.44,3.54-.68l1.78-.33A13.86,13.86,0,0,1,45.23,26.58Z"/><path d="M45.79,52.31a1.27,1.27,0,0,0,.08-.51,3.89,3.89,0,0,0-.15-.74,12.1,12.1,0,0,0-.55-1.41c-.4-.94-.85-1.86-1.17-2.85a16.13,16.13,0,0,1-.48-6.18c0-.52.13-1,.22-1.54a8.45,8.45,0,0,1,.41-1.53,7.94,7.94,0,0,1,1.77-2.61,11.68,11.68,0,0,1,2.47-1.86,1.82,1.82,0,0,0,.81-1.16c0-.16.08-.32.11-.49l-.25.32c-1.16,1.2-2.68,1.8-3.84,2.72a9,9,0,0,0-2.47,3.69,14.89,14.89,0,0,0-.92,4.44,13.72,13.72,0,0,0,.38,4.52,8.74,8.74,0,0,0,.87,2.07A10.77,10.77,0,0,0,44.45,51C44.87,51.46,45.33,51.89,45.79,52.31Z"/><path d="M35.12,27.19,37,26.87c.63-.11,1.25-.21,1.86-.37,1.24-.29,2.48-.62,3.73-.89A26,26,0,0,1,46,25.06a1.58,1.58,0,0,1,.77-.42,1.91,1.91,0,0,1,.47,0,2.19,2.19,0,0,0,.36,0,7.89,7.89,0,0,0,1.53-.41c.51-.19,1-.43,1.51-.61a5.49,5.49,0,0,1-.78-.26,7.83,7.83,0,0,0-.78-.25,6.65,6.65,0,0,0-1-.19.78.78,0,0,1,.62.77.8.8,0,1,1-1.6,0,.79.79,0,0,1,.8-.79l-.46,0a3.51,3.51,0,0,0-.79.12l-.82.18c-.55.11-1.1.2-1.65.28h0l-6.46,2.36-5.26,1.89.76-.13Z"/><path d="M47.66,25.05l-.45,0a1.94,1.94,0,0,0-.35,0,1.2,1.2,0,0,0-.6.31,5.36,5.36,0,0,0-.85,1.32l0,.06h-.07a24.43,24.43,0,0,0-3.1.65,17.37,17.37,0,0,0,2.49.36,7.62,7.62,0,0,0,2.9-.3l.08,0,.07.05a4.52,4.52,0,0,1,1.68,1.76,2.22,2.22,0,0,1,.24,1.28,1.59,1.59,0,0,1-.23.64h0c0,.25,0,.49-.08.73a2,2,0,0,1-.8,1.36,13.11,13.11,0,0,0-2.3,2,7.77,7.77,0,0,0-1.57,2.49,12.8,12.8,0,0,0-.57,2.92,17.91,17.91,0,0,0,.34,6c.2.74.48,1.48.76,2.22,0-.15-.07-.3-.1-.45a4.8,4.8,0,0,1-.07-1.37,3.51,3.51,0,0,1,.39-1.34,4,4,0,0,1,.61-.85c-.07-.2-.12-.4-.17-.6a12.89,12.89,0,0,1-.29-1.83l-.08-.91a6.29,6.29,0,0,1,0-1,6.15,6.15,0,0,1,.19-1,3.4,3.4,0,0,1,.44-.92,13.11,13.11,0,0,1,1.15-1.47,63.65,63.65,0,0,1,5.27-5l.34-.3a2,2,0,0,0,.29-.29,7,7,0,0,0,.54-.66,11.42,11.42,0,0,0,.88-1.51,9.88,9.88,0,0,0,1-3.34A4.06,4.06,0,0,0,54.72,23a5.05,5.05,0,0,0-3.11-1.37,13.28,13.28,0,0,0-3.56.09,5.86,5.86,0,0,0-1.71.47,7.06,7.06,0,0,0-1.25.78l.71-.1c.27,0,.54-.1.8-.15a3.55,3.55,0,0,1,.86-.1,6.22,6.22,0,0,1,1.66.29,5,5,0,0,1,1.51.69,6.73,6.73,0,0,1-1.38.91A5,5,0,0,1,47.66,25.05Z"/><path d="M61.56,76.63c.21-.52.44-1,.67-1.55l.35-.77a3.68,3.68,0,0,1,.23-.44c-.49-.07-1-.13-1.48-.21v0l-.12.5-.26,1c-.17.65-.35,1.31-.53,2-.38,1.31-.76,2.61-1.16,3.91v0l0,0a7.5,7.5,0,0,0-1.19,2.34A14.54,14.54,0,0,0,57.44,86v0c-1.38,3-8.51,18.25-8.51,18.25l-5.05.57a.6.6,0,0,0-.52.47l-.09.43,6-.47,5.56.5s.34-.61.14-.94-4.13-.42-4.13-.42a35.31,35.31,0,0,1,1.94-5.89c1.49-3.52,3.93-7.94,6.41-12.64v0l0,0a5.14,5.14,0,0,0,1.08-1.2,3.59,3.59,0,0,0,.52-1.49,5.47,5.47,0,0,0-.08-1.61c0-.28-.12-.53-.16-.84a3.67,3.67,0,0,1,0-.88A13.31,13.31,0,0,1,61.56,76.63Z"/><path d="M61.69,71.46c0,.49,0,1,0,1.47l1.16.23c.28-.61.56-1.21.85-1.81s.57-1.12.87-1.67c-.38-.69-.76-1.39-1.12-2.09l-.57-1.13c-.42-.07-.85-.16-1.26-.27a13.74,13.74,0,0,1,.12,1.7,18,18,0,0,1,0,1.8C61.69,70.26,61.7,70.87,61.69,71.46Z"/><path d="M69.12,105.5c-.18,0-.36-.06-.55-.11a1.75,1.75,0,0,1-.63-.26l-.15-.1v-.19c0-.8.06-1.55.1-2.32s.11-1.53.17-2.29l.39-4.57.21-2.3L69,91.09l.75-4.53V86.5l0,0a3.67,3.67,0,0,0,.42-.72,3.3,3.3,0,0,0,.25-.81,2.69,2.69,0,0,0,.06-.85,3.34,3.34,0,0,0-.18-.82v0c-.13-.83-.28-1.68-.43-2.52l-.42-2.54c-.15-.85-.27-1.7-.4-2.55l-.19-1.27-.09-.64v-.07l-1,.31.07.38.2,1.26c.12.84.25,1.68.34,2.52s.18,1.69.24,2.54a13.9,13.9,0,0,1,0,2.58v0l0,0a1.7,1.7,0,0,0-.24.68,5.29,5.29,0,0,0-.08.8,4.57,4.57,0,0,0,.16,1.58v.08q-.3,4.75-.7,9.49l-.21,2.37c0,.4-.08.79-.13,1.19s-.13.8-.22,1.19a41.31,41.31,0,0,1-.88,4.46l0,0H66.2l-3.84.3a.57.57,0,0,0-.53.58v.37l5.21-.28h.06c1.13.1,2.28.2,3.42.28l.85,0,.59,0s.14-.62,0-.84-1.17,0-1.75-.06C69.85,105.58,69.49,105.55,69.12,105.5Z"/><path d="M95.47,69a13.81,13.81,0,0,0-1.9-1.47A18.18,18.18,0,0,0,91,66.34a9.43,9.43,0,0,1-2.51-1.54,9.68,9.68,0,0,1-1.86-2.23,20.74,20.74,0,0,0,2.15,1.86,12.07,12.07,0,0,0,2.47,1.35c.43.2.87.39,1.31.61a7.63,7.63,0,0,1,2.76,2.3c-.25-.74-.49-1.46-.78-2.16a4.19,4.19,0,0,0-.35-.67.25.25,0,0,0-.07-.09L94,65.65l-.32-.25-1.3-1c-.43-.33-.86-.67-1.3-1s-.91-.63-1.36-1c-.89-.66-1.76-1.33-2.62-2l0,0,0,0a15.72,15.72,0,0,0-2.35-1.93c-.43-.31-.85-.62-1.28-1a13.24,13.24,0,0,0-1.26-.86c-1.77-1.11-3.58-2.18-5.39-3.25l-1.35-.8c-.43-.24-.92-.45-1.4-.66-1-.4-1.94-.79-2.92-1.16s-2-.74-2.94-1.16a7.69,7.69,0,0,0-1.48-.46L65.89,49l-.38-.09a2.27,2.27,0,0,1-.25-.06s-.06,0-.08,0l-.11,0-.22-.06-.44-.12-.87-.25c-.58-.16-1.16-.33-1.73-.52s-1.15-.37-1.72-.58a7.92,7.92,0,0,0-1.69-.54,11.56,11.56,0,0,0-3.52-.12,9.78,9.78,0,0,0-1.68.51c-.56.21-1.1.44-1.66.68a4.2,4.2,0,0,1-1.86.47,2.9,2.9,0,0,1-1.85-.74,6.81,6.81,0,0,1-1.23-1.46,5.55,5.55,0,0,1-.46-.95c-.1.27-.19.54-.26.8a7.45,7.45,0,0,0-.22,1.22c-.09.82,0,1.68-.16,2.57A10.21,10.21,0,0,1,45.87,51a2.84,2.84,0,0,1,.08.77,1.09,1.09,0,0,1-.13.53c.68.6,1.4,1.16,2.13,1.7a10.26,10.26,0,0,1,1.77,1.58c.26.29.52.59.76.89a2.29,2.29,0,0,0,0-.69,5.5,5.5,0,0,1-.11-.69,4,4,0,0,1,0-.7,4.16,4.16,0,0,1-1.22-.63,5.58,5.58,0,0,1-1-1,10.3,10.3,0,0,1-1.51-2.47l.06,0a13.54,13.54,0,0,0,1.81,2.17c.33.32,1.8,2.13,2.64.79a1,1,0,0,1,.31-.26l.13,0,.09,0,.17,0,.69-.06q1.1-.09,2.19-.15a8.68,8.68,0,0,1-1.19-.82l-.06-.06,0-.08a3.51,3.51,0,0,1,.5-.85,3.44,3.44,0,0,1,.76-.63,1.27,1.27,0,0,1,.46-.25l.49-.12.94-.16c.63-.09,1.26-.15,1.89-.22l1.87-.23h.07a29.5,29.5,0,0,1,3,.43,16.83,16.83,0,0,1,2.92.79c.92.37,1.85.69,2.79,1,.47.16.94.34,1.4.53a5.21,5.21,0,0,1,1.3.74,11.81,11.81,0,0,0-2.79-1c-1-.26-1.93-.53-2.88-.85a22,22,0,0,0-2.85-.7c-1-.17-1.93-.3-2.9-.41-1.24.16-2.49.24-3.73.36-.31,0-.62,0-.93.1l-.44.08a1.1,1.1,0,0,0-.37.17,3.09,3.09,0,0,0-.73.52,3.3,3.3,0,0,0-.49.67q.31.32.66.6l.42.33.44,0a25.81,25.81,0,0,1,2.78,0c.13,0,.24,0,.39.07l.22.08.13.06a3.51,3.51,0,0,0,.58.14c.42.06.87,0,1.39.14l.19,0,.12,0a1.37,1.37,0,0,0,.29,0c.21,0,.44,0,.66,0a13.11,13.11,0,0,1,1.41,0,4.65,4.65,0,0,1,.73.08l.34.07.32.05,1.34.16.77.09s.17-.13-.44-.76a7.26,7.26,0,0,0-1.75-1.37,1.92,1.92,0,0,1,1,.34,3.94,3.94,0,0,1,.8.61,4.74,4.74,0,0,1,.65.76,3.77,3.77,0,0,1,.28.48c.48.05,1,.12,1.45.2a12.76,12.76,0,0,1,1.37.27,4.29,4.29,0,0,1,1.41.55h0l0,0c1,.93,2,1.84,3.09,2.72a6.52,6.52,0,0,1-.48-.76,4.69,4.69,0,0,1-.42-1,2,2,0,0,1,0-1.11c.13.35.62,1.65.79,2A14.64,14.64,0,0,1,75.45,58l.1.1c.34.27.68.53,1,.77l.26.17.26.14.58.25c.66.27,1.34.51,2,.74-.6-1.43-1.21-2.85-1.79-4.29.8,1.49,1.55,3,2.33,4.54l.2.39L80,60.72c-.85-.22-1.68-.46-2.52-.75-.21-.07-.41-.16-.62-.24l-.32-.16-.3-.17c-.37-.25-.73-.5-1.08-.77-1.4-1.05-2.71-2.18-4-3.32A4,4,0,0,0,70,54.9c-.43-.11-.87-.18-1.31-.25-.89-.14-1.8-.23-2.7-.34l-1.37-.18-.36-.06L64,54a6.07,6.07,0,0,0-.63-.07c-.42,0-.87,0-1.32,0-.24,0-.47,0-.72,0l-.38,0-.21,0-.14,0c-.39-.09-.86-.09-1.34-.16a3.43,3.43,0,0,1-.74-.21l-.18-.09-.1,0-.28-.06a23.71,23.71,0,0,0-2.69-.11c-.91,0-1.82,0-2.73,0l-.68,0h-.27a.82.82,0,0,0-.22.17,5.84,5.84,0,0,0-.78,1,3.39,3.39,0,0,0,0,.64c0,.22,0,.45.06.67a8.54,8.54,0,0,0,.24,1.14l0,0,.17.23a.54.54,0,0,1,.1.16,1.12,1.12,0,0,1,.31.34l.32.42a4.43,4.43,0,0,0,.68.75,4.66,4.66,0,0,0,1.73,1l.12,0,.08.16A9.66,9.66,0,0,0,56,62.17,13.91,13.91,0,0,0,58.05,64a19.49,19.49,0,0,0,2.41,1.45,22.38,22.38,0,0,0,2.38,1c-.16-.33-.32-.66-.47-1,.49.64,1,1.3,1.42,2s.91,1.34,1.35,2c.86,1.24,1.69,2.49,2.51,3.75l.66-.2c-.26-1.07-.51-2.13-.72-3.22l-.16-.91,0-.23c0-.08,0-.18,0-.25v-.46c0-.49,0-1,0-1.47l-.18-.09L66.67,66a3.54,3.54,0,0,0-1.11-.26,11.69,11.69,0,0,1-2.53-.4c.43-.06.85-.09,1.27-.14s.84-.1,1.28-.11a3.23,3.23,0,0,1,1.39.19l.6.28.56.28a11.5,11.5,0,0,0,1.11.47,2.68,2.68,0,0,0,.53.12c.21,0,.45,0,.66.06a18,18,0,0,1,2.2.51l3-.06-.2-.11a7.65,7.65,0,0,1-.93-.64A9.51,9.51,0,0,1,73,64.6a7.65,7.65,0,0,1-1.11-2c-.28-.69-.52-1.39-.73-2.1l.06,0c.29.67.6,1.34,1,2a7,7,0,0,0,1.2,1.77c.49.53,1.06,1,1.58,1.48l.78.76.4.36.07.07.59,0c.48,0,1-.05,1.42-.09-.12,0-.24-.12-.36-.18a5.42,5.42,0,0,1-1.17-1.07,12.48,12.48,0,0,1-1-1.25c-.14-.22-.27-.45-.39-.67a3,3,0,0,1-.31-.73h.06A6.78,6.78,0,0,0,76,64.16,9.73,9.73,0,0,0,77,65.24c.37.34.8.6,1.17.92l.79.62h0l1.09-.14.91-.12a5.48,5.48,0,0,1-.66-.61c-.61-.63-1.12-1.29-1.69-1.93l0,0c.34.26.67.53,1,.8s.64.56,1,.82.69.43,1,.65l.4.25a10.48,10.48,0,0,1,1.48.07l1.1.16a6.31,6.31,0,0,0,1.06,0c.37,0,.75-.08,1.14-.09a2.21,2.21,0,0,1,1.21.25l.23.16a1,1,0,0,0,.23.12,3.82,3.82,0,0,0,.51.18,5.82,5.82,0,0,0,.83.17c-.41-.29-.83-.58-1.23-.89a12.94,12.94,0,0,1-1.55-1.31v0a1.37,1.37,0,0,1-.15.21,1.4,1.4,0,0,1-.18.12,1.2,1.2,0,0,1-.64.1,3.26,3.26,0,0,1-.49-.1A7.78,7.78,0,0,1,84,64.82a16.33,16.33,0,0,1-2.77-2.13c1,.54,2,1.09,3.08,1.58a10.08,10.08,0,0,0,1.53.6l.35.06h.18a1.56,1.56,0,0,0-.07-.3,8.43,8.43,0,0,0-.75-1.46c-.28-.48-.61-.95-.92-1.43-.64-.95-1.27-1.91-2-2.83A8.43,8.43,0,0,1,83.94,60c.41.42.8.85,1.17,1.3s.72.92,1.06,1.4A8,8,0,0,1,87,64.35a1.66,1.66,0,0,1,.11.54,1,1,0,0,1-.06.35,16,16,0,0,0,1.64,1.2c.6.4,1.21.78,1.82,1.16l1.85,1.11c.58.33,1.17.68,1.75,1a2.29,2.29,0,0,1,.81-.35,4,4,0,0,1,.59-.09C95.52,69.18,95.49,69.11,95.47,69Z"/></svg>