<svg id="Layer_1" data-name="Layer 1" xmlns="http://www.w3.org/2000/svg" width="128" height="128" viewBox="0 0 128 128"><title>Artboard 51</title><path d="M18.24,121.87v-2.7h5.69v6.36a6.86,6.86,0,0,1-2.44,1.74,7.4,7.4,0,0,1-3.16.73,6.24,6.24,0,0,1-3.42-1,6.52,6.52,0,0,1-2.35-2.85,10.83,10.83,0,0,1-.86-4.47,10.64,10.64,0,0,1,.87-4.51,6.64,6.64,0,0,1,2.28-2.79,5.91,5.91,0,0,1,3.35-.93A5.64,5.64,0,0,1,22,112.69a5.69,5.69,0,0,1,1.81,3.5l-2.61.6a3.4,3.4,0,0,0-1.08-1.88,2.81,2.81,0,0,0-1.87-.66,3.33,3.33,0,0,0-2.74,1.32,6.37,6.37,0,0,0-1,4A7.23,7.23,0,0,0,15.55,124a3.1,3.1,0,0,0,2.62,1.3,3.91,3.91,0,0,0,1.61-.37,5.1,5.1,0,0,0,1.49-1v-2Z"/><path d="M26.58,127.73v-3.06h2.51v3.06Z"/><path d="M38,121.87v-2.7h5.7v6.36a7,7,0,0,1-2.44,1.74,7.44,7.44,0,0,1-3.17.73,6.24,6.24,0,0,1-3.42-1,6.5,6.5,0,0,1-2.34-2.85,10.67,10.67,0,0,1-.87-4.47,10.49,10.49,0,0,1,.88-4.51,6.55,6.55,0,0,1,2.27-2.79A5.93,5.93,0,0,1,38,111.5a5.14,5.14,0,0,1,5.56,4.69l-2.61.6a3.4,3.4,0,0,0-1.08-1.88,2.79,2.79,0,0,0-1.87-.66,3.3,3.3,0,0,0-2.73,1.32,6.3,6.3,0,0,0-1,4A7.23,7.23,0,0,0,35.3,124a3.1,3.1,0,0,0,2.63,1.3,3.87,3.87,0,0,0,1.6-.37,5,5,0,0,0,1.49-1v-2Z"/><path d="M58.16,127.73H55.29l-1.14-3.62H48.91l-1.08,3.62H45l5.09-16h2.8Zm-4.86-6.31-1.81-5.93-1.77,5.93Z"/><path d="M58.63,127.73v-2.92l6.87-10.34H59.4v-2.7H69v2.51L61.82,125h7.44v2.7Z"/><path d="M71.16,127.73v-16h9.71v2.7H73.8V118h6.57v2.69H73.8V125h7.31v2.7Z"/><path d="M83.64,127.73V111.9h2.63V125h6.58v2.7Z"/><path d="M95,127.73V111.9h2.63V125h6.58v2.7Z"/><path d="M106.35,127.73v-16h9.71v2.7H109V118h6.57v2.69H109V125h7.31v2.7Z"/><path d="M42.75,63a56.85,56.85,0,0,1-5.61-4c-.56-.58-3.48-.77-4.27-.82h-.65c.82.44,3.53,1.66,4.33,2.1,2.16,1.2,4.33,2.42,6.49,3.66C43,63.61,42.84,63.3,42.75,63Z"/><path d="M63.11,92.48,62.26,90c-.57-1.66-1.12-3.3-1.65-5-.26-.84-.52-1.68-.75-2.52a22.31,22.31,0,0,1-.63-2.62l-.57-5.2c-.36-3.32-.66-6.63-.93-10a42.7,42.7,0,0,1-5.65,0c-.08.14-.17.28-.25.43.94,2.81,1.62,5.7,2.43,8.54.18.72.37,1.44.58,2.15a9,9,0,0,0,.34,1l.42,1c.59,1.39,1.14,2.8,1.68,4.2.27.7.55,1.4.81,2.1l.69,2.12c.47,1.42.93,2.85,1.31,4.31a14.83,14.83,0,0,1,.47,2.22,5.54,5.54,0,0,1-.38,2.27c-.41,1.38-1.19,3.29-1.73,4.61a12.15,12.15,0,0,1,3,1c0-.52.13-2.06.21-2.54a3.3,3.3,0,0,1,.57-1.37,9.54,9.54,0,0,0,1.29-2.1,1.53,1.53,0,0,0,0-1Z"/><path d="M117.28,96.12c-.48-.53-.62-.13-1-.72l-.36-.51.54-.35a1.05,1.05,0,0,0,.21-.15c0-.41-4.86-25.85-4.86-25.85a8.85,8.85,0,0,1-2.29-1c-.79-.47-1.55-1-2.28-1.53a29,29,0,0,1-4.1-3.65A6.82,6.82,0,0,1,101.56,60a5.4,5.4,0,0,1,0-2.85c.46-1.81,1.22-3.43,1.66-5.16a39.25,39.25,0,0,0,.91-5.29c0-.57.07-1.15.08-1.71a17.51,17.51,0,0,1,2.15,7.35c-.08,2-.07,2.94-.16,5.07-1.31,4.48,0,5.21,1.33,6-.13-2.53,1.59-4.13-.46-6a25.45,25.45,0,0,1,.32-5.81,15.86,15.86,0,0,0-1.26-8.88,11.91,11.91,0,0,0-3.9-3.76,10.49,10.49,0,0,0-1.87-1.4c-.75-.46-1.55-.89-2.34-1.33a12,12,0,0,0-2.42-1.12A38.34,38.34,0,0,0,85,34c-1.81,0-3.6,0-5.41.07l-2.7.08a21.82,21.82,0,0,0-2.62.33c-7.08,1.26-14.09,3-21.17,4.47L53,39l-.11,0A10.48,10.48,0,0,0,49,38.5,5.86,5.86,0,0,0,45.62,40a7.79,7.79,0,0,1-.82.68,3.65,3.65,0,0,1-1.06.42,16,16,0,0,1-2,.41,25.64,25.64,0,0,1-4.11.25,14.48,14.48,0,0,1-2.06-.19,3.35,3.35,0,0,1-1.9-1.07,14.16,14.16,0,0,1-2.34-3.39,45,45,0,0,1-3-7.25l-.05.06-.06.06h0A3.79,3.79,0,0,0,27,31a7.76,7.76,0,0,0-.59,1.59h-.11a4.55,4.55,0,0,1,.09-1.86,2.45,2.45,0,0,1,.52-.88c.19-.23.79-.34,1-.52.49-.62,1.26-1,1.69-1.56a3.84,3.84,0,0,0,.74-1.92,12.55,12.55,0,0,0,.18-2.27,11.64,11.64,0,0,0-.14-1.67c-.08-.34-.08-.94-.54-1s-1.28.7-1.46,1a10.67,10.67,0,0,0-.7,1,4.74,4.74,0,0,1-.89,1,4.71,4.71,0,0,0-.66.78,4,4,0,0,0-.37,2.08,2.09,2.09,0,0,1-.38,1.34,6.51,6.51,0,0,0-.72.94l-.11,0c0-.42.39-.9.36-1.19a9.09,9.09,0,0,0-3.51-1.1,29.87,29.87,0,0,1,5.08-8.42c.87-1.06,1.8-2.09,2.73-3.14S31,13.05,31.89,11.9A32,32,0,0,0,34.2,8.3C35.56,5.83,36.77,3,36.57.06c0,0-1.21,2.78-1.91,4C34.21,4.85,29.35,12,25.9,15c-2.87,2.5-4.19,5.76-5.22,6.3A28.28,28.28,0,0,1,26,11.91a28.84,28.84,0,0,0,2.51-3.6,13.94,13.94,0,0,0,1.47-4A23.38,23.38,0,0,0,30.68.06s-1.56,2.77-2.1,3.87A46.45,46.45,0,0,1,21,14.6a17.75,17.75,0,0,0-2.58,3.64,39.27,39.27,0,0,0-1.77,4.06c-.53,1.38-1,2.76-1.46,4.17-.21.62-.72,2.22-.92,2.78h0a17.59,17.59,0,0,0-.71,2.08,8.71,8.71,0,0,0-.12,2.21v.1l-.08.1a28.25,28.25,0,0,1-2.15,2.46C10.46,37,9.61,37.72,9,38.5A5.16,5.16,0,0,0,7.72,41a3,3,0,0,0,1.12,2.15A10.71,10.71,0,0,0,10,43.05a4.57,4.57,0,0,0,1.28-.28c.84-.33,1.95-.9,2.78-1.33l-.2.26a14,14,0,0,1-2.3,1.68,5.18,5.18,0,0,1-1.4.53c-.24.05-.49.08-.75.11a12.06,12.06,0,0,0,.92.86,1.06,1.06,0,0,0,.56.19c.16,0,.24-.07.46-.22a5.07,5.07,0,0,1,1.76-.6,4.25,4.25,0,0,1,1.66-.18,7.25,7.25,0,0,0,3.2-.72,33,33,0,0,0,4.72-2.18A13.93,13.93,0,0,0,24.36,40c.23-.6,1.09-2.73,1.32-3.37v.47c0,.7-.64,2.41-.71,3.08v.05l-.06.1a6.92,6.92,0,0,1-1.62,1.57,5.65,5.65,0,0,1-2,1.3,5.89,5.89,0,0,1-.77.35,31.36,31.36,0,0,1,2.26,2.9c.76,1.11,1.5,2.24,2.18,3.41s1.26,2.39,2,3.51a13.11,13.11,0,0,0,2.64,3c1.08.69,6.9,1.51,7.74,1.69a16.3,16.3,0,0,1,2.45.79c.63.27,1.24.57,1.86.82a8.84,8.84,0,0,1-.49-2.28h.11A20.49,20.49,0,0,0,42,60c.4.95.86,1.88,1.23,2.84a13.54,13.54,0,0,1,.5,2.89,4.75,4.75,0,0,1-.05,1.5,3.82,3.82,0,0,1-.2.79l-.26.67a32.59,32.59,0,0,1-2.57,5.29,3,3,0,0,1-.58.63,6,6,0,0,0-.42.44A7.62,7.62,0,0,0,39,76.14c-.4.81-6.59,15.88-7.13,17.13h0l-1.06,1.43A5.14,5.14,0,0,0,30,96.34,9.87,9.87,0,0,1,29,98a10.69,10.69,0,0,0-1.55,2.32l3,.89a6.83,6.83,0,0,1,.65-2.66,5.8,5.8,0,0,1,1.53-2.18,11.75,11.75,0,0,0,2-4c.26-.73.47-1.47.78-2.25s.7-1.46,1.07-2.16C38,85.2,40.4,82.52,42,79.81s3.43-5.33,5.22-7.91,2.81-5.16,4.58-7.75l0-.05,0,0A8.16,8.16,0,0,0,54,61.84a10.06,10.06,0,0,0,.55-3.2l0-.06h0a21.32,21.32,0,0,0,0-3.1l.12,0c0,.31.12,1.74.16,3a19.33,19.33,0,0,1,3-.94,26.59,26.59,0,0,1,3.34-.63,29.76,29.76,0,0,0,3.4-.41,16.42,16.42,0,0,0,3.22-1.06,9.85,9.85,0,0,0,1.45-.74l.27-.2a1.77,1.77,0,0,0,.21-.23,8.61,8.61,0,0,1,.6-.71,12.3,12.3,0,0,1,2.84-2.12A20.67,20.67,0,0,1,76.29,50c.54-.18,1.1-.34,1.65-.49.28-.08.57-.14.85-.2l.43-.08.22,0,.1,0h.06a15.37,15.37,0,0,1,.63-2.1l.1,0a18.85,18.85,0,0,0-.75,6.71,9.66,9.66,0,0,0,1.8,4.71,17.87,17.87,0,0,0-3.45.84c-1.46.59-3.75.57-6.15.69A51.34,51.34,0,0,0,62,61.64c-2.11.57-7.53-.11-7.78.37a8,8,0,0,1-2,2.47s0,0,0,0a63,63,0,0,1,7.64-1.35c1.26-.1,2.54-.11,3.79-.22s2.55-.23,3.79-.32a61.8,61.8,0,0,0,7.35-1.16,58.38,58.38,0,0,0,7.15-2.14l.35.47c1.37,1.8,2.91,3.46,4.45,5.16s3.06,3.42,4.46,5.23,2.78,3.66,4.09,5.54l1,1.45c.16.25.32.49.47.76a2,2,0,0,1,.12.22,1.66,1.66,0,0,1,.1.36,2.19,2.19,0,0,1,0,.55,16.57,16.57,0,0,1-.69,3.5,135,135,0,0,1-4.64,13l0,0,0,0a8.89,8.89,0,0,0-.81,1.31,7.7,7.7,0,0,0-.33.71,4.43,4.43,0,0,0-.21.69l0,.07,0,0-1.09,1.66,2.93,1,.17-2.64a4.75,4.75,0,0,1,1.33,0c.38-1.73,1-3.37,1.49-5l1.73-5.16,3.45-10.31c.28-.85.55-1.72.79-2.57.13-.46.26-.75.13-1a3.94,3.94,0,0,0-.67-1,18.52,18.52,0,0,0-1.92-1.82c-.33-.3-.69-.59-1-.92s-.64-.71-.94-1.07a21.8,21.8,0,0,1-2.89-4.73,9.43,9.43,0,0,1-.81-2.71,5.09,5.09,0,0,1,.35-2.9v0l0,0,3.84-5.49c.65-.91,1.29-1.83,1.9-2.76a19.67,19.67,0,0,0,1.67-2.87l.1,0a15.69,15.69,0,0,1-1.47,3c-.56,1-1.15,1.93-1.74,2.87l-3.6,5.59A5.4,5.4,0,0,0,94,63.18a6.28,6.28,0,0,1,1.75.46,5.11,5.11,0,0,1,1,.79l1,.83a28.21,28.21,0,0,0,4.18,2.84c.71.41,1.5.76,2.23,1.24a15.06,15.06,0,0,1,2,1.6,23.59,23.59,0,0,1,3.31,4,10.74,10.74,0,0,1,1.3,2.28c.3.84.5,1.66.71,2.5.4,1.65.75,3.32,1.07,5,.62,3.31,1.46,7.57,2,10.89L116.49,99c.56-.56,1.91-1.16,2.4-1.72A15,15,0,0,1,117.28,96.12ZM17.88,33.39a2.08,2.08,0,0,1-1.48,0,.29.29,0,0,1-.18-.38,1.93,1.93,0,0,1,.87-1.18,1.9,1.9,0,0,1,1.47,0,.29.29,0,0,1,.2.36A2,2,0,0,1,17.88,33.39Z"/><polygon points="57.37 102.32 61.2 102.32 61.37 101.36 58.11 100.39 57.37 102.32"/><polygon points="26.28 103 30.12 103 30.28 102.05 27.03 101.08 26.28 103"/><polygon points="119.61 97.72 116.93 99.82 118.07 101.54 120.29 98.41 119.61 97.72"/><polygon points="87.85 103 91.68 103 91.85 102.05 88.59 101.08 87.85 103"/></svg>