<svg id="Layer_1" data-name="Layer 1" xmlns="http://www.w3.org/2000/svg" width="128" height="128" viewBox="0 0 128 128"><title>Artboard 54</title><path d="M38.26,127.72V111.5h2.68v7.22l5.44-7.22H50l-5,6.32,5.28,9.9H46.79l-3.67-7.62-2.18,2.72v4.9Z"/><path d="M51.85,111.5h2.67v8.79a23,23,0,0,0,.1,2.66,2.74,2.74,0,0,0,.85,1.66,3,3,0,0,0,3.29.18,2.1,2.1,0,0,0,.8-1.16,13.69,13.69,0,0,0,.22-3.16v-9h2.68V120a22.65,22.65,0,0,1-.35,4.72,4,4,0,0,1-1.57,2.36,5.33,5.33,0,0,1-3.23.9,6,6,0,0,1-3.24-.75,4.22,4.22,0,0,1-1.7-2.1,15.92,15.92,0,0,1-.52-5Z"/><path d="M65.5,111.5h4.89a7.47,7.47,0,0,1,2.81.41,4.79,4.79,0,0,1,1.74,1.4,7.37,7.37,0,0,1,1.25,2.56,14.44,14.44,0,0,1,.45,3.91,12.86,12.86,0,0,1-.47,3.66A7.43,7.43,0,0,1,75,125.9a4.65,4.65,0,0,1-1.76,1.36,6.55,6.55,0,0,1-2.66.46h-5Zm2.67,2.74V125h2a5.26,5.26,0,0,0,1.87-.24,2.35,2.35,0,0,0,1-.74,4.36,4.36,0,0,0,.61-1.55,13.17,13.17,0,0,0,.24-2.8,12.49,12.49,0,0,0-.25-2.84,3.74,3.74,0,0,0-.77-1.64,2.42,2.42,0,0,0-1.28-.78,10.13,10.13,0,0,0-2.18-.15Z"/><path d="M79.12,111.5H81.8v8.79a23,23,0,0,0,.1,2.66,2.69,2.69,0,0,0,.85,1.66,3,3,0,0,0,3.29.18,2.1,2.1,0,0,0,.8-1.16,13.69,13.69,0,0,0,.22-3.16v-9h2.68V120a22.65,22.65,0,0,1-.35,4.72,4,4,0,0,1-1.57,2.36,5.33,5.33,0,0,1-3.23.9,6,6,0,0,1-3.25-.75,4.25,4.25,0,0,1-1.69-2.1,15.84,15.84,0,0,1-.53-5Z"/><path d="M113.2,86.87c-.31-1.9-.47-3.77-.64-5.65l-.21-2.82c0-.9-.12-1.76-.09-2.71a26.6,26.6,0,0,1-3.57-4.18l-1.63-2.3a9.45,9.45,0,0,1-.79-1.19,7.26,7.26,0,0,1-.53-1.35,15.9,15.9,0,0,1-.4-5.66,55,55,0,0,1,1.28-5.5c.47-1.81,1.84-7.32,1.68-8.13a3.63,3.63,0,0,0-.6-1.4c-.14-.17-.27-.35-.39-.48a3.68,3.68,0,0,0-.4-.39,17.84,17.84,0,0,0-2.3-1.56l-2.38-1.49L101,41.32a13.87,13.87,0,0,1,1.74,2.24c.29.51.52,1,.81,1.55s.63,1,1,1.45a3.53,3.53,0,0,1,.44.81l.33.79a9.49,9.49,0,0,1,.53,1.69,5,5,0,0,1-.46,3.51l-.08,0a8.72,8.72,0,0,0-.24-3.31c-.13-.54-.26-1.08-.42-1.63-.08-.28-.17-.56-.23-.85a4.71,4.71,0,0,0-.23-.79,7.32,7.32,0,0,0-.81-1.51c-.34-.47-.75-.88-1.13-1.32a12.6,12.6,0,0,1-1.67-2.87L97.5,39.13c-.61,0-1.22,0-1.84,0a7.32,7.32,0,0,1,1.65,2.07,14.09,14.09,0,0,1,1.2,2.66,21.59,21.59,0,0,1,.65,2.84,11.93,11.93,0,0,1,.17,1.45c0,.51,0,1,0,1.46,0,1,0,1.93-.11,2.9a8.5,8.5,0,0,1-.64,2.93,1.74,1.74,0,0,1-.22.36l-.21.27c-.12.19-.23.37-.34.58a8.47,8.47,0,0,0-.53,1.27,15.74,15.74,0,0,0-.65,2.77h-.08a9.27,9.27,0,0,1,.17-2.92,7.86,7.86,0,0,1,.43-1.43,3.78,3.78,0,0,1,.36-.69c.06-.11.18-.24.21-.32a1.5,1.5,0,0,0,.15-.25,10.8,10.8,0,0,0,.65-2.66c.14-.94.26-1.89.41-2.85a14,14,0,0,0,.19-1.41,6.53,6.53,0,0,0-.16-1.4,16.19,16.19,0,0,0-1-2.68c-.38-.87-.73-1.75-1.13-2.61-.2-.43-.41-.85-.63-1.27a5.89,5.89,0,0,0-.68-1.07,42.26,42.26,0,0,1-5.74-.4,12.47,12.47,0,0,1,1.28.71,2.5,2.5,0,0,1,.67.7,1.7,1.7,0,0,1,.24,1c0,.65-.24,1.15-.31,1.74a6.45,6.45,0,0,0,0,1.7,6.71,6.71,0,0,0,.32,1.57,3.73,3.73,0,0,1,.16.43,4.24,4.24,0,0,1,.1.46,5.54,5.54,0,0,1,.07.9,11.79,11.79,0,0,1-.57,3.43l-.08,0c-.1-1.15-.11-2.29-.15-3.4,0-.27,0-.55,0-.81s0-.25,0-.38,0-.2-.11-.38a4.28,4.28,0,0,1-.06-1.81c.07-.58.17-1.14.19-1.71q0-.44,0-.87a7,7,0,0,0-.06-.82,1.91,1.91,0,0,0-.66-1.24,9.75,9.75,0,0,1-1.19-1.21l-.77-.12-1.42-.18a23.8,23.8,0,0,1,1.86,2.9,6.81,6.81,0,0,1,.73,1.78A8.84,8.84,0,0,1,90.11,45v0a27,27,0,0,0-.1,3.12c0,1-.05,2.08-.13,3.13a22.09,22.09,0,0,0,.09,3c0,.51.09,1,.09,1.57a5.36,5.36,0,0,1,0,.8,1.44,1.44,0,0,1-.29.78l-.06-.06a3,3,0,0,0,0-1.48c-.1-.5-.21-1-.3-1.52a9.73,9.73,0,0,1-.22-3.2c.15-1,.25-2,.42-3.08A21.31,21.31,0,0,0,89.85,45a6.75,6.75,0,0,0-.51-1.75c-.24-.55-.52-1.09-.79-1.64a32.52,32.52,0,0,1-1.44-3.24c-2.39-.29-4.79-.54-7.2-.69l-.93,0a6.68,6.68,0,0,1,.93,2.16,17.8,17.8,0,0,1,.5,2.58c.09.87.12,1.74.28,2.6a16.93,16.93,0,0,0,.68,2.51c.28.83.55,1.66.78,2.5a16.32,16.32,0,0,1,.62,2.59,31.86,31.86,0,0,1,.07,5.26h-.07c-.36-1.72-.56-3.46-.79-5.16s-.75-3.37-1-5.09c-.14-.85-.3-1.71-.52-2.56s-.45-1.7-.65-2.55-.31-1.7-.45-2.55a11.14,11.14,0,0,0-.53-2.3c-.36,0-.72,0-1.07,0a10.76,10.76,0,0,1-2.27-.09c-.3,0-.59-.11-.89-.18a6,6,0,0,1,.69,2.12,2.52,2.52,0,0,1-.07.72,3.4,3.4,0,0,1-.12.34,1.34,1.34,0,0,0-.09.26,2.86,2.86,0,0,0-.08,1.1,6.9,6.9,0,0,0,.68,2.33,18.15,18.15,0,0,1,1,2.36,8.71,8.71,0,0,1,.47,2.54c0,.88,0,1.69,0,2.5a10.08,10.08,0,0,0,1.09,4.73l-.07.06a5.21,5.21,0,0,1-1.33-2.21,10.47,10.47,0,0,1-.49-2.54,11.28,11.28,0,0,1,0-1.3c0-.43.06-.82.06-1.23a14.53,14.53,0,0,0-.16-2.46,7,7,0,0,0-.81-2.33A8.79,8.79,0,0,1,74.29,42a2.63,2.63,0,0,1,.06-1.39,2.52,2.52,0,0,1,.14-.33,2.5,2.5,0,0,0,.09-.25,1.93,1.93,0,0,0,.11-.53,11.42,11.42,0,0,0-.3-2.16,12.43,12.43,0,0,1-3.06-1.21,37.59,37.59,0,0,1,.56,4.76,9.93,9.93,0,0,0,.16,1.22c.06.4.23.78.31,1.22a3.55,3.55,0,0,1,0,1.3l-.26,1.24c-.17.82-.34,1.63-.43,2.43s0,1.63-.06,2.46a13.61,13.61,0,0,0,.62,4.85l-.07,0a8.55,8.55,0,0,1-1.35-4.88A16,16,0,0,1,71,48.22a12.11,12.11,0,0,1,.72-2.45c.14-.39.3-.79.41-1.18a2.4,2.4,0,0,0,0-1.19c-.09-.38-.34-.74-.48-1.16A7.57,7.57,0,0,1,71.28,41a21.43,21.43,0,0,1-.08-4.93c-1.28-.79-2.44-1.65-3.69-2.4l.19.21a4.94,4.94,0,0,1,.42.57,1.5,1.5,0,0,1,.17.36.92.92,0,0,1,0,.26,1.1,1.1,0,0,1-.09.29,4.71,4.71,0,0,0-.4.54,1.8,1.8,0,0,0-.17.54,4.71,4.71,0,0,0-.07,1.25A19.36,19.36,0,0,0,68,40.36a15.35,15.35,0,0,1,.37,2.72,26.32,26.32,0,0,1-.26,2.73l-.31,2.68c-.11.89-.23,1.78-.29,2.67a10.84,10.84,0,0,0,0,2.67l-.08,0a7.35,7.35,0,0,1-.51-2.7A25.19,25.19,0,0,1,67,48.4a51.32,51.32,0,0,1,1-5.34,7,7,0,0,0-.19-2.65c-.23-.87-.61-1.7-.77-2.64a3.79,3.79,0,0,1,0-1.46,2.56,2.56,0,0,1,.28-.72,4.47,4.47,0,0,1,.44-.53c.06,0,0-.17-.07-.36a5.34,5.34,0,0,0-.3-.58L67,33.35a17.34,17.34,0,0,0-3.35-1.58,7.57,7.57,0,0,0-2.08-.36,6.53,6.53,0,0,0-2.07.39,16.31,16.31,0,0,0-3.84,2c-.6.41-1.18.85-1.74,1.31-.28.24-.56.48-.8.72a8,8,0,0,1-.85.77,5.08,5.08,0,0,1-2.17.83,17.88,17.88,0,0,1-2.23.27,10.6,10.6,0,0,1-4.38-.93,21.78,21.78,0,0,1-3.91-2.14c-1.23-.82-2.43-1.68-3.62-2.55l-1.79-1.3a13.72,13.72,0,0,0-1.47-.92,8,8,0,0,1-1.38,0h0l-.35-.06a2.1,2.1,0,0,0-.49.69,2.59,2.59,0,0,1-.63.88l-.05,0a3,3,0,0,0,.38-1,2.14,2.14,0,0,1,.54-1l.07-.08h.12l.45,0h0a9.33,9.33,0,0,0,2.3-.34,4.39,4.39,0,0,0,1-.4,4.59,4.59,0,0,0,.9-.72,5.25,5.25,0,0,0,1.3-2,5.07,5.07,0,0,0,.26-2.14,4.42,4.42,0,0,0-.84.16l-1.07.3a20.43,20.43,0,0,0-2,.81,4.92,4.92,0,0,0-.91.49,6.34,6.34,0,0,0-.78.68,5.44,5.44,0,0,0-1.15,1.74l0,.1-.06,0c-.4.28-.8.53-1.21.79a6.63,6.63,0,0,1-1.31.64l0-.07a9.34,9.34,0,0,0,1.12-.87c.15-.12.3-.26.44-.39l-2-.5c0,.23-.06.44-.08.66h-.07a7.67,7.67,0,0,1,1.4-4.7,6.62,6.62,0,0,1,2-1.54,11.43,11.43,0,0,1,2.29-1,14.58,14.58,0,0,0,4.42-1.78,10.32,10.32,0,0,0,3.14-3.48,5.86,5.86,0,0,0,.41-1.08c.05-.18.07-.37.11-.56l.1-.61a22.5,22.5,0,0,1,.56-2.43c.24-.8.5-1.58.75-2.35l.19-.58a3,3,0,0,1,.34-.64,3.57,3.57,0,0,1,.42-.51,4.86,4.86,0,0,1,.46-.45,25.11,25.11,0,0,1,4.07-2.86c1-.6,2-1.15,3.09-1.66a16.64,16.64,0,0,0-8.34,3.23,8,8,0,0,0-.93.91,3.63,3.63,0,0,0-.63,1.1,21,21,0,0,0-.65,2.54,16.17,16.17,0,0,1-1.82,5A7.66,7.66,0,0,1,36.68,17a10.49,10.49,0,0,1-2.33,1.41,22.94,22.94,0,0,1-2.51.93c-.85.27-1.73.45-2.51.77a8.9,8.9,0,0,0-3.94,3.17,14,14,0,0,0-2,4.8H23.3c0-.16,0-.32.06-.48A7.25,7.25,0,0,0,21.67,29a8.53,8.53,0,0,0-1.33,1.93l0,.07-.06,0c-.61.57-1.25,1.18-1.85,1.81a25.3,25.3,0,0,0-1.73,2c-.27.35-.54.69-.84,1s-.63.63-.95.94c-.62.55-1.25,1.06-1.9,1.56q0,.81,0,1.62a7.85,7.85,0,0,0,1.09,0,12.34,12.34,0,0,0,1.49-.16c.49-.08,1-.17,1.48-.28l1.49-.34,0,.06c-.46.24-.92.46-1.4.66a14.25,14.25,0,0,1-1.48.49,11.18,11.18,0,0,1-1.55.3c-.23,0-.45,0-.68,0a2.06,2.06,0,0,0,.61.35,3.62,3.62,0,0,0,.91.25,2.22,2.22,0,0,0,.89,0c.29-.08.57-.22.88-.34a2.39,2.39,0,0,1,1-.21c.38,0,.65.11,1,.15a14.74,14.74,0,0,0,1.88.15,12.69,12.69,0,0,0,3.72-.54,13.88,13.88,0,0,0,3.42-1.55l.24-.14h0c1.28-.76,2.12-1.39,2.12-1.39.17-.8.37-1.6.57-2.4h.08c0,.87-.08,1.75-.15,2.61v.11l-.12.08-.67.52a5.41,5.41,0,0,1-.69.49,7.42,7.42,0,0,1-.85.41,42.58,42.58,0,0,0,3.78,4.73c.7.78,1.46,1.54,2.23,2.26a29.81,29.81,0,0,0,2.51,1.93c1.73,1.21,3.49,2.37,5.31,3.45a30.84,30.84,0,0,0,5.64,2.73l.21.08,0,.21c.3,1.33.37,2.65.56,3.92a8.2,8.2,0,0,0,.43,1.82,2.82,2.82,0,0,0,.43.78,4.65,4.65,0,0,0,.61.72,8.62,8.62,0,0,0,3.19,2,14.32,14.32,0,0,0,3.56.84,11,11,0,0,0-.44-1.59,17.09,17.09,0,0,0-2.33-4.51l0,0a16.24,16.24,0,0,1,2.62,4.43,7.76,7.76,0,0,1,.63,2.56l0,2.56-.13,5.13c-.05,1.7-.07,3.39-.15,5.14v0l0,.05a11.1,11.1,0,0,0-.34,1.12,2.82,2.82,0,0,0-.08.54,1.66,1.66,0,0,0,.06.52,8.33,8.33,0,0,1,.48,2.45c-.09,1.65-.2,3.26-.33,4.89s-.27,3.24-.52,4.86A4.41,4.41,0,0,1,56,94.19c-.16.38-.3.76-.43,1.14a13.12,13.12,0,0,0-.66,2.31v0l0,0A7.36,7.36,0,0,0,54,98.91c-.24.38-.46.77-.67,1.16a3.66,3.66,0,0,1,1.27.52,3.89,3.89,0,0,1,1,.94,3.74,3.74,0,0,1,.05-.94,1.86,1.86,0,0,1,.64-1.13c.31-.26.62-.51.9-.78a2,2,0,0,0,.61-.87.86.86,0,0,0,0-.22v-.33l0-.61.06-1.2.15-2.4c.21-3.21.47-6.42.71-9.62v-.09l.05-.08a8.81,8.81,0,0,0,.8-1.8,6.39,6.39,0,0,0,.22-.94,3.88,3.88,0,0,0,0-.48c0-.17,0-.37.06-.54.21-1.41.54-2.75.84-4.1s.66-2.68,1-4l.26-1a4.08,4.08,0,0,0,.19-1c.08-.68.14-1.37.24-2.06a14.79,14.79,0,0,1,.39-2.07,5.51,5.51,0,0,1,.37-1,4.26,4.26,0,0,1,.32-.5c.11-.13.22-.25.32-.39a7.35,7.35,0,0,0,1.25-3.74,14.35,14.35,0,0,0-.41-4c-.27-1.34-.6-2.69-1-4h.06c.44,1.3.84,2.63,1.18,4q.27,1,.45,2a8.65,8.65,0,0,1,.14,2.11,7.81,7.81,0,0,1-1.14,3.89,53.74,53.74,0,0,1,6.82.79c1.19.26,2.33.64,3.51.86a14.18,14.18,0,0,0,3.56.21,14.79,14.79,0,0,0,3.46-.64A13.46,13.46,0,0,0,85,63.22l3.12-1.81a9.74,9.74,0,0,1,3.22-1.3l-.17-.21.06,0,.2.24h0a3,3,0,0,1-.59-1.53A5.68,5.68,0,0,1,91,56.91a9.2,9.2,0,0,1,1-3.08l.07,0a6.89,6.89,0,0,0-.36,1.54A14.16,14.16,0,0,0,91.57,57c0,.53.06,1.05,0,1.56s-.06,1-.06,1.57h0v0h0L95,64.44l.09-.17.07,0a1.36,1.36,0,0,0-.1.21l1,1.18c.83,1,1.67,1.89,2.54,2.81.43.45.88.9,1.33,1.32a6.94,6.94,0,0,0,1.45,1.1l.06,0,0,0c1.06,1.21,1.77,2.37,2.77,3.59l1.49,1.84c.49.61,2.7,4.58,2.7,4.58a20.19,20.19,0,0,1,1.46,2.63,25.16,25.16,0,0,1,1,2.83,22.18,22.18,0,0,1,.63,3c.32,2,.65,2.27.86,4.25l.3,3a5.27,5.27,0,0,1,0,1.58,3.25,3.25,0,0,1-1,1.4,4.33,4.33,0,0,1,1.19.42,5.27,5.27,0,0,1,1.1.75l.07-1.93a3.66,3.66,0,0,1,.3-1.48,3.81,3.81,0,0,1,.76-1.06ZM25,32a2.69,2.69,0,0,1-1.54.78,2.7,2.7,0,0,1-1.65-.49.21.21,0,0,1,0-.33,2.69,2.69,0,0,1,1.54-.78,2.65,2.65,0,0,1,1.65.5A.2.2,0,0,1,25,32Zm83.58,17.87a.86.86,0,0,1,.62.08c.29.18.21.4.23.64a13.11,13.11,0,0,1-.69,3.21,28.7,28.7,0,0,0-.59,2.81,14.65,14.65,0,0,0-.09,2.81,7.54,7.54,0,0,0,.2,1.37c1.07,3.87,2.61,5.37,3.4,5.82A5.2,5.2,0,0,0,114,67a10.24,10.24,0,0,1-2.43-5.27,58.47,58.47,0,0,1,.09-9.56,6.25,6.25,0,0,0-.12-1.51,3.51,3.51,0,0,0-.64-1.32c-.31-.43-.58-.91-.88-1.3a4.25,4.25,0,0,0-.8-.89c-.22-.19-.46-.35-.69-.52a3.87,3.87,0,0,1,.32.92A5.23,5.23,0,0,1,108.57,49.86ZM96.5,78.59l-.36-1.06-.8-2.12a13.92,13.92,0,0,1-.72-2.18,21.79,21.79,0,0,1-.51-4.54,11.51,11.51,0,0,1,.2-2.28,6.68,6.68,0,0,1,.56-1.74L91.39,60.2a12.85,12.85,0,0,0-3,1.71c-1,.68-2,1.37-3,2l-.2.11a9.66,9.66,0,0,0,.73,2.12,7.48,7.48,0,0,0,1.47,2l0,0v.07A32.32,32.32,0,0,0,88.63,73c.24.78.5,1.55.79,2.3a13.79,13.79,0,0,0,1,2.17l0,.06,0,0a21.33,21.33,0,0,1,.46,5.53,6.82,6.82,0,0,1-.7,2.75c-.4.83-.85,1.63-1.3,2.43-.9,1.6-1.27,2.11-2.19,3.69l-1.41,2.36c-.49.78-.91,1.56-1.48,2.35h0c-.47.34-.92.73-1.36,1.11S81.34,99.18,81,99.54a3.88,3.88,0,0,1,1.27.58,3.81,3.81,0,0,1,1,.92l.8-1.21a3.85,3.85,0,0,1,.21-.89,2.85,2.85,0,0,1,.54-.85,2.13,2.13,0,0,1,.85-.57,2.33,2.33,0,0,1,.82-.15l4.21-7.44c1.63-2.88,3.3-5.73,5-8.6v0l0,0a7.7,7.7,0,0,0,.63-.87,2.29,2.29,0,0,0,.4-.87,1.36,1.36,0,0,0-.06-.44C96.61,78.94,96.56,78.76,96.5,78.59ZM58.61,97.13l-.2-.41-.09,1.21a2,2,0,0,1-.47.76c.34.11.7.2,1.06.28l.77.18c-.21-.41-.44-.8-.65-1.19Zm-3.33-1.88s0-.07,0-.11a16.85,16.85,0,0,1-1.59-3.07,33.8,33.8,0,0,1-1.18-3.38c-.33-1.15-.58-2.32-.82-3.48s-.41-2.35-.54-3.54v-.06a13.24,13.24,0,0,1,.75-3.46c.53-1.05,1-2.14,1.44-3.21s1-2.1,1.63-3.12A33.34,33.34,0,0,1,56.79,69l0-.76.12-2.56a6,6,0,0,0-.06-.73,12,12,0,0,1-3.71-.55,9.67,9.67,0,0,1-1.77-.72c-.15,1.54-.33,3.08-.52,4.62s-.44,3.26-.76,4.88c-.07.41-.17.81-.28,1.22-.07.2-.11.4-.2.61s-.18.4-.26.56a7.52,7.52,0,0,0-.56,2.31,8.33,8.33,0,0,0,.79,4.63v0l0,0c.32,1.33.77,2.62,1.2,3.93.22.65.43,1.31.61,2,.09.34.17.68.24,1a8.27,8.27,0,0,1,.09,1.06,32.25,32.25,0,0,0,.51,4.05,4.47,4.47,0,0,0,.27.94,3.12,3.12,0,0,0,.58.77,17.71,17.71,0,0,0,1.51,1.16A18.5,18.5,0,0,1,55.28,95.25ZM48.43,60.78a7.39,7.39,0,0,1-.53-2c-.2-1.25-.29-2.48-.55-3.66-8.82-4.07-12.44-7-19.43-15.47a13.11,13.11,0,0,1-3.33,1.6,12.37,12.37,0,0,1-2.89.47,4.3,4.3,0,0,1,1.52,1.42,8.39,8.39,0,0,1,1.1,2.44c.42,0,.86-.41,1.23-.9a3.61,3.61,0,0,1,.32-.42,1.35,1.35,0,0,1,.55-.41,1.85,1.85,0,0,1,1.25,0,2.45,2.45,0,0,1,1,.62,4.13,4.13,0,0,1,.64.92l1,1.85c.68,1.23,1.44,2.42,2.22,3.59a22.91,22.91,0,0,0,2.62,3.24,57.51,57.51,0,0,0,6.41,5.37,13.15,13.15,0,0,0,3.64,1.89,8,8,0,0,0,3.71.29A3.75,3.75,0,0,1,48.43,60.78ZM23.37,27.46a13.47,13.47,0,0,1,.54-2,13.33,13.33,0,0,1,1.14-2.42,11.41,11.41,0,0,1,1-1.24,3.46,3.46,0,0,1,.71-1.06,8.11,8.11,0,0,1,1.4-1.14,34.82,34.82,0,0,0,3-1.87,12.1,12.1,0,0,0,2.42-2.48,12.53,12.53,0,0,0,1.5-3.1,11.64,11.64,0,0,0,.7-3.37c0-1.17,0-2.35,0-3.54a11.93,11.93,0,0,1,.09-1.86,4.19,4.19,0,0,1,.85-1.73A11.75,11.75,0,0,1,38.27,0a6.08,6.08,0,0,0-3.72,3.48,6.24,6.24,0,0,0-.22,2.21c0,.75.07,1.51,0,2.28a9.5,9.5,0,0,1-.48,2.25,14.62,14.62,0,0,1-2,4.14,9.65,9.65,0,0,1-3.79,2.67,11.22,11.22,0,0,0-3.76,2.27,7,7,0,0,0-1.87,3.88,32.59,32.59,0,0,0,.24,4.49A3.16,3.16,0,0,1,23.37,27.46Z"/><path d="M52.92,100.53,50.81,103h3.93l.47-1S55,100.93,52.92,100.53Z"/><path d="M80.57,100.21l-2.11,2.47h3.93l.47-1S82.61,100.61,80.57,100.21Z"/><path d="M111.21,100.21l-2.11,2.47H113l.47-1S113.25,100.61,111.21,100.21Z"/></svg>