<svg id="Layer_1" data-name="Layer 1" xmlns="http://www.w3.org/2000/svg" width="128" height="128" viewBox="0 0 128 128"><title>Artboard 52</title><path d="M24.62,127.73v-16h4.24A13,13,0,0,1,32,112a3.49,3.49,0,0,1,1.92,1.58,5.71,5.71,0,0,1,.76,3.11,5.92,5.92,0,0,1-.65,2.9,3.87,3.87,0,0,1-1.63,1.65,8.64,8.64,0,0,1-3.38.47H27.25v6Zm2.63-13.26V119h1.46a6.39,6.39,0,0,0,2-.21,1.75,1.75,0,0,0,.86-.74,2.76,2.76,0,0,0,0-2.67,1.67,1.67,0,0,0-.86-.73,7.59,7.59,0,0,0-2.17-.19Z"/><path d="M37,127.73v-16h9.71v2.7H39.68V118h6.57v2.69H39.68V125H47v2.7Z"/><path d="M49.52,127.73V111.9h2.63V125h6.58v2.7Z"/><path d="M60.76,127.73v-16h2.63v16Z"/><path d="M74.52,121.86l2.56,1a7.13,7.13,0,0,1-2,3.91A4.93,4.93,0,0,1,71.66,128a5.09,5.09,0,0,1-4.15-2,9.52,9.52,0,0,1-1.83-6.14,10,10,0,0,1,1.84-6.39,5.24,5.24,0,0,1,4.31-2,5,5,0,0,1,3.68,1.5,6.5,6.5,0,0,1,1.54,3.17l-2.61.76a3.65,3.65,0,0,0-1-2,2.53,2.53,0,0,0-1.77-.69,2.79,2.79,0,0,0-2.36,1.27,7.25,7.25,0,0,0-.92,4.16,7.79,7.79,0,0,0,.89,4.29,2.73,2.73,0,0,0,2.32,1.28,2.4,2.4,0,0,0,1.81-.81A5.21,5.21,0,0,0,74.52,121.86Z"/><path d="M91.36,127.73H88.5l-1.15-3.62H82.11L81,127.73H78.22l5.1-16h2.8Zm-4.86-6.31-1.8-5.93-1.78,5.93Z"/><path d="M93,127.73v-16h2.57l5.35,10.66V111.77h2.46v16h-2.65l-5.27-10.41v10.41Z"/><path d="M6.59,10.45V7.73h5.74v6.41a7.06,7.06,0,0,1-2.46,1.75,7.54,7.54,0,0,1-3.19.74,6.2,6.2,0,0,1-3.44-1A6.47,6.47,0,0,1,.87,12.79,10.75,10.75,0,0,1,0,8.29,10.78,10.78,0,0,1,.88,3.75,6.64,6.64,0,0,1,3.18.93,6,6,0,0,1,6.55,0a5.67,5.67,0,0,1,3.78,1.2,5.75,5.75,0,0,1,1.82,3.53l-2.63.6a3.41,3.41,0,0,0-1.09-1.9,2.82,2.82,0,0,0-1.88-.66A3.38,3.38,0,0,0,3.79,4.1a6.41,6.41,0,0,0-1,4,7.28,7.28,0,0,0,1.14,4.42,3.12,3.12,0,0,0,2.65,1.3,4,4,0,0,0,1.61-.37,4.86,4.86,0,0,0,1.5-1v-2Z"/><path d="M15,16.35V.27h5.6a7.72,7.72,0,0,1,3.07.44,3.43,3.43,0,0,1,1.52,1.5,5.26,5.26,0,0,1,.59,2.56,4.75,4.75,0,0,1-.91,3,4,4,0,0,1-2.57,1.45,6.53,6.53,0,0,1,1.42,1.34,19.63,19.63,0,0,1,1.52,2.61l1.6,3.14H23.69l-1.93-3.5a22.81,22.81,0,0,0-1.41-2.37,2.07,2.07,0,0,0-.79-.66,3.63,3.63,0,0,0-1.34-.18h-.55v6.71Zm2.65-9.28h2A9.64,9.64,0,0,0,22,6.91a1.39,1.39,0,0,0,.8-.64A2.31,2.31,0,0,0,23.06,5a2.16,2.16,0,0,0-.31-1.23,1.58,1.58,0,0,0-.83-.65A10.61,10.61,0,0,0,19.76,3H17.67Z"/><path d="M28.54,16.35V.27h9.78V3H31.19V6.56h6.62V9.27H31.19v4.36h7.37v2.72Z"/><path d="M52.93,16.35H50l-1.15-3.64H43.61l-1.09,3.64H39.69L44.83.27h2.82ZM48,10,46.21,4l-1.78,6Z"/><path d="M56.17,16.35V3H52.26V.27H62.73V3H58.82V16.35Z"/><path d="M71.9,16.35,68.74.27h2.73l2,11.05,2.41-11H79l2.31,11.24,2-11.24h2.67l-3.2,16.08H80l-2.64-12-2.61,12Z"/><path d="M87.64,16.35V.27h2.65V6.6h5.23V.27h2.66V16.35H95.52v-7H90.29v7Z"/><path d="M101.07,16.35V.27h2.65V16.35Z"/><path d="M109.46,16.35V3h-3.91V.27H116V3h-3.9V16.35Z"/><path d="M118,16.35V.27h9.78V3h-7.13V6.56h6.62V9.27h-6.62v4.36H128v2.72Z"/><path d="M97.13,43.7,97,43.54l-.17-.18L96.47,43c-1-1-2.06-1.88-3.11-2.79-2.12-1.81-4.29-3.59-6.44-5.37-1.08-.89-2.16-1.78-3.27-2.6S81.32,30.7,80.13,30l-3.57-2.2C75.38,27,74.18,26.32,73,25.54a5.64,5.64,0,0,1-.93.67,11.09,11.09,0,0,1-1,.5,3.36,3.36,0,0,1-1.11.36,3.2,3.2,0,0,1-.69,0,3.4,3.4,0,0,0-.81.84,3.77,3.77,0,0,0-.34.63,3.27,3.27,0,0,1,.44,0,7.9,7.9,0,0,1,1.09,0,10.41,10.41,0,0,1,2.13.41,8.24,8.24,0,0,1,1,.38l1,.41,1.94.78c1.3.54,2.58,1.11,3.84,1.74.63.31,1.25.64,1.86,1,.31.18.6.38.9.58l.85.59c2.32,1.54,4.65,3.09,7,4.66,1.15.78,2.29,1.58,3.42,2.41.56.41,1.12.83,1.66,1.27.27.22.54.45.79.68l.25.26a1,1,0,0,1,.46.09,3.12,3.12,0,0,1,.49.62A1,1,0,0,0,97.13,43.7Zm-2-.9c-.56-.41-1.14-.8-1.71-1.19-1.16-.77-2.34-1.53-3.51-2.28-2.35-1.5-4.74-2.94-7.08-4.46a35.7,35.7,0,0,0-7.4-3.74l-1.94-.79-1-.41a8.26,8.26,0,0,0-.94-.36,12,12,0,0,0-2-.39,8.37,8.37,0,0,0-1-.05,3.58,3.58,0,0,0-.92.13l-.76.27.2-.43a2.39,2.39,0,0,0-1.06.21,2.15,2.15,0,0,0-1,.93,1.38,1.38,0,0,0,0,1.2,8.67,8.67,0,0,0,.62,1.31c.24.43.5.86.77,1.27s.53.85.8,1.27l.06.08q0-.18-.06-.39a1,1,0,0,1,.44-1,1.07,1.07,0,0,1,.5-.17l.47-.06c.62,0,1.23,0,1.82,0a10.62,10.62,0,0,0,1.78-.17h.08c1.06.33,2.08.72,3.11,1.12l3.06,1.21c2,.83,4,1.7,6,2.6s4,1.8,6,2.8c.25.13.5.26.74.4s.45.26.69.38c.49.23,1,.43,1.49.63s1,.37,1.53.54.75.24,1.11.34l-.19-.19C95.67,43.22,95.39,43,95.11,42.8ZM77,53.63l-.16-.42c-.09-.28-.22-.58-.33-.87-.24-.58-.49-1.16-.73-1.73a62.44,62.44,0,0,0-3.41-6.73c-.63-1.08-1.31-2.15-2-3.23l-1-1.61-.49-.81-.26-.4a.47.47,0,0,1-.05-.1l0,0-.26-.28-.5-.57q-.51-.59-1-1.17c-.31-.4-.6-.82-.9-1.24s-.54-.87-.79-1.32a8.87,8.87,0,0,1-.61-1.45,3.6,3.6,0,0,1-.14-.82,1.85,1.85,0,0,1,0-.46,1.05,1.05,0,0,1,.22-.42A2.35,2.35,0,0,1,65.94,29a12.29,12.29,0,0,1,1.3-.18,7.93,7.93,0,0,1,.7-1.31,3.61,3.61,0,0,1,.64-.71,5,5,0,0,1-1.41-.76,3.36,3.36,0,0,1-.73-.82,2.85,2.85,0,0,1-.36-1.05l0-.24.24,0a4.75,4.75,0,0,0,1.46-.2c.5-.11,1-.23,1.51-.3a5.91,5.91,0,0,1,1.57-.07,2.86,2.86,0,0,1,.76.21l.14.07a6.65,6.65,0,0,0-1-.84,7.19,7.19,0,0,0-2.88-1.2,7.94,7.94,0,0,0-3.11,0A7.26,7.26,0,0,0,61.93,23a7.15,7.15,0,0,0-2,2.34,4.3,4.3,0,0,0-.55,2.91,27.61,27.61,0,0,0,2,5.94,27,27,0,0,0,3.26,5.34,35.24,35.24,0,0,1,3.7,5.21,13.75,13.75,0,0,1,1.19,3c.27,1,.46,2.08.64,3.13a10,10,0,0,1,.12,3.29,3.13,3.13,0,0,1-.78,1.64,3.08,3.08,0,0,1-1.65.84l-.2,0-.19-.16a3.24,3.24,0,0,0-1.82-.69,5.44,5.44,0,0,0-2.09.26c-1.48.39-2.94.77-4.4,1.21s-2.89.91-4.29,1.48A13.08,13.08,0,0,0,51,60.91h0L51,61h0c-1.61.87-3.22,1.61-4.82,2.43-.79.4-1.59.81-2.34,1.26s-1.47,1-2.17,1.54a18.74,18.74,0,0,0-3.76,3.68,10.13,10.13,0,0,0-1.28,2.27c-.31.73-.58,1.47-.82,2.22.11-.15.22-.3.34-.44A11.43,11.43,0,0,1,37,73c.65-.57,1.32-1.1,2-1.6l.45-.32.09.61a1,1,0,0,0,.34.48,4.09,4.09,0,0,0,.67.44,9.9,9.9,0,0,0,1.56.67,16.34,16.34,0,0,0,3.35.74A5.66,5.66,0,0,0,47.13,74l.36-.11.18-.07.21-.09a9.11,9.11,0,0,1,.86-.35,22,22,0,0,1,3.55-.83L55.84,72a14.51,14.51,0,0,0,3.27-1.22,27.67,27.67,0,0,0,3.08-1.66,14.15,14.15,0,0,0,1.42-1,5.45,5.45,0,0,0,1.17-1.27l.09,0A4,4,0,0,1,64,68.4a9.44,9.44,0,0,1-1.35,1.25,14.6,14.6,0,0,1-3.14,1.86,11.49,11.49,0,0,1-1.74.59,10.26,10.26,0,0,1-1.83.29,17.53,17.53,0,0,0-3.54.47A17.29,17.29,0,0,0,49,74.06l-.78.38-.19.11-.23.11a4.09,4.09,0,0,1-.49.18,6.64,6.64,0,0,1-1.92.17,11.18,11.18,0,0,1-3.63-.79,8.63,8.63,0,0,1-1.69-.85,4.31,4.31,0,0,1-.76-.62,2.53,2.53,0,0,1-.35-.51c-.58.35-1.15.72-1.7,1.12a12.58,12.58,0,0,0-1,.78,4.26,4.26,0,0,0-.73.8c-.48,1.6-.82,3.24-1.18,4.89S33.55,83.3,33.18,85c-.17.87-.34,1.74-.45,2.62a8.25,8.25,0,0,0,0,1.31,1.68,1.68,0,0,0,.39,1.12.76.76,0,0,0,.49.18,1.34,1.34,0,0,0,.53-.27,4.63,4.63,0,0,0,.88-.94A11.62,11.62,0,0,0,35.68,88c.11-.19.21-.38.31-.58s.08-.2.12-.29a.42.42,0,0,1,.23-.28.26.26,0,0,1,.1.2.39.39,0,0,1,0,.18c0,.1-.08.21-.13.32a4.27,4.27,0,0,1-.29.61c-.06.12-.13.22-.19.32h0l.45-.14c.3-.1.6-.21.89-.33.59-.23,1.18-.48,1.76-.73,1.16-.51,2.31-1,3.47-1.59s2.3-1.09,3.44-1.65l1.7-.84c.56-.28,1.17-.58,1.65-.87l.09-.06h.11a8.72,8.72,0,0,0,2.12-.61,15.86,15.86,0,0,0,2-1,10.71,10.71,0,0,0,1.79-1.34,6,6,0,0,0,1.3-1.68l.1-.22.24-.06a8.88,8.88,0,0,0,2.44-1.12,26.94,26.94,0,0,0,2.34-1.54c1.53-1.1,3-2.29,4.43-3.53l0,0,0,0a1.37,1.37,0,0,0,.35-.31,3.73,3.73,0,0,0,.36-.43c.23-.3.46-.62.67-.94.43-.65.84-1.31,1.23-2a30,30,0,0,0,2.09-4.16,2.94,2.94,0,0,0-.1-2.16,17.48,17.48,0,0,0-1-2.08,1.21,1.21,0,0,0-1-.37,5.65,5.65,0,0,0-1.16.13,15.09,15.09,0,0,0-2.27.66,16,16,0,0,1,2.24-.78,5.9,5.9,0,0,1,1.19-.18,2.66,2.66,0,0,1,.62.06,1,1,0,0,1,.55.34,18.46,18.46,0,0,1,1.17,2.08,4.36,4.36,0,0,1,.32,1.19,2.8,2.8,0,0,1-.12,1.25,31.84,31.84,0,0,1-2,4.32c-.37.7-.76,1.39-1.18,2.06-.22.34-.44.67-.68,1a5.57,5.57,0,0,1-.39.49,2.42,2.42,0,0,1-.46.43c-1.41,1.29-2.86,2.52-4.39,3.69-.76.58-1.55,1.14-2.37,1.65a11.06,11.06,0,0,1-2.5,1.18A6.75,6.75,0,0,1,56,80a10.94,10.94,0,0,1-2,1.43,13.61,13.61,0,0,1-2.19,1,9.08,9.08,0,0,1-2.31.56c-.58.32-1.1.56-1.65.83l-1.73.81-3.51,1.54c-1.17.5-2.36,1-3.55,1.44l-1.45.53A26,26,0,0,1,36,90.7l-.09.13c1.42-.31,2.8-.7,4.2-1,.82-.22,1.66-.42,2.46-.61a15.28,15.28,0,0,0,2.21-1c.75-.39,1.5-.78,2.28-1.16.39-.18.79-.35,1.22-.5a4.07,4.07,0,0,1,.69-.18l.32,0,.3,0c.81-.14,1.66-.34,2.53-.41a4.14,4.14,0,0,1,2.28.38c-.06-.35-.11-.69-.16-1a18.06,18.06,0,0,1-.19-2.42,19.77,19.77,0,0,0,.33,2.4c.07.39.15.78.24,1.18h0a5.29,5.29,0,0,0,.32,1,17.42,17.42,0,0,1,3.15-.07A7.52,7.52,0,0,1,59.69,84a5.23,5.23,0,0,1,.72-.69c.23-.19.47-.4.7-.61.46-.43.93-.87,1.42-1.28A8.35,8.35,0,0,1,66,79.51a5.24,5.24,0,0,0,1.62-.7,12.73,12.73,0,0,0,1.5-1.06,19,19,0,0,0,2.61-2.62,6.62,6.62,0,0,0,.53-.72c.08-.13.15-.25.21-.37l.21-.43c.29-.58.58-1.13.88-1.69.59-1.11,1.16-2.23,1.67-3.37a18.27,18.27,0,0,0,1.27-3.46,7.8,7.8,0,0,0,.17-.89l.15-.94.29-1.86a31.08,31.08,0,0,0,.36-3.7,13,13,0,0,0-.39-3.63ZM70.81,23.57a5.41,5.41,0,0,0-1.5.13c-.5.1-1,.24-1.49.38a6.65,6.65,0,0,1-1.3.25,2.41,2.41,0,0,0,1,1.33,4.88,4.88,0,0,0,1.79.75l.26.05.3-.1a9.19,9.19,0,0,1,1.07-.2c.35-.07.71-.17,1.07-.28a7.44,7.44,0,0,0,1-.4l-.16-.38-.1-.2,0-.1s0,0,0,0c-.21-.27-.42-.55-.65-.81a3.13,3.13,0,0,0-.48-.25A2.26,2.26,0,0,0,70.81,23.57ZM69,25.78a.73.73,0,1,1,0-1.45.73.73,0,1,1,0,1.45ZM64.52,103c-1.77-.36-3.55.88-5.33.49l-.29-.06,0-.27-.79-7.07c-.23-2.36-.5-4.71-.71-7.08h0a4.18,4.18,0,0,1,.14-.8c0-.13.07-.27.11-.4a.67.67,0,0,0,.06-.15,17,17,0,0,0-2.57,0,.65.65,0,0,1,0,.28c0,.13-.07.25-.1.38a7.18,7.18,0,0,1-.27.73c1.22,4.52,1.8,11.79,2,14.5a2,2,0,0,0,1,1.6c1.91,1.07,6.09,1.73,6.67,1.11.22-.23-1.54-1.24-1.54-1.24s2.91.81,3.08.59-1.64-1.42-1.25-1.47,1.94.61,2.3.51a2.37,2.37,0,0,0,1.32-.41Zm-8.91-.28a3.68,3.68,0,0,1-.8.08,3.59,3.59,0,0,1-.65-.07,2.69,2.69,0,0,1-.62-.16l-.32-.12,0-.23c-.28-2.36-.56-6.4-1.25-13.21h0v0a4.2,4.2,0,0,1,.25-.94,3.3,3.3,0,0,1,.19-.43l-.54.06-.85.11a9.56,9.56,0,0,1-1.52,0c0,.39-.07.79-.12,1.18.26,1.29,1.08,6.51,1.24,7.83.14,1.13.3,4.17.46,6.06a2,2,0,0,0,.6,1.27l.86.86,1,1a1.44,1.44,0,0,0,1,.43c1.53,0,2.2-.29,3.39-.33a4.53,4.53,0,0,1-1.42-1.43A4.14,4.14,0,0,1,55.61,102.76ZM52.49,87.09a1.58,1.58,0,0,1,.09-.42,1.48,1.48,0,0,1,.21-.44l-.59.11c-.81.18-1.59.46-2.44.68l-.15,0a1.21,1.21,0,0,1,0,.18.59.59,0,0,0,0,.14,10.7,10.7,0,0,1,1.37-.27A5.56,5.56,0,0,1,52.49,87.09Zm-3,.29a1,1,0,0,0,0-.14s0,.09,0,.14Zm-12.24.89c-.3.11-.61.21-.92.29a4.05,4.05,0,0,1-.47.12l-.25,0h0c-.12.18-.24.36-.37.53a5.29,5.29,0,0,1-1,1,1.57,1.57,0,0,1-.68.31,1,1,0,0,1-.74-.24,1.49,1.49,0,0,1-.42-.8c-.36.47-.67,1-1,1.47l-.65,1.06.56-.15,1-.27-.57.89c-.28.44-.56.88-.81,1.32a2.26,2.26,0,0,0-.11.22H31l.16-.07.33-.17a6.58,6.58,0,0,0,.63-.38,10.34,10.34,0,0,0,1.19-.93c.76-.68,1.48-1.43,2.2-2.2s1.32-1.43,2-2.13Z"/></svg>