<svg id="Layer_1" data-name="Layer 1" xmlns="http://www.w3.org/2000/svg" width="128" height="128" viewBox="0 0 128 128"><title>Artboard 53</title><path d="M26.36,10.37V7.67h5.69V14a7,7,0,0,1-2.44,1.74,7.4,7.4,0,0,1-3.16.73A6.19,6.19,0,0,1,23,15.55a6.52,6.52,0,0,1-2.35-2.85,10.83,10.83,0,0,1-.86-4.47,10.64,10.64,0,0,1,.87-4.51A6.58,6.58,0,0,1,23,.93,5.91,5.91,0,0,1,26.32,0a5.61,5.61,0,0,1,3.74,1.19,5.7,5.7,0,0,1,1.82,3.5l-2.62.6a3.33,3.33,0,0,0-1.07-1.88,2.83,2.83,0,0,0-1.87-.66,3.35,3.35,0,0,0-2.74,1.31,6.42,6.42,0,0,0-1,4,7.23,7.23,0,0,0,1.13,4.39,3.12,3.12,0,0,0,2.62,1.3,3.91,3.91,0,0,0,1.61-.37,4.93,4.93,0,0,0,1.48-1v-2Z"/><path d="M34.72,16.23V.27h5.56a7.68,7.68,0,0,1,3,.43,3.42,3.42,0,0,1,1.5,1.49,5.1,5.1,0,0,1,.59,2.54,4.74,4.74,0,0,1-.9,3A4,4,0,0,1,42,9.19a6.44,6.44,0,0,1,1.41,1.33,18.91,18.91,0,0,1,1.51,2.6l1.59,3.11H43.33l-1.92-3.47A20.12,20.12,0,0,0,40,10.4a2,2,0,0,0-.78-.65,3.6,3.6,0,0,0-1.33-.18h-.54v6.66ZM37.36,7h2a9.43,9.43,0,0,0,2.28-.16,1.49,1.49,0,0,0,.8-.63A2.4,2.4,0,0,0,42.7,5a2.2,2.2,0,0,0-.3-1.22,1.6,1.6,0,0,0-.83-.64A10.48,10.48,0,0,0,39.42,3H37.36Z"/><path d="M48.14,16.23V.27h9.71V3H50.77V6.51h6.57V9.2H50.77v4.33h7.31v2.7Z"/><path d="M72.35,16.23H69.48l-1.14-3.62H63.1L62,16.23H59.21l5.1-16H67.1ZM67.49,9.92,65.68,4,63.91,9.92Z"/><path d="M75.56,16.23V3H71.68V.27H82.07V3H78.2V16.23Z"/><path d="M84,16.23V.27h9.71V3H86.65V6.51h6.57V9.2H86.65v4.33H94v2.7Z"/><path d="M96.43,16.23V.27H102A7.71,7.71,0,0,1,105,.7a3.42,3.42,0,0,1,1.5,1.49,5.21,5.21,0,0,1,.59,2.54,4.74,4.74,0,0,1-.9,3,4,4,0,0,1-2.55,1.44,6.61,6.61,0,0,1,1.4,1.33,17.91,17.91,0,0,1,1.51,2.6l1.59,3.11H105l-1.91-3.47a23.62,23.62,0,0,0-1.4-2.36,2,2,0,0,0-.79-.65,3.5,3.5,0,0,0-1.32-.18h-.55v6.66ZM99.06,7h2a9.53,9.53,0,0,0,2.29-.16,1.47,1.47,0,0,0,.79-.63A2.4,2.4,0,0,0,104.41,5a2.2,2.2,0,0,0-.31-1.22,1.56,1.56,0,0,0-.83-.64A10.35,10.35,0,0,0,101.13,3H99.06Z"/><path d="M32.93,127.73v-16h9.71v2.7H35.57V118h6.57v2.69H35.57V125h7.31v2.7Z"/><path d="M51.43,121.87v-2.7h5.69v6.36a7,7,0,0,1-2.44,1.74,7.4,7.4,0,0,1-3.16.73,6.21,6.21,0,0,1-3.42-1,6.52,6.52,0,0,1-2.35-2.85,10.83,10.83,0,0,1-.86-4.47,10.64,10.64,0,0,1,.87-4.51A6.58,6.58,0,0,1,48,112.43a5.91,5.91,0,0,1,3.35-.93A5.14,5.14,0,0,1,57,116.19l-2.61.6a3.4,3.4,0,0,0-1.08-1.88,2.81,2.81,0,0,0-1.87-.66,3.35,3.35,0,0,0-2.74,1.31,6.42,6.42,0,0,0-1,4A7.23,7.23,0,0,0,48.74,124a3.12,3.12,0,0,0,2.62,1.3,3.91,3.91,0,0,0,1.61-.37,5.1,5.1,0,0,0,1.49-1v-2Z"/><path d="M59.79,127.73v-16h5.56a7.68,7.68,0,0,1,3.05.43,3.42,3.42,0,0,1,1.5,1.49,5.1,5.1,0,0,1,.59,2.54,4.74,4.74,0,0,1-.9,3A4,4,0,0,1,67,120.69,6.44,6.44,0,0,1,68.45,122a18.91,18.91,0,0,1,1.51,2.6l1.59,3.11H68.4l-1.92-3.47a20.12,20.12,0,0,0-1.4-2.36,2,2,0,0,0-.78-.65,3.6,3.6,0,0,0-1.33-.18h-.54v6.66Zm2.64-9.21h2a9.43,9.43,0,0,0,2.28-.16,1.49,1.49,0,0,0,.8-.63,2.4,2.4,0,0,0,.3-1.28,2.2,2.2,0,0,0-.3-1.22,1.6,1.6,0,0,0-.83-.64,10.48,10.48,0,0,0-2.15-.12H62.43Z"/><path d="M73.21,127.73v-16h9.71v2.7H75.84V118h6.58v2.69H75.84V125h7.32v2.7Z"/><path d="M88.56,127.73V114.47H84.67v-2.7h10.4v2.7H91.19v13.26Z"/><path d="M57.66,105a14.42,14.42,0,0,1-2.56-.31c0-.06-1.21-4.75-1.21-4.75l-1.28-5.25q-.63-2.62-1.22-5.26l-.56-2.64c-.17-.9-.36-1.75-.46-2.7V84l.07-.11a2.32,2.32,0,0,0,.33-.82,5.05,5.05,0,0,0,.14-1c.05-.66,0-1.33,0-2,0-.17,0-.34,0-.53a2,2,0,0,1,0-.32l.08-.24.33-1,.64-2,1.33-3.87L54,70.27l.34-1a3,3,0,0,1,.15-.38L54,68.68l-.58-.25a2.92,2.92,0,0,1-.13.42l-.25.71L52.5,71c-.34.94-.65,1.89-1,2.83l-1,2.83c-.36.93-.71,1.87-1.08,2.8v0l0,0a3.12,3.12,0,0,0-.59,1,3.89,3.89,0,0,0-.21,1.17,5.28,5.28,0,0,0,.11,1.19A6.35,6.35,0,0,0,49,84v0l2.42,10.52,1.16,5.27.55,2.64.28,1.32.24,1.22a23.67,23.67,0,0,0-2.75.79c-.14.15.14.66.14.66l3.69-.53,5.55.55-.21-.84a.57.57,0,0,0-.49-.44Z"/><path d="M54.07,65.56l-.12.29c-.15.37-.31.75-.47,1.12l-.25.56,0,.11,1,.4,1,.4c.12-.5.25-1,.39-1.49v0h0a3.2,3.2,0,0,1,1.79-1.85l.3-.1a1.14,1.14,0,0,0,.26-.09,2,2,0,0,0,.48-.29c.22-.17.44-.37.67-.55v0l0-.05h-.23c-.69,0-1.38,0-2.06,0s-1.37-.07-2.06-.13l-.62-.07c0,.27,0,.55,0,.82s0,.41,0,.63A1.51,1.51,0,0,1,54.07,65.56Z"/><path d="M26.19,57.83a2.69,2.69,0,0,0,.84.29c.33.06.67.08,1,.11a5.6,5.6,0,0,0,1-.72l-.88.28-.52.17.08-.54a4.25,4.25,0,0,1,.23-.87c.1-.27.22-.52.34-.78l.15-.29a6,6,0,0,1-.65.37,7.78,7.78,0,0,1-1,.44l-.14.05a.64.64,0,0,1,.13.44,1.41,1.41,0,0,1-.18.51A4.77,4.77,0,0,1,26.19,57.83Z"/><path d="M87.16,25.08a2,2,0,0,0,1.11-1.26h0a24.1,24.1,0,0,0-4.53-2,7.74,7.74,0,0,0-1.23-.27,4.69,4.69,0,0,0-1.24.05,8.9,8.9,0,0,0-2.4.79,9.13,9.13,0,0,0-1.1.62,4.49,4.49,0,0,0-.49.37,3.43,3.43,0,0,0-.42.43,10.58,10.58,0,0,0-1.31,2.14,13.08,13.08,0,0,0-1.28,4.87,9.18,9.18,0,0,0,.23,2.5,8.77,8.77,0,0,0,.86,2.34A6.17,6.17,0,0,0,77,37.52a6,6,0,0,0,1.06.64,11.07,11.07,0,0,1,1.19.6,1.2,1.2,0,0,1,.5.6,1.18,1.18,0,0,1-.06.78c-.15.41-.32.82-.49,1.22a17.15,17.15,0,0,1-1.21,2.33,3.49,3.49,0,0,1-.41.54c-.14.16-.3.32-.45.48l-.92.91c-.32.31-.63.6-1,.89l-.5.41-.27.2a.53.53,0,0,1-.21.11c0,.46,0,.92,0,1.38-.11-.6-.11-1.22-.16-1.82A7.61,7.61,0,0,0,73.68,45a5.08,5.08,0,0,0-.86-1.56,11.74,11.74,0,0,0-1.18-1.36,6.87,6.87,0,0,0-3-1.78,6.38,6.38,0,0,0-1.76-.2c-.6,0-1.21,0-1.81,0a14,14,0,0,0-3.55.41l-.88.25-.9.21c-.61.13-1.21.23-1.81.33-1.2.2-2.4.38-3.54.69s-2.29.76-3.42,1.19-2.25.89-3.36,1.37c-.55.24-1.1.5-1.62.78a4.71,4.71,0,0,0-.73.44l-.7.57a33.73,33.73,0,0,1-2.93,2.23A14.39,14.39,0,0,1,40,49.5a12.85,12.85,0,0,1-1.75.67,7.26,7.26,0,0,1-1.86.33l-.92,0a2.87,2.87,0,0,0-.83.11,5.17,5.17,0,0,0-1.55.79c-.24.17-.48.36-.75.53s-.53.32-.8.47c-.54.29-1.08.57-1.64.83l-.83.38a7.55,7.55,0,0,0-.81.39,9.22,9.22,0,0,0-1.45,1,6.25,6.25,0,0,0-.62.64,2.06,2.06,0,0,0-.35.63,4.2,4.2,0,0,0,.92-.2,7.52,7.52,0,0,0,1-.39c.27-.12.52-.25.78-.39a2.26,2.26,0,0,1,.23-.34,3.12,3.12,0,0,1,.65-.61,7.23,7.23,0,0,1,1.47-.79A15.37,15.37,0,0,0,32.39,53a7.11,7.11,0,0,1-1.32,1,11.36,11.36,0,0,0-1.28.93,2.81,2.81,0,0,0-.5.54,4.53,4.53,0,0,0-.35.66,7.33,7.33,0,0,0-.3.72l-.06.17.49-.14,1-.27,1.13-.94.59-.5a5.83,5.83,0,0,0,.56-.55,6.18,6.18,0,0,1-.89,1.31c-.34.4-.7.78-1.07,1.16l0,0-.08,0-1.05.36a3.4,3.4,0,0,1-.38.47,7.63,7.63,0,0,1-.8.69,9.07,9.07,0,0,1-.89.58L27,59.3a2.94,2.94,0,0,0,1.52.42,9.09,9.09,0,0,0,.92-.27l1-.31,2-.58c.64-.2,1.27-.47,1.91-.73,1.26-.54,2.5-1.13,3.78-1.68A29.46,29.46,0,0,1,35.22,58l1,.24c.45.11.9.23,1.35.3a2.46,2.46,0,0,0,1.29-.16,9.87,9.87,0,0,0,1.21-.62l1-.57-.74.85c-.17.19-.26.41-.18.54a.85.85,0,0,0,.52.37,5,5,0,0,0,1.55.23,10.23,10.23,0,0,0,3.16-.49l.18-.06.19.48s0,0,0,0h0l0,0a1,1,0,0,0,.33.16,5.18,5.18,0,0,0,.89.16,13.09,13.09,0,0,0,1.88,0,14.85,14.85,0,0,0,1.88-.23,7.13,7.13,0,0,0,1.75-.54l1.13-.55-.67,1a3.19,3.19,0,0,0,.45,0,9.38,9.38,0,0,0,1.27-.12,16.79,16.79,0,0,0,2.51-.64,16.31,16.31,0,0,0,4.63-2.35l1.84-1.36-1.47,1.74a3.92,3.92,0,0,0-.62.9c-.07.15-.07.3,0,.32s.18.1.34.08a3.58,3.58,0,0,0,1.06-.29,11,11,0,0,0,1-.52,14.16,14.16,0,0,0,3.53-3,12.45,12.45,0,0,1-1.53,1.8,13.35,13.35,0,0,1-1.83,1.51,8.19,8.19,0,0,1-1,.59,3.89,3.89,0,0,1-1.18.38,1.47,1.47,0,0,1-.36,0,.64.64,0,0,1-.38-.21.48.48,0,0,1-.12-.22.86.86,0,0,1,0-.22l0-.19,0-.08a13,13,0,0,1-1.2.71,17.49,17.49,0,0,1-5.09,1.77,10.24,10.24,0,0,1-1.38.14,2.53,2.53,0,0,1-.75-.08.68.68,0,0,1-.24-.1.42.42,0,0,1-.17-.16,11.25,11.25,0,0,1-1.38.37,14.51,14.51,0,0,1-2,.22,12.06,12.06,0,0,1-2,0,6.26,6.26,0,0,1-1-.21,1.77,1.77,0,0,1-.53-.27.79.79,0,0,1-.21-.28,9.91,9.91,0,0,1-3,.32,5.05,5.05,0,0,1-1.69-.32,1.28,1.28,0,0,1-.74-.63.74.74,0,0,1,0-.39,6.07,6.07,0,0,1-.74.31,2.77,2.77,0,0,1-1.43.08c-.46-.1-.9-.25-1.34-.39l-1-.33c-.21.12-.42.24-.64.35a16,16,0,0,1-1.93.86c-.34.12-.68.22-1,.32l-1,.31-.94.27a2.67,2.67,0,0,0,.64.08c.47,0,.94,0,1.41-.05.94-.07,1.88-.16,2.83-.21l.36,0-.22.3a.35.35,0,0,0-.06.09s0,0,0,0a.44.44,0,0,0,.22.12,3.93,3.93,0,0,0,.7.11,14.44,14.44,0,0,0,1.47,0c.49,0,1-.09,1.47-.15a7.37,7.37,0,0,0,1.4-.3l.16-.06.14.12a2,2,0,0,0,.63.36,5.91,5.91,0,0,0,.74.27c.52.16,1,.3,1.58.43l1.6.38a7.43,7.43,0,0,0,1.56.31,14.06,14.06,0,0,1,1.67.2,10.88,10.88,0,0,1,1.63.45,8.58,8.58,0,0,0,1.55.39,12,12,0,0,0,1.6.12h0c.66.12,1.34.2,2,.28s1.35.13,2,.18,1.36.08,2,.1c.34,0,.68,0,1,0l.49,0a1.67,1.67,0,0,1,.39,0l.15-.17a6.13,6.13,0,0,0,.38-.51,2,2,0,0,0,.3-.55,2.14,2.14,0,0,1-.21.6,5.18,5.18,0,0,1-.31.57q-.2.32-.42.63c.57-.19,1.13-.39,1.67-.61.36-.15.7-.31,1-.48a5.36,5.36,0,0,0,.92-.59,13.4,13.4,0,0,0,1.57-1.62c.25-.29.51-.59.8-.88a7.87,7.87,0,0,1,.92-.76,7.51,7.51,0,0,0,1.59-1.54,11.25,11.25,0,0,0,.61-1,9.55,9.55,0,0,1,.7-1A11.9,11.9,0,0,1,72.18,54a7.2,7.2,0,0,1,2-1.2,8.65,8.65,0,0,0-1.8,1.43A14.24,14.24,0,0,0,70.91,56a7.51,7.51,0,0,0-.6.95c-.18.34-.38.7-.6,1a7,7,0,0,1-.78.94l-.07.07,0,.34a4.58,4.58,0,0,0,.07,1.41,1.59,1.59,0,0,0,.1.33.72.72,0,0,0,.21.25.83.83,0,0,0,.62.2,2.62,2.62,0,0,0,.67-.22,9.62,9.62,0,0,0,1.34-.63,18,18,0,0,0,4.54-3.77,29.46,29.46,0,0,0,1.88-2.3,25.61,25.61,0,0,0,1.55-2.51c.48-.87.94-1.76,1.38-2.65s.87-1.79,1.27-2.69c.75-1.81,1.46-3.7,2.13-5.57l.25-.7.11-.35.09-.33a7.56,7.56,0,0,0,.15-1.44,11.24,11.24,0,0,0-.32-2.89,3.35,3.35,0,0,0-.58-1.25,1.62,1.62,0,0,0-1.2-.46c-.48,0-1,0-1.5-.09a3.46,3.46,0,0,1-1.48-.46,2.27,2.27,0,0,1-1-1.2A3.75,3.75,0,0,1,79,30.48a4.12,4.12,0,0,1,.54-1.43,5.16,5.16,0,0,1,.4-.63c.09-.13.19-.26.29-.38h0a.86.86,0,0,1-.29-.19,2,2,0,0,1-.44-.49,3.07,3.07,0,0,0,.51.38.77.77,0,0,0,.28.12.63.63,0,0,0,.27,0l1.24-.32A10.51,10.51,0,0,1,83,27.27a2.31,2.31,0,0,1,.38,0l.3,0c.2,0,.41,0,.62,0a12.09,12.09,0,0,0,2.47-.38l.25-.1a1.12,1.12,0,0,1,.37-.14,2.54,2.54,0,0,1,.68,0l.65.1c.14,0,.28,0,.42.09C89.05,26.44,87.37,25.17,87.16,25.08Zm-4.37-.47a.71.71,0,1,1,.71-.71A.7.7,0,0,1,82.79,24.61Z"/><path d="M96.23,27.45c-2.19-.51-4.38-1-6.55-1.71a60.11,60.11,0,0,1,6.67,1.2c1.1.26,2.2.53,3.28.86.35.1,2.2.74,2.55.85-.41-.19-2.34-.9-2.76-1.07-1.18-.5-2.39-.94-3.6-1.38s-2.44-.79-3.67-1.15-2.45-.71-3.67-1.1a2,2,0,0,1-.46.8,1.27,1.27,0,0,1-.39.26.8.8,0,0,1-.33.08,1.82,1.82,0,0,1,.55.2,4.9,4.9,0,0,1,.62.38,2.08,2.08,0,0,1,.84,1.13c.81.09,1.62.16,2.43.23l2.47.21h0c.7.18,1.44.32,2.17.46l2.21.54c.64.11,2.79.56,3.48.67-.44-.11-2.24-.63-2.58-.71C98.43,28,97.33,27.7,96.23,27.45Z"/><path d="M62,83.9l0-.11a5.2,5.2,0,0,0-.14-2,3.89,3.89,0,0,0-1-2s-.16-.84-.16-.84l-.14-1-.27-2.07c-.18-1.38-.38-2.76-.6-4.13-.11-.69-.22-1.37-.35-2.06-.09-.51-.22-1-.31-1.53-.21.13-.44.25-.66.36a4.34,4.34,0,0,1-.87.33h0A6.14,6.14,0,0,1,57.7,70l.88,4.25c.29,1.4.8,3.94,1.05,5.17a1.37,1.37,0,0,1-.2,1.06,1.69,1.69,0,0,0-.17,1.6,3.89,3.89,0,0,0,1.4,1.84l9.09,19.34a14.43,14.43,0,0,0-2.65.71c-.16.22.24.75.24.75l3.46-.8s4.55.71,6.17.94v-.77a.72.72,0,0,0-.62-.72l-5.16-.71S62.71,85.49,62,83.9Z"/><path d="M57.24,68.25A6.06,6.06,0,0,0,58,67.9l.73-.43.35-.23.1,0h0a.14.14,0,0,0,0-.06l-.07-.21-.14-.41a6.87,6.87,0,0,1-.24-.87v-.08c.1-.44.22-.88.35-1.31l-.43.54a2.52,2.52,0,0,1-.49.42l-.3.14-.25.13a2.75,2.75,0,0,0-.85.7,3,3,0,0,0-.4.67c.11.12.22.24.33.38a2.13,2.13,0,0,1,.43.83,1.05,1.05,0,0,1,.06.24h0Z"/><path d="M57.14,68.33h0v0Z"/></svg>