<svg id="Layer_1" data-name="Layer 1" xmlns="http://www.w3.org/2000/svg" width="128" height="128" viewBox="0 0 128 128"><title>Artboard 56</title><path d="M9.43,121.87v-2.7h5.69v6.36a7.08,7.08,0,0,1-2.44,1.74,7.44,7.44,0,0,1-3.17.73,6.18,6.18,0,0,1-3.41-1,6.52,6.52,0,0,1-2.35-2.85,12.09,12.09,0,0,1,0-9A6.51,6.51,0,0,1,6,112.43a5.87,5.87,0,0,1,3.34-.93,5.64,5.64,0,0,1,3.75,1.19,5.64,5.64,0,0,1,1.81,3.5l-2.61.6a3.29,3.29,0,0,0-1.08-1.88,2.79,2.79,0,0,0-1.87-.66,3.33,3.33,0,0,0-2.73,1.32,6.3,6.3,0,0,0-1,4A7.17,7.17,0,0,0,6.74,124a3.11,3.11,0,0,0,2.62,1.3,3.91,3.91,0,0,0,1.61-.37,4.93,4.93,0,0,0,1.48-1v-2Z"/><path d="M17.79,127.73v-16h5.56a7.71,7.71,0,0,1,3,.43,3.42,3.42,0,0,1,1.5,1.49,5.21,5.21,0,0,1,.59,2.54,4.74,4.74,0,0,1-.9,3A4,4,0,0,1,25,120.69a6.38,6.38,0,0,1,1.4,1.33,18.7,18.7,0,0,1,1.52,2.6l1.59,3.11H26.39l-1.91-3.47a22.85,22.85,0,0,0-1.4-2.36,2.08,2.08,0,0,0-.78-.65,3.6,3.6,0,0,0-1.33-.18h-.55v6.66Zm2.63-9.21h2a9.53,9.53,0,0,0,2.29-.16,1.43,1.43,0,0,0,.79-.63,2.31,2.31,0,0,0,.31-1.28,2.12,2.12,0,0,0-.31-1.22,1.54,1.54,0,0,0-.82-.64,10.48,10.48,0,0,0-2.15-.12H20.42Z"/><path d="M31.2,127.73v-16h9.71v2.7H33.84V118h6.57v2.69H33.84V125h7.31v2.7Z"/><path d="M47.05,127.73V121l-4.79-9.24h3.09l3.07,6.31,3-6.31h3L49.68,121v6.7Z"/><path d="M61,127.73v-16h2.63v6.28h5.2v-6.28h2.63v16H68.85v-7h-5.2v7Z"/><path d="M74.43,127.73v-16h9.71v2.7H77.07V118h6.57v2.69H77.07V125h7.31v2.7Z"/><path d="M86.85,127.73v-16h5.56a7.71,7.71,0,0,1,3,.43,3.42,3.42,0,0,1,1.5,1.49,5.21,5.21,0,0,1,.59,2.54,4.74,4.74,0,0,1-.9,3,4,4,0,0,1-2.55,1.44A6.61,6.61,0,0,1,95.5,122a18.91,18.91,0,0,1,1.51,2.6l1.59,3.11H95.45l-1.91-3.47a25,25,0,0,0-1.4-2.36,2,2,0,0,0-.79-.65,3.5,3.5,0,0,0-1.32-.18h-.55v6.66Zm2.63-9.21h2a9.53,9.53,0,0,0,2.29-.16,1.47,1.47,0,0,0,.79-.63,2.4,2.4,0,0,0,.31-1.28,2.2,2.2,0,0,0-.31-1.22,1.56,1.56,0,0,0-.83-.64,10.35,10.35,0,0,0-2.14-.12H89.48Z"/><path d="M99.72,119.85a11.39,11.39,0,0,1,.84-4.7,6.38,6.38,0,0,1,2.21-2.75,5.8,5.8,0,0,1,3.29-.9,5.65,5.65,0,0,1,4.58,2.14,9.37,9.37,0,0,1,1.77,6.11,9.56,9.56,0,0,1-1.87,6.26,6,6,0,0,1-9,0A9.36,9.36,0,0,1,99.72,119.85Zm2.72-.11a6.78,6.78,0,0,0,1,4.13,3.12,3.12,0,0,0,5.17,0,7,7,0,0,0,1-4.2,6.87,6.87,0,0,0-1-4.1,3.24,3.24,0,0,0-5.24,0A6.93,6.93,0,0,0,102.44,119.74Z"/><path d="M114.73,127.73v-16h2.57l5.35,10.66V111.77h2.46v16h-2.65l-5.27-10.41v10.41Z"/><path d="M92,78.3c-.31-.82-.6-1.64-.88-2.46s-.55-1.64-.82-2.46l-.4-1.24-.2-.62a1.58,1.58,0,0,1-.12-.53,2.84,2.84,0,0,1-.2-.58c-.07-.28-.13-.55-.2-.84-.12-.55-.23-1.12-.33-1.68s-.18-1.15-.24-1.73v.18c0,.47-.08.93-.14,1.4s-.17.92-.25,1.38a7.43,7.43,0,0,1-.3,1,16.67,16.67,0,0,0,.46,2.6c.22.93.47,1.86.73,2.78.5,1.84,1,3.67,1.6,5.49a5.56,5.56,0,0,0,.66,1.14,1.77,1.77,0,0,0,.88.69.38.38,0,0,0,.18,0l.1,0v0l-.08-.3A6.94,6.94,0,0,1,92.1,81l-.11-1,.68.67a.75.75,0,0,0,.18.15,1,1,0,0,0,0-.1l0-.14,0-.07A22.47,22.47,0,0,1,92,78.3ZM88,72.81c-.08-.48-.16-1-.22-1.43,0-.24,0-.49-.07-.73h0a1,1,0,0,1,0,.1,2,2,0,0,1-.14.25,1.6,1.6,0,0,1-.36.47.75.75,0,0,1-.29.16.59.59,0,0,1-.37,0,1.12,1.12,0,0,1-.5-.4,7.28,7.28,0,0,1-.91-1.94,1.8,1.8,0,0,1-.84-.48,4.34,4.34,0,0,1-.64-.79c-.33-.5-.58-1-.85-1.5a3.42,3.42,0,0,1-.81-.18,4.66,4.66,0,0,1-.9-.43,3.63,3.63,0,0,1-1.3-1.31,8.09,8.09,0,0,1-1.21-.5,7.25,7.25,0,0,1-1.24-.79,7.09,7.09,0,0,1-1.81-2.12,6,6,0,0,1-.7-.28c0,.49,0,1,.08,1.47a3,3,0,0,1,.5.63l.56.79c.37.53.76,1,1.15,1.55s.8,1,1.23,1.47a6.89,6.89,0,0,0,.65.67,2,2,0,0,0,.66.42l.13,0,.09.1c.92,1.11,1.86,2.26,2.78,3.41l2.74,3.47,1.4,1.73c0,.08.09.16.15.24l.06,0a6.5,6.5,0,0,0,2.38,2.3h0c-.29-1.16-.57-2.33-.83-3.5C88.39,74.7,88.2,73.76,88,72.81Zm-2.16-2.75a4.37,4.37,0,0,0,.45,1,.87.87,0,0,0,.33.31.34.34,0,0,0,.38-.06,1.6,1.6,0,0,0,.35-.38,1.76,1.76,0,0,0,.14-.23c.06-.07.06-.17.22-.2h0a5.23,5.23,0,0,1,.2-1.38c.07-.46.17-.91.2-1.37s.08-.92.08-1.37a12.72,12.72,0,0,0,0-1.38,15.62,15.62,0,0,0-.44-2.71,25,25,0,0,0-.88-2.61l-.53-1.28c-.17-.43-.33-.93-.45-1.35-.29-.86-.64-1.73-1-2.59-.67-1.74-1.34-3.48-1.9-5.28-.13-.45-.26-.9-.37-1.36l-.3-1.36a11.66,11.66,0,0,0-1-2.5c-.42-.81-.91-1.6-1.36-2.43s-.87-1.67-1.24-2.54a29.69,29.69,0,0,0-2.45-5c-.49-.78-1-1.55-1.55-2.31l-.82-1.13L73.52,30a2.75,2.75,0,0,1-.19-.28s-.08,0-.11,0l-.13-.08-.25-.16-.49-.34c-.32-.23-.62-.49-.92-.75-.59-.52-1.13-1.11-1.71-1.62a1,1,0,0,0-.89-.38,2,2,0,0,1-.64.08,1.13,1.13,0,0,1-.62-.33,2.78,2.78,0,0,0-3-.54,1.79,1.79,0,0,0-.44.27,3.45,3.45,0,0,0-.39.38A5,5,0,0,0,62.46,28a7,7,0,0,0-.3,2.21,9.18,9.18,0,0,0,.22,2.23c.08.37.21.73.29,1.16a2.94,2.94,0,0,1,0,.66c0,.1,0,.21,0,.32l0,.29c-.07.76-.1,1.54-.12,2.31a17.21,17.21,0,0,0,.07,2.28,6.76,6.76,0,0,0,.21,1.07l.4,1.1c.54,1.46,1.08,2.92,1.67,4.36a31.56,31.56,0,0,0,2,4.2l0,.06v0a12.12,12.12,0,0,0,.46,1.89A10.5,10.5,0,0,0,68.08,54a3.93,3.93,0,0,0,1.17,1.46,1.5,1.5,0,0,0,.41.18l.48.12.47.07h0a10.57,10.57,0,0,1-.53-2.06,19.5,19.5,0,0,1-.19-2.15c0-.71,0-1.43,0-2.14.1.7.15,1.42.23,2.13a18.77,18.77,0,0,0,.35,2.1,9.83,9.83,0,0,0,.64,2,5.33,5.33,0,0,0,1.13,1.69l0,0,0,.1a3.13,3.13,0,0,0,.59,1l.19.21a4.55,4.55,0,0,1-.25-.67,9.84,9.84,0,0,1-.42-2.33,16.61,16.61,0,0,1,0-2.34,12.91,12.91,0,0,1,.36-2.31c0,.78.07,1.55.11,2.32s.06,1.53.12,2.29a18.68,18.68,0,0,0,.27,2.25,7.58,7.58,0,0,0,.38,1.36l.09.08a5.81,5.81,0,0,0,1.71,1c0-.07,0-.14-.07-.2a7.7,7.7,0,0,1-.26-2.12A12.26,12.26,0,0,1,75.33,56a10.3,10.3,0,0,1,.57-2c0,.71-.07,1.4-.1,2.09s-.07,1.37-.06,2a12.44,12.44,0,0,0,.13,2c0,.15,0,.3.08.45l.09,0,.08.15a6.58,6.58,0,0,0,1.72,2,7.41,7.41,0,0,0,1.78,1,6.77,6.77,0,0,1-.72-1.29,9.21,9.21,0,0,1-.38-1c-.09-.35-.19-.71-.25-1.08a9.08,9.08,0,0,1-.1-2.21,7.21,7.21,0,0,1,.48-2.15c0,.74,0,1.45,0,2.16a14.66,14.66,0,0,0,.23,2.1,15.78,15.78,0,0,0,.47,2.06c.15.52.34,1,.53,1.55l.31.11.17.05.07.16a3.62,3.62,0,0,0,1.82,1.55,1.73,1.73,0,0,0,.32.11,4.5,4.5,0,0,1-.74-1.29,10.75,10.75,0,0,1-.57-2A15.7,15.7,0,0,1,81,60.41a10.94,10.94,0,0,1,0-2.06c.32,1.34.52,2.68.78,4,.12.66.27,1.31.43,2a6.54,6.54,0,0,0,.53,1.48,1.52,1.52,0,0,0,.21,0h.21l.09.16c.32.59.55,1.17.85,1.71a2.28,2.28,0,0,0,1.17,1.18h0c-.09-.45-.17-.89-.24-1.33-.12-.78-.2-1.58-.29-2.36s-.13-1.59-.16-2.38,0-1.59,0-2.39a21.24,21.24,0,0,1,.47,2.35c.12.78.21,1.57.29,2.36s.14,1.58.16,2.37c0,.6,0,1.2,0,1.81C85.69,69.57,85.77,69.81,85.87,70.06ZM52.36,2.86l.24,0,.46.07.93.15h0v0a2.37,2.37,0,0,0,.36.88,2.83,2.83,0,0,0,.7.68,9.21,9.21,0,0,0,1.77,1l.54.25-.59-.07-.87-.1c-.29,0-.58,0-.87,0a8.23,8.23,0,0,0-1.72.18,5.14,5.14,0,0,0-1.57.64,3.61,3.61,0,0,0-.64.53,2.11,2.11,0,0,0-.4.62.28.28,0,0,1,.12,0l.2.09.41.17c.28.1.56.2.85.28a16.92,16.92,0,0,0,1.74.41,13.13,13.13,0,0,0,3.54.14h.08a14.6,14.6,0,0,0,1.83.43,8,8,0,0,0,1.83,0l.18,0,0,0,.16-.05.94-.3c.3-.1.6-.21.9-.34s.6-.28.94-.41a3,3,0,0,1-1.65,1.32,3.65,3.65,0,0,1-1,.18,2.68,2.68,0,0,1,.34.92,1.52,1.52,0,0,1,0,.73.92.92,0,0,1-.6.65,1.43,1.43,0,0,1-.35.07l-.3,0-.59.07c-.38,0-.76.1-1.14.17a6.15,6.15,0,0,0-2.07.67,5.21,5.21,0,0,0-.81.71c-.27.27-.52.56-.76.85a15.47,15.47,0,0,0-3.7,8.2,32.26,32.26,0,0,0-.31,4.61A31,31,0,0,0,51.81,32a34.07,34.07,0,0,0,1,4.53c.21.75.43,1.49.69,2.22.13.37.26.73.41,1.09a5.72,5.72,0,0,0,.36.75c0-.27,0-.53,0-.8,0-.79,0-1.59,0-2.39l.26,2.37.32,2.36c.11.78.23,1.57.38,2.34a18.33,18.33,0,0,0,.54,2.27,15.82,15.82,0,0,0,2.28,4c.71,1,1.49,1.86,2.29,2.77l-.43-3.3c-.1-.74-.18-1.49-.25-2.23a17,17,0,0,1-.15-2.25,10.11,10.11,0,0,0,.19,1.1L59.94,48l.45,2.2c.1.46.18.93.27,1.39a19,19,0,0,0,2.11,2.76,36.4,36.4,0,0,0,3.06,2.89L69,60.12c.78.72,1.54,1.45,2.29,2.19-.21-.85-.44-1.7-.65-2.55-.16-.66-.34-1.33-.52-2l-.28-1-.15-.49-.08-.25a.53.53,0,0,1,0-.12,1.93,1.93,0,0,1-.47-.19,4,4,0,0,1-1.36-1.55,10.82,10.82,0,0,1-.79-1.86,11.52,11.52,0,0,1-.45-1.91,15.78,15.78,0,0,1-1.17-2c-.36-.71-.7-1.42-1-2.14-.63-1.44-1.24-2.88-1.79-4.36l-.4-1.1a5.4,5.4,0,0,1-.26-1.23,17.44,17.44,0,0,1-.1-2.39c0-.79.06-1.58.14-2.37l0-.29a2.46,2.46,0,0,0,0-.26,2.19,2.19,0,0,0,0-.51c-.06-.34-.18-.72-.27-1.12a9.89,9.89,0,0,1-.19-2.42,8.16,8.16,0,0,1,.4-2.41,4.08,4.08,0,0,1,.63-1.09,11.85,11.85,0,0,1,.82-.9,3.84,3.84,0,0,1,.46-.42,2.68,2.68,0,0,1,.57-.32,3,3,0,0,1,1.26-.24,3.46,3.46,0,0,1,1.23.25,2.23,2.23,0,0,1,.57.3,2.19,2.19,0,0,1,.25.2c.08.07.15.15.21.21a.92.92,0,0,0,.39.24,1.86,1.86,0,0,0,.53-.06,1.1,1.1,0,0,1,.69.11,2.85,2.85,0,0,1,.5.38c.59.55,1.11,1.12,1.69,1.65.28.26.58.51.88.76s.3.24.46.35l.2.15h0l.18.13,0,0c.1.1.19.21.28.32l.43.55L75,31.5c.58.74,1.13,1.49,1.65,2.27a29.51,29.51,0,0,1,2.68,4.94c.39.83.81,1.64,1.28,2.44s1,1.58,1.43,2.41a11.88,11.88,0,0,1,1.08,2.66l.32,1.36c.11.44.24.89.37,1.32.53,1.77,1.19,3.5,1.84,5.24.32.88.63,1.75.91,2.66.13.48.25.87.41,1.31s.33.86.49,1.31A20.51,20.51,0,0,1,88.2,62l-.15-.9c-.22-1.11-.49-2.22-.77-3.32-.57-2.21-1.2-4.41-1.86-6.58S83.86,46.92,83,44.82s-1.77-4.21-2.74-6.27a44.77,44.77,0,0,0-3.5-5.85l-1.9-2.86a27.41,27.41,0,0,0-2-2.78,17.78,17.78,0,0,0-2.4-2.43,15.89,15.89,0,0,0-1.37-1,12.14,12.14,0,0,0-1.34-.7,9.07,9.07,0,0,0-2.19-.39,13.19,13.19,0,0,0-2.27.1,2.54,2.54,0,0,0-.51.13,4,4,0,0,0-.46.3l-.91.68L59.73,25c0,.27,0,.53-.09.79s-.1.55-.17.83l-.2.85a1.79,1.79,0,0,1-.26-.88,3.75,3.75,0,0,1,0-.89,4.2,4.2,0,0,1,.23-.86h0c0-.42,0-.85,0-1.27a4.7,4.7,0,0,1,.16-1.42,2.89,2.89,0,0,1,.88-1.2,5.81,5.81,0,0,1,1.19-.78l.64-.31.63-.25c.42-.17.82-.36,1.22-.57a13.67,13.67,0,0,0,2.22-1.45A11,11,0,0,0,68,15.72a4.59,4.59,0,0,0,.64-1.08A6.42,6.42,0,0,0,69,13.41,17.92,17.92,0,0,0,69,8.14a6.11,6.11,0,0,0-.64-1.74,5.64,5.64,0,0,0-.7-.46,13.68,13.68,0,0,0-1.83-.8c-.63-.23-1.26-.47-1.9-.75A6.17,6.17,0,0,1,63,3.86l-.21-.16-.11-.09-.08-.07a1,1,0,0,0-.35-.15,12.12,12.12,0,0,0-2-.17c-.34,0-.68,0-1-.07a3.64,3.64,0,0,1-.54-.1,2.2,2.2,0,0,1-.52-.22c-.63-.38-1.08-.86-1.62-1.25A3.88,3.88,0,0,0,55,.87c-.25.12-.49.24-.73.38A10.37,10.37,0,0,0,53.12,2l-.51.45-.24.24c-.06,0-.1.12-.17.18l0,0S52.32,2.86,52.36,2.86Zm3.85-.37a1.05,1.05,0,1,1-1.06,1A1.06,1.06,0,0,1,56.21,2.49Zm31.41,81.9a18.94,18.94,0,0,1-1-2.5,11.73,11.73,0,0,1-.54-2.62,5.33,5.33,0,0,1,.27-2.38c-.21-.24-.48-.51-.71-.77l-.74-.83C84,74.19,83,73.08,82,72a41.46,41.46,0,0,1-2.67-3.44,2.49,2.49,0,0,1-.82-.54,9.61,9.61,0,0,1-.7-.73c-.42-.5-.8-1-1.17-1.55.09.8.24,1.6.38,2.4a12.83,12.83,0,0,1,.19,2.55,7.21,7.21,0,0,0,.5,2.42,11.68,11.68,0,0,0,.81,1.77,34.73,34.73,0,0,0,2.87,2l0,0,0,0a3.64,3.64,0,0,1,.77,1.23c.16.44.29.88.4,1.31a15.63,15.63,0,0,0,.73,2.46,4.14,4.14,0,0,0,1.5,1.85,9,9,0,0,0,1.12.6c.39.19.79.37,1.18.52a4.92,4.92,0,0,0,.59.18l.2,0-.06-.1C87.81,84.79,87.71,84.59,87.62,84.39Zm-.5-2.66c.12.3.24.59.37.88a11.13,11.13,0,0,0-.17-3.78,4.84,4.84,0,0,0-.9-1.9,5.57,5.57,0,0,0,0,2.3A14.31,14.31,0,0,0,87.12,81.73Zm-13.49,19.1a.61.61,0,0,1-.52-.63c0-.63.06-1.67.1-2.24.05-.86.12-1.71.19-2.56l.43-5.12.23-2.57.4-2.54.84-5.08V80l0,0a4.41,4.41,0,0,0,.48-.82,4.28,4.28,0,0,0,.29-.92,3.81,3.81,0,0,0,.07-.67A3.36,3.36,0,0,0,76,76.37v0c-.14-.94-.31-1.89-.47-2.84L75,70.65c-.17-.94-.31-1.9-.46-2.85l-.21-1.42-.1-.72,0-.32H74c-.34,0-.68,0-1,0h0l0,.27.13.7.22,1.41c.15.94.29,1.88.39,2.83s.2,1.89.28,2.84c0,.47,0,1,.06,1.43,0,.13,0,.26,0,.39A6.39,6.39,0,0,1,74,76.32v.05l0,0a1.79,1.79,0,0,0-.27.78,5.28,5.28,0,0,0-.1.9,5.18,5.18,0,0,0,.18,1.77V80q-.34,5.31-.8,10.61l-.24,2.66c0,.44-.09.88-.15,1.33s-.15.9-.24,1.33c-.19.94-.41,1.86-.68,2.78a11.47,11.47,0,0,1-.37,1.13c-.67,1.67-5,1.63-5,1.63v1l5.93-.32h.06c1.29.11,5.32.39,5.54.39v-1C77.27,101.42,74.75,101,73.63,100.83Zm3.29-30.19a13.36,13.36,0,0,0-.07-2.53c-.09-.82-.2-1.66-.23-2.5-.36-.52-.69-1.06-1-1.59l-.5-.84a2.4,2.4,0,0,0-.16-.27c0,.56.07,1.12.13,1.67a1.29,1.29,0,0,1,0,.2A1,1,0,0,1,75,65a.64.64,0,0,1-.36.31h-.09l0,.29.11.71.24,1.42.49,2.84.3,1.81c.37.37.76.73,1.16,1.08s.78.66,1.17,1a7.92,7.92,0,0,1-.68-1.25A5.58,5.58,0,0,1,76.92,70.64Zm-3.6-10.75a7.82,7.82,0,0,1-.93-1,3.65,3.65,0,0,1-.63-1.17,5.74,5.74,0,0,1-1-1.67l-.15,0a4,4,0,0,1-.51-.05l-.3-.06.1.23.2.48.39,1c.25.64.49,1.28.73,1.93a31.79,31.79,0,0,1,1.18,4c.07.34.13.69.17,1.06v.06H73c.36,0,.71,0,1.07,0l.27,0h.17s0,0,0-.06a23.76,23.76,0,0,1,.3-3.77A6.46,6.46,0,0,1,73.32,59.89ZM68,63.47v.34a.57.57,0,0,1,0,.12.52.52,0,0,1-.06.16c.38.44.76.88,1.15,1.3s1,1.08,1.49,1.61,1.06,1,1.5,1.59.77,1,1.15,1.54c-.09-.77-.18-1.54-.28-2.3l-.2-1.4-.12-.7,0-.31a.68.68,0,0,1-.2,0,.76.76,0,0,1-.43-.29.86.86,0,0,1-.11-.24.5.5,0,0,1,0-.12v-.06a8.73,8.73,0,0,0-.19-1c-.08-.37-.17-.73-.27-1.09q-1.41-1-2.76-2L68,60.13c0,.57,0,1.14,0,1.72v1.62Zm-1.35,37.29v-.38l-3.6,0,0-.18s1.34-6.1,2.16-9.14c.21-.74.45-1.52.72-2.25l.8-2.21q.8-2.2,1.61-4.41l.81-2.2.41-1.1c.07-.19.14-.35.19-.51a4.17,4.17,0,0,0,.09-.51,3,3,0,0,0-.06-1,2,2,0,0,0-.16-.44s0,0-.05-.08a1.28,1.28,0,0,1-.12-.19,2.69,2.69,0,0,1-.13-.32,18.93,18.93,0,0,1-.49-2.35c-.13-.77-.24-1.54-.4-2.3L68,68.87l-.45-2.3-.24-1.14-.12-.57-.07-.28a.39.39,0,0,1,0-.15h-.07l-.53,0-.52,0-.25,0-.21,0,0,.24.15.79.3,1.58.6,3.15.6,3.16c.19,1.05.38,2.11.6,3.14l0,.09,0,.09h0a5.5,5.5,0,0,0-.37,1,5.8,5.8,0,0,0-.19,1,7,7,0,0,0,0,1,6.18,6.18,0,0,0,.14,1l0,.09,0,.09-1.34,4.86c-.44,1.62-.9,3.24-1.36,4.86s-1,3.23-1.64,4.82c-.4,1-1,3-1.43,4.21a5.27,5.27,0,0,1-4,2.21l-5.28,0a.75.75,0,0,0-.77.75V103c2.56-.1,3.92.08,6.49,0l4.32-1.43h0c.58,0,1.16.11,1.73.18l.86.13.43.07h0V101l.33,0,.83-.09ZM58.39,2.43a2.15,2.15,0,0,0,.89.2c.32,0,.66,0,1,0a10.71,10.71,0,0,1,2.08.16,1.29,1.29,0,0,1,.58.26l.2.17.18.14a6.71,6.71,0,0,0,.83.49c.59.3,1.22.54,1.84.83a10.52,10.52,0,0,1,1.8,1l.24.17a.56.56,0,0,1,0-.08,12.91,12.91,0,0,0-1.63-2.07,8.86,8.86,0,0,0-1-.88c-.35-.25-.74-.51-1.11-.76A16.8,16.8,0,0,0,61.92.79,9.24,9.24,0,0,0,59.36.06a8.41,8.41,0,0,0-2.64.19,8.8,8.8,0,0,0-1.66.57,3.85,3.85,0,0,1,1.64.52C57.3,1.68,57.83,2.14,58.39,2.43ZM65.3,57.84c-.53-.47-1.07-1-1.57-1.47a15,15,0,0,1-1.13-1.26c.31,1,.58,2,.88,3,.21.69.4,1.38.63,2.06s.44,1.36.7,2c.12.33.26.65.4,1a5.14,5.14,0,0,0,.23.47l.06.13.22,0h.87l.56.06.14,0h.09v-.09l0-.27.07-.54.13-1.08c.09-.59.17-1.17.27-1.76l-1-.81-.82-.71C65.82,58.29,65.58,58.07,65.3,57.84ZM38.74,6.19c1.38,0,2.76,0,4.14,0,2.76.06,5.51.14,8.26.41a5.22,5.22,0,0,1,.45-.33,5.41,5.41,0,0,1,1.69-.64,8.89,8.89,0,0,1,1.78-.13c.3,0,.6,0,.9.06h0A5.66,5.66,0,0,1,54.9,5a3.09,3.09,0,0,1-.77-.76,1,1,0,0,1-.18-1c-.3,0-.61,0-.91,0l-.47-.05-.23,0s-.08,0-.12,0A.46.46,0,0,1,52.15,3L52,3l-.28,0-.57.11L50,3.37l-2.26.45-4.51.89L35.48,6.26l1.19,0Zm12.39.42c-2.76.19-5.5.21-8.25.18-1.38,0-2.77-.06-4.15-.13-1.22-.07-2.45-.15-3.67-.32h0c.29.12.59.22.89.32a12.52,12.52,0,0,0,1.71.41,14.79,14.79,0,0,0,1.76.19,17.42,17.42,0,0,0,1.77,0h0c1.55.1,3.1.11,4.66.12h2.34a20.88,20.88,0,0,1,2.21.12A2.5,2.5,0,0,1,51.13,6.61Z"/></svg>