<svg id="Layer_1" data-name="Layer 1" xmlns="http://www.w3.org/2000/svg" width="128" height="128" viewBox="0 0 128 128"><title>Artboard 55</title><path d="M40.8,121.86l2.56,1a7.19,7.19,0,0,1-2,3.91A5,5,0,0,1,37.94,128a5.09,5.09,0,0,1-4.15-2A9.52,9.52,0,0,1,32,119.89a10,10,0,0,1,1.84-6.39,5.25,5.25,0,0,1,4.31-2,5,5,0,0,1,3.68,1.5,6.59,6.59,0,0,1,1.55,3.17l-2.62.76a3.58,3.58,0,0,0-1-2,2.52,2.52,0,0,0-1.76-.69,2.79,2.79,0,0,0-2.37,1.27,7.25,7.25,0,0,0-.92,4.16,7.69,7.69,0,0,0,.9,4.29,2.7,2.7,0,0,0,2.31,1.28,2.4,2.4,0,0,0,1.81-.81A5.08,5.08,0,0,0,40.8,121.86Z"/><path d="M45.85,127.73v-16h5.56a7.84,7.84,0,0,1,3,.43A3.49,3.49,0,0,1,56,113.69a5.21,5.21,0,0,1,.58,2.54,4.8,4.8,0,0,1-.89,3,4,4,0,0,1-2.56,1.44A6.44,6.44,0,0,1,54.5,122a18.91,18.91,0,0,1,1.51,2.6l1.59,3.11H54.45l-1.91-3.47a22.24,22.24,0,0,0-1.41-2.36,1.94,1.94,0,0,0-.78-.65,3.6,3.6,0,0,0-1.33-.18h-.54v6.66Zm2.63-9.21h2a9.37,9.37,0,0,0,2.28-.16,1.44,1.44,0,0,0,.8-.63,2.4,2.4,0,0,0,.3-1.28,2.2,2.2,0,0,0-.3-1.22,1.6,1.6,0,0,0-.83-.64,10.42,10.42,0,0,0-2.14-.12H48.48Z"/><path d="M71.06,127.73H68.19l-1.14-3.62H61.81l-1.08,3.62H57.92l5.09-16h2.8Zm-4.86-6.31-1.81-5.93-1.77,5.93Z"/><path d="M72.69,127.73v-16h2.57l5.36,10.66V111.77h2.46v16H80.42l-5.27-10.41v10.41Z"/><path d="M86.09,127.73v-16H95.8v2.7H88.72V118H95.3v2.69H88.72V125H96v2.7Z"/><path d="M5.45,8.64V6.39h4.74v5.3a5.89,5.89,0,0,1-2,1.45,6.35,6.35,0,0,1-2.64.61A5.18,5.18,0,0,1,2.67,13,5.4,5.4,0,0,1,.72,10.58,9,9,0,0,1,0,6.85,8.74,8.74,0,0,1,.73,3.1,5.53,5.53,0,0,1,2.62.77,5,5,0,0,1,5.41,0,4.72,4.72,0,0,1,8.54,1a4.78,4.78,0,0,1,1.51,2.92l-2.18.5A2.75,2.75,0,0,0,7,2.84a2.36,2.36,0,0,0-1.56-.55,2.77,2.77,0,0,0-2.27,1.1,5.28,5.28,0,0,0-.87,3.33,6,6,0,0,0,.94,3.65,2.59,2.59,0,0,0,2.18,1.08,3.36,3.36,0,0,0,1.34-.3A4.15,4.15,0,0,0,8,10.32V8.64Z"/><path d="M12.42,13.52V.23h4.63a6.69,6.69,0,0,1,2.54.35,2.84,2.84,0,0,1,1.25,1.25,4.25,4.25,0,0,1,.49,2.11,4,4,0,0,1-.75,2.52,3.34,3.34,0,0,1-2.12,1.19,5.36,5.36,0,0,1,1.16,1.11,16.94,16.94,0,0,1,1.27,2.17l1.32,2.59H19.58L18,10.63a18.19,18.19,0,0,0-1.17-2,1.69,1.69,0,0,0-.65-.54A3,3,0,0,0,15.06,8h-.45v5.55Zm2.19-7.67h1.63a8.78,8.78,0,0,0,1.91-.13,1.26,1.26,0,0,0,.66-.53,2,2,0,0,0,.25-1.06,1.79,1.79,0,0,0-.25-1,1.25,1.25,0,0,0-.69-.53,8.48,8.48,0,0,0-1.79-.1H14.61Z"/><path d="M23.59,13.52V.23h8.09V2.48H25.79V5.42h5.47V7.66H25.79v3.61h6.09v2.25Z"/><path d="M36.79,13.52V7.92L32.8.23h2.57l2.57,5.25L40.46.23H43L39,7.94v5.58Z"/><path d="M55.4,8.63l2.13.83a6,6,0,0,1-1.66,3.26,4.16,4.16,0,0,1-2.85,1,4.24,4.24,0,0,1-3.46-1.65A7.94,7.94,0,0,1,48,7a8.32,8.32,0,0,1,1.53-5.32A4.37,4.37,0,0,1,53.16,0a4.17,4.17,0,0,1,3.07,1.25,5.44,5.44,0,0,1,1.28,2.64l-2.17.63a3,3,0,0,0-.83-1.65A2.13,2.13,0,0,0,53,2.29a2.33,2.33,0,0,0-2,1.06,6,6,0,0,0-.76,3.47,6.42,6.42,0,0,0,.74,3.57A2.26,2.26,0,0,0,53,11.45a2,2,0,0,0,1.51-.67A4.35,4.35,0,0,0,55.4,8.63Z"/><path d="M59.61,13.52V.23h4.63a6.69,6.69,0,0,1,2.54.35A2.89,2.89,0,0,1,68,1.83a4.36,4.36,0,0,1,.49,2.11,4,4,0,0,1-.75,2.52,3.34,3.34,0,0,1-2.13,1.19,5.42,5.42,0,0,1,1.17,1.11,16,16,0,0,1,1.26,2.17l1.33,2.59H66.77l-1.59-2.89a18.19,18.19,0,0,0-1.17-2,1.69,1.69,0,0,0-.65-.54A3,3,0,0,0,62.25,8H61.8v5.55ZM61.8,5.85h1.63a8.78,8.78,0,0,0,1.91-.13A1.26,1.26,0,0,0,66,5.19a2,2,0,0,0,.25-1.06,1.79,1.79,0,0,0-.25-1,1.25,1.25,0,0,0-.69-.53,8.48,8.48,0,0,0-1.79-.1H61.8Z"/><path d="M70.33,7A9.43,9.43,0,0,1,71,3,5.36,5.36,0,0,1,72.86.75,4.9,4.9,0,0,1,75.61,0a4.71,4.71,0,0,1,3.81,1.79A7.73,7.73,0,0,1,80.9,6.87a8,8,0,0,1-1.56,5.22,5,5,0,0,1-7.45,0A7.8,7.8,0,0,1,70.33,7Zm2.26-.09a5.64,5.64,0,0,0,.87,3.44,2.64,2.64,0,0,0,2.17,1.15,2.59,2.59,0,0,0,2.15-1.14,5.79,5.79,0,0,0,.85-3.49A5.74,5.74,0,0,0,77.8,3.4a2.59,2.59,0,0,0-2.17-1.11,2.63,2.63,0,0,0-2.19,1.12A5.65,5.65,0,0,0,72.59,6.86Z"/><path d="M84.36,13.52,81.75.23H84l1.64,9.13,2-9.13h2.63l1.91,9.29L93.85.23h2.21L93.42,13.52H91.07L88.9,3.58l-2.16,9.94Z"/><path d="M97.39,13.52V.23h2.14L104,9.1V.23H106V13.52h-2.21L99.44,4.85v8.67Z"/><path d="M108.55,13.52V.23h8.09V2.48h-5.9V5.42h5.48V7.66h-5.48v3.61h6.09v2.25Z"/><path d="M118.87.23h4a5.92,5.92,0,0,1,2.3.34,3.94,3.94,0,0,1,1.43,1.14,6.05,6.05,0,0,1,1,2.1A11.62,11.62,0,0,1,128,7a10.3,10.3,0,0,1-.39,3,6,6,0,0,1-1,2,3.81,3.81,0,0,1-1.44,1.12,5.43,5.43,0,0,1-2.18.38h-4.13Zm2.19,2.25v8.79h1.65a4.38,4.38,0,0,0,1.54-.2,1.79,1.79,0,0,0,.78-.6,3.44,3.44,0,0,0,.5-1.27,10.25,10.25,0,0,0,.2-2.3,10.15,10.15,0,0,0-.2-2.32,3.16,3.16,0,0,0-.63-1.34,2.08,2.08,0,0,0-1.05-.65,8.84,8.84,0,0,0-1.79-.11Z"/><path d="M93,32.25a6.52,6.52,0,0,0-1.13-.89c-.41-.27-1.45-.91-1.87-1.13l-1.13-.53a3.09,3.09,0,0,1-1.17-.37c-.14-.06-.27-.15-.4-.22a.54.54,0,0,1-.13.32,1.29,1.29,0,0,1,.46.31,1.56,1.56,0,0,1,.26.39,1.5,1.5,0,0,1,.11.51c0,.07,0,.13,0,.2.44.08.88.19,1.31.29s1.52.62,2,.77l.71.23a3.42,3.42,0,0,1,.61.28,9,9,0,0,1,1,.66h0A2.88,2.88,0,0,0,93,32.25Z"/><path d="M75.26,105.23c-.39-.2-1.55-.51-1.69-1-1.1-3.48-4.75-14.88-4.75-15.55v-.1c.05-.22.1-.41.14-.59A2.28,2.28,0,0,0,69,86.63c-.07-.25-.16-.5-.24-.77a6.11,6.11,0,0,1-.47-2.09c0-1,.33-8.47.37-9.51H68a.51.51,0,0,1,0,.13c0,.31-.17,7.36-1.17,10.68.27,1.31,1.5,5.12,2.5,8.18.65,2,1.23,3.76,1.37,4.34,1.78,7.24,1.44,6.89.85,7.39-.18.14-.38.28-.56.4s-2.26.7-2.59.89c-.07,0,.31.62.23.65.13,0,2.28-1.07,2.61-1.15s.68-.17,1-.27l.07,0,.06,0a8.75,8.75,0,0,0,1.87.56c.64.12,5.11.9,5.71.87l-.38-1.17C79.14,105.66,75.75,105.45,75.26,105.23Z"/><path d="M87.88,31.4a4.19,4.19,0,0,1-.16.46h0l.27-.07.16,0h.17c.41,0,3.07.73,3.42.8s.56.15.84.25L87.94,31A3.32,3.32,0,0,1,87.88,31.4Z"/><path d="M88.06,28.68c.32.3.61.6.92.94L90,30a1.69,1.69,0,0,0,.57-1.32,4.89,4.89,0,0,0-.3-1.53,2.81,2.81,0,0,0-2.19-1.64,3.27,3.27,0,0,0-2.3.5A3.68,3.68,0,0,0,87,27.86l.54.38C87.7,28.38,87.88,28.52,88.06,28.68Z"/><path d="M85.84,33.53a.67.67,0,0,0-.43.26,1.36,1.36,0,0,0-.22.6,3.33,3.33,0,0,0,0,.63,3.46,3.46,0,0,0,.12.61,7.34,7.34,0,0,0,.27.74c0-.17-.06-.35-.11-.53a4,4,0,0,1-.06-1.25A1.81,1.81,0,0,1,85.84,33.53Z"/><path d="M86.13,36.85a4.41,4.41,0,0,0,.47.95h0a.59.59,0,0,0,.65-.67,1,1,0,0,0-.14-.54,5.71,5.71,0,0,0-.38-.52A5.2,5.2,0,0,1,86,34.89a2.15,2.15,0,0,1-.09-.74,1.28,1.28,0,0,1,.18-.64h-.18a1.81,1.81,0,0,0-.32,1.09,3.68,3.68,0,0,0,.2,1.13A8.92,8.92,0,0,1,86.13,36.85Z"/><path d="M87.2,31.42a3.25,3.25,0,0,1-.11-.77,2.42,2.42,0,0,0-.07-.54l-.13-.5a.72.72,0,0,1-.19,0,.58.58,0,0,1-.57-.6.63.63,0,0,1,.29-.53,2.42,2.42,0,0,1-.52-.67l-.28.07a5.67,5.67,0,0,1-.57.1,3.81,3.81,0,0,1-.59,0,2.82,2.82,0,0,1-.62-.06l-.59,1.05c.2.5.36,1,.54,1.47a3.58,3.58,0,0,0,.32.65,1,1,0,0,0,.08.11l.1.09.27.21a2.44,2.44,0,0,0,.59.28,1.09,1.09,0,0,0,.3.07h.38a4.05,4.05,0,0,1,.83.18l.29.1a1.58,1.58,0,0,1,.24-.15l.22-.1A3.55,3.55,0,0,1,87.2,31.42Z"/><path d="M67.35,71.25c.11.42.21.85.3,1.27,0,.21.1.43.14.65l0,.27L69,73.36c.07-.45.16-.9.26-1.35a13,13,0,0,1,.49-1.69,4.39,4.39,0,0,1,.41-.85,2,2,0,0,1,.33-.33l.33-.28.62-.47a30.91,30.91,0,0,1-3.17.42c-.55,0-.83,0-1.38,0A23.42,23.42,0,0,1,67.35,71.25Z"/><path d="M57,73.22c-.31.11-.63.21-.95.29l.62.12.6.09a1.85,1.85,0,0,0,.4,0c.25-.21.53-.49.8-.74l.89-.82c.1-.1.21-.19.32-.28-.17.12-.36.23-.55.34A12.87,12.87,0,0,1,57,73.22Z"/><path d="M68.24,68.35a28.36,28.36,0,0,0,3.55-.76,31.79,31.79,0,0,0,3.39-1.24,19.28,19.28,0,0,0,2.21-1l.32-.37a13.26,13.26,0,0,0,1.16-1.66c.16-.29.32-.58.47-.88-.49.45-1,.86-1.52,1.25a12,12,0,0,1-2.58,1.53,13.85,13.85,0,0,0,2.45-1.72c.25-.22.5-.44.75-.68a21.06,21.06,0,0,1-2,.93,23.41,23.41,0,0,1-2.83.93,14.6,14.6,0,0,1-5.92.42l-1.55-.25,1.58-.18a10.66,10.66,0,0,0,1.73-.43c.58-.18,1.16-.38,1.73-.59a27.51,27.51,0,0,0,3.33-1.46,19.94,19.94,0,0,0,3-2.12,7.87,7.87,0,0,0,1.21-1.31l.27-.41-.23.15a11,11,0,0,1-1.31.73,4.43,4.43,0,0,1-1.5.45,4.62,4.62,0,0,1-1.54-.12l-1.24-.26,1.15-.55a10.46,10.46,0,0,0,1.46-.84,7.06,7.06,0,0,0,1.25-1.13,9.59,9.59,0,0,0,1.3-2.08,17.26,17.26,0,0,1-1.66,1,29.37,29.37,0,0,1-2.76,1.1l-.2.2h0c-.27.27-.55.51-.84.75s-.87.67-1.33,1a12.6,12.6,0,0,1-1.44.8,7.75,7.75,0,0,1-1.43.48,5,5,0,0,1-.75,1.37,13.23,13.23,0,0,1-1.3,1.48,28.19,28.19,0,0,1-3,2.49c-1,.76-2.12,1.47-3.21,2.16A21.49,21.49,0,0,1,57,69.16c-1.08,1.06-2.18,2.07-3.34,3-.31.25-.62.51-.95.76a7.29,7.29,0,0,0,.85.11c.36,0,.73,0,1.11,0a10.61,10.61,0,0,0,2.24-.25A7.49,7.49,0,0,0,59,72a7.58,7.58,0,0,0,1.77-1.47l0,0,.11,0a1.67,1.67,0,0,0,.59-.26l.62-.38c.42-.24.81-.53,1.22-.78l1.25-.74a11.68,11.68,0,0,0,1.25-.77h0a0,0,0,0,1,.06,0,.08.08,0,0,1,0,0,3.48,3.48,0,0,1-.71,1.09A28,28,0,0,0,68.24,68.35Z"/><path d="M90.8,43.85a9.31,9.31,0,0,0-.48-1.56,31.93,31.93,0,0,0-2.68-5,.91.91,0,0,1-.33.57,1,1,0,0,1-.73.15h0a2.39,2.39,0,0,1-.49-.52c-.13-.18-.26-.37-.4-.55a7.84,7.84,0,0,1-.72-1.19,2,2,0,0,1-.16-.74,1.94,1.94,0,0,1,.16-.72,1.6,1.6,0,0,1,.39-.6,1.1,1.1,0,0,1,.63-.24h.17a5,5,0,0,1,.25-.52,2.41,2.41,0,0,1,.23-.36l-.74.08-.07,0-.09,0-.24,0a2,2,0,0,1-.49,0,2.41,2.41,0,0,1-.87-.37,2.6,2.6,0,0,1-.36-.3.9.9,0,0,1-.18-.2,1.58,1.58,0,0,1-.15-.24,3.15,3.15,0,0,1-.26-.9,4.84,4.84,0,0,1,0-1.52l-.22.39a9.87,9.87,0,0,0-.79,1.69A4.57,4.57,0,0,0,82,33a3.44,3.44,0,0,0,.23.84,7.3,7.3,0,0,0,.33.86,12.57,12.57,0,0,0,2,3,16.94,16.94,0,0,1,2.13,3.34A8.87,8.87,0,0,1,87.37,43a5.23,5.23,0,0,1,0,2.16,5,5,0,0,1-.83,1.93,3,3,0,0,1-1.72,1.15,12.6,12.6,0,0,1-3.78,0c-1.23-.15-2.45-.37-3.66-.56a7.39,7.39,0,0,0-1.56-.07l-.7.35c-.39.2-.77.4-1.15.62a12.43,12.43,0,0,0-1.08.7l-.24.18a8.3,8.3,0,0,1,2.11.14,5.6,5.6,0,0,1,1.5.56,2.18,2.18,0,0,1,.68.62,1.46,1.46,0,0,1,.28,1,1.83,1.83,0,0,1-.37.91l-.45.61-.89,1.21c-.3.4-.61.8-.93,1.19s-.49.59-.76.87c.83-.4,1.83-.86,2.58-1.31a13.8,13.8,0,0,0,1.2-.79,7.53,7.53,0,0,0,1.08-.93l.82-.86-.42,1.16a11.49,11.49,0,0,1-1.66,3.32,7.5,7.5,0,0,1-1.66,1.53A3.7,3.7,0,0,0,77,58.37c.4-.2.82-.43,1.22-.67a11.09,11.09,0,0,0,1.12-.8l.58-.49.09.73a1,1,0,0,1,0,.38,1.35,1.35,0,0,1,0,.29,2.44,2.44,0,0,1-.19.52,4.73,4.73,0,0,1-.53.9,9.59,9.59,0,0,1-1.36,1.41,19.31,19.31,0,0,1-3.15,2.12,24.51,24.51,0,0,1-3.46,1.39c-.58.19-1.17.38-1.76.54l-.44.11a15.8,15.8,0,0,0,4.43-.39,22.35,22.35,0,0,0,2.84-.82c.73-.26,1.45-.55,2.17-.88a16.46,16.46,0,0,0,1.28-1.36l.69-.82-.34,1a11.49,11.49,0,0,1-.8,1.91c.23-.26.45-.53.66-.82.65-.87,1.24-1.78,1.86-2.71l1-1.54-.32,1.86c-.14.79-.32,1.54-.53,2.29-.06.23-.13.46-.2.68A12.07,12.07,0,0,0,83.05,62a15.15,15.15,0,0,0,1.83-2.82L86,57l-.31,2.4a14.06,14.06,0,0,1-1.53,4.48c-.25.47-.49.92-.75,1.37.32-.35.64-.69,1-1.05.49-.55.93-1.17,1.4-1.74a58.36,58.36,0,0,0,3.59-7.24,32.66,32.66,0,0,0,1-3.19A23,23,0,0,0,91,48.78a14.57,14.57,0,0,0,0-3.3A12.79,12.79,0,0,0,90.8,43.85Z"/><path d="M56.61,74.34l-.14,0a6.36,6.36,0,0,1-.7-.33.39.39,0,0,1-.07.23c-.43.6-4.18,5.93-4.57,6.37l-.18.2a4.59,4.59,0,0,0-1.36,2.46l0,.07c-.35,1.29-5.07,15.2-5.69,16.31-.22.4-1.42.82-1.85,1.11a5.44,5.44,0,0,1-1.92.35s-.06,1-.06,1a18.86,18.86,0,0,1,1.8-.78l.27,0,.14.11a1,1,0,0,1,.14.15l.07.12a1.34,1.34,0,0,1,.07.18,2.43,2.43,0,0,1,.09.3l.14.55a6.11,6.11,0,0,0,.37,1,4.17,4.17,0,0,0,1.36,1.63A26.64,26.64,0,0,0,48.14,107a1.76,1.76,0,0,0-.29-1.55,19.67,19.67,0,0,1-3.24-1,5.06,5.06,0,0,1-1.34-1.35,3.19,3.19,0,0,1,0-1l0-.18.07-.06c1.31-1.62,6.26-15.41,6.49-15.83l0-.08.07,0a7.59,7.59,0,0,0,1.84-2.11,2,2,0,0,0-.1-.47,2.18,2.18,0,0,1,0-1.58C52,81.05,55.59,75.8,56.61,74.34Z"/><path d="M41,80.76l.14-.18.3-.37.58-.71,1.19-1.42c.76-.89,1.53-1.79,2.31-2.66a1.3,1.3,0,0,1-.37-.52,2.42,2.42,0,0,1-.2-.79,6.42,6.42,0,0,1,0-1.58,14.44,14.44,0,0,1,.81-3c.34-1,.7-1.88,1.09-2.81s.72-1.64,1.09-2.43h0c-.87,1.29-1.64,2.63-2.44,4s-1.77,2.78-2.65,4.18-1.72,2.83-2.58,4.25L39,78.87l-.64,1.06-.32.54c-.07.11-.13.22-.21.33l.12,0a5.85,5.85,0,0,0,1.62.44,1.62,1.62,0,0,0,1.31-.38Z"/><path d="M42.32,72.11c.81-1.45,1.57-3,2.52-4.31.48-.68,1-1.37,1.5-2a12.75,12.75,0,0,1,1.18-1.26l-.41.13c-.35.11-.7.18-1.06.26l-.41.07c-.9,1.19-1.79,2.35-2.66,3.53s-1.81,2.35-2.68,3.57-1.69,2.47-2.49,3.74c-.71,1.09-1.37,2.18-2.06,3.3l0,.48a1.69,1.69,0,0,0,.25.63,2,2,0,0,0,.47.52,1.07,1.07,0,0,0,1.16.09l.07,0L40,76.51C40.74,75,41.52,73.56,42.32,72.11Z"/><path d="M50.81,74l.8-.65c.57-.5,1.13-1,1.68-1.54,1.09-1.05,2.16-2.14,3.19-3.25l0,0,.08,0,3.34-1.78c1.12-.58,2.21-1.23,3.28-1.92a29.57,29.57,0,0,0,3.07-2.26,13.35,13.35,0,0,0,1.37-1.34A5.44,5.44,0,0,0,68.4,60a2.49,2.49,0,0,1-.46.27l-.64.28c-.42.15-.84.29-1.27.41a21.13,21.13,0,0,1-2.58.54c-.88.12-1.75.22-2.63.27a9.84,9.84,0,0,1-1.33,0l-.67-.06a2.72,2.72,0,0,1-.63-.15,9.21,9.21,0,0,1-1.23.48l-.37.11a16.19,16.19,0,0,1-1.3,3.26,26.13,26.13,0,0,1-1.85,2.88,21.76,21.76,0,0,1-4.74,4.79c-.45.5-.88,1-1.32,1.53a7.6,7.6,0,0,0,2.47-.33A7.31,7.31,0,0,0,50.81,74Z"/><path d="M48.2,72.5l0,0a18.32,18.32,0,0,0,2.55-2A26,26,0,0,0,53.05,68a26.57,26.57,0,0,0,2-2.73,16.37,16.37,0,0,0,1.46-3l-.88.22a13.34,13.34,0,0,1-1.38.25,5.38,5.38,0,0,1-1.33,0c-.34.22-.7.44-1.06.64a13,13,0,0,1-1.19.57,8.67,8.67,0,0,1-1.28.4,3.11,3.11,0,0,1-1.22,0c-.28.88-.57,1.73-.83,2.6s-.59,1.9-.84,2.87-.39,1.94-.62,2.88a13.94,13.94,0,0,0-.26,1.41,2.47,2.47,0,0,0,.09,1.18c.82-.93,1.65-1.84,2.49-2.74Z"/><path d="M46.94,64.12a5,5,0,0,0,.9-.44L48,63.6l.15,0a2.1,2.1,0,0,0,1.09-.09,9.39,9.39,0,0,0,1.16-.4c.38-.15.77-.33,1.15-.5l1.17-.53.11,0,.09,0a5,5,0,0,0,1.3.19,6.88,6.88,0,0,0,1.36-.12,7.21,7.21,0,0,0,2.56-1l.06,0,.12,0a1.89,1.89,0,0,0,.56.06c.21,0,.42,0,.64,0L60.74,61c.85-.13,1.7-.26,2.55-.44s1.69-.32,2.53-.5c.42-.09.84-.18,1.24-.29a5.26,5.26,0,0,0,.6-.18,2.39,2.39,0,0,0,.5-.22l.11-.07h0a8.29,8.29,0,0,0,2.93-1.06c.47-.25.93-.53,1.38-.83a9.92,9.92,0,0,0,1.16-.89c.41-.79.8-1.59,1.24-2.35.25-.45.51-.88.78-1.32.14-.21.27-.43.42-.64a1.08,1.08,0,0,0,.2-.49c0-.27-.2-.55-.56-.79a4.27,4.27,0,0,0-1.24-.48,8.94,8.94,0,0,0-2.79-.22l-.78.05.5-.59a4.1,4.1,0,0,1,1.1-.89c.39-.22.79-.42,1.19-.6s.81-.33,1.23-.46l.28-.08c-.51.05-1,.11-1.53.19-1.2.2-2.4.46-3.59.74s-2.38.59-3.53,1c-.57.17-1.14.39-1.73.61l-1.73.64c-2.3.89-4.56,1.85-6.75,2.93a23.15,23.15,0,0,0-6.05,4l0,0h0a4.58,4.58,0,0,0-.62.67c-.21.25-.41.52-.62.79l-1.22,1.63c-.4.55-.83,1.09-1.27,1.61A9.8,9.8,0,0,1,45.24,64l-.87,1,1.56-.5Z"/><path d="M39.75,71.67a31.74,31.74,0,0,1,2.58-3.73A18,18,0,0,1,45.41,65c-.4.07-.8.13-1.2.17l-1.84,2.16c-1,1.17-2,2.34-3,3.49-.5.58-1,1.13-1.48,1.73a19.59,19.59,0,0,0-1.23,2c-.38.68-.72,1.38-1,2.1-.15.36-.3.72-.44,1.08a6.93,6.93,0,0,0-.31,1.09h0v0a.76.76,0,0,0,.12.61.16.16,0,0,0,.16.06.57.57,0,0,0,.21-.13l.28-.26c.59-1.16,1.19-2.36,1.83-3.52C38.19,74.27,38.94,73,39.75,71.67Z"/><path d="M75.33,27.49l2.66.79.61.18-.61.18-2.44.71,3.67.52.59.08-.56.19L76.54,31l2.95-.09h.17l-.1.15-1.09,1.63L82.85,29l.56-.73a6.63,6.63,0,0,1,1.52-2.56,3.81,3.81,0,0,1,1.49-1A3.67,3.67,0,0,1,88,24.59l2.59-1.78-1.48.25-.44.07.29-.36,1.57-2L88,22l-.57.29.21-.65.73-2.3-2,2.18-.59.65v-.91l0-2.27-.91,2.15-.5,1.19-.24-1.28-.36-2-.42,2.06-.28,1.35-.45-1.29L81.82,19l-.15,2.7-.06,1-.56-.75-1.29-1.72.59,2.48.18.79L79.89,23l-2.12-1.43,1.13,2,.35.64-.66-.22-1.84-.6,1.7,1.41.55.47h-.7l-2.38,0,2.2,1.32.54.32-.61.1Z"/><path d="M85.38,26.27a9,9,0,0,0-1.11,1.11,1.75,1.75,0,0,1,.67-.25,1.63,1.63,0,0,1,.69.07h0a2.72,2.72,0,0,1-.06-1.06Z"/></svg>