<svg id="Layer_1" data-name="Layer 1" xmlns="http://www.w3.org/2000/svg" width="128" height="128" viewBox="0 0 128 128"><title>Artboard 57</title><path d="M34.64,84.53a4.9,4.9,0,0,1-1.8-.43l-.33.1c-1,.29-2,.54-3.09.74l-.64.12c-.75.66-1.51,1.3-2.29,1.94-1.14.93-2.32,1.82-3.54,2.69s-2.46,1.64-3.72,2.42c-.63.39-1.29.79-1.9,1.14a2.47,2.47,0,0,0-1,1.64,4.62,4.62,0,0,0,2.7.7,6.08,6.08,0,0,0,2.75-.83,45,45,0,0,0,4.81-3.61c1.58-1.28,3.18-2.53,4.78-3.78,1.22-1,2.47-1.91,3.72-2.85A2.26,2.26,0,0,1,34.64,84.53Zm27.7,1.13a33.89,33.89,0,0,1-.51-3.6,19,19,0,0,1-2.17.52c-.62.11-1.21.18-1.82.27a37.26,37.26,0,0,1,1.81,3.9l.1.25c0,.1.07.18.1.18a.21.21,0,0,0,.15.08.22.22,0,0,0,.13,0c.15-.06.34-.17.52-.24a4.45,4.45,0,0,1,1.17-.28,2.43,2.43,0,0,1,.8.09ZM60.88,104.9c.3-.33,4.1-.92,5.86-1.61a2.39,2.39,0,0,1-.86-.3,1.86,1.86,0,0,1-.69-.85c-.13-.33-.22-.63-.32-1-.36-1.22-.68-2.47-1-3.7S63.27,95,63,93.75a33.66,33.66,0,0,1-.49-3.83V89.8a6.56,6.56,0,0,0,.15-2.6h0v0a5.7,5.7,0,0,0-1.62.76l-.47.26a1.26,1.26,0,0,1-.79.08c.4,1.67.91,3.35,1.36,5,.51,1.84,1,3.68,1.42,5.55.21,1,.41,1.88.54,2.86a4.44,4.44,0,0,1,.07.75,2.38,2.38,0,0,1,0,.44,1,1,0,0,1-.32.5,4.58,4.58,0,0,1-1.4.75c-1.64.61-4.81.61-5.06,1s.25,1,.25,1a23.72,23.72,0,0,1,4.26-.48C60.86,105.49,60.59,105.22,60.88,104.9Zm13.55-.85a15.72,15.72,0,0,1-2.58-.7,2,2,0,0,1-1.33-1c-.21-.43-.35-.82-.51-1.23q-.92-2.46-1.76-4.91l-.8-2.48a21.26,21.26,0,0,1-.67-2.56v-.07a4,4,0,0,0,.27-2.1h0a10.09,10.09,0,0,0-2.66-.29,1.47,1.47,0,0,1-.89-.33c.54,1.75,1.08,3.21,1.72,4.93L66.27,96a28.34,28.34,0,0,0,1.24,2.63,14.67,14.67,0,0,1,1.13,2.79,4.15,4.15,0,0,1,.13.81,1.56,1.56,0,0,1-.25,1,2.15,2.15,0,0,1-.76.55c-.25.12-.48.22-.72.31-1.83.58-5.2.78-5.54,1.16s.25.82.38,1.23c0,0,7.29-1.34,7.67-1.38a4.66,4.66,0,0,1,1.18,0c2.84.26,5.64.64,8.44,1.06v-1.41A45.18,45.18,0,0,1,74.43,104.05ZM98.17,29a15.43,15.43,0,0,0-2.55-.43A15.83,15.83,0,0,1,93,28.2l0-.1c.88,0,1.77,0,2.65,0a13,13,0,0,1,2.71.17,21.53,21.53,0,0,1,5.16,1.63,36.32,36.32,0,0,1,4.68,2.64,36.84,36.84,0,0,1,3.49,2.61,8.25,8.25,0,0,0-1.22-1.89A12.45,12.45,0,0,0,108,31c-.9-.64-1.84-1.24-2.79-1.79l-2.85-1.63-.17-.1-.06-.16a1.35,1.35,0,0,0-.41-.56,1.17,1.17,0,0,0-.28-.17,4,4,0,0,0-.42-.13c-1.79-.39-1.84-.71-2.22-1.17a7.86,7.86,0,0,0-1.2-1.11,4.81,4.81,0,0,0-1.76-1,22.59,22.59,0,0,0-4.17-.42h-.16l-.13-.1a4.42,4.42,0,0,0-3.14-1.15,9.66,9.66,0,0,0-3.45.74,5.25,5.25,0,0,0-2.61,2.08c-.31.5-.56,1.05-.89,1.63a6,6,0,0,0-.55,1.63c-.54,2.4-.84,4.89-1.26,7.37s-.91,4.93-1.42,7.39a17.18,17.18,0,0,1-.45,1.85,7.36,7.36,0,0,1-.35.91,1.53,1.53,0,0,1-.7.72,8.66,8.66,0,0,1-3.75.73c-.63,0-1.27,0-1.89,0a9.33,9.33,0,0,0-1.82.16,35.44,35.44,0,0,0-3.61.82c-1.18.34-2.42.66-3.53,1.07a13.69,13.69,0,0,0-3.1,1.87A20.25,20.25,0,0,0,56.21,53a15.7,15.7,0,0,0-1.87,2.56c1.6-1.36,3.19-2.73,4.92-4a11,11,0,0,1,2.1-1.26c.76-.32,1.48-.56,2.24-.83,1.49-.54,3-1.08,4.54-1.48a9.58,9.58,0,0,1,2.44-.34c.8,0,1.59,0,2.39,0,1.55,0,6.36.21,4.8.56a28,28,0,0,1-4.79.38,20.12,20.12,0,0,0-4.63.3c-1.5.38-3,.88-4.48,1.38L61.64,51a12.41,12.41,0,0,0-2,1.11c-2.47,1.66-4.81,3.6-7.28,5.3a2.89,2.89,0,0,0-.6.56c-.88,1.16-1.81,2.28-2.75,3.39-1.11,1.31-2.27,2.57-3.43,3.84S43.25,67.75,42,68.94c-.64.6-1.31,1.11-1.86,1.73a9.52,9.52,0,0,0-1.49,2l0,.06,0,0a31.1,31.1,0,0,0-3.69,3.57,19.47,19.47,0,0,0-1.45,1.81,7.69,7.69,0,0,0-1.1,2.15v0a17.47,17.47,0,0,1-1.22,2.45c-.21.33-.41.64-.63,1,.58-.15,1.17-.32,1.73-.5a15.93,15.93,0,0,0,3.59-2.36l1.09-1.14,2.21-2.24,4.66-4.14c.74-.74,1.49-1.46,2.22-2.21s1.48-1.49,2.14-2.3l.07.06a43.33,43.33,0,0,1-3.89,5c-1.38,1.58-3,2.84-4.45,4.38L37.7,80.52l-1.09,1.13-.54.55A9.82,9.82,0,0,1,34,83.76c.21,0,.43,0,.63,0a4.37,4.37,0,0,0,1.84-.68c.59-.39,1.27-.81,1.84-1.27a13.58,13.58,0,0,0,1.62-1.6A32,32,0,0,1,43.09,77a24.13,24.13,0,0,1,3.71-2.64l.06.08a22.79,22.79,0,0,1-3,3.39,32.22,32.22,0,0,1-3.55,2.81A14.1,14.1,0,0,0,38.52,82c-.36.35-1,1.15-1,1.15-.21.33-.36.78-.06,1a1.85,1.85,0,0,0,1.08.26,5.16,5.16,0,0,0,2.24-.57,3.73,3.73,0,0,0,.86-.71l.84-.88,1.64-1.79c1.09-1.21,2.11-2.45,3.29-3.59a38.88,38.88,0,0,1,3.68-3.2l.08.06a35.25,35.25,0,0,1-3,3.86c-.53.6-1.09,1.19-1.67,1.75l-3.16,3A4.84,4.84,0,0,0,46,82l1-.93,2-1.91,4-3.89c1.33-1.29,2.62-2.58,4-3.86l0,.08-3.72,4.1-3.79,4.06c-.64.67-1.27,1.34-1.93,2l-1,1c-.17.15-.33.32-.52.49l-.13.09.23,0c.44,0,.89.09,1.33.1a12.92,12.92,0,0,0,2.57-.17c1-.67,2-1.52,2.94-2.33s2-1.71,3-2.58L61.86,73l0,0h0c1.35-.85,2.72-1.65,4.14-2.4a13.56,13.56,0,0,1,2.25-1,13.71,13.71,0,0,1,2.4-.46,36.23,36.23,0,0,0,4.57-.95,7.84,7.84,0,0,0,3.77-2.45,57.43,57.43,0,0,0,5.56-6.84A7.24,7.24,0,0,0,86,54.55c0-1.55,0-4.83,0-4.83a12.67,12.67,0,0,1,.94,4.7A8.06,8.06,0,0,1,85.44,59a84.2,84.2,0,0,1-5.91,7.44,15.35,15.35,0,0,1-1.75,1.67,6.11,6.11,0,0,1-2.21,1.13,38.75,38.75,0,0,1-4.73.82,17.56,17.56,0,0,0-2.25.47,14,14,0,0,0-2,1c-1.36.75-2.69,1.56-4,2.4-1.92,1.79-3.86,3.55-5.82,5.26-1,.87-2,1.73-3,2.58l-.77.65c.44-.06.87-.13,1.31-.17.88-.1,1.78,0,2.67,0s1.77,0,2.66-.06a18.13,18.13,0,0,0,2.22-.2c-.08-.89-.12-1.79-.12-2.69h.11a32.44,32.44,0,0,1,1.41,6.36l.1,1.63,0,.37a.33.33,0,0,0,.11.21.35.35,0,0,0,.26.1l.46.12a3.79,3.79,0,0,0,1.58.24c.67,0,1.42.08,1.48,0s.16-.17.3-.47l.35-.75c.23-.49.48-1,.75-1.44.51-1,1-1.92,1.55-2.84L71.82,80a13.57,13.57,0,0,0,1.39-2.87h.11a8.78,8.78,0,0,1-.76,3.23.08.08,0,0,0,0,0,4,4,0,0,0,1.22-.29c.48-.23,1.06-.56,1.56-.83a5.86,5.86,0,0,0,1.28-1.14c.4-.44.81-.88,1.18-1.34.75-.92,1.5-1.86,2.23-2.82s1.42-1.84,2.19-2.79A12.92,12.92,0,0,1,83.72,68c.63-1,1.32-2,1.9-3a21,21,0,0,0,2.63-6.53A29.21,29.21,0,0,0,88.72,55c.1-1.16.2-2.33.2-3.48a23.25,23.25,0,0,0-.67-6.62,2.81,2.81,0,0,1-.29,0A1.44,1.44,0,0,1,86.85,44,12.63,12.63,0,0,1,86,41.64c-.17-.78-.33-1.57-.51-2.34s-.41-1.55-.63-2.32a20.76,20.76,0,0,0-.74-2.19,10.8,10.8,0,0,1-.78-2.35,7.57,7.57,0,0,1-.22-1.23,3.37,3.37,0,0,1,.08-1.39.87.87,0,0,1,.35-.41,1.2,1.2,0,0,1,.36-.15,2.68,2.68,0,0,1,.66-.11,10.41,10.41,0,0,1,1.25,0,7,7,0,0,1,2.06.48A3.59,3.59,0,0,1,88.47,28l.08,0c-.19,1-.23,2.45.65,2.3,1,.06,2.15,0,3.24.14s2.18.32,3.27.51c.56.08,1.1.26,1.62.36s1.07.18,1.61.25a46.13,46.13,0,0,1,6.46,1.28,26.89,26.89,0,0,1,4,1.55A54.64,54.64,0,0,0,103,30.9,27,27,0,0,0,98.17,29ZM89.85,25a2.15,2.15,0,0,1-1.35.83,2.19,2.19,0,0,1-1.45-.61.31.31,0,0,1,0-.44,1.73,1.73,0,0,1,2.8-.22A.32.32,0,0,1,89.85,25Zm2.87,10.36a8.89,8.89,0,0,0-.57-1,8.27,8.27,0,0,0-1.51-1.71,4,4,0,0,0-.47-.29,5.55,5.55,0,0,1-.57-.27,1,1,0,0,1-.43-.52.94.94,0,0,1,0-.41h-.08a1.3,1.3,0,0,1-.93-.52,1.4,1.4,0,0,1-.24-.8,8.09,8.09,0,0,0-2.09-.13,6,6,0,0,0-1.13.12c-.35,0-.79.23-.72.28a2.77,2.77,0,0,0,0,1,8.35,8.35,0,0,0,.24,1.12,22.55,22.55,0,0,0,.7,2.2,44.93,44.93,0,0,1,1.45,4.66,12.69,12.69,0,0,0,1.44,4.47c.2.32.47.53.68.51a.74.74,0,0,0,.39-.15l.53-.27a7.25,7.25,0,0,0,1.39-1.1,2.44,2.44,0,0,0,.62-.74.54.54,0,0,0,.06-.18l.06-.3.18-.61c.22-.78.59-1.56.77-2.23a9.45,9.45,0,0,0,.37-2.23A1.61,1.61,0,0,0,92.72,35.33Z"/><path d="M30.27,10.37V7.67H36V14a7.18,7.18,0,0,1-2.44,1.74,7.44,7.44,0,0,1-3.17.73,6.24,6.24,0,0,1-3.42-.95A6.5,6.5,0,0,1,24.6,12.7a10.67,10.67,0,0,1-.87-4.47,10.64,10.64,0,0,1,.88-4.51A6.49,6.49,0,0,1,26.88.93,5.93,5.93,0,0,1,30.23,0,5.64,5.64,0,0,1,34,1.19a5.69,5.69,0,0,1,1.81,3.5l-2.61.6A3.4,3.4,0,0,0,32.1,3.41a2.79,2.79,0,0,0-1.87-.66A3.33,3.33,0,0,0,27.5,4.07a6.3,6.3,0,0,0-1.05,4,7.16,7.16,0,0,0,1.14,4.39,3.11,3.11,0,0,0,2.62,1.3,3.87,3.87,0,0,0,1.6-.37,5,5,0,0,0,1.49-1v-2Z"/><path d="M38.64,16.23V.27H44.2a7.9,7.9,0,0,1,3,.43,3.42,3.42,0,0,1,1.5,1.49,5.21,5.21,0,0,1,.59,2.54,4.74,4.74,0,0,1-.9,3,4,4,0,0,1-2.55,1.44,6.61,6.61,0,0,1,1.4,1.33,17.91,17.91,0,0,1,1.51,2.6l1.59,3.11H47.24l-1.91-3.47a25,25,0,0,0-1.4-2.36,2,2,0,0,0-.79-.65,3.5,3.5,0,0,0-1.32-.18h-.55v6.66ZM41.27,7h2a9.53,9.53,0,0,0,2.29-.16,1.42,1.42,0,0,0,.79-.63A2.31,2.31,0,0,0,46.62,5a2.12,2.12,0,0,0-.31-1.22,1.56,1.56,0,0,0-.83-.64A10.35,10.35,0,0,0,43.34,3H41.27Z"/><path d="M51.51,8.35a11.39,11.39,0,0,1,.84-4.7A6.38,6.38,0,0,1,54.56.9,5.8,5.8,0,0,1,57.85,0a5.65,5.65,0,0,1,4.58,2.14A9.37,9.37,0,0,1,64.2,8.25a9.56,9.56,0,0,1-1.87,6.26,6,6,0,0,1-8.95,0A9.36,9.36,0,0,1,51.51,8.35Zm2.72-.11a6.78,6.78,0,0,0,1.05,4.13,3.12,3.12,0,0,0,5.17,0,7,7,0,0,0,1-4.2,6.8,6.8,0,0,0-1-4.1,3.12,3.12,0,0,0-2.61-1.33,3.16,3.16,0,0,0-2.63,1.34A6.93,6.93,0,0,0,54.23,8.24Z"/><path d="M66.47.27H69.1V8.91a22.43,22.43,0,0,0,.1,2.63A2.69,2.69,0,0,0,70,13.17a2.92,2.92,0,0,0,3.24.17,2.06,2.06,0,0,0,.79-1.13,14.16,14.16,0,0,0,.21-3.11V.27h2.64V8.65a21.9,21.9,0,0,1-.35,4.64A3.93,3.93,0,0,1,75,15.61a5.22,5.22,0,0,1-3.17.89,5.92,5.92,0,0,1-3.2-.73A4.12,4.12,0,0,1,67,13.7a15.45,15.45,0,0,1-.52-4.92Z"/><path d="M79.94,16.23V.27H82.5l5.36,10.66V.27h2.46v16H87.66L82.4,5.82V16.23Z"/><path d="M93.31.27h4.81a7.21,7.21,0,0,1,2.76.41,4.54,4.54,0,0,1,1.71,1.38,7.09,7.09,0,0,1,1.23,2.51,14,14,0,0,1,.45,3.84,12.43,12.43,0,0,1-.47,3.6,7.28,7.28,0,0,1-1.18,2.42,4.56,4.56,0,0,1-1.74,1.35,6.51,6.51,0,0,1-2.61.45h-5ZM95.94,3V13.53h2a5.17,5.17,0,0,0,1.85-.24,2.21,2.21,0,0,0,.93-.72,4.13,4.13,0,0,0,.61-1.53,12.72,12.72,0,0,0,.24-2.75,12.81,12.81,0,0,0-.25-2.8,3.78,3.78,0,0,0-.76-1.61,2.44,2.44,0,0,0-1.26-.77A10.75,10.75,0,0,0,97.14,3Z"/><path d="M17,127.73v-16H19.6v6.28h5.19v-6.28h2.63v16H24.79v-7H19.6v7Z"/><path d="M29.83,119.85a11.22,11.22,0,0,1,.85-4.7,6.36,6.36,0,0,1,2.2-2.75,5.86,5.86,0,0,1,3.3-.9,5.66,5.66,0,0,1,4.58,2.14A11.45,11.45,0,0,1,40.65,126a5.46,5.46,0,0,1-4.46,2,5.53,5.53,0,0,1-4.48-2A9.37,9.37,0,0,1,29.83,119.85Zm2.72-.11a6.78,6.78,0,0,0,1.05,4.13,3.15,3.15,0,0,0,2.6,1.38,3.12,3.12,0,0,0,2.58-1.37,7,7,0,0,0,1-4.2,6.88,6.88,0,0,0-1-4.1,3.24,3.24,0,0,0-5.24,0A6.85,6.85,0,0,0,32.55,119.74Z"/><path d="M44.83,127.73v-16h5.56a7.65,7.65,0,0,1,3,.43,3.49,3.49,0,0,1,1.51,1.49,5.21,5.21,0,0,1,.58,2.54,4.8,4.8,0,0,1-.89,3,4,4,0,0,1-2.56,1.44A6.44,6.44,0,0,1,53.48,122a18.91,18.91,0,0,1,1.51,2.6l1.59,3.11H53.43l-1.91-3.47a22.24,22.24,0,0,0-1.41-2.36,1.94,1.94,0,0,0-.78-.65,3.57,3.57,0,0,0-1.33-.18h-.54v6.66Zm2.63-9.21h2a9.37,9.37,0,0,0,2.28-.16,1.45,1.45,0,0,0,.8-.63,2.4,2.4,0,0,0,.3-1.28,2.2,2.2,0,0,0-.3-1.22,1.56,1.56,0,0,0-.83-.64,10.35,10.35,0,0,0-2.14-.12H47.46Z"/><path d="M58.26,127.73v-16h2.57l5.35,10.66V111.77h2.46v16H66l-5.27-10.41v10.41Z"/><path d="M71.64,111.77h5.24a8.17,8.17,0,0,1,3,.39,3.42,3.42,0,0,1,1.47,1.39,4.49,4.49,0,0,1,.09,4.32,3.41,3.41,0,0,1-1.33,1.38A3.56,3.56,0,0,1,82,120.66a4.42,4.42,0,0,1,.65,2.44,5.12,5.12,0,0,1-.83,3,3.44,3.44,0,0,1-2,1.48,20.42,20.42,0,0,1-3.69.2H71.64Zm2.64,2.66v3.69H76a17.7,17.7,0,0,0,1.94-.06,1.61,1.61,0,0,0,1.05-.57,2.27,2.27,0,0,0,.07-2.4,1.22,1.22,0,0,0-.75-.55,15,15,0,0,0-2.53-.11Zm0,6.34V125h2.45a7.69,7.69,0,0,0,2.07-.17,1.52,1.52,0,0,0,.77-.66,2.31,2.31,0,0,0,.31-1.26,2.27,2.27,0,0,0-.33-1.28,1.72,1.72,0,0,0-.88-.7,8.77,8.77,0,0,0-2.26-.19Z"/><path d="M85,127.73v-16h2.64v16Z"/><path d="M90.44,127.73V111.9h2.63V125h6.58v2.7Z"/><path d="M101.83,127.73V111.9h2.63V125H111v2.7Z"/></svg>