<svg id="Layer_1" data-name="Layer 1" xmlns="http://www.w3.org/2000/svg" width="128" height="128" viewBox="0 0 128 128"><title>Artboard 58</title><path d="M1.93,127.73v-16H4.56v6.28H9.75v-6.28h2.64v16H9.75v-7H4.56v7Z"/><path d="M27.14,127.73H24.28l-1.15-3.62H17.89l-1.08,3.62H14l5.1-16h2.8Zm-4.86-6.31-1.81-5.93-1.77,5.93Z"/><path d="M28.76,127.73v-16h5.56a7.65,7.65,0,0,1,3,.43,3.49,3.49,0,0,1,1.51,1.49,5.21,5.21,0,0,1,.58,2.54,4.8,4.8,0,0,1-.89,3A4,4,0,0,1,36,120.69,6.44,6.44,0,0,1,37.41,122a18.91,18.91,0,0,1,1.51,2.6l1.59,3.11H37.36l-1.91-3.47A22.24,22.24,0,0,0,34,121.9a1.94,1.94,0,0,0-.78-.65,3.57,3.57,0,0,0-1.33-.18h-.54v6.66Zm2.63-9.21h2a9.37,9.37,0,0,0,2.28-.16,1.45,1.45,0,0,0,.8-.63,2.4,2.4,0,0,0,.3-1.28,2.2,2.2,0,0,0-.3-1.22,1.56,1.56,0,0,0-.83-.64,10.35,10.35,0,0,0-2.14-.12H31.39Z"/><path d="M45.11,127.73V114.47H41.22v-2.7h10.4v2.7H47.74v13.26Z"/><path d="M53.56,127.73v-16h9.71v2.7H56.19V118h6.58v2.69H56.19V125h7.32v2.7Z"/><path d="M66,111.77H71.2a8.17,8.17,0,0,1,3,.39,3.42,3.42,0,0,1,1.47,1.39,4.49,4.49,0,0,1,.09,4.32,3.43,3.43,0,0,1-1.34,1.38,3.48,3.48,0,0,1,1.82,1.41,4.34,4.34,0,0,1,.66,2.44,5.05,5.05,0,0,1-.84,3,3.45,3.45,0,0,1-2,1.48,20.42,20.42,0,0,1-3.69.2H66Zm2.64,2.66v3.69h1.74a17.34,17.34,0,0,0,1.93-.06,1.63,1.63,0,0,0,1.06-.57,2,2,0,0,0,.38-1.26,1.9,1.9,0,0,0-.31-1.14,1.28,1.28,0,0,0-.75-.55,15,15,0,0,0-2.53-.11Zm0,6.34V125h2.45a7.69,7.69,0,0,0,2.07-.17,1.52,1.52,0,0,0,.77-.66,2.31,2.31,0,0,0,.31-1.26,2.27,2.27,0,0,0-.33-1.28A1.72,1.72,0,0,0,73,121a8.77,8.77,0,0,0-2.26-.19Z"/><path d="M79.39,127.73v-16H89.1v2.7H82V118h6.57v2.69H82V125h7.32v2.7Z"/><path d="M91.8,127.73v-16h9.71v2.7H94.43V118H101v2.69H94.43V125h7.32v2.7Z"/><path d="M103.54,122.53l2.58-.31q.43,3.06,2.85,3.06a2.67,2.67,0,0,0,1.88-.63,2,2,0,0,0,.69-1.55,1.68,1.68,0,0,0-.24-.92,1.82,1.82,0,0,0-.73-.63,23.13,23.13,0,0,0-2.37-.82,7.91,7.91,0,0,1-2.47-1.11,4.15,4.15,0,0,1-1.25-1.57A4.77,4.77,0,0,1,104,116a4.64,4.64,0,0,1,.59-2.35,3.9,3.9,0,0,1,1.64-1.58,5.67,5.67,0,0,1,2.58-.53,4.53,4.53,0,0,1,5,4.83l-2.64.14a2.9,2.9,0,0,0-.75-1.79,2.43,2.43,0,0,0-1.65-.51,2.6,2.6,0,0,0-1.64.44,1.35,1.35,0,0,0-.58,1.11,1.39,1.39,0,0,0,.52,1.09,7.3,7.3,0,0,0,2.41,1,9.83,9.83,0,0,1,2.88,1.22,4.08,4.08,0,0,1,1.35,1.64,5.62,5.62,0,0,1,.47,2.44,5,5,0,0,1-1.28,3.5,5.13,5.13,0,0,1-4,1.41C105.69,128,103.9,126.17,103.54,122.53Z"/><path d="M119.56,127.73V114.47h-3.88v-2.7h10.39v2.7H122.2v13.26Z"/><path d="M51.24,103h4.12l.13-.26s-2.58-1.67-2.61-1.67S51.24,103,51.24,103Z"/><path d="M51.69,101.66S49.12,100,49.09,100s-1.64,1.92-1.64,1.92h4.12Z"/><path d="M112.07,103h4.12l.13-.26s-2.58-1.67-2.61-1.67S112.07,103,112.07,103Z"/><path d="M92.18,101.91H96.3l.13-.26S93.85,100,93.82,100,92.18,101.91,92.18,101.91Z"/><path d="M51.08,67.68l-.71-3.37L50,62.63,49.88,62c-.84.18-1.71.34-2.54.46a2.88,2.88,0,0,1,.49.67c.18.33.34.66.49,1,.27.7.52,1.4.74,2.11A27.67,27.67,0,0,1,50,70.6c.09,1.55-.64,6-.18,7.69a11.06,11.06,0,0,0,1.55,2.93,4.14,4.14,0,0,1,.32,1.12l.07,1.14c.08,1.48.13,2.94.16,4.41,0,2.12-.19,5.85-.33,7.77a4.38,4.38,0,0,1-.79,2.2c-.35.49-.76,1.07-1.1,1.52.77.38,1.66,1,2.43,1.29,0,0,2-2.08,2.15-3.6a52,52,0,0,0,.18-5.44c0-1.54,0-4.06-.1-5.6,0-1.18-.09-2.35-.19-3.48a13.49,13.49,0,0,1-1.06-1.84,9.48,9.48,0,0,1-.73-2.08,7.65,7.65,0,0,1-.08-1.12l0-1.07.36-2.08Z"/><path d="M104.21,74.43a31.33,31.33,0,0,0-2.33-3.82c-1.53-1.65-3-3.33-4.58-4.94a32.49,32.49,0,0,0-2.43-2.28c-.42-.35-.89-.61-1.37-1s-.9-.69-1.34-1.06c-1.34-1.13-2.59-2.36-3.82-3.6a1.76,1.76,0,0,0,.14,1.34l1.34,2.09c.89,1.39,1.82,2.78,2.66,4.22v0l0,0a20.76,20.76,0,0,0,1.32,2.79c.5.9,1,1.81,1.56,2.71s1,1.82,1.58,2.73a19.65,19.65,0,0,1,1.46,2.9h0v0c.36,1.61.26,3.23.64,4.7l0,.06v.06q-.66,4.13-1.39,8.24a17.26,17.26,0,0,1-.47,2c-.21.65-.37,1.33-.53,2-.3,1.36-.86,4.17-.86,4.17l-1.48,1.62L96.75,101l.66-.88a.87.87,0,0,1,1.12-.25s.73.69.92.48c.46-.48.17-1.38-.11-2a2.18,2.18,0,0,1-.14-1.42c.36-1.56,1.17-4.94,1.59-6.62.36-1.34.68-2.69,1.06-4l1.09-4v0l0,0,1.3-2.62a9.84,9.84,0,0,0,1-2.65,1.77,1.77,0,0,0-.28-1.23A6.37,6.37,0,0,1,104.21,74.43Z"/><path d="M116.88,95.41c-.18-1-.69-4.6-.88-5.86-.36-2.51-.65-5-.9-7.54a15.18,15.18,0,0,1-.56-2.71,12.76,12.76,0,0,1,0-2.83,17.93,17.93,0,0,0-.48-5.2,36.57,36.57,0,0,0-4.18-4,17,17,0,0,1-2.31-2,11.47,11.47,0,0,1-1.76-2.51,19.67,19.67,0,0,1-1.06-2.4,13.82,13.82,0,0,1-.79-2.93,17.67,17.67,0,0,1,.37-6.4v0h0a28.46,28.46,0,0,0,1.33-4.59,18.08,18.08,0,0,0,.43-4.56,28.2,28.2,0,0,1,2.36,4.25A24.06,24.06,0,0,1,109.2,49a4.52,4.52,0,0,1,.12.75,5.16,5.16,0,0,1,0,.78l0,1.44a23.44,23.44,0,0,1-.21,3,4.83,4.83,0,0,1-.18.78,3.75,3.75,0,0,1-.19.41l-.12.21-.08.13a8.38,8.38,0,0,0-.59,1.2,20.42,20.42,0,0,0-1.47,5,10.91,10.91,0,0,0,1.61,2.2,16.74,16.74,0,0,0,2.26,1.84c.76.59,1.47,1.2,2.18,1.85A26.25,26.25,0,0,1,110.72,65a8.73,8.73,0,0,1-.55-2,4.65,4.65,0,0,1,0-1.12,4.55,4.55,0,0,1,.34-1.06c.54-1.25,1.19-2.4,1.78-3.55A9.43,9.43,0,0,0,113,55.6a10.18,10.18,0,0,0,.23-1.87,23.07,23.07,0,0,0-.26-3.88c-.1-.64-.2-1.27-.35-1.91a4.64,4.64,0,0,0-.72-1.73c-.69-1.07-5-6-7.21-6.74A16,16,0,0,0,103.3,38a9.82,9.82,0,0,0-1.91-1.37,8.34,8.34,0,0,1-2.06-1.33,28.76,28.76,0,0,0-3.64-3.07,10.68,10.68,0,0,0-4.58-.85,20.89,20.89,0,0,0-2.38.07c-.79.09-1.63.12-2.42.16l-4.82.15c-6.43.11-12.84.56-19.33-.14a9,9,0,0,1-1.27-.26,8.13,8.13,0,0,1-1.16-.51L57.6,29.75a12.27,12.27,0,0,0-4.4-1.45,9.9,9.9,0,0,0-4.54.62A9.12,9.12,0,0,0,45,31.74l-.1.13h-.15a31.12,31.12,0,0,1-4.93-.38,26.42,26.42,0,0,1-4.78-1.23,32.63,32.63,0,0,1-4.48-2,25.83,25.83,0,0,1-4.49-3,7.5,7.5,0,0,1-.56-.57l-.93-.19-1.14,1c.1-.16.91-1.39.94-1.39a6.56,6.56,0,0,0,.74-.18l.49,0a8.69,8.69,0,0,0,2.21-.22,4.15,4.15,0,0,0,2-.91A3.56,3.56,0,0,0,31,20.93a12.49,12.49,0,0,0,.2-2.87,8,8,0,0,0-2.3.37,9,9,0,0,0-2,.61,6.59,6.59,0,0,0-1.39,1.29l-1.09,1.79L23,23.43,21.51,24l1.37-.9.6-.73c-.21-.26-.73-.77-.73-.77A2.67,2.67,0,0,1,22.19,20a6.12,6.12,0,0,1,0-1.21c.72-1.71,1.75-4.13,2.43-5.83.19-.46.37-.94.52-1.4a2.91,2.91,0,0,0,.2-1.3,6.23,6.23,0,0,0-1.4-2.39,12,12,0,0,1-1-1.29,3,3,0,0,1-.54-1.78,2.93,2.93,0,0,1,.76-1.71A6.5,6.5,0,0,1,24.47,2a15.56,15.56,0,0,1,1.36-.85A9,9,0,0,1,27.32.56C27.68.43,28,.32,28.41.2a14,14,0,0,0-4.52.67,6.4,6.4,0,0,0-2.65,1.74,2.44,2.44,0,0,0-.58,1.32,5.92,5.92,0,0,0,.09,1.53,8.42,8.42,0,0,0,1.5,2.73A5,5,0,0,1,23,9.85a4.18,4.18,0,0,1,0,1.83,6.47,6.47,0,0,1-1.58,3.06,26.37,26.37,0,0,1-2.73,2.76c-.08-.94,0-3-.3-3.64A3.78,3.78,0,0,0,16.89,12a9.25,9.25,0,0,1-1.82-2A9,9,0,0,1,13.84,7.6a6.72,6.72,0,0,1-.32-2.75,3.79,3.79,0,0,1,.37-1.43,3.54,3.54,0,0,1,.95-1.18c1-.78,2-1.46,3-2.18A12.38,12.38,0,0,0,16.32.4a7.12,7.12,0,0,0-2.65,1.33,4.84,4.84,0,0,0-1.62,2.43A6.89,6.89,0,0,0,11.8,5.6a7.71,7.71,0,0,0,0,1.45A8,8,0,0,0,13,9.65c.51.86,1.1,1.67,1.69,2.5A16,16,0,0,1,16.3,14.8,10.23,10.23,0,0,1,17,18.34a14.57,14.57,0,0,0-1.22,2.39l-.43-.89A7.3,7.3,0,0,0,14,18.45a9.5,9.5,0,0,0-1.94-.79,8,8,0,0,0-2.27-.56,13.13,13.13,0,0,0,0,2.87,3.6,3.6,0,0,0,.93,2,4.19,4.19,0,0,0,1.91,1.08,8.4,8.4,0,0,0,2.17.4h.06l-.1.13-.95,1.15a3.32,3.32,0,0,0-.7,1.13c-.15.79.78,1.69.74,2.78-.3,2-.9,3.89-1.34,5.83s-1,3.85-1.52,5.76v0l0,.07a20,20,0,0,0-1,2.19,7.05,7.05,0,0,0-.36,1.1,2.75,2.75,0,0,0-.06,1.08,2.7,2.7,0,0,0,.17,1,.28.28,0,0,0,.17.15,1.05,1.05,0,0,0,.42.09,11.36,11.36,0,0,1,2.29.36A10.21,10.21,0,0,0,14,45.08a3.32,3.32,0,0,0,1-1.66l0-.17.09-.09a12.15,12.15,0,0,1,1.78-1.39l1.82-1.18a24.3,24.3,0,0,0,2.85-2.42c.59-.58,1.26-1.07,1.87-1.58a15.49,15.49,0,0,1,2-1.34c.09-1.54.2-3.07.35-4.61h.1c.15,1.62.27,3.23.37,4.85v.2l-.18.15a22.16,22.16,0,0,1-2,1.62l-1.95,1.26a27.76,27.76,0,0,1,2.37,2.15c.74.78,1.46,1.58,2.16,2.39s1.4,1.62,2.06,2.46c.33.43.65.85,1,1.24l1.11,1.16c1.48,1.57,3.06,3,4.67,4.43A32.15,32.15,0,0,1,40,57.26l0,0,0,.08a6.78,6.78,0,0,0,1.61,2.47,11.72,11.72,0,0,0,1.19,1,4.48,4.48,0,0,0,1.26.72,9.36,9.36,0,0,0,3,.26,5.24,5.24,0,0,0,2.45-.7,7.62,7.62,0,0,0-1.78-2.81c-.37-.35-.9-.65-1.35-1a14.42,14.42,0,0,1-1.34-1.14,13.59,13.59,0,0,1-2.22-2.69,7.62,7.62,0,0,1-1.3-3.22h.11a7.73,7.73,0,0,0,1.49,3,16.55,16.55,0,0,0,2.31,2.49c.42.36.88.71,1.34,1s1,.59,1.45,1a7.47,7.47,0,0,1,2,3c.11.27.2.56.29.85l.2.84.38,1.68L52,67.45l1.43,6.77v.09l0,2.14c0,.68-.07,1.48,0,2.07a9.72,9.72,0,0,0,.61,2,11.23,11.23,0,0,0,.95,1.86l0,.05v0c.1,1.67.12,3.27.14,4.9l.09,4.88c0,1.63,0,3.25-.05,4.89,0,.87-.1,1.49-1.57,3.2l2.32,1.45A9.08,9.08,0,0,1,57.15,100c.35-.2.79.08,1.08,0s-.59-5.23-.65-6.11c-.12-1.73-.23-3.46-.31-5.17l-.2-5.19,0-1.31a4.25,4.25,0,0,1,.23-1.43,5.77,5.77,0,0,0,.55-2.31c-.11-1.59-.68-3.31-.82-5.08s-.22-3.46-.28-5.19S56.6,64.73,56.6,63a11.61,11.61,0,0,1,.19-2.62,3.7,3.7,0,0,1,.32-.86,5.92,5.92,0,0,0,.48-4.4,0,0,0,0,1,0,0c-.35-1-.64-2.07-1-3.13A16.35,16.35,0,0,1,56,50.32a7,7,0,0,1-.2-1.75,11.51,11.51,0,0,1,.65-3.36l.1,0a11.15,11.15,0,0,0-.21,3.3,6.94,6.94,0,0,0,.33,1.58c.17.47.45,1,.69,1.49a13.79,13.79,0,0,1,1.27,3.2c.11.58.22,3.06-.12,3.54a8.14,8.14,0,0,0-.85,2.09,6.16,6.16,0,0,0-.07,1.06,46.57,46.57,0,0,1,7.92.61c2.74.48,5.5,1.27,8.25.87a26,26,0,0,0,7.82-2.09A13.78,13.78,0,0,0,83,60c.6-.39,1.19-.77,1.78-1.18,1.1-.79,2.29-1.51,3.31-2.39-.18-.18-.35-.38-.52-.57a16,16,0,0,1-1-1.3c-.33-.45-.64-.9-.92-1.37s-.55-.95-.81-1.45l-.09-.16,0-.14a12.51,12.51,0,0,1,.69-2.54,20.58,20.58,0,0,1,1-2.36,41.7,41.7,0,0,1,2.46-4.45l.1.05a46.33,46.33,0,0,0-2,4.64A17.37,17.37,0,0,0,85.8,51.4c.27.42.54.82.78,1.25s.54.94.8,1.43a50.05,50.05,0,0,0,6.08,7c.43.33.88.68,1.34,1s1,.56,1.43.93a26,26,0,0,1,2.52,2.27c1.6,1.59,2.68,3.69,4.24,5.31.78.8,1.56,1.61,2.38,2.35a14.4,14.4,0,0,1,2.28,2.59c1.31,1.86,2.87,3.39,3.85,5.43a17.14,17.14,0,0,1,.69,1.58,15.19,15.19,0,0,1,.51,1.67c.29,1.1.53,2.2.76,3.31.45,2.21.81,4.43,1.17,6.66l.27,1.65a5.75,5.75,0,0,1,.12.91,7.16,7.16,0,0,1,0,.93,12.19,12.19,0,0,1-.74,2.79l2.33,1.28a19,19,0,0,1,.69-3c.21-.18.79,0,1,0a.57.57,0,0,0,.33-.52C118.56,98,117.05,96.37,116.88,95.41ZM21,28.51a1.85,1.85,0,0,1-1.3.06.23.23,0,0,1-.16-.3,1.88,1.88,0,0,1,.77-1,1.86,1.86,0,0,1,1.3-.07.24.24,0,0,1,.17.31A1.91,1.91,0,0,1,21,28.51Z"/></svg>