<svg id="Layer_1" data-name="Layer 1" xmlns="http://www.w3.org/2000/svg" width="128" height="128" viewBox="0 0 128 128"><title>Artboard 59</title><path d="M36.15,127.73v-16h2.64v6.28H44v-6.28h2.63v16H44v-7H38.79v7Z"/><path d="M49.48,127.73v-16h2.64v16Z"/><path d="M54.86,127.73v-16h4.25a13.1,13.1,0,0,1,3.1.23,3.49,3.49,0,0,1,1.92,1.58,5.71,5.71,0,0,1,.76,3.11,5.81,5.81,0,0,1-.66,2.9,3.82,3.82,0,0,1-1.63,1.65,8.58,8.58,0,0,1-3.37.47H57.5v6Zm2.64-13.26V119H59a6.28,6.28,0,0,0,2-.21,1.82,1.82,0,0,0,.87-.74,2.53,2.53,0,0,0,.34-1.33,2.45,2.45,0,0,0-.35-1.34,1.7,1.7,0,0,0-.86-.73,7.67,7.67,0,0,0-2.18-.19Z"/><path d="M67.28,127.73v-16h4.24a13,13,0,0,1,3.1.23,3.49,3.49,0,0,1,1.92,1.58,5.71,5.71,0,0,1,.76,3.11,5.92,5.92,0,0,1-.65,2.9A3.87,3.87,0,0,1,75,121.24a8.64,8.64,0,0,1-3.38.47H69.91v6Zm2.63-13.26V119h1.46a6.28,6.28,0,0,0,2-.21,1.73,1.73,0,0,0,.87-.74,2.76,2.76,0,0,0,0-2.67,1.67,1.67,0,0,0-.86-.73,7.59,7.59,0,0,0-2.17-.19Z"/><path d="M79.16,119.85a11.39,11.39,0,0,1,.84-4.7,6.43,6.43,0,0,1,2.2-2.75,5.86,5.86,0,0,1,3.3-.9,5.66,5.66,0,0,1,4.58,2.14,9.37,9.37,0,0,1,1.77,6.11A9.51,9.51,0,0,1,90,126a5.46,5.46,0,0,1-4.46,2A5.53,5.53,0,0,1,81,126,9.36,9.36,0,0,1,79.16,119.85Zm2.72-.11a6.85,6.85,0,0,0,1,4.13,3.16,3.16,0,0,0,2.6,1.38,3.11,3.11,0,0,0,2.58-1.37,7,7,0,0,0,1-4.2,6.88,6.88,0,0,0-1-4.1,3.24,3.24,0,0,0-5.24,0A6.86,6.86,0,0,0,81.88,119.74Z"/><path d="M123.3,80.7a1.3,1.3,0,0,0-1.64.49c-.15.2-.32.39-.67.84.08-.56,0-.85.15-.94,1.57-1.24.61-2.38,0-3.66-1.45-3.14-2-6.61-3.61-9.71-.06-.14-.2-.24,0-.46,1-.93,1.16-2.24.07-3A8.66,8.66,0,0,1,114,58.64a1.59,1.59,0,0,0-.41-.66c-3.33-3.6-6.64-7.21-11.13-9.47-3-1.51-6-3-8.92-4.66A45.69,45.69,0,0,0,68.93,37.8a90,90,0,0,1-18.74-1.44c-10.14-1.63-19.88-.43-29,4.39a28.13,28.13,0,0,0-10.42,9c-.81.66-2.58,3.28-3.16,3.81a14.41,14.41,0,0,0-3.43,8.27c-.14,2.61,2,5.7,2,5.7s-.49-3.4.35-5.08a13,13,0,0,0,1,4.08c.23.58.76,2-1.21,4.61a5,5,0,0,0-.94,2.74,80.87,80.87,0,0,1-1.17,8.9,6.89,6.89,0,0,0,.87,5.5,5.81,5.81,0,0,0,2.32,2c2.19,1.18,5.81.53,5.91.46a3,3,0,0,1,.39-.14c.1,0,.12-.15.23-.22s.32-.1.37-.22-.15-.2-.13-.34c.09-.69-2.15-.91-2.63-1.2a3.22,3.22,0,0,1-1-3.13c.63-2.57,1.88-4.12,2.76-6.37a2.2,2.2,0,0,1,.79-.93c4-2.78,7-3.55,12-3a6.84,6.84,0,0,1,3.71,1.27,21.17,21.17,0,0,0-9.8.23c-1.45.36-1.63,1-1.21,2.28.67,2,2,3.71,2.9,5.62,1.67,3.72,4.95,4,8.31,4.29.55,0,2.16-.46,2.7-.44a.58.58,0,0,0,.53-.48,1,1,0,0,0-.51-1,8,8,0,0,0-2.1-1c-1.18-.47-3-4.47-2.59-5.64a2.49,2.49,0,0,1,1.09-1.28,3.48,3.48,0,0,1,2.4-.3,130.51,130.51,0,0,1,13.52,2.92c9.62,1.42,14.62,1.49,21.27-3.52h0a8,8,0,0,0,.89,5,5.43,5.43,0,0,1,.61,2.39c.07,3,1.66,4.65,4.37,5.47.67.2,1.42.82,2,.17a11.87,11.87,0,0,0,3.52.46c1.24-.3,1.07-.07,1.56-.52A2.14,2.14,0,0,0,78,89.42a11.83,11.83,0,0,1-3.51-3c-.45-.6.4-1.79,0-2.49h0a7.36,7.36,0,0,1,2.34-8.77c-.17.31-.25.48-.35.63-1.88,3.15-1.91,6.25.27,9.27a5.55,5.55,0,0,1,1,2.26c.52,2.91,2.34,4.34,5.15,4.74.69.1,1.52.59,2-.14a11.65,11.65,0,0,0,3.55-.08c1.18-.49,1-.22,1.47-.75a2.18,2.18,0,0,0-1.54-1.54,11.72,11.72,0,0,1-3.93-2.41,3.74,3.74,0,0,1-1.19-4.32A19.48,19.48,0,0,0,83.89,80a26.73,26.73,0,0,0,.37-7c.76.54.27,1.46,1,1.87,2.5-1.83,3.35-2.22,1.8,0,2.79,1.17,3.13,1,3.83-1.85.34-1.43-.89-6.78-.56-6.83s2.23,5.37,1.81,7.55a2.91,2.91,0,0,0,0,1.82,1.22,1.22,0,0,0,1.52.77c.73-.22.2-.8.13-1.17a15.55,15.55,0,0,1,0-5.69c.66-3.25,2.56-6.13,2.52-5.63-.12,2.51-.81,2.42-1.33,4.83-.61,2.82-.66,5.54,1.05,8,.76,1.11,1.73,1.88,3.12,1.55,2.62-.61,4.36.55,5.76,2.59.63.89,1.27,1.76,2,2.61a11.69,11.69,0,0,0,6,4.19c-.88-2.7-.5-5.36-.8-8a27.53,27.53,0,0,0-1.42-2.91,23,23,0,0,1,2.3,2.67,62.58,62.58,0,0,0,.62,6.29c.48,2.26,2.33,3.25,4.6,2.74a7.81,7.81,0,0,0,4.71-3.3,5.75,5.75,0,0,0,1.2-3A1.37,1.37,0,0,0,123.3,80.7ZM103,69.88a10,10,0,0,0,.83,7.31A5.12,5.12,0,0,1,103,69.88ZM110.86,57a2.13,2.13,0,0,0-1.44-.66c-.5,0-.76.52-.92,1a2.25,2.25,0,0,0,.34,2.32l.92,1.24c-2.32-1.66-2.68-3.28-1.33-4.81a1.23,1.23,0,0,1,1.87-.25c1.14.79,1.29,2.38,1.5,4C111.21,59.55,111.35,57.72,110.86,57Zm3.83,11a1.81,1.81,0,0,1-2.09-2,.35.35,0,0,1,.31-.34,2.34,2.34,0,0,1,1.57.49,2.27,2.27,0,0,1,.54,1.54A.35.35,0,0,1,114.69,68.06Z"/></svg>