<svg id="Layer_1" data-name="Layer 1" xmlns="http://www.w3.org/2000/svg" width="128" height="128" viewBox="0 0 128 128"><defs><style>.cls-1{fill:#61ce63;}</style></defs><title>Artboard 61</title><path class="cls-1" d="M104,128,54.16,50.81,63,37.06a2.07,2.07,0,0,0-.43-2.71,1.68,1.68,0,0,0-2.47.48l-8,12.6-8-12.6a1.68,1.68,0,0,0-2.47-.48,2.07,2.07,0,0,0-.43,2.71l8.79,13.75L0,128H35.13V99.07H68.87V128Z"/><path class="cls-1" d="M119,16V5.7L109.05,0l-9,5.2L91,0,81.05,5.7V16l-9,5.21v11.4l9,5.19V48.3L91,54l9-5.2,9,5.2L119,48.3V37.81l9-5.2V21.21ZM100.89,6.71,109.05,2l8.17,4.69V16L109,20.71,100.89,16Zm-18.09,0L91,2l8.16,4.69V16L91,20.71,82.8,16ZM73.92,31.5V22.31l7.93-4.56,8.07,4.64V31.5l-8,4.6ZM99,47.19l-8,4.6-8-4.6V38l8-4.6L99,38ZM92,31.51V22.4l8-4.61,8,4.6v9.12l-8,4.6Zm25,15.68-8,4.6-8-4.6V38l8-4.6,8,4.6Zm9.35-15.69-8.3,4.6-8-4.6V22.4l8.07-4.64,8.24,4.55Z"/></svg>