<svg id="Layer_1" data-name="Layer 1" xmlns="http://www.w3.org/2000/svg" width="128" height="128" viewBox="0 0 128 128"><defs><style>.cls-1{fill:#d62525;}</style></defs><title>Honey camp (active)</title><path class="cls-1" d="M93.33,104,56,46.11,62.58,35.8a1.56,1.56,0,0,0-.32-2,1.26,1.26,0,0,0-1.77.24l-.08.12-6,9.45-6-9.45a1.26,1.26,0,0,0-1.73-.44l-.12.08a1.56,1.56,0,0,0-.33,2l6.6,10.31L15.33,104H41.68V82.3H67V104Z"/><path class="cls-1" d="M109.92,36V28.27L102.45,24,95.7,27.9,88.92,24l-7.47,4.27V36L74.7,39.91v8.55l6.75,3.89v7.87l7.47,4.28,6.75-3.9,6.75,3.9,7.5-4.28V52.36l6.75-3.9V39.91ZM96.33,29l6.12-3.53L108.58,29v7l-6.16,3.53L96.33,36ZM82.77,29l6.15-3.53L95,29v7l-6.12,3.53L82.77,36Zm-6.66,18.6v-6.9l5.94-3.42,6.06,3.48v6.84l-6,3.44ZM94.92,59.39l-6,3.45-6-3.45V52.5l6-3.45,6,3.45ZM89.67,47.63V40.8l6-3.46,6,3.45v6.84l-6,3.45Zm18.75,11.76-6,3.45-6-3.45V52.5l6-3.45,6,3.45Zm7-11.76-6.23,3.45-6-3.45V40.8l6.06-3.48,6.18,3.41Z"/><path d="M46.79,121.86l2.56,1a7.13,7.13,0,0,1-2,3.91A5,5,0,0,1,43.93,128a5.09,5.09,0,0,1-4.15-2A9.52,9.52,0,0,1,38,119.89a10,10,0,0,1,1.85-6.39,5.22,5.22,0,0,1,4.3-2,5,5,0,0,1,3.68,1.5,6.5,6.5,0,0,1,1.55,3.17l-2.61.76a3.59,3.59,0,0,0-1-2,2.52,2.52,0,0,0-1.76-.69,2.79,2.79,0,0,0-2.37,1.27,7.26,7.26,0,0,0-.91,4.16,7.7,7.7,0,0,0,.89,4.29,2.72,2.72,0,0,0,2.32,1.28,2.38,2.38,0,0,0,1.8-.81A5.12,5.12,0,0,0,46.79,121.86Z"/><path d="M63.41,127.73H60.55l-1.15-3.62H54.17l-1.09,3.62h-2.8l5.09-16h2.8Zm-4.86-6.31-1.8-5.93L55,121.42Z"/><path d="M64.76,127.73v-16h3.95l2.38,10.9,2.36-10.9h4v16H75V115.16l-2.61,12.57H69.81l-2.59-12.57v12.57Z"/><path d="M80,127.73v-16h4.25a13.1,13.1,0,0,1,3.1.23,3.55,3.55,0,0,1,1.92,1.58,6.72,6.72,0,0,1,.1,6,3.82,3.82,0,0,1-1.63,1.65,8.58,8.58,0,0,1-3.37.47H82.66v6Zm2.64-13.26V119h1.46a6.28,6.28,0,0,0,2-.21,1.87,1.87,0,0,0,.87-.74,2.55,2.55,0,0,0,.33-1.33,2.45,2.45,0,0,0-.34-1.34,1.68,1.68,0,0,0-.87-.73,7.54,7.54,0,0,0-2.17-.19Z"/><path d="M32.16,16.23V.27H34.8V6.55H40V.27h2.63v16H40v-7H34.8v7Z"/><path d="M44.81,8.35a11.22,11.22,0,0,1,.85-4.7A6.36,6.36,0,0,1,47.86.9a5.86,5.86,0,0,1,3.3-.9,5.64,5.64,0,0,1,4.57,2.14A9.37,9.37,0,0,1,57.5,8.25a9.5,9.5,0,0,1-1.87,6.26,5.47,5.47,0,0,1-4.46,2,5.55,5.55,0,0,1-4.49-2A9.42,9.42,0,0,1,44.81,8.35Zm2.72-.11a6.78,6.78,0,0,0,1,4.13,3.13,3.13,0,0,0,5.18,0,7,7,0,0,0,1-4.2,6.8,6.8,0,0,0-1-4.1,3.23,3.23,0,0,0-5.23,0A6.85,6.85,0,0,0,47.53,8.24Z"/><path d="M59.6,16.23V.27h2.57l5.36,10.66V.27H70v16H67.33L62.06,5.82V16.23Z"/><path d="M72.77,16.23V.27h9.71V3H75.41V6.51H82V9.2H75.41v4.33h7.31v2.7Z"/><path d="M88.39,16.23V9.51L83.6.27h3.09l3.08,6.31,3-6.31h3L91,9.53v6.7Z"/></svg>