<svg id="Layer_1" data-name="Layer 1" xmlns="http://www.w3.org/2000/svg" width="128" height="128" viewBox="0 0 128 128"><defs><style>.cls-1{fill:#61ce63;}</style></defs><title>Artboard 63</title><path class="cls-1" d="M107.36,38.79V15.09L84.68,2,64,14,43.36,2,20.68,15.09V38.75L0,50.7V76.88L20.66,88.81v24.1L43.32,126l20.68-12,20.66,12,22.68-13.09V88.83l20.66-12V50.7ZM66,17.41,84.68,6.63l18.67,10.78V38.75L84.66,49.55,66,38.79Zm-41.33,0L43.36,6.63,62,17.41V38.75L43.34,49.55,24.69,38.79ZM4,74.56V53l18.51-10.7L41.34,53.2V74.56L22.66,85.34Zm58,36L43.32,121.37,24.67,110.59V89.05L43.32,78.27,62,89.05Zm-16.65-36V53.22L64,42.42,82.65,53.2V74.56L64,85.34Zm58,36L84.66,121.37,66,110.59V89.05L84.66,78.27l18.67,10.78Zm20.66-36L105.34,85.34,86.66,74.56V53.22L105.5,42.34,124,53Z"/></svg>