<svg id="Layer_1" data-name="Layer 1" xmlns="http://www.w3.org/2000/svg" width="128" height="128" viewBox="0 0 128 128"><defs><style>.cls-1{fill:#d62525;}</style></defs><title>Honey hunting signs (active)</title><path class="cls-1" d="M92,47.74V32.45L77.34,24,64,31.74,50.68,24,36.05,32.45V47.71L22.71,55.42V72.31L36,80V95.55L50.66,104,64,96.26,77.33,104,92,95.55V80l13.33-7.74V55.42ZM65.29,33.94l12-6.95,12,7V47.71l-12.06,7-12-6.94Zm-26.66,0,12-6.95,12,7V47.71l-12,7-12-6.94ZM25.29,70.81V56.9L37.23,50l12.15,7V70.81l-12.05,7ZM62.71,94l-12.05,7-12-7V80.16l12-7,12.05,7ZM52,70.81V57.05l12-7,12,7V70.81l-12,7ZM89.39,94l-12.06,7-12-7V80.16l12-7,12,7Zm13.33-23.23-12,7-12-7V57.05l12.15-7,11.94,6.87Z"/><path d="M32.16,16.23V.27H34.8V6.55H40V.27h2.63v16H40v-7H34.8v7Z"/><path d="M44.81,8.35a11.22,11.22,0,0,1,.85-4.7A6.36,6.36,0,0,1,47.86.9a5.86,5.86,0,0,1,3.3-.9,5.64,5.64,0,0,1,4.57,2.14A9.37,9.37,0,0,1,57.5,8.25a9.5,9.5,0,0,1-1.87,6.26,5.47,5.47,0,0,1-4.46,2,5.55,5.55,0,0,1-4.49-2A9.42,9.42,0,0,1,44.81,8.35Zm2.72-.11a6.78,6.78,0,0,0,1,4.13,3.13,3.13,0,0,0,5.18,0,7,7,0,0,0,1-4.2,6.8,6.8,0,0,0-1-4.1,3.23,3.23,0,0,0-5.23,0A6.85,6.85,0,0,0,47.53,8.24Z"/><path d="M59.6,16.23V.27h2.57l5.36,10.66V.27H70v16H67.33L62.06,5.82V16.23Z"/><path d="M72.77,16.23V.27h9.71V3H75.41V6.51H82V9.2H75.41v4.33h7.31v2.7Z"/><path d="M88.39,16.23V9.51L83.6.27h3.09l3.08,6.31,3-6.31h3L91,9.53v6.7Z"/><path d="M0,127.75v-14.5H2.39V119H7.11v-5.71h2.4v14.5H7.11v-6.34H2.39v6.34Z"/><path d="M12,113.25h2.4v7.85a19.29,19.29,0,0,0,.09,2.39A2.37,2.37,0,0,0,15.2,125a2.33,2.33,0,0,0,1.59.53,2.34,2.34,0,0,0,1.35-.37,1.87,1.87,0,0,0,.72-1,12.47,12.47,0,0,0,.2-2.83v-8h2.39v7.62a20.07,20.07,0,0,1-.31,4.22,3.58,3.58,0,0,1-1.41,2.1,4.71,4.71,0,0,1-2.88.81,5.3,5.3,0,0,1-2.9-.67,3.79,3.79,0,0,1-1.52-1.88A14.27,14.27,0,0,1,12,121Z"/><path d="M24,127.75v-14.5h2.34l4.87,9.68v-9.68h2.23v14.5H31l-4.79-9.46v9.46Z"/><path d="M38.65,127.75v-12H35.12v-2.45h9.44v2.45H41v12Z"/><path d="M46.05,127.75v-14.5h2.39v14.5Z"/><path d="M50.77,127.75v-14.5H53.1L58,122.93v-9.68h2.24v14.5H57.79L53,118.29v9.46Z"/><path d="M68.27,122.43V120h5.18v5.77a6.22,6.22,0,0,1-2.22,1.59,6.86,6.86,0,0,1-2.88.66,5.62,5.62,0,0,1-3.11-.87,5.91,5.91,0,0,1-2.13-2.59,9.77,9.77,0,0,1-.78-4.06,9.64,9.64,0,0,1,.79-4.1,6,6,0,0,1,2.07-2.54,5.39,5.39,0,0,1,3-.84,5.11,5.11,0,0,1,3.41,1.08,5.2,5.2,0,0,1,1.65,3.18l-2.38.55a3,3,0,0,0-1-1.71,2.54,2.54,0,0,0-1.7-.6,3,3,0,0,0-2.48,1.2,5.77,5.77,0,0,0-1,3.63,6.53,6.53,0,0,0,1,4,2.82,2.82,0,0,0,2.38,1.18,3.62,3.62,0,0,0,1.46-.33,4.46,4.46,0,0,0,1.35-.91v-1.83Z"/><path d="M77.71,123l2.34-.27c.27,1.85,1.13,2.78,2.59,2.78a2.46,2.46,0,0,0,1.72-.57,1.85,1.85,0,0,0,.62-1.41,1.5,1.5,0,0,0-.22-.84,1.56,1.56,0,0,0-.66-.57,18.55,18.55,0,0,0-2.16-.75,7.07,7.07,0,0,1-2.24-1A3.74,3.74,0,0,1,78.56,119a4.41,4.41,0,0,1-.42-1.91,4.22,4.22,0,0,1,.54-2.13,3.56,3.56,0,0,1,1.49-1.44,5.18,5.18,0,0,1,2.35-.48A4.13,4.13,0,0,1,87,117.39l-2.41.13a2.55,2.55,0,0,0-.68-1.63,2.18,2.18,0,0,0-1.49-.47,2.41,2.41,0,0,0-1.5.41,1.21,1.21,0,0,0-.52,1,1.27,1.27,0,0,0,.47,1,6.72,6.72,0,0,0,2.19.89,9.19,9.19,0,0,1,2.62,1.1,3.92,3.92,0,0,1,1.23,1.5,5.3,5.3,0,0,1,.42,2.22,4.51,4.51,0,0,1-1.16,3.17A4.66,4.66,0,0,1,82.57,128Q78.21,128,77.71,123Z"/><path d="M89.32,127.75v-14.5h2.4v14.5Z"/><path d="M99.55,122.43V120h5.18v5.77a6.22,6.22,0,0,1-2.22,1.59,6.79,6.79,0,0,1-2.88.66,5.57,5.57,0,0,1-3.1-.87,5.86,5.86,0,0,1-2.14-2.59,9.77,9.77,0,0,1-.78-4.06,9.64,9.64,0,0,1,.79-4.1,6,6,0,0,1,2.07-2.54,5.39,5.39,0,0,1,3-.84,4.68,4.68,0,0,1,5.06,4.26l-2.37.55a3.08,3.08,0,0,0-1-1.71,2.59,2.59,0,0,0-1.71-.6A3,3,0,0,0,97,116.7a5.77,5.77,0,0,0-1,3.63,6.53,6.53,0,0,0,1,4,2.84,2.84,0,0,0,2.38,1.18,3.62,3.62,0,0,0,1.46-.33,4.46,4.46,0,0,0,1.35-.91v-1.83Z"/><path d="M107,127.75v-14.5h2.34l4.87,9.68v-9.68h2.23v14.5H114l-4.79-9.46v9.46Z"/><path d="M118.33,123l2.35-.27c.26,1.85,1.13,2.78,2.59,2.78A2.42,2.42,0,0,0,125,125a1.83,1.83,0,0,0,.63-1.41,1.59,1.59,0,0,0-.22-.84,1.66,1.66,0,0,0-.67-.57,17.43,17.43,0,0,0-2.15-.75,7.25,7.25,0,0,1-2.25-1,3.81,3.81,0,0,1-1.13-1.42,4.41,4.41,0,0,1-.42-1.91,4.22,4.22,0,0,1,.54-2.13,3.51,3.51,0,0,1,1.49-1.44,5.13,5.13,0,0,1,2.34-.48,4.12,4.12,0,0,1,4.52,4.39l-2.4.13a2.61,2.61,0,0,0-.68-1.63,2.19,2.19,0,0,0-1.5-.47,2.4,2.4,0,0,0-1.49.41,1.22,1.22,0,0,0-.53,1,1.25,1.25,0,0,0,.48,1,6.72,6.72,0,0,0,2.19.89,9.11,9.11,0,0,1,2.61,1.1,3.75,3.75,0,0,1,1.23,1.5,5.14,5.14,0,0,1,.43,2.22,4.56,4.56,0,0,1-1.16,3.17A4.68,4.68,0,0,1,123.2,128C120.29,128,118.66,126.34,118.33,123Z"/></svg>