<svg id="Layer_1" data-name="Layer 1" xmlns="http://www.w3.org/2000/svg" width="128" height="128" viewBox="0 0 128 128"><title>Artboard 65</title><path d="M24.46,16.23V.27h2.63V6.55h5.2V.27h2.63v16H32.29v-7h-5.2v7Z"/><path d="M37.33,8.35a11.22,11.22,0,0,1,.85-4.7A6.36,6.36,0,0,1,40.38.9a5.86,5.86,0,0,1,3.3-.9,5.66,5.66,0,0,1,4.57,2.14A9.37,9.37,0,0,1,50,8.25a9.5,9.5,0,0,1-1.87,6.26,5.47,5.47,0,0,1-4.46,2,5.55,5.55,0,0,1-4.49-2A9.42,9.42,0,0,1,37.33,8.35Zm2.72-.11a6.76,6.76,0,0,0,1.05,4.13,3.13,3.13,0,0,0,5.18,0,7,7,0,0,0,1-4.2,6.82,6.82,0,0,0-1-4.1,3.23,3.23,0,0,0-5.23,0A6.87,6.87,0,0,0,40.05,8.24Z"/><path d="M51.78,8.35a11.39,11.39,0,0,1,.84-4.7A6.45,6.45,0,0,1,54.83.9a5.82,5.82,0,0,1,3.3-.9A5.67,5.67,0,0,1,62.7,2.14a9.37,9.37,0,0,1,1.77,6.11,9.5,9.5,0,0,1-1.87,6.26,5.49,5.49,0,0,1-4.46,2,5.55,5.55,0,0,1-4.49-2A9.36,9.36,0,0,1,51.78,8.35Zm2.72-.11a6.76,6.76,0,0,0,1,4.13,3.12,3.12,0,0,0,5.17,0,7,7,0,0,0,1-4.2,6.82,6.82,0,0,0-1-4.1,3.12,3.12,0,0,0-2.61-1.33,3.18,3.18,0,0,0-2.63,1.34A7,7,0,0,0,54.5,8.24Z"/><path d="M66.75.27h4.82a7.19,7.19,0,0,1,2.75.41A4.65,4.65,0,0,1,76,2.06a7.09,7.09,0,0,1,1.23,2.51,14.38,14.38,0,0,1,.44,3.84,12.09,12.09,0,0,1-.47,3.6,7.09,7.09,0,0,1-1.18,2.42,4.56,4.56,0,0,1-1.74,1.35,6.47,6.47,0,0,1-2.61.45h-5ZM69.39,3V13.53h2a5.1,5.1,0,0,0,1.84-.24,2.31,2.31,0,0,0,.94-.72,4.33,4.33,0,0,0,.6-1.53A12.72,12.72,0,0,0,75,8.29a12.91,12.91,0,0,0-.24-2.8A3.68,3.68,0,0,0,74,3.89a2.4,2.4,0,0,0-1.25-.78A10.87,10.87,0,0,0,70.58,3Z"/><path d="M80.19,16.23V.27H89.9V3H82.82V6.51h6.57V9.2H82.82v4.33h7.31v2.7Z"/><path d="M92.58.27h4.81a7.21,7.21,0,0,1,2.76.41,4.54,4.54,0,0,1,1.71,1.38,6.93,6.93,0,0,1,1.23,2.51,14,14,0,0,1,.45,3.84,12.43,12.43,0,0,1-.47,3.6,7.28,7.28,0,0,1-1.18,2.42,4.56,4.56,0,0,1-1.74,1.35,6.51,6.51,0,0,1-2.61.45h-5ZM95.21,3V13.53h2A5.17,5.17,0,0,0,99,13.29a2.21,2.21,0,0,0,.93-.72,4.13,4.13,0,0,0,.61-1.53,12.72,12.72,0,0,0,.24-2.75,12.81,12.81,0,0,0-.25-2.8,3.68,3.68,0,0,0-.76-1.6,2.39,2.39,0,0,0-1.26-.78A10.75,10.75,0,0,0,96.41,3Z"/><path d="M25.35,127.72,20.59,111.5H23.5l3.37,12,3.26-12H33l-4.77,16.22Z"/><path d="M34.54,111.5h2.68v8.79a20.79,20.79,0,0,0,.1,2.66,2.69,2.69,0,0,0,.85,1.66,2.56,2.56,0,0,0,1.77.59,2.65,2.65,0,0,0,1.52-.41,2.06,2.06,0,0,0,.8-1.16,14.31,14.31,0,0,0,.22-3.16v-9h2.67V120a22.82,22.82,0,0,1-.34,4.72,4,4,0,0,1-1.58,2.36A5.3,5.3,0,0,1,40,128a6,6,0,0,1-3.25-.75,4.2,4.2,0,0,1-1.69-2.1,15.84,15.84,0,0,1-.53-5Z"/><path d="M48.28,127.72V111.63H51V125h6.68v2.74Z"/><path d="M61.42,127.72V114.24h-4V111.5H68v2.74H64.1v13.48Z"/><path d="M70,111.5h2.68v8.79a20.79,20.79,0,0,0,.1,2.66,2.69,2.69,0,0,0,.85,1.66,2.56,2.56,0,0,0,1.77.59,2.65,2.65,0,0,0,1.52-.41,2.06,2.06,0,0,0,.8-1.16,14.31,14.31,0,0,0,.22-3.16v-9h2.67V120a22.82,22.82,0,0,1-.34,4.72,4.07,4.07,0,0,1-1.57,2.36,5.35,5.35,0,0,1-3.23.9,6,6,0,0,1-3.25-.75,4.2,4.2,0,0,1-1.69-2.1,15.84,15.84,0,0,1-.53-5Z"/><path d="M83.65,127.72V111.5h5.66a7.89,7.89,0,0,1,3.1.44,3.36,3.36,0,0,1,1.52,1.51,5.25,5.25,0,0,1,.6,2.59,4.79,4.79,0,0,1-.91,3.06,4,4,0,0,1-2.6,1.46,6.67,6.67,0,0,1,1.43,1.36A18.75,18.75,0,0,1,94,124.56l1.62,3.16H92.4l-1.94-3.53A23.45,23.45,0,0,0,89,121.8a2.2,2.2,0,0,0-.79-.67,3.72,3.72,0,0,0-1.35-.18h-.56v6.77Zm2.68-9.36h2a9.84,9.84,0,0,0,2.33-.16,1.5,1.5,0,0,0,.81-.65,2.41,2.41,0,0,0,.31-1.29,2.31,2.31,0,0,0-.31-1.25,1.56,1.56,0,0,0-.85-.64,10.34,10.34,0,0,0-2.17-.13H86.33Z"/><path d="M97.29,127.72V111.5h9.88v2.74H100v3.6h6.69v2.73H100V125h7.44v2.74Z"/><path d="M91.84,26.92l.35-.1.39-.07c.25,0,.5,0,.74,0l1.4.11,1,.12a1.46,1.46,0,0,1,.1-.48,2.08,2.08,0,0,1,.63-.82,2.45,2.45,0,0,1,.38-.24H96.6A9.62,9.62,0,0,1,95,25.29a7.46,7.46,0,0,1-1.54-.47,10.16,10.16,0,0,1-1.32-.66l-2.4-.87-1.22-.41L88,22.71a7.76,7.76,0,0,0-1.42.35c-.32.1-.66.2-1,.33l-.53.19-.27.08c-.07,0-.17.06-.24.1a.92.92,0,0,0-.52.82,5.74,5.74,0,0,1,.06,1.12,1.8,1.8,0,0,1-.22.61,2,2,0,0,1-.39.51,2.46,2.46,0,0,1-.67.45h.11a2.54,2.54,0,0,1,.73,0,2.42,2.42,0,0,1,.69.27,3.09,3.09,0,0,1,.31.23l.23.22c.14.15.29.31.45.51a1,1,0,0,1,.18.37.59.59,0,0,1,0,.42,3.16,3.16,0,0,1-.39.57,6,6,0,0,0-.35.56,1.32,1.32,0,0,1-.6.56,1.33,1.33,0,0,1-.9-.07,5.79,5.79,0,0,0-.61-.17,1.06,1.06,0,0,1-.25-.11A4.77,4.77,0,0,0,83,32.19a4.56,4.56,0,0,0,.5.64,1.54,1.54,0,0,1,.56,1.09,1.18,1.18,0,0,1-.24.61c-.1.14-.19.25-.28.36s-.09.09-.14.14a.19.19,0,0,0-.09.16.23.23,0,0,0,.08.17,2.09,2.09,0,0,1,.18.16l0,0,0,.05a.44.44,0,0,1,0,.28.55.55,0,0,1-.11.23l-.11.11-.1.07a4,4,0,0,1-.35.26c-.08.25-.14.5-.2.75a18.21,18.21,0,0,0-.31,1.94,37.22,37.22,0,0,0-.26,3.93c0,1.32.12,2.62.23,3.9A11.84,11.84,0,0,0,82.76,49a4.37,4.37,0,0,0,.34.87l.05.08a5.64,5.64,0,0,0,1.31.68,2.59,2.59,0,0,0,1.27.08,3.83,3.83,0,0,0,1.17-.5A16.25,16.25,0,0,1,86,47.25a22,22,0,0,1-.35-4.79,33,33,0,0,1,.43-4.77A25,25,0,0,1,86.69,35a2.88,2.88,0,0,1,.1-.82,6.85,6.85,0,0,1,.38-.94c.14-.3.3-.59.47-.88l.49-.81.06-.1.12-.06q.57-.33,1.17-.63l1.2-.57c.4-.19.8-.38,1.21-.55l1.25-.49,0,0h0a8.47,8.47,0,0,0,1.81-.5c.45-.17.88-.38,1.32-.58a1,1,0,0,1-.43-.47.07.07,0,0,1,0-.06l-1.15,0c-.46,0-.92,0-1.36.05-.22,0-.44,0-.64.06l-.29,0-.32.06a23.15,23.15,0,0,1-2.73.5,0,0,0,0,1,0,0,0,0,0,0,1,0,0A11.41,11.41,0,0,1,91.84,26.92ZM94,25.48c.43,0,.78.17.77.32s-.38.23-.81.2-.79-.16-.78-.31S93.53,25.46,94,25.48Zm-5.9.83a4.53,4.53,0,0,1-1.81,1,1.18,1.18,0,1,1,0-2.35,4.45,4.45,0,0,1,1.8.89A.29.29,0,0,1,88.07,26.31Z"/><path d="M69.41,102.79c-.57-.27-1.12-.52-1.68-.83a4,4,0,0,1-1.32-1.4,7.75,7.75,0,0,1-.73-1.74A10.49,10.49,0,0,1,65.31,97a11,11,0,0,1,.08-3.34l-1.17.86-.67.5c.1.37.18.75.26,1.12.13.62.23,1.25.33,1.88s.16,1.26.2,1.89a9.87,9.87,0,0,1-.07,2l0,.2-.18,0a14.05,14.05,0,0,1-1.44,0,8.94,8.94,0,0,0-1.39.09,1.75,1.75,0,0,0-.3.1c-.09,0-.11.08-.13.18a1.87,1.87,0,0,0,0,.63,4.36,4.36,0,0,0,.06.49c-.67-.33-.44-.75-.44-.75s-2.23.57-1.85,1.7c.53-.39,1.72-1.18,2.29-.95l.08.44a4.46,4.46,0,0,1,1.38-.54,3.76,3.76,0,0,1,1,0,4,4,0,0,1,.5.11l.42.12q.84.24,1.68.51c.53.16,1,.35,1.57.53l.78-.11c-.66-.47-1.31-1-1.94-1.48a0,0,0,0,1,0-.06.07.07,0,0,1,.06,0q1.51.7,3,1.5l.31.17c.61,0,1.21.13,1.81.23.28-.36.57-.71.86-1.06A15.42,15.42,0,0,1,69.41,102.79Z"/><path d="M51.82,89.65a2.27,2.27,0,0,1-1.22-.21,1.46,1.46,0,0,1-.48-.42l-.19.09h0a16.62,16.62,0,0,1-1.78.74c-.24.08-.48.15-.74.21a3,3,0,0,1-.88.09,1.54,1.54,0,0,1-.6-.16,1.11,1.11,0,0,1-.44-.4l-.47.27a9.35,9.35,0,0,1-1.53.7,3.75,3.75,0,0,1-1.9.14,3,3,0,0,1-1.36-.7l-.24.07a51.84,51.84,0,0,1-3.68,4.28c.78-.2,1.54-.41,2.28-.67A14.93,14.93,0,0,0,40.26,93a5,5,0,0,0,1.36-1l.17-.2.32,0a17.66,17.66,0,0,0,2.52,0,24.18,24.18,0,0,0,2.52-.34c.84-.15,1.68-.35,2.52-.56s1.53-.4,2.31-.63c.07-.21.14-.42.22-.63Z"/><path d="M38.22,80.25a1.24,1.24,0,0,1-.53-.64,1.39,1.39,0,0,1-.06-.19l-.09,0a11.58,11.58,0,0,1-1.18,2.64,20.1,20.1,0,0,1-2.08,2.67c-.74.85-1.49,1.68-2.24,2.51A14.46,14.46,0,0,0,30.67,89l-.17.9a.5.5,0,0,0,.55.7,4.11,4.11,0,0,0,1.5-.27A10,10,0,0,0,34,89.73a6.19,6.19,0,0,0,.74-.47c.2-.21.4-.42.59-.64s.3-.35.46-.52.38-.57.58-.84c.66-.89,1.28-1.79,1.88-2.71s1.1-1.88,1.71-2.79l1-1.51a4.12,4.12,0,0,1-1.31.31A2.58,2.58,0,0,1,38.22,80.25Z"/><path d="M76.53,103l-.07,0-.34.08a2.34,2.34,0,0,1-.4.1,4.23,4.23,0,0,1-1.59-.06,10.39,10.39,0,0,1-2.74-1,7.93,7.93,0,0,1-.83.25l-.49.12a2.52,2.52,0,0,1-.47.06c1.15.34,2.35.54,3.49.86l.62.17-.15.16.76.14,1.21.26.15,0h.09a.05.05,0,0,0,0,0s0,0,0,0,.07-.17.11-.25A3.9,3.9,0,0,1,76.53,103Z"/><path d="M20.75,104.83c0,.06,0,0,0,0Z"/><path d="M83,103.1c-.36,0-.69-.07-1-.12s-.84-.15-1.25-.25a10.64,10.64,0,0,1-1.21-.39,7.35,7.35,0,0,1-1-.55h-.21a6.79,6.79,0,0,1-3.79-1.16c-.14-.1-.27-.22-.4-.33a2,2,0,0,1-.33-.42,4.94,4.94,0,0,1-.38-.9c-.2-.6-.39-1.2-.61-1.79a10.56,10.56,0,0,1-.54-1.82A14.42,14.42,0,0,1,71.93,92c-.34-.27-.66-.54-1-.78-.18-.14-.38-.28-.57-.41l-.3-.2-.16-.11s0,0-.06,0a.78.78,0,0,0-.23.25c-.1.15-.2.34-.3.53s-.15.27-.22.4c.49,1.84.91,3.69,1.3,5.56.09.47.21.95.28,1.44a5,5,0,0,1,0,.78,1.29,1.29,0,0,1,0,.25.71.71,0,0,1-.12.3,1.91,1.91,0,0,1-.27.35,4.16,4.16,0,0,1-1.29.93,3.17,3.17,0,0,1-1.28.31,1,1,0,0,0,.15.14,7.47,7.47,0,0,0,1.63.72h0a.05.05,0,0,1,0,0h0a3.38,3.38,0,0,0,.43-.21l.44-.23c.29-.16.59-.31.89-.46l.09,0,.14,0c.91.32,1.85.62,2.77.85a6.87,6.87,0,0,0,1.36.25,2.06,2.06,0,0,0,.34,0,1.84,1.84,0,0,1,.4,0,5,5,0,0,1,.78.05c1,.13,1.95.41,3,.62a23.54,23.54,0,0,1,2.53,1l.73-.54Z"/><path d="M38,90.53a5,5,0,0,1-1.5,0,1.84,1.84,0,0,1-.85-.34,1.07,1.07,0,0,1-.16-.14,7.56,7.56,0,0,1-1,.56c-.14.07-.29.12-.43.18-.59.69-1.19,1.38-1.82,2a37.43,37.43,0,0,1-3.74,3.71c-.71.59-1.45,1.15-2.21,1.68a10.94,10.94,0,0,1-1.74,2.23,9.19,9.19,0,0,1-1,.94c-.37.29-.76.56-1.14.83a10.93,10.93,0,0,1-1.15.69c-.16.41-.31.81-.43,1.21a1.68,1.68,0,0,0-.07.63l.17,0a7.53,7.53,0,0,0,.74-.32l.78-.37c.53-.24,1.11-.41,1.68-.62a6.62,6.62,0,0,0,1.57-.85c.49-.35.89-.77,1.34-1.16.88-.8,1.72-1.64,2.59-2.44,1.73-1.63,3.41-3.31,5.2-4.88,1.46-1.3,2.94-2.58,4.47-3.82A10.35,10.35,0,0,1,38,90.53Z"/><path d="M53,79.68a2,2,0,0,1-.85-.25,1.4,1.4,0,0,1-.42-.38,15.63,15.63,0,0,1-.84,2.5,16.88,16.88,0,0,1-1.56,2.65,23.51,23.51,0,0,1-1.87,2.44c-.14.15-.26.31-.4.46l.13-.07-.49,1.63a1.68,1.68,0,0,0,0,.18,3.28,3.28,0,0,0,1.08-.2,23.51,23.51,0,0,0,2.51-1l.47-.21c.27-.45.57-.89.88-1.31.68-.91,1.34-1.82,1.93-2.77s1.1-1.94,1.67-2.88c.37-.62.72-1.24,1.08-1.86a6,6,0,0,1-1.64.85A4,4,0,0,1,53,79.68Z"/><path d="M47.4,80.43a1.77,1.77,0,0,1-1.11-.8,12,12,0,0,1-1,2.66,17.22,17.22,0,0,1-1.75,2.58c-.63.82-1.29,1.62-2,2.39a13.72,13.72,0,0,0-1,1.27l0,0,.3.33a1.83,1.83,0,0,0,.95.57,2.5,2.5,0,0,0,1.18-.14,14.22,14.22,0,0,0,2.62-1.35l.7-.41c.23-.38.47-.75.73-1.12a21.7,21.7,0,0,0,1.62-2.53c.49-.87.87-1.8,1.38-2.67.34-.6.68-1.19,1.07-1.78a6,6,0,0,1-2.11,1A3.58,3.58,0,0,1,47.4,80.43Z"/><path d="M42.58,80.39a1.66,1.66,0,0,1-.69-.39,1.77,1.77,0,0,1-.17-.2l0,0a13.31,13.31,0,0,1-1,2.34,19.73,19.73,0,0,1-1.89,2.75c-.68.89-1.38,1.75-2.11,2.59h0l-.71.94.21.64a.31.31,0,0,0,.14.19,1.05,1.05,0,0,0,.36.1,3.83,3.83,0,0,0,1.1-.06,17.88,17.88,0,0,0,2.41-.68h0a18.31,18.31,0,0,1,1-1.62c.61-.83,1.2-1.66,1.75-2.53s1-1.77,1.55-2.62.93-1.47,1.46-2.21a5.38,5.38,0,0,1-2,.77A3.33,3.33,0,0,1,42.58,80.39Z"/><path d="M54.12,83.74c-.69.91-1.42,1.8-2.16,2.65-.29.31-.55.64-.81,1l0,.83c0,.08,0,.14,0,.16s0,0,.06.06a1,1,0,0,0,.55.08,4.89,4.89,0,0,0,1.57-.39A6.53,6.53,0,0,0,56,86.19l1.23-1.62.08-.17c.18-.37.35-.72.51-1.09s.3-.73.44-1.1a10.67,10.67,0,0,1,.44-1.11,14.22,14.22,0,0,1,.83-1.53,5.16,5.16,0,0,1-.84-.21,4.37,4.37,0,0,1-1.25-.69,3,3,0,0,1-.56-.62h0A12.87,12.87,0,0,1,56,80.83a12.24,12.24,0,0,1-.84,1.5C54.79,82.81,54.45,83.28,54.12,83.74Z"/><path d="M81.8,102.19c-.26-.18-.53-.35-.8-.51s-.33-.2-.5-.28l-.24-.1-.07,0a3.65,3.65,0,0,1-1.44.47,11.81,11.81,0,0,0,2,.35C81.12,102.15,81.46,102.17,81.8,102.19Z"/><path d="M25.73,90.35a1.12,1.12,0,0,0,.25.11,2.22,2.22,0,0,0,.82.12l.35,0a7.61,7.61,0,0,0,1.49-.32,6.15,6.15,0,0,0,.71-.28,1.68,1.68,0,0,0,.55-.35l.45-.47A14.67,14.67,0,0,1,31.69,87c.68-.89,1.37-1.77,2-2.66s1.24-1.84,1.9-2.71l1.48-2a3.55,3.55,0,0,1-.91.16,2.48,2.48,0,0,1-1.07-.2,2.2,2.2,0,0,1-.83-.67,3.88,3.88,0,0,1-.69-1.83c0-.15,0-.29-.05-.43-.7,1.17-1.4,2.32-2.12,3.48-1,1.53-1.92,3-2.92,4.57l-.6.89c-1.82,2.47-2.34,3.32-2.44,3.45v0a1.69,1.69,0,0,0-.09.73A.81.81,0,0,0,25.73,90.35Z"/><path d="M19.61,97a24.31,24.31,0,0,1,2.17-2.69,40.08,40.08,0,0,1,3.71-3.42l.22-.19-.16-.11a1,1,0,0,1-.39-.77,1.86,1.86,0,0,1,.14-.66h0s0,0,0,0c-.38.36-.77.7-1.17,1-1,.85-2.06,1.62-3,2.51a13.63,13.63,0,0,0-1.3,1.44,6.48,6.48,0,0,0-1,1.61l0,0a7.83,7.83,0,0,0-.46,1.11c-.13.39-.25.78-.35,1.16,0,.16-.07.32-.1.48h0Z"/><path d="M74.18,85.75a.58.58,0,0,0-.49-.47,2.28,2.28,0,0,0-1.63.47c-.51.33-1,.68-1.51,1s-1,.68-1.52,1-1,.54-1.46.79c.05.18.11.37.15.55l.27,1c.08.29.16.58.24.85.07-.08.14-.17.22-.25a3.87,3.87,0,0,1,.59-.54,1.75,1.75,0,0,1,.41-.22.79.79,0,0,1,.6,0,.69.69,0,0,1,.23.17l.11.13.23.24c.17.15.36.29.54.42a6.51,6.51,0,0,0,1,.57c.25-.24.49-.48.72-.74l.84-.84c.55-.56,1.07-1.14,1.58-1.71a16.6,16.6,0,0,0,1.44-1.74,4.68,4.68,0,0,0,.76-1.61,27.68,27.68,0,0,1-2.55,2l-1,.69.16-1.07A1.93,1.93,0,0,0,74.18,85.75Z"/><path d="M22.63,100.39c.35-.3.72-.58,1.1-.85s.66-.44,1-.64c1.08-1,2.15-2,3.2-3,1.26-1.19,2.58-2.31,3.83-3.54.39-.39.77-.79,1.15-1.18l-.09,0a5,5,0,0,1-1.87.17,1.37,1.37,0,0,1-1-.55,1.12,1.12,0,0,1-.16-.4l-.17.07a6.08,6.08,0,0,1-.8.24,7.51,7.51,0,0,1-1.63.21,4.74,4.74,0,0,1-.75-.06l-.47.44c-1.22,1.15-2.35,2.37-3.56,3.52-.83.8-1.66,1.61-2.48,2.43l-1.07,1.93c-.15.27-.27.45-.41.67l-.39.61-.77,1.2c-.24.4-.48.8-.67,1.19a2.56,2.56,0,0,0-.11.24l.26-.14c.36-.2.74-.4,1.11-.63.73-.45,1.47-.93,2.21-1.41a.07.07,0,0,1,.09,0,0,0,0,0,1,0,.07,15.64,15.64,0,0,1-1.66,1.79c-.16.31-.32.6-.45.87a3.47,3.47,0,0,0-.21.54c.22-.06.44-.14.66-.22a4.69,4.69,0,0,0,1.18-.71c.72-.6,1.25-1.41,1.94-2Z"/><path d="M78.27,39.83a1,1,0,0,1,.5.7,2.6,2.6,0,0,1-.14,1.22,4.82,4.82,0,0,1-.22.57,3.41,3.41,0,0,1,.41.36,2.39,2.39,0,0,1,.52.91,1.54,1.54,0,0,1,0,.95,5.38,5.38,0,0,0,.34,1,10.78,10.78,0,0,0,.69,1.3,11.71,11.71,0,0,0,1.77,2.31l0,0a7.75,7.75,0,0,1-.59-1.92,16.56,16.56,0,0,1-.06-4,33.15,33.15,0,0,1,.51-4c.14-.66.3-1.31.49-1.95a1,1,0,0,0,0-.1A.41.41,0,0,1,82.3,37a.52.52,0,0,1-.08-.36,1.23,1.23,0,0,1,.24-.54,2.49,2.49,0,0,1,.35-.37l.09-.08.06,0s0,.09.08.09.06-.11,0-.19a2.44,2.44,0,0,0-.06-.26c0-.1,0-.2-.07-.3a.6.6,0,0,1,0-.3c.12-.34.3-.65.25-.73a.55.55,0,0,0-.11-.17c-.08-.09-.15-.14-.3-.28a2.9,2.9,0,0,1-.57-.91,3.13,3.13,0,0,1-.21-1,2,2,0,0,1,.17-.95h0a1.16,1.16,0,0,1-.34-.4,2.21,2.21,0,0,1-.2-.75,3.9,3.9,0,0,1,0-.69,2.94,2.94,0,0,1,.12-.7,1.34,1.34,0,0,1,.07-.18.59.59,0,0,1,.13-.17,2.76,2.76,0,0,1,.27-.23,1,1,0,0,1,.17-.1h0c.23-.36.45-.61.62-.91a4.39,4.39,0,0,0,.21-.44,2.84,2.84,0,0,0,.1-.44,4.36,4.36,0,0,1,.35-1.08c.09-.19.17-.36.27-.54a3.43,3.43,0,0,1,.36-.49c.07-.08.15-.14.23-.22l.22-.2a4,4,0,0,1,.47-.34,4.56,4.56,0,0,1,1.09-.52h.07a6.44,6.44,0,0,0-2-.64,5.3,5.3,0,0,0-3,.49,4.43,4.43,0,0,0-2,2.15A8.75,8.75,0,0,0,78.69,27a20.07,20.07,0,0,0,.06,3c.08,1,.24,2,.29,3.07a25,25,0,0,1,0,3.12,10.36,10.36,0,0,1-.18,1.56,4.73,4.73,0,0,1-.21.76,1.69,1.69,0,0,1-.42.65h0a.08.08,0,0,1,0,.08l-.84.39.13,0A1.51,1.51,0,0,1,78.27,39.83Z"/><path d="M89.17,58a5.65,5.65,0,0,0-.64-.86,1.83,1.83,0,0,0-.49-.4c0,.53,0,1.06,0,1.6a8,8,0,0,1-.33,2c-.19.65-.43,1.29-.68,1.91s-.52,1.23-.78,1.85l-.56,1.28L85.35,64c-.26-1.23-.39-2.46-.55-3.66A11,11,0,0,0,84,56.94,4.87,4.87,0,0,0,83,55.63a6.66,6.66,0,0,0-.62-.56l-.34-.24a1.83,1.83,0,0,0-.25-.15.54.54,0,0,0-.45,0,2.2,2.2,0,0,0-.62.41c-.43.39-.85.86-1.33,1.3a.06.06,0,0,1-.09,0,.08.08,0,0,1,0-.07v0h0a4.69,4.69,0,0,0,.11-2.32,4.42,4.42,0,0,0-.8-2,1.06,1.06,0,0,0-.7-.43,1.77,1.77,0,0,0-.75.1,5.22,5.22,0,0,0-1,.45c-.27.15-.56.32-.87.48a1.68,1.68,0,0,1-.18.21h0a.07.07,0,0,1-.1,0s0,0,0,0a2.26,2.26,0,0,1,0-1.92l.12-.23a1.06,1.06,0,0,1,.17-.2,1.9,1.9,0,0,1,.39-.36l.46-.25.47-.19a4.43,4.43,0,0,1,1.89-.19,6.62,6.62,0,0,1,1.43.32,4.79,4.79,0,0,0-2-1.44,5.22,5.22,0,0,0-1.24-.3,9.21,9.21,0,0,0-1.29-.06l-3.83.1,3.53-1.4c.57-.22,1.17-.38,1.69-.58.26-.1.51-.18.76-.3a2.75,2.75,0,0,0,.73-.47,1.53,1.53,0,0,0,.5-.65.57.57,0,0,0-.2-.62c-.19-.15-.42-.28-.64-.45a8.29,8.29,0,0,1-.65-.57l-.32-.32.19-.34a5.67,5.67,0,0,0,.39-.83,1.83,1.83,0,0,0,.17-.73c0-.08,0-.08,0-.11a.41.41,0,0,0-.25-.07,3.21,3.21,0,0,0-.88.11,13.66,13.66,0,0,0-1.86.64,3.68,3.68,0,0,0-.35.15,9.11,9.11,0,0,0-1.25,1.14,6.49,6.49,0,0,0-1,1.58l0,.1-.09.08a19.24,19.24,0,0,1-2.89,1.76c-.49.26-1,.5-1.49.75l-1.5.69c-2,.9-4.08,1.64-6,2.65s-3.84,2.14-5.69,3.32-3.65,2.43-5.48,3.65c-.48.31-.89.59-1.32.92s-.86.65-1.27,1c-.85.68-1.68,1.38-2.5,2.09L41.39,63.3l-2.45,2.16c-.81.71-1.65,1.45-2.43,2.16a7.94,7.94,0,0,0-1.67,2.5,23.08,23.08,0,0,0-1,3c-.07.26-.13.54-.2.81q1.13-1.87,2.31-3.72a13.73,13.73,0,0,1,1.86-2.13c.67-.65,1.37-1.24,2.08-1.82,1.43-1.16,2.9-2.24,4.34-3.36s2.87-2.24,4.25-3.42S51.22,57.13,52.6,56a14.7,14.7,0,0,1,1.16-1.07c.42-.35.86-.66,1.31-1a13.7,13.7,0,0,1,6.08-2.13,10.78,10.78,0,0,1,3.21.13.05.05,0,0,1,0,.07.06.06,0,0,1-.06.05h0a15.9,15.9,0,0,0-6,1.33,15.15,15.15,0,0,0-2.65,1.46c-.41.29-.81.59-1.19.92s-.75.67-1.1,1l0,0,0,0C51.88,58,50.34,59,48.82,60a53.78,53.78,0,0,0-4.37,3.25c-1.4,1.15-2.75,2.39-4,3.66-.63.63-1.27,1.28-1.86,1.93a14.49,14.49,0,0,0-1.62,2l-2.7,4.66-.47.79a6.26,6.26,0,0,0,.14.73,4,4,0,0,0,.77,1.59,1.69,1.69,0,0,0,1.47.58,4.34,4.34,0,0,0,1.65-.6l.6-.35-.08.69a.65.65,0,0,0,.3.71,1.68,1.68,0,0,0,1,.16,3.52,3.52,0,0,0,2-.84l.54-.47.08.68a.76.76,0,0,0,.55.63,2.84,2.84,0,0,0,1.14.13,5.46,5.46,0,0,0,1.19-.24,4,4,0,0,0,1.1-.53l.21-.15,0,.23a1.09,1.09,0,0,0,.35.59,1.69,1.69,0,0,0,.65.34,3,3,0,0,0,1.52,0,5.49,5.49,0,0,0,2.6-1.64l.22-.24.14.32a1.11,1.11,0,0,0,1.07.55,3.77,3.77,0,0,0,1.38-.3,5,5,0,0,0,2.24-1.71l.45-.63.26.73A2.48,2.48,0,0,0,59,78.56a5,5,0,0,0,2.32.14,6.93,6.93,0,0,0,2.25-.78,9.67,9.67,0,0,0,1.94-1.44c.8-.91,1.55-1.88,2.26-2.86.36-.5.69-1,1-1.54s.64-1,.92-1.59c0,0,0,0,.06,0s0,0,0,0a14.35,14.35,0,0,1-.72,1.71c-.26.57-.56,1.11-.87,1.65s-.64,1.08-1,1.59-.72,1-1.11,1.51h0l0,0A9.76,9.76,0,0,1,64,78.66a7.13,7.13,0,0,1-2.54.93,6.67,6.67,0,0,1-1.48.06,8.54,8.54,0,0,1-.45,1.79,6.88,6.88,0,0,1-.52,1.1l-.61,1.06c-.2.35-.42.7-.63,1-.1.17-.2.33-.29.51l-.28.5-.34.95a2.48,2.48,0,0,0-.16.71.51.51,0,0,0,.13.46.92.92,0,0,0,.57.17,2.73,2.73,0,0,0,.76-.09l.1,0h.07a3.73,3.73,0,0,0,2.08-.29,9.27,9.27,0,0,0,2-1.07,20,20,0,0,0,1.78-1.41q.86-.77,1.62-1.59A32.28,32.28,0,0,0,68.66,80a43.82,43.82,0,0,0,2.45-3.8v0l.06-.06a23.74,23.74,0,0,0,3-4.17,24.58,24.58,0,0,0,2.07-4.73,33.44,33.44,0,0,0,1.16-5.06c.12-.87.22-1.73.3-2.6s.08-1.73.14-2.64a.07.07,0,0,1,.07-.06.06.06,0,0,1,.06,0v0a31,31,0,0,1,.15,5.28,25.68,25.68,0,0,1-.89,5.28A19.65,19.65,0,0,1,76.4,70a21,21,0,0,1-1.17,2.44,18.51,18.51,0,0,1-3.32,4.26,44.06,44.06,0,0,1-2.74,3.62c-1,1.18-2,2.31-3.08,3.42a30.6,30.6,0,0,1-3.44,3.08,11.71,11.71,0,0,1-2,1.22,4.56,4.56,0,0,1-2.33.47,4,4,0,0,1-.91.17,1.68,1.68,0,0,1-1.1-.29,1.16,1.16,0,0,1-.39-.52l0-.12-.44.36a8.67,8.67,0,0,1-1.66,1,6.88,6.88,0,0,1-1.3.45,8.68,8.68,0,0,0-.37,1.81,6.22,6.22,0,0,0,.2,2.15l.23-.32a8.51,8.51,0,0,1,.58-.8A7.46,7.46,0,0,1,54.59,91a7.66,7.66,0,0,1,1.82-.94c.32-.13.65-.2,1-.3s.67-.14,1-.21l.76-.17L59,90.2a2.68,2.68,0,0,0,.13,1.42A5.59,5.59,0,0,0,59.81,93a9.25,9.25,0,0,0,1,1.23c.19.19.38.36.58.53a2.51,2.51,0,0,0,.29.2l.06,0c.28-.19.57-.36.86-.52s.8-.42,1.2-.62A22,22,0,0,1,65.94,93a1,1,0,0,0,0-.24c0-.15,0-.29-.08-.44s-.14-.6-.2-.9a4.84,4.84,0,0,1-.06-1.94,2.1,2.1,0,0,1,.48-1,3,3,0,0,1,.41-.39l.34-.31a14.69,14.69,0,0,1,1.48-1.15,12.76,12.76,0,0,1,1.67-.9,7.21,7.21,0,0,1,1.83-.63c.33-.07.65-.13,1-.17a3.85,3.85,0,0,1,1,0,1.7,1.7,0,0,1,.53.19,1.49,1.49,0,0,1,.43.4l.13.21a37.08,37.08,0,0,0,5.08-5,47.52,47.52,0,0,0,4.5-6.4,61.14,61.14,0,0,0,3.53-7,49.33,49.33,0,0,0,2.41-6.89c-.07-.13-.13-.27-.19-.4A20.66,20.66,0,0,0,89.17,58Z"/><path d="M91.54,51.25a12.11,12.11,0,0,0-1.7-1c-.32-.15-.63-.31-1-.48a4.19,4.19,0,0,1-.5-.28A2,2,0,0,1,87.8,49a1.53,1.53,0,0,1-.35-.75,1.79,1.79,0,0,1,0-.73A2.93,2.93,0,0,1,88,46.38l.42-.6.41.55a4.58,4.58,0,0,0,1.07,1.18,1.33,1.33,0,0,0,.7.19,5.09,5.09,0,0,0,.54,0c-.16-.3-.33-.59-.51-.89s-.51-.75-.78-1.12-.58-.71-.88-1-.6-.7-.87-1.05l-.91-1.13,1.52.3a5.58,5.58,0,0,0,.61.09,3.34,3.34,0,0,0,.63,0l-.33-.18c-.24-.14-.48-.31-.72-.46s-.47-.33-.68-.53A6.14,6.14,0,0,1,87,40.38c-.2-.29-.5-.63-.71-1-.06,1-.08,2,0,3.07.06,1.56.3,3.11.51,4.65a37.56,37.56,0,0,0,.91,4.36,1.32,1.32,0,0,1,.52-.25,2.6,2.6,0,0,1,.78-.06,7.78,7.78,0,0,1,1.47.24l1.4.33.26.06A3.45,3.45,0,0,0,91.54,51.25Z"/><path d="M82.14,27.87a.21.21,0,0,0,0,.11.71.71,0,0,0,0,.14,4.49,4.49,0,0,0,.13.59c0,.2.11.39.17.59a2.28,2.28,0,0,0,.19.48.24.24,0,0,0,.08.09l.17.1a6.27,6.27,0,0,1,.63.27,1,1,0,0,0,.39.14.87.87,0,0,0,.43-.21,4,4,0,0,0,.49-.44,1.25,1.25,0,0,0,.35-.48c.1-.33-.41-.42-.78-.67a2,2,0,0,1-.28-.2l-.22-.17a3.9,3.9,0,0,0-.49-.28,3.86,3.86,0,0,0-1.16-.38Z"/><path d="M91,52.41l-.73-.3a9.51,9.51,0,0,0-1.32-.48,1.63,1.63,0,0,0-1.17,0,.09.09,0,0,0,0,.05,14.82,14.82,0,0,1,2.29,2.39c.29.39.57.8.83,1.22,0-.28,0-.55,0-.83a11.54,11.54,0,0,1,0-1.31C90.91,52.92,90.94,52.66,91,52.41Z"/><path d="M101.42,28a3.41,3.41,0,0,0-.7-1.17,6.09,6.09,0,0,0-1.13-1,2.74,2.74,0,0,0-1.43-.4c-.28,0-.57,0-.86,0-.1.25-.21.47-.31.67s-.27.5-.35.71a1.53,1.53,0,0,0-.08.26l.92.1a8,8,0,0,1,2.22.53h0a6.22,6.22,0,0,0-.78-.52,0,0,0,0,1,0-.06s0,0,0,0a3.35,3.35,0,0,1,1,.2,3.86,3.86,0,0,1,.9.47,6.4,6.4,0,0,1,.68.57A1.83,1.83,0,0,0,101.42,28Z"/><path d="M100,27.91a8.61,8.61,0,0,0-2.52-.34h-.94a1.6,1.6,0,0,0,.1.39l.11,0,.08,0,.14,0c.28.06.59.11.91.16l1,.09,1.56.15,0,0C100.23,28.14,100.11,28,100,27.91Z"/><path d="M91,57.39a19.23,19.23,0,0,0-1.44-3,18.75,18.75,0,0,0-1.94-2.72l0,0a.09.09,0,0,1,0-.07l0,0A12.21,12.21,0,0,1,87,50.34a2.78,2.78,0,0,1-1,.89,2.61,2.61,0,0,1-1.7.17,3.51,3.51,0,0,1-1.48-.74,7.34,7.34,0,0,1-1.11-1.12A12.22,12.22,0,0,1,80,47a12,12,0,0,1-.56-1.4c-.08-.26-.15-.53-.21-.79a8.31,8.31,0,0,1-.45.73,8,8,0,0,1-.58.79,2.93,2.93,0,0,1-.59.52,4.91,4.91,0,0,1,1,.46,4.13,4.13,0,0,1,1.15,1.09,3.1,3.1,0,0,1,.57,1.38l0,0a.07.07,0,0,1,0,.09.08.08,0,0,1-.06,0h0a7.3,7.3,0,0,0-1.69.06,4.94,4.94,0,0,0-.76.18,2,2,0,0,1,.49.11,2.43,2.43,0,0,1,1.2,1.06,5,5,0,0,1,.59,2.57c0,.24,0,.49-.07.74,0,0,0-.07.06-.11a2.74,2.74,0,0,1,.76-.81,1.73,1.73,0,0,1,1.37-.22,2.29,2.29,0,0,1,.59.26c.18.1.29.18.44.28a6.81,6.81,0,0,1,.79.65,6.1,6.1,0,0,1,1.2,1.7A11.08,11.08,0,0,1,86,60.17c.06.75.1,1.49.14,2.23l.26-.43a13,13,0,0,0,.84-1.77,5.75,5.75,0,0,0,.35-1.89,14.3,14.3,0,0,0-.1-2l0-.32.16,0a3.32,3.32,0,0,0-.25-.27,12.25,12.25,0,0,1-1-.94l-.4-.51c-.14-.16-.25-.34-.42-.37l0,0a0,0,0,0,1,0,0h0a.27.27,0,0,1,.2-.16,1,1,0,0,1,.24,0,1.68,1.68,0,0,1,.4.11,2.56,2.56,0,0,1,.66.39,4.72,4.72,0,0,1,.89,1.11c.24.34.46.69.67,1a2.28,2.28,0,0,1,.38.3,7.39,7.39,0,0,1,.8.89A23,23,0,0,1,91,59.55c.32.55.62,1.1.91,1.65,0-.22-.06-.43-.1-.65A16.24,16.24,0,0,0,91,57.39Z"/><path d="M83.83,103.89a3.5,3.5,0,0,1-.84.75c.53-.31,1.83.31,2.4.62C85.47,104.34,83.83,103.89,83.83,103.89Z"/><path d="M76.5,103.33s.29.39-.32.8c.53-.31,1.83.31,2.41.62C78.8,103.58,76.5,103.33,76.5,103.33Z"/><path d="M72.29,104.2s.29.39-.32.8c.53-.31,1.83.31,2.41.62C74.59,104.45,72.29,104.2,72.29,104.2Z"/><path d="M68.21,104.8s.23.42-.43.74c.57-.23,1.76.56,2.29,1C70.45,105.36,68.21,104.8,68.21,104.8Z"/></svg>