<svg id="Layer_1" data-name="Layer 1" xmlns="http://www.w3.org/2000/svg" width="128" height="128" viewBox="0 0 128 128"><title>Artboard 66</title><path d="M30.4,16.47V.25h2.68V6.64h5.27V.25H41V16.47H38.35V9.38H33.08v7.09Z"/><path d="M44,.25h2.68V9a20.79,20.79,0,0,0,.1,2.66,2.69,2.69,0,0,0,.85,1.66A2.56,2.56,0,0,0,49.4,14a2.62,2.62,0,0,0,1.52-.41,2.06,2.06,0,0,0,.8-1.16,13.69,13.69,0,0,0,.22-3.16v-9h2.68V8.77a22.65,22.65,0,0,1-.35,4.72,4,4,0,0,1-1.57,2.36,5.33,5.33,0,0,1-3.23.9A6,6,0,0,1,46.22,16a4.2,4.2,0,0,1-1.69-2.1,15.84,15.84,0,0,1-.53-5Z"/><path d="M57.63,16.47V.25h4l2.42,11.08L66.47.25h4V16.47H68V3.69L65.35,16.47H62.76L60.13,3.69V16.47Z"/><path d="M85.38,16.47H82.47L81.3,12.8H76l-1.1,3.67H72L77.2.25h2.85Zm-4.94-6.42L78.6,4l-1.8,6Z"/><path d="M87.05,16.47V.25h2.61L95.1,11.08V.25h2.5V16.47H94.9L89.55,5.89V16.47Z"/><path d="M34.72,127.48H31.85l-1.14-3.62H25.47l-1.08,3.62H21.58l5.09-16h2.8Zm-4.86-6.31-1.81-5.93-1.77,5.93Z"/><path d="M44.7,121.61l2.56,1a7.13,7.13,0,0,1-2,3.91,5,5,0,0,1-3.43,1.24,5.09,5.09,0,0,1-4.15-2,9.52,9.52,0,0,1-1.83-6.14,10,10,0,0,1,1.84-6.39,5.25,5.25,0,0,1,4.31-2,5,5,0,0,1,3.68,1.5,6.59,6.59,0,0,1,1.55,3.17l-2.61.76a3.66,3.66,0,0,0-1-2,2.52,2.52,0,0,0-1.76-.69,2.79,2.79,0,0,0-2.37,1.27,7.25,7.25,0,0,0-.92,4.16,7.69,7.69,0,0,0,.9,4.29A2.71,2.71,0,0,0,41.8,125a2.4,2.4,0,0,0,1.8-.81A5.08,5.08,0,0,0,44.7,121.61Z"/><path d="M52.68,127.48V114.22H48.8v-2.7H59.19v2.7H55.32v13.26Z"/><path d="M61.05,127.48v-16h2.63v16Z"/><path d="M69.78,127.48l-4.68-16H68l3.32,11.81,3.2-11.81h2.81l-4.69,16Z"/><path d="M78.77,127.48v-16H81.4v16Z"/><path d="M87.1,127.48V114.22H83.21v-2.7h10.4v2.7H89.73v13.26Z"/><path d="M99,127.48v-6.72l-4.79-9.24h3.09l3.07,6.31,3-6.31h3l-4.81,9.26v6.7Z"/><path d="M32.75,98.66a5.38,5.38,0,0,0,5.4,5.33H64.79c3.87,0,6.81-4.06,4.38-7.71L57.76,83.45l9.33-2.94,11,20.52a5.78,5.78,0,0,0,7.5,2.43A5.62,5.62,0,0,0,88.43,96c0-.08-.07-.15-.1-.22L75.22,69.17a4.93,4.93,0,0,0-6-2.5L56,70.94l4.37-12.83L68.94,62a4.86,4.86,0,0,0,6.43-2.39l0-.11L81.55,44.1a4.28,4.28,0,0,0,0-3.33H83a.55.55,0,0,0,.55-.57h0V37.84l7.22.5V29.47l-7.22.5V27.4a.56.56,0,0,0-.55-.58H79.42a.39.39,0,0,1-.39-.4.53.53,0,0,1,0-.18L80,24.56a.37.37,0,0,0-.14-.51.41.41,0,0,0-.18-.05l-5.28,2.42a1.55,1.55,0,0,0-.88,1.4V40.21a.6.6,0,0,0,.11.34c0,.08-.08.15-.11.24L68.91,52.27l-14.53-6.1a6.16,6.16,0,0,0-8.06,3.27c-.08.19-.15.39-.21.58L38.57,75a8.52,8.52,0,0,0,2.11,7.65L51.93,93.34H38.15a5.37,5.37,0,0,0-5.4,5.33h0Z"/><ellipse cx="60.39" cy="34.75" rx="9.89" ry="9.76"/><path d="M94.15,29.16,92,29.29v9.23l2.12.14a1,1,0,0,0,1.09-1s0-.06,0-.08V30.2a1,1,0,0,0-1-1.05Z"/></svg>