<svg id="Layer_1" data-name="Layer 1" xmlns="http://www.w3.org/2000/svg" width="128" height="128" viewBox="0 0 128 128"><title>Artboard 67</title><path d="M28.57,128V111.5H31.3V128Z"/><path d="M34.1,128V111.5h4.09l2.46,11.27,2.44-11.27h4.1V128H44.65V115L42,128H39.33l-2.68-13v13Z"/><path d="M50.11,128V111.5H54.5a13.21,13.21,0,0,1,3.21.24,3.63,3.63,0,0,1,2,1.63,6,6,0,0,1,.78,3.22,6.11,6.11,0,0,1-.67,3,4,4,0,0,1-1.69,1.7,8.91,8.91,0,0,1-3.49.49H52.84V128Zm2.73-13.71V119h1.51a6.72,6.72,0,0,0,2.07-.21,1.89,1.89,0,0,0,.9-.77,2.56,2.56,0,0,0,.35-1.37,2.44,2.44,0,0,0-.37-1.39,1.75,1.75,0,0,0-.89-.76,8.47,8.47,0,0,0-2.24-.19Z"/><path d="M73.78,128h-3l-1.19-3.74H64.21L63.1,128H60.19l5.27-16.5h2.89Zm-5-6.53-1.87-6.12-1.83,6.12Z"/><path d="M75.52,128V111.64h2.72v13.57H85V128Z"/><path d="M99.43,128h-3l-1.19-3.74H89.87L88.75,128H85.84l5.27-16.5H94Zm-5-6.53-1.87-6.12-1.83,6.12Z"/><path d="M7.14,66.84A17.61,17.61,0,0,1,7,60.91,12.29,12.29,0,0,1,7.85,58a10.71,10.71,0,0,1,.69-1.35c.24-.42.47-.82.7-1.24L9.47,55c0-1.2-.08-2.38-.16-3.56,0-.35-.06-.72-.11-1.06a8.14,8.14,0,0,0-.28-1c-.22-.68-.49-1.34-.77-2C7.59,46.05,7,44.74,6.33,43.44l-.09-.16.16.57L7,46.13A12.45,12.45,0,0,1,7.5,48.5a18.26,18.26,0,0,1-.29,4.79,6.72,6.72,0,0,1-1,2.22c-.41.67-.83,1.35-1.2,2a10.16,10.16,0,0,0-.92,2.1A2.76,2.76,0,0,0,4,60.69c0,.39,0,.77.06,1.15a20,20,0,0,0,.86,4.5A15.41,15.41,0,0,0,7,70.41a12.71,12.71,0,0,0,2.35,2.4c-.08-.13-.18-.26-.25-.4A19.51,19.51,0,0,1,7.14,66.84Z"/><path d="M74,69s.86-2.83-.43-4.88L73.47,64v-.1l-.34-6.52-.29-6.51-.5-4.41c-.61.32-1.21.64-1.84.94-.95.44-1.91.87-2.9,1.25a12.48,12.48,0,0,1-3,.84c-.1.15-.19.33-.28.48a25.13,25.13,0,0,1,1.93,4.38,26.19,26.19,0,0,1,1.27,5A43.36,43.36,0,0,0,69,64.17a22.83,22.83,0,0,0,2,4.7s4,15.83,3.92,21A10.47,10.47,0,0,1,74,93.31c-.43,1-.9,2-1.41,3l3.72,1.93a24.65,24.65,0,0,1,.19-4.36,9.66,9.66,0,0,1,1-2.31c.34-.66.7-1.3,1.06-1.94,0,0-2.54-10.56-3-12.73S74.37,71.18,74,69Z"/><path d="M107.7,54.89c-.81-2.52-1.54-5.06-2.15-7.64-1.9-1-4.84-2.79-4.84-2.79a18.12,18.12,0,0,0-1.32-3.68c-.58-1.09-1.9-3.78-2.12-4.28a18.73,18.73,0,0,1-4.07,3.15c-.23.17-.48.3-.73.45a20,20,0,0,1,1.24,2.22c.5,1,1,2,1.43,3,.89,2.05,1.74,4.1,2.57,6.16,1.56,4.14,3.48,8.21,4.26,12.69a17,17,0,0,1,.23,3.43c0,.28-.07.58-.1.87s-2.15,6.63-3,8.67c-1.76,4.08-3.57,9.73-5.26,13.84V91a7.65,7.65,0,0,1-3.67,5.17L94,98.26a4.6,4.6,0,0,1,2-3.81,1,1,0,0,0,.29-.53c.21-1.16.16-3.09.51-3.54a.87.87,0,0,1,.91-.29s.64.38.78.22a1.42,1.42,0,0,0,.08-1.51,1.79,1.79,0,0,1,0-1.4c1-2.27,3.89-8.85,5.48-12.37l1.45-3.22.73-1.62.83-1.56,2.82-5.24a2.15,2.15,0,0,0,.13-1.72C109.16,59.42,108.42,57.15,107.7,54.89Z"/><path d="M117.83,32.14c-.26.43-.53.86-.79,1.3a11.94,11.94,0,0,0,4.23-2.65,6.63,6.63,0,0,0,1.4-2.17,13,13,0,0,0,.55-2.68,12.35,12.35,0,0,0,0-2.85,24,24,0,0,0-.63-2.79c-.11-.51-.21-1-.3-1.55-.18,1.36-.43,2.71-.73,4a48,48,0,0,1-1.34,4.87A19.62,19.62,0,0,1,117.83,32.14Z"/><path d="M123.34,71.51l.31-7c.11-2,.21-3.87.34-5.82a2.17,2.17,0,0,0-.59-1.64c-.9-1-1.67-2-2.45-3-1-1.33-2-2.67-3-4a16.24,16.24,0,0,1-2.55-4.34,22.76,22.76,0,0,1-1.16-4.54.61.61,0,0,1,0-.13l0-.19h0a9.32,9.32,0,0,1,.87-4.61,42.13,42.13,0,0,1,2.32-4.48,19,19,0,0,0,2.16-4.42c.47-1.58.85-3.2,1.18-4.82a43.69,43.69,0,0,0,.76-4.9,10.29,10.29,0,0,0,0-2.36,1.19,1.19,0,0,0-.12-.42l0-.09-.1-.11-.19-.21c-.28-.3-.56-.59-.86-.86a32.68,32.68,0,0,0-8-5.68,37.51,37.51,0,0,0-9.49-2.49c-1.63-.21-3.27-.23-5-.28l-5-.08c-1.65,0-3.32,0-5,0a21.09,21.09,0,0,0-4.9.44,46.34,46.34,0,0,0-9.34,3.3,59.39,59.39,0,0,1-9.28,3.82c-3.24,1-6.68,1.07-9.64,2.57A11.4,11.4,0,0,0,51,18.65c-.5.65-1.05,1.33-1.61,1.93s-1.07,1.26-1.57,1.93q-1.5,2-2.82,4.11c-.87,1.39-1.65,2.88-2.5,4.32-1.7,2.88-3.36,5.78-5,8.67-.82,1.45-1.64,2.91-2.31,4.39s-1.37,3.07-2.11,4.57c-1.49,3-3.14,5.93-4.84,8.81a76.81,76.81,0,0,1-5,7.66,5.51,5.51,0,0,1-.12.92,8.17,8.17,0,0,1-1.36,2.85c.59.51,1.18,1,1.75,1.58l-.06.09c-.79-.43-1.56-.88-2.31-1.36L20.89,69l.15-.31a9.62,9.62,0,0,0,1-2.9A3.65,3.65,0,0,0,22,64.4c-.11-.33-.45-.89-.67-1.36-.5-1-.95-1.95-1.47-2.88-.27-.46-.53-.94-.81-1.37a3.83,3.83,0,0,0-.84-1,1.73,1.73,0,0,0-1.07.86,5.28,5.28,0,0,0-.67,1.62,11.5,11.5,0,0,0-.28,3.56c0,.6.07,1.19.14,1.77a9.29,9.29,0,0,0,.47,1.6,13.65,13.65,0,0,0,1.68,3l.09.12v.1c0,1,0,2.09-.15,3.14h-.1c-.2-1-.35-2-.47-2.95l-2.66.81-.08,0L15,71.43a14.14,14.14,0,0,1-2-1.78,9.25,9.25,0,0,1-1.66-2.16,14.15,14.15,0,0,1-1.09-5.3,17.46,17.46,0,0,1,.1-2.7,8.13,8.13,0,0,1,.76-2.69c.75-1.58,1.48-3.17,2.1-4.78a20.65,20.65,0,0,0,1.32-4.92c.17-1.57-.68-3.13-1.52-4.61a29.62,29.62,0,0,0-3-4.19c-.47-.55-1-1.07-1.47-1.57.49.78.93,1.59,1.36,2.4a36.26,36.26,0,0,1,2.29,5.37,6.75,6.75,0,0,1,.35,2.93,16.59,16.59,0,0,1-.5,2.9,30.36,30.36,0,0,1-2,5.52c-.21.44-.47.89-.7,1.29a12,12,0,0,0-.61,1.25A14.49,14.49,0,0,0,8,61.08,16.83,16.83,0,0,0,8,66.7,21.74,21.74,0,0,0,9.6,72.14a10.22,10.22,0,0,0,3.57,4.2s-.07,1.51-.13,2.28a7.53,7.53,0,0,0,0,1.16,1.85,1.85,0,0,0,.29,1l-.05,0,.05,0a1.71,1.71,0,0,1,.45,1.2c0,.41,0,.82,0,1.23l-.17,2.4a26.71,26.71,0,0,0,.12,4.73A39.23,39.23,0,0,0,14.49,95c.1.36.2.73.32,1a1.37,1.37,0,0,0,.56.62,4.86,4.86,0,0,0,1.75.62c.55-1.23,1.1-2.45,1.73-3.64l.11,0c-.26,1.13-.58,2.26-.91,3.38a7.78,7.78,0,0,0,1.92,0,2.33,2.33,0,0,0,1.58-.76A3.28,3.28,0,0,0,22,94.67a13.89,13.89,0,0,0,0-2v-.25l.14-.16a31.44,31.44,0,0,0,3.81-5.11,20.4,20.4,0,0,0,1.41-2.85A10.37,10.37,0,0,0,28,81.71a7.73,7.73,0,0,0-.45-2.9c-.42-.75-.86-1.49-1.31-2.23s-.91-1.61-1.38-2.43l.09-.06c.61.71,1.24,1.4,1.82,2.13s1.18,1.43,1.79,2.14l.08.09,0,.23a5.16,5.16,0,0,1-.06,1.3,42,42,0,0,1,2.23-4.15l2.33-3.78c1.56-2.52,3.07-5.07,4.75-7.52A34.64,34.64,0,0,1,40.64,61c1-1.11,2.07-2.13,3.13-3.18a41.62,41.62,0,0,1,3.35-3A23.37,23.37,0,0,0,50.48,52l.11-.11h.09c.8.05,1.6.11,2.39.18a13.41,13.41,0,0,0,0-2.76,28.06,28.06,0,0,0-1.3-5.45l.1,0a28.4,28.4,0,0,1,1.66,5.43A22.08,22.08,0,0,1,53.4,55C53,58.7,51.45,66.14,51.45,66.14a34.46,34.46,0,0,0-1.06,3.67,12.87,12.87,0,0,0-.18,1.85,19.22,19.22,0,0,0,.14,2s-1.84,6.62-2.8,9.84l-2.33,8.67a11.77,11.77,0,0,1-.88,2.29L42,99.3l4,2.11A23,23,0,0,1,46,98a7.44,7.44,0,0,1,.75-2.53,3.1,3.1,0,0,1,1.5-1.31Q49.5,89,50.63,83.86l1.15-5.19c.4-1.73,1.07-4.71,1.07-4.71a9,9,0,0,0,1.78-2.4,10,10,0,0,0,.76-3.16s1.7-3.7,2.5-5.54,1.56-3.7,2.21-5.58a29.53,29.53,0,0,1,2.66-5.48c.42-.7.86-1.38,1.31-2.06h0c.58-.9,1.19-1.77,1.83-2.62a8,8,0,0,0,.51-1.83l.37-2c.23-1.24.5-2.47.8-3.7-1.12-1.5-2.39-2.93-3.65-4.34s-2.64-3-4-4.45l.08-.07c1.47,1.35,2.94,2.69,4.37,4.09s2.83,2.79,4.16,4.33l.15.15,0,.27a19.5,19.5,0,0,1-.85,3.82,17.9,17.9,0,0,1-.76,2.08,6.83,6.83,0,0,1-1.74,3.1c.89-.36,1.12-.11,2-.56s1.84-1,2.76-1.47,1.87-.95,2.84-1.35,3.09-1,3.09-1a18.43,18.43,0,0,0,5.8-1c1.87-.61,3.75-1.2,5.58-1.93S91,39.69,92.7,38.8a16.38,16.38,0,0,0,4.22-3.09c-.7-1.66-1.33-3.35-2-5a23.81,23.81,0,0,1-1.46-7.28A72.3,72.3,0,0,1,93.36,16h.11a68.37,68.37,0,0,0,.56,7.3,23.62,23.62,0,0,0,1.72,7c1,2.23,2.06,4.44,3,6.71l1.35,3.4.69,1.7a13,13,0,0,0,.73,1.67c.84.66,1.74,1.22,2.64,1.81a9.48,9.48,0,0,1,2.46,2.15l3.9,5.11L114.4,58a23.6,23.6,0,0,1,3.31,5.63A24.1,24.1,0,0,1,119.35,70a129.4,129.4,0,0,1-.19,20.89,11.46,11.46,0,0,1-1.43,4.45l-1.5,2.63s3.19,1.63,3.9,2a7.14,7.14,0,0,1,2.26-4.31,1.45,1.45,0,0,0,.46-1.2l-.42-4.09a.76.76,0,0,1,.74-.84h0c1.36-.44-.16-2.28-.3-2.77S123.18,75,123.34,71.51ZM16.43,79.17a2.12,2.12,0,0,1-1.26,1,.32.32,0,0,1-.39-.2,2.12,2.12,0,0,1,0-1.58A2.16,2.16,0,0,1,16,77.4a.32.32,0,0,1,.4.19A2.13,2.13,0,0,1,16.43,79.17Z"/><path d="M39.26,102.87,45,103l.15-.32s-3.87-2.19-3.91-2.19S39.26,102.87,39.26,102.87Z"/><path d="M113.62,101.28l5.77.13.15-.32s-3.87-2.19-3.91-2.19S113.62,101.28,113.62,101.28Z"/><path d="M69.87,99.56l5.77.13.15-.32s-3.88-2.19-3.91-2.19S69.87,99.56,69.87,99.56Z"/><path d="M87.48,99.56l5.77.13.15-.32s-3.87-2.19-3.91-2.19S87.48,99.56,87.48,99.56Z"/></svg>