<svg id="Layer_1" data-name="Layer 1" xmlns="http://www.w3.org/2000/svg" width="128" height="128" viewBox="0 0 128 128"><title>Artboard 68</title><path d="M0,11l2.56-.31c.29,2,1.24,3,2.84,3a2.66,2.66,0,0,0,1.87-.62A2,2,0,0,0,8,11.53a1.68,1.68,0,0,0-.24-.92A1.77,1.77,0,0,0,7,10a22.61,22.61,0,0,0-2.36-.82,7.73,7.73,0,0,1-2.46-1.1A4,4,0,0,1,.94,6.51,4.72,4.72,0,0,1,.48,4.43,4.56,4.56,0,0,1,1.07,2.1,3.77,3.77,0,0,1,2.69.53,5.68,5.68,0,0,1,5.26,0,5,5,0,0,1,8.84,1.24,5,5,0,0,1,10.2,4.8l-2.63.14a2.76,2.76,0,0,0-.75-1.78,2.36,2.36,0,0,0-1.63-.51,2.66,2.66,0,0,0-1.63.44A1.36,1.36,0,0,0,3,4.19a1.37,1.37,0,0,0,.53,1.09,7.09,7.09,0,0,0,2.39,1A10.1,10.1,0,0,1,8.76,7.46,4.11,4.11,0,0,1,10.1,9.09a5.75,5.75,0,0,1,.47,2.43A5,5,0,0,1,9.3,15a5.12,5.12,0,0,1-4,1.41C2.13,16.4.36,14.58,0,11Z"/><path d="M12.92,16.13V.27h2.62V16.13Z"/><path d="M18.26.27H23a7.13,7.13,0,0,1,2.74.41A4.55,4.55,0,0,1,27.48,2a7,7,0,0,1,1.22,2.5,13.84,13.84,0,0,1,.45,3.82,12.21,12.21,0,0,1-.47,3.57,7,7,0,0,1-1.18,2.41,4.57,4.57,0,0,1-1.72,1.34,6.42,6.42,0,0,1-2.6.45H18.26ZM20.87,3V13.44h2a5.29,5.29,0,0,0,1.83-.23,2.21,2.21,0,0,0,.93-.72A3.86,3.86,0,0,0,26.2,11a12.52,12.52,0,0,0,.24-2.73,12.64,12.64,0,0,0-.24-2.78,3.68,3.68,0,0,0-.76-1.6,2.45,2.45,0,0,0-1.25-.77A10.56,10.56,0,0,0,22.06,3Z"/><path d="M31.61,16.13V.27h9.64V3h-7V6.47h6.54V9.14H34.22v4.3h7.27v2.69Z"/><path d="M43.18,11.9v-3h4.9v3Z"/><path d="M49.54,11l2.56-.31c.29,2,1.23,3,2.83,3a2.67,2.67,0,0,0,1.88-.62,2,2,0,0,0,.68-1.54,1.68,1.68,0,0,0-.24-.92,1.74,1.74,0,0,0-.73-.62,22.1,22.1,0,0,0-2.35-.82,7.73,7.73,0,0,1-2.46-1.1,4.12,4.12,0,0,1-1.24-1.56A4.87,4.87,0,0,1,50,4.43,4.66,4.66,0,0,1,50.6,2.1,3.85,3.85,0,0,1,52.23.53,5.64,5.64,0,0,1,54.79,0a5,5,0,0,1,3.58,1.24A5,5,0,0,1,59.74,4.8l-2.63.14a2.87,2.87,0,0,0-.75-1.78,2.36,2.36,0,0,0-1.63-.51,2.64,2.64,0,0,0-1.63.44,1.33,1.33,0,0,0-.58,1.1A1.39,1.39,0,0,0,53,5.28a7.29,7.29,0,0,0,2.39,1,10,10,0,0,1,2.86,1.21,4.05,4.05,0,0,1,1.35,1.63,5.76,5.76,0,0,1,.46,2.43A5,5,0,0,1,58.83,15a5.08,5.08,0,0,1-4,1.41C51.67,16.4,49.9,14.58,49.54,11Z"/><path d="M65.46,16.13V3H61.6V.27H71.93V3H68.08V16.13Z"/><path d="M73.86,16.13V.27h5.53a7.63,7.63,0,0,1,3,.43,3.37,3.37,0,0,1,1.49,1.48,5.1,5.1,0,0,1,.58,2.52,4.74,4.74,0,0,1-.89,3,4,4,0,0,1-2.54,1.43,6.34,6.34,0,0,1,1.4,1.32A18.18,18.18,0,0,1,84,13l1.58,3.1H82.41l-1.9-3.45a24.17,24.17,0,0,0-1.39-2.35,2.18,2.18,0,0,0-.78-.65A3.85,3.85,0,0,0,77,9.51h-.54v6.62ZM76.48,7h1.94a10.07,10.07,0,0,0,2.28-.16,1.5,1.5,0,0,0,.79-.63,2.36,2.36,0,0,0,.3-1.27,2.23,2.23,0,0,0-.3-1.22,1.63,1.63,0,0,0-.83-.63A10.23,10.23,0,0,0,78.53,3h-2Z"/><path d="M87.1,16.13V.27h2.62V16.13Z"/><path d="M92.45,16.13V.27h4.22A12.89,12.89,0,0,1,99.75.5a3.48,3.48,0,0,1,1.91,1.57,5.75,5.75,0,0,1,.75,3.09A5.74,5.74,0,0,1,101.76,8a3.69,3.69,0,0,1-1.62,1.63,8.32,8.32,0,0,1-3.35.47H95.07v6ZM95.07,3V7.46h1.45a6.6,6.6,0,0,0,2-.2,1.77,1.77,0,0,0,.86-.75,2.34,2.34,0,0,0,.34-1.31,2.45,2.45,0,0,0-.35-1.34,1.71,1.71,0,0,0-.85-.72A7.5,7.5,0,0,0,96.35,3Z"/><path d="M104.8,16.13V.27h9.64V3h-7V6.47H114V9.14h-6.54v4.3h7.27v2.69Z"/><path d="M117.11.27h4.79a7,7,0,0,1,2.73.41A4.58,4.58,0,0,1,126.34,2a7.38,7.38,0,0,1,1.22,2.5A14.27,14.27,0,0,1,128,8.36a12.23,12.23,0,0,1-.46,3.57,7.22,7.22,0,0,1-1.18,2.41,4.6,4.6,0,0,1-1.73,1.34,6.37,6.37,0,0,1-2.59.45h-4.93ZM119.73,3V13.44h2a5.39,5.39,0,0,0,1.84-.23,2.21,2.21,0,0,0,.93-.72,4.19,4.19,0,0,0,.6-1.52,12.52,12.52,0,0,0,.24-2.73,12,12,0,0,0-.25-2.78,3.67,3.67,0,0,0-.75-1.6,2.49,2.49,0,0,0-1.25-.77A10.7,10.7,0,0,0,120.92,3Z"/><path d="M32.58,111.77h2.63v10.1a10.16,10.16,0,0,1-.49,3.65,3.91,3.91,0,0,1-1.46,1.84,4.25,4.25,0,0,1-2.4.64,3.59,3.59,0,0,1-2.95-1.3,6.09,6.09,0,0,1-1.08-3.9l2.49-.35a4.84,4.84,0,0,0,.36,2,1.48,1.48,0,0,0,2.5.22,5.23,5.23,0,0,0,.4-2.58Z"/><path d="M50,127.73H47.18L46,124.11H40.79l-1.08,3.62H36.9l5.1-16h2.8Zm-4.86-6.31-1.81-5.93-1.77,5.93Z"/><path d="M60,121.86l2.55,1a7.13,7.13,0,0,1-2,3.91A5,5,0,0,1,57.16,128,5.08,5.08,0,0,1,53,126a9.52,9.52,0,0,1-1.83-6.14A10,10,0,0,1,53,113.5a5.23,5.23,0,0,1,4.3-2A5,5,0,0,1,61,113a6.5,6.5,0,0,1,1.55,3.17l-2.61.76a3.59,3.59,0,0,0-1-2,2.5,2.5,0,0,0-1.76-.69,2.79,2.79,0,0,0-2.37,1.27,7.26,7.26,0,0,0-.91,4.16A7.79,7.79,0,0,0,54.8,124a2.73,2.73,0,0,0,2.32,1.28,2.4,2.4,0,0,0,1.81-.81A5.26,5.26,0,0,0,60,121.86Z"/><path d="M65.09,127.73v-16h2.64v7.1l5.34-7.1h3.56L71.7,118l5.2,9.74H73.48l-3.61-7.5-2.14,2.68v4.82Z"/><path d="M90.28,127.73H87.42l-1.15-3.62H81L80,127.73h-2.8l5.09-16H85Zm-4.86-6.31-1.81-5.93-1.77,5.93Z"/><path d="M92,127.73V111.9H94.6V125h6.57v2.7Z"/><path d="M57.27,99.29a1.64,1.64,0,0,1-1.18-.49c-1.67-1.56-5.6-5.07-5.41-8.78v-.1a29.38,29.38,0,0,1,1.77-5.57C53.73,81,55.2,77,55,74.79a46.78,46.78,0,0,1-10.72-2.44.74.74,0,0,1-.39.39c.2.19,5.21,6.44,2.85,16.69a2,2,0,0,0,.39,1.66c2.36,2.83,8.16,8.88,9.44,10.15h5.21A7.2,7.2,0,0,0,57.27,99.29ZM77.61,74.1a65.67,65.67,0,0,1-9,1.08C67.49,77.71,65,87.87,64,93l-.1.39-.39.2a19.47,19.47,0,0,0-3.74,2.44,5.27,5.27,0,0,0-.58.78l-.4.78a11.13,11.13,0,0,1,1.87.68c.1,0,.2-.09.29-.09.4-.2,3-1.66,5.11-3h.1c1.77-.88,3.44-5.56,3.64-6.83.2-4.69,7-12.4,8.06-13.87C77.71,74.3,77.71,74.2,77.61,74.1ZM123.9,60.34a1.21,1.21,0,0,1-.1-1.66h.1c-1.28-1-2.85-2-3.83-2.64-.59-.39-1-.68-1.18-.78-.79-.59-1.38-1.85-2.06-4.29a25.86,25.86,0,0,0-4.13-5.08,6,6,0,0,1-1.18,1.85,8.53,8.53,0,0,0,.69-2.44c0-.29.09-.49.09-.78,0-.49.1-1.07.1-1.56a19.86,19.86,0,0,0,0-2.44c0-.49-.1-.88-.1-1.27-.09.1-.19.1-.29.2s-.2.29-.3.39a5.16,5.16,0,0,0-.68.87c-.4.59-.69,1.18-1.08,1.76a13.08,13.08,0,0,0-1.48,4,4.8,4.8,0,0,1-.19-2.34,5.84,5.84,0,0,1,.68-2.24c.1-.2.3-.39.4-.59-.1,0-.2.1-.3.2l-.49.48a2.33,2.33,0,0,0-.39.49,1,1,0,0,0-.4.49,2.23,2.23,0,0,0-.39.59,11.25,11.25,0,0,0-1,2.53,8.39,8.39,0,0,1,0-2.24,43.39,43.39,0,0,0-6.19,1.27c-1.67.58-8.46,4-9.93,4.39l-.2.1H89.9C85,49,82.13,47.55,79.09,48.43a5.64,5.64,0,0,1-3.35-.1c-3.63-1.27-7.66-.39-10.31.1-1.58.29-2.56.58-3.25.39A60.19,60.19,0,0,0,48,47.45c-10.61.29-16.51,5.37-16.61,5.47s-.29.19-.39.19-5.8,2.15-10.52,9.28l-.1.19-.19.1c-3.64,1.86-10.62,8-13.66,17A7,7,0,0,0,6.16,81,46.73,46.73,0,0,1,4,88c2.06-.39,5.9-1.37,8.45-3.42a26.38,26.38,0,0,0,5.7-6c.49-.68,1-1.36,1.67-2.24a55.17,55.17,0,0,0,3.25-5.18c.09-.29.19-.48.29-.78a11.4,11.4,0,0,1,2.36-4.2,17.67,17.67,0,0,1,2.06-8c0-.1.1-.1.1-.2.4-.48.69-.87,1.08-1.26a11.46,11.46,0,0,1,1.18-1.08A20.35,20.35,0,0,1,32.8,54a21.15,21.15,0,0,0-2,2.25A9.77,9.77,0,0,0,30,57.51a3.76,3.76,0,0,0-.49,1.07.34.34,0,0,1-.1.29c-.09,0-2.06,3.13-2,8.69V70.1a18.59,18.59,0,0,1-4.33,12.79,7.16,7.16,0,0,1-3.34,1.85c-.19.1-.39.1-.59.2a1,1,0,0,0-.59.49L12.45,95.58c-.29,2-.59,4-.69,5.27a6.31,6.31,0,0,0,2.46-2.63l.1-.2c1-2.24,3.44-8.1,7.37-10,2.36-1.08,5.31-3.91,8-6.45,1.48-1.36,2.85-2.63,3.93-3.51.69-.59,1.57-1.17,2.66-2,1.76-1.27,4-2.93,5.89-4.5.1,0,.1-.09.2-.09a17.87,17.87,0,0,0,2.36-1.66,11.05,11.05,0,0,0,2.06-2.15,10.85,10.85,0,0,0,1.57-2.54,11.27,11.27,0,0,0,1-2.93,17.07,17.07,0,0,1-.59,3,13.66,13.66,0,0,1-1.28,2.93,14.86,14.86,0,0,1-1.77,2.54c2.16.78,10.22,3,22.7,2.73a66.23,66.23,0,0,0,8.55-1A11.31,11.31,0,0,1,76.24,71a.73.73,0,0,1-.1-.39V70.1c.39-.78.78-1.56,1.18-2.34a25.56,25.56,0,0,1,1.27-2.25,18.33,18.33,0,0,1,3.25-4,19.57,19.57,0,0,0-2.46,4.39l-.88,2.34a18.07,18.07,0,0,0-.69,2.25c.49,1.07,3.34,6.83,6.48,9.37l.1.1a34.19,34.19,0,0,1,3.74,4C91,87.77,95,93.43,98.55,96.17a9.48,9.48,0,0,1,1.67,2.63,17.7,17.7,0,0,0,3.24,4.1.1.1,0,0,0,.1.1c1.28,0,4.91-.1,7-.1a6.46,6.46,0,0,0-3.44-2.05,4.18,4.18,0,0,1-2.46-1.27A46.24,46.24,0,0,1,100,93.92c-.1-.1-3.34-6.34-6-8.59l-.09-.1c-1.28-1.56-2.56-4.78-3.93-7.12a4.84,4.84,0,0,1,.78-5.86l.3-.3a7.6,7.6,0,0,0,1.08-1.36A7.24,7.24,0,0,0,93,68.83,10.22,10.22,0,0,0,93.53,67a6.43,6.43,0,0,0,0-2,5.17,5.17,0,0,1,.49,2,8,8,0,0,1-.09,2.15.36.36,0,0,0-.1.29,63.83,63.83,0,0,0,6.39-6.93l.09-.09.1-.1a65.71,65.71,0,0,1,7.67-2.15l-.69-.39L105.72,59l-.88-.39c-.1-.1-.3-.1-.5-.29a2.23,2.23,0,0,1-.39-.59l-.1-3.51.79,3.32c.1.09.1.19.2.19a.59.59,0,0,1,.39.1l.88.29,1.77.59L111.42,60h.1c1.47.29,3.44,1,5.31,1.56,1.08.39,2.06.68,2.75.88a1.33,1.33,0,0,0,1.08-.1,4.07,4.07,0,0,1-.89-.39.09.09,0,0,0-.09-.1l-2.26-1.27-.3-.19-.1-.1c-.1,0-.1-.1-.19-.1a1.18,1.18,0,0,1-.5-.49c-.09-.19-.29-.29-.39-.48s-.59-.59-.59-.88c.3-.1.79.29,1,.39l.59.29c.2.1.3.1.5.2a1.4,1.4,0,0,1,.59.19l2.35.78a.37.37,0,0,1,.3.1,3.68,3.68,0,0,0,2.26.59,1.46,1.46,0,0,0,1.08-.4Zm-55.18.15a23.45,23.45,0,0,1-9.44.1c-6.09-1.17-15-3.42-25.85-1.76,6.49-6.15,14.85-2.92,18.87-1.75,2.17.58,8.65,1,13.37,1,11.7-.88,10.32-.49,12.88-.88,1.08-.09,4,2,4,2S77.27,58.64,68.72,60.49Zm47.81-5.91-.2-.1-.29-.2a2.68,2.68,0,0,0-.69-.39l-.59-.29a2.83,2.83,0,0,0-.59-.29.87.87,0,1,1,.49-1.66c.1.1.3.19.4.29l.09.1a2.28,2.28,0,0,1,.5.68l.39.59.59.88v.19c.1,0,.1,0,.1.2S116.63,54.58,116.53,54.58Z"/></svg>