<svg id="Layer_1" data-name="Layer 1" xmlns="http://www.w3.org/2000/svg" width="128" height="128" viewBox="0 0 128 128"><title>Artboard 69</title><path d="M0,127.75V113H2.44v6.58l5-6.58h3.3l-4.57,5.76,4.81,9H7.77l-3.34-7-2,2.48v4.47Z"/><path d="M12.48,127.75V113.08h2.44v12.17H21v2.5Z"/><path d="M22.89,127.75V113h2.45v14.79Z"/><path d="M27.88,127.75V113h3.94a12.11,12.11,0,0,1,2.87.21,3.22,3.22,0,0,1,1.78,1.46,5.36,5.36,0,0,1,.71,2.89,5.51,5.51,0,0,1-.61,2.69,3.51,3.51,0,0,1-1.51,1.52,7.93,7.93,0,0,1-3.13.44H30.32v5.58Zm2.44-12.29v4.21h1.36a5.71,5.71,0,0,0,1.85-.2,1.58,1.58,0,0,0,.81-.69,2.25,2.25,0,0,0,.31-1.23,2.31,2.31,0,0,0-.32-1.24,1.62,1.62,0,0,0-.8-.68,7.55,7.55,0,0,0-2-.17Z"/><path d="M38.77,122.92l2.39-.28c.27,1.89,1.15,2.84,2.65,2.84a2.5,2.5,0,0,0,1.74-.58,1.86,1.86,0,0,0,.64-1.44,1.57,1.57,0,0,0-.22-.86,1.79,1.79,0,0,0-.68-.58,19.38,19.38,0,0,0-2.2-.76,7.42,7.42,0,0,1-2.29-1,3.9,3.9,0,0,1-1.15-1.46,4.41,4.41,0,0,1-.43-1.94,4.31,4.31,0,0,1,.55-2.18,3.51,3.51,0,0,1,1.52-1.46,5.19,5.19,0,0,1,2.39-.5,4.2,4.2,0,0,1,4.61,4.48l-2.45.14a2.65,2.65,0,0,0-.7-1.67,2.2,2.2,0,0,0-1.52-.47,2.44,2.44,0,0,0-1.53.41,1.26,1.26,0,0,0-.53,1,1.28,1.28,0,0,0,.48,1,6.86,6.86,0,0,0,2.23.91,9,9,0,0,1,2.67,1.12,3.84,3.84,0,0,1,1.26,1.53,5.3,5.3,0,0,1,.43,2.26,4.67,4.67,0,0,1-1.18,3.24A4.78,4.78,0,0,1,43.74,128Q39.29,128,38.77,122.92Z"/><path d="M50.9,127.75V113h3.93a12.16,12.16,0,0,1,2.88.21,3.25,3.25,0,0,1,1.78,1.46,6.28,6.28,0,0,1,.09,5.58,3.46,3.46,0,0,1-1.51,1.52,7.93,7.93,0,0,1-3.13.44h-1.6v5.58Zm2.44-12.29v4.21h1.35a5.83,5.83,0,0,0,1.86-.2,1.56,1.56,0,0,0,.8-.69,2.25,2.25,0,0,0,.32-1.23,2.23,2.23,0,0,0-.33-1.24,1.58,1.58,0,0,0-.8-.68,7.45,7.45,0,0,0-2-.17Z"/><path d="M62.41,127.75V113h5.16a7.28,7.28,0,0,1,2.82.39,3.18,3.18,0,0,1,1.4,1.39,4.8,4.8,0,0,1,.54,2.35,4.44,4.44,0,0,1-.83,2.8,3.72,3.72,0,0,1-2.37,1.33,5.94,5.94,0,0,1,1.3,1.24,16.28,16.28,0,0,1,1.41,2.4l1.47,2.89H70.39l-1.77-3.22a23.08,23.08,0,0,0-1.3-2.19,1.9,1.9,0,0,0-.73-.6,3.32,3.32,0,0,0-1.23-.17h-.5v6.18Zm2.45-8.54h1.81a9.7,9.7,0,0,0,2.12-.14,1.41,1.41,0,0,0,.74-.59,2.18,2.18,0,0,0,.28-1.19,2,2,0,0,0-.28-1.13,1.45,1.45,0,0,0-.77-.59,10.07,10.07,0,0,0-2-.11H64.86Z"/><path d="M74.77,127.75V113h2.44v14.79Z"/><path d="M79.79,127.75V113h2.38l5,9.87V113h2.28v14.79H87l-4.88-9.65v9.65Z"/><path d="M97.84,122.32v-2.5h5.28v5.89a6.43,6.43,0,0,1-2.26,1.61,6.82,6.82,0,0,1-2.94.68,5.75,5.75,0,0,1-3.17-.88,6,6,0,0,1-2.17-2.65,10,10,0,0,1-.8-4.14,9.83,9.83,0,0,1,.81-4.18,6.15,6.15,0,0,1,2.11-2.59,5.5,5.5,0,0,1,3.1-.86,5.19,5.19,0,0,1,3.48,1.11,5.28,5.28,0,0,1,1.68,3.24l-2.42.56a3.25,3.25,0,0,0-1-1.75,2.67,2.67,0,0,0-1.74-.6,3.07,3.07,0,0,0-2.53,1.21,5.88,5.88,0,0,0-1,3.71,6.7,6.7,0,0,0,1,4.07,2.88,2.88,0,0,0,2.43,1.2,3.61,3.61,0,0,0,1.49-.34,4.69,4.69,0,0,0,1.38-.92v-1.87Z"/><path d="M105.6,127.75V113h9v2.5H108v3.28h6.09v2.49H108v4h6.78v2.5Z"/><path d="M117.1,127.75V113h5.16a7.28,7.28,0,0,1,2.82.39,3.18,3.18,0,0,1,1.4,1.39,4.8,4.8,0,0,1,.54,2.35,4.44,4.44,0,0,1-.83,2.8,3.72,3.72,0,0,1-2.37,1.33,5.94,5.94,0,0,1,1.3,1.24,16.28,16.28,0,0,1,1.41,2.4l1.47,2.89h-2.92l-1.77-3.22a23.08,23.08,0,0,0-1.3-2.19,1.9,1.9,0,0,0-.73-.6,3.32,3.32,0,0,0-1.23-.17h-.51v6.18Zm2.44-8.54h1.82a9.7,9.7,0,0,0,2.12-.14,1.41,1.41,0,0,0,.74-.59,2.18,2.18,0,0,0,.28-1.19,2,2,0,0,0-.28-1.13,1.45,1.45,0,0,0-.77-.59,10.07,10.07,0,0,0-2-.11h-1.92Z"/><path d="M92.46,10.74c.08-1.15.32-2.38.49-3.52.37-2.07.87-6.93.94-7.15,0,.12-.1.22-.14.34a44.64,44.64,0,0,0-2.07,6.13c-.33,1.14-.57,2.2-.82,3.35a23.8,23.8,0,0,0-.49,3.19c.33.08,1.35.44,1.76.52Z"/><path d="M44.66,71c-2.46,3.68-6.06,6.38-8.84,8.35v.24l-1,3.44c2.7,8,3.76,11.12,4.17,12.35l.9-.24a.87.87,0,0,1,1,.57l.74,2.37,1.8-.49c-1.23-1.8-3.76-5.89-4.5-9.57-.24-1.06-.41-1.72-.49-2.21a2.66,2.66,0,0,1,.25-2.62c.24-.41.49-.82.9-1.63,0-.09.08-.09.08-.17A13.15,13.15,0,0,1,42,79.51c2.61-2,6.95-5.15,9.48-9.82A35.3,35.3,0,0,1,46.05,69C45.31,70.1,44.74,70.84,44.66,71Z"/><path d="M23.25,58.4A11.3,11.3,0,0,0,24,65.52a7.91,7.91,0,0,1,1-2.91,7.57,7.57,0,0,1-.76-1.3A13.45,13.45,0,0,1,23.25,58.4Z"/><path d="M70.5,91.46c.33,3.35.49,6,.57,7l2.13-1.06c-.08-1-.17-3.6-.58-7a49.44,49.44,0,0,1,0-9.74v-.16a8.43,8.43,0,0,0,0-4.42v-.08a29.36,29.36,0,0,1,1.15-7.44,13.72,13.72,0,0,1-1.88.16A25.35,25.35,0,0,0,70.5,77a10.17,10.17,0,0,1,0,5.16A54.34,54.34,0,0,0,70.5,91.46Z"/><path d="M103.78,25.43c-.49-.24-1-.57-.65-1.06a1.29,1.29,0,0,1,.65-.49,30.51,30.51,0,0,0-5.31-4.17,3.3,3.3,0,0,1-1.15-1.31,1.27,1.27,0,0,0-.32-.57c-1.8-2.29-6.79-3.11-8.51-3.19h-.08v.57a.75.75,0,0,0,.24.57,1.76,1.76,0,0,1,.66.49,2,2,0,0,1-.45.07,1.9,1.9,0,0,1-.45-.07,1.44,1.44,0,0,1-.82-.9,2.11,2.11,0,0,1-.16-1,5.4,5.4,0,0,0-.17-1.72,4,4,0,0,0-.81-1.39,16.29,16.29,0,0,0-1.31-1.06A23,23,0,0,0,82,8.42c-.25-.08-.57-.25-.82-.33s-.33-.08-.41-.16h-.08c0,.08-.08.16-.08.24-.08.33-.25.66-.33.9a6.41,6.41,0,0,0-.41,3.27,5.19,5.19,0,0,0,.41,1.56,7,7,0,0,0,1,1.31,4.29,4.29,0,0,0,2.87,1.31,2.54,2.54,0,0,1,1,.24.89.89,0,0,1,.41.33c.16.24.32.49.41.65a2.37,2.37,0,0,1-.09,2,9.27,9.27,0,0,0-.41-1.23,4.29,4.29,0,0,0-.16.9c0,.08-.08.16-.08.25-1.06,2.45-2.54,7.28-2.54,9.73A32.9,32.9,0,0,1,82.11,35c-.9,3.51-2.12,5.48-3.92,6.13a25.59,25.59,0,0,1-11,.49C45.47,36.81,34.68,44.17,33.94,45L26.5,52.6a6.74,6.74,0,0,0-1.23,7.6,55.93,55.93,0,0,0,4.34,6.88c.49.73,1.06,1.47,1.55,2.29a1.15,1.15,0,0,1,.17.49c0,1,.08,4.5.08,4.5a.77.77,0,0,1-.08.41A44.37,44.37,0,0,1,25.6,83c.74,2,2.78,7.77,4.25,11.62.66,1.8,1.15,2.94,1.39,3.68l.9-.25a.83.83,0,0,1,1,.49l.66,1.64,1.8-.66C34.19,97.43,30.83,92,30.1,88.1c-.25-1.06-.41-1.72-.49-2.21a2.68,2.68,0,0,1,.24-2.62,17.78,17.78,0,0,0,.9-1.63c0-.08.08-.08.08-.17a10.92,10.92,0,0,1,2.7-2.12c2.78-1.88,7.12-4.83,9.9-8.92v-.08a43.47,43.47,0,0,0,3.92-6.3,10.65,10.65,0,0,0,1.23-3.93V60a6.19,6.19,0,0,0,0-1.72,7,7,0,0,0-.24-1.8,14.17,14.17,0,0,0-1.23-3.52,14.12,14.12,0,0,1,2,3.19,6.9,6.9,0,0,1,.74,1.8,7.9,7.9,0,0,1,.49,2V60A10.53,10.53,0,0,1,49,64.62a27.4,27.4,0,0,1-1.72,3.19c2.37.41,9.65,1.15,15-.24v-.25A6,6,0,0,0,61.75,65c0-.08-.08-.08-.08-.16A17.7,17.7,0,0,1,61,62.9,12.69,12.69,0,0,1,60.6,61a15.42,15.42,0,0,1,0-3.84,13.54,13.54,0,0,0,.82,3.6c.25.57.49,1.14.74,1.63a8.46,8.46,0,0,0,.9,1.48c0,.08.08.16.08.24a.08.08,0,0,1,.08.08,10,10,0,0,1,.74,3v.16c.16,3.19.57,9.9,2.12,13.25a7.38,7.38,0,0,1,.66,3.52c-.17,3.11-.66,9.25-.82,11.54h.41a.8.8,0,0,1,.82.65l.57,3.44,1.8-1c-.08-1-.17-3.6-.58-7A53,53,0,0,1,69,82V81.8a7.65,7.65,0,0,0,0-4.42v-.16a6.54,6.54,0,0,1,0-.81c0-2.92,1.06-8.85,3-11.3V65c0-.08.08-.08.08-.16a7.89,7.89,0,0,1,1.39-1.48A11.37,11.37,0,0,1,75,62.25a13.29,13.29,0,0,1,3.43-1.72,11.87,11.87,0,0,0-2.94,2.29,9.65,9.65,0,0,0-1.15,1.39,7.83,7.83,0,0,0-1,1.47l-.16.17a.25.25,0,0,1-.08.16,7.37,7.37,0,0,0-.5.82,12.31,12.31,0,0,0,6.79-2.29,4.8,4.8,0,0,0,1.31-1.23c2.86-3.76,8.75-14.72,10.39-18.49,1.55-3.6.65-13.17.41-15.13a2.1,2.1,0,0,1-.49-.17c-.09,0-.09-.08-.17-.08l-1.55-.65-.41-.17a.44.44,0,0,1-.25-.08c-.08,0-.16-.08-.24-.16a1.39,1.39,0,0,1-.41-.57l-.16-.41-1.07-3.52,1.72,3.19.25.41a.17.17,0,0,0,.16.16c0,.08,0,.08.08.08h.16l.5.09,2,.16c.08,0,.16.08.25.08a10,10,0,0,0,4.25.33,4.77,4.77,0,0,1,2.37.33,6.9,6.9,0,0,0,2.62.41h.08c.24,0,.65-.17,1.39-1.07-.41-.08-.74-.08-1.15-.16l-1.06-.25-.57-.16c-.25-.08-.41-.08-.57-.25a1.39,1.39,0,0,1,.57-.08h.57a5.57,5.57,0,0,1,1.15-.08c.73,0,1.47.08,2.2.08a.32.32,0,0,0,.17.08h.57c.08,0,.08-.08.16-.16l.33-.41C104.6,26.33,104.11,25.6,103.78,25.43Zm-7.11-2.78-.33-.16-.65-.25-1.23-.57c-.33-.16-.74-.33-1.06-.49a1.64,1.64,0,0,1-1.39.33,1.83,1.83,0,1,1,.65-3.6,1.76,1.76,0,0,1,1.47,2c.33.25.58.49.9.74l1,.9.49.41.25.24c.08.09.16.09.25.49C96.83,22.82,96.75,22.65,96.67,22.65Z"/><path d="M70.21,100a.19.19,0,0,0,0-.09s0-.08,0-.16l-.88.16-.91.34-.75.5a0,0,0,0,0,0,0,.35.35,0,0,0,0,.21l.75,1.33a.45.45,0,0,0,.38.21h1.74a.56.56,0,0,0,.34-.17.41.41,0,0,0,0-.37Z"/><path d="M43.91,98.33s0-.08,0-.08,0-.08,0-.17l-.87.17-.92.33-.75.5a0,0,0,0,0,0,0c0,.09,0,.17,0,.21l.75,1.33a.41.41,0,0,0,.37.21h1.75a.52.52,0,0,0,.33-.16.38.38,0,0,0,0-.38Z"/><path d="M36.17,100.46a.14.14,0,0,0,0-.08s0-.09,0-.17l-.88.17-.92.33-.74.5a0,0,0,0,0,0,0c0,.08,0,.17,0,.21l.75,1.33a.42.42,0,0,0,.37.21H36.5a.51.51,0,0,0,.34-.17.41.41,0,0,0,0-.37Z"/><path d="M73.57,98.61a.14.14,0,0,0,0-.08s0-.09,0-.17l-.88.17-.91.33-.75.5a0,0,0,0,0,0,0,.32.32,0,0,0,0,.21l.75,1.33a.42.42,0,0,0,.37.21H73.9a.54.54,0,0,0,.34-.16.43.43,0,0,0,0-.38Z"/></svg>