<svg id="Layer_1" data-name="Layer 1" xmlns="http://www.w3.org/2000/svg" width="128" height="128" viewBox="0 0 128 128"><title>Artboard 70</title><path d="M37.46,121.87v-2.7h5.69v6.36a7,7,0,0,1-2.44,1.74,7.4,7.4,0,0,1-3.16.73,6.24,6.24,0,0,1-3.42-1,6.52,6.52,0,0,1-2.35-2.85,10.83,10.83,0,0,1-.86-4.47,10.49,10.49,0,0,1,.88-4.51,6.49,6.49,0,0,1,2.27-2.79,5.91,5.91,0,0,1,3.35-.93A5.14,5.14,0,0,1,43,116.19l-2.61.6a3.4,3.4,0,0,0-1.08-1.88,2.81,2.81,0,0,0-1.87-.66,3.33,3.33,0,0,0-2.74,1.32,6.37,6.37,0,0,0-1,4A7.23,7.23,0,0,0,34.77,124a3.12,3.12,0,0,0,2.62,1.3,3.88,3.88,0,0,0,1.61-.37,5,5,0,0,0,1.49-1v-2Z"/><path d="M45.28,119.85a11.39,11.39,0,0,1,.84-4.7,6.45,6.45,0,0,1,2.21-2.75,5.82,5.82,0,0,1,3.3-.9,5.64,5.64,0,0,1,4.57,2.14A9.37,9.37,0,0,1,58,119.75,9.5,9.5,0,0,1,56.1,126a5.49,5.49,0,0,1-4.46,2,5.55,5.55,0,0,1-4.49-2A9.36,9.36,0,0,1,45.28,119.85Zm2.72-.11a6.78,6.78,0,0,0,1,4.13,3.12,3.12,0,0,0,5.17,0,7,7,0,0,0,1-4.2,6.8,6.8,0,0,0-1-4.1,3.12,3.12,0,0,0-2.61-1.33A3.18,3.18,0,0,0,49,115.59,6.93,6.93,0,0,0,48,119.74Z"/><path d="M59.73,119.85a11.39,11.39,0,0,1,.84-4.7,6.38,6.38,0,0,1,2.21-2.75,5.8,5.8,0,0,1,3.29-.9,5.66,5.66,0,0,1,4.58,2.14,9.37,9.37,0,0,1,1.77,6.11A9.56,9.56,0,0,1,70.55,126a6,6,0,0,1-8.95,0A9.36,9.36,0,0,1,59.73,119.85Zm2.72-.11a6.78,6.78,0,0,0,1,4.13,3.12,3.12,0,0,0,5.17,0,7,7,0,0,0,1-4.2,6.8,6.8,0,0,0-1-4.1,3.13,3.13,0,0,0-2.61-1.33,3.16,3.16,0,0,0-2.63,1.34A6.93,6.93,0,0,0,62.45,119.74Z"/><path d="M74.05,122.53l2.57-.31c.3,2,1.25,3.06,2.86,3.06a2.67,2.67,0,0,0,1.88-.63A2,2,0,0,0,82,123.1a1.68,1.68,0,0,0-.23-.92,1.82,1.82,0,0,0-.73-.63,22.73,22.73,0,0,0-2.38-.82,8.13,8.13,0,0,1-2.47-1.11A4.23,4.23,0,0,1,75,118.05a4.78,4.78,0,0,1-.47-2.09,4.64,4.64,0,0,1,.6-2.35A3.84,3.84,0,0,1,76.76,112a5.65,5.65,0,0,1,2.57-.53,4.53,4.53,0,0,1,5,4.83l-2.65.14a2.79,2.79,0,0,0-.75-1.79,2.39,2.39,0,0,0-1.64-.51,2.6,2.6,0,0,0-1.64.44,1.38,1.38,0,0,0-.06,2.2,7.2,7.2,0,0,0,2.41,1A9.83,9.83,0,0,1,82.86,119a4.08,4.08,0,0,1,1.35,1.64,5.77,5.77,0,0,1,.47,2.44,5.05,5.05,0,0,1-1.28,3.5,5.15,5.15,0,0,1-4,1.41C76.19,128,74.41,126.17,74.05,122.53Z"/><path d="M87.13,127.73v-16h9.71v2.7H89.77V118h6.57v2.69H89.77V125h7.31v2.7Z"/><path d="M1.09,16.23V.27H3.72v7.1L9.07.27h3.56L7.7,6.49l5.19,9.74H9.47L5.86,8.73,3.72,11.41v4.82Z"/><path d="M14.5,16.23V.27h2.57l5.35,10.66V.27h2.46v16H22.23L17,5.82V16.23Z"/><path d="M27.35,8.35a11.39,11.39,0,0,1,.84-4.7A6.38,6.38,0,0,1,30.4.9,5.8,5.8,0,0,1,33.69,0a5.68,5.68,0,0,1,4.58,2.14A9.37,9.37,0,0,1,40,8.25a9.5,9.5,0,0,1-1.87,6.26,5.49,5.49,0,0,1-4.47,2,5.54,5.54,0,0,1-4.48-2A9.36,9.36,0,0,1,27.35,8.35Zm2.72-.11a6.76,6.76,0,0,0,1.05,4.13,3.12,3.12,0,0,0,5.17,0,7,7,0,0,0,1-4.2,6.8,6.8,0,0,0-1-4.1,3.12,3.12,0,0,0-2.61-1.33,3.16,3.16,0,0,0-2.63,1.34A6.93,6.93,0,0,0,30.07,8.24Z"/><path d="M42.33.27h5.24a8.17,8.17,0,0,1,3,.39,3.42,3.42,0,0,1,1.47,1.39,4.22,4.22,0,0,1,.6,2.24,4.24,4.24,0,0,1-.51,2.08,3.43,3.43,0,0,1-1.34,1.38,3.57,3.57,0,0,1,1.82,1.41,4.34,4.34,0,0,1,.66,2.44,5,5,0,0,1-.84,3,3.45,3.45,0,0,1-2,1.48,20.42,20.42,0,0,1-3.69.2H42.33ZM45,2.93V6.62h1.75a17.34,17.34,0,0,0,1.93-.06A1.66,1.66,0,0,0,49.7,6a2,2,0,0,0,.38-1.26,1.9,1.9,0,0,0-.31-1.14A1.28,1.28,0,0,0,49,3a15.09,15.09,0,0,0-2.53-.11Zm0,6.34v4.26h2.46a7.79,7.79,0,0,0,2.07-.17,1.52,1.52,0,0,0,.77-.66,2.31,2.31,0,0,0,.31-1.26,2.27,2.27,0,0,0-.33-1.28,1.71,1.71,0,0,0-.89-.7,8.62,8.62,0,0,0-2.25-.19Z"/><path d="M55,12V8.91h4.93V12Z"/><path d="M62.05.27h5.24a8.17,8.17,0,0,1,3,.39,3.42,3.42,0,0,1,1.47,1.39,4.22,4.22,0,0,1,.6,2.24,4.24,4.24,0,0,1-.51,2.08,3.43,3.43,0,0,1-1.34,1.38,3.53,3.53,0,0,1,1.82,1.41A4.34,4.34,0,0,1,73,11.6a5,5,0,0,1-.84,3,3.45,3.45,0,0,1-2,1.48,20.42,20.42,0,0,1-3.69.2H62.05Zm2.64,2.66V6.62h1.74a17.34,17.34,0,0,0,1.93-.06A1.63,1.63,0,0,0,69.42,6a2,2,0,0,0,.38-1.26,1.9,1.9,0,0,0-.31-1.14A1.28,1.28,0,0,0,68.74,3a15,15,0,0,0-2.53-.11Zm0,6.34v4.26h2.45a7.69,7.69,0,0,0,2.07-.17A1.52,1.52,0,0,0,70,12.7a2.31,2.31,0,0,0,.31-1.26A2.27,2.27,0,0,0,70,10.16a1.72,1.72,0,0,0-.88-.7,8.77,8.77,0,0,0-2.26-.19Z"/><path d="M75.39,16.23V.27H78v16Z"/><path d="M80.85,16.23V.4h2.63V13.53h6.57v2.7Z"/><path d="M92.24,16.23V.4h2.63V13.53h6.57v2.7Z"/><path d="M103.56,16.23V.27h9.71V3H106.2V6.51h6.57V9.2H106.2v4.33h7.31v2.7Z"/><path d="M116,.27h4.82a7.21,7.21,0,0,1,2.76.41,4.54,4.54,0,0,1,1.71,1.38,7.09,7.09,0,0,1,1.23,2.51,14.38,14.38,0,0,1,.44,3.84,12.45,12.45,0,0,1-.46,3.6,7.28,7.28,0,0,1-1.19,2.42,4.61,4.61,0,0,1-1.73,1.35,6.52,6.52,0,0,1-2.62.45h-5ZM118.59,3V13.53h2a5.1,5.1,0,0,0,1.84-.24,2.24,2.24,0,0,0,.94-.72A4.25,4.25,0,0,0,124,11a12.72,12.72,0,0,0,.24-2.75,12.91,12.91,0,0,0-.24-2.8,3.9,3.9,0,0,0-.76-1.61,2.52,2.52,0,0,0-1.26-.77A10.87,10.87,0,0,0,119.78,3Z"/><path d="M44.76,78.86a1.64,1.64,0,0,1-.09-.58,2.47,2.47,0,0,1,.25-1,1.44,1.44,0,0,1-.52-.52A3,3,0,0,1,44,76a5.69,5.69,0,0,1-.28-1.68,4.37,4.37,0,0,1,.05-.88,2.78,2.78,0,0,1,.29-.92c.3-.5.59-.92.9-1.38a20.48,20.48,0,0,1,2.09-2.56,10.29,10.29,0,0,1,.91-.84,13.68,13.68,0,0,1-3.06,1.53,17.4,17.4,0,0,1-1.74.52,13.4,13.4,0,0,1-1.7.29c-1.48,1-3,1.91-4.58,2.76-.8.42-1.61.82-2.46,1.18-.43.17-.86.33-1.32.47a4,4,0,0,1-1.34.17,4.17,4.17,0,0,1-1,.41,9.9,9.9,0,0,1-1.16.23,18.26,18.26,0,0,1-2.32.18A19.83,19.83,0,0,1,25,75.43,9.15,9.15,0,0,1,22.67,75l-.16-.07-.09.12c-.21.26-.43.54-.68.8A6.33,6.33,0,0,1,20,77a35.41,35.41,0,0,0-3.57,2.09c-1.15.75-2.29,1.53-3.42,2.33l-1.59,1.15c2.25-.71,4.54-1.27,6.84-1.75a43.9,43.9,0,0,1,4.57-.73A18,18,0,0,1,25,80.05v0s0,0,0,0h2.43c3.06,0,6.12.08,9.19.25a30.28,30.28,0,0,0,8.7-.59,1.61,1.61,0,0,1-.34-.35A3.14,3.14,0,0,1,44.76,78.86Z"/><path d="M55.31,61.3c.68-.61,1.34-1.21,2.1-1.78l.13-.09.17.07a3.43,3.43,0,0,0,2.22.14c.74-.16,1.5-.41,2.28-.61A7.93,7.93,0,0,0,63.33,58c.36-.4.71-.83,1-1.27s.63-.9.9-1.36a6.67,6.67,0,0,0,.67-1.41l.13-.45.17.05a5.53,5.53,0,0,1,.46-.82A8.49,8.49,0,0,1,68.28,51a10.09,10.09,0,0,1,1.93-1.31,7.1,7.1,0,0,1,2.21-.78l-1.8,1.42q-.87.69-1.71,1.41c-.56.48-1.1,1-1.62,1.48l-.47.51a4.81,4.81,0,0,0,1.72-.08A16.88,16.88,0,0,0,70.65,53c1.37-.5,2.69-1.16,4.06-1.77a3.3,3.3,0,0,1,1.12-.84,6,6,0,0,1,1.37-.46A13.79,13.79,0,0,1,80,49.62c.91,0,1.82,0,2.73.11.75.06,1.5.15,2.24.27a1.83,1.83,0,0,1,0-.81,1.12,1.12,0,0,1,.39-.61,1.55,1.55,0,0,1,.64-.27,2.48,2.48,0,0,1,1.24.23,6.76,6.76,0,0,1,1,.53,15.51,15.51,0,0,1,1.87,1.34c.31.25.61.51.91.78l0,0,.16-.28a1.13,1.13,0,0,0,.09-.59,2.44,2.44,0,0,0-.64-1.11,10.44,10.44,0,0,0-.73-.76l-.27-.28L89.45,48l-.19-.08-.46-.19c-.31-.11-.62-.22-.94-.31-.64-.2-1.28-.37-1.93-.53-1.29-.32-2.6-.59-3.92-.82a47.18,47.18,0,0,0-7.92-.88,33.25,33.25,0,0,0-4,.42c-1.32.2-2.63.46-3.92.75a38.08,38.08,0,0,0-3.83,1.08A15.65,15.65,0,0,0,58.84,49l-.05,0-.07,0c-3,.8-5.93,1.58-8.8,2.6-.71.26-1.41.53-2.1.83-1.26,1.33-2.57,2.61-3.9,3.87-.75.72-1.51,1.4-2.29,2.12a13.7,13.7,0,0,0-1.09,1,1.45,1.45,0,0,0-.31.49.75.75,0,0,0,0,.2s0,.07,0,.1l0,0h0a1.19,1.19,0,0,0,.4.27,5.67,5.67,0,0,0,.66.26,13.9,13.9,0,0,0,1.45.34,12.65,12.65,0,0,0,3,.23A6.08,6.08,0,0,0,47.11,61c.47-.2,1-.4,1.41-.62s.94-.44,1.4-.68.68-.37,1-.59v0a1.89,1.89,0,0,1-.12-.51,3.93,3.93,0,0,1,0-1,8.28,8.28,0,0,1,.42-1.8,6.83,6.83,0,0,1,2-3A7.42,7.42,0,0,0,51.68,56a7.58,7.58,0,0,0-.24,1.7,3.69,3.69,0,0,0,.05.82.85.85,0,0,0,.24.52,2,2,0,0,0,.68.11,6,6,0,0,0,.84,0,14.13,14.13,0,0,0,1.7-.32c.28-.08.56-.15.82-.24l.09,0,0,0a.42.42,0,0,0,.13-.09l.31-.26c.42-.39.84-.81,1.25-1.24.83-.84,1.63-1.72,2.44-2.6.4-.44.79-.88,1.18-1.33l.56-.68a8.72,8.72,0,0,1,.68-.68,19.54,19.54,0,0,1,3-2.07A17.18,17.18,0,0,1,68.73,48a25,25,0,0,0-3,1.93A22.89,22.89,0,0,0,63,52.14a5.39,5.39,0,0,0-.55.63l-.55.72c-.38.47-.77.93-1.15,1.39-.79.91-1.6,1.8-2.43,2.68-.42.43-.85.85-1.32,1.26a2.89,2.89,0,0,1-.37.31,1.53,1.53,0,0,1-.51.29,7,7,0,0,1-.92.25,12.78,12.78,0,0,1-1.84.28,6.15,6.15,0,0,1-1,0,2.33,2.33,0,0,1-1.06-.29,1,1,0,0,1-.35-.44,8,8,0,0,1-.9.75c-.43.31-.87.59-1.31.87s-.9.53-1.37.78c-.23.12-.47.23-.72.34a3.52,3.52,0,0,1-.39.16,2.47,2.47,0,0,1-.43.11,11.69,11.69,0,0,1-3.24-.07A11.19,11.19,0,0,1,41,61.81a7.06,7.06,0,0,1-.8-.29,1.86,1.86,0,0,1-.82-.65.88.88,0,0,1-.12-.31.82.82,0,0,1,0-.28,1.49,1.49,0,0,1,.07-.56,2.3,2.3,0,0,1,.51-.81A11.9,11.9,0,0,1,41,57.82c.77-.65,1.57-1.34,2.38-2,1.29-1.06,2.6-2.09,4-3.1-.54.25-1.07.5-1.58.78a10,10,0,0,0-3.39,2.73l-.09.11-.12.06c-2.1.86-4.22,1.65-6.32,2.48-1,.41-2.08.83-3.11,1.28l-1.51.71c-.24.13-.49.26-.71.4a4.62,4.62,0,0,0-.4.28.7.7,0,0,1,0,.33,1.15,1.15,0,0,1-.28.44,2.27,2.27,0,0,1-.31.25,2.8,2.8,0,0,1-.34.21h0a80,80,0,0,0-7.41,3.25,39,39,0,0,0-3.51,2,15.85,15.85,0,0,0-1.61,1.18,8.17,8.17,0,0,0-1.11,1.09c.75,0,1.53,0,2.29-.09.91,0,1.81-.13,2.72-.2l2.73-.24,1.36-.13.68-.07.34,0a.32.32,0,0,1,.3.07c.41-.52.83-1,1.26-1.54-.73,1.11-1.46,2.2-2.17,3.31-.35.56-.69,1.12-1,1.68-.17.28-.33.56-.49.85s-.18.35-.25.52a10.65,10.65,0,0,0,1.82.23c.74,0,1.48,0,2.22,0a20,20,0,0,0,2.2-.23,8.47,8.47,0,0,0,1.05-.22,3.15,3.15,0,0,0,.88-.37l.17-.12.21,0a2.89,2.89,0,0,0,1.1-.16,11,11,0,0,0,1.22-.42c.81-.32,1.61-.72,2.4-1.11,1.6-.8,3.15-1.67,4.7-2.57l.08,0h.09a16.57,16.57,0,0,0,3.46-.53,16.14,16.14,0,0,0,3.26-1.19,2.32,2.32,0,0,1,.25-.21,5.24,5.24,0,0,1,1.12-.66h0c1.27-1.25,2.56-2.48,3.85-3.7C54,62.52,54.64,61.91,55.31,61.3Z"/><path d="M36.64,81c-1.52,0-3,0-4.57,0l-4.59,0H25.36a7.36,7.36,0,0,1,.28,2.14.91.91,0,0,0,0,.21s.09,0,.18,0,.51,0,.76,0c.51,0,1-.06,1.54-.12a4.84,4.84,0,0,1,1.7,0,2.86,2.86,0,0,1,.85.34l.37.25.08.06.06,0a.47.47,0,0,0,.12.07,3.94,3.94,0,0,0,1.35.33,9.24,9.24,0,0,0,1.49,0,8.26,8.26,0,0,0,2.89-.56,1.27,1.27,0,0,0,.47-.31l0,0,.08-.12.16-.18.34-.29a9.76,9.76,0,0,1,1.4-.86,25.86,25.86,0,0,1,2.9-1.29l.24-.09c-.47.08-1,.14-1.43.19A28.39,28.39,0,0,1,36.64,81Z"/><path d="M23,81.08c-1.06.11-2.12.29-3.18.48a16.13,16.13,0,0,1-1.54,1.33,4.57,4.57,0,0,0-.18.68,1.28,1.28,0,0,0,0,.54c0,.06,0,0,0,0s0,0,.1,0a9.21,9.21,0,0,0,1.14-.4l1.19-.49c.79-.33,1.6-.65,2.4-1l2.34-.9c0-.11,0-.23,0-.35A18.07,18.07,0,0,0,23,81.08Z"/><path d="M83.57,30l.29,1-.67,0a15.23,15.23,0,0,0-.37,2.26,6.94,6.94,0,0,1,1.31.27c.08-.16.33-.41.48-.42s.44.29.81.56c-.35.29-.61.62-.72.58a1.05,1.05,0,0,1-.24-.15c-.56,0-1.12,0-1.68,0a11.52,11.52,0,0,0,.36,3.2c.08.29.17.58.27.86a12.76,12.76,0,0,1,1.77.45c-.1.13-.19.37-.3.38l-1.13,0a17.63,17.63,0,0,0,.92,1.78l.12-.08a8.78,8.78,0,0,1,1.27-.34l.56.77a12.82,12.82,0,0,1-1.52.4l.47.77c.42.67.87,1.33,1.35,2,.08-.08.18-.16.25-.24l.61.57c-.14.11-.27.24-.37.33.49.63,1,1.25,1.56,1.83L90.1,48l1.73-.58a26.66,26.66,0,0,0,2.86-1.15A11.09,11.09,0,0,0,96,45.53a6.43,6.43,0,0,0,1.14-.93A3.73,3.73,0,0,0,98,43.17a17,17,0,0,1-1.58-1.83,3.52,3.52,0,0,1-.33.31c-.34,0-.41-.43,0-.73A16.5,16.5,0,0,1,94,37l-1.12.47c.09-.83.4-1.18.89-1.19a5.46,5.46,0,0,1-.19-.74,5.29,5.29,0,0,1-.56-.05l-.4-.09,0,.3-1.31-.91h0a2.49,2.49,0,0,1-.42-.44,4.28,4.28,0,0,0,1.27.34l.57-.07v.11h.36a14.76,14.76,0,0,0,2.19-.29c.55-.12,1.1-.26,1.64-.41a.46.46,0,0,1,.07-.43.38.38,0,0,1,.5-.14c.12.09,0,.21,0,.41.36-.11.71-.23,1.06-.36a4.94,4.94,0,0,0,.78-.33,3.28,3.28,0,0,1-.68-.55,2.06,2.06,0,0,1-.49-.69.47.47,0,0,1,.09-.45.59.59,0,0,1,.19-.13s.09-.06.14-.06a3.86,3.86,0,0,1,.48-.16l.58-.18a11.93,11.93,0,0,0,1.14-.41,1.35,1.35,0,0,0,.22-.12l0-.08s.08-.55.1-.75c.05-.39.06-.8.08-1.2a3.62,3.62,0,0,0-.69-2.14,10.2,10.2,0,0,0-2.16-2.67,8.5,8.5,0,0,0-1.24-.63,7.6,7.6,0,0,0-2.7-.58,27.19,27.19,0,0,0-5.45.82,8.7,8.7,0,0,0-4.12,3.68,17.17,17.17,0,0,0-1.37,3.27Zm15.49-1c.21,0,.08.32.38.49s-.17.5-.38.5a.51.51,0,0,1,0-1Zm-1.14-3.81a.37.37,0,0,1,.5-.14c.14.1-.1.25,0,.52s-.36.24-.5.14A.37.37,0,0,1,97.92,25.22ZM92,32.47l0-.17L94.28,32c0,.11.06.36.11.64Zm.86-1.41c.32.09.17-.5.38-.5s.09.32.39.5-.18.49-.39.49S92.56,31,92.89,31.06Zm3,.63a2.42,2.42,0,0,1-.54-.09,1.29,1.29,0,0,1-.42.12.77.77,0,0,1-.45-.1c-.05,0,0-.26,0-.34a.56.56,0,0,1,.39-.22,4.92,4.92,0,0,1,1.07.2c.13,0,.22.19.33.3A1.3,1.3,0,0,1,95.92,31.69Zm.52-2.88c-.13.32-.51-.1-.54-.31a.45.45,0,0,1,.43-.45c.12-.33.52.1.55.31S96.58,28.49,96.44,28.81ZM95,22.9l0,.51-1.13.06,0-.49Zm.11,1.53a2.74,2.74,0,0,1,1.81,1.06,2.08,2.08,0,0,1-3.62,0A2.74,2.74,0,0,1,95.07,24.43Zm-1.18,3.29c0,.2,0,.4,0,.61a9.57,9.57,0,0,1-1.2-.13c-.08,0-.09-.36-.13-.55Zm-1.25,1.76c.3.18-.17.49-.38.49a.5.5,0,0,1,0-1C92.47,29,92.34,29.3,92.64,29.48Zm-1.32-4.74c0-.13.25-.34.32-.31a.74.74,0,0,1,.39.35,4,4,0,0,1,.09.74C91.73,25.32,91.17,25.38,91.32,24.74ZM84.05,35.37l1.4-.55.06.13-1.36.69Zm1.93.69v.09l0,0-1.1.64-.15-.14a1.71,1.71,0,0,1,.24-.42,3.37,3.37,0,0,1,.38-.28l0-.07c.36-.56.83-.71,1.53-.12ZM86.91,34c-.32,0-.59-.51-.88-.79.28-.28.53-.68.86-.79s.57.31,1.15.66C87.49,33.53,87.17,34,86.91,34Zm1.55-5.38a2,2,0,0,1-.21-.72c0-.18.26-.34.41-.5a4,4,0,0,1,.57.52s-.24.29-.36.44Zm.65,6.32a.67.67,0,0,1,0,.52,3.28,3.28,0,0,1-.53.53c-.08-.43-.48-.83.12-1.11C88.78,34.8,89.08,34.85,89.11,34.92Zm-.76,2.67c.22,0,.45.29.81.56-.34.29-.61.62-.72.58a1.12,1.12,0,0,1-.6-.61C87.8,38,88.17,37.6,88.35,37.59Zm-1,2.93c.39-1,1.22-.37,1.68-.82l-.15.82Zm1.48,2.3c0-.13.25-.34.32-.32a.67.67,0,0,1,.39.35,2.92,2.92,0,0,1,.09.74C89.25,43.4,88.7,43.46,88.84,42.82Zm2-.15.87,1.42C90.69,44,90.37,43.45,90.84,42.67ZM91.69,46a3.28,3.28,0,0,1-.53.53c-.08-.43-.48-.83.12-1.11.12,0,.42,0,.45.06A.72.72,0,0,1,91.69,46Zm1.56-2.74c-.36,0-.81.11-1.06-.05-.58-.4-.42-1.24.32-1.76a7.54,7.54,0,0,1,.68,1A2,2,0,0,1,93.25,43.27Zm1.47-.83a.42.42,0,0,1,.71.4c-.08.16-.26-.06-.51.08S94.63,42.6,94.72,42.44Zm.69,2-1.58,1.23c0,.15,0,.32-.08.54L93.48,46l.35-.27C94,45,94.19,44.94,95.41,44.45Zm-2.07-4.62a.31.31,0,0,1,.28.26h0l-2.29.62-.13-.32.54-.63Zm-1.08-2-.76.37c-.06-.37-.11-.74-.16-1.11l.48-.14C92,37.26,92.11,37.56,92.26,37.85Zm-1.6-2.8c.32.21.63.44,1,.68-.74.5-.91.4-1.23-.69C90.54,35,90.62,35,90.66,35.05Zm-1.07-3.78c-.08.05-.44-.17-.5-.33s.35-.7.73-.78l.58.39A6.06,6.06,0,0,1,89.59,31.27ZM87.9,25.49l1.21.32a1.61,1.61,0,0,1-.54.34l.63.39,1,.1-.06.59L89,27.08l0,.08L88.77,27l-.27,0V26.9c-.2-.12-.4-.24-.59-.38,0,0,.06-.21.16-.39L88,26.07C87.86,26,87.92,25.7,87.9,25.49ZM87,30.56c-.39-.2-1-.13-.8-.77,0-.13.25-.34.32-.32a.71.71,0,0,1,.39.35A2.92,2.92,0,0,1,87,30.56Zm-1.76-4.31c.08-.12.23-.32.33-.3a11.26,11.26,0,0,1,1.2.26,1.85,1.85,0,0,1-1.46.32A.33.33,0,0,1,85.27,26.25Z"/><path d="M51.18,79.36a38,38,0,0,0,4-.74c1.34-.29,2.71-.54,4.08-.75s2.7-.5,4.05-.78l4-.87,2-.43,1-.21.51-.12c.11,0,.21-.06.33,0a6.36,6.36,0,0,1,.71-.31l.57-.22.55-.26c.38-.16.75-.35,1.11-.53l1.09-.58c1.45-.79,2.86-1.64,4.27-2.51s2.83-1.71,4.26-2.55c.73-.42,1.46-.83,2.21-1.21a11.66,11.66,0,0,1,1.18-.53l.57-.22c.18-.06.35-.16.53-.24a16.87,16.87,0,0,0,3.9-2.81,17.22,17.22,0,0,0,1.67-1.75,8.46,8.46,0,0,0,1.3-2,2.65,2.65,0,0,0,.24-1.07v-.28l0-.28a3.86,3.86,0,0,0-.12-.57,9.27,9.27,0,0,0-1-2.19,14.64,14.64,0,0,0-1.43-2,12.06,12.06,0,0,0-.84-.9l-.7-.66c-.52-.32-1-.71-1.47-1.06s-1.22-.88-1.86-1.26A8.06,8.06,0,0,0,87,49a2,2,0,0,0-1-.18.65.65,0,0,0-.59.5,1.49,1.49,0,0,0,.17.91l.23.49-.54-.08A31.6,31.6,0,0,0,80,50.39a13.59,13.59,0,0,0-2.58.36,3.55,3.55,0,0,0-2,1.12l-.06.1-.12.05c-1.36.66-2.75,1.32-4.2,1.86a12.48,12.48,0,0,1-2.26.66,5.52,5.52,0,0,1-2.07.05,8.53,8.53,0,0,1-.64,1.2,13.74,13.74,0,0,1-1,1.41,12.6,12.6,0,0,1-1.11,1.31,8.22,8.22,0,0,1-1.31,1.18l-.06.05h-.07c-.79.19-1.58.43-2.43.57a5.17,5.17,0,0,1-1.31.07,3.75,3.75,0,0,1-1.13-.28c-.67.47-1.33,1-2,1.55L53.55,63.4c-1.37,1.15-2.71,2.32-4.09,3.45a2,2,0,0,1,.35-.11,6.06,6.06,0,0,0-1.15,1.11c-.35.4-.67.83-1,1.26-.64.86-1.26,1.73-1.87,2.62-.3.43-.63.89-.91,1.31a3.59,3.59,0,0,0-.37,1.35,7.3,7.3,0,0,0,0,1.55,3.27,3.27,0,0,0,.13.76,1.65,1.65,0,0,0,.3.59l0-.07a7.79,7.79,0,0,1,1.29-1.65,15.45,15.45,0,0,1,1.57-1.36,14.26,14.26,0,0,0-1.44,1.47,6.84,6.84,0,0,0-1.12,1.68,2.06,2.06,0,0,0-.21.92,1,1,0,0,0,.1.42,1.49,1.49,0,0,0,.23.39,1.91,1.91,0,0,0,1.69.51c.67,0,1.36-.12,2.06-.15S50.52,79.45,51.18,79.36Z"/><path d="M101.21,26.48l.08.13.08.17a1.7,1.7,0,0,1,.1.32,5,5,0,0,1,.06,1.27,9.9,9.9,0,0,1-.14,1.22,6,6,0,0,1-.11.61l0,.15a.44.44,0,0,1-.09.21,1.15,1.15,0,0,1-.31.16c-.39.15-.79.25-1.18.36l-.13,0,.06,0,.19.1a3.62,3.62,0,0,0,.4.19c.28.11.57.19.85.27a13.18,13.18,0,0,0,1.75.34l.45.05a1,1,0,0,0,.39,0,1.29,1.29,0,0,0,.59-.5,1.93,1.93,0,0,0,.18-.38.61.61,0,0,1,.48-.36,1.69,1.69,0,0,1,.9.3,1.81,1.81,0,0,0,.57-.09,5,5,0,0,0,.62-.21,7.12,7.12,0,0,0,1.16-.61,3.4,3.4,0,0,0,.93-.83,2.25,2.25,0,0,0,.32-1.14,9.92,9.92,0,0,0-.23-2.59,12.59,12.59,0,0,0-.77-2.51,2.67,2.67,0,0,0-1.72-1.55,4.52,4.52,0,0,0-2.46.15,12.21,12.21,0,0,0-2.4,1.08c-.7.4-1.39.82-2,1.28L100.9,26Zm1.68,3s.63-.2.92.07a.67.67,0,0,1,.15.91.68.68,0,0,1-.93-.07C102.74,30.08,102.89,29.44,102.89,29.44Z"/><path d="M18.47,81.79c-1.49.29-3,.62-4.45,1s-2.94.76-4.38,1.23h0a.7.7,0,0,0,.29.19,2.65,2.65,0,0,0,.71.19,8.56,8.56,0,0,0,1.52,0,12.42,12.42,0,0,0,1.49-.21,7,7,0,0,0,.69-.2c.24-.09.46-.19.69-.3.93-.42,1.84-.94,2.75-1.44l.95-.54Z"/><path d="M94.4,100.2a9.47,9.47,0,0,0,2.08.24c1.42,0,2.86-.15,4.33-.21l.59,0c-.09-.25-.18-.48-.26-.72-.78.11-1.54.2-2.31.25s-1.67.1-2.48.11-1.64,0-2.47,0l-.55,0,0,0q.27.07.54.18C94.08,100.1,94.23,100.16,94.4,100.2Z"/><path d="M51.63,81.73l.06.06a.83.83,0,0,0,.22.15,3.73,3.73,0,0,0,.6.26,12.1,12.1,0,0,0,1.41.34c.44.07.88.14,1.34.19l.69-.39.12,0,.16-.1a3.43,3.43,0,0,0,.33-.24l.67-.53c.45-.36.88-.75,1.32-1.13.71-.61,1.43-1.23,2.17-1.81-.42.09-.85.19-1.28.27-1.34.26-2.68.59-4,.84a33.16,33.16,0,0,1-4.15.57c-.71,0-1.44,0-2.09,0l-1.54,0,.83.16a13.67,13.67,0,0,1,1.5.37,3.6,3.6,0,0,1,1.53.84l.09.1S51.62,81.73,51.63,81.73Z"/><path d="M96.45,101.23a10.26,10.26,0,0,1-2.24-.32c-.19,0-.37-.12-.56-.18s-.32-.12-.49-.18c-.33-.11-.68-.2-1-.29L90,99.73a7.7,7.7,0,0,1-2.13-.83,1.64,1.64,0,0,1-.25-.21,1.57,1.57,0,0,1-.21-.28,3.59,3.59,0,0,0-.28-.44c-.2-.28-.42-.56-.65-.83-.47-.53-3.64-3.52-4.67-4.55-.5-.52-1-1-1.51-1.59-.24-.27-.48-.54-.71-.84a4.15,4.15,0,0,1-.53-1A8.46,8.46,0,0,0,78,87.32a6.86,6.86,0,0,0-.71-.81c-.12-.13-.26-.25-.39-.37l0,0c-.34.09-3.07.73-3.48.8,0,0,0,0,0,0a7.9,7.9,0,0,0,2.52,4.15h0s1.75,2,2.65,3L81.33,97l1.36,1.46.68.75.08.09.06.07v0h0l0,.08a.27.27,0,0,1,0,.15,1.27,1.27,0,0,0,0,.22l0,.49a15.92,15.92,0,0,0,0,1.95l0,.15h1.06l0-2.32V99.4l.56.51a14.49,14.49,0,0,0,4.35,2.81,5.69,5.69,0,0,0,1.21.32c.21,0,.41,0,.61,0l.65,0c.87,0,1.76-.14,2.64-.25,1.76-.22,9.49-.81,10.19-.68,0-.4,0-.79,0-1.18l-3.88.13C99.42,101.12,98,101.29,96.45,101.23Z"/><path d="M110.32,33.57a1.64,1.64,0,0,0-1-1.07c-.23-.09-.52-.11-.8-.2a7,7,0,0,1-.81-.26l-.78-.3-.4-.14-.19-.06a.19.19,0,0,1-.11-.07,1.37,1.37,0,0,1-.36,0h-.24l0,0a1.56,1.56,0,0,0-.72-.28.22.22,0,0,0-.2.15,1.71,1.71,0,0,1-.22.42,1.47,1.47,0,0,1-.78.6,1.21,1.21,0,0,1-.5,0l-.46-.07a15.47,15.47,0,0,1-1.76-.41c-.29-.1-.58-.2-.85-.32l-.41-.2a1.16,1.16,0,0,1-.31-.22l-.35.09a3.89,3.89,0,0,1-.47.09s-.09,0-.12.08a.41.41,0,0,0-.14.12.34.34,0,0,0,0,.31,1.64,1.64,0,0,0,.48.58,2.85,2.85,0,0,0,1.37.7,15.92,15.92,0,0,1,1.6.36,13,13,0,0,0,1.56.31c1.07.14,2.14.27,3.22.38l.78.09a6.49,6.49,0,0,0,.76,0,11.9,11.9,0,0,0,1.55-.25l.28-.05.1.23s.06.11.09.17l.13.19,0,0A1.51,1.51,0,0,0,110.32,33.57Z"/><path d="M103.82,49.32l0-.25a.14.14,0,0,0,0,.09v0s0,0,0,0v0l-.06-.09c0-.07-.1-.15-.15-.21l-.34-.42c-.24-.27-.49-.54-.75-.8-.51-.53-1-1-1.62-1.49a29.86,29.86,0,0,1-2.47-2.57,3.71,3.71,0,0,1-.65,1.48,6.86,6.86,0,0,1-2.61,2.06,13.15,13.15,0,0,1-3.09,1c-.52.1-1,.18-1.56.23.17.17.34.34.5.53a2.51,2.51,0,0,1,.7,1.34,1.39,1.39,0,0,1-.16.78,1.85,1.85,0,0,1-.21.33l-.06.07c.11.11.2.22.3.34a4,4,0,0,1,.66.48,12.46,12.46,0,0,1,.91.87,14.75,14.75,0,0,1,1.56,2,9.5,9.5,0,0,1,1.15,2.27A4.64,4.64,0,0,1,96,58l.05.32,0,.34A3.35,3.35,0,0,1,95.83,60a9.25,9.25,0,0,1-1.32,2.21,19,19,0,0,1-5.77,4.93,5.63,5.63,0,0,1-.61.27l-.6.23a11,11,0,0,0-1.07.48c-.72.37-1.44.77-2.16,1.19L80,71.76c-1.45.8-2.91,1.6-4.4,2.34l-1.13.53c-.38.18-.76.35-1.15.51l-.59.24-.59.2a2.32,2.32,0,0,1-.78.17c-.1.08-.22.07-.33.12l-.5.14-1,.28-2,.54c-1.33.35-2.67.69-4,1-.85.21-1.71.41-2.56.59-.65.78-1.29,1.55-2,2.3-.39.43-.8.85-1.22,1.27-.18.18-.37.35-.57.52.61.13,1.22.26,1.83.43a9.84,9.84,0,0,1,1.42.54,5.2,5.2,0,0,1,.69.43,1.77,1.77,0,0,1,.3.31c.89-.51,1.78-1,2.69-1.5s2.09-1.1,3.16-1.59c-.92.74-1.87,1.44-2.84,2.12l-.53.36q3.6,0,7.19-.29c1.32-.1,2.64-.2,3.94-.39a11.31,11.31,0,0,0,1.89-.42,4.08,4.08,0,0,0,.42-.18l.19-.11.24-.14c.23-.12.45-.22.68-.32l.11-.06s0,0,0,0l.15-.07c2.46-1,5-1.93,7.31-3.07a17.28,17.28,0,0,0,1.69-.93,7.17,7.17,0,0,0,.74-.56c.2-.18.43-.46.66-.7a29.4,29.4,0,0,1,3-2.68,39.47,39.47,0,0,1,3.28-2.31c.56-.36,1.13-.71,1.7-1s1.17-.67,1.7-1a14.06,14.06,0,0,0,3-2.42A16,16,0,0,0,104,63.82a25.05,25.05,0,0,0,1.6-3.54,15.51,15.51,0,0,0,.59-1.83,6.76,6.76,0,0,0,.12-1.86,13.36,13.36,0,0,0-.83-3.75A20.85,20.85,0,0,0,103.82,49.32Z"/><path d="M83.52,99.71h0v0A0,0,0,0,1,83.52,99.71Z"/><path d="M65.39,105.35a9.77,9.77,0,0,1-1.7-.22,13.09,13.09,0,0,1-1.62-.48,9.91,9.91,0,0,1-3-1.66A4,4,0,0,1,58,101.58a3.66,3.66,0,0,1-.21-.87c0-.28-.06-.55-.09-.83-.1-1.1-.16-2.19-.2-3.28-.09-2.19-.1-4.37-.11-6.55v0l0,0a22.8,22.8,0,0,0,1-2.14,11.28,11.28,0,0,0,.34-1.13,3.66,3.66,0,0,0,.1-.73,1.6,1.6,0,0,0,0-.39v0l0,0a2,2,0,0,1,1.13-.75,3.16,3.16,0,0,1,.6-.11,3.11,3.11,0,0,0-.51-.3,9.51,9.51,0,0,0-1.27-.46c-.8-.25-1.64-.42-2.48-.61l-.1.12c-.11.12-.22.24-.33.38a9.12,9.12,0,0,0-.6.79,5.7,5.7,0,0,0-.87,1.72,1.57,1.57,0,0,0,0,.42l0,.52,0,1c0,.68,0,1.37,0,2v4.1c0,1.37,0,2.73-.08,4.1v.13l-.08.08-2,2.05-.49.52-.2.22a6.21,6.21,0,0,0,.45.82l1.77-1,.68-.4,0,.8a11.82,11.82,0,0,0,0,1.19,5.14,5.14,0,0,0,.12,1.1,0,0,0,0,0,0,0l.1,0a4.18,4.18,0,0,0,.51.12.53.53,0,0,0,.32-.1,1.34,1.34,0,0,0,.33-.31l.31-.36.37.3a11,11,0,0,0,1.75,1.08c.62.32,1.26.62,1.91.88a10.46,10.46,0,0,0,4,.85c1.43,0,2.88-.07,4.32-.11l3.66-.13-.39-.86C69.6,105.43,67.5,105.45,65.39,105.35Z"/><path d="M65.43,104.56c1.76.07,3.54,0,5.32,0-.09-.3-.17-.59-.25-.88a14,14,0,0,1-2.4.39,15.27,15.27,0,0,1-2.62,0c-1.3-.1-2.59-.2-3.89-.39l.73.27A10.74,10.74,0,0,0,65.43,104.56Z"/><path d="M83.07,99.44l0,0,0,0A0,0,0,0,1,83.07,99.44Z"/><path d="M75.62,85.44c.33-.08.66-.13,1-.2.06-.26.13-.51.2-.77a10.12,10.12,0,0,1,.4-1,4.2,4.2,0,0,1,.26-.52l-.35.13a12,12,0,0,1-2,.4c-1.33.16-2.66.23-4,.27l-1,0c.73.78,1.46,1.77,2.08,2.55.73-.21,1.48-.4,2.22-.58C74.79,85.61,75.21,85.53,75.62,85.44Z"/></svg>