<svg id="Layer_1" data-name="Layer 1" xmlns="http://www.w3.org/2000/svg" width="128" height="128" viewBox="0 0 128 128"><title>Artboard 71</title><path d="M44.61,127.73v-16h2.63v7.1l5.35-7.1h3.56L51.21,118l5.2,9.74H53l-3.61-7.5-2.14,2.68v4.82Z"/><path d="M57.45,119.85a11.22,11.22,0,0,1,.85-4.7,6.36,6.36,0,0,1,2.2-2.75,5.86,5.86,0,0,1,3.3-.9,5.66,5.66,0,0,1,4.58,2.14A11.45,11.45,0,0,1,68.27,126a5.46,5.46,0,0,1-4.46,2,5.56,5.56,0,0,1-4.49-2A9.42,9.42,0,0,1,57.45,119.85Zm2.72-.11a6.78,6.78,0,0,0,1,4.13,3.15,3.15,0,0,0,2.6,1.38,3.12,3.12,0,0,0,2.58-1.37,7,7,0,0,0,1-4.2,6.88,6.88,0,0,0-1-4.1,3.24,3.24,0,0,0-5.24,0A6.85,6.85,0,0,0,60.17,119.74Z"/><path d="M72.43,111.77h5.25a8.11,8.11,0,0,1,3,.39,3.37,3.37,0,0,1,1.47,1.39,4.49,4.49,0,0,1,.09,4.32,3.41,3.41,0,0,1-1.33,1.38,3.56,3.56,0,0,1,1.82,1.41,4.34,4.34,0,0,1,.65,2.44,5.12,5.12,0,0,1-.83,3,3.45,3.45,0,0,1-2,1.48,20.42,20.42,0,0,1-3.69.2H72.43Zm2.64,2.66v3.69h1.74a17.7,17.7,0,0,0,1.94-.06,1.61,1.61,0,0,0,1-.57,2.27,2.27,0,0,0,.07-2.4,1.22,1.22,0,0,0-.75-.55,14.92,14.92,0,0,0-2.53-.11Zm0,6.34V125h2.45a7.69,7.69,0,0,0,2.07-.17,1.48,1.48,0,0,0,.77-.66,2.31,2.31,0,0,0,.31-1.26,2.27,2.27,0,0,0-.33-1.28,1.72,1.72,0,0,0-.88-.7,8.73,8.73,0,0,0-2.25-.19Z"/><path d="M54.72,26.93a13.24,13.24,0,0,1,3.22-1.65c1.14-.38,2.28-.67,3.43-1,2.31-.55,4.62-1,6.93-1.44l3.78-.72a29.18,29.18,0,0,0,5.5-4.3c1.54-1.65,3.23-4.29,5-8.75a12.5,12.5,0,0,0,.6-3.3A17.16,17.16,0,0,0,82.84,0a48.75,48.75,0,0,1-.91,5.47,15.86,15.86,0,0,1-2.54,5.95,15.3,15.3,0,0,1-2.24,2.38c-.81.7-1.57,1.43-2.45,2.11A25.49,25.49,0,0,1,69,19c-2,.82-4,1.52-6.12,2.14l-3.09.92c-1,.29-2.07.59-3.09.84a13.58,13.58,0,0,0-5.43,3,10.77,10.77,0,0,0-3.14,5.2l1.53.45A29.36,29.36,0,0,1,54.72,26.93Z"/><path d="M75.29,21.72c-.56.15-1.14.32-1.72.43l-1.74.33-3.47.71c-2.3.46-4.6,1-6.87,1.63-1.12.32-2.25.65-3.34,1.05a14.27,14.27,0,0,0-3,1.64,28.16,28.16,0,0,0-4.94,4.57c.06.12.09.22.15.35s.17.35.27.53a8.59,8.59,0,0,0,.61,1,6.64,6.64,0,0,0,1.64,1.66,5.61,5.61,0,0,0,4.43.68,18,18,0,0,1,3.25-3.4,10.46,10.46,0,0,1,3.84-2,15.53,15.53,0,0,1,2.91-3.8,10.05,10.05,0,0,1,4.4-2.76,3.71,3.71,0,0,1,3.17.68,5.4,5.4,0,0,1,1.31,1.61A29.23,29.23,0,0,0,83.3,23a18.45,18.45,0,0,0,5.54-6.22,15.83,15.83,0,0,0,1.84-8,18.58,18.58,0,0,0-.56-4.13q-.09-.36-.21-.72a1.1,1.1,0,0,1,0,.18,23.69,23.69,0,0,1-.15,3.59,10.93,10.93,0,0,1-.94,3.52,25.08,25.08,0,0,1-1.66,3.17,13.29,13.29,0,0,1-5.26,4.83A31,31,0,0,1,75.29,21.72Z"/><path d="M91.17,69.31c-7.93-2.22-15.94-9.55-18.93-13.11l0-.07v-.07c-.11-1.21-.29-2.42-.51-3.61s-.44-2.39-.71-3.59c-.53-2.31-1.09-4.69-1.83-7l0,0a10.85,10.85,0,0,0-.79,1.84c-.23.67-.42,1.35-.62,2l-.18-.35a16.88,16.88,0,0,1,.35-2.11,9.29,9.29,0,0,1,.68-2.07l0-.07.08,0A18.21,18.21,0,0,0,72.4,38.2a16,16,0,0,0,2.82-3.76,11,11,0,0,0,.7-4.59,9.13,9.13,0,0,0-.36-2.33,3.93,3.93,0,0,0-1.13-1.94,2.77,2.77,0,0,0-2.16-.53,6.1,6.1,0,0,0-2.19.89,16.49,16.49,0,0,0-3.48,3.35c-2.4,2.27-2.54,5.68-2.26,8.84l0,.19-.13.08c-.56.32-1.11.67-1.69,1l-.87.47a4.93,4.93,0,0,1-.9.41v-.08c.24-.14.52-.35.79-.53l.79-.56,1.23-.86c-.29-1.59-.41-4.81.49-6.31a8.26,8.26,0,0,0-3.17,1.8,19.43,19.43,0,0,0-3.15,3.55l0,.07-.09,0a7.92,7.92,0,0,1-2.75.16,5.12,5.12,0,0,1-2.45-.86,8.22,8.22,0,0,1-2.74-4l-2.11-.76a3.29,3.29,0,0,0-.74,1.45c-.25.75-.45,1.5-.66,2.28v.08l-.08,0a10,10,0,0,0-1.36,1.33c-.43.48-.85,1-1.24,1.49-.8,1-1.58,2.08-2.49,3.07l0,0,0,0c-2,1.43-4,2.69-6,3.94s-4.14,2.43-6.24,3.56L25.5,50.94a8.44,8.44,0,0,0-2.87,2,5.45,5.45,0,0,0-1.05,3.23,9.81,9.81,0,0,0,.49,3.1l2.37-.16c.89-.06,1.78-.13,2.68-.17,1.79-.09,3.57-.17,5.37-.19v.09c-1.77.28-3.55.49-5.32.7-.9.1-1.79.17-2.68.27l-1.18.11a5.12,5.12,0,0,0,1.38,1.82,5.29,5.29,0,0,0,2.36,1.13,8,8,0,0,0,2.63-.06A7.83,7.83,0,0,0,31,62.51a5.89,5.89,0,0,0,.58-.24A1.57,1.57,0,0,0,32,62l.14-.19.2,0a71.27,71.27,0,0,0,8.31,1,13,13,0,0,0,2.06-.08,19.13,19.13,0,0,1,2.15-.09,9.34,9.34,0,0,1,4.29.95,1.22,1.22,0,0,0,.19.12c1.46-.13,3.23-.14,4.49-.31a19.23,19.23,0,0,0,4.5-.94A3.67,3.67,0,0,0,59.8,60.9a12.36,12.36,0,0,0,1-2.11c.58-1.47.92-3,1.37-4.56l.07.05c-.31,1.52-.57,3.12-1,4.66a13.33,13.33,0,0,1-.91,2.24,4.39,4.39,0,0,1-1.68,1.88,13.27,13.27,0,0,1-4.74,1.17c-1.18.08-2.5.21-3.75.17a3.83,3.83,0,0,1,.61.84c.35.71.54,1.35.81,2l1.39,4c.86,2.49,1.68,5,2.48,7.47,4.85,14,20,24.29,23.95,24.29,0,0-2.35-10.19,2.62-18.45,5.47-9.1,17.85-14.68,18.45-15A22.78,22.78,0,0,1,91.17,69.31ZM47.55,46.55a10,10,0,0,1-3.11-1.25c-.35.25-.75.52-1.1.78-.82.61-.34,2.35-.16,4.26-1.75-2.09-.75-4.58,0-4.83s.66-.71,1.53-1.21c.53-.73.83-1.37,1.64-1.45,1.9-.18,4.31.74,4.7,1.44S48.84,46.69,47.55,46.55Z"/></svg>