<svg id="Layer_1" data-name="Layer 1" xmlns="http://www.w3.org/2000/svg" width="128" height="128" viewBox="0 0 128 128"><title>Artboard 60</title><path d="M46.6,123.76V109.44H49v6.37l4.8-6.37H57L52.53,115l4.66,8.74H54.12L50.88,117,49,119.43v4.33Z"/><path d="M58.13,116.69a10.29,10.29,0,0,1,.75-4.22,5.77,5.77,0,0,1,2-2.46,5.15,5.15,0,0,1,3-.81,5.09,5.09,0,0,1,4.11,1.92,10.25,10.25,0,0,1-.1,11.09,5.41,5.41,0,0,1-8,0A8.41,8.41,0,0,1,58.13,116.69Zm2.44-.1a6,6,0,0,0,.94,3.7,2.8,2.8,0,0,0,4.64,0,6.27,6.27,0,0,0,.92-3.76,6.17,6.17,0,0,0-.89-3.68,2.91,2.91,0,0,0-4.7,0A6.14,6.14,0,0,0,60.57,116.59Z"/><path d="M71.57,109.44h4.7a7.41,7.41,0,0,1,2.71.35A3.06,3.06,0,0,1,80.3,111a4,4,0,0,1,.07,3.88,3,3,0,0,1-1.19,1.24,3.18,3.18,0,0,1,1.63,1.27,3.85,3.85,0,0,1,.59,2.19,4.51,4.51,0,0,1-.75,2.64,3.06,3.06,0,0,1-1.78,1.33,17.94,17.94,0,0,1-3.31.18h-4Zm2.36,2.38v3.31h1.56a15.07,15.07,0,0,0,1.74,0,1.44,1.44,0,0,0,1-.51,1.71,1.71,0,0,0,.34-1.13,1.74,1.74,0,0,0-.28-1,1.14,1.14,0,0,0-.67-.49,13.58,13.58,0,0,0-2.27-.1Zm0,5.7v3.81h2.2a6.91,6.91,0,0,0,1.86-.15,1.35,1.35,0,0,0,.69-.59,2.39,2.39,0,0,0,0-2.28,1.51,1.51,0,0,0-.79-.62,7.27,7.27,0,0,0-2-.17Z"/><path d="M58,30.32a12.8,12.8,0,0,1,3.06-1.56c1.09-.37,2.18-.64,3.27-.91,2.2-.52,4.41-.94,6.61-1.37l3.59-.69a27.94,27.94,0,0,0,5.24-4.09,25.53,25.53,0,0,0,4.72-8.34,11.77,11.77,0,0,0,.57-3.14,16.61,16.61,0,0,0-.27-5.54,48.39,48.39,0,0,1-.87,5.21,15.16,15.16,0,0,1-2.42,5.67,14.77,14.77,0,0,1-2.13,2.27c-.78.67-1.5,1.36-2.34,2a23.88,23.88,0,0,1-5.47,2.94c-1.91.79-3.86,1.45-5.82,2l-3,.87c-1,.28-2,.57-3,.81a12.86,12.86,0,0,0-5.16,2.89,10.27,10.27,0,0,0-3,5l1.46.42A28.15,28.15,0,0,1,58,30.32Z"/><path d="M77.62,25.36c-.54.15-1.09.31-1.64.41l-1.66.32L71,26.76c-2.19.44-4.38.95-6.54,1.55-1.07.31-2.15.62-3.18,1a13.88,13.88,0,0,0-2.88,1.57,26.25,26.25,0,0,0-4.71,4.35c.06.12.09.21.15.33s.16.34.25.51a9.21,9.21,0,0,0,.58,1,5.9,5.9,0,0,0,1.57,1.58,5.33,5.33,0,0,0,4.21.66A17.1,17.1,0,0,1,63.57,36a9.81,9.81,0,0,1,3.65-1.86A14.55,14.55,0,0,1,70,30.55a9.44,9.44,0,0,1,4.18-2.64,3.57,3.57,0,0,1,3,.65,5.4,5.4,0,0,1,1.26,1.54,27.82,27.82,0,0,0,6.78-3.52,17.35,17.35,0,0,0,5.28-5.93A15.07,15.07,0,0,0,92.28,13a18.06,18.06,0,0,0-.54-3.94c0-.23-.13-.45-.2-.68a1,1,0,0,1,0,.17A22.75,22.75,0,0,1,91.42,12a10.59,10.59,0,0,1-.9,3.35,22.76,22.76,0,0,1-1.58,3,12.53,12.53,0,0,1-5,4.6A29.47,29.47,0,0,1,77.62,25.36Z"/><path d="M92.74,70.7c-7.55-2.12-15.19-9.1-18-12.49l0-.07v-.06c-.1-1.16-.28-2.31-.48-3.44s-.42-2.28-.68-3.42c-.5-2.2-1-4.47-1.75-6.64l0,0A9.81,9.81,0,0,0,71,46.36c-.23.64-.41,1.28-.59,1.94L70.2,48a17.21,17.21,0,0,1,.34-2,9.14,9.14,0,0,1,.64-2l0-.06.07,0a16.89,16.89,0,0,0,3.58-2.81,15.07,15.07,0,0,0,2.69-3.58,10.32,10.32,0,0,0,.66-4.37,8.64,8.64,0,0,0-.34-2.22A3.75,3.75,0,0,0,76.8,29a2.67,2.67,0,0,0-2.06-.51,5.76,5.76,0,0,0-2.09.86,15.17,15.17,0,0,0-3.31,3.19C67.05,34.74,66.92,38,67.19,41l0,.18-.14.07c-.53.31-1,.64-1.61.93l-.82.45a5.22,5.22,0,0,1-.86.39v-.08c.23-.14.5-.33.75-.5l.76-.53,1.17-.83c-.27-1.51-.4-4.58.46-6a7.9,7.9,0,0,0-3,1.72,18.24,18.24,0,0,0-3,3.38l0,.06-.09,0a7.66,7.66,0,0,1-2.62.16,5,5,0,0,1-2.33-.82,7.78,7.78,0,0,1-2.61-3.8l-2-.72a3.2,3.2,0,0,0-.7,1.37c-.24.71-.43,1.43-.62,2.17v.08l-.09.05A9.66,9.66,0,0,0,48.48,40c-.41.45-.8.93-1.18,1.42-.77,1-1.5,2-2.37,2.92l0,0,0,0C43,45.77,41.07,47,39.12,48.16s-3.94,2.32-5.94,3.39l-3,1.65a7.89,7.89,0,0,0-2.73,1.92,5.14,5.14,0,0,0-1,3.07,9.44,9.44,0,0,0,.47,3L29.17,61c.85-.06,1.7-.14,2.55-.17,1.7-.09,3.41-.16,5.12-.18v.08c-1.68.27-3.38.47-5.07.67-.85.1-1.7.17-2.55.26l-1.13.1a4.79,4.79,0,0,0,1.32,1.73,5,5,0,0,0,2.25,1.08,7,7,0,0,0,2.5-.06,6.9,6.9,0,0,0,1.23-.29,3.35,3.35,0,0,0,.55-.23,1.54,1.54,0,0,0,.39-.27l.13-.18.19,0a68.87,68.87,0,0,0,7.92.92,13,13,0,0,0,2-.07,17.31,17.31,0,0,1,2-.08,8.71,8.71,0,0,1,4.09.9,1.88,1.88,0,0,0,.18.12c1.4-.13,3.08-.14,4.28-.3a18.56,18.56,0,0,0,4.29-.89,3.44,3.44,0,0,0,1.44-1.48,10.89,10.89,0,0,0,.95-2c.55-1.41.88-2.86,1.31-4.35l.06.05a44.82,44.82,0,0,1-1,4.44A11.77,11.77,0,0,1,63.31,63a4.12,4.12,0,0,1-1.6,1.8,12.66,12.66,0,0,1-4.51,1.11,34.75,34.75,0,0,1-3.57.16,3.8,3.8,0,0,1,.58.8c.33.68.51,1.29.76,1.92l1.33,3.8c.82,2.37,1.6,4.74,2.36,7.11,4.62,13.29,19.07,23.14,22.82,23.14,0,0-2.24-9.7,2.49-17.57,5.22-8.67,17-14,17.59-14.24A21.78,21.78,0,0,1,92.74,70.7ZM51.19,49a9.77,9.77,0,0,1-3-1.19c-.34.23-.72.49-1,.74-.79.58-.33,2.23-.16,4.06-1.66-2-.71-4.36,0-4.6s.63-.68,1.46-1.16c.51-.69.8-1.31,1.56-1.38,1.81-.17,4.11.71,4.49,1.38S52.41,49.15,51.19,49Z"/></svg>