<svg id="Layer_1" data-name="Layer 1" xmlns="http://www.w3.org/2000/svg" width="128" height="128" viewBox="0 0 128 128"><title>Artboard 72</title><path d="M25.35,127.72,20.59,111.5H23.5l3.37,12,3.26-12H33l-4.77,16.22Z"/><path d="M34.54,111.5h2.68v8.79a20.79,20.79,0,0,0,.1,2.66,2.69,2.69,0,0,0,.85,1.66,2.59,2.59,0,0,0,1.77.59,2.65,2.65,0,0,0,1.52-.41,2.06,2.06,0,0,0,.8-1.16,14.31,14.31,0,0,0,.22-3.16v-9h2.67V120a22.82,22.82,0,0,1-.34,4.72,4,4,0,0,1-1.58,2.36A5.3,5.3,0,0,1,40,128a6,6,0,0,1-3.25-.75,4.2,4.2,0,0,1-1.69-2.1,15.84,15.84,0,0,1-.53-5Z"/><path d="M48.28,127.72V111.63H51V125h6.68v2.74Z"/><path d="M61.42,127.72V114.24h-4V111.5H68v2.74H64.1v13.48Z"/><path d="M70,111.5h2.68v8.79a20.79,20.79,0,0,0,.1,2.66,2.69,2.69,0,0,0,.85,1.66,3,3,0,0,0,3.28.18,2,2,0,0,0,.81-1.16,14.31,14.31,0,0,0,.22-3.16v-9h2.67V120a22.82,22.82,0,0,1-.34,4.72,4,4,0,0,1-1.58,2.36,5.3,5.3,0,0,1-3.22.9,6,6,0,0,1-3.25-.75,4.2,4.2,0,0,1-1.69-2.1,15.84,15.84,0,0,1-.53-5Z"/><path d="M83.65,127.72V111.5h5.66a7.93,7.93,0,0,1,3.1.44,3.4,3.4,0,0,1,1.52,1.51,5.25,5.25,0,0,1,.6,2.59,4.79,4.79,0,0,1-.91,3.06,4.06,4.06,0,0,1-2.6,1.46,6.91,6.91,0,0,1,1.43,1.36A18.75,18.75,0,0,1,94,124.56l1.61,3.16H92.4l-1.94-3.53A23.45,23.45,0,0,0,89,121.8a2.22,2.22,0,0,0-.8-.67,3.69,3.69,0,0,0-1.35-.18h-.55v6.77Zm2.68-9.36h2a9.9,9.9,0,0,0,2.33-.16,1.45,1.45,0,0,0,.8-.65,2.32,2.32,0,0,0,.31-1.29,2.23,2.23,0,0,0-.31-1.25,1.5,1.5,0,0,0-.84-.64,10.39,10.39,0,0,0-2.18-.13h-2.1Z"/><path d="M97.29,127.72V111.5h9.87v2.74H100v3.6h6.68v2.73H100V125h7.44v2.74Z"/><path d="M0,14.92V.37H2.42V12.44h6v2.48Z"/><path d="M21.26,14.92H18.62L17.57,11.6H12.76l-1,3.32H9.18L13.86.25h2.58ZM16.79,9.11,15.13,3.67,13.5,9.11Z"/><path d="M22.73,14.92V.25h3.9a11.85,11.85,0,0,1,2.85.21,3.22,3.22,0,0,1,1.77,1.45A5.36,5.36,0,0,1,32,4.77a5.43,5.43,0,0,1-.6,2.67A3.47,3.47,0,0,1,29.85,9a7.89,7.89,0,0,1-3.11.43H25.15v5.54ZM25.15,2.73V6.9H26.5a5.8,5.8,0,0,0,1.84-.19A1.57,1.57,0,0,0,29.13,6a2.26,2.26,0,0,0,.31-1.22,2.22,2.22,0,0,0-.32-1.24,1.59,1.59,0,0,0-.79-.67,7.37,7.37,0,0,0-2-.17Z"/><path d="M34.14,14.92V.25H38A12,12,0,0,1,40.9.46a3.23,3.23,0,0,1,1.76,1.45,5.27,5.27,0,0,1,.7,2.86,5.43,5.43,0,0,1-.6,2.67A3.47,3.47,0,0,1,41.26,9a7.85,7.85,0,0,1-3.11.43H36.56v5.54ZM36.56,2.73V6.9h1.35a5.8,5.8,0,0,0,1.84-.19A1.57,1.57,0,0,0,40.54,6a2.26,2.26,0,0,0,.32-1.22,2.23,2.23,0,0,0-.33-1.24,1.59,1.59,0,0,0-.79-.67,7.37,7.37,0,0,0-2-.17Z"/><path d="M45.56,14.92V.25h8.93V2.73H48V6H54V8.45H48v4h6.73v2.48Z"/><path d="M59.68,14.92V2.73H56.1V.25h9.56V2.73H62.1V14.92Z"/><path d="M72.33,14.92V.25h8.25V2.73H74.75V6.2h5V8.68h-5v6.24Z"/><path d="M92.72,14.92H90.08L89,11.6H84.22l-1,3.32H80.64L85.32.25H87.9ZM88.25,9.11,86.59,3.67,85,9.11Z"/><path d="M101.9,9.52l2.35.92A6.59,6.59,0,0,1,102.42,14a4.6,4.6,0,0,1-3.16,1.14,4.7,4.7,0,0,1-3.81-1.81,8.78,8.78,0,0,1-1.68-5.65,9.23,9.23,0,0,1,1.69-5.87,4.81,4.81,0,0,1,4-1.84,4.58,4.58,0,0,1,3.39,1.38,6.06,6.06,0,0,1,1.42,2.91l-2.4.7a3.26,3.26,0,0,0-.92-1.82,2.29,2.29,0,0,0-1.62-.64,2.57,2.57,0,0,0-2.17,1.16,6.61,6.61,0,0,0-.85,3.83,7.2,7.2,0,0,0,.82,4,2.51,2.51,0,0,0,2.13,1.17,2.21,2.21,0,0,0,1.67-.75A4.8,4.8,0,0,0,101.9,9.52Z"/><path d="M106.53,14.92V.25h8.93V2.73H109V6h6V8.45h-6v4h6.72v2.48Z"/><path d="M117.92.25h4.43a6.61,6.61,0,0,1,2.54.38,4.25,4.25,0,0,1,1.57,1.26,6.47,6.47,0,0,1,1.13,2.31A13.11,13.11,0,0,1,128,7.73a11.26,11.26,0,0,1-.43,3.31,6.72,6.72,0,0,1-1.09,2.23,4.22,4.22,0,0,1-1.59,1.23,6,6,0,0,1-2.41.42h-4.56Zm2.43,2.48v9.71h1.82a4.86,4.86,0,0,0,1.69-.22,2,2,0,0,0,.86-.67,3.67,3.67,0,0,0,.56-1.4,11.5,11.5,0,0,0,.22-2.53,11.5,11.5,0,0,0-.23-2.57,3.35,3.35,0,0,0-.7-1.48,2.18,2.18,0,0,0-1.15-.71,9.37,9.37,0,0,0-2-.13Z"/><path d="M65,101.32c-.69-.22-1.36-.48-2-.74s-1.32-.54-2-.86a3.62,3.62,0,0,1-.48-.25,2.85,2.85,0,0,1-.46-.31,3.78,3.78,0,0,1-.7-.86,6.67,6.67,0,0,1-.83-2,13,13,0,0,1-.4-2,14.42,14.42,0,0,1,0-2.08,9.12,9.12,0,0,1,.15-1.36,2,2,0,0,1-.76-.25,4.83,4.83,0,0,1-.59-.43,1.8,1.8,0,0,0-.39-.23,1.93,1.93,0,0,0-.44-.07s-.07,0-.08,0,0,0,0,0a.67.67,0,0,0-.1.34,9.15,9.15,0,0,0,0,1.19c0,.11,0,.22,0,.33.13.4.26.81.38,1.22.18.66.35,1.33.5,2s.28,1.36.37,2c0,.35.07.7.09,1a5.9,5.9,0,0,1,0,1.1l0,.19-.18,0a10.82,10.82,0,0,1-1.39,0,5.2,5.2,0,0,0-1.32.1.51.51,0,0,0-.21.11,1,1,0,0,0-.07.24,3.22,3.22,0,0,0,0,.62,7.32,7.32,0,0,0,.11.8,4.29,4.29,0,0,1,1.21-.47,2.8,2.8,0,0,1,1,0,2.91,2.91,0,0,1,.47.13l.37.14c.51.17,1,.36,1.51.55s.94.37,1.4.55l.68-.09c-.58-.5-1.16-1-1.71-1.55,0,0,0,0,0-.06H59c.92.5,1.82,1,2.7,1.59l.26.17c1.25.16,2.49.36,3.73.57.25-.35.52-.69.78-1C66,101.6,65.47,101.47,65,101.32Z"/><path d="M87.08,44.45v0a17.83,17.83,0,0,0-.66-2.66,5.15,5.15,0,0,0-.56-1.18,2.07,2.07,0,0,0-.37-.45L85,39.77a14.05,14.05,0,0,0-2.48-1.43,19.52,19.52,0,0,0-2.38-.92,5.49,5.49,0,0,1-.51.21,2.41,2.41,0,0,1-.35.07,2.46,2.46,0,0,1,1,.83l.15.24-.16.21a3.87,3.87,0,0,1-.64.64c-.22.18-.46.35-.7.51a7.14,7.14,0,0,1-1.56.72,6.31,6.31,0,0,1-1.49.27,5.1,5.1,0,0,1,.58.26,3.8,3.8,0,0,1,1,.81,3.66,3.66,0,0,1,.68,1.12,3.79,3.79,0,0,1,.21,1.29v1.17l-.78-.91a4.84,4.84,0,0,0-.82-.75,4.12,4.12,0,0,0-1-.52c-.69-.25-1.47-.38-2.25-.58a11.53,11.53,0,0,1,0,1.18,6.41,6.41,0,0,1-.1,1.22,3.16,3.16,0,0,1-.18.63,2.71,2.71,0,0,1-.36.6c-.22.28-.42.61-.63.94-.11.16-.23.33-.37.51a2.25,2.25,0,0,1-.57.51,1.09,1.09,0,0,1-.5.12,1,1,0,0,1-.49-.12,2.26,2.26,0,0,1-.59-.47,6.54,6.54,0,0,1-.7-1L69,47l0-.13a8.2,8.2,0,0,0,0-2.52,8.36,8.36,0,0,0-.87-2.4c-.14-.28-.3-.54-.47-.81A6.13,6.13,0,0,1,66.41,43a4.79,4.79,0,0,1-1.1.8,2.63,2.63,0,0,1-1.47.28l-.19,0-.11-.18a2.86,2.86,0,0,1-.43-1.3,3.1,3.1,0,0,1,.2-1.33A3.83,3.83,0,0,1,64,40.09L64,40l-.19.09a3,3,0,0,1-1.47.24l-.23,0-.09-.22c-.07-.17-.15-.34-.21-.51a5.52,5.52,0,0,1-.16-.54,3.87,3.87,0,0,1-.07-1.13,2.79,2.79,0,0,1,.31-1.09,2,2,0,0,1,.65-.73,2.85,2.85,0,0,1,.23-.37,5.47,5.47,0,0,1-1.06.26l-.41,0A5.55,5.55,0,0,1,61,37.2a5.49,5.49,0,0,1-.74,1.19,3,3,0,0,1-1.1,1l-.35.14-.06,0a6.33,6.33,0,0,1,1.68,1.79,12.91,12.91,0,0,1,1.84,5.24,13.5,13.5,0,0,1,.11,2.77,11,11,0,0,1-.18,1.39c-.09.47-.23.91-.36,1.35-1,2.93-2.23,5.72-3.47,8.52l.15-.13a2.76,2.76,0,0,0,.29-.3,8.34,8.34,0,0,0,.53-.65c.35-.45.65-.91,1-1.37a18.59,18.59,0,0,0,1.65-2.86c.24-.5.47-1,.67-1.51s.43-1,.64-1.54c.31-.81.63-1.63.94-2.46,0-.46-.06-.92-.1-1.39a13.12,13.12,0,0,0-.22-1.78,8,8,0,0,1,.64,1.71c.15.6.29,1.19.38,1.8A13.83,13.83,0,0,1,65,51.94c0,.11,0,.22,0,.33.15-.25.3-.49.43-.74a6.86,6.86,0,0,0,.71-2.19A8.8,8.8,0,0,0,66.07,47a10.11,10.11,0,0,0-.53-2.35,7.35,7.35,0,0,1,1,2.27c.11.41.21.79.28,1.21a6,6,0,0,1,.07,1.27,6.69,6.69,0,0,1-.64,2.48,9.1,9.1,0,0,1-.87,1.43,5,5,0,0,1,.66.56,3.86,3.86,0,0,1,.69,1A2.27,2.27,0,0,1,66.92,56c-.07.73-.08,1.42-.1,2.17,0,.27,0,.54-.07.81.28-.31.53-.64.78-1a19.58,19.58,0,0,0,1.38-2.31,2.7,2.7,0,0,1,.2-.31.85.85,0,0,1,.16-.19.54.54,0,0,1,.21-.13.45.45,0,0,1,.41.07.54.54,0,0,1,.19.27.89.89,0,0,1,.06.2c0,.13,0,.19.08.27a.25.25,0,0,0,.27.16,1.26,1.26,0,0,0,.54-.19A4.31,4.31,0,0,0,72,55a4.19,4.19,0,0,0,.4-.54,2.49,2.49,0,0,0,.15-.28,12.56,12.56,0,0,1-.24-1.74,9.21,9.21,0,0,1,.18-2.62,15.44,15.44,0,0,0,.31,2.56,16.4,16.4,0,0,0,1.77,4.76c.18.32.38.63.58.94l0-.3c0-.59,0-1.18-.08-1.76s0-1.18,0-1.77l0-1.77A29.86,29.86,0,0,1,75.71,56c.08.58.17,1.17.24,1.75s.14,1.17.19,1.76l.14,1.39-.9-1.1a12.65,12.65,0,0,1-1.54-2.23,11.17,11.17,0,0,1-1-2.48c-.07-.23-.13-.46-.19-.69a3.47,3.47,0,0,1-.36.78,4.08,4.08,0,0,1-1,1.08,1.81,1.81,0,0,1-.74.34.88.88,0,0,1-.52-.06.87.87,0,0,1-.38-.35L69.6,56v0a15.38,15.38,0,0,1-1.34,2.44,10.63,10.63,0,0,1-1.9,2.13l-1.09.93.38-1.35a11,11,0,0,0,.42-2.07,18.15,18.15,0,0,1,.31-2.18,2.37,2.37,0,0,0-.6-1.86,5.88,5.88,0,0,0-.53-.59l-.42.52-1.1,1.28L64,53.68c.06-.36.1-.72.13-1.09l0,0h0c0-.21,0-.42,0-.63a8.64,8.64,0,0,0,0-.88c-.09.46-.19.92-.31,1.38a18.5,18.5,0,0,1-1.17,3.19,13.32,13.32,0,0,1-.86,1.51,12,12,0,0,1-1.06,1.38,14.11,14.11,0,0,1-1.2,1.25,7.56,7.56,0,0,1-.69.55,2.36,2.36,0,0,1-.63.33c-.21.46-.41.93-.62,1.39l-1.09,2.47c-.36.77-.67,1.55-1.09,2.32a6.47,6.47,0,0,1-.4,1.57,17.26,17.26,0,0,1-.76,1.7,13,13,0,0,1-1,1.6,8.47,8.47,0,0,1-.58.76l-.32.37a2.34,2.34,0,0,1-.32.3c-.19.68-.44,1.29-.68,1.92s-.54,1.32-.82,2-.68,1.54-1,2.31l.38,1c.16.4.32.78.48,1.16s.34.75.52,1.1a4.14,4.14,0,0,0,.63.91l.12.11,0,.19A7.1,7.1,0,0,1,51.85,85c0,.37,0,.75,0,1.12s0,.73,0,1.08a3.88,3.88,0,0,0,.16,1l0,.1v0a2.94,2.94,0,0,0,.51,1.55,4,4,0,0,0,.53.7,3.17,3.17,0,0,0,.65.57l.07,0,0,.07a2.59,2.59,0,0,0,.62,1,1.61,1.61,0,0,0,.45.33c.07,0,.14,0,.12,0s0,0,0,0a1.51,1.51,0,0,0,0-.47c0-.19-.07-.4-.11-.6a6.78,6.78,0,0,1-.18-1.35,1.8,1.8,0,0,1,.22-.88,1.21,1.21,0,0,1,.47-.42A1.56,1.56,0,0,1,56,88.7a2.9,2.9,0,0,1,.87.09,2.69,2.69,0,0,1,.78.37c.22.14.37.26.48.32a.69.69,0,0,0,.31.06l.55-.08a5.33,5.33,0,0,0,.6-.11,3,3,0,0,0,1-.37,1,1,0,0,0,.47-.61,1.61,1.61,0,0,0,0-.47c0-.22,0-.44,0-.65,0-.44,0-.87.08-1.3a22.29,22.29,0,0,1,.39-2.56c.1-.42.21-.85.35-1.26a3.16,3.16,0,0,1,.29-.62.83.83,0,0,1,.23-.27,2.25,2.25,0,0,1,0-.22c.14-.67.27-1.34.38-2L63,78l.08-.51,0-.26V77s0,0,0,0,0,0,0-.06a0,0,0,0,1,.06,0c0,.06,0,.08,0,.1v.46l0,.53v1c0,.69-.06,1.37-.12,2.07,0,.24,0,.5-.06.75s0,.23,0,.34c0,.37,0,.74,0,1.1,0,.73,0,1.48,0,2.17a5.7,5.7,0,0,0,.08,1,1.8,1.8,0,0,0,.26.8.56.56,0,0,0,.21.2l.12,0,.08,0,.16,0a2.3,2.3,0,0,1,.73.29,1.17,1.17,0,0,1,.38.41,1.25,1.25,0,0,1,.12.45c0,.1,0,.13,0,.13h0l.11.07.3.15.43.28c0-.13,0-.26,0-.39a1.77,1.77,0,0,1,.05-.32.77.77,0,0,1,.2-.41.63.63,0,0,1,.5-.16,2.46,2.46,0,0,1,.33.06,6.42,6.42,0,0,0,1.11.21,1.09,1.09,0,0,1,.63.29.56.56,0,0,1,.11.2h0s0,0,0,0q.17,1,.3,1.95a4.47,4.47,0,0,0,1.08-1.62,1.64,1.64,0,0,0,.1-.51,1,1,0,0,0,0-.24c0-.12,0-.26,0-.39a5.32,5.32,0,0,1,.2-1.52,12.31,12.31,0,0,0,.68-2.48c0-.1,0-.12,0-.34a2.73,2.73,0,0,1,.08-.46,4.44,4.44,0,0,1,.27-.73c.21-.45.43-.86.65-1.27.46-.8.93-1.57,1.36-2.35a11.79,11.79,0,0,0,1-2.38,3,3,0,0,0,.09-.45s.05-.35.06-.45v-.33q0-.66,0-1.32a7.67,7.67,0,0,0-.53-2.59.06.06,0,0,1,0-.09.08.08,0,0,1,.08,0,5,5,0,0,1,.7,1.22,10.18,10.18,0,0,1,.6,2.29c.35-1.35.68-2.69.94-4q.63-3,1-6.08c.25-2,.25-4.08.35-6.12.06-1.38,0-2.76,0-4.15L77.7,54a11.2,11.2,0,0,1-1.37-1.47,8.23,8.23,0,0,1-1-1.71A7.3,7.3,0,0,1,74.73,49a5.9,5.9,0,0,1,0-1.92,8.5,8.5,0,0,0,.45,1.82,9.17,9.17,0,0,0,.78,1.68A10.51,10.51,0,0,0,77,52.06a8,8,0,0,0,.56.6l-.09-.82c-.07-.64-.17-1.26-.26-1.89s-.19-1.26-.31-1.89c-.06-.32-.12-.63-.19-.94a3.47,3.47,0,0,0-.13-.46l-.07-.23-.12-.21a2.73,2.73,0,0,1,.55.83c.14.29.26.59.38.9.22.61.42,1.24.58,1.86s.29,1.27.41,1.91c0,.32.09.65.13,1,0,.16,0,.32,0,.5v.22a16.28,16.28,0,0,1,.35,2.09c.06.52.12,1,.16,1.55L79,58.62a35.59,35.59,0,0,1-.52,6.19c-.31,2-.73,4.08-1.23,6.09-.38,1.49-.83,3-1.32,4.42l0,.31c0,.12,0,.26,0,.38a6,6,0,0,1-.07.75,15.3,15.3,0,0,1-1.89,4.63,18.9,18.9,0,0,0,2.06-2.61,24.83,24.83,0,0,0,2.12-3.93,29.64,29.64,0,0,0,1.42-4.2,27.09,27.09,0,0,0,.77-4.31l.14-1.57,1,1.22,0,.07.45-1.3c.36-1,.69-2,1-3.05s.64-2,.91-3.06a14.58,14.58,0,0,0,.52-3l.07-3.23,1.08,3a5.34,5.34,0,0,1,.26,1.07c0,.34.09.68.13,1,0,.12,0,.25,0,.37a18.23,18.23,0,0,0,.68-2.05,25.35,25.35,0,0,0,.69-3.74A55.76,55.76,0,0,0,87.08,44.45ZM53.19,75.89l1.57-2.29a12.77,12.77,0,0,0,1-1.71c.28-.6.54-1.22.8-1.84s.49-1.24.73-1.87.48-1.26.76-1.89c-.11.67-.23,1.33-.37,2s-.31,1.32-.51,2-.34,1.08-.55,1.61l.14-.14a24.45,24.45,0,0,0,1.66-2,22.33,22.33,0,0,0,1.42-2.16,13.36,13.36,0,0,0,1.09-2.36,9,9,0,0,1-.66,2.55A16,16,0,0,1,59,70.11a18.24,18.24,0,0,1-1.61,2.15,15.24,15.24,0,0,1-2,1.89Zm8.6.91a7.39,7.39,0,0,1-1.14,1.58,16.2,16.2,0,0,1-1.4,1.35L57.8,81l-2.5,2.15,1.84-2.68c.27-.39.53-.8.78-1.22s.47-.85.68-1.28.42-.88.6-1.33a8.75,8.75,0,0,0,.47-1.39,2.62,2.62,0,0,1,0,.74c0,.25-.06.5-.1.75a12.53,12.53,0,0,1-.38,1.46c-.09.25-.18.5-.28.75.4-.33.81-.66,1.19-1a10,10,0,0,0,1.27-1.33A5.27,5.27,0,0,0,62.27,75,3.72,3.72,0,0,1,61.79,76.8Zm6.87-.51A10.83,10.83,0,0,1,67.8,78c-.34.54-.69,1.07-1.07,1.58L65,81.92,66,79.24a9.75,9.75,0,0,0,.41-3.13c0-.54,0-1.08-.06-1.64s-.1-1.1-.09-1.65c.16.53.36,1.06.48,1.6A13.5,13.5,0,0,1,67,76.08a10.34,10.34,0,0,1,.07,1.48A14.71,14.71,0,0,0,68,76a8.14,8.14,0,0,0,.59-1.7,17.9,17.9,0,0,0,.28-1.83A7.48,7.48,0,0,1,69,74.39,6.58,6.58,0,0,1,68.66,76.29Zm1.17-14a12.25,12.25,0,0,1-.65,2.24,15.24,15.24,0,0,1-1,2.12,13.52,13.52,0,0,1-1.33,2l-1.92,2.27,1.17-2.69c.2-.48.37-1,.54-1.52s.3-1.06.45-1.59l.42-1.62c.14-.53.26-1.08.44-1.62a25,25,0,0,1-.22,3.35l-.12.73c.32-.54.63-1.09.9-1.66a21.43,21.43,0,0,0,.88-2.09A13.33,13.33,0,0,0,70,60,7.8,7.8,0,0,1,69.83,62.29Zm3.16,12c-.44-.41-.89-.81-1.3-1.26a7.12,7.12,0,0,1-1.09-1.5,3.8,3.8,0,0,1-.42-1.82,5.53,5.53,0,0,1,.37-1.76c0,.23,0,.45,0,.68l1.25,1.61c0,.09,0,.2,0,.33a6.13,6.13,0,0,1,0-.86c.1.37.2.73.33,1.09s.26.69.41,1a19.5,19.5,0,0,0,1,2l.6,1.26Z"/><path d="M71.86,98.26a10,10,0,0,0,2,.69c.5.14,1,.25,1.51.35-.2-.16-.39-.33-.58-.51a4.78,4.78,0,0,1-.47-.54c-.11-.14-.2-.3-.3-.45-.48,0-1,0-1.45,0H71.12a1.27,1.27,0,0,0,.29.21A4.76,4.76,0,0,0,71.86,98.26Z"/><path d="M75.73,100.09c-.68-.22-1.36-.48-2-.74s-1.32-.54-2-.86c-.16-.08-.32-.15-.48-.25a2.65,2.65,0,0,1-.46-.31,4.06,4.06,0,0,1-.7-.86,6.7,6.7,0,0,1-.82-2,12.28,12.28,0,0,1-.4-2.06,14.42,14.42,0,0,1,0-2.08l.06-.69-.09-.93,0-.27a.26.26,0,0,0,0-.14.84.84,0,0,0-.4-.14l-.57,0-.58-.08a1.91,1.91,0,0,0-.24,0c-.06,0,0,0,0,0s0,0,0,.1,0,.14,0,.23,0,.33.07.52a1.1,1.1,0,0,1,0,.32.94.94,0,0,1,0,.22.68.68,0,0,1-.07.17.08.08,0,0,1,0,0c.14.48.26,1,.37,1.45.15.67.27,1.34.38,2s.2,1.36.26,2a10,10,0,0,1,0,2.11l0,.2-.19,0c-.48.05-.94,0-1.39,0a5.67,5.67,0,0,0-1.32.09.45.45,0,0,0-.22.12.59.59,0,0,0-.06.24,2.57,2.57,0,0,0,0,.62c0,.12,0,.25,0,.37s.14.23.2.36a3.76,3.76,0,0,1,1.08-.4,3.08,3.08,0,0,1,1,0,2.91,2.91,0,0,1,.47.13l.37.14c.51.17,1,.36,1.52.55s.93.37,1.39.55l.68-.09c-.58-.5-1.15-1-1.7-1.55a0,0,0,0,1,0-.06h0c.93.5,1.83,1,2.7,1.6l.26.16c1.25.16,2.49.36,3.73.57.26-.35.52-.69.79-1C76.72,100.37,76.22,100.24,75.73,100.09Z"/><path d="M50.89,74.89a18.31,18.31,0,0,0,.56-2l0-.13.13-.1a2.37,2.37,0,0,0,.25-.27c.09-.11.17-.23.25-.35s.33-.5.49-.76c.31-.51.62-1,.95-1.55l1-1.55.06-.11a13.73,13.73,0,0,1-1,1c-.35.31-.7.61-1.06.9-.18.15-.37.29-.56.43a4.29,4.29,0,0,1-.65.39l-.45.2,0-.51v-.11a4.15,4.15,0,0,0-.39.52,8.2,8.2,0,0,0-.82,1.58l-.29.73-.22-.31A31.67,31.67,0,0,1,49.45,77c0,.77,0,1.53-.09,2.29,0,0,0,0,0-.09a.13.13,0,0,1,0-.06.09.09,0,0,1,0,0c.26-.74.53-1.47.78-2.21S50.67,75.56,50.89,74.89Z"/><path d="M61.11,99.49a9.76,9.76,0,0,0,2,.69l1.17.28a1.7,1.7,0,0,0,0-.22L64,100a4.88,4.88,0,0,1-.47-.55,3.52,3.52,0,0,1-.3-.45c-.48,0-1,0-1.45,0H60.35l.29.2C60.8,99.33,61,99.42,61.11,99.49Z"/><path d="M41.44,74.49,42,74a42.08,42.08,0,0,1,0-6.15c.07-1.06.2-2.12.34-3.17s.33-2.1.52-3.15a101.59,101.59,0,0,1,2.87-12.42s0,0,.06,0a.05.05,0,0,1,0,.05c-.5,2.07-.91,4.14-1.28,6.23s-.71,4.17-1,6.27-.42,4.21-.68,6.3-.45,3.94-.73,5.93l.08-.08c.47-.46.92-.94,1.37-1.42l.5-.57a19.68,19.68,0,0,1,.16-4.34,44.88,44.88,0,0,1,1-4.61c.36-1.53.74-3,1.14-4.57s.83-3,1.27-4.53c0,0,0,0,.06,0a.05.05,0,0,1,0,0c-.33,1.53-.64,3.07-.93,4.6s-.59,3.07-.87,4.61-.46,3.09-.77,4.61c-.26,1.3-.53,2.59-.78,3.9.17-.2.34-.41.5-.62a9.13,9.13,0,0,0,1-1.57l.92-1.89L47,69.42a1.2,1.2,0,0,0,.25.68,2.87,2.87,0,0,0,.68.58c.27.19.59.37.9.6.14.1.27.21.41.33.05-.08.1-.18.15-.27.17-.27.35-.54.54-.8a3.58,3.58,0,0,1,.71-.77A.69.69,0,0,1,51,69.6a.49.49,0,0,1,.47.39.08.08,0,0,1,0,0l.12-.08.56-.37c.36-.26.73-.54,1.07-.84A9.46,9.46,0,0,0,55,66.79c.42-.76.79-1.59,1.15-2.41s.7-1.65,1-2.48c.57-1.43,1.09-2.87,1.59-4.31a6.25,6.25,0,0,1-.72.63,7.4,7.4,0,0,1-.92.62,4.06,4.06,0,0,1-.51.26,2.09,2.09,0,0,1-.3.11h0a6.38,6.38,0,0,1-.47,1.13,9.3,9.3,0,0,1-.75,1.24,7.14,7.14,0,0,1-1,1.11,4.85,4.85,0,0,1-1.25.88l-.27.11-.16-.18a1.2,1.2,0,0,1-.31-.57,2.58,2.58,0,0,1-.07-.53,6,6,0,0,1,.11-1,9.88,9.88,0,0,1,.35-1.21,9,9,0,0,1-1.15,1.25l-.22.16a1,1,0,0,1-.32.16.43.43,0,0,1-.23,0,.7.7,0,0,1-.1-.08.51.51,0,0,1-.09-.18.63.63,0,0,1,0-.31l0-.06a5.54,5.54,0,0,1-1.05.92l-.36.22-.21-.3a2.46,2.46,0,0,1-.17-.27,2.08,2.08,0,0,1-.1-.24,2.17,2.17,0,0,1-.1-.45,4.3,4.3,0,0,1-.08-.86,15.27,15.27,0,0,1,0-1.66c0-.55.12-1.09.2-1.63s.19-1.08.33-1.61c.07,1.09.1,2.18.15,3.26,0,.53,0,1.07.1,1.59,0,.14,0,.27,0,.39s0,.26.06.38l0,.16a5.86,5.86,0,0,0,.81-.84,16.46,16.46,0,0,0,1-1.44c.33-.51.64-1,.94-1.55a11.68,11.68,0,0,0,.79-1.63,5.85,5.85,0,0,1-.38,1.8,11.67,11.67,0,0,1-.72,1.71,12,12,0,0,1-1,1.6l0,0a3.49,3.49,0,0,0,0,.53s0,.06,0,.08l0,0,.14-.17c.18-.23.37-.49.54-.75s.36-.52.52-.79c.35-.52.69-1,1-1.58.16-.27.32-.53.47-.8a4.14,4.14,0,0,0,.34-.77l0-.09c.17-.37.37-.73.56-1.09s.41-.72.65-1.07c-.06.41-.15.82-.24,1.21s-.2.75-.32,1.12a3,3,0,0,1-.29,1,8,8,0,0,1-.44.88,12.48,12.48,0,0,1-1,1.57c-.05.52-.1,1-.11,1.54a6.31,6.31,0,0,0,.05.88,1.67,1.67,0,0,0,.1.4,4.34,4.34,0,0,0,.72-.64,9.42,9.42,0,0,0,.84-1c.25-.37.5-.74.71-1.13a8.55,8.55,0,0,0,.55-1.16l.06-.2.37-.1s0,0,0,0h.09l.21-.06a3.75,3.75,0,0,0,.47-.17c.32-.14.64-.29,1-.45s.61-.35.9-.54l.28-.21.08-.21c.58-1.68,1.14-3.38,1.62-5.08a10.84,10.84,0,0,0,.44-2.51,14.62,14.62,0,0,0-.09-2.56,14.29,14.29,0,0,0-.53-2.52,11,11,0,0,0-1-2.35A5.52,5.52,0,0,0,57.82,40a3.71,3.71,0,0,0-2.41-.43c-1.74.24-4.92,2.28-4.95,2.3A11,11,0,0,1,48.26,43l-1.14.44-.53.23a3.68,3.68,0,0,0-.42.35,11.3,11.3,0,0,0-2.46,3.86,19.15,19.15,0,0,0-1,4.45c-.09.77-.16,1.53-.2,2.3s-.06,1.54-.11,2.35c-.26,3.14-.67,6.24-1.08,9.33a18.08,18.08,0,0,0-.21,2.27l0,2.34a19,19,0,0,0,.1,2.28A4.82,4.82,0,0,0,41.44,74.49ZM57.32,46.67a3.64,3.64,0,0,1,.35-1,3.8,3.8,0,0,1,.59-.85,3.12,3.12,0,0,1,.79-.65c-.25.62-.48,1.19-.66,1.77a5,5,0,0,0-.22,1.24h0l.55-.19.56-.22a5.77,5.77,0,0,0,.56-.27,1.85,1.85,0,0,1-.35.54,3.94,3.94,0,0,1-.47.44,4.35,4.35,0,0,1-.55.36,2.24,2.24,0,0,1-.69.24l-.4.07-.07-.42A3,3,0,0,1,57.32,46.67Zm-6.56-2.08a3.79,3.79,0,0,1,.42-1.09,4.41,4.41,0,0,1,.68-.94,4.13,4.13,0,0,1,.89-.72,8.3,8.3,0,0,0-1,1.91,5.65,5.65,0,0,0-.22,1,1.48,1.48,0,0,0,0,.21c.38-.25.76-.5,1.16-.73s.65-.37,1-.53a2.44,2.44,0,0,1,1.12-.31A4,4,0,0,0,54,44c-.28.24-.54.49-.83.73a15.85,15.85,0,0,1-1.78,1.33l-.66.41,0-.72A3.92,3.92,0,0,1,50.76,44.59Zm-.32,7.1a2.39,2.39,0,0,1,.17-.61,1.66,1.66,0,0,1,.31-.55,3.87,3.87,0,0,0,0,.59q0,.3.06.57a3.15,3.15,0,0,0,.13.51l0,.1h0a2.39,2.39,0,0,0,.21-.13l.45-.32.9-.7.9-.7a7,7,0,0,0,.86-.77,2.3,2.3,0,0,1-.47,1.1,6,6,0,0,1-.75.92,7.65,7.65,0,0,1-.89.81c-.16.12-.33.24-.51.35l-.3.16-.17.07-.25.07-.12,0-.11-.06a.94.94,0,0,1-.5-.74A1.92,1.92,0,0,1,50.44,51.69ZM43.71,48.8a7.79,7.79,0,0,1,1-2,8.64,8.64,0,0,1,1.58-1.67,10.6,10.6,0,0,1,1.94-1.23,9.71,9.71,0,0,1,2.15-.78,15.92,15.92,0,0,0-1.92,1.14,14,14,0,0,0-1.69,1.37,9,9,0,0,0-1.35,1.62,5.87,5.87,0,0,0-.55,1l1-.33,1-.28c.33-.08.66-.15,1-.21l.55-.08-.18.49-.64,1.9c-.2.64-.39,1.27-.56,1.93a13.5,13.5,0,0,1,.15-2c.08-.49.17-1,.28-1.44l-.42.13-.94.32c-.63.24-1.25.46-1.86.72l-.92.39Z"/><path d="M46.46,70.78l-.16,3.94-.23,4.07c-.09,1.35-.11,2.72-.32,4.06a28.33,28.33,0,0,1-.68,3.27c-.11,1.33-.2,2.66-.29,4a34.43,34.43,0,0,0,2-3.77,10.34,10.34,0,0,0,1.23-4.49c0-1.62-.1-3.25.06-4.87a30.24,30.24,0,0,1,.72-4.51,6.1,6.1,0,0,0-1.5-1A4.12,4.12,0,0,1,46.46,70.78Z"/><path d="M42.5,80.05a42.26,42.26,0,0,1,1.38-6.29c-.24.26-.49.53-.74.78A13.91,13.91,0,0,1,41.55,76l-.56.41-.35-.61-.15-.28c.15,1.67.38,3.33.66,5,.23,1.19.43,2.37.7,3.54.16.72.33,1.45.5,2.17a20,20,0,0,1-.19-2.31,17.44,17.44,0,0,1,.09-1.91C42.33,81.31,42.4,80.68,42.5,80.05Z"/><path d="M45.36,78.72l.5-4,.51-4,0,0-.54.79c-.4.55-.84,1.08-1.28,1.6l-.39.42c-.2,1-.37,1.94-.51,2.92-.19,1.24-.33,2.49-.41,3.74s-.08,2.5-.16,3.75-.16,2.49-.33,3.77h0c.27,1.12.59,2.22.93,3.31a1.09,1.09,0,0,0,.05.17,43.36,43.36,0,0,1,1-5.14c0-1.08,0-2.15.11-3.22C44.94,81.41,45.19,80.07,45.36,78.72Z"/><path d="M74.75,30.14c.25-.09.5-.18.77-.25l.25,0a2.43,2.43,0,0,0-.25-.2,2,2,0,0,0-.84-.32,2.89,2.89,0,0,0-1.79.28c0,.37,0,.75,0,1.14,0,.18,0,.36,0,.55l.47-.39a3.1,3.1,0,0,1,.72-.44A7.67,7.67,0,0,1,74.75,30.14Z"/><path d="M78.46,24.33a2.56,2.56,0,0,1-1.13.71,2.74,2.74,0,0,1-1,.11h0a.72.72,0,0,1-.32.05,2.06,2.06,0,0,1-.46-.13c-.2-.08-.38-.18-.55-.25a.87.87,0,0,1-.48.23,1.24,1.24,0,0,1-.67-.11,2,2,0,0,1-.56-.38,4.37,4.37,0,0,1-.48.37,3,3,0,0,1-1,.37,3.56,3.56,0,0,1-1.08,0,3.8,3.8,0,0,1-.89-.26c-.2.32-.4.61-.59.91l-.45.74a1.59,1.59,0,0,1,.66.79,2.4,2.4,0,0,1,.14.62c0,.23,0,.37,0,.55,0,.35,0,.7.07,1a3,3,0,0,0,.19.87l0,.05h0l0,0,.17.15a.67.67,0,0,0,.27.16c.13.05.4-.07.63-.31a2,2,0,0,0,.53-.78,1.38,1.38,0,0,0,0-.92l0,0-.13.29c-.17.33-.37.62-.62,1.11h0a.07.07,0,0,1-.07,0s0,0,0,0a1,1,0,0,1-.24-.79,1.16,1.16,0,0,1,.38-.78,1.64,1.64,0,0,1,.39-.21,2,2,0,0,0,.37-.14A1.87,1.87,0,0,0,72,28a2.76,2.76,0,0,1,.54-.54l.11-.08a17.94,17.94,0,0,1-1.94,0,23,23,0,0,1,2.66-.66c.45-.09.9-.15,1.35-.24l.34,0,.38,0a6.28,6.28,0,0,1,.75,0,5.92,5.92,0,0,1,1.4.39,4.75,4.75,0,0,1,.64.3,3.41,3.41,0,0,0,.57.21,9.28,9.28,0,0,0,2.21.33.87.87,0,0,0-.14-.29.33.33,0,0,0-.19-.11c-.29,0-.62,0-1.12,0a1.43,1.43,0,0,1-.39-.11l-.28-.16-.47-.27a4.13,4.13,0,0,0-1.9-.59L74.3,26c-.75,0-1.5-.09-2.26-.16a0,0,0,0,1,0,0s0,0,0,0c.76-.09,1.5-.17,2.25-.23s1.5-.12,2.24-.17a4.57,4.57,0,0,1,2.37.57,5.25,5.25,0,0,0,.86.42c.23,0,.65,0,1.09,0h.07a1.32,1.32,0,0,1,.72.47,1.66,1.66,0,0,1,.3.67l0,.17a3.84,3.84,0,0,0,.49-.79,2.51,2.51,0,0,0,.2-.9,2.94,2.94,0,0,0-.18-.94,4,4,0,0,0-.91-1.29,5.13,5.13,0,0,0-1.36-.93,11.39,11.39,0,0,0-1.41-.54,1.78,1.78,0,0,1,.2.83A2.05,2.05,0,0,1,78.46,24.33Z"/><path d="M76,22.24l.39.51a2.63,2.63,0,0,1,.59,1.37,1.75,1.75,0,0,1,0,.45,4,4,0,0,0,.89-.78,2.48,2.48,0,0,0,.46-.81,7.38,7.38,0,0,0,.23-.82c-.5-.17-1-.31-1.5-.5h0l0,0L75.77,21a1.61,1.61,0,0,0-.09.26.74.74,0,0,0,0,.51A2.39,2.39,0,0,0,76,22.24Zm1.19.53c0-.38.17-.68.31-.67s.21.33.17.71-.17.68-.31.66S77.1,23.14,77.14,22.77Z"/><path d="M61.18,29a1.68,1.68,0,0,1,.89.31l.33.26-.26.32A13.69,13.69,0,0,1,61.2,31a.12.12,0,0,1-.05.05l.49-.17a2.66,2.66,0,0,0,.51-.27l.9-.68-.22,1a1.58,1.58,0,0,1-.09.26l-.1.15a2,2,0,0,1-.2.21c-.12.13-.25.25-.37.36l-.74.67a8.65,8.65,0,0,0-.67.69,4.5,4.5,0,0,0-.28.37,4.3,4.3,0,0,0,.95,0,2.51,2.51,0,0,0,1.22-.37L64,32.18l-1,1.48a1.46,1.46,0,0,1-.37.35l-.34.24-.67.43a5.23,5.23,0,0,0-1,.82,2,2,0,0,0,1,.19,4.72,4.72,0,0,0,1.38-.29l.49-.16-.36.34a3.81,3.81,0,0,0-.69.93,4.31,4.31,0,0,0-.11.49,3.86,3.86,0,0,0,0,1,6.07,6.07,0,0,0,.17.93l.13.46c0,.09.06.18.09.26h.3a4.3,4.3,0,0,0,.61,0c.2,0,.42,0,.63-.08l.45-.1.19-.12,0,.06,0,0a.49.49,0,0,1-.1.15,7.37,7.37,0,0,0-.8,2,2.92,2.92,0,0,0,.15,1.85,1.85,1.85,0,0,0,.78-.16,4.9,4.9,0,0,0,1-.57A10.07,10.07,0,0,0,67.62,41c-.29-.46-.58-.92-.84-1.41a13.18,13.18,0,0,1-1.1-2.45,14.05,14.05,0,0,1-.94-3.6,4.39,4.39,0,0,1,0-1l0-.23a.67.67,0,0,0,0-.2,1.76,1.76,0,0,0-.07-.4c-.15-.56-.52-1.05-.73-1.71V30l0-.09a7.38,7.38,0,0,0,.09-1.19V27.5c0-.42,0-.83,0-1.25s0-.82-.09-1.21v0a7.2,7.2,0,0,1-.2-1.29,12.82,12.82,0,0,1-1.23-.85,8.15,8.15,0,0,1-.63-.56c.08.21.16.4.25.59a5.72,5.72,0,0,0,.67,1.19l.47.62-.77-.29a2.37,2.37,0,0,0-.78-.11H61.5c.11.22.2.43.3.63a2.18,2.18,0,0,0,.69.93l1.4.75-1.61-.14c-.25,0-.47-.07-.66-.09a2.52,2.52,0,0,0-.54,0h0a2.76,2.76,0,0,1,1,.84l.21.29-.27.22a1.47,1.47,0,0,1-.27.17l-.2.12-.39.23a7.17,7.17,0,0,0-.69.5,2.87,2.87,0,0,0-.31.29l.19-.06A5.1,5.1,0,0,1,61.18,29Z"/><path d="M77.55,37.31a5.11,5.11,0,0,1,1.42.28h0a3.86,3.86,0,0,0,1-.75,7.2,7.2,0,0,0,.64-.71l-.12-.06a4.77,4.77,0,0,0-.52-.22l-.26-.1-.27-.09a3.61,3.61,0,0,0-.55-.12,4.91,4.91,0,0,0-1.15-.06,7.81,7.81,0,0,0-1.14.16c0,.1,0,.19.07.29l.07.44-.41-.17a3.66,3.66,0,0,0-.79-.18,4.79,4.79,0,0,0-.85-.05,4.13,4.13,0,0,0-.85.11,1.1,1.1,0,0,0-.57.35,3.59,3.59,0,0,1-.18,2.18l0,.08s0,.05,0,0,0,0,0,.05A2.09,2.09,0,0,0,73,39c0,.17,0,.36,0,.55l.28,2.28c0,.37.07.74.1,1.11a10.54,10.54,0,0,1,1.13-.09,5.83,5.83,0,0,1,1.31.1,4,4,0,0,1,1.28.48l.1.07a3.93,3.93,0,0,0-.42-.94,5.69,5.69,0,0,0-.71-.86,6.06,6.06,0,0,0-.74-.6A4.6,4.6,0,0,1,74,40.86a6.81,6.81,0,0,0,1.63-.08,6.62,6.62,0,0,0,1.51-.47,7.15,7.15,0,0,0,1.34-.79,5.94,5.94,0,0,0,.88-.76,3,3,0,0,0-.68-.39,7,7,0,0,0-1.2-.33c-.86-.18-1.74-.27-2.67-.4a7.2,7.2,0,0,1,1.36-.3A8.3,8.3,0,0,1,77.55,37.31Z"/><path d="M72.84,35c.1.37.2.73.33,1.09l.07.26a1.18,1.18,0,0,1,.52-.44,3.4,3.4,0,0,1,.88-.25,5.49,5.49,0,0,1,.91-.06,3.15,3.15,0,0,1,.44,0,3.15,3.15,0,0,0-1-1,4.48,4.48,0,0,0-1.7-.7l-.43-.06.09-.42a1.14,1.14,0,0,1,.28-.53,1.41,1.41,0,0,1,.45-.33,3,3,0,0,1,.93-.25,3.89,3.89,0,0,1,.47,0l-.24-.14a6.7,6.7,0,0,0-.7-.37,3.54,3.54,0,0,0-.71-.29l-.63-.2c0,.16,0,.33,0,.49a4.87,4.87,0,0,1-.21,1.09h0a3.09,3.09,0,0,0,0,1.05A8.32,8.32,0,0,0,72.84,35Z"/><path d="M64.69,24.92v0c0,.18,0,.35.06.53a5.6,5.6,0,0,1,1.32,1.25,4.85,4.85,0,0,1,.9,1.92,7.84,7.84,0,0,1-.11,2.07,5.39,5.39,0,0,0,.19,2,5,5,0,0,0,.35.91,4.5,4.5,0,0,0,.46.8,3.55,3.55,0,0,0,1.36,1.16,3.28,3.28,0,0,0,.84.31,1.55,1.55,0,0,0,.79,0,4.06,4.06,0,0,0,.84-.45c.17-.11.33-.23.49-.35-.06-.36-.12-.72-.15-1.09a3.3,3.3,0,0,1,.09-1.24h0a5.61,5.61,0,0,0,.26-1c.06-.34.12-.69.17-1,.08-.63.17-1.79.23-2.53a3.17,3.17,0,0,1-.49.17,1.42,1.42,0,0,0-.66.33,1.15,1.15,0,0,0-.14.17,1.5,1.5,0,0,1,.39,1.08,2.16,2.16,0,0,1-.44,1.12,2,2,0,0,1-.46.47,1.21,1.21,0,0,1-.78.23,1.49,1.49,0,0,1-.74-.27l-.25-.21-.06-.05-.08-.09a1,1,0,0,1-.13-.17,2.94,2.94,0,0,1-.3-1.2,10.32,10.32,0,0,1,0-1.11,2.87,2.87,0,0,0,0-.94,1,1,0,0,0-.17-.37,1,1,0,0,0-.27-.28l-.33-.22.2-.21c.28-.29.55-.57.81-.88a6.19,6.19,0,0,0,.71-.93l.07-.11.11.06a2.18,2.18,0,0,0,.91.18,2.45,2.45,0,0,0,.9-.18,3.77,3.77,0,0,0,.76-.44,5.86,5.86,0,0,0,.63-.59l.41-.44.25.5a1.39,1.39,0,0,0,.51.54.53.53,0,0,0,.29.1.21.21,0,0,0,.2-.07l.17-.2.17.09a4.77,4.77,0,0,1,.72.51,1.22,1.22,0,0,0,.4.22.48.48,0,0,0,.21-.3,1,1,0,0,0-.09-.46,3.54,3.54,0,0,0-.58-1,6.53,6.53,0,0,1-.37-.61,1.94,1.94,0,0,1-.21-.77,1.08,1.08,0,0,1,.31-.77,2,2,0,0,1,.22-.2c-.4-.23-.81-.43-1.21-.65s-.87-.44-1.32-.64A10.27,10.27,0,0,0,71.67,19l-.06,0h0c-.28-.27-.58-.53-.88-.78a5.85,5.85,0,0,0-.86.67,2.78,2.78,0,0,0-.26.37,2.32,2.32,0,0,0-.18.39,6.7,6.7,0,0,0-.34,1.07c-.06.38,0,.75-.08,1.18a1.48,1.48,0,0,1-.24.65,1.12,1.12,0,0,1-.33.28c-.12.07-.33.12-.32.13a.54.54,0,0,0-.18.21,2.64,2.64,0,0,0-.14.4c-.16.62-.2,1.37-.35,2.15a0,0,0,0,1-.06,0l0,0a3.53,3.53,0,0,1-.44-1.11,3.2,3.2,0,0,1-.05-1.24,1.74,1.74,0,0,1,.27-.66,1.16,1.16,0,0,1,.7-.51,2.17,2.17,0,0,1,.25-.06.33.33,0,0,0,.14-.06,1.1,1.1,0,0,0,.31-.33,2.26,2.26,0,0,0,.27-1.07c0-.38-.13-.75-.12-1.17a1.47,1.47,0,0,1,.74-1.15,2.22,2.22,0,0,1,.85-.27,4.87,4.87,0,0,0-.65-.1,2.2,2.2,0,0,0-1.07.13l0,0h-.06a3.22,3.22,0,0,0-1.09.2,3.89,3.89,0,0,0-1,.52l-.13.1,0,.14a3.55,3.55,0,0,0,0,.65c0,.22,0,.44.08.66s.08.47.1.71a3.93,3.93,0,0,1,0,1.45,8,8,0,0,1-.5,1.33.06.06,0,0,1-.07,0l0,0a2.6,2.6,0,0,1-.29-1.44c0-.45.16-.87.18-1.32,0-.22,0-.44,0-.68a6,6,0,0,1,.07-.73,3,3,0,0,1,.11-.4,3.44,3.44,0,0,0-.27.27,5.4,5.4,0,0,0-.61.89,7.43,7.43,0,0,0-.45,2.18,7.13,7.13,0,0,0,.2,2.21Zm6.36-3.1a.93.93,0,0,1,.52.18l1.41.54c.26.3,0,.29-.43.31a4.21,4.21,0,0,0-.84.32.91.91,0,0,1-.69.32.87.87,0,0,1-.86-.86A.85.85,0,0,1,71.05,21.82ZM67.6,30.1c.06-.2.12-.31.17-.47l.15-.47a3.08,3.08,0,0,0,.16-1h0a0,0,0,0,1,0-.05l0,0a1.6,1.6,0,0,1,.46,1.06,2.71,2.71,0,0,1,0,.57,3.42,3.42,0,0,1-.09.53c-.06.31-.15.63-.19,1s-.1.64-.13,1a1.25,1.25,0,0,0,.29.93,1.48,1.48,0,0,0,.84.41,2.57,2.57,0,0,0,.84.06,6.4,6.4,0,0,0,1-.2h0a0,0,0,0,1,.06,0v0a1.68,1.68,0,0,1-.9.77,1.49,1.49,0,0,1-1.3,0,2.44,2.44,0,0,1-.8-.91,8.45,8.45,0,0,1-.52-1,2.71,2.71,0,0,1-.24-1.11A3.52,3.52,0,0,1,67.6,30.1Z"/><path d="M72.24,38.48a.25.25,0,0,1,0-.09l0-.06a3.21,3.21,0,0,0,.25-1,2.93,2.93,0,0,0-.09-1c-.08-.29-.15-.58-.22-.88a4.08,4.08,0,0,1-.25.33,3.21,3.21,0,0,1-.84.74,2.11,2.11,0,0,1-1.26.18,3.57,3.57,0,0,1-1.12-.35,3.7,3.7,0,0,1-1.62-1.56,4.35,4.35,0,0,1-.51-2.05c-.05-.69-.05-1.35-.14-2l-.15-1c0-.17,0-.33-.07-.47s-.06-.3-.09-.45a8.72,8.72,0,0,0-1.42-2.95c0,.13,0,.26,0,.39,0,.43,0,.85,0,1.27a10.69,10.69,0,0,1-.07,1.27A7.61,7.61,0,0,1,64.56,30c.13.5.46,1.05.59,1.68a2.94,2.94,0,0,1,0,.51,1.17,1.17,0,0,1,0,.26l0,.23a3.14,3.14,0,0,0,0,.87,10.22,10.22,0,0,0,.29,1.8,8.77,8.77,0,0,0,.57,1.73h0a11,11,0,0,0,1.14,2.37c.46.76,1,1.45,1.52,2.22a8.14,8.14,0,0,1,1.11,2.52,7.65,7.65,0,0,1,.12,2.61,5.09,5.09,0,0,0,.56.79,1.51,1.51,0,0,0,.32.26c.05,0,.08,0,.09,0l.07,0a2.64,2.64,0,0,0,.59-.73c.2-.33.4-.67.64-1a1.23,1.23,0,0,0,.25-.39,2.15,2.15,0,0,0,.13-.47,7.49,7.49,0,0,0,.09-1.08c0-.74,0-1.49-.11-2.25s-.16-1.51-.23-2.29q0-.28,0-.6c0-.1,0-.21,0-.33A.72.72,0,0,1,72.24,38.48Z"/><path d="M66.16,89.79s0,0,0,0A.28.28,0,0,1,66.16,89.79Z"/><path d="M77.94,100.46a12.15,12.15,0,0,1-.89,1.07,2.71,2.71,0,0,1,2.71.92A2,2,0,0,0,77.94,100.46Z"/><path d="M67.12,101.62a12.79,12.79,0,0,1-1,1,2.66,2.66,0,0,1,2.58,1.21A2,2,0,0,0,67.12,101.62Z"/><path d="M53.67,99.91s-2.88,0-3.17,2c.7-.4,1.75-1.3,3.27-.59C53.2,100.43,53.67,99.91,53.67,99.91Z"/><path d="M71.82,101.06s-.29.23-.88.6a2,2,0,0,1,1.74,1.23A1.47,1.47,0,0,0,71.82,101.06Z"/><path d="M61.66,102.17a8.06,8.06,0,0,1-.88.59A2,2,0,0,1,62.52,104,1.46,1.46,0,0,0,61.66,102.17Z"/></svg>