<svg id="Layer_1" data-name="Layer 1" xmlns="http://www.w3.org/2000/svg" width="128" height="128" viewBox="0 0 128 128"><title>Artboard 73</title><path d="M20.49,127.73V111.9h2.63V125h6.57v2.7Z"/><path d="M31.81,127.73v-16h9.71v2.7H34.45V118H41v2.69H34.45V125h7.31v2.7Z"/><path d="M43.68,119.85a11.39,11.39,0,0,1,.84-4.7,6.45,6.45,0,0,1,2.21-2.75,5.82,5.82,0,0,1,3.3-.9,5.64,5.64,0,0,1,4.57,2.14,9.37,9.37,0,0,1,1.77,6.11A9.5,9.5,0,0,1,54.5,126,5.47,5.47,0,0,1,50,128a5.55,5.55,0,0,1-4.49-2A9.36,9.36,0,0,1,43.68,119.85Zm2.72-.11a6.78,6.78,0,0,0,1.05,4.13,3.12,3.12,0,0,0,5.17,0,7,7,0,0,0,1-4.2,6.8,6.8,0,0,0-1-4.1A3.12,3.12,0,0,0,50,114.25a3.18,3.18,0,0,0-2.63,1.34A6.93,6.93,0,0,0,46.4,119.74Z"/><path d="M58.66,127.73v-16h4.25A13.1,13.1,0,0,1,66,112a3.55,3.55,0,0,1,1.92,1.58,6.72,6.72,0,0,1,.1,6,3.82,3.82,0,0,1-1.63,1.65,8.58,8.58,0,0,1-3.37.47H61.3v6Zm2.64-13.26V119h1.46a6.28,6.28,0,0,0,2-.21,1.82,1.82,0,0,0,.87-.74,2.52,2.52,0,0,0,.33-1.33,2.45,2.45,0,0,0-.34-1.34,1.68,1.68,0,0,0-.87-.73,7.54,7.54,0,0,0-2.17-.19Z"/><path d="M81.54,127.73H78.68l-1.15-3.62H72.3l-1.08,3.62H68.41l5.09-16h2.8Zm-4.86-6.31-1.8-5.93-1.77,5.93Z"/><path d="M83.16,127.73v-16h5.56a7.71,7.71,0,0,1,3,.43,3.42,3.42,0,0,1,1.5,1.49,5.21,5.21,0,0,1,.59,2.54,4.74,4.74,0,0,1-.9,3,4,4,0,0,1-2.55,1.44,6.38,6.38,0,0,1,1.4,1.33,18.7,18.7,0,0,1,1.52,2.6l1.59,3.11H91.76l-1.91-3.47a22.85,22.85,0,0,0-1.4-2.36,2.08,2.08,0,0,0-.78-.65,3.6,3.6,0,0,0-1.33-.18h-.55v6.66Zm2.63-9.21h2a9.53,9.53,0,0,0,2.29-.16,1.43,1.43,0,0,0,.79-.63,2.31,2.31,0,0,0,.31-1.28,2.12,2.12,0,0,0-.31-1.22,1.57,1.57,0,0,0-.82-.64,10.55,10.55,0,0,0-2.15-.12H85.79Z"/><path d="M96.55,111.77h4.82a7.21,7.21,0,0,1,2.76.41,4.54,4.54,0,0,1,1.71,1.38,7.09,7.09,0,0,1,1.23,2.51,14.38,14.38,0,0,1,.44,3.84,12.45,12.45,0,0,1-.46,3.6,7.28,7.28,0,0,1-1.19,2.42,4.71,4.71,0,0,1-1.73,1.35,6.52,6.52,0,0,1-2.62.45h-5Zm2.64,2.7V125h2a5.1,5.1,0,0,0,1.84-.24,2.24,2.24,0,0,0,.94-.72,4.33,4.33,0,0,0,.6-1.53,12.72,12.72,0,0,0,.24-2.75,12.91,12.91,0,0,0-.24-2.8,3.9,3.9,0,0,0-.76-1.61,2.52,2.52,0,0,0-1.26-.77,10.87,10.87,0,0,0-2.15-.14Z"/><path d="M6.16,55.77l-1-.29A6.19,6.19,0,0,1,5,54.29a1,1,0,0,1,.33-.69,1.89,1.89,0,0,1,2.31.56c0,.07.11.14.16.22,0-.42.06-.84.09-1.25a8.2,8.2,0,0,1,.33-2,3,3,0,0,1,1.1-1.71,8.25,8.25,0,0,1,3.93-.61,3.61,3.61,0,0,0,1.81-.26,1.36,1.36,0,0,0,.46-1.52,2.5,2.5,0,0,0-1.18-1.29,5.64,5.64,0,0,0-1.76-.6,8.65,8.65,0,0,0-3.75.25,5.67,5.67,0,0,0-3.08,1.95,4.73,4.73,0,0,0-.32.46A2,2,0,0,1,7.1,49.31a15.92,15.92,0,0,1,.24,1.86,10.47,10.47,0,0,0-2.27.67,1.57,1.57,0,0,1-.94.18,22.7,22.7,0,0,0,0,4.59c.48-.15,1-.28,1.44-.45A3.25,3.25,0,0,0,6.16,55.77Z"/><path d="M23.46,67.91c0,.06-.05.12,0,.17a.64.64,0,0,0,.16.34.46.46,0,0,0,.38,0c.28-.32.54-.66.79-1,0,0-.06-.2-.13-.26a.76.76,0,0,1-.22-.9l-.27.24a4.52,4.52,0,0,1-1,.64A.73.73,0,0,1,23.46,67.91Z"/><path d="M16.29,70.57a.68.68,0,0,0-.08-.5,1.33,1.33,0,0,1,0-1.58,8.24,8.24,0,0,1-3.56-1.2,8,8,0,0,1-2.68-3,12.86,12.86,0,0,1-.67-1.41c-.53.43-1.2.37-1.76.65a2.52,2.52,0,0,1-1.23.35,1.15,1.15,0,0,1-.82-.62c-.22-.59.17-1,.62-1.12.69-.27,1.42-.45,2.13-.69a1.94,1.94,0,0,0,.44-.27h0L8.61,61l-.76-.22A5.93,5.93,0,0,1,7.7,59.6,1,1,0,0,1,8,58.91l.1-.06c-.11-.56-.19-1.14-.27-1.74a5.38,5.38,0,0,1-.07-.69,4.32,4.32,0,0,0-.92.89c-.54.75-1.37.6-2,.93a3.76,3.76,0,0,1-.55.23v0a25,25,0,0,0,2,7.43,11.91,11.91,0,0,0,5.33,5.22,11.78,11.78,0,0,0,1.37.59.38.38,0,0,1,.06-.13c.36-.74.95-.83,1.37-.12a5.23,5.23,0,0,1,.35.76c.14,0,.29.06.43.09a9.5,9.5,0,0,0,1.5.13C16.8,71.8,16,71.32,16.29,70.57Zm-5.43-3.63c-.16.3-.43.54-.59.84a5.92,5.92,0,0,0-.32.93,1.82,1.82,0,0,1-.73-2.79,3.76,3.76,0,0,1,.83-.76c.08,0,.38.07.46.18a4.83,4.83,0,0,1,.39,1A.88.88,0,0,1,10.86,66.94Z"/><path d="M28.9,68.17a1.08,1.08,0,0,1-.67-1.28c0-.26.13-.58.37-.54s.31.26.4.46a.41.41,0,0,0,.56.23A1.59,1.59,0,0,1,30,67s0,0,0,.06.26-.24.39-.34l.08-.07a.69.69,0,0,1,.14-.15l0,0a.58.58,0,0,1-.25-.12.36.36,0,0,1-.16-.47,1.18,1.18,0,0,0-.08-.73,1.79,1.79,0,0,1-.08-1c.12-.5.45-.61.75-.21a7.15,7.15,0,0,1,.63,1.07,3,3,0,0,1,.15.55h-.05a.17.17,0,0,0,0,.07c.11-.11.23-.2.34-.3a3.06,3.06,0,0,1,.05-.32l.18-1.47-.17,0a.22.22,0,0,1-.24-.25c0-.2,0-.41,0-.62a.17.17,0,0,1,.07-.13.44.44,0,0,1,.44,0c0-.18,0-.36,0-.54.06-.48.12-1,.17-1.44l-.3,0a.22.22,0,0,1-.25-.24c0-.21,0-.42,0-.63a.16.16,0,0,1,.08-.12.44.44,0,0,1,.57.12c.05-.36.09-.73.16-1.1a.91.91,0,0,1-.33-.11c-.33-.21-.73-.4-.52-1.09.24-.32.57-.8.95-1.23.05-.05.24,0,.38,0a1.24,1.24,0,0,1,0-.16A27.73,27.73,0,0,1,35,51.49c-1.64,2.34-3.2,4.72-4.78,7.13h0c.43,0,.46.36.42.78s0,.58,0,.86c0,.12-.15.33-.22.33a2.76,2.76,0,0,1-.91-.16.6.6,0,0,1-.22-.38h0a2.2,2.2,0,0,1-.17.25q-.62.91-1.26,1.83a2.06,2.06,0,0,1,.37.29,3.15,3.15,0,0,1,.61.95c.05.08-.12.36-.25.41a4.58,4.58,0,0,1-1.05.24,1,1,0,0,1-.58-.15l-.22-.21a19.22,19.22,0,0,1-1.73,2,.71.71,0,0,1,.18-.08.75.75,0,0,1,.81.35,3.27,3.27,0,0,1,.35.8l-.42.46c-.05,0-.13.08-.15.13-.13.34-.23.69-.38,1a1.56,1.56,0,0,1-.38.54,4.66,4.66,0,0,1-1,.82,1.27,1.27,0,0,1-.9.06,2.3,2.3,0,0,1-.83-.59c-.08-.09,0-.37.06-.52a.36.36,0,0,0,0-.43c-.24-.33.15-.5.23-.76a.63.63,0,0,1,0-.09c-.66.28-1.38.47-2.1.71a9.72,9.72,0,0,1-3.2.49,2,2,0,0,1-.06.28,1,1,0,0,0-.06.34c0,.23,0,.45,0,.67,0,.43.16.58.61.33.06.22.1.39.15.6l.73-.42a2.16,2.16,0,0,1-.15,1.87,1,1,0,0,1-.19.22l.71,0a14.73,14.73,0,0,0,7.2-2.21A15.65,15.65,0,0,0,28.9,68.17Zm-2.64-2c.07-1.21.63-1.71,1.51-1.42a1,1,0,0,1,.47.57c0,.11-.13.33-.26.45a6.84,6.84,0,0,1-.95.73.61.61,0,0,1-.51.09A1,1,0,0,1,26.26,66.13Z"/><path d="M55.31,91.94c.66-2,1.1-4.14,1.6-6.24l.74-3.15c.14-.54.26-1.06.42-1.6s.36-1,.56-1.53c.76-1.94,1.6-3.82,2.45-5.7-.63-.19-1.27-.38-1.91-.59-2.82-.94-5-1.48-7.82-2.59,0,0-3.65,5-4,5.21.43,1.87-.07,2.53.16,4.42s.39,3.81.52,5.72c.06,1,.14,1.91.15,2.88,0,.47,0,1,0,1.45,0,.24,0,.47,0,.74l-.1.71a34.68,34.68,0,0,0-.09,5,1.75,1.75,0,0,0,.43,1.11c.61.73,1.55,1.77,2.15,2.43a1.83,1.83,0,0,0,1.38.59l1.3,0,6.68-.13a2.1,2.1,0,0,0-.41-.85,2.75,2.75,0,0,0-1-.79,5.61,5.61,0,0,0-1.32-.39,11,11,0,0,0-1.42-.11h-.17l-.11-.13a4.17,4.17,0,0,1-.89-1.56,5.51,5.51,0,0,1-.31-1.72,2.87,2.87,0,0,1,.5-1.82A4.94,4.94,0,0,0,55.31,91.94Zm-.58-13.17c.36-.1.69-.18.78.41a7,7,0,0,0,.44,1.2c.13.4-.11.55-.45.58a1.52,1.52,0,0,1-1.3-1.22C54.2,79.33,54.23,78.91,54.73,78.77Zm-4.22,8.92a1.18,1.18,0,0,1,1.1-.78,1.51,1.51,0,0,1,1,.32,1,1,0,0,1,.17.79c0,.15-.25.29-.35.4-.49-.17-.59,0-.71.31-.25.56-1,.74-1.2.26A2.3,2.3,0,0,1,50.51,87.69Zm-.36-3.31a1.3,1.3,0,0,1,0-1.21c.34-.43.66-.51,1-.3.82.58.27,1.34.18,2.08-.19,0-.4.14-.54.06S50.23,84.67,50.15,84.38ZM51.36,73.3c.14-.55.44-.66.69-.23a7.25,7.25,0,0,1,.51,1.17,3.92,3.92,0,0,1,.07.51h0a2.09,2.09,0,0,0,0,.25c0,.49,0,.53-.37.64a.64.64,0,0,1-.74-.12.37.37,0,0,1-.09-.46,1.55,1.55,0,0,0,0-.74A2.11,2.11,0,0,1,51.36,73.3Zm-1.18.22a1.6,1.6,0,0,1,.43-.43c.06,0,.21,0,.24.11a3.77,3.77,0,0,1,.16.7.8.8,0,0,1,0,.38c-.09.19-.25.34-.34.54a4.64,4.64,0,0,0-.22.66A1.48,1.48,0,0,1,50.18,73.52Zm-.53,2.22c.06-.13.23-.3.31-.26a.59.59,0,0,1,.28.38c.1.39.25.49.53.35.09,0,.22,0,.35,0l.47-.43c0,.25,0,.39,0,.53,0,.3,0,.61,0,.91s-.16.32-.29.31c-.31,0-.61-.09-.92-.12C49.54,77.33,49.35,76.42,49.65,75.74Zm1.56,20.37A1.33,1.33,0,0,1,50,97.21a1.17,1.17,0,0,1-1-1,5.37,5.37,0,0,1-.22-1.37c0-.22.25-.43.4-.65.19.14.48.25.55.43.14.37.4.41.71.47C51.28,95.25,51.28,95.25,51.21,96.11Zm2.19-4.44a3.8,3.8,0,0,1-1.59,1.61,4.85,4.85,0,0,1-.56-1.08,1.28,1.28,0,0,1,.22-.8,5.2,5.2,0,0,1,.52-.64c.41-.56.76-.65,1.29-.32C53.65,90.67,53.65,91.11,53.4,91.67Zm.67-5.45a.58.58,0,0,1-.23-.49c0-.48.11-1,.18-1.52.28.12.41.25.52.22.68-.13.71.27.67.76,0,.29,0,.58,0,.87,0,.12-.15.32-.22.32A2.53,2.53,0,0,1,54.07,86.22Z"/><path d="M123.81,43c-.32-.38-.62-.77-.93-1.16a19.09,19.09,0,0,1-1.5-2,20.32,20.32,0,0,1-1-2.29c-.15-.38-.29-.77-.46-1.13a2.71,2.71,0,0,0-.23-.48,2.13,2.13,0,0,0-.36-.39,30.52,30.52,0,0,0-8.12-4.34.59.59,0,0,1,0,.13,21.15,21.15,0,0,1,1.12,2l-.07,0c-.6-.56-1.15-1.16-1.68-1.76l0,0-.25-.88a11.16,11.16,0,0,0-.6-1.88c-.29-.53-.66-1-1.06-1a1.51,1.51,0,0,0-1.39.83,5.56,5.56,0,0,0-.49,1.84c-.14,1.32.6,3.47.54,4.82a10,10,0,0,1-.33,2,4.45,4.45,0,0,1-.64,1.38c.16.12.31.29.3.4-.08.78-.25,1.11-.57,1.07s-.7-.66-.67-1a.82.82,0,0,1,.64-.55c1-4,0-7.55-.27-7.5l-.34.05a4.61,4.61,0,0,1-.24.77c0,.05-.39,0-.54-.1a1.45,1.45,0,0,1-.49-.43l-.17,0a5.75,5.75,0,0,0-1.56.67c.53,0,.56.32.53.77,0,.29,0,.58,0,.87,0,.12-.15.32-.23.32a2.57,2.57,0,0,1-.91-.16.6.6,0,0,1-.22-.49,7.92,7.92,0,0,1,.08-.81,16.51,16.51,0,0,0-2.78,2.76,1.79,1.79,0,0,1,1.65.54,3.31,3.31,0,0,1,.61.94c0,.08-.12.36-.25.41a4.58,4.58,0,0,1-1,.24,1,1,0,0,1-.58-.15c-.27-.2-.47-.5-.73-.71a3.91,3.91,0,0,0-.44-.26l-.68.92c-.59.79-1.2,1.56-1.85,2.3.14.1.53,0,.46.34,0,0,.28.13.43.16.72.14.76.18.73.76a2.19,2.19,0,0,1-2.37-.44c-.16.16-.3.33-.46.49a6.12,6.12,0,0,1-.91.7,1.72,1.72,0,0,1,1,0c.18,0,.33.27.4.44s-.12.24-.24.32a7.16,7.16,0,0,1-1,.6c-.4.18-.69,0-.7-.35a1.31,1.31,0,0,1,.36-.84l-.17.11c-.62.33-1.24.62-1.86.91-.18.46-.46.67-.86.62a.81.81,0,0,1-.25-.08c-.3.16-.6.32-.89.5a.77.77,0,0,0,.84.08l.82.39c-.11.27-.24.57-.39.91L89.93,45c-.64.31-1.05.93-1.93.91a1.36,1.36,0,0,1-.23-.88l0,.05h-.15c-.35,0-.69,0-1,0,.11.28.21.55.32.81s.28.64.38,1a.71.71,0,0,1,0,.57c-.06.12-.38.13-.59.2s-.51.13-.6.26a1.45,1.45,0,0,1-1.89,0,.52.52,0,0,1,.23-.78A5,5,0,0,1,85,46.9l.35-1s0,0,0,0c-.2-.47.13-.61.53-.75-1.49,0-2.94-.11-4.41-.21-2-.16-4-.35-6-.59s-4-.41-6-.57c-.15.35-.28.78-1,.69-.36-.19-.88-.44-1.37-.75a.15.15,0,0,1,0-.1c-1.2-.08-2.4-.17-3.61-.24-2-.12-4-.22-6-.27a24.5,24.5,0,0,0-3,.09c-1,.09-2,.2-3,.31q-3,.33-6,.82c-1,.18-2,.36-2.94.61A7.12,7.12,0,0,0,39.87,46a17.46,17.46,0,0,0-3.59,4.65,29.49,29.49,0,0,0-2.5,5.42,39.65,39.65,0,0,0-1,5.91c-.13,1-.25,2-.41,3a15.09,15.09,0,0,1-.68,3l-.09.2.21.83c.08.29.17.58.23.88a.87.87,0,0,1,0,.48.39.39,0,0,1-.31.18c-.22,0-.33,0-.42.27s-.44.25-.64.27-.19-.09-.28-.21c-.41.87-.83,1.74-1.26,2.6-.9,1.81-1.82,3.61-2.88,5.34a29.1,29.1,0,0,0-2.86,5.3l-1.24,2.76q-.3.69-.63,1.38c-.12.24-.24.49-.37.73a2.73,2.73,0,0,0-.35,1.31c0,.56,0,1.13.06,1.69L21,94.48l.29,4.62a1.09,1.09,0,0,0,.18.56l1.72,2.62a1.17,1.17,0,0,0,1,.52l6.45,0a7.41,7.41,0,0,0-1-1.42,3.54,3.54,0,0,0-2.09-.53l-.32,0-.09-.3a14,14,0,0,1-.59-2.79c-.08-.9-.11-1.79-.11-2.69l.13-.12c1.88-1.59,3.75-3.2,5.59-4.85A64.36,64.36,0,0,0,37.44,85c1.62-1.87,3.23-3.75,4.89-5.58.83-.91,1.67-1.83,2.52-2.73a28.07,28.07,0,0,1,2.43-2.32,37.77,37.77,0,0,1,3.1-3.78l1.58-4c.53-1.37,1.1-2.73,1.64-4.1l.08,0a28,28,0,0,1-1.31,7.23c2.94.61,4.94,1.67,7.76,2.68,1.47.56,2.9,1.18,4.34,1.81s2.81,1.17,4.2,1.81a1.14,1.14,0,0,1,.3-.5,2.31,2.31,0,0,1,.56-.41.38.38,0,0,1,.33.12,2.67,2.67,0,0,1,.23.69.49.49,0,0,1,0,.36,2.73,2.73,0,0,1-.23.25c.29.13.58.24.86.35a1.36,1.36,0,0,0-.07-.53,1.47,1.47,0,0,1,0-1c.16-.53.58-.62.93-.2a6.79,6.79,0,0,1,.71,1.16,1.59,1.59,0,0,1,.11.49h0a1.93,1.93,0,0,0,0,.24.83.83,0,0,1,0,.39,20.8,20.8,0,0,0,4.25.92c.08-.23.16-.48.23-.71s-.06-.19-.06-.29c0-.26-.08-.53.37-.49.2,0,.43-.18.81-.36.13.44.26.87.4,1.3.07.22.16.44.23.67a20.32,20.32,0,0,0,3.73-.29A20.62,20.62,0,0,0,86.12,77a6.74,6.74,0,0,0-.5-1.54l-.25-.09-.29-.56a1.45,1.45,0,0,1,.22-.21,7.63,7.63,0,0,1-.24-.73c0-.12-.06-.25-.09-.37l-.37.38-.21-.41c-.28.3-.73.2-1.07.27s-.63-.38-.75-.68.12-.61.3-.86.41-.2.56-.27c.16-.5.32-1,.46-1.43,0-.08-.06-.19-.06-.29s0-.1,0-.15l-.29-.65a1.61,1.61,0,0,1,1.36-2.51.82.82,0,0,1,.55.21c0-.33,0-.67,0-1s0-.85,0-1.27a.71.71,0,0,1-.93-.28,5,5,0,0,1-.58.56.75.75,0,0,1-.5.16c-.42-.08-.84-.17-1.25-.28a1.75,1.75,0,0,1-1,1.2,6.23,6.23,0,0,0-.76.54c-.31.19-.64.36-1.06.58-.11-.63-.38-1.19-.06-1.78a.26.26,0,0,1,.19-.15c.29,0,.59,0,.88.07.08,0,.19,0,.22,0,.22-.26.59-.39.81-.64-.1,0-.23-.18-.23-.27a.65.65,0,0,0,0-.2.86.86,0,0,1-.14.13,4.73,4.73,0,0,1-.71.45.49.49,0,0,1-.42,0c-.11-.08-.14-.27-.16-.33.15-.73.39-1,.94-1l-.2-.21a2.61,2.61,0,0,1-.4-1c0-.08.37-.23.65-.39a2.12,2.12,0,0,0,.06-.62,1.13,1.13,0,0,1,.13-.75.61.61,0,0,1-.18-.09.66.66,0,0,1-.14-.47,3.43,3.43,0,0,1,.24-.67c-.41-.09-.77-.18-1.13-.24s-.63-.37-.36-.74a2.32,2.32,0,0,1,.4-.52.69.69,0,0,1,.84.06,5.41,5.41,0,0,1,.65.51.27.27,0,0,1,.09.23c-.13.37.17.56.37.77a.61.61,0,0,1,.17.48,2.4,2.4,0,0,1,1,.1,2.15,2.15,0,0,1,0,.77,2.05,2.05,0,0,1-.23.67c-.17.34-.36.65-.15,1,0,.07-.07.22-.16.45a1.28,1.28,0,0,1,1.41.42c.07.09.45-.06.69-.1a3.93,3.93,0,0,0-.19-.58,1.3,1.3,0,0,0-.28-.29c.24-.53.42-1,.68-1.5.07-.14.39-.3.48-.25s.46.29.69.44a22.58,22.58,0,0,1,1.24-4.91l.08,0a16.58,16.58,0,0,0-.71,5c0,.1,0,.21,0,.31l.09.06c.53.3.16.84.4,1.23s0,.81-.41,1.1a.43.43,0,0,1-.1.09c0,.75,0,1.51,0,2.26,0,.08,0,.16,0,.24A1.76,1.76,0,0,1,88.11,66a3.24,3.24,0,0,1,1,.37.51.51,0,0,1,.11.49,4.61,4.61,0,0,1-.74.85.83.83,0,0,1-.51.21c-.47,0-1,0-1.44-.07,0,.32,0,.64,0,1s0,.81-.09,1.21l.35.17-.42.26c-.07.34-.19.7-.25.93A6.45,6.45,0,0,0,86,74.15a14.25,14.25,0,0,0,1.63-.66,2.55,2.55,0,0,1,1-.15.34.34,0,0,1,.28.16.44.44,0,0,1,0,.37,2.19,2.19,0,0,1-.44.35.67.67,0,0,0,0,1.2c0,.31-.07.59-.11,1l-1.23.21c0-.21,0-.39,0-.61l-.71-.26c0,.14.09.29.14.43l0,0h0a35.26,35.26,0,0,1,1.62,5.11c.47,1.73.85,3.47,1.22,5.22s.74,3.49,1,5.25c0,.21.08.43.11.65a.29.29,0,0,1,.1,0c1.16.58.39,1.34.26,2.08h0c.13.84.25,1.68.38,2.52.28,1,.57,2,.88,3a1.41,1.41,0,0,0,.43.66c.74.66,1.48,1.31,2.24,2a1.46,1.46,0,0,0,1,.35c2.71,0,5.43-.13,8.14-.19a4,4,0,0,0-.59-.84,4.83,4.83,0,0,0-1.24-.89,6.73,6.73,0,0,0-1.47-.51c-.26,0-.53-.08-.78-.12l-.81,0-.36,0,0-.35c-.33-1.91-.62-3.84-.9-5.77s-.58-3.85-.82-5.78-.53-3.86-.76-5.79c-.12-1-.25-2.06-.32-3.09a1.78,1.78,0,0,1-.53.31,2,2,0,0,1-.27-3c.19-.23.8-.15,1.21-.14.06,0,.16.18.2.34.34-.18.67-.37,1-.58s.47-.35.7-.53a5.27,5.27,0,0,0,.6-.53c.46-.87,1-1.74,1.49-2.58s1-1.73,1.53-2.62c.39-.72.77-1.44,1.13-2.16-.15.12-.32.24-.48.35a.63.63,0,0,1-.52.08,1,1,0,0,1-.25-.42c.07-1.21.62-1.7,1.51-1.42a.7.7,0,0,1,.3.27c.2-.4.38-.81.56-1.22a0,0,0,0,1,0,0,4.58,4.58,0,0,1-1.05.24,1,1,0,0,1-.58-.15c-.27-.2-.47-.5-.74-.71a5.72,5.72,0,0,0-.86-.47,1.81,1.81,0,0,1,2.87-.26,3.42,3.42,0,0,1,.58.89l.21-.5.09,0a42.76,42.76,0,0,1-2.23,5.69l-1.33,2.76A21.22,21.22,0,0,1,99.37,76l0,0,0,0a4.27,4.27,0,0,1-.8.58,4.79,4.79,0,0,1-.68.34c.6.05,1.34-.59,1.81.35-.21.4-.43.81-.64,1.23a.78.78,0,0,1,.13.35,7,7,0,0,0,.44,1.21c.13.39-.12.54-.45.57a1.47,1.47,0,0,1-1.17-.81l-.14,0a14.45,14.45,0,0,0-1.49.16,2.58,2.58,0,0,1,1-2.89,7.21,7.21,0,0,1-1,.28,4.74,4.74,0,0,1-.42.3s0,.08,0,.12.13.26,0,.38c.14,1.47.43,2.92.68,4.39.37,1.9.68,3.82,1,5.74s.63,3.84.93,5.76.56,3.63.81,5.44l.5,0c.29.05.58.09.86.15a6.56,6.56,0,0,1,1.67.61c.2.1,1,.82,1.18,1,2.91-.13,4.24.08,7.17,0a7.75,7.75,0,0,0-1.57-1.62,7.91,7.91,0,0,0-1.85-.53,7.76,7.76,0,0,0-2.39-.34h-.23l-.13-.17A26.25,26.25,0,0,1,102.69,96a10.72,10.72,0,0,1-1.42-3.08,6,6,0,0,1,0-1.75q.09-.82.24-1.62c.19-1.08.41-2.15.65-3.21A52.86,52.86,0,0,1,104,80.07a11.16,11.16,0,0,1,.68-1.5c.28-.5.6-.9.87-1.37.52-1,1-1.93,1.43-2.91.56-1.25,1.06-2.54,1.54-3.83a1.24,1.24,0,0,1-.79.53,1.52,1.52,0,0,1-.07-1.14c0-.12,0-.28,0-.42.06-.35.13-.69.21-1a.18.18,0,0,1,.16-.1.24.24,0,0,1,.17.14,1.67,1.67,0,0,1,.06.38c.06.41.35.56.62.36l.08.07c.06-.18.13-.35.19-.53a.16.16,0,0,1-.1,0c-.3,0-.7-.66-.67-1a.83.83,0,0,1,.69-.56.89.89,0,0,1,.5.38c.27-.77.53-1.55.74-2.32a8.63,8.63,0,0,0,.22-3.1c-.15-2.13-.49-4.29-.54-6.47a13.47,13.47,0,0,1,.81-5.7l-3.72-2.07L105.73,43c.2.44,1.77,4,2,4.15s2.61.89,4.32,1.44h0a6.07,6.07,0,0,1,2.13-.74,3.52,3.52,0,0,1,1.7.1,2.33,2.33,0,0,1,.8.44c.24.25.33.47.5.67a4.82,4.82,0,0,0,1.11,1.1,1,1,0,0,0,.3.13l.31,0c.24-.06.5-.14.75-.22l.74-.22a1.13,1.13,0,0,0,.3-.38,5.74,5.74,0,0,0,.4-1c-.61-.24-1.21-.51-1.8-.79a23.4,23.4,0,0,1-2.13-1.18l0-.08a22.56,22.56,0,0,1,2.36.57c.59.18,1.18.37,1.74.58.46-.67.91-1.34,1.39-2,.37-.5.75-1,1.15-1.51A.8.8,0,0,0,123.81,43ZM22,89.3a2,2,0,0,1,.57-.51c.05,0,.25,0,.3.12a2.68,2.68,0,0,1,.27.68.61.61,0,0,1,0,.4c-.11.21-.29.37-.4.57a4.63,4.63,0,0,0-.22.63A1.23,1.23,0,0,1,22,89.3ZM23.55,97a1.5,1.5,0,0,1-1.3-1.22c0-.41,0-.83.52-1s.7-.17.79.41A6.55,6.55,0,0,0,24,96.38C24.13,96.77,23.88,96.92,23.55,97Zm57.5-30c1,.19,1.08.45.67,1.39L81,66.92S81,66.91,81.05,66.92ZM77.23,53.73A8,8,0,0,0,77.58,55c.3.67-.14,1.28-.06,1.92,0,.27-.22.34-.45.32s-.41-.29-.41-.52a12.09,12.09,0,0,1,.11-1.21,4.9,4.9,0,0,0,0-.5l-.35.47a2.68,2.68,0,0,1-.57-.19.56.56,0,0,1-.25-.34,1.08,1.08,0,0,1,.76-1.06A7.34,7.34,0,0,1,77.23,53.73Zm-2.59,3.41a.3.3,0,0,0,0-.26c-.43-.59-.18-1.09.18-1.58.63.06.75.18.61.61a.92.92,0,0,0,0,.29c0,.16,0,.33,0,.49,0,.31.14.4.45.23,0,.14.09.27.14.44l.5-.29a1.43,1.43,0,0,1,0,1.39c-.37.44-.89.21-1.42.25C75.12,58.13,74.41,57.74,74.64,57.14Zm-.15,5.27a1.23,1.23,0,0,1-1-1c0-.34.08-.65.47-.74s.6-.06.64.39a5.69,5.69,0,0,0,.28,1C75,62.31,74.75,62.41,74.49,62.41Zm.39-15.93a1,1,0,0,0,.08-.19.84.84,0,0,1,.75-.6c.3,0,.44.14.35.46a2.49,2.49,0,0,1-.63,1.16C74.65,47.14,74.52,47.1,74.88,46.48Zm-1.47-.4a1.46,1.46,0,0,1,.72-.39c.35-.08.61.05.5.33a.42.42,0,0,1-.18.17c-.26.09-.34.19-.35.38a.6.6,0,0,1-.41.49c-.27.11-.41.06-.47-.1s-.09-.1-.12-.13S73.23,46.26,73.41,46.08Zm-.25,1.68c.15,0,.35-.07.43,0s.49,0,.75-.15.43-.14.52.1,0,.57-.38.88l-.11.08a.91.91,0,0,1-1-.06,1.3,1.3,0,0,1-.37-.41C73,48.08,73.12,47.9,73.16,47.76Zm-4.9-.48a1.54,1.54,0,0,1,.6,1,7.6,7.6,0,0,0,.47,1.25c.11.33.16.68.27,1.13-.74-.07-1.47,0-2-.51-.06-.06-.12-.18-.09-.24.11-.32.25-.63.37-1,0-.07.06-.19,0-.24-.36-.44-.22-1.21-1-1.37-.07,0-.11-.15-.16-.22C67.21,46.69,67.57,46.72,68.26,47.28Zm-2.56.19c.33-.08.6-.07.64.39a5.64,5.64,0,0,0,.27,1c.09.32-.13.41-.4.42a1.26,1.26,0,0,1-1-1C65.23,47.87,65.31,47.56,65.7,47.47Zm0,4.72c.44.25.49.65.22,1.25a3.65,3.65,0,0,1-1.62,1.63A5.25,5.25,0,0,1,63.78,54a1.31,1.31,0,0,1,.23-.8,6,6,0,0,1,.51-.64C64.89,52.06,65.3,51.93,65.73,52.19Zm-3-1.65a1.33,1.33,0,0,1,1.2,0,.71.71,0,0,1,.45.87c-.06.37-.25.52-.66.42-.11,0-.34.2-.43.36-.3.55-1,.73-1.23.28a2.45,2.45,0,0,1-.15-.81A1.64,1.64,0,0,1,62.77,50.54Zm.71,4.65a1.74,1.74,0,0,1-.67,1.19H61.76a2.57,2.57,0,0,1-.46-.7,5.62,5.62,0,0,1-.3-1.51c0-.21.25-.43.39-.65.18.12.45.21.52.37.19.48.58.5,1,.55C63.5,54.51,63.52,54.62,63.48,55.19Zm-1.64-9.86c.26.12.27.33,0,.55a2.53,2.53,0,0,1-1.16.62c-.53-.53-.6-.62,0-1a.71.71,0,0,0,.17-.11A.82.82,0,0,1,61.84,45.33Zm-2.06-.84a1.45,1.45,0,0,1,.8,0c.33.11.46.35.22.52a.4.4,0,0,1-.26.05.42.42,0,0,0-.49.14.62.62,0,0,1-.6.19c-.28,0-.37-.16-.32-.32a.88.88,0,0,0,0-.17C59.12,44.77,59.53,44.54,59.78,44.49Zm-1.15,1.24c.12.07.31.12.35.2s.41.22.69.26.41.1.35.34-.34.46-.8.53h-.14a.83.83,0,0,1-.73-.53,1.18,1.18,0,0,1-.06-.52C58.32,45.92,58.51,45.83,58.63,45.73Zm-2.05,3.61c.21-.79.79-.93,1.31-.36a11.8,11.8,0,0,1,1.17,1.69,2.19,2.19,0,0,1,.18.69h-.06c0,.12,0,.24,0,.36.1.68,0,.81-.67,1a1.56,1.56,0,0,1-1.35-.08c-.26-.17-.49-.28-.29-.71a1.46,1.46,0,0,0-.14-1A2.32,2.32,0,0,1,56.58,49.34Zm-1.31-1c.27.13.28.33,0,.56a2.63,2.63,0,0,1-1.16.62c-.53-.53-.6-.62,0-1l.17-.12A.84.84,0,0,1,55.27,48.32Zm-2.05-.84a1.45,1.45,0,0,1,.8.05c.33.11.46.34.21.52a.51.51,0,0,1-.25.05.42.42,0,0,0-.49.13.62.62,0,0,1-.6.19c-.28,0-.37-.15-.32-.32a.47.47,0,0,0,0-.17C52.56,47.77,53,47.54,53.22,47.48Zm-.11,1.7c.39.06.41.11.35.34s-.35.47-.8.54h-.14a.81.81,0,0,1-.73-.54,1.16,1.16,0,0,1-.06-.52c0-.1.22-.19.34-.28.12.06.31.12.35.19C52.52,49.16,52.83,49.15,53.11,49.18Zm-.89-3.75c.27.13.29.35,0,.57a2.33,2.33,0,0,1-1.13.62c-.55-.57-.63-.66,0-1a1,1,0,0,0,.16-.12A.78.78,0,0,1,52.22,45.43Zm-2.08-.93a1.34,1.34,0,0,1,.79.06c.34.13.48.38.24.55a.51.51,0,0,1-.25,0c-.25-.07-.37,0-.49.12a.56.56,0,0,1-.59.19c-.28-.06-.37-.18-.33-.35a.47.47,0,0,0,0-.17C49.49,44.77,49.89,44.55,50.14,44.5ZM49,45.76c.12.07.31.13.35.22.11.24.43.24.7.28s.42.13.37.37-.33.47-.78.53h-.14a.91.91,0,0,1-.75-.58,1.45,1.45,0,0,1-.08-.54C48.73,46,48.92,45.86,49,45.76Zm-1.87,6.52a2.54,2.54,0,0,0,.46.2c.72.11.73.11.69.84a4.53,4.53,0,0,0-.06.5c0,.25.2.53-.2.63a.76.76,0,0,1-1-.28,1.15,1.15,0,0,1-.18-.67A9.14,9.14,0,0,1,47.17,52.28ZM45.5,59a1.07,1.07,0,0,1,.6.93c0,.24.34.49.56.69a1.22,1.22,0,0,1,0,1.49,1.19,1.19,0,0,1-1.27.06,1,1,0,0,1-.14-.63,2.74,2.74,0,0,1,.2-.59,1.82,1.82,0,0,0,0-.34c-.57-.09-1.1-.18-1.64-.25a.59.59,0,0,1-.45-1c.23-.35.34-.83.84-1,.1,0,.22-.08.29,0C44.84,58.57,45.17,58.77,45.5,59Zm-3.1-5.77a1.41,1.41,0,0,1,0-1c.16-.51.56-.6.9-.2A7.17,7.17,0,0,1,44,53.16a1.86,1.86,0,0,1,.1.48h0v.23c0,.46,0,.5-.46.59a1.11,1.11,0,0,1-1-.13c-.14-.1-.25-.19-.14-.43A1,1,0,0,0,42.4,53.21ZM43,60.65a2.92,2.92,0,0,0,0,.5c0,.25.19.53-.21.63a.77.77,0,0,1-1-.28,1.23,1.23,0,0,1-.18-.67,9.14,9.14,0,0,1,.25-1.22,2.89,2.89,0,0,0,.46.2C43.05,59.93,43.05,59.92,43,60.65Zm-.19,2.06a.92.92,0,0,1,.6-.19c.29,0,.59.11.88.15a8.16,8.16,0,0,1,.88.1,1,1,0,0,1,0,.55c-.16.36-.3.77-1,.69-.38-.2-.9-.45-1.38-.76C42.71,63.2,42.72,62.81,42.82,62.71Zm2.34-13.83a2.35,2.35,0,0,1-.4.45.55.55,0,0,1-.32.07,1.63,1.63,0,0,1-.38-.3.24.24,0,0,1-.05-.23c.07-.16.21-.32.27-.47a1.78,1.78,0,0,0,.08-.47C45.18,47.9,45.51,48.32,45.16,48.88Zm-2.39-1.62c.38-.15.77-.27,1.15-.41,1-.37,1.46,0,1.28.55a.59.59,0,0,1-.3.3.61.61,0,0,1-.45-.06c-.22-.16-.43-.14-.72.08a2.35,2.35,0,0,1-.44.18l-.45.47c-.06-.13-.09-.21-.12-.29a3.22,3.22,0,0,0-.21-.51C42.39,47.4,42.61,47.32,42.77,47.26Zm-.64,1.51a1.66,1.66,0,0,1,.91-.31c.16,0,.28,0,.25.2a.43.43,0,0,0,.21.39.68.68,0,0,1,.3.55.57.57,0,0,1-.78.48,4.42,4.42,0,0,1-.92-.37c-.11-.06-.15-.16-.22-.24l0,0a.83.83,0,0,0-.07-.13C41.7,49.05,41.72,49,42.13,48.77Zm-1.31,3.64a2.13,2.13,0,0,1,.54-.39.34.34,0,0,1,.32.11,2.66,2.66,0,0,1,.23.67.52.52,0,0,1,0,.35c-.12.18-.32.32-.44.5a4,4,0,0,0-.26.62A1.16,1.16,0,0,1,40.82,52.41Zm-.64,2.08c.07-.13.3-.28.39-.24a.68.68,0,0,1,.39.37.48.48,0,0,0,.7.34,1.23,1.23,0,0,1,.46,0l.61-.39c0,.23,0,.36,0,.49a8.26,8.26,0,0,0,0,.86c0,.32-.19.29-.37.28-.4,0-.8-.1-1.21-.14A1,1,0,0,1,40.18,54.49ZM40,65.12c.24,0,.59-.19.85-.39.51-.38.74-.38,1.24.3a1.09,1.09,0,0,1-.1,1.2c-.42.76-.6.81-1,.27-.09-.12-.19-.26-.32-.29a.45.45,0,0,0-.38.15c-.3.54-.57,1.1-.85,1.66s-.77.59-1,.23a6.65,6.65,0,0,1-.5-.86,3.54,3.54,0,0,1,0-.89c.39-.36.79-.72,1.18-1.1A.92.92,0,0,1,40,65.12Zm2.33,3.38s0,.06-.07.11c-.33.37-.67.72-1,1.1s-.53.36-.68.07a.69.69,0,0,1,.11-.94,3.49,3.49,0,0,0,.47-1,6.78,6.78,0,0,1,.23-.68c.09-.14.29-.3.4-.29C42.27,66.89,42.6,67.87,42.35,68.5Zm-2.08,1c0,.63-.53,1.34-1,1.2a7.35,7.35,0,0,1-1.3-.68l.14-.18c.1-.21.22-.42.31-.65s.35-.51.62-.41a10.78,10.78,0,0,1,1.07.42A.39.39,0,0,1,40.27,69.54Zm-1.2-10.77c.21.15.21.42,0,.7a2.09,2.09,0,0,1-.93.78c-.41-.67-.48-.78,0-1.2a.93.93,0,0,0,.13-.15C38.58,58.61,38.79,58.57,39.07,58.77Zm-1.64-1.06a.7.7,0,0,1,.63,0,.42.42,0,0,1,.18.66.25.25,0,0,1-.2.06c-.2-.07-.3,0-.4.17a.4.4,0,0,1-.48.24.3.3,0,0,1-.25-.4.75.75,0,0,0,0-.22A.91.91,0,0,1,37.43,57.71Zm-.92,1.57c.1.08.25.15.28.25.08.29.33.28.55.33s.33.13.28.43A.76.76,0,0,1,37,61l-.11,0a.8.8,0,0,1-.58-.68,2.48,2.48,0,0,1,0-.66C36.26,59.51,36.42,59.4,36.51,59.28Zm-4.12,8.56c0-.12,0-.28,0-.42.06-.35.14-.7.22-1a.18.18,0,0,1,.16-.1.24.24,0,0,1,.17.14,2.32,2.32,0,0,1,.06.38c0,.41.34.56.61.36.15.11.28.22.46.37-.07.23-.15.49-.23.79l-.29-.17c-.36.3-.62.8-1.1.83A1.47,1.47,0,0,1,32.39,67.84Zm-.5,5.69a3.56,3.56,0,0,1,.8-.7c.09-.06.39,0,.45.16A5,5,0,0,1,33.56,74a.8.8,0,0,1-.05.55c-.31.57-.66,1.12-1,1.71A1.8,1.8,0,0,1,31.89,73.53ZM27.48,94.1c-.36.3-.91.25-1,0a1.06,1.06,0,0,1,0-.61c0-.13.22-.21.3-.27s.69,0,.74.26S27.6,94,27.48,94.1Zm.19-3a1.71,1.71,0,0,1-.21.48c-.67.48-1.14-.1-1.57-.41-.21-.15-.25-.78-.13-1.09a1.23,1.23,0,0,1,2-.15C27.9,90.23,27.73,90.71,27.67,91.1Zm1.55-4.78c0,.12,0,.24,0,.36-.05.66-.12.73-.81.75A1.63,1.63,0,0,1,27,87.06c-.21-.22-.4-.39-.12-.77a1.51,1.51,0,0,0,.11-1,2.27,2.27,0,0,1,.16-1.5c.36-.73,1-.82,1.37-.11a8.29,8.29,0,0,1,.71,1.77,3.82,3.82,0,0,1,.07.9Zm1.15-3.6a.63.63,0,0,0-.07-.5,1.4,1.4,0,0,1,.14-1.8,2.18,2.18,0,0,0,.09-.23c.85,0,1,.21.83.8a2,2,0,0,0-.06.35c0,.22,0,.44,0,.66,0,.44.16.59.6.34l.16.6.72-.42a2.13,2.13,0,0,1-.15,1.87c-.42.65-1.14.33-1.83.37C31,84,30.09,83.53,30.37,82.72Zm2.46,5.84a1.71,1.71,0,0,1-.21.48c-.67.48-1.14-.1-1.57-.42-.21-.15-.25-.77-.13-1.09a1.22,1.22,0,0,1,2-.14C33.05,87.68,32.89,88.17,32.83,88.56Zm1.38-7.15a2.15,2.15,0,0,1-.13,1,.77.77,0,0,1-.59.4c-.41,0-.52-.4-.5-.76,0-.56.13-1.11.18-1.67a4,4,0,0,0-.06-.55c-.21.29-.37.5-.44.61a4.18,4.18,0,0,1-.76-.23.7.7,0,0,1-.31-.43,1.49,1.49,0,0,1,1-1.45c.37-.11.77-.15,1.21-.24a7.89,7.89,0,0,0,.44,1.69C34.5,80.33,34.19,80.86,34.21,81.41Zm-.42-14.69c-.3,0-.71-.66-.67-1a.81.81,0,0,1,.68-.55c.24,0,.57.35.55.51C34.27,66.43,34.1,66.75,33.79,66.72Zm1.91,9.45a7.89,7.89,0,0,1-.21-1.23,1.94,1.94,0,0,1,.27-.76,4.21,4.21,0,0,0,.31-.73c.13-.58.11-.59-.51-.71,0-.11,0-.22,0-.28-.38-.63.28-.85.49-1.24a.5.5,0,0,1,.41,0c.62.53,1.24,1.07,1.83,1.64a3.72,3.72,0,0,1-.11,2.05,12.2,12.2,0,0,0-.56,1.34c0,.08-.06.23-.09.23a9.26,9.26,0,0,1-1.29,0C36,76.45,35.87,76.27,35.7,76.17ZM40,79.33s-.12.08-.15.14c-.13.34-.23.69-.37,1a1.83,1.83,0,0,1-.38.54,5,5,0,0,1-1,.82,1.26,1.26,0,0,1-.9.05,2.15,2.15,0,0,1-.82-.59c-.09-.09,0-.37,0-.51a.35.35,0,0,0,0-.43c-.24-.34.16-.51.24-.76a.39.39,0,0,1,.5-.32.69.69,0,0,1,.36.77c0,.06-.06.12,0,.16s.08.28.17.34a.37.37,0,0,0,.37,0,10.82,10.82,0,0,0,.8-1s-.07-.19-.14-.26a.77.77,0,0,1,.08-1.25,1.86,1.86,0,0,1,.51-.33.78.78,0,0,1,.81.36,3.41,3.41,0,0,1,.34.79C40.29,79.06,40.16,79.2,40,79.33Zm3.32-3.82a8.39,8.39,0,0,0-.79.29.75.75,0,0,1-.76,0,1.48,1.48,0,0,0-.84.08c-.59.19-.79.12-1-.63-.09-.34.16-.69.46-1s.33-.25.5-.38h0v0A1.14,1.14,0,0,1,41,72.08l1.14-.64c.31-.19.57-.18.61.12a.65.65,0,0,1-.38.79c-.27.13-.49.47-.73.72l-.71.76h0a4,4,0,0,1,.45.37c.1.12.13.32.23.44a.26.26,0,0,0,.28,0c.43-.39.83-.83,1.27-1.19a1.56,1.56,0,0,1,.73-.31c.09,0,.16.2.2.34s.12.56.17.84S43.8,75.34,43.35,75.51Zm1.57-3.33c-.17.17-.34.34-.5.52s-.46.29-.66.13-.51-.41-.75-.64a.34.34,0,0,1-.06-.3c.15-.54.9-1,1.25-.77a6,6,0,0,1,.86.95Zm2.93-5.66c0,.19.14.38.1.53a2.89,2.89,0,0,1-.37.72,2.51,2.51,0,0,1-.45.47.66.66,0,0,1-.79.18c-.18-.08-.45.06-.69.06a3,3,0,0,1-.8-.1c-.05,0,0-.32,0-.57l-.57-.31c0-.55.09-1.1.13-1.65.39-.09.49.23.67.44s.33.44.53.63a1.4,1.4,0,0,0,.38.2c.31-.19.62-.36.9-.57.11-.09.12-.28.17-.43s-.25-.12-.32-.09c-.46.24-.53-.19-.73-.38s-.19-.33-.32-.47-.09-.38.12-.47c.42-.2.86-.36,1.28-.54v.1a5.14,5.14,0,0,0,.55.2.62.62,0,0,1,.56.59c0,.29.18.57.19.86A.53.53,0,0,1,47.85,66.52ZM50.45,56c-.15.36-.3.77-1,.69-.37-.2-.9-.45-1.38-.76-.08-.05-.07-.44,0-.54a.88.88,0,0,1,.6-.19c.3,0,.59.1.89.14a8.27,8.27,0,0,1,.87.11A1,1,0,0,1,50.45,56Zm.24-1.17a1,1,0,0,1-.14-.63,2.74,2.74,0,0,1,.2-.59,1.12,1.12,0,0,0,0-.34L49.11,53a.58.58,0,0,1-.45-1c.24-.35.35-.83.84-.95.1,0,.23-.08.3-.05.34.19.68.39,1,.6a1.1,1.1,0,0,1,.61.93c0,.24.33.48.55.69a1.23,1.23,0,0,1,0,1.49C51.75,55,50.9,55.07,50.69,54.82Zm4,3.65a2,2,0,0,1-.48,1.5c-.21.21-.22.63-.29,1s-.18.45-.54.34a2.94,2.94,0,0,0-.76,0L52,60.91a9.64,9.64,0,0,1-.18-1.25,2.14,2.14,0,0,1,.24-.77c.08-.22.19-.43.27-.65.13-.4.1-.72-.44-.67,0-.19,0-.33-.06-.46s-.15-.35-.09-.44c.17-.27.38-.65.63-.7a1.32,1.32,0,0,1,.88.39,14.51,14.51,0,0,0,1.14,1.09C54.85,57.74,54.69,58.17,54.7,58.47Zm-1.25-5c0-.38.2-.81.64-.84s.61.32.76.72c.08.22.42.35.64.52v-.14l1-.19,0,.12L57.4,53c0,.56,0,1,0,1.34a6.37,6.37,0,0,0,.13.74.49.49,0,0,1-.54.56l-2-.17A1.57,1.57,0,0,1,53.45,53.51Zm3.71,4.64c.12-.16.41-.2.56-.27.16-.49.32-1,.46-1.43,0-.08-.06-.19-.06-.29,0-.26-.08-.52.37-.49.2,0,.43-.18.8-.36.14.44.27.87.41,1.3s.32.85.42,1.29a1.09,1.09,0,0,1-.06.76.68.68,0,0,1-.59.24.47.47,0,0,0-.65.32c-.24.55-.81.39-1.21.47-.21.05-.63-.38-.75-.68S57,58.4,57.16,58.15ZM57,64.81c.07-.4.06-.81.14-1.21a10.39,10.39,0,0,1,.38-1.38.3.3,0,0,1,.56,0,1.34,1.34,0,0,1,.09.45c.09.71.37.88,1.07.69a.17.17,0,0,1,.17,0c.2.15.39.32.64.54-.11.33-.23.7-.38,1.13l-.52-.24-1.53,1.28A1.05,1.05,0,0,1,57,64.81Zm4.36,3.79a.3.3,0,0,1-.23.08c-.28-.09-.55-.21-.83-.31-.07,0-.18-.06-.22,0-.41.29-1.09.18-1.27.83,0,.16-.22.22-.33,0s-.26-.52-.06-.8a1.72,1.72,0,0,1,1.31-.92,5.19,5.19,0,0,0,.88-.32c.35-.1.71-.16,1.18-.27C61.71,67.5,61.82,68.12,61.35,68.6Zm1.07-6.38a1,1,0,0,1-1.2.33c-.15-.08-.24-.29-.33-.45s0-.26-.06-.35c-.59-.86,0-1.65.18-2.44a8.86,8.86,0,0,1,.7-1.5,1.32,1.32,0,0,1,1.51-.57c.32.15.49.64.69,1a1.55,1.55,0,0,1,.14.49c0,.12,0,.3-.08.35-.7.43-.58,1.28-1,1.86,0,0-.08.11-.07.14C63.2,61.64,62.65,61.87,62.42,62.22Zm2.2,9.08a1.25,1.25,0,0,1-1,0l-.41-.66a2.14,2.14,0,0,1,.27-.57,4.77,4.77,0,0,1,.84-.78c.13-.09.38,0,.57,0,0,.16,0,.37,0,.48-.22.31-.09.56,0,.84S65,71.1,64.62,71.3Zm-.42-4.78s0-.32,0-.57l-.57-.31c0-.55.08-1.1.13-1.65.39-.09.49.23.67.43a8.18,8.18,0,0,0,.53.64,1.4,1.4,0,0,0,.38.2c.31-.19.62-.36.9-.57.11-.09.12-.28.17-.43s-.25-.13-.32-.09c-.46.24-.54-.19-.73-.38s-.19-.33-.32-.47-.09-.38.12-.47c.42-.2.86-.36,1.28-.54v.1a5.14,5.14,0,0,0,.55.2.62.62,0,0,1,.56.59c0,.29.18.57.19.86a.53.53,0,0,1-.53.6c0,.19.14.38.1.53a2.89,2.89,0,0,1-.37.72,2.51,2.51,0,0,1-.45.47.66.66,0,0,1-.79.18c-.18-.08-.45.06-.69.06A3,3,0,0,1,64.2,66.52Zm2.49,5.67A2.64,2.64,0,0,1,65,71.8,3.59,3.59,0,0,1,65.5,71a1,1,0,0,1,.6-.17,4.11,4.11,0,0,1,.6.08c.46,0,.7.25.71.63S67.18,72.14,66.69,72.19Zm.7-1.76c-.26.11-.43,0-.53-.25,0-.08-.26-.14-.4-.13-.46,0-.84-.34-.65-.68s.33-.3.46-.41a1.25,1.25,0,0,1,1,.08,1,1,0,0,1,.46.77A.53.53,0,0,1,67.39,70.43Zm.38-14.76a1,1,0,0,1-.8.85l-.13,0a1,1,0,0,1-.74-.86,2.83,2.83,0,0,1,0-.82c0-.16.21-.3.33-.45.12.1.32.18.35.31.1.37.42.35.69.41S67.84,55.3,67.77,55.67Zm0-2.05a.5.5,0,0,1-.6.3.39.39,0,0,1-.32-.51.8.8,0,0,0,0-.27c0-.26.43-.62.68-.71a.88.88,0,0,1,.79.07.52.52,0,0,1,.22.82.3.3,0,0,1-.25.09C68.05,53.32,67.92,53.39,67.8,53.62Zm.69.5a1.62,1.62,0,0,0,.17-.19c.32-.37.58-.42.93-.16s.27.52,0,.87a2.54,2.54,0,0,1-1.16,1C67.92,54.79,67.84,54.64,68.49,54.12Zm-.28,6.43c-.08-.09,0-.37.06-.52a.35.35,0,0,0,0-.42c-.24-.34.16-.51.24-.76a.4.4,0,0,1,.5-.33.73.73,0,0,1,.36.78c0,.06-.06.12,0,.16s.07.28.17.34a.41.41,0,0,0,.36,0,10.82,10.82,0,0,0,.8-1s-.06-.19-.13-.26a.77.77,0,0,1,.07-1.25,1.78,1.78,0,0,1,.51-.33.8.8,0,0,1,.82.36,3.41,3.41,0,0,1,.34.79c-.17.19-.29.33-.42.46s-.13.08-.15.14c-.13.34-.23.69-.38,1a1.63,1.63,0,0,1-.37.54,5,5,0,0,1-1,.82,1.27,1.27,0,0,1-.9,0A2.18,2.18,0,0,1,68.21,60.55ZM71.27,64c-.13.19-.33.33-.46.52a4.93,4.93,0,0,0-.27.64,1.19,1.19,0,0,1-.35-1.92,2.2,2.2,0,0,1,.56-.4.36.36,0,0,1,.34.11,3.11,3.11,0,0,1,.23.69A.55.55,0,0,1,71.27,64Zm.89,2a5.17,5.17,0,0,0,0,.88c0,.34-.21.31-.38.3-.42,0-.84-.11-1.26-.15a1.08,1.08,0,0,1-1-1.65c.07-.12.31-.28.41-.24a.71.71,0,0,1,.4.38c.14.37.35.48.72.35a1.16,1.16,0,0,1,.48,0l.62-.41ZM72,65.22c-.14-.11-.26-.21-.15-.45a1,1,0,0,0,0-.72,1.53,1.53,0,0,1,0-1c.17-.53.58-.62.93-.2A6.55,6.55,0,0,1,73.42,64a1.59,1.59,0,0,1,.11.49h0a1.92,1.92,0,0,0,0,.24c0,.48,0,.51-.48.61A1.17,1.17,0,0,1,72,65.22Zm2.1,9.92c-.47-.06-.87-.19-1.3-.28l.13-.08a2.73,2.73,0,0,0,.31-.27.71.71,0,0,1,.62-.17q.55.07,1.08.18c.08,0,.15.07.15.12C75.13,74.9,74.58,75.2,74.11,75.14ZM74.27,74a1,1,0,0,1-1,.1,3.27,3.27,0,0,1-.49-.36c-.08-.09,0-.21,0-.37L74,72.93a1.87,1.87,0,0,1,.89-.12,2.76,2.76,0,0,0,.86-.16,1.26,1.26,0,0,1,1.24.12c.25.14.13.33-.1.5a.78.78,0,0,1-1,.11.93.93,0,0,0-.32-.12.72.72,0,0,0-.37.07C74.81,73.55,74.54,73.78,74.27,74Zm2.92.2a.26.26,0,0,1-.08.05l-1,.45a.67.67,0,0,1-.68,0c-.13-.1-.26-.23.11-.39a1.63,1.63,0,0,0,.48-.42c.09-.09.11-.19.23-.28a1,1,0,0,1,.4-.12C77.1,73.55,77.43,74,77.19,74.21ZM77,68.47l-.37-.21L75.53,69c-.23.15-.48.07-.51-.2a5.07,5.07,0,0,1,0-.87,2.26,2.26,0,0,1,.08-.44c.1-.39.21-.78.34-1.16a.27.27,0,0,1,.24-.13.32.32,0,0,1,.21.17,1.19,1.19,0,0,1,0,.33c0,.53.37.73.78.54l.57.42C77.22,67.88,77.09,68.16,77,68.47ZM77,66.74a1.66,1.66,0,0,1-.72-.49c-.12-.15-.07-.41-.09-.59s.58-.65.9-.61.76.42.75.57C77.79,66.35,77.43,66.86,77,66.74Zm-1.21-3.39a.29.29,0,0,1-.09-.24c.11-.32.25-.63.37-1,0-.07.06-.19,0-.23-.36-.44-.21-1.22-1-1.38-.07,0-.11-.15-.15-.22.52-.45.87-.42,1.56.13a1.5,1.5,0,0,1,.6,1,8.62,8.62,0,0,0,.47,1.25,11.46,11.46,0,0,1,.27,1.14C77.13,63.79,76.4,63.88,75.82,63.35Zm2.28-3.51c-.11-.08-.09-.33-.11-.51a.54.54,0,0,1,.05-.21c.07-.18.13-.36.22-.59a2.59,2.59,0,0,0,.3.17c.54.13.55.13.47.65a1.32,1.32,0,0,0-.07.32c0,.18.11.43-.18.42A1.2,1.2,0,0,1,78.1,59.84Zm1.14.78a7.81,7.81,0,0,1,.79.15c.09,0,.21,0,.29,0s.25.15.27.25c.06.28-.47.76-.86.73-.29-.18-.66-.38-1-.63-.06,0,0-.3,0-.38A.72.72,0,0,1,79.24,60.62Zm.32-10.52a2.21,2.21,0,0,1-1.46,0c-.26-.12-.47-.22-.3-.55a.89.89,0,0,0-.13-.79A1.06,1.06,0,0,1,78,47.07c.36-.22.65.06.82.21a9.38,9.38,0,0,1,1.09,1.2,2.5,2.5,0,0,1,.27.63l-.09,0a.8.8,0,0,0,0,.27C80.35,49.84,80,50,79.56,50.1Zm.93-2.91c-.53,0-1.26-.53-1.28-.95s.06-.66.6-.74c.34,0,.62-.09.71.3a5.26,5.26,0,0,0,.45,1C81.1,47.08,80.81,47.17,80.49,47.19Zm2.32,7.73c-.08.32-.32.3-.56.18a1.26,1.26,0,0,1-.36-1.38c.16-.29.38-.52.77-.41s.56.23.37.65A5.84,5.84,0,0,0,82.81,54.92Zm2.21.65a7.92,7.92,0,0,0-.19,1.32c-.07.34-.19.67-.32,1.12-.61-.43-1.29-.7-1.54-1.44a.29.29,0,0,1,0-.26c.25-.23.52-.43.78-.65.06,0,.15-.13.13-.19-.1-.56.4-1.17-.2-1.7-.06,0,0-.17,0-.26.67-.15,1,.05,1.3.87A1.53,1.53,0,0,1,85,55.57Zm-.17-5.47A1.53,1.53,0,0,0,83.77,50a1.47,1.47,0,0,1-.66,0c-.15,0-.39-.21-.37-.25a2.57,2.57,0,0,1,.66-.91,1,1,0,0,1,1,.11,7.63,7.63,0,0,0,.88.33,2.93,2.93,0,0,1,.41.3A.61.61,0,0,1,84.85,50.1Zm1.87,2-.16,0c-.24,0-.48-.06-.72-.07s-.53-.17-.52-.44,0-.7,0-1.05a.36.36,0,0,1,.2-.24c.56-.25,1.37,0,1.39.54A7.42,7.42,0,0,1,86.72,52.12Zm13.13,37-.49-.06c-.23,0-.34-.12-.34-.34s0-.58,0-.87a.22.22,0,0,1,.11-.18.63.63,0,0,1,.88.35A2.13,2.13,0,0,1,99.85,89.16Zm.62-5c-.36.3-.91.25-1,0a1.06,1.06,0,0,1,0-.61c.05-.13.22-.21.3-.28s.69,0,.74.27S100.59,84.06,100.47,84.16ZM104.16,33a.19.19,0,0,1,.07-.12.44.44,0,0,1,.63.25,1.39,1.39,0,0,1-.12.79l-.35-.05a.21.21,0,0,1-.24-.24C104.15,33.42,104.15,33.21,104.16,33Zm-1.86,4.5c.13-.51.45-.62.76-.22a8.06,8.06,0,0,1,.62,1.07,2,2,0,0,1,.15.55l0,0,0,.24c.06.44,0,.5-.35.63a.82.82,0,0,1-.83,0,.36.36,0,0,1-.16-.48,1.22,1.22,0,0,0-.09-.72A1.8,1.8,0,0,1,102.3,37.5Zm-1.43,2.29c.15,0,.31.27.4.46a.39.39,0,0,0,.55.23,1.29,1.29,0,0,1,.39-.08l0,.05.47-.41.08.06c0,.28,0,.55,0,.82a1.27,1.27,0,0,0,.07.44c.11.36-.14.36-.29.36-.36,0-.71,0-1.07-.06-.68,0-1.06-.55-1-1.33C100.53,40.08,100.62,39.76,100.87,39.79Zm2.27,8.29c-.19.23-.15.57-.36.79a10.15,10.15,0,0,1-1.13.86c-.15.11-.26.28-.44.36s-.68.23-1.07.37L99,50s0,0-.07-.06c-.64-.24-.63-.57-.29-1,0,0,.05-.15,0-.18-.58-.51.06-.86.29-1.25a.67.67,0,0,1,.49-.25,1,1,0,0,1,.55.37c.1.18,0,.41.09.61s.13.39.29.46a.82.82,0,0,0,.62-.09,10,10,0,0,0,1-1.19s-.09-.21-.2-.27a.83.83,0,0,1,0-1.55c.21-.13.42-.37.63-.37a2.89,2.89,0,0,1,1.14.27,1,1,0,0,1,.49,1.29s0,0,0,0C103.27,47.05,103.48,47.68,103.14,48.08Zm.64,3.08a9.43,9.43,0,0,1-.29.9,5,5,0,0,1-.24.8s-.39,0-.54-.11c-.33-.21-.73-.4-.52-1.09.24-.32.57-.8,1-1.23a.59.59,0,0,1,.53.11A.87.87,0,0,1,103.78,51.16ZM99.47,57q-.24,0-.24-.24c0-.21,0-.42,0-.63a.26.26,0,0,1,.08-.13.46.46,0,0,1,.63.26,1.46,1.46,0,0,1-.12.78A2.88,2.88,0,0,0,99.47,57Zm.16,3.14c0,.28,0,.58,0,.86,0,.12-.15.33-.22.32a2.53,2.53,0,0,1-.91-.16.57.57,0,0,1-.23-.48c0-.49.11-1,.18-1.53.27.13.41.25.52.23C99.64,59.29,99.67,59.68,99.63,60.18Zm.74-17a1.52,1.52,0,0,0,.22-.22,1,1,0,0,1,1.19-.32c.44.2.53.49.26.95a3.12,3.12,0,0,1-1.57,1.25C99.65,44,99.53,43.83,100.37,43.21ZM100,38.15a1,1,0,0,1,.47.57c0,.11-.14.34-.26.45a8.36,8.36,0,0,1-1,.74.63.63,0,0,1-.52.08,1,1,0,0,1-.25-.42C98.6,38.36,99.16,37.87,100,38.15ZM98.1,42a1.65,1.65,0,0,1,1.27-.74c.64-.12,1.31.44,1.09.9-.07.13-.27.22-.37.31-.48-.15-.58,0-.7.22-.25.42-1,.57-1.21.22A1.08,1.08,0,0,1,98.1,42Zm-.62,1.7c.18.1.45.17.52.3.15.3.46.35.79.4.78.11.73.11.71.72s-.44.62-.81.83a1,1,0,0,1-.33,0,1.07,1.07,0,0,1-1.06-.76,3.46,3.46,0,0,1-.22-1.08C97.08,44,97.33,43.86,97.48,43.71Zm-.74,3.8c0,.22,0,.39-.19.56s-.22.29-.17.39a1,1,0,0,1-.26,1.12,5.62,5.62,0,0,1-1.26.87,3.36,3.36,0,0,1-.67.27c-.37-.2-.7-.36-1-.55s-.49-.38-.73-.57a1.71,1.71,0,0,1,.25-.24c.27-.21,0-.77.78-.66.41.06.83.13,1.24.15.19,0,.51,0,.57-.14a1,1,0,0,0,.13-.68c0-.16-.25-.3-.34-.39-.39.14-.76.31-1.15.41-.1,0-.4-.13-.42-.22-.1-.34-.26-.7.15-1a.59.59,0,0,0,.2-.22c.09-.22.22-.23.46-.12a1.82,1.82,0,0,0,.35.06c.56.16.88-.21,1.38-.39C96.18,46.65,96.75,47,96.74,47.51ZM93.37,58.38a1.13,1.13,0,0,1,.08,1.38c-.75,1-1.38.16-2.09-.09,0-.27,0-.58.06-.76s.46-.71.77-.79S93.06,57.9,93.37,58.38Zm-1-14.78c0-.06.13-.15.21-.15.38,0,.77,0,1.15,0,.12,0,.3,0,.34,0,.42-.42,1.3-.59,1.23-1.29,0-.19.18-.32.41-.15s.55.44.46.79a2.14,2.14,0,0,1-1.55,1.56c-.25.09-.4.35-.64.5s-.82.43-1.35.7C92.46,44.84,92,44.26,92.41,43.6Zm0,7.61c.1.5.23,1,.33,1.5a.24.24,0,0,1-.08.19c-.75.51-.44,1.18-.51,1.8,0,.2-.09.49-.27.57A1.15,1.15,0,0,1,90.7,55c-.09-.14,0-.33-.07-.52-.63-.19-.63-.19-.47-1a.86.86,0,0,1-1-.6c-.12-.29-.53-.47-.28-.88s.49-.6,1.08-.25l.26.17a1.06,1.06,0,0,0,.86-.79.6.6,0,0,1,.65-.35C92,50.87,92.38,50.9,92.44,51.21ZM88.52,50a.42.42,0,0,0-.06-.19c-.55-.61,0-1.2.15-1.77a3.61,3.61,0,0,1,.83-1.24,1.08,1.08,0,0,1,1.14-.38.69.69,0,0,1,.92.49.91.91,0,0,1-.12,1c-.38.45-.95,1-.77,1.62,0,.07,0,.2,0,.22-.42.2-.57.62-1.13.7S88.57,50.44,88.52,50Zm.32,21.07c-.28.13-.7.43-.8.35a4,4,0,0,1-1-1.23c-.25-.53,0-.68.52-1s.76-.74,1.2-1a4.06,4.06,0,0,1,1.41-.48c.33,0,.59.59.4,1a12.86,12.86,0,0,1-.83,1.61,4.35,4.35,0,0,1-.66.7L89,71.05Zm2.24,4.37c-.68.56-1.72.47-1.89-.06a2.09,2.09,0,0,1,0-1.16c.08-.24.42-.39.56-.51.4-.22,1.3.09,1.39.5S91.31,75.29,91.08,75.48Zm2,2.37a1.15,1.15,0,0,1-.31.72c0,.07-.34,0-.51-.08a6.36,6.36,0,0,1-1.1-.49c-.42-.27-.39-.62,0-.86C92.11,76.65,92.94,77,93.09,77.85ZM90.32,80a18.26,18.26,0,0,0-2.51-1.12l0-.2c.61-.51,1.08-1.23,2-1.29.12,0,.27.15.37.27a1.91,1.91,0,0,1,.3.54c.18.55.69.7,1.13.86a1.31,1.31,0,0,0,1.22.08.43.43,0,0,1,.36-.05.33.33,0,0,1,.09.34c-.17.32-.26.72-.71.82A2.82,2.82,0,0,1,90.32,80Zm1.83,8.37a15.25,15.25,0,0,1-1.36-.74c-.09,0-.08-.44,0-.54a.87.87,0,0,1,.6-.2,6,6,0,0,1,.93.14,3.77,3.77,0,0,1,.83.11s0,.38,0,.54C93,88.05,92.86,88.48,92.15,88.38Zm2.13,12.71c-.35,0-.57-.09-.79-.1s-.55-.19-.55-.54,0-1,0-1.42a.45.45,0,0,1,.18-.29,1,1,0,0,1,1.42.57A3.4,3.4,0,0,1,94.28,101.09ZM94.65,93c-.08.32-.32.3-.56.17a1.24,1.24,0,0,1-.37-1.38c.17-.29.39-.52.78-.41s.55.24.36.66A5.83,5.83,0,0,0,94.65,93Zm.87-1.42c.68-.14,1,.06,1.31.88a1.51,1.51,0,0,1,0,1.18A8.07,8.07,0,0,0,96.66,95a11.3,11.3,0,0,1-.32,1.12c-.61-.42-1.29-.69-1.54-1.44a.33.33,0,0,1,0-.26c.25-.22.53-.43.79-.64.06,0,.14-.14.13-.2-.1-.56.4-1.17-.21-1.69C95.5,91.8,95.53,91.67,95.52,91.58Zm-.65-10.49a4.62,4.62,0,0,1,.4,1,.85.85,0,0,1,0,.59c-.16.3-.42.54-.58.84a6.28,6.28,0,0,0-.33.93,1.82,1.82,0,0,1-.72-2.79,3.31,3.31,0,0,1,.83-.75C94.5,80.87,94.8,81,94.87,81.09Zm-.74-8.74a15,15,0,0,0-1,1.32c-.3.34-.65.64-1,1-.07,0-.12,0-.13-.05a3.22,3.22,0,0,1-.73-2.27c0-.12.11-.3.21-.32.41-.1.83-.15,1.25-.23.09,0,.21,0,.23-.09.3-.67,1.19-1.06.91-2,0-.07.1-.29.14-.28a.81.81,0,0,1,.5.17A2,2,0,0,1,94.13,72.35Zm-2.29-3.76a.82.82,0,0,1,1.13,0c.3.27.5.56,0,.91a8.06,8.06,0,0,0-.89,1c-.27.28-.5.12-.67-.14A1.48,1.48,0,0,1,91.84,68.59ZM95.32,65l-.93-.13c-.1,0-.2-.09-.29-.07-.55.11-1.08.27-1.63.36a2.34,2.34,0,0,1-1,0,7.53,7.53,0,0,1-1.91-.64,1.9,1.9,0,0,1-.75-1.14A2.73,2.73,0,0,1,89,62c.06-.19.47-.29.73-.41s.38,0,.41-.09c.34-.8,1-.47,1.59-.5.18,0,.48.15.52.29a.85.85,0,0,1-.15.67c-.17.21-.48.3-.69.49A1.12,1.12,0,0,0,91,63c0,.13.21.41.37.44a15.78,15.78,0,0,0,1.82.17c.08,0,.22-.16.25-.26.26-1.08.9-1.34,2-.93.55.21.83.46.81,1.05A1.8,1.8,0,0,1,95.32,65Zm2-6.72a7.2,7.2,0,0,1-.28.9,4.14,4.14,0,0,1-.25.8s-.38,0-.53-.11c-.33-.21-.73-.4-.52-1.09.24-.32.57-.8,1-1.23a.56.56,0,0,1,.53.11A.82.82,0,0,1,97.31,58.29Zm-.08-2.43a2.05,2.05,0,0,0-1.32.16,2,2,0,0,1-1-.12c-.11,0-.06-.35-.08-.59L94,54.94a1,1,0,0,1,0-1.77.79.79,0,0,1,.58.13c.29.21.52.48.8.7a3.2,3.2,0,0,0,.56.26l.43.24c.06-.06.12-.14.19-.2s.4-.32.62-.48a3.23,3.23,0,0,0,.41-.27.29.29,0,0,0,0-.32.48.48,0,0,0-.39-.07c-.58.29-.8-.11-1.08-.34a8.06,8.06,0,0,1-.71-.77,3.07,3.07,0,0,1,.44-.3c.4-.19.83-.33,1.23-.52s.79.18,1.23.17a.69.69,0,0,1,.79.66c0,.17.23.32.29.5.2.51,0,.82-.6,1.1a3.81,3.81,0,0,1,.17.51c0,.13,0,.32,0,.4-.43.42-.89.82-1.36,1.22A.53.53,0,0,1,97.23,55.86Zm2.49,13.42c-.27,0-.56.14-.76.06s-.78-.34-.9-.63-.36-.82.07-1.21a1.13,1.13,0,0,1,1.34-.3C100.62,67.78,99.85,68.54,99.72,69.28Zm2.29-6.8c-.15.36-.28.79-1,.69a15.26,15.26,0,0,1-1.37-.74.58.58,0,0,1,0-.54.89.89,0,0,1,.6-.2,7.43,7.43,0,0,1,.93.13,4.49,4.49,0,0,1,.83.12S102.09,62.32,102,62.48Zm2.08-5c-.16.3-.43.54-.59.84a6.3,6.3,0,0,0-.32.93,1.82,1.82,0,0,1-.72-2.79,3.14,3.14,0,0,1,.83-.75.5.5,0,0,1,.44.17,4.17,4.17,0,0,1,.4,1A.91.91,0,0,1,104.09,57.48Zm.19-13.69a.33.33,0,0,1-.3.18c-.22,0-.34.06-.42.27s-.44.26-.65.27-.36-.27-.44-.48.08-.39.19-.54.24-.15.3-.19a2.93,2.93,0,0,0,.21-.88c-.1-.61.31-.64.67-.85.07.28.14.57.22.86s.17.58.23.88A.87.87,0,0,1,104.28,43.79Zm-.08-6.92c-.17,0-.24-.08-.25-.24s0-.42,0-.63a.16.16,0,0,1,.08-.12.44.44,0,0,1,.63.25,1.49,1.49,0,0,1-.13.79ZM101.7,75a1.49,1.49,0,0,1,.42-1.7.82.82,0,0,1,1.13,0c.3.26.5.55,0,.91a7.34,7.34,0,0,0-.89,1C102.1,75.43,101.87,75.28,101.7,75Zm2.22,2.64c-.15.46-.5.84-.42,1.43,0,.19-.27.46-.45.66s-.23.09-.36.13-.41-.07-.38-.42a.31.31,0,0,0,0-.19c-.3-.6,0-1.15.13-1.7a4.17,4.17,0,0,1,.43-1,.74.74,0,0,1,.85-.36.76.76,0,0,1,.38.69A1.65,1.65,0,0,1,103.92,77.66Zm.59-7.43c-.68,0-1.06-.55-1-1.33,0-.25.12-.57.37-.54s.31.27.4.46a.39.39,0,0,0,.55.23,1.29,1.29,0,0,1,.39-.08l0,0,.47-.41.08.06c0,.28,0,.55,0,.82a1.56,1.56,0,0,0,.06.44c.12.36-.13.36-.28.36C105.22,70.3,104.87,70.25,104.51,70.23Zm2.35-2.5c.06.44,0,.5-.35.63a.8.8,0,0,1-.83,0,.34.34,0,0,1-.16-.47,1.22,1.22,0,0,0-.09-.72,1.8,1.8,0,0,1-.08-1.05c.12-.51.45-.62.76-.22a7.47,7.47,0,0,1,.62,1.07,3,3,0,0,1,.15.55l0,0Zm-.2-8.81a2.88,2.88,0,0,0-.35,0,.22.22,0,0,1-.24-.25c0-.21,0-.41,0-.62a.21.21,0,0,1,.07-.13.44.44,0,0,1,.63.25A1.39,1.39,0,0,1,106.66,58.92Zm-.57-5.87c0,.29,0,.58,0,.86,0,.12-.15.33-.22.32a2.53,2.53,0,0,1-.91-.16.57.57,0,0,1-.23-.48c0-.49.11-1,.18-1.53.28.13.41.25.52.23C106.1,52.16,106.13,52.55,106.09,53.05Zm-1.29,7.38c.27.12.41.24.51.22.68-.13.71.27.68.76,0,.29,0,.58,0,.87,0,.12-.15.32-.23.32a2.76,2.76,0,0,1-.91-.16.6.6,0,0,1-.22-.49C104.64,61.47,104.73,61,104.8,60.43Zm2.53,11.93a.34.34,0,0,1-.3.18c-.23-.05-.34.06-.42.27s-.44.25-.65.27-.36-.27-.44-.48.08-.39.19-.54a.78.78,0,0,1,.3-.19,2.93,2.93,0,0,0,.21-.88c-.1-.61.31-.64.66-.85.08.28.15.57.23.86s.17.58.23.88A.87.87,0,0,1,107.33,72.36Zm.26-6.87-.35,0a.21.21,0,0,1-.24-.24c0-.21,0-.42,0-.63a.16.16,0,0,1,.08-.12.44.44,0,0,1,.63.25A1.49,1.49,0,0,1,107.59,65.49Zm.2-3-.35-.05a.21.21,0,0,1-.24-.24c0-.21,0-.42,0-.63a.19.19,0,0,1,.07-.12.44.44,0,0,1,.63.25A1.41,1.41,0,0,1,107.79,62.49Zm1.15-12.27a.34.34,0,0,1,.11-.18.63.63,0,0,1,.88.35,2.1,2.1,0,0,1-.17,1.1l-.49-.06a.32.32,0,0,1-.34-.34C108.93,50.8,108.93,50.51,108.94,50.22Zm-.19,8.56a7.69,7.69,0,0,1-.29.89,5,5,0,0,1-.24.8c0,.05-.39,0-.54-.11-.32-.21-.73-.4-.52-1.09.24-.32.57-.8,1-1.23.06-.07.44,0,.53.11A.94.94,0,0,1,108.75,58.78Zm-1.55-5.5c.36-.1.7-.18.78.4a8,8,0,0,0,.44,1.21c.14.39-.11.54-.45.57a1.52,1.52,0,0,1-1.3-1.21C106.67,53.83,106.7,53.42,107.2,53.28Zm-1.08-4.84a.37.37,0,0,1,.28.26,3,3,0,0,1,0,.52,1.76,1.76,0,0,1,0,.46,1.61,1.61,0,0,1-.53.14c-.36,0-.79.07-.81-.32s.29-.58.51-.92A1,1,0,0,1,106.12,48.44Zm0-6.68-.3-.16c-.36.29-.61.79-1.09.83a1.54,1.54,0,0,1-.07-1.15c0-.11,0-.28,0-.42.06-.35.13-.69.21-1a.18.18,0,0,1,.17-.1.24.24,0,0,1,.16.15,1.51,1.51,0,0,1,.06.37c.06.41.35.56.62.36l.45.37C106.26,41.21,106.19,41.47,106.11,41.76Zm5.27-4.3A2.54,2.54,0,0,1,112,37s.26,0,.3.12a2.68,2.68,0,0,1,.27.68.58.58,0,0,1,0,.41c-.11.2-.29.36-.4.57a3.83,3.83,0,0,0-.22.63A1.24,1.24,0,0,1,111.38,37.46Zm-2.29,0a.15.15,0,0,1,.07-.12.44.44,0,0,1,.63.25,1.48,1.48,0,0,1-.12.79l-.35,0a.21.21,0,0,1-.24-.24C109.08,37.9,109.08,37.69,109.09,37.48Zm-.17,5.29c0-.42,0-.83.52-1s.7-.18.79.4a7,7,0,0,0,.44,1.21c.13.4-.12.54-.45.57A1.51,1.51,0,0,1,108.92,42.77Zm3.53,4.45c-.12.29-.23.63-.8.56-.28-.15-.71-.35-1.1-.6a.49.49,0,0,1,0-.44.73.73,0,0,1,.48-.16c.25,0,.5.08.75.11a4.71,4.71,0,0,1,.67.09A.67.67,0,0,1,112.45,47.22Zm.36-2.08a3.78,3.78,0,0,0-.49-.06.3.3,0,0,1-.33-.34,8.61,8.61,0,0,1,0-.88.23.23,0,0,1,.1-.17A.62.62,0,0,1,113,44,2,2,0,0,1,112.81,45.14ZM114.25,36c0-.29,0-.57.36-.66s.47-.13.53.27a5.05,5.05,0,0,0,.3.82c.09.27-.08.37-.31.39A1,1,0,0,1,114.25,36Zm2.63,6.3c-.36.3-.91.25-1,0a1.09,1.09,0,0,1,0-.62c0-.13.23-.21.3-.27a.62.62,0,0,1,.74.27C117,41.82,117,42.16,116.88,42.26Zm.55-3.1a2.1,2.1,0,0,1-1.48-.23,2.16,2.16,0,0,1-.78-1.26.26.26,0,0,1,.22-.33,1.79,1.79,0,0,1,2.26,1.5A.26.26,0,0,1,117.43,39.16Z"/><path d="M113.32,28.58c-.81-.22-1.82,2.27-1.82,2.27l2.6.84S114.13,28.81,113.32,28.58Z"/></svg>