<svg id="Layer_1" data-name="Layer 1" xmlns="http://www.w3.org/2000/svg" width="128" height="128" viewBox="0 0 128 128"><title>Artboard 74</title><path d="M31.37,14.56V.36h2.36V12.14h5.9v2.42Z"/><path d="M41.53,14.56V.24h8.71V2.67H43.9V5.84h5.89V8.25H43.9v3.89h6.56v2.42Z"/><path d="M52.06,9.89l2.32-.27c.26,1.83,1.11,2.74,2.56,2.74a2.4,2.4,0,0,0,1.69-.56,1.8,1.8,0,0,0,.61-1.39A1.55,1.55,0,0,0,59,9.58,1.61,1.61,0,0,0,58.37,9a18,18,0,0,0-2.13-.74,7,7,0,0,1-2.21-1,3.84,3.84,0,0,1-1.12-1.41A4.28,4.28,0,0,1,52.49,4,4.17,4.17,0,0,1,53,1.89,3.45,3.45,0,0,1,54.5.48,5,5,0,0,1,56.81,0,4.44,4.44,0,0,1,60,1.12a4.44,4.44,0,0,1,1.23,3.22l-2.37.12a2.57,2.57,0,0,0-.67-1.61,2.15,2.15,0,0,0-1.48-.46,2.38,2.38,0,0,0-1.47.4,1.21,1.21,0,0,0-.52,1,1.27,1.27,0,0,0,.47,1,6.75,6.75,0,0,0,2.16.88A8.77,8.77,0,0,1,60,6.73a3.82,3.82,0,0,1,1.22,1.48,5.31,5.31,0,0,1,.42,2.19,4.55,4.55,0,0,1-1.15,3.14,4.64,4.64,0,0,1-3.59,1.26C54,14.8,52.39,13.17,52.06,9.89Z"/><path d="M63.2,9.89l2.32-.27c.26,1.83,1.11,2.74,2.56,2.74a2.37,2.37,0,0,0,1.68-.56,1.81,1.81,0,0,0,.62-1.39,1.55,1.55,0,0,0-.21-.83A1.67,1.67,0,0,0,69.51,9a18,18,0,0,0-2.13-.74,6.89,6.89,0,0,1-2.21-1,3.74,3.74,0,0,1-1.12-1.41A4.28,4.28,0,0,1,63.63,4a4.26,4.26,0,0,1,.53-2.11A3.56,3.56,0,0,1,65.63.48,5.07,5.07,0,0,1,68,0a4.44,4.44,0,0,1,3.23,1.12,4.44,4.44,0,0,1,1.23,3.22L70,4.46a2.57,2.57,0,0,0-.68-1.61,2.11,2.11,0,0,0-1.47-.46,2.38,2.38,0,0,0-1.47.4,1.21,1.21,0,0,0-.52,1,1.24,1.24,0,0,0,.47,1,6.75,6.75,0,0,0,2.16.88,8.77,8.77,0,0,1,2.58,1.08,3.79,3.79,0,0,1,1.21,1.48,5.15,5.15,0,0,1,.42,2.19,4.55,4.55,0,0,1-1.14,3.14A4.65,4.65,0,0,1,68,14.8C65.13,14.8,63.53,13.17,63.2,9.89Z"/><path d="M74.94,14.56V.24h8.72V2.67H77.31V5.84h5.9V8.25h-5.9v3.89h6.56v2.42Z"/><path d="M86.08,14.56V.24h5a6.91,6.91,0,0,1,2.74.39A3,3,0,0,1,95.15,2a4.52,4.52,0,0,1,.53,2.28,4.27,4.27,0,0,1-.8,2.7,3.54,3.54,0,0,1-2.29,1.29,6.29,6.29,0,0,1,1.26,1.2,16.81,16.81,0,0,1,1.35,2.33l1.43,2.79H93.8l-1.71-3.11a20.63,20.63,0,0,0-1.26-2.12,1.84,1.84,0,0,0-.7-.58,3.17,3.17,0,0,0-1.2-.17h-.48v6ZM88.45,6.3H90.2a9,9,0,0,0,2-.14A1.34,1.34,0,0,0,93,5.59a2.15,2.15,0,0,0,.27-1.15A2,2,0,0,0,93,3.34a1.43,1.43,0,0,0-.75-.57,9.72,9.72,0,0,0-1.92-.1H88.45Z"/><path d="M41.29,127.76V113.44h2.36v6.37l4.8-6.37h3.19L47.22,119l4.66,8.74H48.81L45.57,121l-1.92,2.4v4.33Z"/><path d="M53.28,113.44h2.36v7.75a18.81,18.81,0,0,0,.09,2.36,2.36,2.36,0,0,0,.74,1.46,2.29,2.29,0,0,0,1.57.52,2.26,2.26,0,0,0,1.34-.37,1.86,1.86,0,0,0,.71-1,13,13,0,0,0,.19-2.79v-7.92h2.36V121a19.42,19.42,0,0,1-.31,4.16A3.49,3.49,0,0,1,61,127.2a4.7,4.7,0,0,1-2.85.8,5.32,5.32,0,0,1-2.87-.66,3.8,3.8,0,0,1-1.49-1.85,14,14,0,0,1-.46-4.41Z"/><path d="M65.32,113.44h4.32a6.33,6.33,0,0,1,2.48.37A4.12,4.12,0,0,1,73.65,115a6.2,6.2,0,0,1,1.1,2.26,12.45,12.45,0,0,1,.4,3.44,11.43,11.43,0,0,1-.41,3.23,6.37,6.37,0,0,1-1.07,2.17,4.12,4.12,0,0,1-1.55,1.21,5.83,5.83,0,0,1-2.35.41H65.32Zm2.36,2.42v9.47h1.78a4.79,4.79,0,0,0,1.66-.21,2,2,0,0,0,.84-.65,3.84,3.84,0,0,0,.54-1.37,11.69,11.69,0,0,0,.21-2.47,11.12,11.12,0,0,0-.22-2.51,3.22,3.22,0,0,0-.68-1.44,2.16,2.16,0,0,0-1.13-.69,8.87,8.87,0,0,0-1.92-.13Z"/><path d="M77.35,113.44h2.36v7.75a18.81,18.81,0,0,0,.09,2.36,2.32,2.32,0,0,0,.75,1.46,2.61,2.61,0,0,0,2.9.15,1.86,1.86,0,0,0,.71-1,12.36,12.36,0,0,0,.19-2.79v-7.92h2.36V121a19.42,19.42,0,0,1-.31,4.16A3.49,3.49,0,0,1,85,127.2a4.7,4.7,0,0,1-2.85.8,5.32,5.32,0,0,1-2.87-.66,3.8,3.8,0,0,1-1.49-1.85,14,14,0,0,1-.46-4.41Z"/><path d="M50.34,105h3.29l.1-.21s-2.06-1.35-2.08-1.35S50.34,105,50.34,105Z"/><path d="M90.27,105h3.3l.09-.21s-2.06-1.35-2.08-1.35S90.27,105,90.27,105Z"/><path d="M60.34,104.1h3.3l.1-.21s-2.06-1.36-2.09-1.36S60.34,104.1,60.34,104.1Z"/><path d="M85.87,104.1h3.3l.09-.21s-2.06-1.36-2.08-1.36S85.87,104.1,85.87,104.1Z"/><path d="M63,87.27h0v-.05c0-.94,0-1.94,0-2.92l-.08-3c0-2-.15-3.91-.15-5.9a10.59,10.59,0,0,1-.39-2.35,15.89,15.89,0,0,1,0-2.07c-.76.18-1.52.4-2.27.64-.07.38-.14.76-.19,1.14-.12.8-.21,1.62-.28,2.42,0,.42,0,.79-.06,1.22a8.5,8.5,0,0,1-.17,1.26c-.16.85-.38,1.7-.62,2.53a16.16,16.16,0,0,0,2.74,8.23s.45,2.65.63,4l.48,3.89c.15,1.29.27,1.7.38,3a3.41,3.41,0,0,1-.15,1.8,1.9,1.9,0,0,1-.77,1c.18.11,1.67,1,1.87,1.08a6.21,6.21,0,0,1,.2-1.38,5,5,0,0,1,.45-1s.86.2.92-.18c.09-.61-1.24-5.06-1.46-6.29S63.15,88.51,63,87.27Z"/><path d="M90.7,101l.63-.23a.93.93,0,0,0,.61-.81,59.87,59.87,0,0,1,.65-6.78c.25-1.54.53-3.09.76-4.61a37.9,37.9,0,0,1,1-4.28c-.18-.43-.36-.87-.56-1.3a13,13,0,0,0-.89-1.75,31,31,0,0,0-2.44-3.1c-.43-.51-.88-1-1.3-1.53s-.79-1.09-1.18-1.63l-2.36-3.25,0,0v0l-.78-2.22c-.27-.74-.49-1.52-.79-2.19a6,6,0,0,0-.31-.55,12.06,12.06,0,0,1-2.24,2.1c-.19.15-.39.28-.59.41,1.75,2,3.43,4.18,5.14,6.24.91,1,1.86,2.08,2.69,3.24a8.57,8.57,0,0,1,1.07,1.86c.29.64.55,1.3.79,2a10.48,10.48,0,0,1,.53,2.07,8,8,0,0,1,0,2.13l-.44,4.18c-.21,2-.53,5.48-.69,7.27a4.06,4.06,0,0,1-.78,2l-1.38,1.86,1.81,1.1.65-1.69A.79.79,0,0,1,90.7,101Z"/><path d="M96,75.62a15.39,15.39,0,0,1-.94-1.8h0l0-.07s0,0,0,0a6.69,6.69,0,0,1-.46-2.66,5.68,5.68,0,0,1,.18-1.41,5.41,5.41,0,0,1,.68-1.26l1.53-2.34a14.6,14.6,0,0,0,1.38-2.37A32.69,32.69,0,0,0,100,58.45c0-.23.08-.44.11-.66a4.42,4.42,0,0,0,0-.64,10.24,10.24,0,0,0-.08-1.36,8.42,8.42,0,0,0-.63-2.58,3.25,3.25,0,0,0-.31-.52l-.2-.22-.26-.21a12.92,12.92,0,0,0-1.09-.82c-.75-.53-1.53-1-2.32-1.52s-1.59-.92-2.4-1.34c-.41-.2-.83-.38-1.25-.55a6.71,6.71,0,0,0-1.28-.35,27.19,27.19,0,0,0-5.5-.19c-.92,0-1.85.09-2.8.09s-1.84,0-2.77.08c-1.85.12-3.71.26-5.54.51-.92.11-1.83.31-2.77.37a23.92,23.92,0,0,1-2.81.07,30.74,30.74,0,0,1-5.56-.69,18.24,18.24,0,0,0-5.46-.43,18.92,18.92,0,0,0-2.72.36,10.11,10.11,0,0,0-1.3.4c-.44.16-.9.29-1.35.41-.71.17-1.88.36-1.88.36a10.91,10.91,0,0,1,.3,2.89A7.94,7.94,0,0,1,49.28,55l-.06,0a12.9,12.9,0,0,0,.39-3.13c0-.52-.11-1-.14-1.52a11.66,11.66,0,0,0-.19-1.26l-.33,0A5.22,5.22,0,0,1,47.48,49a2.71,2.71,0,0,1-1.33-.72A7.69,7.69,0,0,1,44.52,46a11.58,11.58,0,0,1-.9-2.7,19.16,19.16,0,0,0-.56-2.71,13.08,13.08,0,0,0-1.24-2.34,3.07,3.07,0,0,1,.61-1.46A2.36,2.36,0,0,1,43.91,36a16,16,0,0,0,2.84-.91,3.48,3.48,0,0,0,1.11-.88,8.49,8.49,0,0,0,.94-1.19,10.84,10.84,0,0,0,1.37-2.69,4,4,0,0,0,.16-.73,1.32,1.32,0,0,0,0-.61l0,0h0a1,1,0,0,0-.26.07,3.54,3.54,0,0,0-.65.28c-.44.23-.87.49-1.29.76s-.84.54-1.35.81c-1,.4-2,.64-2.89,1.06a18.49,18.49,0,0,0-2.64,1.59H41.1a4.17,4.17,0,0,1,.54-1.17,5.77,5.77,0,0,1,.68-.94,5.9,5.9,0,0,1,1.06-1,11.23,11.23,0,0,0,1-.75,1.62,1.62,0,0,0,.56-.91,1.49,1.49,0,0,0-.28-1c-.21-.31-.49-.63-.74-1a2.75,2.75,0,0,1-.46-1.32A7,7,0,0,1,44,22.88a6.16,6.16,0,0,1,1.41-2.17A5.57,5.57,0,0,0,47,18.83a2.34,2.34,0,0,0-.24-1.74c0,.2-.06.4-.09.61a1.91,1.91,0,0,1-.27.65,2.24,2.24,0,0,1-.48.49,15.12,15.12,0,0,0-1.77,1.6,6.33,6.33,0,0,0-.68.91,6.78,6.78,0,0,0-.5,1,6.35,6.35,0,0,0-.55,2.22,7.17,7.17,0,0,0,.31,2.28l.17.59.08.29a.74.74,0,0,1-.27.88l-.28.16-.49.31A9,9,0,0,0,39,32.41l-.15.22a4.92,4.92,0,0,1-.82.08,4.48,4.48,0,0,1-.8-.16l-.11-.14a9.26,9.26,0,0,0-3-3.37l-.49-.32a1.82,1.82,0,0,1-.28-.16.75.75,0,0,1-.3-.4.9.9,0,0,1,0-.47l.08-.29.17-.59a6.86,6.86,0,0,0,.31-2.28,6.14,6.14,0,0,0-.55-2.22,6.23,6.23,0,0,0-.49-1,7.71,7.71,0,0,0-.69-.93,20.94,20.94,0,0,0-1.76-1.6,2.21,2.21,0,0,1-.49-.48,1.63,1.63,0,0,1-.26-.64c0-.22-.08-.42-.11-.62a2.39,2.39,0,0,0-.23,1.74,5.39,5.39,0,0,0,1.59,1.88,6,6,0,0,1,1.4,2.17,6.63,6.63,0,0,1,.59,2.57,2.57,2.57,0,0,1-.44,1.32c-.25.38-.54.71-.75,1a1.42,1.42,0,0,0-.27,1,1.58,1.58,0,0,0,.55.91,11.93,11.93,0,0,0,1,.75,6.2,6.2,0,0,1,1,1,7.64,7.64,0,0,1,.71,1,4.25,4.25,0,0,1,.54,1.16l0,0a15.24,15.24,0,0,0-2.76-1.6c-.87-.46-1.79-.7-2.74-1.23S27.82,29.6,27,29.19a2.24,2.24,0,0,0-.59-.18h-.05a.67.67,0,0,0,0,.24,4.08,4.08,0,0,0,.26,1.36,12.33,12.33,0,0,0,1.38,2.61,9.35,9.35,0,0,0,.93,1.15,3.33,3.33,0,0,0,1.11.8,15.31,15.31,0,0,0,2.79.86,2.41,2.41,0,0,1,1.43.69,2.69,2.69,0,0,1,.66,1.38s0,.46,0,.69,0,.57,0,.85v.42c0,.13,0,.26,0,.4a7.62,7.62,0,0,0,.2.79,5.82,5.82,0,0,0,.61,1.46,4.07,4.07,0,0,0,.51.59,2,2,0,0,0,.28.25.58.58,0,0,0,.25.12c.11,0,.56,0,.72,0a.47.47,0,0,0,.26-.08.72.72,0,0,0,.24-.23,8,8,0,0,1,1.37-1.12,8.28,8.28,0,0,0,1.31-1,3.15,3.15,0,0,0,.8-1.43A2.9,2.9,0,0,1,41,41.46a6.32,6.32,0,0,1-1.25,1.23,8.47,8.47,0,0,0-1.18,1.13,1.91,1.91,0,0,1-.38.35,1.13,1.13,0,0,1-.54.19,2.56,2.56,0,0,1-.46,0h-.22l-.28,0a1.48,1.48,0,0,1-.52-.25,3,3,0,0,1-.24-.22,19.61,19.61,0,0,0,.28,2.4c.08.37.15.76.21,1.14.26.15,2.23,1,5-1.14-1,4.52-4.14,3.58-4.53,3.22.17.67.34,1.33.53,2A18.11,18.11,0,0,0,38.22,54l0,0v0a8,8,0,0,0,1.53,3.38A12.46,12.46,0,0,0,41,58.88a6,6,0,0,0,.43.44h0c.26-.07,2.39.27,5.17-3.31-.22,4.59-2.54,5-2.82,5.19l1.6,1.23c1,.78,2,1.53,3,2.42l.1.08v.15A6,6,0,0,0,49.05,67a9,9,0,0,0,1.11,1.74A6.93,6.93,0,0,0,51.79,70c.55.34,1.39.82,2,1.18a7.85,7.85,0,0,0-1.6-2.38,7.13,7.13,0,0,0-.55-.55,2.89,2.89,0,0,0-.56-.44,2.23,2.23,0,0,1-.74-.64,4.73,4.73,0,0,1-.49-.71,11.84,11.84,0,0,1-.78-1.5,5.17,5.17,0,0,1-.49-1.65A7.58,7.58,0,0,1,49,60l.07,0a7.45,7.45,0,0,0-.13,3.25,4.91,4.91,0,0,0,.56,1.49,12.22,12.22,0,0,0,.84,1.39,3,3,0,0,0,1,1,4.08,4.08,0,0,1,1.37,1.17,9.15,9.15,0,0,1,.91,1.46,8.48,8.48,0,0,1,.54,4.15c0,1,0,2,.06,2.93,0,2-.27,3.91-.27,5.85v.07a9.67,9.67,0,0,0-.22,2.29,10.54,10.54,0,0,0,.09,1.13,6.54,6.54,0,0,0,.36,1.07,65,65,0,0,1-.89,13.25A5.07,5.07,0,0,1,52,102.91l1.86,1.29c.69-3,2.42-3.42,2.42-3.75,0-.17-.27-.38-.52-.56a.93.93,0,0,1-.41-.82c0-.71.09-1.93.14-2.64l.2-3.12.21-3.11c.09-1,.13-2.08.26-3.13v0a37.15,37.15,0,0,0,1.28-4.72c.08-.4.25-.82.36-1.18s.23-.78.33-1.18c.22-.78.41-1.58.58-2.36a10.48,10.48,0,0,0,.17-1.18c0-.39,0-.83.08-1.24.09-.82.19-1.64.33-2.46a12.29,12.29,0,0,1,.23-1.21,3.94,3.94,0,0,1,.51-1.21,12.71,12.71,0,0,0,1.17-2,5.16,5.16,0,0,1-.59-2.2,8.82,8.82,0,0,1,.19-2.35l.07,0a8.94,8.94,0,0,0,0,2.31,5.37,5.37,0,0,0,.71,2.13l0,.08,0,.08a11.86,11.86,0,0,1-1.15,2.21,3.8,3.8,0,0,0-.36.93,12.85,12.85,0,0,1,2.51-1.06,8,8,0,0,1,3.26-.4c1.06.09,2.16.14,3.23.32.53.08,1.06.2,1.58.33a10.37,10.37,0,0,0,1.57.2,24.05,24.05,0,0,0,3.18-.06A7.66,7.66,0,0,0,77,70.52a4,4,0,0,0,.68-.26l.71-.36a28.74,28.74,0,0,0,5.27-3.27,6.22,6.22,0,0,0-1-1.15,8,8,0,0,0-2-1.2l0-.07a7.85,7.85,0,0,1,1.68.8,4.67,4.67,0,0,1-.73-1.42,6.63,6.63,0,0,1-.17-2.38,14,14,0,0,1,1.1-4.55l.07,0a16.07,16.07,0,0,0-.47,2.25A13.43,13.43,0,0,0,82,61.22a15.75,15.75,0,0,0,.3,2.2,11.91,11.91,0,0,0,.59,2,5.21,5.21,0,0,1,1.44,1.69c.36.74.59,1.46.89,2.19L86,71.45l2.37,3.17c.4.52.8,1.08,1.21,1.59l1.27,1.53A25.17,25.17,0,0,1,93.32,81a8,8,0,0,1,.46.93l.39.92c.25.62.5,1.26.69,1.9a8,8,0,0,1,.37,2,16.55,16.55,0,0,1-.13,2l-.42,4-.81,8v0l0,0-1.78,2.2,1.79,1.17.47-1.1a1.08,1.08,0,0,1,.62-.6l.69-.26a.66.66,0,0,0,.42-.61c0-.69,0-2,0-2a14.49,14.49,0,0,1,.12-1.49c.21-1.94.53-3.84.82-5.76.14-1,.27-1.89.39-2.88s.36-1.93.56-2.87L99.19,81c-.7-1.18-1.44-2.36-2.16-3.54ZM36.25,37.47a1.14,1.14,0,0,1-.81.06,1.11,1.11,0,0,1-.53-.62.2.2,0,0,1,.09-.22,1.18,1.18,0,0,1,.82,0,1.09,1.09,0,0,1,.52.62A.16.16,0,0,1,36.25,37.47Zm4.34.06a1.14,1.14,0,0,1-.81-.06.15.15,0,0,1-.08-.21,1.06,1.06,0,0,1,.52-.62,1.15,1.15,0,0,1,.81,0,.18.18,0,0,1,.09.22A1.08,1.08,0,0,1,40.59,37.53Z"/><path d="M101.42,57.55a21.9,21.9,0,0,0-.69-2.22c0,.13,0,.25,0,.39a13.37,13.37,0,0,1,.08,1.42,3.9,3.9,0,0,1,0,.75c0,.24-.09.48-.14.71a33.27,33.27,0,0,1-1.88,5.32,15.29,15.29,0,0,1-1.5,2.39L96,68.13l.33,1.57a12.4,12.4,0,0,1,1.84-3.35c.48-.69,1-1.35,1.47-2A14.21,14.21,0,0,0,101,62.26a5.91,5.91,0,0,0,.69-2.34A6.56,6.56,0,0,0,101.42,57.55Z"/></svg>