<svg id="Layer_1" data-name="Layer 1" xmlns="http://www.w3.org/2000/svg" width="128" height="128" viewBox="0 0 128 128"><title>Artboard 75</title><path d="M118.43,78.54A7.2,7.2,0,0,0,116,81.2c-.56.34-.76,1-4.68.75s-7.24-5.12-8.7-8.07c-1.2-2.43-3.14-11.73-4.2-17.13A13.88,13.88,0,0,0,98,54.21a.54.54,0,0,1,0-.1,19,19,0,0,0-2.16-4.7,24.8,24.8,0,0,0-4.12-4.95c-5.4-5-16.23-5-19.32-2.9S58,42.14,54.94,43.1c-1.16-1.73-5.41-4.24-10.43-5.79-.55-1.81-3-3.4-4.7-4.7.4.51.78,1,1.14,1.58a13.45,13.45,0,0,1,1.94,5,17.73,17.73,0,0,1,.1,5.29c-.44,3.5-.82,6.91-2.46,9.86-.83,1.48-1.75,2.89-2.7,4.28a25.82,25.82,0,0,0-2.53,4.26l-.21,0c.39-2.91.88-5.75,1-8.6.06-1.17,0-2.35,0-3.5-1.38,3.25-4.5,5.14-6.46,7.68-1,1.29-1.27,3.24-1.66,4.65a6.16,6.16,0,0,0,.77,4.52l-.16.14a6.72,6.72,0,0,1-1.75-2.08,5.29,5.29,0,0,1-.58-2.84,9.82,9.82,0,0,1,2.24-5.11c2.22-2.8,4.85-4.89,6.87-7.55a7.71,7.71,0,0,0,1-2.11c.07-.38.15-.77.24-1.15a6.65,6.65,0,0,0,0-1.41,21.12,21.12,0,0,0-1.17-4.76,31.22,31.22,0,0,0-2.12-4.44,13.13,13.13,0,0,1-1.48-5.06l.2-.06c.82,1.54,1,3,2,4.36a28.93,28.93,0,0,1,2.57,4.66c2.7,6.18,1.39,12.8,1.12,14.26s-.63,2.89-1.05,4.31c-.16.5-.35,1-.52,1.5.36-.66.74-1.3,1.08-2,.81-1.46,1.59-2.93,2.29-4.43a25.81,25.81,0,0,0,2.68-9.33,16.48,16.48,0,0,0-2.19-9,34.76,34.76,0,0,0-6-7.66l.13-.18c.63.33,1.26.67,1.87,1.05-.09-.12-.16-.24-.24-.36-1.93-3.18-10-5.69-13.52-5.69-2.64,0-6.61,2.67-9,3.88a9.71,9.71,0,0,1,.71,3A5.33,5.33,0,0,0,11.87,27a1.45,1.45,0,0,1-.4,0c-1.55-.19-3.28-.19-3.28,1.16s1.26,3.71,2.21,5.6a2.2,2.2,0,0,0-.56,1,2,2,0,0,0,0,1.19s0,.05,0,.05c-.2-.11-.39-.28-.58-.38a.79.79,0,0,0-.28-.1,3.39,3.39,0,0,0-1.09.38l.85.69.64.52L8.24,38,5.47,40a1.09,1.09,0,0,0,0,1.77l1.86,1.54a7.09,7.09,0,0,0,.6.38A1.69,1.69,0,0,0,8,43.25a1.22,1.22,0,0,1,.28-1,2.49,2.49,0,0,1,.51-.45c.31-.21-.36-1.48-.83-1.41l-.45.09A1.8,1.8,0,0,1,6,40.1c.71-.53,1.42-1,2.12-1.54,1.36-1,2.7-2,4-3a4.53,4.53,0,0,0,.92-1,2.67,2.67,0,0,1,1.13-1.17c-.25.74-.48,1.46-.74,2.16-.05.13-.24.22-.36.33s-.59.45-.67.74-1.16,1.26-1.77,2.29a1.7,1.7,0,0,0-.41,1.24l.28-.07a2.64,2.64,0,0,1,.93-.1c1.59.14,1,2.83,3.55,4.48.84.55,1.12,2,.2,2.58-.58-.75-1.3-1.85-2.24-1.94-.78-.07-1.62.54-2.35.27a13.5,13.5,0,0,1-1.7-.77L8,44.13a2.71,2.71,0,0,1-.36.57A1.72,1.72,0,0,1,6,44.58c-.16-.23,0-.5-.08-.77s-.14-.44-.21-.65l-.21,0c.06.57-.13,1.12,0,1.68.23,1.11.68,1.56,1.8,1.48a6.63,6.63,0,0,1,2.32.27,8.68,8.68,0,0,1,1.67.72c.17.09.37.15.55.24a1.31,1.31,0,0,0,1.61-.27c.18-.17.37-.32.56-.47a.57.57,0,0,1,.13.08,3.22,3.22,0,0,1-.17.68,2.52,2.52,0,0,1-3.65,1.08l-.05,0c-.71-.38-1.37-.87-2.27-.52-.33.13-.42-.13-.34-.42s.22-.7.32-1.05l-.21-.08A9.38,9.38,0,0,0,7,48.26c-.06.3.23.69.42,1,.58.92,1,1.84.27,2.87,0,0,0,.11,0,.2a5.83,5.83,0,0,0,3.41-1.49l.14.33c-.25.47-.49,1-.76,1.51a2.89,2.89,0,0,0,1.27-.35,28.39,28.39,0,0,0,2.36,4.2l0,0a7.37,7.37,0,0,0,2,2.22,5.28,5.28,0,0,0,2.5,1.31l0,.09a6.28,6.28,0,0,1,.4-2.69,10.56,10.56,0,0,1,3.24-4.17,31.46,31.46,0,0,0,3.58-3.43,12.39,12.39,0,0,0,1.36-2A9.1,9.1,0,0,0,28,45.8c2-3.39-.37-8.79-.6-9.32A22.56,22.56,0,0,1,29.55,41a8,8,0,0,1,.14,5.34,7.8,7.8,0,0,1-1.5,2.27c-.61.64-1.22,1.19-1.82,1.78a28,28,0,0,0-3.22,3.75c-.92,1.34-2.6,3-3,4.33a5.63,5.63,0,0,0,.57,4C22,65.11,25,67.18,27.39,69.51l-.11.18a15.77,15.77,0,0,1-4.42-2.54,13.14,13.14,0,0,1-3-3.34c3.59,10,6.59,12.57,8.56,13.31a8.1,8.1,0,0,1,1.33-5.85c-.07.32-1,4.09-.09,6.15a99.74,99.74,0,0,0,4.22,12.34s.79,2.46,2.18,7.43c-6.94.71-6.62,3.39-6.62,3.39l10.81-.49,1-7.32c.23.86.83,3.24,1.74,7.14-7,.38-6.77,3.09-6.77,3.09H47l1-5.7a6,6,0,0,0-.45-3.51L47,92.57s.95-10.22.57-14.48c0,0,3.7-3.65,3.47-13.59,1.23,6.36,1.57,10,1.57,10l-2.2,3.89c4.08.31,10.2.19,14-1.32a65.25,65.25,0,0,0,10.1-4.49,30.65,30.65,0,0,1,.39-9.81C74.55,75,80.32,77.32,80.32,77.32a11.84,11.84,0,0,1-1.51.59L80.21,80a9.54,9.54,0,0,1,1.24,8.17c-.53,1.75-1.11,3.78-1.51,5.57C74.08,94,74,97,74,97h11.2c0-1.7,1.87-8.08,2.6-10.57l.61.9S86.44,93,85.46,97.2c-5.86.23-6,3.29-6,3.29h11.2c0-2.12,2.9-11.6,2.9-11.6L95.13,87a18.7,18.7,0,0,1-2.7-4.64c-.59-1.94,1.15-17.39,1.34-18.35.1-.49-.26-2.53.6-3.72A35.13,35.13,0,0,0,92.88,56a14.89,14.89,0,0,1,2.58,4.9A8.43,8.43,0,0,1,97,63.71c1.12,3.41,2.6,7.73,3.87,10.74,2.4,5.67,8,8.68,10.6,8.68a13.12,13.12,0,0,0,5.16-.87,11.31,11.31,0,0,0,3.14-.27s1.93-.9,3.19-4.17C121.74,77.93,119.93,77.41,118.43,78.54ZM16.37,38a2.24,2.24,0,0,1-1.71,0,.41.41,0,0,1-.25-.46,2.23,2.23,0,0,1,.91-1.45,2.24,2.24,0,0,1,1.71,0,.4.4,0,0,1,.26.46A2.27,2.27,0,0,1,16.37,38Zm6.16,3.51a5.62,5.62,0,0,1-3.75,3.77,8,8,0,0,0,2.76-8.77C22.53,37.37,23,39.85,22.53,41.48Zm4-7.83c-1,1-3,2.46-4.1,1.18.19,0,.31-.42.39-.85a.87.87,0,0,0-1-1,5.05,5.05,0,0,0-1.1.22,4.67,4.67,0,0,1,.4-1.72A6.45,6.45,0,0,1,25,28.66c1.57-.45,3.31-.06,3.42,1.56C28.43,31,27.93,32.26,26.54,33.65Zm13.24,56s0-.4,0-1.08c.5,1.49.91,2.69,1.14,3.32Z"/><path d="M43.26,127.73V111.9h2.63V125h6.58v2.7Z"/><path d="M54.5,127.73v-16h2.63v16Z"/><path d="M59.34,119.85a11.38,11.38,0,0,1,.85-4.7,6.36,6.36,0,0,1,2.2-2.75,5.86,5.86,0,0,1,3.3-.9,5.66,5.66,0,0,1,4.58,2.14A9.37,9.37,0,0,1,72,119.75,9.51,9.51,0,0,1,70.16,126a5.46,5.46,0,0,1-4.46,2,5.53,5.53,0,0,1-4.48-2A9.37,9.37,0,0,1,59.34,119.85Zm2.73-.11a6.78,6.78,0,0,0,1,4.13,3.15,3.15,0,0,0,2.6,1.38,3.12,3.12,0,0,0,2.58-1.37,7,7,0,0,0,1-4.2,6.88,6.88,0,0,0-1-4.1,3.24,3.24,0,0,0-5.24,0A6.86,6.86,0,0,0,62.07,119.74Z"/><path d="M74.36,127.73v-16h2.57l5.35,10.66V111.77h2.46v16H82.09l-5.27-10.41v10.41Z"/></svg>