<svg id="Layer_1" data-name="Layer 1" xmlns="http://www.w3.org/2000/svg" width="128" height="128" viewBox="0 0 128 128"><title>Artboard 76</title><path d="M45.23,16.23V.4h2.63V13.53h6.57v2.7Z"/><path d="M56,8.35a11.39,11.39,0,0,1,.84-4.7A6.43,6.43,0,0,1,59.05.9a5.86,5.86,0,0,1,3.3-.9,5.66,5.66,0,0,1,4.58,2.14A9.37,9.37,0,0,1,68.7,8.25a9.51,9.51,0,0,1-1.88,6.26,5.46,5.46,0,0,1-4.46,2,5.53,5.53,0,0,1-4.48-2A9.36,9.36,0,0,1,56,8.35Zm2.72-.11a6.85,6.85,0,0,0,1,4.13,3.16,3.16,0,0,0,2.6,1.38A3.11,3.11,0,0,0,65,12.38a7,7,0,0,0,1-4.2,6.87,6.87,0,0,0-1-4.1,3.24,3.24,0,0,0-5.24,0A6.86,6.86,0,0,0,58.73,8.24Z"/><path d="M77.08,10.37V7.67h5.69V14a6.91,6.91,0,0,1-2.43,1.74,7.47,7.47,0,0,1-3.17.73,6.24,6.24,0,0,1-3.42-.95,6.5,6.5,0,0,1-2.34-2.85,10.67,10.67,0,0,1-.87-4.47,10.49,10.49,0,0,1,.88-4.51A6.55,6.55,0,0,1,73.69.93,5.91,5.91,0,0,1,77,0a5.64,5.64,0,0,1,3.75,1.19,5.69,5.69,0,0,1,1.81,3.5L80,5.29a3.4,3.4,0,0,0-1.08-1.88A2.81,2.81,0,0,0,77,2.75a3.3,3.3,0,0,0-2.73,1.32,6.3,6.3,0,0,0-1,4,7.23,7.23,0,0,0,1.13,4.39A3.1,3.1,0,0,0,77,13.75a3.87,3.87,0,0,0,1.6-.37,5,5,0,0,0,1.49-1v-2Z"/><path d="M18.12,111.77h5.24a8.17,8.17,0,0,1,3,.39,3.42,3.42,0,0,1,1.47,1.39,4.49,4.49,0,0,1,.09,4.32,3.43,3.43,0,0,1-1.34,1.38,3.53,3.53,0,0,1,1.82,1.41,4.34,4.34,0,0,1,.66,2.44,5.05,5.05,0,0,1-.84,3,3.39,3.39,0,0,1-2,1.48,20.42,20.42,0,0,1-3.69.2H18.12Zm2.64,2.66v3.69H22.5a17.34,17.34,0,0,0,1.93-.06,1.63,1.63,0,0,0,1.06-.57,2,2,0,0,0,.38-1.26,1.9,1.9,0,0,0-.31-1.14,1.28,1.28,0,0,0-.75-.55,15,15,0,0,0-2.53-.11Zm0,6.34V125h2.45a7.69,7.69,0,0,0,2.07-.17,1.52,1.52,0,0,0,.77-.66,2.31,2.31,0,0,0,.31-1.26,2.27,2.27,0,0,0-.33-1.28,1.72,1.72,0,0,0-.88-.7,8.77,8.77,0,0,0-2.26-.19Z"/><path d="M31.55,127.73v-16h9.71v2.7H34.18V118h6.58v2.69H34.18V125H41.5v2.7Z"/><path d="M44,127.73v-16h9.71v2.7H46.59V118h6.58v2.69H46.59V125h7.32v2.7Z"/><path d="M56.37,127.73v-16H59v6.28H64.2v-6.28h2.63v16H64.2v-7H59v7Z"/><path d="M69.7,127.73v-16h2.63v16Z"/><path d="M78.44,127.73l-4.69-16h2.87l3.31,11.81,3.21-11.81h2.8l-4.69,16Z"/><path d="M87.51,127.73v-16h9.7v2.7H90.14V118h6.57v2.69H90.14V125h7.31v2.7Z"/><path d="M99.24,122.53l2.58-.31c.29,2,1.24,3.06,2.86,3.06a2.69,2.69,0,0,0,1.88-.63,2,2,0,0,0,.68-1.55,1.68,1.68,0,0,0-.24-.92,1.73,1.73,0,0,0-.72-.63,22.73,22.73,0,0,0-2.38-.82,8,8,0,0,1-2.47-1.11,4.06,4.06,0,0,1-1.24-1.57,4.78,4.78,0,0,1-.47-2.09,4.64,4.64,0,0,1,.6-2.35A3.88,3.88,0,0,1,102,112a5.73,5.73,0,0,1,2.58-.53,4.53,4.53,0,0,1,5,4.83l-2.65.14a2.79,2.79,0,0,0-.75-1.79,2.39,2.39,0,0,0-1.64-.51,2.6,2.6,0,0,0-1.64.44,1.38,1.38,0,0,0-.06,2.2,7.2,7.2,0,0,0,2.41,1,10,10,0,0,1,2.88,1.22,4.08,4.08,0,0,1,1.35,1.64,5.77,5.77,0,0,1,.47,2.44,5.05,5.05,0,0,1-1.28,3.5,5.15,5.15,0,0,1-4,1.41C101.39,128,99.61,126.18,99.24,122.53Z"/><path d="M34.31,55.66,20.44,75.25c-.8-.59-1.63-1.16-2.44-1.74,1.31-1.4,2.6-2.8,3.84-4.25l3.89-4.57,3.9-4.56c1.27-1.49,2.54-3,3.84-4.45Z"/><path d="M24.46,74.84c-.13-.1-1.84-.66-2.22-.78l12.15-18.4.73,0c-1,1.58-2,3.17-2.95,4.77S24.46,74.84,24.46,74.84Z"/><path d="M29.23,75.7l-4-.45s9.13-17.94,10-19.61h.34c-.44.79-.81,1.62-1.2,2.44Z"/><path d="M36.64,55.6c-.45,1.69-2.07,19.66-2.07,19.66l-4.17,0,5.52-19.69.7,0Z"/><path d="M36.62,55.53l-3.42-.08,0-1.54a1.54,1.54,0,0,1,.12-.73,5.75,5.75,0,0,1,.47-.64l.51-.65a1.41,1.41,0,0,1,.25-.28,1.12,1.12,0,0,1,.29-.19,1.59,1.59,0,0,1,.33-.09h.38l.83,0,.82,0a1.41,1.41,0,0,1,.69.11,1.14,1.14,0,0,1,.48.45l.47.68c.14.22.36.47.43.63a1.34,1.34,0,0,1,.1.67c0,.47,0,.94.05,1.41l-1.28.08C37.66,55.43,37.14,55.48,36.62,55.53Z"/><path d="M36.33,73.41l0-2.22V66.75c0-1.48,0-3-.05-4.44s0-2.66-.08-4c.16-.85.31-1.7.46-2.55l3.07,19.47-3.44,0V73.41Z"/><path d="M40.33,75.05,36.72,55.61l.12,0c.32,1.66.63,3.27,1,4.9s.9,3.26,1.41,4.88L42.24,75Z"/><path d="M43.79,74.84,36.91,55.62l.41,0c.66,1.62,1.36,3.23,2.06,4.84s1.76,3.2,2.48,4.83c1.41,3.13,3.46,6.26,5,9.35Z"/><path d="M49.18,74.33l-2.45-3.89-2.6-4c-.86-1.35-1.75-2.68-2.62-4s-1.77-2.66-2.67-4h0c-.46-.91-.93-1.82-1.4-2.72l.48,0L51.27,74.14Z"/><path d="M38.39,93.37l1,.14c0,.87,0,1.26,0,2.14-.33-.09-.65-.16-1-.23A20.21,20.21,0,0,1,38.39,93.37Z"/><path d="M44.93,93v2.51c-.37,0-4.24,0-5.09.14-.07-1-.06-1.12-.15-2.11Z"/><path d="M43.07,86.39a2.86,2.86,0,0,0-1.5-.75c.32.15,1.13,1,1.13,2.91s-.8,2.73-1.2,2.87a2.65,2.65,0,0,0,1.66-.62A3.5,3.5,0,0,0,44,88.43,2.71,2.71,0,0,0,43.07,86.39Zm0,0a2.86,2.86,0,0,0-1.5-.75c.32.15,1.13,1,1.13,2.91s-.8,2.73-1.2,2.87a2.65,2.65,0,0,0,1.66-.62A3.5,3.5,0,0,0,44,88.43,2.71,2.71,0,0,0,43.07,86.39Zm0,0a2.86,2.86,0,0,0-1.5-.75c.32.15,1.13,1,1.13,2.91s-.8,2.73-1.2,2.87a2.65,2.65,0,0,0,1.66-.62A3.5,3.5,0,0,0,44,88.43,2.71,2.71,0,0,0,43.07,86.39Zm0,0a2.86,2.86,0,0,0-1.5-.75c.32.15,1.13,1,1.13,2.91s-.8,2.73-1.2,2.87a2.65,2.65,0,0,0,1.66-.62A3.5,3.5,0,0,0,44,88.43,2.71,2.71,0,0,0,43.07,86.39Zm7.26,15.71a28.14,28.14,0,0,1-1.6-3.85,31.57,31.57,0,0,1-1.5-8.17c-.11-2.76-.09-5.49-.07-8.24s.06-4,.22-6.71l-1,.37-3.88.27A18.75,18.75,0,0,1,42.62,78s.08,2.4.12,2.92A3.38,3.38,0,0,1,42,79.59a6.1,6.1,0,0,1-.24-1.53A14.59,14.59,0,0,1,42,75.88c-1,.06-2.79.25-5.18.22,0,.88-.11,1.71-.07,2.58a25.16,25.16,0,0,1-.06,3,29.67,29.67,0,0,1-.42,3,22.18,22.18,0,0,1-.75,2.91l.38-3c.1-1,.21-2,.29-3s.13-2,.17-3,0-1.72,0-2.58a17.76,17.76,0,0,0-2.64.07,11.5,11.5,0,0,1-.23,2.27c-.12.76-.26,1.51-.44,2.25a14.91,14.91,0,0,1-.75,2.16l-.08,0a22.9,22.9,0,0,0,.59-4.43c0-.75.09-1.94.09-1.94h-.75l-3.33,0-1.6,0c.13,1.28,0,2.56,0,3.84a32.76,32.76,0,0,1-.26,4.3,31.08,31.08,0,0,1-.24-4.3c0-1.28.08-3.84.08-3.84l-.21,0L24.92,76c.2,4.86.33,9.73.34,14.6,0,2.51,0,5-.16,7.53-.06,1.24-.16,2.5-.29,3.75-.08.63-1.53,2.61-1.65,3.23a9.28,9.28,0,0,1-.36,1.35c.57-.16,2.52-1.66,3.1-1.79a6.07,6.07,0,0,0,1.38-2,14.69,14.69,0,0,0,.93-2.76,47.12,47.12,0,0,0,1.06-5.83c.22-2,.35-4,.44-6s.12-4,.31-6l.08,0c-.06,2,0,4,0,6s0,4-.18,6a27.31,27.31,0,0,1-.91,6,12.64,12.64,0,0,1-1.23,2.83,6.07,6.07,0,0,1-1.39,1.56,10.08,10.08,0,0,1,1.56-.2,7.77,7.77,0,0,1,2.25.24,18.34,18.34,0,0,1,2,.71,46.06,46.06,0,0,0,.82-6.43c.08-.76.12-1.51.15-2.28h.09a35.12,35.12,0,0,1-.31,9,9.42,9.42,0,0,0,3.49.55,7.78,7.78,0,0,0,3.78-.81,1.91,1.91,0,0,1-.06-.33,11.89,11.89,0,0,1,0-4.45c.21,1.47.66,4.53.68,4.62.56,0,1.1.18,1.6.24a11.42,11.42,0,0,1,.13-2.86c.09,1,.19,2,.32,2.9a1.8,1.8,0,0,0,.74-.11l.28-.14.37-.21a4.49,4.49,0,0,1,.78-.34,10.83,10.83,0,0,1,2.11-.36A48.15,48.15,0,0,1,46.1,98.5c.13.53.28,1,.45,1.57s1.06,4.25,1.12,4.26a11.38,11.38,0,0,1,2.38.38c.5.14,1,.28,1.48.37a4.68,4.68,0,0,0,.71.08A19.52,19.52,0,0,1,50.33,102.1Zm-11-15.85a3.05,3.05,0,0,1,1-.77,2.81,2.81,0,0,1,1.25-.27,2.74,2.74,0,0,1,2.14,1.14,3.73,3.73,0,0,1,.73,2.25,3.51,3.51,0,0,1-.72,2.19,2.82,2.82,0,0,1-2.15,1,2.89,2.89,0,0,1-2.18-1,3.46,3.46,0,0,1-.89-2.24A3.53,3.53,0,0,1,39.33,86.25Zm4.51,9.94c-.47,0-.94,0-1.41,0-.85,0-1.71-.07-2.56-.16l0,.25-.34,0c-.51-.07-1-.12-1.56-.21l-.27,0V95.7a15.52,15.52,0,0,1,.24-3l1.58.07h.1v.08l5.71-.51.22,3.73S44.31,96.19,43.84,96.19ZM41.5,91.42a2.65,2.65,0,0,0,1.66-.62A3.5,3.5,0,0,0,44,88.43a2.71,2.71,0,0,0-1-2,2.86,2.86,0,0,0-1.5-.75c.32.15,1.13,1,1.13,2.91S41.9,91.28,41.5,91.42Zm1.57-5a2.86,2.86,0,0,0-1.5-.75c.32.15,1.13,1,1.13,2.91s-.8,2.73-1.2,2.87a2.65,2.65,0,0,0,1.66-.62A3.5,3.5,0,0,0,44,88.43,2.71,2.71,0,0,0,43.07,86.39Zm0,0a2.86,2.86,0,0,0-1.5-.75c.32.15,1.13,1,1.13,2.91s-.8,2.73-1.2,2.87a2.65,2.65,0,0,0,1.66-.62A3.5,3.5,0,0,0,44,88.43,2.71,2.71,0,0,0,43.07,86.39Zm0,0a2.86,2.86,0,0,0-1.5-.75c.32.15,1.13,1,1.13,2.91s-.8,2.73-1.2,2.87a2.65,2.65,0,0,0,1.66-.62A3.5,3.5,0,0,0,44,88.43,2.71,2.71,0,0,0,43.07,86.39Zm0,0a2.86,2.86,0,0,0-1.5-.75c.32.15,1.13,1,1.13,2.91s-.8,2.73-1.2,2.87a2.65,2.65,0,0,0,1.66-.62A3.5,3.5,0,0,0,44,88.43,2.71,2.71,0,0,0,43.07,86.39Z"/><path d="M55.33,72.48,53,73.85,39.15,57.25,38,55.72l.2,0,1.31.08.06.06.24.28.48.55,1,1.11,2,2.18c1.33,1.45,2.69,2.87,4,4.3S50,67.14,51.4,68.53Z"/><path d="M60.27,24.22l-8.7,12.3L50,35.43c.82-.88,1.64-1.76,2.42-2.67l2.44-2.87L57.33,27c.8-.94,1.6-1.89,2.41-2.8Z"/><path d="M54.09,36.26c-.08-.06-1.15-.41-1.4-.48l7.63-11.56h.46c-.63,1-1.25,2-1.85,3S54.09,36.26,54.09,36.26Z"/><path d="M57.08,36.8l-2.52-.28s5.73-11.26,6.27-12.31h.22c-.28.5-.51,1-.76,1.54Z"/><path d="M61.73,24.19c-.28,1-1.3,12.34-1.3,12.34l-2.61,0,3.46-12.37h.45Z"/><path d="M61.72,24.14l-2.14-.05,0-1a.86.86,0,0,1,.08-.46,3.93,3.93,0,0,1,.29-.4l.32-.41a.88.88,0,0,1,.16-.17.57.57,0,0,1,.18-.12.65.65,0,0,1,.21-.06h.75l.52,0a.83.83,0,0,1,.44.07.72.72,0,0,1,.3.28l.29.43a3.1,3.1,0,0,1,.27.39.87.87,0,0,1,.06.42c0,.3,0,.59,0,.89l-.81,0Z"/><path d="M61.54,35.36l0-1.39V31.18c0-.93,0-1.85,0-2.78s0-1.67-.05-2.51c.1-.53.2-1.06.29-1.6l1.93,12.23-2.16,0V35.36Z"/><path d="M64.05,36.4,61.78,24.19h.08c.2,1,.4,2.06.66,3.08s.56,2,.88,3.06l1.85,6Z"/><path d="M66.22,36.26,61.9,24.2l.26,0c.42,1,.85,2,1.29,3s1.11,2,1.56,3c.88,2,2.18,3.93,3.11,5.87Z"/><path d="M69.61,35.94,68.07,33.5,66.44,31c-.54-.85-1.1-1.69-1.65-2.53s-1.11-1.68-1.68-2.51h0c-.29-.57-.58-1.15-.88-1.71l.3,0,8.4,11.57Z"/><path d="M62.83,47.9l.63.08c0,.55,0,.8,0,1.35l-.6-.15C62.8,48.68,62.82,48.55,62.83,47.9Z"/><path d="M66.94,47.66v1.58c-.23,0-2.66,0-3.19.09,0-.62,0-.71-.1-1.32Z"/><path d="M65.77,43.51a1.87,1.87,0,0,0-.94-.47,2.06,2.06,0,0,1,.71,1.83c0,1.2-.5,1.71-.75,1.8a1.69,1.69,0,0,0,1-.39,2.2,2.2,0,0,0,.54-1.48A1.7,1.7,0,0,0,65.77,43.51Zm0,0a1.87,1.87,0,0,0-.94-.47,2.06,2.06,0,0,1,.71,1.83c0,1.2-.5,1.71-.75,1.8a1.69,1.69,0,0,0,1-.39,2.2,2.2,0,0,0,.54-1.48A1.7,1.7,0,0,0,65.77,43.51Zm0,0a1.87,1.87,0,0,0-.94-.47,2.06,2.06,0,0,1,.71,1.83c0,1.2-.5,1.71-.75,1.8a1.69,1.69,0,0,0,1-.39,2.2,2.2,0,0,0,.54-1.48A1.7,1.7,0,0,0,65.77,43.51Zm0,0a1.87,1.87,0,0,0-.94-.47,2.06,2.06,0,0,1,.71,1.83c0,1.2-.5,1.71-.75,1.8a1.69,1.69,0,0,0,1-.39,2.2,2.2,0,0,0,.54-1.48A1.7,1.7,0,0,0,65.77,43.51Zm4.56,9.87a17.6,17.6,0,0,1-1-2.42,19.94,19.94,0,0,1-1-5.13c-.07-1.73,0-3.44,0-5.17s0-2.52.14-4.22l-.65.24-2.44.17a12.4,12.4,0,0,1,.1,1.42s.05,1.5.07,1.83a2.2,2.2,0,0,1-.47-.86,3.85,3.85,0,0,1-.15-1,10.31,10.31,0,0,1,.17-1.36c-.65,0-1.75.15-3.25.13,0,.55-.07,1.08,0,1.62a14.87,14.87,0,0,1,0,1.89c-.06.63-.14,1.26-.26,1.88a14.3,14.3,0,0,1-.47,1.82l.23-1.86c.07-.62.14-1.24.18-1.86s.09-1.24.11-1.86,0-1.08,0-1.63a11.27,11.27,0,0,0-1.66.05,6.93,6.93,0,0,1-.14,1.43c-.08.47-.16.94-.28,1.4A8.73,8.73,0,0,1,59,41.29l0,0a14.51,14.51,0,0,0,.37-2.79c0-.46.06-1.21.06-1.21h-.47l-2.1,0-1,0c.09.8,0,1.61,0,2.41a20.39,20.39,0,0,1-.17,2.7,22.21,22.21,0,0,1-.15-2.7c0-.8,0-2.41,0-2.41l-.13,0-1-.22c.12,3,.2,6.1.21,9.16,0,1.58,0,3.15-.1,4.73,0,.78-.1,1.57-.19,2.36,0,.39-.95,1.63-1,2a6.24,6.24,0,0,1-.22.85c.35-.1,1.58-1,1.94-1.13a3.82,3.82,0,0,0,.87-1.23,9.26,9.26,0,0,0,.58-1.73,29.51,29.51,0,0,0,.67-3.66c.14-1.24.22-2.49.27-3.75s.08-2.51.2-3.77h.05c0,1.25,0,2.51,0,3.77s0,2.52-.11,3.78A17.28,17.28,0,0,1,57,52.2,7.72,7.72,0,0,1,56.2,54a3.58,3.58,0,0,1-.88,1,6.56,6.56,0,0,1,1-.12,4.52,4.52,0,0,1,1.42.15,10.41,10.41,0,0,1,1.26.44,29.09,29.09,0,0,0,.52-4c0-.48.07-1,.09-1.43h0a22.48,22.48,0,0,1-.19,5.64,5.84,5.84,0,0,0,2.19.34A4.76,4.76,0,0,0,64,55.42c0-.06,0-.13,0-.21a7.48,7.48,0,0,1,0-2.79c.13.93.41,2.84.43,2.9.35,0,.69.12,1,.16a7.23,7.23,0,0,1,.08-1.8c.06.61.12,1.22.2,1.82a1.06,1.06,0,0,0,.47-.07.76.76,0,0,0,.18-.09l.22-.13a3.44,3.44,0,0,1,.49-.21,7.56,7.56,0,0,1,1.33-.23,29.67,29.67,0,0,1-.72-3.65c.08.33.18.66.29,1s.66,2.67.7,2.68a7.86,7.86,0,0,1,1.49.23,8.1,8.1,0,0,0,.94.24,3.49,3.49,0,0,0,.44,0A12.82,12.82,0,0,1,70.33,53.38Zm-6.91-10a2.06,2.06,0,0,1,.64-.49,1.89,1.89,0,0,1,.78-.17,1.75,1.75,0,0,1,1.35.72,2.38,2.38,0,0,1,.46,1.41,2.32,2.32,0,0,1-.45,1.38,1.82,1.82,0,0,1-1.36.6,1.85,1.85,0,0,1-1.37-.6,2.15,2.15,0,0,1-.55-1.4A2.19,2.19,0,0,1,63.42,43.43Zm2.83,6.24h-.88c-.53,0-1.07-.05-1.61-.1l0,.15-.22,0c-.32,0-.65-.07-1-.13l-.17,0v-.17a9.46,9.46,0,0,1,.15-1.86l1,0h.06v.05l3.58-.32.14,2.35S66.55,49.67,66.25,49.67Zm-1.46-3a1.69,1.69,0,0,0,1-.39,2.2,2.2,0,0,0,.54-1.48,1.7,1.7,0,0,0-.6-1.29,1.87,1.87,0,0,0-.94-.47,2.06,2.06,0,0,1,.71,1.83C65.54,46.07,65,46.58,64.79,46.67Zm1-3.16a1.87,1.87,0,0,0-.94-.47,2.06,2.06,0,0,1,.71,1.83c0,1.2-.5,1.71-.75,1.8a1.69,1.69,0,0,0,1-.39,2.2,2.2,0,0,0,.54-1.48A1.7,1.7,0,0,0,65.77,43.51Zm0,0a1.87,1.87,0,0,0-.94-.47,2.06,2.06,0,0,1,.71,1.83c0,1.2-.5,1.71-.75,1.8a1.69,1.69,0,0,0,1-.39,2.2,2.2,0,0,0,.54-1.48A1.7,1.7,0,0,0,65.77,43.51Zm0,0a1.87,1.87,0,0,0-.94-.47,2.06,2.06,0,0,1,.71,1.83c0,1.2-.5,1.71-.75,1.8a1.69,1.69,0,0,0,1-.39,2.2,2.2,0,0,0,.54-1.48A1.7,1.7,0,0,0,65.77,43.51Zm0,0a1.87,1.87,0,0,0-.94-.47,2.06,2.06,0,0,1,.71,1.83c0,1.2-.5,1.71-.75,1.8a1.69,1.69,0,0,0,1-.39,2.2,2.2,0,0,0,.54-1.48A1.7,1.7,0,0,0,65.77,43.51Z"/><path d="M73.47,34.78,72,35.64,63.31,25.22l-.73-1h.12l.83.05,0,0,.15.17.31.35.62.7,1.25,1.36c.83.91,1.69,1.81,2.53,2.71S70.13,31.43,71,32.3Z"/><path d="M96.51,44.76,108,61c.67-.49,1.35-1,2-1.44-1.08-1.16-2.15-2.32-3.18-3.52l-3.22-3.78-3.23-3.77c-1.05-1.23-2.09-2.48-3.17-3.68Z"/><path d="M104.66,60.63c.1-.08,1.51-.55,1.83-.64l-10-15.23-.61,0q1.24,2,2.45,3.95C99.11,50,104.66,60.63,104.66,60.63Z"/><path d="M100.71,61.34,104,61s-7.56-14.84-8.28-16.23h-.28c.37.66.67,1.35,1,2Z"/><path d="M94.58,44.71C95,46.1,96.29,61,96.29,61l3.45,0-4.57-16.3h-.59Z"/><path d="M94.59,44.65l2.83-.07,0-1.27a1.33,1.33,0,0,0-.1-.61c-.09-.16-.26-.34-.39-.52l-.42-.54a1.2,1.2,0,0,0-.21-.23.78.78,0,0,0-.24-.16.77.77,0,0,0-.27-.07h-.31l-.69,0-.69,0a1.18,1.18,0,0,0-.56.09.94.94,0,0,0-.4.37l-.39.56a5.28,5.28,0,0,0-.35.52,1.16,1.16,0,0,0-.09.56c0,.39,0,.78,0,1.17l1.06.06Z"/><path d="M94.83,59.44l0-1.83V53.93c0-1.22,0-2.44,0-3.67s0-2.2.07-3.3c-.13-.7-.25-1.41-.37-2.11L92,61l2.85,0V59.44Z"/><path d="M91.52,60.81l3-16.1-.1,0c-.26,1.37-.52,2.71-.87,4.06s-.74,2.7-1.16,4l-2.44,7.93Z"/><path d="M88.66,60.63l5.69-15.9-.34,0c-.55,1.34-1.12,2.67-1.7,4s-1.46,2.65-2,4c-1.17,2.59-2.87,5.18-4.1,7.74Z"/><path d="M84.2,60.21l2-3.22,2.15-3.34c.71-1.12,1.45-2.22,2.17-3.34S92,48.11,92.76,47h0l1.16-2.26-.4,0L82.47,60.05Z"/><path d="M93.13,76l-.83.12c0,.72,0,1,0,1.77l.8-.19C93.17,77,93.14,76.83,93.13,76Z"/><path d="M87.71,75.66v2.07c.3,0,3.5,0,4.2.12.07-.82.06-.93.13-1.74Z"/><path d="M88.47,71.88a2.86,2.86,0,0,0,.71,2,2.22,2.22,0,0,0,1.37.51c-.33-.12-1-.8-1-2.37s.67-2.29.93-2.41a2.42,2.42,0,0,0-1.24.61A2.27,2.27,0,0,0,88.47,71.88Zm0,0a2.86,2.86,0,0,0,.71,2,2.22,2.22,0,0,0,1.37.51c-.33-.12-1-.8-1-2.37s.67-2.29.93-2.41a2.42,2.42,0,0,0-1.24.61A2.27,2.27,0,0,0,88.47,71.88Zm0,0a2.86,2.86,0,0,0,.71,2,2.22,2.22,0,0,0,1.37.51c-.33-.12-1-.8-1-2.37s.67-2.29.93-2.41a2.42,2.42,0,0,0-1.24.61A2.27,2.27,0,0,0,88.47,71.88Zm0,0a2.86,2.86,0,0,0,.71,2,2.22,2.22,0,0,0,1.37.51c-.33-.12-1-.8-1-2.37s.67-2.29.93-2.41a2.42,2.42,0,0,0-1.24.61A2.27,2.27,0,0,0,88.47,71.88ZM81.66,85.72a3.06,3.06,0,0,0,.59-.07,9.63,9.63,0,0,0,1.23-.31,10.39,10.39,0,0,1,2-.31s.78-3.1.92-3.53.27-.85.38-1.29a39.26,39.26,0,0,1-1,4.82,9.4,9.4,0,0,1,1.75.29,5.3,5.3,0,0,1,.65.28l.3.18.23.11a1.54,1.54,0,0,0,.61.1c.11-.79.2-1.6.27-2.4A9.81,9.81,0,0,1,89.72,86c.41,0,.86-.15,1.32-.2,0-.08.39-2.6.56-3.82a9.9,9.9,0,0,1,0,3.68c0,.09,0,.19-.06.27a6.38,6.38,0,0,0,3.13.67,7.51,7.51,0,0,0,2.89-.45,28.77,28.77,0,0,1-.26-7.43h.08c0,.63.06,1.26.12,1.88a38.16,38.16,0,0,0,.68,5.32,13,13,0,0,1,1.66-.58,6.21,6.21,0,0,1,1.87-.2,9.28,9.28,0,0,1,1.29.16A5.09,5.09,0,0,1,101.87,84a10.1,10.1,0,0,1-1-2.34,22.73,22.73,0,0,1-.76-5c-.11-1.66-.14-3.32-.14-5s.08-3.32,0-5h.07c.16,1.65.17,3.31.26,5s.18,3.31.36,4.94a40.32,40.32,0,0,0,.88,4.83,12,12,0,0,0,.77,2.28,5,5,0,0,0,1.14,1.62c.49.11,2.1,1.36,2.57,1.49a7.41,7.41,0,0,1-.3-1.12c-.1-.51-1.3-2.15-1.36-2.67-.12-1-.19-2.07-.24-3.11-.11-2.08-.13-4.15-.14-6.23q0-6,.29-12.08l-1.37.3-.17,0s.05,2.11.06,3.17a26.56,26.56,0,0,1-.2,3.56,28.34,28.34,0,0,1-.21-3.56c0-1.06-.13-2.12,0-3.18l-1.32,0-2.76,0h-.62s0,1,.08,1.6a19,19,0,0,0,.48,3.67l-.07,0a13.37,13.37,0,0,1-.62-1.78q-.21-.91-.36-1.86A9.91,9.91,0,0,1,97,61.73a14.09,14.09,0,0,0-2.18-.06c0,.72,0,1.42,0,2.14s.07,1.64.14,2.46.16,1.63.25,2.45l.3,2.45a19.65,19.65,0,0,1-.62-2.4c-.16-.82-.26-1.64-.34-2.47a20.82,20.82,0,0,1,0-2.5c0-.71-.06-1.4-.06-2.13-2,0-3.43-.13-4.28-.18a12.12,12.12,0,0,1,.22,1.8,5.51,5.51,0,0,1-.2,1.27,2.75,2.75,0,0,1-.62,1.12c0-.43.1-2.41.1-2.41a15.29,15.29,0,0,1,.12-1.87l-3.21-.22-.86-.31c.14,2.23.18,3.32.19,5.55s0,4.54-.06,6.82A26.35,26.35,0,0,1,84.57,80a23.29,23.29,0,0,1-1.32,3.19A16.75,16.75,0,0,1,81.66,85.72ZM93,72a2.87,2.87,0,0,1-.74,1.85,2.38,2.38,0,0,1-1.8.78,2.32,2.32,0,0,1-1.78-.79A2.94,2.94,0,0,1,88.1,72a3,3,0,0,1,.61-1.86,2.28,2.28,0,0,1,1.77-1,2.49,2.49,0,0,1,1,.22,2.6,2.6,0,0,1,.83.64A2.94,2.94,0,0,1,93,72Zm-5.83,6.24.18-3.09,4.72.42V75.5h.08l1.31,0a13.63,13.63,0,0,1,.2,2.45v.22l-.22,0c-.43.07-.87.11-1.3.17l-.28,0,0-.2c-.7.07-1.41.11-2.12.13-.39,0-.78,0-1.16,0ZM89.56,72c0-1.58.67-2.29.93-2.41a2.42,2.42,0,0,0-1.24.61,2.27,2.27,0,0,0-.78,1.7,2.86,2.86,0,0,0,.71,2,2.22,2.22,0,0,0,1.37.51C90.22,74.23,89.56,73.55,89.56,72Zm-1.09-.1a2.86,2.86,0,0,0,.71,2,2.22,2.22,0,0,0,1.37.51c-.33-.12-1-.8-1-2.37s.67-2.29.93-2.41a2.42,2.42,0,0,0-1.24.61A2.27,2.27,0,0,0,88.47,71.88Zm0,0a2.86,2.86,0,0,0,.71,2,2.22,2.22,0,0,0,1.37.51c-.33-.12-1-.8-1-2.37s.67-2.29.93-2.41a2.42,2.42,0,0,0-1.24.61A2.27,2.27,0,0,0,88.47,71.88Zm0,0a2.86,2.86,0,0,0,.71,2,2.22,2.22,0,0,0,1.37.51c-.33-.12-1-.8-1-2.37s.67-2.29.93-2.41a2.42,2.42,0,0,0-1.24.61A2.27,2.27,0,0,0,88.47,71.88Zm0,0a2.86,2.86,0,0,0,.71,2,2.22,2.22,0,0,0,1.37.51c-.33-.12-1-.8-1-2.37s.67-2.29.93-2.41a2.42,2.42,0,0,0-1.24.61A2.27,2.27,0,0,0,88.47,71.88Z"/><path d="M79.11,58.67,81,59.81,92.5,46.07l1-1.26H93.3l-1.09.07,0,0-.2.23-.4.46-.82.91L89.1,48.35c-1.1,1.2-2.22,2.37-3.34,3.56s-2.26,2.34-3.4,3.5Z"/></svg>