<?xml version="1.0" encoding="UTF-8" standalone="no"?>
<svg
   id="Layer_1"
   data-name="Layer 1"
   width="128"
   height="128"
   viewBox="0 0 128 128"
   version="1.1"
   sodipodi:docname="Logging (old).svg"
   inkscape:version="1.3.2 (091e20e, 2023-11-25, custom)"
   xmlns:inkscape="http://www.inkscape.org/namespaces/inkscape"
   xmlns:sodipodi="http://sodipodi.sourceforge.net/DTD/sodipodi-0.dtd"
   xmlns="http://www.w3.org/2000/svg"
   xmlns:svg="http://www.w3.org/2000/svg">
  <sodipodi:namedview
     id="namedview14"
     pagecolor="#ffffff"
     bordercolor="#000000"
     borderopacity="0.25"
     inkscape:showpageshadow="2"
     inkscape:pageopacity="0.0"
     inkscape:pagecheckerboard="0"
     inkscape:deskcolor="#d1d1d1"
     inkscape:zoom="9.1640625"
     inkscape:cx="63.945439"
     inkscape:cy="64"
     inkscape:window-width="2198"
     inkscape:window-height="1237"
     inkscape:window-x="323"
     inkscape:window-y="86"
     inkscape:window-maximized="0"
     inkscape:current-layer="Layer_1" />
  <defs
     id="defs1">
    <style
       id="style1">.cls-1{fill:#d62525;}</style>
  </defs>
  <title
     id="title1">Artboard 24</title>
  <path
     d="M116.15,53a6,6,0,0,0-2-1.18,6.85,6.85,0,0,0,3-5.82,7,7,0,0,0-2.28-5.27,5.42,5.42,0,0,0-4-1.4,7.11,7.11,0,0,0,1.6-4.57,7,7,0,0,0-2.28-5.27,5.73,5.73,0,0,0-1.58-1A6.93,6.93,0,0,0,111.41,23,7,7,0,0,0,109.55,18l1.37-.1c3.06-.19,5.49-2.93,5.67-6.37a7,7,0,0,0-2-5.38,5.44,5.44,0,0,0-4.23-1.59L37,8.88a.29.29,0,0,0-.1,0h-.25c-2.8.25-4.41,4.23-4.11,7.65A8.47,8.47,0,0,0,34.28,21l.12.14-9.46.66h-.15l-.33,0a1,1,0,0,0-.55.23,4.87,4.87,0,0,0-2.14,2.83,12.34,12.34,0,0,0-.66,4.27,3,3,0,0,0-2.18-.73c-1.25.11-2.3,1.06-3,2.68A10.64,10.64,0,0,0,15.33,36c0,.25,0,.43,0,.57s0,.18,0,.26l-.66.06a2.91,2.91,0,0,0-1-.1c-1.28.12-2.37,1.08-3.08,2.72A9.58,9.58,0,0,0,9.91,44c.26,3,2.23,6,4.79,6H15a2.9,2.9,0,0,0,.65-.14l.12.08a8.09,8.09,0,0,0,1.43,3.37,7.41,7.41,0,0,0-2.1,6.07c.27,3.11,2.41,5.6,4.75,5.6h.27c5-.35,7.09-.52,8-.64a.41.41,0,0,1,0,.11c.28,3.15,2.62,5.95,4.9,5.95h.23l.14,0a.8.8,0,0,0,.15,0h.09l79.13-7.11A5.93,5.93,0,0,0,116.15,53ZM110.49,6.51a3.45,3.45,0,0,1,2.69,1,5,5,0,0,1,1.41,3.85c-.12,2.42-1.76,4.35-3.8,4.48l-4.71.32a5.07,5.07,0,0,0-1,0L41.2,20.65a8.54,8.54,0,0,0,1-4.94,9.38,9.38,0,0,0-1.73-4.62c-.1-.14-.21-.27-.31-.39ZM36.86,10.9H37a2.82,2.82,0,0,1,2,1.37,7.57,7.57,0,0,1,1.35,3.61c.21,2.43-.93,4.84-2.37,5h-.06a2.53,2.53,0,0,1-2-1.15,6.46,6.46,0,0,1-1.28-3.34C34.33,13.79,35.49,11,36.86,10.9Zm1,12h.28l1-.07L106,18.2a3.53,3.53,0,0,1,1.93.95A5,5,0,0,1,109.41,23c-.07,2.42-1.66,4.38-3.71,4.55l-76.6,7.4a10.42,10.42,0,0,0,1-5.63A11.7,11.7,0,0,0,28,23.57ZM23.65,25.56c.36-1,.88-1.7,1.33-1.77h.12c1,0,2.74,2.56,3,5.68s-.88,5.5-2,5.59c-.53.05-1.16-.43-1.73-1.29a8.52,8.52,0,0,1-1.26-3.86A10.71,10.71,0,0,1,23.65,25.56Zm-5.84,6.3c.36-.87.84-1.41,1.3-1.45s1,.41,1.53,1.2a8.68,8.68,0,0,1,1.18,3.78c0,.34,0,.59,0,.78l-4.49.43c0-.05,0-.11,0-.18s0-.35,0-.63A8.68,8.68,0,0,1,17.81,31.86Zm-1.5,14.87c-.4.81-.95,1.3-1.5,1.34-1.14.09-2.69-1.75-2.91-4.21a7.87,7.87,0,0,1,.55-3.6c.39-.9.93-1.47,1.43-1.51H14c1.12,0,2.71,2.21,2.93,4.68A6.35,6.35,0,0,1,16.31,46.73Zm.8-8.1,89-8.51a3.5,3.5,0,0,1,2.74.89,5,5,0,0,1,1.6,3.77c0,2.43-1.53,4.44-3.54,4.67L66.77,43.27,24.94,47h0a2.68,2.68,0,0,0-1.16.37l-5.84.55c0-.09.11-.18.16-.28a8.44,8.44,0,0,0,.77-4.39A9.1,9.1,0,0,0,17.11,38.63Zm4.09,11c-.06,1.62-.66,2.85-1.21,3.14a3.28,3.28,0,0,0-.69-.1,4.67,4.67,0,0,1-1.51-2.71Zm.28,12.19A2.19,2.19,0,0,1,20,63c-1.3.11-2.69-1.71-2.87-3.77s.75-4.26,1.84-4.57a2.45,2.45,0,0,0,.81.13h.07a3.19,3.19,0,0,1,1.07,1,6.18,6.18,0,0,1,1.19,3A5.35,5.35,0,0,1,21.48,61.8Zm2.21-11.3a3.39,3.39,0,0,1,.81-1.2l1.29-.13a6.21,6.21,0,0,1,2.33,4.48A6.39,6.39,0,0,1,27.54,57a2.12,2.12,0,0,1-1.49,1.34c-1.14.1-2.7-1.76-2.91-4.22A7.7,7.7,0,0,1,23.69,50.5ZM29,60a8.89,8.89,0,0,0-.71,2.35c-.45.07-2.57.25-5,.43l0,0a7.13,7.13,0,0,0,.84-3,3.41,3.41,0,0,0,1.87.58h.28a3.62,3.62,0,0,0,2.62-1.64l.45,0a.93.93,0,0,0,.2.48A8,8,0,0,0,29,60Zm1.16-6.56a9.24,9.24,0,0,0-1.71-4.54L67,45.25l43.81-3.89a3.44,3.44,0,0,1,2.75.89,5,5,0,0,1,1.6,3.77c0,2.42-1.53,4.43-3.52,4.66L29.81,56.59A9,9,0,0,0,30.11,53.47Zm3,15c-1.11.08-2.76-1.89-3-4.13a6.94,6.94,0,0,1,.62-3.44c.42-.88,1-1.47,1.44-1.51h.07a2.37,2.37,0,0,1,1.6,1.12,6.31,6.31,0,0,1,1.19,3.12C35.27,66,34.11,68.37,33.1,68.46Zm79.49-7.11L36.1,68.22a8.8,8.8,0,0,0,.95-4.78,8.29,8.29,0,0,0-1.58-4.15l-.12-.14,76.41-5.62a3.89,3.89,0,0,1,3.06,1,3.93,3.93,0,0,1-2.23,6.84Z"
     id="path7" />
  <path
     d="M25.79,123.76v-14.2h2.37v11.77h5.89v2.43Z"
     id="path8"
     style="fill:#e29b29;fill-opacity:1" />
  <path
     d="M35.47,116.69a10.29,10.29,0,0,1,.75-4.22,5.77,5.77,0,0,1,2-2.46,5.22,5.22,0,0,1,3-.81,5.09,5.09,0,0,1,4.11,1.92,10.25,10.25,0,0,1-.1,11.09,4.92,4.92,0,0,1-4,1.79,5,5,0,0,1-4-1.77A8.41,8.41,0,0,1,35.47,116.69Zm2.44-.1a6,6,0,0,0,.94,3.7,2.8,2.8,0,0,0,4.64,0,6.27,6.27,0,0,0,.92-3.76,6.17,6.17,0,0,0-.89-3.68,2.91,2.91,0,0,0-4.7,0A6.14,6.14,0,0,0,37.91,116.59Z"
     id="path9"
     style="fill:#e29b29;fill-opacity:1" />
  <path
     d="M54.38,118.5v-2.42h5.1v5.7a6.22,6.22,0,0,1-2.18,1.57,6.87,6.87,0,0,1-2.85.65,5.52,5.52,0,0,1-3.06-.85,5.83,5.83,0,0,1-2.11-2.56,9.76,9.76,0,0,1-.77-4,9.48,9.48,0,0,1,.78-4,6,6,0,0,1,2-2.51,5.29,5.29,0,0,1,3-.83,5,5,0,0,1,3.36,1.06,5.12,5.12,0,0,1,1.63,3.14l-2.35.54a3,3,0,0,0-1-1.69,2.54,2.54,0,0,0-1.68-.58,3,3,0,0,0-2.45,1.17,5.68,5.68,0,0,0-.94,3.59,6.52,6.52,0,0,0,1,3.94,2.81,2.81,0,0,0,2.36,1.16,3.57,3.57,0,0,0,1.44-.33,4.25,4.25,0,0,0,1.33-.89V118.5Z"
     id="path10"
     style="fill:#e29b29;fill-opacity:1" />
  <path
     d="M67.34,118.5v-2.42h5.11v5.7a6.37,6.37,0,0,1-2.19,1.57,6.79,6.79,0,0,1-2.84.65,5.56,5.56,0,0,1-3.07-.85,5.88,5.88,0,0,1-2.1-2.56,9.6,9.6,0,0,1-.78-4,9.33,9.33,0,0,1,.79-4,5.83,5.83,0,0,1,2-2.51,5.25,5.25,0,0,1,3-.83,4.59,4.59,0,0,1,5,4.2l-2.34.54a3.08,3.08,0,0,0-1-1.69,2.54,2.54,0,0,0-1.68-.58,3,3,0,0,0-2.45,1.17,5.75,5.75,0,0,0-.94,3.59,6.45,6.45,0,0,0,1,3.94,2.79,2.79,0,0,0,2.35,1.16,3.57,3.57,0,0,0,1.44-.33,4.42,4.42,0,0,0,1.34-.89V118.5Z"
     id="path11"
     style="fill:#e29b29;fill-opacity:1" />
  <path
     d="M74.77,123.76V109.44h2.36v14.32Z"
     id="path12"
     style="fill:#e29b29;fill-opacity:1" />
  <path
     d="M79.62,123.76V109.44h2.31l4.8,9.56v-9.56h2.21v14.32H86.56l-4.73-9.34v9.34Z"
     id="path13"
     style="fill:#e29b29;fill-opacity:1" />
  <path
     d="M97.1,118.5v-2.42h5.11v5.7a6.37,6.37,0,0,1-2.19,1.57,6.79,6.79,0,0,1-2.84.65,5.56,5.56,0,0,1-3.07-.85,5.81,5.81,0,0,1-2.1-2.56,9.6,9.6,0,0,1-.78-4,9.33,9.33,0,0,1,.79-4,5.83,5.83,0,0,1,2-2.51,5.28,5.28,0,0,1,3-.83,4.59,4.59,0,0,1,5,4.2l-2.34.54a3.08,3.08,0,0,0-1-1.69,2.54,2.54,0,0,0-1.68-.58,3,3,0,0,0-2.45,1.17,5.68,5.68,0,0,0-.94,3.59,6.45,6.45,0,0,0,1,3.94A2.79,2.79,0,0,0,97,121.53a3.57,3.57,0,0,0,1.44-.33,4.25,4.25,0,0,0,1.33-.89V118.5Z"
     id="path14"
     style="fill:#e29b29;fill-opacity:1" />
  <path
     class="cls-1"
     d="m 48.423255,97.346922 a 7.46,7.46 0 0 1 0.73,-3.33 5.34,5.34 0 0 1 1.89,-2.26 4.81,4.81 0 0 1 2.6,-0.75 4.55,4.55 0 0 1 3.87,1.93 7.47,7.47 0 0 1 1.4,4.52 8,8 0 0 1 -0.73,3.469998 5.56,5.56 0 0 1 -1.92,2.33 4.65,4.65 0 0 1 -2.61,0.78 4.8,4.8 0 0 1 -3.77,-1.73 7.37,7.37 0 0 1 -1.46,-4.959998 z m 2.77,0.18 a 4.7,4.7 0 0 0 0.73,2.859998 2.19,2.19 0 0 0 1.79,1 2.14,2.14 0 0 0 1.75,-1 4.74,4.74 0 0 0 0.73,-2.879998 4.66,4.66 0 0 0 -0.74,-2.83 2.17,2.17 0 0 0 -1.77,-1 2.14,2.14 0 0 0 -1.76,1 4.7,4.7 0 0 0 -0.73,2.85 z"
     id="path1"
     style="fill:#e29b29;fill-opacity:1" />
  <path
     class="cls-1"
     d="M 61.563255,103.74692 V 86.566922 h 2.7 v 17.179998 z"
     id="path2"
     style="fill:#e29b29;fill-opacity:1" />
  <path
     class="cls-1"
     d="m 76.863255,103.74692 h -2.51 v -1.83 a 4.53,4.53 0 0 1 -1.46,1.59 3.16,3.16 0 0 1 -1.74,0.53 3.68,3.68 0 0 1 -3,-1.7 8.06,8.06 0 0 1 -1.27,-4.879998 7.84,7.84 0 0 1 1.24,-4.82 3.7,3.7 0 0 1 3,-1.63 3.13,3.13 0 0 1 1.6,0.44 4.27,4.27 0 0 1 1.36,1.3 v -6.18 h 2.71 z m -7.22,-6.489998 a 8.23,8.23 0 0 0 0.29,2.52 2.53,2.53 0 0 0 0.82,1.239998 1.79,1.79 0 0 0 2.74,-0.54 5.18,5.18 0 0 0 0.66,-2.909998 5.74,5.74 0 0 0 -0.64,-3.09 1.84,1.84 0 0 0 -3.21,0 4.84,4.84 0 0 0 -0.66,2.78 z"
     id="path3"
     style="fill:#e29b29;fill-opacity:1" />
</svg>
