<svg id="Layer_1" data-name="Layer 1" xmlns="http://www.w3.org/2000/svg" width="128" height="128" viewBox="0 0 128 128"><defs><style>.cls-1{fill:#e29b29;}</style></defs><title>Logging (recent)</title><path class="cls-1" d="M125.42,79.19a7.64,7.64,0,0,0-2.61-1.53,9,9,0,0,0,3.93-7.59,9.13,9.13,0,0,0-3-6.86,7.06,7.06,0,0,0-5.26-1.82,9.37,9.37,0,0,0,2.08-6,9.17,9.17,0,0,0-3-6.87,7.84,7.84,0,0,0-2.07-1.3,9,9,0,0,0,3.68-7.15,9.16,9.16,0,0,0-2.43-6.6l1.79-.13c4-.25,7.16-3.82,7.39-8.3a9.16,9.16,0,0,0-2.62-7A7,7,0,0,0,117.8,16L35.3,21.7h-.45c-3.65.33-5.75,5.51-5.36,10a10.86,10.86,0,0,0,2.22,5.75l.17.19-12.33.86h-.63a1.33,1.33,0,0,0-.71.3,6.32,6.32,0,0,0-2.8,3.69,15.92,15.92,0,0,0-.85,5.56,3.89,3.89,0,0,0-2.84-.95c-1.63.14-3,1.38-3.87,3.49A14.05,14.05,0,0,0,7.09,57a3,3,0,0,0,0,.74.76.76,0,0,1,0,.34l-.86.08A4.31,4.31,0,0,0,5,58c-1.67.15-3.1,1.41-4,3.54a12.47,12.47,0,0,0-.92,6c.34,3.9,2.91,7.87,6.24,7.87h.37a4.15,4.15,0,0,0,.85-.18l.16.1a10.43,10.43,0,0,0,1.86,4.4c-2,1.6-3,4.94-2.74,7.9.36,4.06,3.15,7.3,6.19,7.3h.35c6.49-.44,9.24-.68,10.47-.83v.14c.37,4.1,3.41,7.75,6.37,7.75h.32a.54.54,0,0,0,.18,0,.6.6,0,0,0,.19,0H31l90-9.35A7.7,7.7,0,0,0,128,85,7.81,7.81,0,0,0,125.42,79.19ZM118,18.61A4.48,4.48,0,0,1,121.55,20a6.53,6.53,0,0,1,1.83,5c-.16,3.16-2.28,5.67-5,5.83l-6.13.42a7.61,7.61,0,0,0-1.35,0L40.8,37a11,11,0,0,0,1.37-6.43,12.34,12.34,0,0,0-2.26-6c-.13-.18-.26-.35-.4-.51ZM35.15,24.33h.12a3.71,3.71,0,0,1,2.54,1.78,10.07,10.07,0,0,1,1.77,4.72c.28,3.16-1.22,6.3-3.09,6.5h-.08a3.25,3.25,0,0,1-2.59-1.5,8.45,8.45,0,0,1-1.67-4.36C31.86,28.09,33.37,24.49,35.15,24.33ZM36.4,40h.36l1.31-.1,74.13-6a4.82,4.82,0,0,1,2.5,1.24,6.53,6.53,0,0,1,1.94,5c-.1,3.16-2.17,5.72-4.84,5.94L25,55.62a13.57,13.57,0,0,0,1.31-7.34,15.18,15.18,0,0,0-2.71-7.45ZM18,43.42c.47-1.32,1.15-2.21,1.73-2.31h.16c1.31.06,3.56,3.33,3.92,7.41.35,3.87-1.13,7.15-2.58,7.28-.69.06-1.52-.57-2.25-1.69a11,11,0,0,1-1.65-5A13.74,13.74,0,0,1,18,43.42Zm-7.61,8.21c.47-1.13,1.09-1.84,1.69-1.89s1.34.53,2,1.56a11.44,11.44,0,0,1,1.54,4.93v1l-5.84.56v-.23a6.44,6.44,0,0,0,0-.83,11.35,11.35,0,0,1,.61-5.1ZM8.38,71a2.75,2.75,0,0,1-2,1.74c-1.49.12-3.51-2.29-3.79-5.49a10,10,0,0,1,.72-4.68c.51-1.18,1.2-1.92,1.86-2h.09c1.46,0,3.53,2.87,3.82,6.09A8.39,8.39,0,0,1,8.37,71Zm1-10.56,103-11.09a4.57,4.57,0,0,1,3.58,1.17A6.52,6.52,0,0,1,118,55.44c0,3.16-2,5.77-4.61,6.07l-39.27,5-54.5,4.85h0a3.58,3.58,0,0,0-1.5.48l-7.61.72c.06-.12.14-.24.2-.37a10.91,10.91,0,0,0,1-5.71,11.9,11.9,0,0,0-2.28-6Zm5.33,14.3c-.09,2.11-.87,3.72-1.58,4.1a4,4,0,0,0-.9-.14,6,6,0,0,1-2-3.53Zm.36,15.89a2.88,2.88,0,0,1-2,1.61c-1.69.14-3.51-2.23-3.74-4.91s1-5.55,2.4-6a3.09,3.09,0,0,0,1,.18h.1a4.46,4.46,0,0,1,1.39,1.24,8.07,8.07,0,0,1,1.54,4,7,7,0,0,1-.7,3.88ZM18,76a4.27,4.27,0,0,1,1.07-1.56l1.67-.16c1.33.74,2.8,3.15,3,5.83A8.28,8.28,0,0,1,23,84.34,2.78,2.78,0,0,1,21,86.08c-1.49.14-3.51-2.29-3.79-5.49A10.11,10.11,0,0,1,18,76Zm6.87,12.42a10.94,10.94,0,0,0-.93,3.06c-.59.1-3.35.32-6.56.56h0a9.59,9.59,0,0,0,1.09-4,4.33,4.33,0,0,0,2.44.75h.37a4.68,4.68,0,0,0,3.41-2.14h.58a1.3,1.3,0,0,0,.26.63,8.28,8.28,0,0,0-.67,1.1Zm1.5-8.54a12.24,12.24,0,0,0-2.22-5.93l50.3-4.78L118.49,64a4.55,4.55,0,0,1,3.57,1.16,6.48,6.48,0,0,1,2.09,4.91c0,3.17-2,5.78-4.59,6.07L26,83.84a11.53,11.53,0,0,0,.36-4Zm3.9,19.52c-1.45.1-3.6-2.46-3.86-5.38a9,9,0,0,1,.81-4.49c.54-1.13,1.28-1.9,1.87-2h.09A3.16,3.16,0,0,1,31.26,89,8.26,8.26,0,0,1,32.8,93c.27,3-1.23,6.17-2.55,6.29Zm90.53-9.26-86.62,9a11.63,11.63,0,0,0,1.24-6.22,11,11,0,0,0-2.06-5.41c-.05-.07-.11-.12-.16-.19l86.52-7.33A5.13,5.13,0,1,1,121,90.12l-.24,0Z"/><path d="M22.09,127.73V111.9h2.63V125h6.57v2.7Z"/><path d="M32.64,119.85a11.22,11.22,0,0,1,.85-4.7,6.36,6.36,0,0,1,2.2-2.75,5.86,5.86,0,0,1,3.3-.9,5.66,5.66,0,0,1,4.58,2.14A11.45,11.45,0,0,1,43.46,126,5.46,5.46,0,0,1,39,128a5.53,5.53,0,0,1-4.48-2A9.37,9.37,0,0,1,32.64,119.85Zm2.72-.11a6.78,6.78,0,0,0,1,4.13,3.13,3.13,0,0,0,5.18,0,7,7,0,0,0,1-4.2,6.88,6.88,0,0,0-1-4.1,3.24,3.24,0,0,0-5.24,0A6.85,6.85,0,0,0,35.36,119.74Z"/><path d="M53.5,121.87v-2.7h5.69v6.36a7.08,7.08,0,0,1-2.44,1.74,7.44,7.44,0,0,1-3.17.73,6.18,6.18,0,0,1-3.41-1,6.52,6.52,0,0,1-2.35-2.85,12.09,12.09,0,0,1,0-9,6.51,6.51,0,0,1,2.28-2.79,5.87,5.87,0,0,1,3.34-.93,5.64,5.64,0,0,1,3.75,1.19,5.7,5.7,0,0,1,1.82,3.5l-2.62.6a3.33,3.33,0,0,0-1.07-1.88,2.84,2.84,0,0,0-1.88-.66,3.33,3.33,0,0,0-2.73,1.32,6.37,6.37,0,0,0-1,4A7.17,7.17,0,0,0,50.81,124a3.11,3.11,0,0,0,2.62,1.3,4.08,4.08,0,0,0,1.61-.37,4.93,4.93,0,0,0,1.48-1v-2Z"/><path d="M67.72,121.87v-2.7h5.69v6.36A7,7,0,0,1,71,127.27a7.47,7.47,0,0,1-3.17.73,6.24,6.24,0,0,1-3.42-1,6.5,6.5,0,0,1-2.34-2.85,10.67,10.67,0,0,1-.87-4.47,10.49,10.49,0,0,1,.88-4.51,6.49,6.49,0,0,1,2.27-2.79,5.91,5.91,0,0,1,3.35-.93,5.14,5.14,0,0,1,5.56,4.69l-2.61.6a3.4,3.4,0,0,0-1.08-1.88,2.81,2.81,0,0,0-1.87-.66A3.3,3.3,0,0,0,65,115.57a6.3,6.3,0,0,0-1.05,4A7.23,7.23,0,0,0,65,124a3.13,3.13,0,0,0,2.63,1.3,4,4,0,0,0,1.6-.37,5,5,0,0,0,1.49-1v-2Z"/><path d="M75.78,127.73v-16h2.63v16Z"/><path d="M81,127.73v-16h2.57l5.35,10.66V111.77h2.46v16H88.7l-5.27-10.41v10.41Z"/><path d="M100.22,121.87v-2.7h5.69v6.36a7,7,0,0,1-2.43,1.74,7.47,7.47,0,0,1-3.17.73,6.24,6.24,0,0,1-3.42-1,6.44,6.44,0,0,1-2.34-2.85,10.67,10.67,0,0,1-.87-4.47,10.49,10.49,0,0,1,.88-4.51,6.49,6.49,0,0,1,2.27-2.79,5.91,5.91,0,0,1,3.35-.93,5.14,5.14,0,0,1,5.56,4.69l-2.61.6a3.4,3.4,0,0,0-1.08-1.88,2.81,2.81,0,0,0-1.87-.66,3.3,3.3,0,0,0-2.73,1.32,6.3,6.3,0,0,0-1,4A7.23,7.23,0,0,0,97.53,124a3.13,3.13,0,0,0,2.63,1.3,4,4,0,0,0,1.6-.37,5,5,0,0,0,1.49-1v-2Z"/></svg>