<svg id="Layer_1" data-name="Layer 1" xmlns="http://www.w3.org/2000/svg" width="128" height="128" viewBox="0 0 128 128"><defs><style>.cls-1{fill:#d62525;}</style></defs><title>Artboard 77</title><path class="cls-1" d="M125.43,84.24a7.67,7.67,0,0,0-2.61-1.53,8.93,8.93,0,0,0,3.93-7.59,9.1,9.1,0,0,0-3-6.86,7.07,7.07,0,0,0-5.26-1.82,9.34,9.34,0,0,0,2.08-5.95,9.13,9.13,0,0,0-3-6.87,7.42,7.42,0,0,0-2.07-1.3,9,9,0,0,0,3.68-7.15,9.11,9.11,0,0,0-2.43-6.6l1.79-.13c4-.25,7.16-3.82,7.39-8.3a9.13,9.13,0,0,0-2.62-7,7,7,0,0,0-5.5-2.07l-82.5,5.68-.14,0c-.1,0-.21,0-.31,0-3.65.33-5.75,5.51-5.36,10a11,11,0,0,0,2.22,5.75l.17.19-12.33.86h-.12l-.08,0-.43,0a1.3,1.3,0,0,0-.71.3,6.35,6.35,0,0,0-2.8,3.69,16.17,16.17,0,0,0-.85,5.56,3.87,3.87,0,0,0-2.84-.95c-1.63.14-3,1.38-3.87,3.49A14,14,0,0,0,7.1,62c0,.33,0,.55.05.74s0,.23,0,.34l-.86.08A4.18,4.18,0,0,0,5,63.05c-1.67.15-3.1,1.41-4,3.54a12.53,12.53,0,0,0-.92,6c.34,3.9,2.91,7.87,6.24,7.87h.37a4,4,0,0,0,.85-.18,1.4,1.4,0,0,0,.16.1,10.6,10.6,0,0,0,1.86,4.4c-2,1.6-3,4.94-2.74,7.9.36,4.06,3.15,7.3,6.19,7.3l.26,0h.09c6.49-.44,9.24-.68,10.47-.83v.14c.37,4.1,3.41,7.75,6.37,7.75h.32a1.13,1.13,0,0,0,.18,0,1.06,1.06,0,0,0,.19,0H31L121,97.69A7.7,7.7,0,0,0,128,90,7.78,7.78,0,0,0,125.43,84.24Zm-7.38-60.58A4.49,4.49,0,0,1,121.56,25a6.5,6.5,0,0,1,1.83,5c-.16,3.16-2.28,5.67-5,5.83l-6.13.42a7.61,7.61,0,0,0-1.35,0L40.81,42.07a11,11,0,0,0,1.37-6.43,12.3,12.3,0,0,0-2.26-6c-.13-.18-.26-.35-.4-.51ZM35.16,29.38h.12a3.67,3.67,0,0,1,2.54,1.78,9.89,9.89,0,0,1,1.77,4.72c.28,3.16-1.22,6.3-3.09,6.5h-.08a3.3,3.3,0,0,1-2.59-1.5,8.5,8.5,0,0,1-1.67-4.36C31.87,33.14,33.38,29.54,35.16,29.38ZM36.41,45h.36l1.31-.1,74.13-6a4.74,4.74,0,0,1,2.5,1.24,6.5,6.5,0,0,1,1.94,5c-.1,3.16-2.17,5.72-4.84,5.94L25.05,60.67a13.53,13.53,0,0,0,1.31-7.34,15.14,15.14,0,0,0-2.71-7.45ZM18,48.47c.47-1.32,1.15-2.21,1.73-2.31h.16c1.31.06,3.56,3.33,3.92,7.41.35,3.87-1.13,7.15-2.58,7.28-.69.06-1.52-.57-2.25-1.69a11.06,11.06,0,0,1-1.65-5A13.89,13.89,0,0,1,18,48.47Zm-7.61,8.21c.47-1.13,1.09-1.84,1.69-1.89s1.34.53,2,1.56a11.28,11.28,0,0,1,1.54,4.93c0,.45,0,.77,0,1l-5.84.56c0-.06,0-.13,0-.23s0-.46-.05-.83A11.31,11.31,0,0,1,10.34,56.68Zm-2,19.38a2.75,2.75,0,0,1-2,1.74c-1.49.12-3.51-2.29-3.79-5.49a10,10,0,0,1,.72-4.68c.51-1.18,1.2-1.92,1.86-2h.09c1.46,0,3.53,2.87,3.82,6.09A8.33,8.33,0,0,1,8.38,76.06Zm1-10.56L112.34,54.41a4.55,4.55,0,0,1,3.58,1.17A6.49,6.49,0,0,1,118,60.49c0,3.16-2,5.77-4.61,6.07l-39.27,5-54.5,4.85h0a3.53,3.53,0,0,0-1.5.48l-7.61.72c.06-.12.14-.24.2-.37a10.87,10.87,0,0,0,1-5.71A11.91,11.91,0,0,0,9.43,65.5Zm5.33,14.3c-.09,2.11-.87,3.72-1.58,4.1a4,4,0,0,0-.9-.14,6.07,6.07,0,0,1-2-3.53Zm.36,15.89a2.87,2.87,0,0,1-2,1.61c-1.69.14-3.51-2.23-3.74-4.91s1-5.55,2.4-6a3.13,3.13,0,0,0,1.05.18h.1a4.33,4.33,0,0,1,1.39,1.24,8,8,0,0,1,1.54,4A7,7,0,0,1,15.12,95.69ZM18,81a4.25,4.25,0,0,1,1.07-1.56l1.67-.16c1.33.74,2.8,3.15,3,5.83A8.23,8.23,0,0,1,23,89.39a2.78,2.78,0,0,1-1.95,1.74c-1.49.14-3.51-2.29-3.79-5.49A10.14,10.14,0,0,1,18,81Zm6.87,12.42a11.43,11.43,0,0,0-.93,3.06c-.59.1-3.35.32-6.56.56l0,0a9.45,9.45,0,0,0,1.09-4,4.44,4.44,0,0,0,2.44.75h.37a4.71,4.71,0,0,0,3.41-2.14l.58,0a1.41,1.41,0,0,0,.26.63A8.57,8.57,0,0,0,24.86,93.38Zm1.5-8.54a12.13,12.13,0,0,0-2.22-5.93l50.3-4.78,44.05-5.08a4.51,4.51,0,0,1,3.57,1.16,6.49,6.49,0,0,1,2.09,4.91c0,3.17-2,5.78-4.59,6.07L26,88.89A11.44,11.44,0,0,0,26.36,84.84Zm3.9,19.52c-1.45.1-3.6-2.46-3.86-5.38a9.09,9.09,0,0,1,.81-4.49c.54-1.13,1.28-1.9,1.87-2h.09A3.14,3.14,0,0,1,31.27,94a8.21,8.21,0,0,1,1.54,4.07C33.08,101.1,31.58,104.24,30.26,104.36Zm90.53-9.26-86.62,9a11.5,11.5,0,0,0,1.24-6.22,10.81,10.81,0,0,0-2.06-5.41c-.05-.07-.11-.12-.16-.19l86.52-7.33a5.13,5.13,0,1,1,1.08,10.2Z"/></svg>