<svg id="Layer_1" data-name="Layer 1" xmlns="http://www.w3.org/2000/svg" width="128" height="128" viewBox="0 0 128 128"><title>Artboard 80</title><path d="M65.05,41.14c-5.56-.23-11.21.63-15.41,6.71-3.27,4.76-4.48,8-4.74,14.3-.57,13.4,5.87,24.79,19,24.74,13,0,18.57-8.82,19.12-21.92.26-6.31.13-11.85-3.25-16.53C76.18,43.44,70.62,41.38,65.05,41.14Zm8.24,25.5c-.49,4.61-3.47,9.91-9.58,9.67S54.65,73.12,55,64.7c.18-4.34.41-8.1,2.9-11,2.14-2.49,9.31-6.15,13.89,1C73.86,57.89,73.78,62,73.29,66.64Z"/><path d="M100.8,39.53c-1-6.65-14.56-10.42-20.2-11.89-9.57-1.95-25.95-2.93-30-2.56-4.72.42-10.64.73-14.53,5.26s-6.75,8.2-8.14,16.44-2.05,19.68.17,28.84C33,89.79,39,92.29,42.81,95.26c5.48,4.32,16.26,6.77,17.64,7.07h0l.15,0h0c9.24,1.11,15.27,1,21-2.36,15.33-8.91,17.08-23.62,18-28.91C101.67,59.92,101.77,46,100.8,39.53ZM86.89,73.94c-.41,1.78-2.6,5.54-5,9.21-1.74,2.71-3.08,5.37-6.38,7.17-5.19,2.82-12.78,2.32-13.9,2.22h-.11c-1.39-.15-8.31-1.31-12.13-4.44-5.56-4.81-11.26-12.94-11.82-16.74s.3-14.29.19-20c-.19-9.18,7.88-16.31,11-18S62.41,33,62.41,33h0A89.64,89.64,0,0,1,75.1,34.45c5.83,1.1,15.1,2.35,16.55,11.34C92.54,51.3,87.61,70.85,86.89,73.94Z"/><path d="M6.37,128V111.5h4.08l2.46,11.27,2.44-11.27h4.11V128H16.91V115l-2.7,13H11.59L8.91,115v13Z"/><path d="M34.59,128h-3l-1.19-3.74H25L23.91,128H21l5.27-16.5h2.9Zm-5-6.53-1.87-6.12-1.83,6.12Z"/><path d="M36.28,128V111.5h2.66l5.54,11v-11H47V128H44.27l-5.44-10.76V128Z"/><path d="M54.83,123.6v-3.16h5.1v3.16Z"/><path d="M67.58,128V111.5h4.09l2.46,11.27,2.44-11.27h4.1V128H78.13V115l-2.7,13H72.8l-2.67-13v13Z"/><path d="M95.8,128h-3l-1.18-3.74H86.24L85.12,128h-2.9l5.27-16.5h2.89Zm-5-6.53-1.87-6.12-1.83,6.12Z"/><path d="M97.45,111.5h5a7.43,7.43,0,0,1,2.85.42,4.69,4.69,0,0,1,1.77,1.43,7.26,7.26,0,0,1,1.28,2.6,14.82,14.82,0,0,1,.46,4,12.9,12.9,0,0,1-.49,3.72,7.47,7.47,0,0,1-1.22,2.5,4.76,4.76,0,0,1-1.8,1.39,6.71,6.71,0,0,1-2.7.47H97.45Zm2.73,2.79v10.92h2a5.17,5.17,0,0,0,1.9-.25,2.18,2.18,0,0,0,1-.75,4.36,4.36,0,0,0,.63-1.58,13.51,13.51,0,0,0,.24-2.84,12.92,12.92,0,0,0-.25-2.89,3.78,3.78,0,0,0-.79-1.66,2.41,2.41,0,0,0-1.3-.8,10.52,10.52,0,0,0-2.22-.15Z"/><path d="M111.35,128V111.5h10v2.79h-7.32V118h6.8v2.78h-6.8v4.48h7.56V128Z"/><path d="M5.35,16.23,2.21.27H4.92l2,11,2.4-11h3.14l2.3,11.15,2-11.15H19.4l-3.18,16H13.41L10.79,4.29,8.2,16.23Z"/><path d="M31.77,16.23H28.9l-1.14-3.62H22.52l-1.08,3.62H18.63l5.09-16h2.8ZM26.91,9.92,25.1,4,23.33,9.92Z"/><path d="M35,16.23V3H31.1V.27H41.49V3H37.62V16.23Z"/><path d="M43.43,16.23V.27h9.71V3H46.07V6.51h6.57V9.2H46.07v4.33h7.31v2.7Z"/><path d="M55.84,16.23V.27h5.57a7.84,7.84,0,0,1,3,.43A3.49,3.49,0,0,1,66,2.19a5.21,5.21,0,0,1,.58,2.54,4.74,4.74,0,0,1-.89,3,4,4,0,0,1-2.56,1.44,6.44,6.44,0,0,1,1.41,1.33A18.91,18.91,0,0,1,66,13.12l1.59,3.11H64.45l-1.91-3.47a22.24,22.24,0,0,0-1.41-2.36,1.94,1.94,0,0,0-.78-.65A3.57,3.57,0,0,0,59,9.57h-.54v6.66ZM58.48,7h2a9.43,9.43,0,0,0,2.28-.16,1.41,1.41,0,0,0,.8-.63A2.4,2.4,0,0,0,63.82,5a2.2,2.2,0,0,0-.3-1.22,1.56,1.56,0,0,0-.83-.64A10.42,10.42,0,0,0,60.55,3H58.48Z"/><path d="M74.57,16.23V.27H77.2V6.55h5.19V.27H85v16H82.39v-7H77.2v7Z"/><path d="M87.44,8.35a11.39,11.39,0,0,1,.84-4.7A6.43,6.43,0,0,1,90.48.9a5.86,5.86,0,0,1,3.3-.9,5.66,5.66,0,0,1,4.58,2.14,9.37,9.37,0,0,1,1.77,6.11,9.51,9.51,0,0,1-1.88,6.26,5.46,5.46,0,0,1-4.46,2,5.53,5.53,0,0,1-4.48-2A9.36,9.36,0,0,1,87.44,8.35Zm2.72-.11a6.85,6.85,0,0,0,1,4.13,3.16,3.16,0,0,0,2.6,1.38,3.11,3.11,0,0,0,2.58-1.37,7,7,0,0,0,1-4.2,6.88,6.88,0,0,0-1-4.1,3.24,3.24,0,0,0-5.24,0A6.86,6.86,0,0,0,90.16,8.24Z"/><path d="M102.45,16.23V.27H105l5.35,10.66V.27h2.46v16h-2.65L104.91,5.82V16.23Z"/><path d="M115.84,16.23V.27h9.71V3h-7.07V6.51h6.57V9.2h-6.57v4.33h7.31v2.7Z"/></svg>