<svg id="Layer_1" data-name="Layer 1" xmlns="http://www.w3.org/2000/svg" width="128" height="128" viewBox="0 0 128 128"><defs><style>.cls-1{fill:#61ce63;}</style></defs><title>Artboard 82</title><rect class="cls-1" x="25.2" y="21.11" width="15.82" height="78.83" rx="0.85" transform="translate(52.49 -5.69) rotate(45)"/><rect class="cls-1" x="74.92" y="5.87" width="15.82" height="9.87" rx="0.85" transform="translate(31.9 -55.4) rotate(45)"/><path class="cls-1" d="M28.55.85S53.34-5.67,76.32,17.31,93.79,66.1,93.79,66.1,85.18,48.21,65.3,28.33,28.55.85,28.55.85Z"/><polygon class="cls-1" points="79.84 97.39 93.03 86.28 117.3 94.76 95.97 106.51 79.84 97.39"/><polygon class="cls-1" points="99.98 110.51 121.26 98.08 128 128 95.34 128 99.98 110.51"/><polygon class="cls-1" points="94.37 109.67 90.08 128 62.28 128 77.01 100.82 94.37 109.67"/><path class="cls-1" d="M70.27,96H56.58a1.9,1.9,0,1,1,0-3.8H70.27a1.9,1.9,0,1,1,0,3.8Z"/><path class="cls-1" d="M79.59,83a1.91,1.91,0,0,1-1.29-.62l-8.55-9.53a1.9,1.9,0,1,1,2.82-2.54l8.56,9.53A1.9,1.9,0,0,1,81,82.5,1.87,1.87,0,0,1,79.59,83Z"/><path class="cls-1" d="M106.25,80.28a1.91,1.91,0,0,1-1.72-2.69l4.72-10.31a1.9,1.9,0,1,1,3.45,1.58L108,79.17A1.9,1.9,0,0,1,106.25,80.28Z"/></svg>