<svg id="Layer_1" data-name="Layer 1" xmlns="http://www.w3.org/2000/svg" width="128" height="128" viewBox="0 0 128 128"><defs><style>.cls-1{fill:#d62525;}</style></defs><title>Mining site (active)</title><rect class="cls-1" x="9.08" y="41.1" width="61.58" height="12.36" rx="0.66" transform="translate(-21.76 42.04) rotate(-45)"/><rect class="cls-1" x="74.86" y="2.27" width="7.71" height="12.36" rx="0.66" transform="translate(17.08 58.13) rotate(-45)"/><path class="cls-1" d="M36.31.67s19.37-5.1,37.32,12.86S87.27,51.64,87.27,51.64s-6.72-14-22.25-29.5S36.31.67,36.31.67Z"/><polygon class="cls-1" points="76.38 76.08 86.68 67.41 105.64 74.03 88.98 83.21 76.38 76.08"/><polygon class="cls-1" points="92.11 86.33 108.73 76.62 114 100 88.49 100 92.11 86.33"/><polygon class="cls-1" points="87.73 85.68 84.38 100 62.66 100 74.17 78.77 87.73 85.68"/><path class="cls-1" d="M68.9,75H58.21a1.49,1.49,0,1,1,0-3H68.9a1.49,1.49,0,1,1,0,3Z"/><path class="cls-1" d="M76.18,64.84a1.47,1.47,0,0,1-1-.48l-6.68-7.45a1.48,1.48,0,0,1,2.11-2.09l.1.11,6.68,7.45a1.47,1.47,0,0,1-.1,2.07A1.43,1.43,0,0,1,76.18,64.84Z"/><path class="cls-1" d="M97,62.72a1.48,1.48,0,0,1-1.47-1.51,1.31,1.31,0,0,1,.13-.59l3.68-8.06a1.48,1.48,0,0,1,2.76,1.09l-.06.15-3.67,8.05A1.48,1.48,0,0,1,97,62.72Z"/><path d="M9.24,127.73v-16h3.95l2.38,10.9,2.36-10.9h4v16H19.44V115.16l-2.61,12.57H14.29L11.7,115.16v12.57Z"/><path d="M24.43,127.73v-16h2.63v16Z"/><path d="M29.62,127.73v-16h2.57l5.35,10.66V111.77H40v16H37.35l-5.27-10.41v10.41Z"/><path d="M42.7,127.73v-16h2.63v16Z"/><path d="M47.89,127.73v-16h2.57l5.36,10.66V111.77h2.46v16H55.62l-5.27-10.41v10.41Z"/><path d="M67.15,121.87v-2.7h5.69v6.36a7.18,7.18,0,0,1-2.44,1.74,7.44,7.44,0,0,1-3.17.73,6.24,6.24,0,0,1-3.42-1,6.54,6.54,0,0,1-2.34-2.86,11.93,11.93,0,0,1,0-9,6.44,6.44,0,0,1,2.28-2.79,5.87,5.87,0,0,1,3.34-.93,5.14,5.14,0,0,1,5.56,4.69l-2.61.6A3.29,3.29,0,0,0,69,114.91a2.79,2.79,0,0,0-1.87-.66,3.34,3.34,0,0,0-2.73,1.31,6.35,6.35,0,0,0-1,4A7.17,7.17,0,0,0,64.46,124a3.11,3.11,0,0,0,2.62,1.3,4.08,4.08,0,0,0,1.61-.37,4.93,4.93,0,0,0,1.48-1v-2Z"/><path d="M79.69,122.53l2.58-.31c.29,2,1.24,3.06,2.86,3.06a2.69,2.69,0,0,0,1.88-.63,2,2,0,0,0,.68-1.55,1.68,1.68,0,0,0-.24-.92,1.73,1.73,0,0,0-.72-.63,20.48,20.48,0,0,0-2.38-.82,8,8,0,0,1-2.47-1.11,4.13,4.13,0,0,1-1.24-1.57,4.81,4.81,0,0,1-.47-2.09,4.62,4.62,0,0,1,.6-2.35A3.88,3.88,0,0,1,82.4,112,5.73,5.73,0,0,1,85,111.5a4.53,4.53,0,0,1,5,4.83l-2.65.14a2.79,2.79,0,0,0-.75-1.79,2.39,2.39,0,0,0-1.64-.51,2.67,2.67,0,0,0-1.64.44,1.38,1.38,0,0,0-.06,2.2,7.2,7.2,0,0,0,2.41,1A9.83,9.83,0,0,1,88.51,119a4.08,4.08,0,0,1,1.35,1.64,5.77,5.77,0,0,1,.47,2.44,5.05,5.05,0,0,1-1.28,3.5,5.15,5.15,0,0,1-4,1.41C81.84,128,80.06,126.18,79.69,122.53Z"/><path d="M92.47,127.73v-16h2.64v16Z"/><path d="M100.58,127.73V114.47H96.7v-2.7h10.39v2.7h-3.88v13.26Z"/><path d="M108.81,127.73v-16h9.71v2.7h-7.08V118H118v2.69h-6.58V125h7.32v2.7Z"/></svg>