<svg id="Layer_1" data-name="Layer 1" xmlns="http://www.w3.org/2000/svg" width="128" height="128" viewBox="0 0 128 128"><title>Artboard 83</title><path d="M18.12,111.77h5.24a8.17,8.17,0,0,1,3,.39,3.42,3.42,0,0,1,1.47,1.39,4.49,4.49,0,0,1,.09,4.32,3.37,3.37,0,0,1-1.34,1.38,3.59,3.59,0,0,1,1.83,1.41,4.42,4.42,0,0,1,.65,2.44,5.05,5.05,0,0,1-.84,3,3.39,3.39,0,0,1-2,1.48,20.42,20.42,0,0,1-3.69.2H18.12Zm2.64,2.66v3.69H22.5a17.7,17.7,0,0,0,1.94-.06,1.61,1.61,0,0,0,1-.57,2,2,0,0,0,.38-1.26,1.9,1.9,0,0,0-.31-1.14,1.28,1.28,0,0,0-.75-.55,15,15,0,0,0-2.53-.11Zm0,6.34V125h2.45a7.69,7.69,0,0,0,2.07-.17,1.52,1.52,0,0,0,.77-.66,2.31,2.31,0,0,0,.31-1.26,2.27,2.27,0,0,0-.33-1.28,1.72,1.72,0,0,0-.88-.7,8.77,8.77,0,0,0-2.26-.19Z"/><path d="M31.55,127.73v-16h9.71v2.7H34.18V118h6.58v2.69H34.18V125H41.5v2.7Z"/><path d="M44,127.73v-16h9.71v2.7H46.59V118h6.58v2.69H46.59V125h7.32v2.7Z"/><path d="M56.37,127.73v-16H59v6.28H64.2v-6.28h2.63v16H64.2v-7H59v7Z"/><path d="M69.7,127.73v-16h2.63v16Z"/><path d="M78.44,127.73l-4.69-16h2.87l3.31,11.81,3.21-11.81h2.8l-4.69,16Z"/><path d="M87.51,127.73v-16h9.7v2.7H90.14V118h6.57v2.69H90.14V125h7.31v2.7Z"/><path d="M99.24,122.53l2.58-.31c.29,2,1.24,3.06,2.86,3.06a2.69,2.69,0,0,0,1.88-.63,2,2,0,0,0,.68-1.55,1.68,1.68,0,0,0-.24-.92,1.76,1.76,0,0,0-.73-.63,21.38,21.38,0,0,0-2.37-.82,8,8,0,0,1-2.47-1.11,4.06,4.06,0,0,1-1.24-1.57,4.78,4.78,0,0,1-.47-2.09,4.64,4.64,0,0,1,.6-2.35A3.88,3.88,0,0,1,102,112a5.73,5.73,0,0,1,2.58-.53,4.53,4.53,0,0,1,5,4.83l-2.65.14a2.79,2.79,0,0,0-.75-1.79,2.39,2.39,0,0,0-1.64-.51,2.65,2.65,0,0,0-1.65.44,1.38,1.38,0,0,0,0,2.2,7.2,7.2,0,0,0,2.41,1,10,10,0,0,1,2.88,1.22,4.08,4.08,0,0,1,1.35,1.64,5.77,5.77,0,0,1,.47,2.44,5.05,5.05,0,0,1-1.28,3.5,5.15,5.15,0,0,1-4,1.41C101.39,128,99.61,126.18,99.24,122.53Z"/><path d="M24.21,16.23V.27h3.95l2.38,10.9L32.9.27h4v16H34.4V3.66L31.8,16.23H29.25L26.67,3.66V16.23Z"/><path d="M39.16,8.35A11.39,11.39,0,0,1,40,3.65,6.43,6.43,0,0,1,42.2.9,5.86,5.86,0,0,1,45.5,0a5.69,5.69,0,0,1,4.58,2.14,9.37,9.37,0,0,1,1.77,6.11A9.51,9.51,0,0,1,50,14.51a5.46,5.46,0,0,1-4.46,2,5.53,5.53,0,0,1-4.48-2A9.36,9.36,0,0,1,39.16,8.35Zm2.72-.11a6.83,6.83,0,0,0,1,4.13,3.16,3.16,0,0,0,2.6,1.38,3.11,3.11,0,0,0,2.58-1.37,7,7,0,0,0,1-4.2,6.88,6.88,0,0,0-1-4.1,3.24,3.24,0,0,0-5.24,0A6.86,6.86,0,0,0,41.88,8.24Z"/><path d="M54.13.27h4.81A7.21,7.21,0,0,1,61.7.68a4.54,4.54,0,0,1,1.71,1.38,7.09,7.09,0,0,1,1.23,2.51,14,14,0,0,1,.45,3.84,12.43,12.43,0,0,1-.47,3.6,7.09,7.09,0,0,1-1.19,2.42,4.53,4.53,0,0,1-1.73,1.35,6.52,6.52,0,0,1-2.62.45H54.13ZM56.76,3V13.53h2a5.21,5.21,0,0,0,1.85-.24,2.21,2.21,0,0,0,.93-.72A4.23,4.23,0,0,0,62.13,11a13.49,13.49,0,0,0,.23-2.75,12.91,12.91,0,0,0-.24-2.8,3.78,3.78,0,0,0-.76-1.61,2.52,2.52,0,0,0-1.26-.77A10.75,10.75,0,0,0,58,3Z"/><path d="M67.56,16.23V.27h9.71V3H70.2V6.51h6.57V9.2H70.2v4.33h7.31v2.7Z"/><path d="M80,16.23V.27h5.57a7.84,7.84,0,0,1,3,.43,3.49,3.49,0,0,1,1.51,1.49,5.21,5.21,0,0,1,.58,2.54,4.8,4.8,0,0,1-.89,3,4,4,0,0,1-2.56,1.44,6.44,6.44,0,0,1,1.41,1.33,18.91,18.91,0,0,1,1.51,2.6l1.59,3.11H88.58l-1.91-3.47a22.24,22.24,0,0,0-1.41-2.36,1.94,1.94,0,0,0-.78-.65,3.6,3.6,0,0,0-1.33-.18h-.54v6.66ZM82.61,7h2a9.43,9.43,0,0,0,2.28-.16,1.44,1.44,0,0,0,.8-.63A2.4,2.4,0,0,0,88,5a2.2,2.2,0,0,0-.3-1.22,1.6,1.6,0,0,0-.83-.64A10.42,10.42,0,0,0,84.68,3H82.61Z"/><path d="M93.41,16.23V.27H96l5.35,10.66V.27h2.46v16h-2.65L95.87,5.82V16.23Z"/><polygon points="15.44 97.84 16.48 98.29 16.48 102.89 15.41 102.24 15.44 97.84"/><polygon points="16.84 98.44 18.38 99.1 17.89 102.55 16.84 102.95 16.84 98.44"/><polygon points="23.11 101.11 24.15 101.56 24.15 105.94 23.09 105.29 23.11 101.11"/><path d="M15.06,64.54c-.6.16-1.16.45-1.8.68.05-1,.09-2.14.12-3.12.89-.38,1.78-.78,2.66-1.19l2.86-1.33c1.84-.85,3.69-1.69,5.52-2.56l.09,3.75L20.1,62.52Z"/><path d="M25.18,98.12,15,95.35l-.12-23.5c3.4-.73,6.82-1.43,10.22-2.18V71c0,1.71,0,3.43,0,5.14v5.15l0,2.12c-3.37-.25-6.73-.21-10.1-.43v.48c3.36.36,6.73.72,10.1,1.06Z"/><polygon points="18.78 98.76 18.78 98.74 18.72 98.73 15.06 97.21 15.05 95.86 25.19 99.1 25.2 101.44 18.78 98.76"/><path d="M25.15,68.46c-3.42.84-6.83,2.12-10.24,3l0-6.17L25.23,61C25.19,63.73,25.17,65.72,25.15,68.46Z"/><path d="M25.74,101.85h.35l-.52,3.76-1.06.4v-4.29l.86.37.37.16Z"/><path d="M42.09,100.91l.89-.08v3l-.59-.39Z"/><path d="M44.66,88.32c0,2.78,0,4.88,0,7.65l-4.55.49L35.22,97l-4.88.57-4.59.58.07-13.7,9.3-.27c1.65-.06,3.3-.16,5-.29s3.09-.26,4.63-.44Z"/><path d="M33.79,78.67l0,.4-.63-.21v-.53Z"/><path d="M34.15,78.56l5.44-.23.06.47c-1.47.11-4.79.29-5.48.33Z"/><path d="M40.11,70c-1.63,0-3.26-.08-4.89-.15L25.8,69.3c0,.45,0,1.2,0,1.65,0,1.71,0,3.43,0,5.14v5.15l0,2.09,9.27-.55c1.65-.08,3.31-.13,5-.15s3.1,0,4.65,0l0-3L44.78,70C43.22,70.05,41.67,70,40.11,70ZM33,77.3a1.06,1.06,0,0,1,.93-1.14l5.41,0a1,1,0,0,1,.93,1.14L33,77.36Zm7.37,1.83h-.17c-.19,0-5.87.35-6.17.35h-.18l-.95-.36v-.9l0-.06.14-.32a4.34,4.34,0,0,1,.83.39L39.52,78a2.11,2.11,0,0,0-.43-.22l.17-.32s.47.25,1,.57l.11.07Z"/><path d="M43.34,100.79l1.48-.18V104H43.34Z"/><path d="M44.78,69.1c-.69-.08-4.48,0-8.62-.37A103.6,103.6,0,0,0,25.8,68.4c0-2.82,0-4.51-.09-7.33l19.12,1.46Z"/><path d="M45.05,97.33l.18,0c0,.49,0,1.24,0,1.63s0,.75-.07,1.13c-1.59,0-3.18.12-4.76.25l-5,.49c-3.21.3-6.43.63-9.64,1V98.91c1.54-.1,3.08-.22,4.62-.33l4.9-.39,4.89-.42C41.79,97.62,43.42,97.49,45.05,97.33Z"/><path d="M24.88,60.74l.06-3.83c.88.15,1.5.25,2.38.37s1.85.26,2.78.37c1.85.23,3.71.4,5.57.54l11,.85.16,3.39-1.66-.07V62.2L25.71,60.63V60.3Z"/><polygon points="52.85 49.58 53.55 49.88 53.55 52.98 52.83 52.54 52.85 49.58"/><polygon points="53.79 49.98 54.83 50.42 54.5 52.75 53.79 53.02 53.79 49.98"/><polygon points="58.02 51.78 58.72 52.09 58.72 55.03 58 54.59 58.02 51.78"/><path d="M52.6,27.14c-.41.11-.79.3-1.22.46,0-.66.06-1.44.08-2.1.6-.26,1.2-.52,1.8-.81l1.92-.89,3.72-1.72L59,24.6l-3,1.18Z"/><path d="M59.41,49.76,52.58,47.9,52.5,32.07l6.89-1.47c0,.28,0,.57,0,.86,0,1.16,0,2.31,0,3.46v4.9c-2.27-.17-4.53-.14-6.8-.29v.33l6.81.71Z"/><polygon points="55.1 50.2 55.1 50.19 55.06 50.18 52.59 49.16 52.59 48.24 59.42 50.43 59.43 52 55.1 50.2"/><path d="M59.39,29.78c-2.3.57-4.6,1.43-6.89,2l0-4.15,7-2.88C59.42,26.6,59.41,27.94,59.39,29.78Z"/><path d="M59.79,52.28H60l-.36,2.53-.71.28V52.19l.58.24.25.11Z"/><path d="M70.8,51.65l.6-.06v2L71,53.33Z"/><path d="M72.54,43.16c0,1.88,0,3.29,0,5.16l-3.07.33L66.17,49l-3.28.39-3.09.39.05-9.23,6.26-.18c1.11-.05,2.22-.11,3.34-.2s2.07-.17,3.11-.3Z"/><path d="M65.21,36.67v.26l-.42-.14v-.36Z"/><path d="M65.46,36.59l3.66-.16,0,.32c-1,.07-3.23.19-3.69.22Z"/><path d="M69.47,30.84c-1.1,0-2.19-.05-3.29-.1l-6.35-.39v1.11c0,1.15,0,2.31,0,3.47V39.8l6.24-.37c1.11-.06,2.23-.09,3.34-.1s2.09,0,3.13,0l0-2,0-6.51C71.57,30.85,70.52,30.85,69.47,30.84Zm-4.8,4.9a.72.72,0,0,1,.62-.77l3.65,0a.71.71,0,0,1,.63.77l-4.9.06Zm5,1.23h-.11c-.13,0-4,.24-4.16.24h-.12L64.6,37v-.64l.1-.22a2.5,2.5,0,0,1,.56.27l3.8-.16a1.36,1.36,0,0,0-.28-.15l.11-.22s.31.17.66.39l.07,0Z"/><path d="M71.65,51.56q.5,0,1-.12v2.25h-1Z"/><path d="M72.62,30.22c-.47-.06-3,0-5.81-.26-3.38-.3-7-.22-7-.22,0-1.9,0-3-.06-4.93l12.88,1Z"/><path d="M72.8,49.24l.12,0c0,.33,0,.83,0,1.1s0,.51,0,.76c-1.07,0-2.14.08-3.21.17l-3.34.33c-2.17.2-4.34.42-6.5.64V50.3l3.11-.22,3.3-.26,3.29-.29Z"/><path d="M59.21,24.58l0-2.58c.59.11,1,.17,1.6.25s1.25.18,1.87.25c1.25.16,2.5.27,3.76.36l7.43.58L74,25.72l-1.12,0v-.11l-13.13-1v-.22Z"/><polygon points="112.88 83.58 111.99 83.95 111.99 87.89 112.9 87.33 112.88 83.58"/><polygon points="111.68 84.09 110.37 84.65 110.78 87.6 111.68 87.94 111.68 84.09"/><polygon points="106.32 86.37 105.43 86.75 105.43 90.5 106.34 89.94 106.32 86.37"/><path d="M113.2,55.11c.51.13,1,.38,1.54.58,0-.84-.08-1.84-.1-2.68-.76-.32-1.53-.65-2.28-1l-2.44-1.14c-1.57-.72-3.15-1.44-4.72-2.18l-.08,3.21,3.77,1.49Z"/><path d="M104.55,83.81l8.66-2.36.11-20.1c-2.91-.62-5.83-1.22-8.74-1.86,0,.36,0,.73,0,1.09,0,1.47,0,2.94,0,4.4V71.2c2.88-.22,5.75-.18,8.63-.38v.42l-8.64.9Z"/><polygon points="110.02 84.36 110.02 84.34 110.07 84.34 113.2 83.04 113.21 81.88 104.54 84.65 104.53 86.65 110.02 84.36"/><path d="M104.58,58.46c2.92.71,5.83,1.8,8.75,2.53l0-5.27-8.85-3.65C104.54,54.42,104.56,56.11,104.58,58.46Z"/><path d="M104.07,87h-.3l.45,3.21.9.35V86.88l-.73.32-.32.13Z"/><path d="M90.09,86.2l-.76-.07v2.54l.51-.34Z"/><path d="M87.89,75.43c0,2.38,0,4.18,0,6.55,1.3.13,2.6.28,3.9.42l4.17.46,4.17.49,3.92.49L104,72.13l-8-.23c-1.41-.06-2.82-.14-4.23-.25s-2.64-.22-4-.38Z"/><path d="M97.19,67.19l0,.34.54-.18v-.46C97.57,67,97.36,67.09,97.19,67.19Z"/><path d="M96.88,67.09l-4.65-.2,0,.41c1.25.09,4.1.24,4.69.28Z"/><path d="M87.79,59.78l0,8.26,0,2.56c1.33,0,2.65,0,4,0s2.83.06,4.24.13l7.92.47V65c0-1.46,0-2.93,0-4.4,0-.38,0-1,0-1.41l-8.06.5c-1.39.06-2.78.11-4.18.13S89.12,59.82,87.79,59.78Zm10.09,6.29L91.66,66a.91.91,0,0,1,.8-1l4.63,0a.9.9,0,0,1,.79,1Zm-6.3.63.1,0a9.5,9.5,0,0,1,.83-.49l.14.27a3.2,3.2,0,0,0-.36.19l4.83.2a4.33,4.33,0,0,1,.71-.34l.12.28,0,0v.77l-.82.31H97c-.25,0-5.11-.29-5.28-.3h-.14Z"/><path d="M89,86.09c-.43,0-.85-.09-1.27-.15v2.85H89Z"/><path d="M87.79,59c.59-.08,3.83,0,7.37-.32,4.29-.39,8.86-.29,8.86-.29,0-2.4,0-3.85.08-6.26L87.75,53.39Z"/><path d="M87.56,83.14l-.15,0c0,.42,0,1.06,0,1.4l.06,1c1.36,0,2.72.1,4.07.22l4.25.41c2.75.26,5.49.54,8.24.82V84.49c-1.32-.08-2.63-.19-4-.28l-4.18-.33-4.19-.37C90.35,83.39,89,83.28,87.56,83.14Z"/><path d="M104.81,51.86l-.06-3.28c-.75.13-1.28.22-2,.32s-1.58.22-2.37.32c-1.59.2-3.18.34-4.77.45l-9.43.73L86,53.3l1.43-.06V53.1l16.66-1.33v-.29Z"/></svg>