<svg id="Layer_1" data-name="Layer 1" xmlns="http://www.w3.org/2000/svg" width="128" height="128" viewBox="0 0 128 128"><title>Artboard 84</title><path d="M123.9,92.06c-3.11-8.3-5.16-20.24-5.62-32.84a79.5,79.5,0,0,0-7.34-26.7,2,2,0,0,0-.48-.7,2.23,2.23,0,0,0-1-.18c-.11,0-66.33.4-74.3,0a1.8,1.8,0,0,0-.57.07,1.32,1.32,0,0,0-.48.25c-7,5.41-28.81,29.12-29.73,30.13a1.6,1.6,0,0,0,2.36,2.16C7,64,28.35,40.76,35.65,34.86c1.79.07,4.75.12,8.47.15C23.89,51.49,10.41,72.4,10.26,72.63A1.6,1.6,0,0,0,13,74.35C13.1,74.12,27.7,51.48,49.24,35l6.37,0c-24,22.88-41.85,54.89-42,55.22a1.61,1.61,0,0,0,.63,2.17,1.53,1.53,0,0,0,.77.2,1.6,1.6,0,0,0,1.4-.83c.19-.33,19-34.15,43.93-56.76h8C64.54,40.14,55.74,52.1,47.18,63.88A52.18,52.18,0,0,0,40.6,76.29c-3.69,9.93-8.27,13.42-8.34,13.47a1.6,1.6,0,0,0,1.88,2.59c.22-.16,5.37-4,9.46-14.95a48.31,48.31,0,0,1,6.17-11.64C59.71,52.07,70,38.15,72.27,35l4.22,0c-3,6-12.34,24.62-17,35.41-6.91,14.34-5.27,21.5-5.2,21.79a1.59,1.59,0,0,0,1.54,1.21,1.64,1.64,0,0,0,.38,0,1.61,1.61,0,0,0,1.19-1.91c0-.06-1.36-6.53,5-19.71,5.2-11.92,16-33.36,17.74-36.76h3.45c-1.94,7-8.63,31.05-11.8,38.44l0,.14a39.92,39.92,0,0,0-.87,20.61,1.56,1.56,0,0,0,1.5,1.08,1.59,1.59,0,0,0,.48-.07,1.62,1.62,0,0,0,1.06-2,37.25,37.25,0,0,1,.85-18.58C78.15,66.53,85.26,40.77,86.85,35l4.67,0c-.59,3-2,10.16-5.17,24.68-2.63,12.5-3,24.14-1,34.6.05.28.09.48.11.6a1.6,1.6,0,0,0,3.19-.08,6.92,6.92,0,0,0-.16-1.12c-1.91-10-1.59-21.25,1-33.34,3.39-15.74,4.8-22.75,5.31-25.36l6.54,0c-3.58,9.8-4.31,19.33-5,28.57l-.19,2.41C94.94,81,99.29,92.2,99.73,92.79a1.56,1.56,0,0,0,1.28.65,1.59,1.59,0,0,0,.95-.31,1.61,1.61,0,0,0,.45-2.06,60.3,60.3,0,0,1-3.09-24.94l.18-2.42c.72-9.37,1.46-19.06,5.26-28.84l3.75,0a77.61,77.61,0,0,1,6.58,24.55c.47,12.86,2.59,25.18,5.82,33.78a1.6,1.6,0,0,0,1.49,1,1.54,1.54,0,0,0,.56-.1A1.6,1.6,0,0,0,123.9,92.06Z"/><path d="M38.62,128V111.64h2.72v13.57h6.8V128Z"/><path d="M62.53,128h-3l-1.19-3.74H53L51.85,128H48.94l5.27-16.5h2.9Zm-5-6.53-1.87-6.12-1.83,6.12Z"/><path d="M64.22,128V111.5h2.66l5.54,11v-11H75V128H72.21l-5.44-10.76V128Z"/><path d="M78.05,111.5h5a7.43,7.43,0,0,1,2.85.42,4.77,4.77,0,0,1,1.77,1.43,7.26,7.26,0,0,1,1.27,2.6,14.43,14.43,0,0,1,.46,4,12.92,12.92,0,0,1-.48,3.72,7.29,7.29,0,0,1-1.23,2.5,4.65,4.65,0,0,1-1.79,1.39,6.71,6.71,0,0,1-2.7.47H78.05Zm2.72,2.79v10.92h2a5.24,5.24,0,0,0,1.91-.25,2.24,2.24,0,0,0,1-.75,4.2,4.2,0,0,0,.62-1.58,12.79,12.79,0,0,0,.25-2.84,13.54,13.54,0,0,0-.25-2.89,3.9,3.9,0,0,0-.79-1.66,2.45,2.45,0,0,0-1.3-.8,10.52,10.52,0,0,0-2.22-.15Z"/><path d="M28.91,10.36l2.55,1a7.13,7.13,0,0,1-2,3.91A5,5,0,0,1,26,16.5a5.08,5.08,0,0,1-4.14-2,9.52,9.52,0,0,1-1.83-6.14A10,10,0,0,1,21.91,2a5.23,5.23,0,0,1,4.3-2,5,5,0,0,1,3.68,1.5,6.5,6.5,0,0,1,1.55,3.17l-2.61.76a3.59,3.59,0,0,0-1-2,2.5,2.5,0,0,0-1.76-.69A2.81,2.81,0,0,0,23.7,4a7.26,7.26,0,0,0-.91,4.16,7.79,7.79,0,0,0,.89,4.29A2.73,2.73,0,0,0,26,13.75a2.4,2.4,0,0,0,1.81-.81A5.26,5.26,0,0,0,28.91,10.36Z"/><path d="M34,16.23V.4h2.63V13.53h6.57v2.7Z"/><path d="M45.34,16.23V.27h9.71V3H48V6.51h6.58V9.2H48v4.33h7.32v2.7Z"/><path d="M69.55,16.23H66.69l-1.15-3.62H60.3l-1.08,3.62H56.41l5.1-16h2.8ZM64.69,9.92,62.88,4,61.11,9.92Z"/><path d="M71.17,16.23V.27h5.56a7.9,7.9,0,0,1,3,.43,3.42,3.42,0,0,1,1.5,1.49,5.21,5.21,0,0,1,.59,2.54,4.74,4.74,0,0,1-.9,3,4,4,0,0,1-2.55,1.44,6.61,6.61,0,0,1,1.4,1.33,18.91,18.91,0,0,1,1.51,2.6l1.59,3.11H79.77l-1.91-3.47a25,25,0,0,0-1.4-2.36,2,2,0,0,0-.79-.65,3.57,3.57,0,0,0-1.33-.18H73.8v6.66ZM73.8,7h2a9.53,9.53,0,0,0,2.29-.16,1.42,1.42,0,0,0,.79-.63A2.4,2.4,0,0,0,79.14,5a2.2,2.2,0,0,0-.3-1.22A1.56,1.56,0,0,0,78,3.09,10.35,10.35,0,0,0,75.87,3H73.8Z"/><path d="M84.58,16.23V.27h9.71V3H87.21V6.51h6.58V9.2H87.21v4.33h7.32v2.7Z"/><path d="M97,.27h4.82a7.21,7.21,0,0,1,2.76.41,4.54,4.54,0,0,1,1.71,1.38,7.09,7.09,0,0,1,1.23,2.51,14.38,14.38,0,0,1,.44,3.84,12.09,12.09,0,0,1-.47,3.6,7.09,7.09,0,0,1-1.18,2.42,4.61,4.61,0,0,1-1.73,1.35,6.52,6.52,0,0,1-2.62.45H97ZM99.61,3V13.53h2a5.1,5.1,0,0,0,1.84-.24,2.31,2.31,0,0,0,.94-.72A4.33,4.33,0,0,0,105,11a12.72,12.72,0,0,0,.24-2.75,12.91,12.91,0,0,0-.24-2.8,3.78,3.78,0,0,0-.77-1.61A2.45,2.45,0,0,0,103,3.11,10.87,10.87,0,0,0,100.8,3Z"/></svg>