<svg id="Layer_1" data-name="Layer 1" xmlns="http://www.w3.org/2000/svg" width="128" height="128" viewBox="0 0 128 128"><title>Artboard 85</title><path d="M22.52,42.93a7.67,7.67,0,0,1,.81-.65,8.14,8.14,0,0,1,.94-.46,7.6,7.6,0,0,1,9.15,1.94,6.37,6.37,0,0,1,1.08,1.77,4.51,4.51,0,0,1,.25,1,2.22,2.22,0,0,1,0,.37,17,17,0,0,1,7.36-4,12,12,0,0,1-3-1.34C38,40.87,37,40,35.88,39.25a22.49,22.49,0,0,0-3.36-2.07c-.29-.14-.59-.26-.9-.39a2.6,2.6,0,0,0-.89-.16,16.17,16.17,0,0,0-8.13,2.48c-1.89,1.26-4,4.78-5.37,7a75.35,75.35,0,0,0-6.58,14.39c-.85,2.55-3.35,9.19-3.37,9.24a19.16,19.16,0,0,0-1,1.91,10.11,10.11,0,0,0-.46,1.8,18.47,18.47,0,0,0-.15,1.93A12.3,12.3,0,0,1,5,78.6c.23-.15.47-.28.68-.42l.85-.55a2.4,2.4,0,0,0,.59-.53A5.19,5.19,0,0,0,8,75.6a5.29,5.29,0,0,0,.36-1.74,20.4,20.4,0,0,1,.2-2c.06-.35.07-1.17.16-1.53S16.62,50.59,20,46.09A23.43,23.43,0,0,1,22.52,42.93Z"/><path d="M70.63,97.65a2.61,2.61,0,0,0-1.2-.66,2.74,2.74,0,0,0-1.38.1l-.08,0h-.06a25.88,25.88,0,0,1-3.84,0c-1.26-.08-2.51-.19-3.76-.35l-1-.13-.5-.1h-.08a1.54,1.54,0,0,1-.26-.13,2.09,2.09,0,0,1-.22-.23l-.16-.31a10.61,10.61,0,0,1-.49-1.94c-.23-1.25-.4-2.48-.56-3.72-.33-2.48-.58-5-.87-7.43a43.56,43.56,0,0,0-1.48-7.25v0h0c-.15-1-.31-2-.51-3.07-.09-.51-.19-1-.31-1.52,0-.21-.1-.41-.15-.61a49.23,49.23,0,0,1-4.52-2.62c-.82-.55-1.63-1.12-2.42-1.71-.41-.29-.79-.6-1.18-.9l-.59-.46a.73.73,0,0,1-.14-.16,3.69,3.69,0,0,0-.17.42l-.48,1.24-1,2.46L41.8,72.3c.72.83,1.45,1.67,2.18,2.49.43.47.85.95,1.29,1.42a18.78,18.78,0,0,0,1.35,1.33l.09.08,0,.14a12.07,12.07,0,0,0,.45,5.46,17,17,0,0,0,2.3,5l0,.06,0,.08c.79,2.77,1.54,5.55,2.23,8.34A6.55,6.55,0,0,0,53,99a1.57,1.57,0,0,0,.86.52h1.38l5.85,0,10.74,0a6.28,6.28,0,0,0-.27-.59A4.93,4.93,0,0,0,70.63,97.65Z"/><path d="M83.11,100.43s0,0,0,0a.15.15,0,0,1,0-.09Z"/><path d="M83.16,100.59v0a0,0,0,0,1,0,0Z"/><path d="M92.11,98.37c-1.64-.41-3.63-.74-4-.79l-.31,0-.16-.21L85.32,94.5l-.1-.13,0-.16L83.45,81.69l-.12-.78-.14-.79c0-.57-.06-1.08-.08-1.61l0-3.17c0-.88-.06-2.2,0-5.25a76.6,76.6,0,0,1-8.32,2.39c.38,3.24.71,6.23,1.27,9.43.33,1.66.81,3.35,1.26,5s.9,3.35,1.4,5a5.29,5.29,0,0,0,.4,1.06c.22.32.48.67.74,1L81.39,96l1.61,2,.8,1,.4.54h0c3,.06,7,0,10.08-.06C94.49,97.9,93.27,98.65,92.11,98.37Z"/><path d="M108.05,40.67v0c.15-.94.29-1.89.45-2.83a8.9,8.9,0,0,1-1.15,0,19.65,19.65,0,0,1-3-.26l.11.23a6.38,6.38,0,0,1,.44,1,3.23,3.23,0,0,1,0,2.31c-.64,1.41-1.75,2.33-2.39,3.52a3.65,3.65,0,0,0-.36.93,10,10,0,0,1-.27,1c-.21.68-.46,1.34-.69,2a16.38,16.38,0,0,0-.63,2.28c.9.42,1.81.78,2.73,1.11a28.86,28.86,0,0,0,2.9,1c1,.22,2,.54,2.58-.21,0,0-4.67-2.93-5.08-3.16v-.07c.5.17.93.39,1.39.59l1.33.66,1.34.65c.34.17,1.09.57,1.44.71a.23.23,0,0,0,.27-.06L111,50.62l1.1-1.07.28-.27a1.42,1.42,0,0,0,.17-.21.86.86,0,0,0,.1-.52,1.33,1.33,0,0,0-.28-.54l-.44-.62c-.29-.44-.57-.82-.87-1.3q-1.55-2.67-3-5.38Zm-.79-1.39a1,1,0,0,1-.84.37,1,1,0,0,1-.83-.37.57.57,0,0,1-.13-.36.58.58,0,0,1,.13-.37,1,1,0,0,1,.83-.37,1,1,0,0,1,.84.37.58.58,0,0,1,.13.37A.57.57,0,0,1,107.26,39.28Z"/><path d="M94.35,30.11l-.07,0C94.22,30.05,94.24,30.11,94.35,30.11Z"/><path d="M122.72,94.71a2.57,2.57,0,0,0-.57-1.08,6,6,0,0,0-.51-.52l-.55-.58L119,90.24A11.84,11.84,0,0,1,117.91,89a6.5,6.5,0,0,1-.84-1.39l-1.49-2.18a18.49,18.49,0,0,1-2.13-1.28,9.66,9.66,0,0,1-2-1.8c-1.12-1.32-2.19-2.65-3.27-4l-3.24-4-1.63-2-.84-1-.42-.47c-.12-.15-.27-.22-.32-.44-.07,0,0-.07,0-.11v-.13l0-.26.09-.57c.06-.33.14-.66.23-1s.18-.65.3-1c0-.17.13-.35.18-.49a1.87,1.87,0,0,0,.1-.45,17.35,17.35,0,0,0,0-4,24.29,24.29,0,0,0-.7-3.93c-.08-.31-.19-.61-.29-.92s-.22-.55-.38-.88c-.29-.64-.54-1.28-.81-1.92-1-2.57-1.91-5.16-2.84-7.73l-.72-1.93c-.23-.65-.45-1.31-.64-2s-.34-1.36-.46-2a11,11,0,0,1-.26-2.06,23.93,23.93,0,0,0,1.31,3.88c.5,1.26,2.65,6.07,3,6.67a18.32,18.32,0,0,1,1.53-5.66c.74-1.28,2.4-2,2.86-3.19a2.5,2.5,0,0,0-.08-1.82,7.3,7.3,0,0,0-.41-.9l-.26-.46-.14-.24-.07-.15a.39.39,0,0,1,0-.09.68.68,0,0,1,0-.19l0-.49.53.08a21.94,21.94,0,0,0,3.61.27,8.82,8.82,0,0,0,1.74-.2,1.77,1.77,0,0,0,.91-.46,37.36,37.36,0,0,0-5.15-4.91,21.39,21.39,0,0,0-6.33-3.56A9.22,9.22,0,0,0,95,27.41H94l-.89,0c-.61,0-1.23.13-1.84.22a28.53,28.53,0,0,0-3.65.77c-1.21.32-10.91,5.21-11.29,5.4h0c-.34.18-1,.65-1,.65s-3.7.87-5.47,1.34c-.87.24-1.75.49-2.6.78-.43.15-.84.3-1.25.47a10,10,0,0,0-1.14.65s-10.19.47-14,2.7a23.16,23.16,0,0,1-3.29,1.37c-1.11.45-2.24.84-3.4,1.19-.58.16-1.15.32-1.75.45-.29.06-.64.09-.88.14a6.89,6.89,0,0,0-.81.26c-.29.11-.56.23-.84.35a17.82,17.82,0,0,0-5.51,4c-.8,1.23-1.27,2.76-2.18,4v0h0a26.5,26.5,0,0,0-2,2.11A7.57,7.57,0,0,0,28.92,57a26.16,26.16,0,0,0-.6,2.85c-.05.28-.13.74-.18,1.08h0l0,.18h0c-.08.55-.16,1.08-.22,1.62a29.6,29.6,0,0,0-.12,5.8,31.66,31.66,0,0,0,1,5.7l.05.18-.11.16c-1.17,1.8-2.47,3.51-3.59,5.28a13.89,13.89,0,0,0-2.28,5.68v.08l0,.07a19.09,19.09,0,0,1-2.27,4.1,8.17,8.17,0,0,1-.92.94,7.34,7.34,0,0,0-.69.67,2,2,0,0,0-.67,1.58,1.89,1.89,0,0,0,.67,1.59c.48.48,1.08,1,1.62,1.5l3.19,2.8c3.4,0,6.8,0,10.19,0,0-.34-.11-.7-.19-1a4,4,0,0,0-.58-1.47l-.08-.07-.08,0a1.17,1.17,0,0,0-.33-.11,2.92,2.92,0,0,0-.79,0,3.88,3.88,0,0,0-.83.13,2.79,2.79,0,0,0-.72.27l-.26.15-.23,0c-.69-.11-1.64,0-2.59-.11a2.86,2.86,0,0,1-1.59-.58,3,3,0,0,1-.88-1.46,1.8,1.8,0,0,1,0-1,1.5,1.5,0,0,1,.73-.87,9.66,9.66,0,0,0,1-.65c.53-.4,1.05-.81,1.56-1.24.83-.71,1.67-1.43,2.42-2.19a11.19,11.19,0,0,0,.8-.92L32,86.45l3-4.34c.49-.73,1-1.46,1.47-2.19s.89-1.48,1.36-2.24a51.78,51.78,0,0,0,2.53-4.59l2.06-4.88,1-2.44L44,64.55l1.46-2.31s2.56-7.47,2.68-9.46c1,4.83-2.55,11-2.52,11s7.88,5.63,14.77,7.42A20.87,20.87,0,0,0,66,72a48.45,48.45,0,0,0,11.44-1.58q2.83-.67,5.61-1.61c1.74-.54,3.44-1.18,5.11-1.88L88,66.6c-.41-.66-.81-1.33-1.2-2a12.31,12.31,0,0,1-1-2.23L85.71,62a2,2,0,0,1,0-.49v-.14l0-.24c0-.36-.1-.72-.17-1.1-.24-1.49-.53-3-.74-4.53-.12-.76-.21-1.53-.29-2.3,0-.39-.07-.77-.08-1.16a3.28,3.28,0,0,1,.07-1.17,1.31,1.31,0,0,0,.1.55l.17.56.36,1.09c.23.74.47,1.47.68,2.21.44,1.48.83,3,1.14,4.49.08.39.15.77.2,1.19a2.92,2.92,0,0,1,0,.76s0,0,0,.09l0,.2a17.47,17.47,0,0,0,.72,2c.26.71.57,1.41.86,2.12l.45,1.06.23.54a1.22,1.22,0,0,1,.1.34,3.55,3.55,0,0,1,.59.91l.72,1.29,3,5.14c.49.86,1,1.71,1.45,2.6l0,.05,0,.07a1.62,1.62,0,0,0,.77.84,10.06,10.06,0,0,0,1.31.67c.93.4,1.91.75,2.88,1.16a12.71,12.71,0,0,1,2.85,1.54,24.35,24.35,0,0,1,2.44,2.06c.76.73,1.5,1.49,2.21,2.25l1.06,1.16.52.59.26.28a2.5,2.5,0,0,0,.22.24,7.57,7.57,0,0,0,2.53,1.24,13.41,13.41,0,0,1,3,1.31,6.41,6.41,0,0,1,1.92,1.92,5.46,5.46,0,0,1,.59,2,.44.44,0,0,0,.32.38l1.32.41c.78.23,1.75,3.32,1.91,3.79a.22.22,0,0,0,.33.12,3.48,3.48,0,0,0,1.06-.89C123.21,98.54,122.92,95.51,122.72,94.71ZM40.39,50a3.62,3.62,0,0,1-1,1.43,3.53,3.53,0,0,1-1.58.79c-.54.12-1,.15-1.4.27A3.13,3.13,0,0,0,35.4,53a16.26,16.26,0,0,0-2,1.9,15.49,15.49,0,0,0-1.7,2.21,5.85,5.85,0,0,0-.6,1.2,8.59,8.59,0,0,1-.61,1.41,3.24,3.24,0,0,1-1.09,1.15,1.59,1.59,0,0,1-.79.19h0a18.13,18.13,0,0,1,1.62-5.41,7.82,7.82,0,0,1,2.44-2.94,29.34,29.34,0,0,1,3.27-4.85c1.59-1.72,3.55-3.16,4.23-3a8.42,8.42,0,0,1,.52,2.06A6.75,6.75,0,0,1,40.39,50ZM95,30.51a4.68,4.68,0,0,0-.49-.33c0,.06,0,.13-.08.2a5.81,5.81,0,0,0-.2.55c-.13.38-.26.77-.36,1.16a7.37,7.37,0,0,0-.25,1,2.93,2.93,0,0,0,.22,1c.26.78.57,1.59.84,2.45a6.78,6.78,0,0,1-1.85-2,3.34,3.34,0,0,1-.35-.62,2.29,2.29,0,0,1-.23-.83,5.53,5.53,0,0,1,.23-1.47A7.87,7.87,0,0,1,93,30.41a6.47,6.47,0,0,1,.34-.63,3.05,3.05,0,0,1,.22-.32l.17-.18.11-.09a.86.86,0,0,1,.2-.13.82.82,0,0,1,.81.11,1.78,1.78,0,0,1,.31.3,4.29,4.29,0,0,1,.4.58A5.25,5.25,0,0,1,96,31.3C95.66,31,95.32,30.76,95,30.51Z"/><path d="M24.22,111.77h5.24a8.17,8.17,0,0,1,3,.39A3.42,3.42,0,0,1,34,113.55a4.49,4.49,0,0,1,.09,4.32,3.37,3.37,0,0,1-1.34,1.38,3.54,3.54,0,0,1,1.83,1.41,4.42,4.42,0,0,1,.65,2.44,5.05,5.05,0,0,1-.84,3,3.39,3.39,0,0,1-2,1.48,20.42,20.42,0,0,1-3.69.2H24.22Zm2.64,2.66v3.69H28.6a17.7,17.7,0,0,0,1.94-.06,1.61,1.61,0,0,0,1.05-.57,2.27,2.27,0,0,0,.07-2.4,1.28,1.28,0,0,0-.75-.55,15,15,0,0,0-2.53-.11Zm0,6.34V125h2.45a7.69,7.69,0,0,0,2.07-.17,1.52,1.52,0,0,0,.77-.66,2.31,2.31,0,0,0,.31-1.26,2.27,2.27,0,0,0-.33-1.28,1.72,1.72,0,0,0-.88-.7,8.77,8.77,0,0,0-2.26-.19Z"/><path d="M49.45,127.73H46.58l-1.14-3.62H40.2l-1.08,3.62H36.31l5.09-16h2.8Zm-4.86-6.31-1.81-5.93L41,121.42Z"/><path d="M51.05,111.77h5.24a8.17,8.17,0,0,1,3,.39,3.42,3.42,0,0,1,1.47,1.39,4.49,4.49,0,0,1,.09,4.32,3.43,3.43,0,0,1-1.34,1.38,3.52,3.52,0,0,1,1.82,1.41A4.34,4.34,0,0,1,62,123.1a5.05,5.05,0,0,1-.84,3,3.45,3.45,0,0,1-2,1.48,20.42,20.42,0,0,1-3.69.2H51.05Zm2.63,2.66v3.69h1.75a17.34,17.34,0,0,0,1.93-.06,1.63,1.63,0,0,0,1.06-.57,2,2,0,0,0,.38-1.26,1.9,1.9,0,0,0-.31-1.14,1.28,1.28,0,0,0-.75-.55,15,15,0,0,0-2.53-.11Zm0,6.34V125h2.46a7.74,7.74,0,0,0,2.07-.17,1.52,1.52,0,0,0,.77-.66,2.31,2.31,0,0,0,.31-1.26,2.27,2.27,0,0,0-.33-1.28,1.71,1.71,0,0,0-.89-.7,8.62,8.62,0,0,0-2.25-.19Z"/><path d="M63.93,119.85a11.22,11.22,0,0,1,.85-4.7A6.36,6.36,0,0,1,67,112.4a5.86,5.86,0,0,1,3.3-.9,5.64,5.64,0,0,1,4.57,2.14,9.37,9.37,0,0,1,1.77,6.11A9.5,9.5,0,0,1,74.75,126a5.46,5.46,0,0,1-4.46,2,5.55,5.55,0,0,1-4.49-2A9.42,9.42,0,0,1,63.93,119.85Zm2.72-.11a6.78,6.78,0,0,0,1,4.13,3.13,3.13,0,0,0,5.18,0,7,7,0,0,0,1-4.2,6.8,6.8,0,0,0-1-4.1,3.23,3.23,0,0,0-5.23,0A6.85,6.85,0,0,0,66.65,119.74Z"/><path d="M78.38,119.85a11.39,11.39,0,0,1,.84-4.7,6.45,6.45,0,0,1,2.21-2.75,5.82,5.82,0,0,1,3.3-.9,5.64,5.64,0,0,1,4.57,2.14,9.37,9.37,0,0,1,1.77,6.11A9.5,9.5,0,0,1,89.2,126a5.47,5.47,0,0,1-4.46,2,5.55,5.55,0,0,1-4.49-2A9.36,9.36,0,0,1,78.38,119.85Zm2.72-.11a6.78,6.78,0,0,0,1.05,4.13,3.12,3.12,0,0,0,5.17,0,7,7,0,0,0,1-4.2,6.8,6.8,0,0,0-1-4.1,3.12,3.12,0,0,0-2.61-1.33,3.18,3.18,0,0,0-2.63,1.34A6.93,6.93,0,0,0,81.1,119.74Z"/><path d="M93.39,127.73v-16H96l5.36,10.66V111.77h2.46v16h-2.66l-5.27-10.41v10.41Z"/><path d="M37,8.35a11.39,11.39,0,0,1,.84-4.7A6.43,6.43,0,0,1,40,.9a5.86,5.86,0,0,1,3.3-.9A5.69,5.69,0,0,1,47.9,2.14a9.37,9.37,0,0,1,1.77,6.11,9.51,9.51,0,0,1-1.88,6.26,5.46,5.46,0,0,1-4.46,2,5.53,5.53,0,0,1-4.48-2A9.36,9.36,0,0,1,37,8.35Zm2.72-.11a6.83,6.83,0,0,0,1,4.13,3.16,3.16,0,0,0,2.6,1.38,3.11,3.11,0,0,0,2.58-1.37,7,7,0,0,0,1-4.2,6.87,6.87,0,0,0-1-4.1,3.24,3.24,0,0,0-5.24,0A6.86,6.86,0,0,0,39.7,8.24Z"/><path d="M52,16.23V.4h2.64V13.53h6.57v2.7Z"/><path d="M63.27,16.23V.27H65.9v16Z"/><path d="M72,16.23,67.33.27h2.86L73.5,12.08,76.71.27h2.81l-4.7,16Z"/><path d="M81.08,16.23V.27h9.7V3H83.71V6.51h6.57V9.2H83.71v4.33H91v2.7Z"/></svg>