<svg id="Layer_1" data-name="Layer 1" xmlns="http://www.w3.org/2000/svg" width="128" height="128" viewBox="0 0 128 128"><title>Artboard 86</title><path d="M17.69,8.35a11.22,11.22,0,0,1,.85-4.7A6.36,6.36,0,0,1,20.74.9,5.86,5.86,0,0,1,24,0a5.66,5.66,0,0,1,4.58,2.14,9.42,9.42,0,0,1,1.76,6.11,9.5,9.5,0,0,1-1.87,6.26,5.46,5.46,0,0,1-4.46,2,5.56,5.56,0,0,1-4.49-2A9.42,9.42,0,0,1,17.69,8.35Zm2.72-.11a6.78,6.78,0,0,0,1.05,4.13,3.13,3.13,0,0,0,5.18,0,7,7,0,0,0,1-4.2,6.8,6.8,0,0,0-1-4.1,3.23,3.23,0,0,0-5.23,0A6.85,6.85,0,0,0,20.41,8.24Z"/><path d="M32.67,16.23V.27h4.25A13,13,0,0,1,40,.5a3.49,3.49,0,0,1,1.92,1.58,5.71,5.71,0,0,1,.76,3.11,5.92,5.92,0,0,1-.65,2.9,3.84,3.84,0,0,1-1.64,1.65,8.55,8.55,0,0,1-3.37.47H35.31v6ZM35.31,3V7.51h1.46a6.28,6.28,0,0,0,2-.21,1.79,1.79,0,0,0,.87-.75A2.38,2.38,0,0,0,40,5.23a2.45,2.45,0,0,0-.35-1.34,1.67,1.67,0,0,0-.86-.73A7.59,7.59,0,0,0,36.6,3Z"/><path d="M45.1,16.23V.27h9.71V3H47.73V6.51h6.58V9.2H47.73v4.33h7.32v2.7Z"/><path d="M57.53,16.23V.27H60.1l5.36,10.66V.27h2.46v16H65.26L60,5.82V16.23Z"/><path d="M70.91.27h5.24a8.13,8.13,0,0,1,3,.39,3.42,3.42,0,0,1,1.47,1.39,4.22,4.22,0,0,1,.6,2.24,4.24,4.24,0,0,1-.51,2.08A3.41,3.41,0,0,1,79.4,7.75a3.61,3.61,0,0,1,1.82,1.41,4.42,4.42,0,0,1,.66,2.44,5.05,5.05,0,0,1-.84,3,3.45,3.45,0,0,1-2,1.48,20.42,20.42,0,0,1-3.69.2H70.91Zm2.64,2.66V6.62h1.74a17.57,17.57,0,0,0,1.94-.06,1.61,1.61,0,0,0,1-.57,1.9,1.9,0,0,0,.38-1.26,1.9,1.9,0,0,0-.31-1.14A1.22,1.22,0,0,0,77.6,3a14.92,14.92,0,0,0-2.53-.11Zm0,6.34v4.26H76a7.69,7.69,0,0,0,2.07-.17,1.48,1.48,0,0,0,.77-.66,2.31,2.31,0,0,0,.31-1.26,2.27,2.27,0,0,0-.33-1.28,1.68,1.68,0,0,0-.88-.7,8.73,8.73,0,0,0-2.25-.19Z"/><path d="M84.25,16.23V.27h2.64v16Z"/><path d="M89.71,16.23V.4h2.63V13.53h6.58v2.7Z"/><path d="M101.1,16.23V.4h2.63V13.53h6.58v2.7Z"/><path d="M32.08,122.53l2.57-.31c.29,2,1.25,3.06,2.86,3.06a2.69,2.69,0,0,0,1.88-.63,2,2,0,0,0,.68-1.55,1.77,1.77,0,0,0-.23-.92,1.9,1.9,0,0,0-.73-.63,22.73,22.73,0,0,0-2.38-.82,8.13,8.13,0,0,1-2.47-1.11A4.06,4.06,0,0,1,33,118.05a4.78,4.78,0,0,1-.47-2.09,4.64,4.64,0,0,1,.6-2.35A3.84,3.84,0,0,1,34.79,112a5.65,5.65,0,0,1,2.57-.53,4.53,4.53,0,0,1,5,4.83l-2.65.14a2.79,2.79,0,0,0-.75-1.79,2.39,2.39,0,0,0-1.64-.51,2.67,2.67,0,0,0-1.64.44,1.38,1.38,0,0,0-.06,2.2,7.2,7.2,0,0,0,2.41,1A9.83,9.83,0,0,1,40.89,119a4.08,4.08,0,0,1,1.35,1.64,5.77,5.77,0,0,1,.47,2.44,5.05,5.05,0,0,1-1.28,3.5,5.15,5.15,0,0,1-4,1.41Q32.61,128,32.08,122.53Z"/><path d="M48.1,127.73V114.47H44.22v-2.7H54.61v2.7H50.74v13.26Z"/><path d="M55.69,119.85a11.22,11.22,0,0,1,.85-4.7,6.36,6.36,0,0,1,2.2-2.75,5.86,5.86,0,0,1,3.3-.9,5.63,5.63,0,0,1,4.57,2.14,9.37,9.37,0,0,1,1.77,6.11A9.5,9.5,0,0,1,66.51,126a5.46,5.46,0,0,1-4.46,2,5.55,5.55,0,0,1-4.49-2A9.42,9.42,0,0,1,55.69,119.85Zm2.72-.11a6.78,6.78,0,0,0,1.05,4.13,3.13,3.13,0,0,0,5.18,0,7,7,0,0,0,1-4.2,6.8,6.8,0,0,0-1-4.1,3.23,3.23,0,0,0-5.23,0A6.85,6.85,0,0,0,58.41,119.74Z"/><path d="M70.69,127.73v-16h5.56a7.84,7.84,0,0,1,3,.43,3.49,3.49,0,0,1,1.51,1.49,5.21,5.21,0,0,1,.58,2.54,4.8,4.8,0,0,1-.89,3,4,4,0,0,1-2.56,1.44A6.44,6.44,0,0,1,79.34,122a18.91,18.91,0,0,1,1.51,2.6l1.59,3.11H79.29l-1.91-3.47A22.24,22.24,0,0,0,76,121.9a1.94,1.94,0,0,0-.78-.65,3.57,3.57,0,0,0-1.33-.18h-.54v6.66Zm2.63-9.21h2a9.37,9.37,0,0,0,2.28-.16,1.45,1.45,0,0,0,.8-.63,2.4,2.4,0,0,0,.3-1.28,2.2,2.2,0,0,0-.3-1.22,1.56,1.56,0,0,0-.83-.64,10.42,10.42,0,0,0-2.14-.12H73.32Z"/><path d="M84.12,127.73v-16h2.64v7.11l5.34-7.11h3.56L90.73,118l5.19,9.74H92.51l-3.61-7.5-2.14,2.68v4.82Z"/><path d="M71.64,104.81l-.26-.06-.12-.26L68.07,97.1C67,94.64,66,92.16,65,89.68l0-.1v-.09c0-.28-.06-.6-.11-.9s-.09-.59-.16-.89a7.24,7.24,0,0,0-.24-.83,1.51,1.51,0,0,0-.32-.55l-.18-.14,0-.17c-.06-.34-.09-.62-.12-.92l-.08-.86-.13-1.73c-.09-1.15-.15-2.29-.21-3.44s-.14-2.3-.18-3.45c0-.92-.08-1.83-.1-2.76l-.13.08a1.39,1.39,0,0,1-1.06,0l0,0c.18,1.33.32,2.66.48,4,.16,1.5.31,3,.44,4.51s.25,3,.32,4.53c0,.2,0,.38,0,.62l0,.28a1.69,1.69,0,0,0,0,.23,4.22,4.22,0,0,0,.18,1,4.4,4.4,0,0,0,.4.91,1.54,1.54,0,0,0,.57.59l.18.08.07.17c.28.63.53,1.22.78,1.84s.49,1.22.72,1.84l1.4,3.68,1.4,3.69c.47,1.23,1,2.44,1.46,3.66l.07.18-.17.06-2.46.91.17.84c1.25-.37,2.49-.76,3.73-1.14l.06,0h.08l4.93.76-.07-.35Z"/><path d="M60,102.87l-1.92-.1L57,102.71l-.53,0h-.24v0l.18,0,.73.17,1.46.31,2.11.42-.06,0a2.93,2.93,0,0,1-.42-.37C60.18,103.1,60.09,103,60,102.87Z"/><path d="M58.45,104.21,57,103.93l-.75-.16-.38-.09-.21-.06-.12,0-.08,0-.09-.06-.09-.07a.39.39,0,0,1-.1-.14.53.53,0,0,1-.06-.24V103l0-.14,0,0,0-.09,0-.21.09-.43.15-.88.29-1.79.54-3.59.58-3.58.32-1.8.17-.89.09-.45,0-.24,0-.13v0l0-.06a.69.69,0,0,1,.05-.13l0-.12.13-.09A2.39,2.39,0,0,0,58.52,87a3.57,3.57,0,0,0,.13-.85,2.63,2.63,0,0,0-.07-.78l0-.45v0l0-.07s0-.11.05-.17.07-.26.11-.39l.19-.8c.12-.54.23-1.09.35-1.63L60,78.5c.21-1.1.41-2.2.64-3.3l.6-3a.88.88,0,0,1-.35.2,2,2,0,0,1-.77,0l-.12,0-.06,0c0,.16-.05.33-.08.49l-.19,1.07L59.33,76c-.25,1.42-.51,2.83-.81,4.24-.15.7-.31,1.41-.49,2.11a18.93,18.93,0,0,1-.64,2.13,2.88,2.88,0,0,1-.3.57c-.09.15-.17.26-.25.4a3.48,3.48,0,0,0-.31.87,3,3,0,0,0,.22,1.8l.09.19-.08.22a5.16,5.16,0,0,0-.2.8c-.06.29-.11.6-.17.9-.11.6-.22,1.21-.32,1.81-.22,1.22-.43,2.43-.63,3.65l-.6,3.66c-.18,1.23-.35,2.45-.5,3.68v.12h-.14l-2,.55-1.78.5.22.55L54.7,104h.11c2.15.35,4.31.68,6.46,1l-.12-.4Z"/><path d="M83.13,41.71l-.91-.7a5.6,5.6,0,0,0-.49-.36c-.09-.07-.14-.08-.25-.16a1.7,1.7,0,0,1-.28-.21,18.91,18.91,0,0,1-1.77-1.82,22.15,22.15,0,0,1-1.55-2c-.11-.18-.23-.35-.33-.55a4.12,4.12,0,0,1-.29-.6c-.15-.37-.32-.74-.5-1.09-.36-.71-.79-1.42-1.22-2.11L72.87,28l-1.08-1.68,1.39,1.41c1.15,1.18,2.27,2.37,3.44,3.52q.88.86,1.8,1.68l.45.4.24.2.24.23c.29.31.55.64.81.95,1,1.32,1.88,2.69,2.76,4.08s1.61,2.69,2.34,4.07L85,42c-.76-1.62-1.55-3.23-2.41-4.81s-1.82-3.1-2.71-4.66a44.67,44.67,0,0,0-2.91-4.49l-2.4-3.37a.93.93,0,0,0-.42-.31l-.19-.08a.74.74,0,0,0-.41,0,.34.34,0,0,0-.25.18,1.2,1.2,0,0,0,0,.87l.26.71-.61-.45a1.82,1.82,0,0,0-.52-.2,5.58,5.58,0,0,0-.61-.09,4.24,4.24,0,0,0-.62,0l-.31,0h0a5.31,5.31,0,0,1,.33.83c.14.43.25.87.35,1.32.06.3.11.62.15.93,0,.16,0,.33,0,.5a1.42,1.42,0,0,1,0,.29.67.67,0,0,1-.12.34h0c.68.62,1.34,1.26,2,1.94a22.12,22.12,0,0,1,1.91,2.26h0l0,0a17.38,17.38,0,0,0,2,3c.76,1,1.54,1.89,2.33,2.84l.58.73a3.94,3.94,0,0,0,.57.63,6.51,6.51,0,0,0,1.47,1,19.77,19.77,0,0,0,2.55,1,8.61,8.61,0,0,1-.83-.49A10.64,10.64,0,0,1,83.13,41.71Z"/><path d="M62,72.32s0,0,0,0l.08,0a.79.79,0,0,0,.54,0c.11-.11.05,0,.08-.43a14.24,14.24,0,0,1,.19-1.63c.1-.54.22-1.07.37-1.6.07-.26.15-.52.25-.79a2.89,2.89,0,0,1,.35-.76,0,0,0,0,1,.06,0s0,0,0,0h0a3.41,3.41,0,0,0,0,.46A36.6,36.6,0,0,1,67,63.46l.43-.5.39-.51c.15-.18.27-.4.41-.6l.26-.4a24.73,24.73,0,0,0,1.18-2.36,45.72,45.72,0,0,0,1.82-4.91c.25-.83.48-1.68.71-2.53l.32-1.28c0-.21.09-.42.13-.63s.06-.42.09-.64c.2-1.78.5-3.54.66-5.3a10.84,10.84,0,0,0-.08-2.61,20.46,20.46,0,0,0-.65-2.53c-.12-.42-.23-.88-.33-1.29s-.23-.83-.35-1.24l-.79-2.53c-.53-1.69-1.55-5.09-1.95-5.21a2.45,2.45,0,0,0-.58-.14c-.2,0-.41,0-.62,0a4.55,4.55,0,0,1-.63-.09.84.84,0,0,1-.46-.54s0,0,0-.05,0,0,0,0a.54.54,0,0,0,.44.32,2.41,2.41,0,0,0,.6.08,3.59,3.59,0,0,1,2.24.31,10.19,10.19,0,0,1,.91.6v-.07a1.13,1.13,0,0,0,0-.26A3.31,3.31,0,0,0,71.2,28a6.31,6.31,0,0,0-.07-.76,9,9,0,0,0-.33-1,4.23,4.23,0,0,0-.43-1l-.12-.19.19-.1a1.21,1.21,0,0,1,.39-.12c.11,0,.23,0,.35,0s.45,0,.67,0a3.84,3.84,0,0,1,.68.09l.2.05s0-.07,0-.11a1.16,1.16,0,0,1,.11-.67.87.87,0,0,1,.59-.45h0a6.54,6.54,0,0,0-2.1-1.57,7.09,7.09,0,0,0-3.07-.68,4.3,4.3,0,0,0-1.5.67,3.07,3.07,0,0,0-1,1.24,5.58,5.58,0,0,0-.1,3.37,23.48,23.48,0,0,0,1.07,3.47c.21.58.44,1.14.65,1.72s.47,1.6.47,1.61.8,3,1,4.58a10.75,10.75,0,0,1,.07,2.41,4.91,4.91,0,0,1-.26,1.23,3.77,3.77,0,0,1-.29.61,2.61,2.61,0,0,1-.2.3L68,43a7.44,7.44,0,0,1-.94.83,4.1,4.1,0,0,1-.56.36,3,3,0,0,1-.31.15l-.24.12c-.63.34-1.31.73-2,1.11-1.29.73-4.52,3-4.89,3.34s-.75.59-1.12.87-.75.57-1.13.84l-1.11.78-.07.06a3,3,0,0,0-.39.23l-.43.28c-.29.19-.57.39-.85.6A10.2,10.2,0,0,0,52.43,54a10.47,10.47,0,0,0-1.17,1.67c-.3.57-.59,1.2-.87,1.81s-.52,1.26-.77,1.89l-.12.28c.27-.52.54-1,.83-1.57L51,56.9c.11-.19.21-.38.32-.56l.18-.28a1.27,1.27,0,0,1,.21-.3,0,0,0,0,1,.07,0s0,0,0,.05l0,0-.23.58-.24.59-.48,1.21c-.31.81-.64,1.61-1,2.42l-1,2.4-1,2.4,0,.06-.05.06a17.1,17.1,0,0,0-1.25,2.08c-.38.73-.73,1.48-1.07,2.24s-.68,1.52-1,2.3-.5,1.4-.69,2.11A2.46,2.46,0,0,0,45,74.17a5.26,5.26,0,0,0,1.36-.73,5.72,5.72,0,0,0,1.14-1.06,3.54,3.54,0,0,0,.71-1.32l.07-.28.24.17a.58.58,0,0,0,.56,0,2.3,2.3,0,0,0,.61-.38,6.74,6.74,0,0,0,1-1.1,10.29,10.29,0,0,0,.87-1.28,5.27,5.27,0,0,0,.6-1.32l.69-.2s-.08,0-.06,0l.1,0a2.92,2.92,0,0,0,.33-.15c.23-.13.47-.28.7-.44a14.19,14.19,0,0,0,1.34-1.12c.42-.4.83-.81,1.21-1.25.18-.22.35-.44.5-.66l.19-.31c0-.1.06-.2.06-.18l.65-.58a.68.68,0,0,0,.2,0,1.48,1.48,0,0,0,.3-.16A5,5,0,0,0,59,61.2a11,11,0,0,0,1.14-1.38,10.71,10.71,0,0,0,.92-1.55,7.27,7.27,0,0,0,.32-.79,1.6,1.6,0,0,0,.11-.63l.33-.68h0a0,0,0,0,1,0,0L62,56a2.89,2.89,0,0,0,.23-.3c.11-.15.22-.33.33-.51A11.89,11.89,0,0,0,63.19,54a12.8,12.8,0,0,0,.74-2,5,5,0,0,0,.23-1.56,1.69,1.69,0,0,0-.15-.66.92.92,0,0,0-.46-.43,2.33,2.33,0,0,0-1.49-.16A8.27,8.27,0,0,0,59,50.56h0s-.07,0-.08,0a.06.06,0,0,1,0-.07,8.64,8.64,0,0,1,1.4-1.07,6.12,6.12,0,0,1,1.64-.75,2.92,2.92,0,0,1,1.91.06,2,2,0,0,1,.47.25,1.49,1.49,0,0,1,.37.42,2.38,2.38,0,0,1,.33,1,5.76,5.76,0,0,1-.14,1.87A11.84,11.84,0,0,1,64.36,54a15.14,15.14,0,0,1-.74,1.65,6.56,6.56,0,0,1-.47.79,4.41,4.41,0,0,1-.29.4l-.15.17a3,3,0,0,1-.14.85,6,6,0,0,1-.38,1,12.53,12.53,0,0,1-1,1.73,10,10,0,0,1-1.32,1.53,5.19,5.19,0,0,1-.85.66,3.52,3.52,0,0,1-.55.27l-.21,0-.06.14a3.85,3.85,0,0,1-.28.45,9.21,9.21,0,0,1-.61.76,15.81,15.81,0,0,1-2.84,2.41,7.57,7.57,0,0,1-.84.47,3.38,3.38,0,0,1-.51.18,2.33,2.33,0,0,1-.3,0,5.85,5.85,0,0,1-.57,1,10.85,10.85,0,0,1-1.07,1.36A7.71,7.71,0,0,1,49.93,71a3.19,3.19,0,0,1-.75.41,1.19,1.19,0,0,1-.47.07.74.74,0,0,1-.25-.05,4.16,4.16,0,0,1-.74,1.23,7.42,7.42,0,0,1-1.18,1.13,7.22,7.22,0,0,1-1.43.83,4.22,4.22,0,0,1-.83.24A17.08,17.08,0,0,1,44,77a13,13,0,0,1-.63,2.38c-.14.39-.28.78-.39,1.18a6.34,6.34,0,0,0-.24,1.18.77.77,0,0,0,.16.5.48.48,0,0,0,.18.17.21.21,0,0,0,.15,0,.94.94,0,0,0,.34-.29,3.9,3.9,0,0,0,.34-.46l.26-.39.29.43c.08.12.15.14.19.13a.75.75,0,0,0,.31-.14,3.66,3.66,0,0,0,.69-.76l.31-.44.39.5c0,.08,0,.06.11.06a.72.72,0,0,0,.37-.13,2,2,0,0,0,.7-.7l.19-.35.07.14s.17-.08.25-.25a3.27,3.27,0,0,0,.25-.57,14.26,14.26,0,0,0,.33-1.39l-.73.5a.05.05,0,0,1-.08,0s0-.06,0-.07l2.28-2c.75-.66,1.52-1.31,2.26-2h0l.07,0a15.28,15.28,0,0,0,2-1.39c.66-.5,1.26-1.08,1.92-1.59s1.32-1,2-1.49,1.36-.93,2-1.44c-.1-.58-.21-1.15-.33-1.72h0a0,0,0,0,1,0,0s0,0,0,0c.36,1,.6,2.09.91,3.13.15.51.3,1,.48,1.54.08.25.18.5.28.73a1.59,1.59,0,0,0,.16.32ZM70.15,23a.82.82,0,1,1-.82.81A.82.82,0,0,1,70.15,23Z"/><path d="M76,104.71a3.49,3.49,0,0,1-.35-.32c-.1-.1-.18-.22-.27-.33l-1.92-.1-1-.06Z"/><path d="M60.28,71.27a1,1,0,0,0,.11.31s0,0,0,.06l.42.12a.71.71,0,0,0,.21,0l.08,0c-.05-.15-.09-.29-.13-.44-.14-.54-.25-1.07-.36-1.6l-.24-1.24a5.71,5.71,0,0,1-.43.72c.05.45.1.91.17,1.35C60.18,70.8,60.22,71,60.28,71.27Z"/></svg>