<svg id="Layer_1" data-name="Layer 1" xmlns="http://www.w3.org/2000/svg" width="128" height="128" viewBox="0 0 128 128"><title>Artboard 87</title><path d="M39.16,119.85a11.22,11.22,0,0,1,.85-4.7,6.36,6.36,0,0,1,2.2-2.75,5.86,5.86,0,0,1,3.3-.9,5.66,5.66,0,0,1,4.58,2.14A11.45,11.45,0,0,1,50,126a5.46,5.46,0,0,1-4.46,2A5.53,5.53,0,0,1,41,126,9.37,9.37,0,0,1,39.16,119.85Zm2.72-.11a6.78,6.78,0,0,0,1,4.13,3.15,3.15,0,0,0,2.6,1.38,3.12,3.12,0,0,0,2.58-1.37,7,7,0,0,0,1-4.2,6.88,6.88,0,0,0-1-4.1,3.24,3.24,0,0,0-5.24,0A6.85,6.85,0,0,0,41.88,119.74Z"/><path d="M54.16,127.73v-16h5.56a7.71,7.71,0,0,1,3.05.43,3.47,3.47,0,0,1,1.5,1.49,5.21,5.21,0,0,1,.58,2.54,4.74,4.74,0,0,1-.89,3,4,4,0,0,1-2.56,1.44A6.44,6.44,0,0,1,62.81,122a18.91,18.91,0,0,1,1.51,2.6l1.59,3.11H62.76l-1.91-3.47a25,25,0,0,0-1.4-2.36,2,2,0,0,0-.79-.65,3.57,3.57,0,0,0-1.33-.18h-.54v6.66Zm2.63-9.21h2a9.37,9.37,0,0,0,2.28-.16,1.45,1.45,0,0,0,.8-.63,2.4,2.4,0,0,0,.3-1.28,2.2,2.2,0,0,0-.3-1.22,1.56,1.56,0,0,0-.83-.64,10.35,10.35,0,0,0-2.14-.12H56.79Z"/><path d="M67.48,127.73v-16h2.64v16Z"/><path d="M72.86,111.77h5.25a8.11,8.11,0,0,1,3,.39,3.37,3.37,0,0,1,1.47,1.39,4.49,4.49,0,0,1,.09,4.32,3.41,3.41,0,0,1-1.33,1.38,3.56,3.56,0,0,1,1.82,1.41,4.34,4.34,0,0,1,.66,2.44,5.05,5.05,0,0,1-.84,3,3.45,3.45,0,0,1-2,1.48,20.42,20.42,0,0,1-3.69.2H72.86Zm2.64,2.66v3.69h1.74a17.57,17.57,0,0,0,1.94-.06,1.61,1.61,0,0,0,1-.57,2.27,2.27,0,0,0,.07-2.4,1.22,1.22,0,0,0-.75-.55,14.92,14.92,0,0,0-2.53-.11Zm0,6.34V125H78a7.69,7.69,0,0,0,2.07-.17,1.48,1.48,0,0,0,.77-.66,2.31,2.31,0,0,0,.31-1.26,2.27,2.27,0,0,0-.33-1.28,1.68,1.68,0,0,0-.88-.7,8.73,8.73,0,0,0-2.25-.19Z"/><path d="M86.2,127.73v-16h2.64v16Z"/><path d="M41.59,102.92l3.67.08.09-.2s-2.46-1.4-2.49-1.4S41.59,102.92,41.59,102.92Z"/><path d="M49.08,101.83l3.68.08.09-.2s-2.47-1.4-2.49-1.4S49.08,101.83,49.08,101.83Z"/><path d="M87.62,98.35l3.67.08.1-.21s-2.47-1.39-2.5-1.39S87.62,98.35,87.62,98.35Z"/><path d="M100.72,102l3.67.08.1-.2s-2.47-1.4-2.49-1.4S100.72,102,100.72,102Z"/><path d="M44.86,65a28.37,28.37,0,0,0-.72-2.89,8.17,8.17,0,0,0-1-1.17,15.73,15.73,0,0,0-2-1.48,28.47,28.47,0,0,1-4-2.83.85.85,0,0,0,.06.17,13.66,13.66,0,0,0,2.29,3.28A35.91,35.91,0,0,0,42.38,63,20.59,20.59,0,0,0,44.86,65Z"/><path d="M54.75,65.91a16.68,16.68,0,0,0-2.22.77c-.16.94-.34,1.48-.55,2.4l-.87,3.64c-.28,1.21-.59,2.41-.82,3.6a8.31,8.31,0,0,1-.17,3,11.52,11.52,0,0,1-.6,1.83c.06.17.15.32.22.5A4.66,4.66,0,0,1,50,82.86s.62,4.19,1,8c.29,2.88.37,5.64.36,5.84a6.53,6.53,0,0,1-.15,1.33,8.76,8.76,0,0,1-.69,2l2.2.85L54,98.81s-.66-4.09-1-8.27-.2-8.15-.3-9.58v-.08l.06-.09a5.33,5.33,0,0,0,.49-1.74,13.17,13.17,0,0,0,.06-1.89l-.08-3.89a17,17,0,0,1,.55-3.92C54.12,68.14,54.43,67.1,54.75,65.91Z"/><path d="M101.12,74.24a12.63,12.63,0,0,0-1.29-1.12L98.49,72l-5.38-4.46c-1.79-1.5-3.6-3-5.37-4.47-.88-.76-1.75-1.54-2.58-2.38a15.28,15.28,0,0,1-1.89-2.27l-.08,0-.61.29a14,14,0,0,0,1.23,1.93c.53.71,1.08,1.42,1.63,2.12l1.66,2.11c.55.72,1,1.46,1.6,2.14,1.12,1.39,2.3,2.72,3.42,4.13a22.69,22.69,0,0,1,1.62,2.2A11.65,11.65,0,0,1,94.6,76,13.53,13.53,0,0,1,95,78.68c.08,3.26-1.22,6.59-2.38,9.71-1.45,3.87-3.45,7.78-3.45,7.78s2.1,1.36,2.38,1.56l.36-1.62,1.08.2c.35-.88,1.61-5.7,3.51-10.5s4.33-9.28,5.11-11A5.18,5.18,0,0,0,101.12,74.24Z"/><path d="M106.69,68.91c-.63-.64-1.28-1.26-2-1.88-1.31-1.23-2.68-2.41-4-3.71A5.24,5.24,0,0,1,99.3,61a6.74,6.74,0,0,1,.16-2.76,6.66,6.66,0,0,1,1.27-2.45c.56-.73,1.16-1.4,1.76-2.08a16.15,16.15,0,0,0,3.05-4.4,8.85,8.85,0,0,0,0-5.27,16.31,16.31,0,0,0-.87-2.55,10.93,10.93,0,0,0-1.29-2.32,2.73,2.73,0,0,0-.45-.45,6.29,6.29,0,0,0-.58-.32l-1.23-.57c-.82-.37-1.64-.73-2.48-1.07A30.52,30.52,0,0,0,93.57,35a16.1,16.1,0,0,0-7.91.68c-.21.06-1.22.53-1.22.53a8.24,8.24,0,0,1-1.33.43c-1.77.46-3.56.77-5.33,1.12a44.81,44.81,0,0,0-5.24,1.19,21.54,21.54,0,0,1-5.35,1.18,93.88,93.88,0,0,1-10.86.74h-.08a24,24,0,0,0-4.41-.93c-1.51-.21-3-.32-4.54-.39-.75,0-1.51-.06-2.27,0-.37,0-.76,0-1.14,0a3.26,3.26,0,0,1-1.16-.09A3.09,3.09,0,0,1,40.91,38c-.36-.5-.68-1-1-1.49a5.21,5.21,0,0,1-.84-1.62,10.63,10.63,0,0,1-.45-2,13.74,13.74,0,0,1-.11-2,12.91,12.91,0,0,0,0-2c-.11-1.32-.32-2.64-.54-3.94s-.46-2.58-.76-3.85a4.91,4.91,0,0,0-.68.49A2.7,2.7,0,0,0,35.54,23h-.07a2.48,2.48,0,0,1,.71-1.73,7.54,7.54,0,0,1,1.44-1.17l0,0,.08,0a4.77,4.77,0,0,0,1.76-1.59c.26-.34.52-.68.76-1a4.15,4.15,0,0,0,.51-1.15A9.4,9.4,0,0,0,41,13.7a7.94,7.94,0,0,0-.13-1.29,1.86,1.86,0,0,0-.42-1c0-.05-.11,0-.16-.07s-.14,0-.24.05a2.32,2.32,0,0,0-.54.19,7.59,7.59,0,0,0-1.1.63,22.14,22.14,0,0,0-2,1.56c-.16.14-.33.28-.44.4a3.06,3.06,0,0,0-.31.48,8.62,8.62,0,0,0-.5,1.16,24,24,0,0,0-.79,2.49l0,.05,0,0c-.25.22-.51.43-.78.64L33.47,19c.2-.25.4-.48.61-.73a.71.71,0,0,1,0-.14,8.48,8.48,0,0,0-2.12-.3c.36-1.23.66-3,.88-4.13a37.8,37.8,0,0,0,.48-3.83,29,29,0,0,0-.74-6.49l-1-3.22.31,3.38a44.63,44.63,0,0,1-1.1,10.14c-.24,1.18-.78,2.92-1,4.19h-.18l-.26,0a33.2,33.2,0,0,0,1-4.15c.93-6.2.12-9.07-.28-10.32L29,.11l.31,3.38a30.25,30.25,0,0,1-1.08,10.14A41.4,41.4,0,0,1,27,18.3a.78.78,0,0,0-.11.18l-.27.39C25.91,19.93,25.19,21,24.42,22A20.84,20.84,0,0,1,21.88,25L20.49,26.3a16.22,16.22,0,0,1-1.31,1.14l.61,1.22a4.68,4.68,0,0,0,.37.66,2,2,0,0,0,.33.41,20.69,20.69,0,0,1,2.06-.52c.66-.39,1.34-.77,2-1.12l.05.06c-.62.52-1.23,1-1.87,1.48v0H22.7L21,30.24a4,4,0,0,0,.64.66c.27.2.46.11.78-.1a7.55,7.55,0,0,0,.88-.72,2.15,2.15,0,0,1,.62-.32,1.86,1.86,0,0,1,.71,0,20.63,20.63,0,0,0,2.31.39,2.86,2.86,0,0,0,2.09-.6l.08-.08,3.36-1c.07,0,1.54-2.31,1.54-2.31L33.42,29l-3,1.06a2,2,0,0,1,.95.86,2.72,2.72,0,0,1,.38,1.28c.05.4.07.79.1,1.19a30.06,30.06,0,0,1-.09,4.55A32.63,32.63,0,0,0,33,45.23a7.65,7.65,0,0,0,.8,1.83,11,11,0,0,1,.91,1.9c.5,1.3.87,2.64,1.26,4s.7,2.5,1.15,3.67a34.48,34.48,0,0,1,4.45,2.27,18.12,18.12,0,0,1,2.11,1.89A20.86,20.86,0,0,0,41.5,56l.06,0A12.44,12.44,0,0,1,43,58.23c.41.82.78,1.66,1.1,2.49A30.67,30.67,0,0,1,45.62,66a14.81,14.81,0,0,1,.25,2.75,48.1,48.1,0,0,1-.45,8.17v0A3.72,3.72,0,0,0,45.14,78a7.45,7.45,0,0,0-.07,1.16,7,7,0,0,0,.38,2.28l0,.05v0c-.15,2.93-.46,11.82-.57,13.29a31,31,0,0,1-.58,4.46l-.42.64c-.22.35-.47.73-.58.89l2.28,1.07L47.49,99s-.13-4.71.08-9.31c.15-3.35.66-6.67.74-7.87v-.08l0-.1a9.27,9.27,0,0,0,1-2.58,7.35,7.35,0,0,0,.22-2.75v-.07l0,0c.26-1.25.6-2.45.93-3.66l1-3.62c.32-1.2.69-2.39.9-3.61A6.42,6.42,0,0,1,54,62l0,0a4.44,4.44,0,0,0-.75,1.16,14.18,14.18,0,0,1,2.73-1.76c.58-.26,1.19-.51,1.79-.75s1.17-.5,1.81-.72a71.64,71.64,0,0,1,7.56-1.71c.63-.11,1.27-.22,1.88-.36a14.86,14.86,0,0,0,1.81-.52c1.22-.4,2.39-.9,3.59-1.36,2.38-1,4.73-2,7.16-2.91l0,.39-3.4,1.37c-1.15.56-2.31,1.13-3.48,1.67S72.37,57.56,71.15,58a14.75,14.75,0,0,1-1.89.57c-.64.15-1.27.26-1.9.38-2.53.49-5.09.84-7.54,1.54a30,30,0,0,0-6.66,3.09,7.42,7.42,0,0,0-.43,1.79c0,.27-.07.55-.11.81A15.52,15.52,0,0,1,56.32,65a36.57,36.57,0,0,1,4-.59,24.91,24.91,0,0,1,4.05-.08c1.34,0,2.68,0,4-.07a31.33,31.33,0,0,0,4-.52,10.74,10.74,0,0,0,3.34-2.11,10.26,10.26,0,0,1,1.72-1.1l1.79-.94,3.27-1.71A12.52,12.52,0,0,1,81.8,55a13.82,13.82,0,0,1,0-3.34,12.35,12.35,0,0,1,.85-3.22,13.27,13.27,0,0,1,1.64-2.86l.07,0a15.65,15.65,0,0,0-1.32,3,15.26,15.26,0,0,0-.61,3.15,14.11,14.11,0,0,0,.94,6.22l.1.22c.58,1,17.61,15.27,18,15.7a6.76,6.76,0,0,1,1.07,1.46,11.58,11.58,0,0,0,1,1.41l0,0v0a10.19,10.19,0,0,1,.57,3c.08,1,.1,2,.11,3,0,2,0,4-.14,6s-.25,4-.4,6a14.06,14.06,0,0,1-1.64,5.3l2.81,1.06.54-5.18s.91-.31,1-.31c.57-8.22,1.27-16.51,1.88-24.72A9.2,9.2,0,0,0,106.69,68.91ZM29.63,22a1.48,1.48,0,0,1-1.12.08.27.27,0,0,1-.18-.29,1.43,1.43,0,0,1,.52-1A1.47,1.47,0,0,1,30,20.69a.26.26,0,0,1,.19.29A1.41,1.41,0,0,1,29.63,22Z"/><path d="M106,43.93a10,10,0,0,1,.18,4.7c.9,1.29,1,3.76,1.39,4a6.59,6.59,0,0,0,.32-7.1,24.11,24.11,0,0,0-1.68-2.82c-.4-.65-.89-1.31-1.34-2,.09.22.19.43.28.64A15.8,15.8,0,0,1,106,43.93Z"/></svg>