<svg id="Layer_1" data-name="Layer 1" xmlns="http://www.w3.org/2000/svg" width="128" height="128" viewBox="0 0 128 128"><title>Artboard 89</title><path d="M75.82,68.62a9.41,9.41,0,0,0,2.65-6.33l-.17.07a31.26,31.26,0,0,1-7.63,2.13c-.65.1-1.31.23-2,.3s-1.36.07-2,.13a4,4,0,0,0-1.74.6,8.19,8.19,0,0,0-1.1.9,11.37,11.37,0,0,1-4.34,3.52c-.39.2-.78.38-1.18.55l0,.07h-.07A27.6,27.6,0,0,1,53.9,72c-.49.11-1,.21-1.49.29s-1.06.09-1.5.13a3.89,3.89,0,0,0-2.44,1.11,5.71,5.71,0,0,0-.87,1.09,4.84,4.84,0,0,0-.52,1.28,17.69,17.69,0,0,0-.39,2.88v.09c-.56,1.52-1.21,2.92-1.88,4.34l-2,4.23q-1,2.11-2.13,4.18l-1.11,2.07-1,1.61a1.06,1.06,0,0,1-1,.48l-3-.38a.92.92,0,0,0-.65.14c-.36.26-1,.51-1,.69a7.86,7.86,0,0,0,2,0,3.87,3.87,0,0,1,1.17.19l.69.24c.1.27-.05.32-.14.32-.27.05-.61.15-.91.23-1.26.35-2.54.72-3.79,1.11s-1.23,1.09-2.35,1.78-3.18,1.46-4.24,2.16a1.2,1.2,0,0,0,.61.52,4.18,4.18,0,0,0,1,.24c1-.37,5.17-1.27,6.22-1.46,0,0,3-.55,4.83-.92a2.28,2.28,0,0,0,1.67-1.43c.76-1.93,1.59-3.79,2.41-5.68l3.08-6.94c1.06-2.31,2-4.58,3.28-6.88a9.45,9.45,0,0,1,2.72-2.87,26.41,26.41,0,0,1,3.3-2,21.19,21.19,0,0,1,7.33-2.34c2.57-.22,5.08-.14,7.53-.58A11,11,0,0,0,75.82,68.62Z"/><path d="M97.11,24.19c-.87-1.73-1.87-3.43-2.86-5.12l-1.48-2.55a11.54,11.54,0,0,1-.7-1.36,8.84,8.84,0,0,1-.46-1.49,16.17,16.17,0,0,1,.08-6l0-.14.07-.08a21.37,21.37,0,0,0,1.5-1.94l.14-.19h.23a3.34,3.34,0,0,0,1.43-.2,6.68,6.68,0,0,0,.67-.31,4.6,4.6,0,0,0,.6-.43l.08-.07.07,0,2.57-.7-2.59-.68-.07,0-.06-.06L95.09,1.45A4.73,4.73,0,0,0,91.84.06a2.78,2.78,0,0,0-1.6.71c-.93.81-1.1,2.14-1.33,3.35a27.86,27.86,0,0,0-.39,3.76,15.57,15.57,0,0,0,1.13,7.32c1,2.28,2.33,4.44,3.57,6.66a17.18,17.18,0,0,1,2,7.44,22.44,22.44,0,0,1-1.51,7.53,11.5,11.5,0,0,1-2.07,3.3,19.83,19.83,0,0,1-2.77,2.65,20.63,20.63,0,0,1-3.16,2.14,12.52,12.52,0,0,1-3.51,1.45l-.43-.08a6,6,0,0,0,2-.8,8.26,8.26,0,0,0-2.07-.75c-.79-.23-1.6-.4-2.41-.56-1.62-.34-3.26-.57-4.9-.78a30.41,30.41,0,0,0-9.8-.09,13.64,13.64,0,0,0-2.37.7c-.79.29-1.59.53-2.39.79-1.57.52-3.17,1.06-4.78,1.52-.79.23-1.6.43-2.4.64a6.64,6.64,0,0,0-2.2.85,20.22,20.22,0,0,0-1.82,1.61A22.69,22.69,0,0,1,46.83,51c.57.28,1.3.67,1.85,1l-.46.22c-1.83-.67-3.66-1.34-5.5-2a47,47,0,0,0-5.54-1.6,10.61,10.61,0,0,0-5.59.66,15.38,15.38,0,0,0-4.73,2.91,4.59,4.59,0,0,0,2,1.69A17.12,17.12,0,0,0,31.54,55c1.9.58,3.85,1,5.81,1.38.95.21,1.93.4,2.89.53a5.39,5.39,0,0,0,1.39,0,3.52,3.52,0,0,1,.44,0,2.69,2.69,0,0,1,.47.08,6.74,6.74,0,0,1,.74.29,4.24,4.24,0,0,0,2.75.38c.44-.11.92-.3,1.4-.43l.74-.2a2.32,2.32,0,0,1,.38-.06.79.79,0,0,1,.63.28,7.17,7.17,0,0,0-.89.14l-.7.29a13.81,13.81,0,0,1-1.39.62,3.77,3.77,0,0,1-1.46.19,8.13,8.13,0,0,1,.94,1.86c.3.8.58,1.59.84,2.36a6.15,6.15,0,0,0,1,2.22,10.92,10.92,0,0,0,2.06,1.46,11.46,11.46,0,0,1,2.15,1.51c.34.29.64.8.81.88a2.27,2.27,0,0,0,.94.28c.78.11,1.59,0,2.57.17a6,6,0,0,1,1.88,1c.48-.17.94-.37,1.4-.58A12.58,12.58,0,0,0,63.25,67a7.06,7.06,0,0,1-1.33,1,5,5,0,0,1-2.07.59A3.13,3.13,0,0,1,57.66,68a4,4,0,0,1-1.14-1.67,4.44,4.44,0,0,1-1.73-1.43,5,5,0,0,1-.86-2.16,2.79,2.79,0,0,1-1-2.45,3.16,3.16,0,0,1,1.35-2.36l.07.09a3.07,3.07,0,0,0-.94,2.28,2.26,2.26,0,0,0,1.1,1.93l.14.09,0,.18a4.48,4.48,0,0,0,.85,1.85,4.06,4.06,0,0,0,1.61,1.16l.18.07.08.2a3.61,3.61,0,0,0,.92,1.43,2.21,2.21,0,0,0,1.51.42,4.1,4.1,0,0,0,1.71-.41A8.76,8.76,0,0,0,63,66.15,8.28,8.28,0,0,1,64.7,65a4.49,4.49,0,0,1,2-.5,15,15,0,0,0,3.91-.3A44.25,44.25,0,0,0,78,61.59c1.12-.51,2.58-1,2.35-2.13-.08-.58-.35-1.23-.46-1.9a6.39,6.39,0,0,1,0-2h.09a7.91,7.91,0,0,0,.37,1.89c.19.62.49,1.18.66,1.88a1.6,1.6,0,0,1-.07,1.17,2.24,2.24,0,0,1-.76.87,5.36,5.36,0,0,1-1.27.75,9.58,9.58,0,0,1-2.43,6.68,14.85,14.85,0,0,1-1.28,1.1c1.29-.28,2.53-.71,3.86-1a5.65,5.65,0,0,1,2.3-.1,4.28,4.28,0,0,1,1.07.49,3.23,3.23,0,0,0,.86.4,1.07,1.07,0,0,0,.75-.14c.27-.13.58-.38.94-.55.67-.34,1.36-.53,2-.9A7.5,7.5,0,0,0,89.66,65c.68-1.27,1.4-2.52,2.09-3.77A7.7,7.7,0,0,0,93,57.46a8.17,8.17,0,0,0-.54-1.93c-.25-.65-.55-1.3-.85-1.93a22.15,22.15,0,0,0-2.19-3.66l0-.62c.58.81.8,1.06,1.25,1.3,1.07-1.55,2-2.93,2.92-4.56s2-3.39,2.8-5.16A20.93,20.93,0,0,0,98,35.38a29.44,29.44,0,0,0,.5-5.76,12.35,12.35,0,0,0-.33-2.81A15,15,0,0,0,97.11,24.19ZM92.7,2.42A1.29,1.29,0,0,1,93.48,2a1.37,1.37,0,0,1,.83.31.16.16,0,0,1,0,.24,1.32,1.32,0,0,1-.77.45,1.38,1.38,0,0,1-.85-.32A.17.17,0,0,1,92.7,2.42Z"/><path d="M102.19,96.3a1.67,1.67,0,0,0-.56-.56,8.22,8.22,0,0,0-.84-.42c-.58-.28-1.2-.53-1.81-.89a4.11,4.11,0,0,1-.88-.67,2.24,2.24,0,0,1-.37-.5c-.11-.23-.13-.34-.19-.45a.52.52,0,0,0-.44-.33A2.44,2.44,0,0,1,96,92.1c-.21-.19-.26-.28-.39-.4l-.34-.35c-.23-.24-.46-.49-.69-.76a7.54,7.54,0,0,1-.61-.87,2.27,2.27,0,0,0-.46-.7,3,3,0,0,0-1.55-.59c-2.56-.46-5.2-.7-7.81-1.1-1.31-.18-2.61-.38-3.92-.62a27.72,27.72,0,0,1-3.9-1l-.17-.06-.06-.15a3,3,0,0,0-1.76-1.65l0,0h0a3.83,3.83,0,0,1-1.06-1.39,8.94,8.94,0,0,1-.59-1.53,14.08,14.08,0,0,1-.48-3.19c-.09-1.06-.12-2.12-.16-3.18a25.26,25.26,0,0,1,0-2.75,14.09,14.09,0,0,1-2.51.73c-.61.14-1.23.22-1.84.3.61,1.79,1.06,3.63,1.5,5.46a41.54,41.54,0,0,1,.94,5.75,10.25,10.25,0,0,0,0,2.77,1.74,1.74,0,0,0,1.77,1.33c.89,0,1.86-.17,2.88-.12a4.91,4.91,0,0,1,.77.09l.7.13,1.41.24c1.9.3,3.81.58,5.7,1a24.19,24.19,0,0,1,2.8.79c.91.31,1.83.61,2.73,1a11.29,11.29,0,0,1,2.55,1.44,3.49,3.49,0,0,1,1,1.15,10.92,10.92,0,0,1,.5,1.38,11.11,11.11,0,0,0,.46,1.34,1.3,1.3,0,0,0,1,.82,8,8,0,0,0,1.4,0h1.1c-.64-.83-1.28-1.65-1.93-2.46l-.55-.7.8.38c.85.4,1.7.81,2.53,1.24.42.22.82.45,1.24.69a8.92,8.92,0,0,1,1.11.74,23.73,23.73,0,0,0,2.66.27A3.74,3.74,0,0,0,102.19,96.3Z"/><path d="M23.31,119.85a11.39,11.39,0,0,1,.84-4.7,6.43,6.43,0,0,1,2.2-2.75,5.86,5.86,0,0,1,3.3-.9,5.66,5.66,0,0,1,4.58,2.14A9.37,9.37,0,0,1,36,119.75,9.51,9.51,0,0,1,34.12,126a5.46,5.46,0,0,1-4.46,2,5.53,5.53,0,0,1-4.48-2A9.36,9.36,0,0,1,23.31,119.85Zm2.72-.11a6.85,6.85,0,0,0,1,4.13,3.16,3.16,0,0,0,2.6,1.38,3.11,3.11,0,0,0,2.58-1.37,7,7,0,0,0,1-4.2,6.87,6.87,0,0,0-1-4.1,3.24,3.24,0,0,0-5.24,0A6.93,6.93,0,0,0,26,119.74Z"/><path d="M37.62,122.53l2.58-.31q.44,3.06,2.85,3.06a2.7,2.7,0,0,0,1.89-.63,2,2,0,0,0,.68-1.55,1.68,1.68,0,0,0-.24-.92,1.76,1.76,0,0,0-.73-.63,21.38,21.38,0,0,0-2.37-.82,8,8,0,0,1-2.47-1.11,4.25,4.25,0,0,1-1.25-1.57A4.91,4.91,0,0,1,38.1,116a4.64,4.64,0,0,1,.6-2.35A3.88,3.88,0,0,1,40.33,112a5.73,5.73,0,0,1,2.58-.53,4.53,4.53,0,0,1,5,4.83l-2.65.14a2.79,2.79,0,0,0-.75-1.79,2.39,2.39,0,0,0-1.64-.51,2.65,2.65,0,0,0-1.65.44,1.38,1.38,0,0,0-.05,2.2,7.2,7.2,0,0,0,2.41,1A10,10,0,0,1,46.44,119a4.08,4.08,0,0,1,1.35,1.64,5.77,5.77,0,0,1,.47,2.44,5.05,5.05,0,0,1-1.28,3.5A5.15,5.15,0,0,1,43,128C39.77,128,38,126.17,37.62,122.53Z"/><path d="M53.65,127.73V114.47H49.76v-2.7h10.4v2.7H56.28v13.26Z"/><path d="M62.1,127.73v-16h5.56a7.71,7.71,0,0,1,3,.43,3.42,3.42,0,0,1,1.5,1.49,5.21,5.21,0,0,1,.59,2.54,4.74,4.74,0,0,1-.9,3,4,4,0,0,1-2.55,1.44,6.38,6.38,0,0,1,1.4,1.33,18.7,18.7,0,0,1,1.52,2.6l1.59,3.11H70.7l-1.91-3.47a22.85,22.85,0,0,0-1.4-2.36,2.08,2.08,0,0,0-.78-.65,3.6,3.6,0,0,0-1.33-.18h-.54v6.66Zm2.64-9.21h2a9.53,9.53,0,0,0,2.29-.16,1.43,1.43,0,0,0,.79-.63,2.31,2.31,0,0,0,.31-1.28,2.12,2.12,0,0,0-.31-1.22,1.54,1.54,0,0,0-.82-.64,10.48,10.48,0,0,0-2.15-.12H64.74Z"/><path d="M75.43,127.73v-16h2.63v16Z"/><path d="M89.19,121.86l2.56,1a7.13,7.13,0,0,1-2,3.91A5,5,0,0,1,86.33,128a5.09,5.09,0,0,1-4.15-2,9.52,9.52,0,0,1-1.83-6.14,10,10,0,0,1,1.84-6.39,5.25,5.25,0,0,1,4.31-2,5,5,0,0,1,3.68,1.5,6.59,6.59,0,0,1,1.55,3.17l-2.62.76a3.58,3.58,0,0,0-1-2,2.52,2.52,0,0,0-1.76-.69A2.79,2.79,0,0,0,84,115.52a7.25,7.25,0,0,0-.92,4.16A7.69,7.69,0,0,0,84,124a2.7,2.7,0,0,0,2.31,1.28,2.4,2.4,0,0,0,1.81-.81A5.12,5.12,0,0,0,89.19,121.86Z"/><path d="M94.23,127.73v-16h2.64v6.28h5.19v-6.28h2.63v16h-2.63v-7H96.87v7Z"/></svg>