<svg id="Layer_1" data-name="Layer 1" xmlns="http://www.w3.org/2000/svg" width="128" height="128" viewBox="0 0 128 128"><title>Artboard 88</title><path d="M23.31,8.35a11.39,11.39,0,0,1,.84-4.7A6.43,6.43,0,0,1,26.35.9a5.86,5.86,0,0,1,3.3-.9,5.66,5.66,0,0,1,4.58,2.14A9.37,9.37,0,0,1,36,8.25a9.51,9.51,0,0,1-1.88,6.26,5.46,5.46,0,0,1-4.46,2,5.53,5.53,0,0,1-4.48-2A9.36,9.36,0,0,1,23.31,8.35ZM26,8.24a6.85,6.85,0,0,0,1,4.13,3.16,3.16,0,0,0,2.6,1.38,3.11,3.11,0,0,0,2.58-1.37,7,7,0,0,0,1-4.2,6.87,6.87,0,0,0-1-4.1,3.24,3.24,0,0,0-5.24,0A6.86,6.86,0,0,0,26,8.24Z"/><path d="M37.62,11l2.58-.31q.44,3.06,2.85,3.06a2.7,2.7,0,0,0,1.89-.63,2,2,0,0,0,.68-1.55,1.68,1.68,0,0,0-.24-.92,1.76,1.76,0,0,0-.73-.63,21.38,21.38,0,0,0-2.37-.82,8,8,0,0,1-2.47-1.11,4.25,4.25,0,0,1-1.25-1.57,4.91,4.91,0,0,1-.46-2.09,4.64,4.64,0,0,1,.6-2.35A3.88,3.88,0,0,1,40.33.53,5.73,5.73,0,0,1,42.91,0a5,5,0,0,1,3.61,1.25,5,5,0,0,1,1.37,3.58L45.24,5a2.79,2.79,0,0,0-.75-1.79,2.39,2.39,0,0,0-1.64-.51,2.65,2.65,0,0,0-1.65.44,1.38,1.38,0,0,0-.05,2.2,7.2,7.2,0,0,0,2.41,1,10.08,10.08,0,0,1,2.88,1.22,4.08,4.08,0,0,1,1.35,1.64,5.77,5.77,0,0,1,.47,2.44A5.05,5.05,0,0,1,47,15.09a5.15,5.15,0,0,1-4,1.41C39.77,16.5,38,14.67,37.62,11Z"/><path d="M53.65,16.23V3H49.76V.27h10.4V3H56.28V16.23Z"/><path d="M62.1,16.23V.27h5.56a7.71,7.71,0,0,1,3,.43,3.42,3.42,0,0,1,1.5,1.49,5.21,5.21,0,0,1,.59,2.54,4.74,4.74,0,0,1-.9,3,4,4,0,0,1-2.55,1.44,6.38,6.38,0,0,1,1.4,1.33,18.7,18.7,0,0,1,1.52,2.6l1.59,3.11H70.7l-1.91-3.47a22.85,22.85,0,0,0-1.4-2.36,2.08,2.08,0,0,0-.78-.65,3.6,3.6,0,0,0-1.33-.18h-.55v6.66ZM64.73,7h2A9.53,9.53,0,0,0,69,6.86a1.43,1.43,0,0,0,.79-.63A2.31,2.31,0,0,0,70.08,5a2.12,2.12,0,0,0-.31-1.22A1.54,1.54,0,0,0,69,3.09,10.48,10.48,0,0,0,66.8,3H64.73Z"/><path d="M75.43,16.23V.27h2.63v16Z"/><path d="M89.19,10.36l2.56,1a7.13,7.13,0,0,1-2,3.91,5,5,0,0,1-3.43,1.24,5.09,5.09,0,0,1-4.15-2,9.52,9.52,0,0,1-1.83-6.14A10,10,0,0,1,82.19,2,5.25,5.25,0,0,1,86.5,0a5,5,0,0,1,3.68,1.5,6.59,6.59,0,0,1,1.55,3.17l-2.62.76a3.58,3.58,0,0,0-1-2,2.52,2.52,0,0,0-1.76-.69A2.79,2.79,0,0,0,84,4a7.25,7.25,0,0,0-.92,4.16,7.69,7.69,0,0,0,.9,4.29,2.7,2.7,0,0,0,2.31,1.28,2.4,2.4,0,0,0,1.81-.81A5.12,5.12,0,0,0,89.19,10.36Z"/><path d="M94.23,16.23V.27h2.64V6.55h5.19V.27h2.63v16h-2.63v-7H96.87v7Z"/><path d="M40.17,127.73v-16h2.57l5.35,10.66V111.77h2.46v16H47.89l-5.26-10.41v10.41Z"/><path d="M53.56,127.73v-16h9.71v2.7H56.19V118h6.58v2.69H56.19V125h7.32v2.7Z"/><path d="M65.3,122.53l2.58-.31q.44,3.06,2.85,3.06a2.67,2.67,0,0,0,1.88-.63,2,2,0,0,0,.69-1.55,1.68,1.68,0,0,0-.24-.92,1.76,1.76,0,0,0-.73-.63,23.13,23.13,0,0,0-2.37-.82,7.91,7.91,0,0,1-2.47-1.11,4.15,4.15,0,0,1-1.25-1.57,4.77,4.77,0,0,1-.46-2.09,4.64,4.64,0,0,1,.59-2.35A3.9,3.9,0,0,1,68,112a5.67,5.67,0,0,1,2.58-.53,4.53,4.53,0,0,1,5,4.83l-2.64.14a2.9,2.9,0,0,0-.75-1.79,2.43,2.43,0,0,0-1.65-.51,2.6,2.6,0,0,0-1.64.44,1.35,1.35,0,0,0-.58,1.11,1.37,1.37,0,0,0,.53,1.09,7.12,7.12,0,0,0,2.4,1A9.83,9.83,0,0,1,74.11,119a4.08,4.08,0,0,1,1.35,1.64,5.62,5.62,0,0,1,.47,2.44,5,5,0,0,1-1.28,3.5,5.13,5.13,0,0,1-4,1.41C67.45,128,65.66,126.17,65.3,122.53Z"/><path d="M81.32,127.73V114.47H77.44v-2.7H87.83v2.7H84v13.26Z"/><path d="M45.47,47.56a22.25,22.25,0,0,0-13.59,3.87c-3.56,2.55-5.56,6-5.65,9.66a12,12,0,0,0,4.18,9A27.12,27.12,0,0,1,37,68.39,24.66,24.66,0,0,1,52.24,71a17.64,17.64,0,0,1,3.25,2.34C60.74,70.84,63.93,66.62,64,62,64.22,54.28,55.89,47.8,45.47,47.56Z"/><path d="M51.18,72.91a21.49,21.49,0,0,0-10.5-2.58,24.91,24.91,0,0,0-3.43.23,22.43,22.43,0,0,0-12.81,6c-3.11,3.08-4.56,6.78-4.07,10.42s2.86,6.83,6.67,9A22.42,22.42,0,0,0,41,98.28a22.48,22.48,0,0,0,12.81-6c3.11-3.08,4.56-6.79,4.07-10.43S55,75.06,51.18,72.91Z"/><path d="M24.05,61c.1-4.37,2.43-8.42,6.56-11.38A21.93,21.93,0,0,1,36,46.87a11.17,11.17,0,0,0-2.4-5.77c-4.67-5.7-14.31-5.53-21.47.38A19.15,19.15,0,0,0,5.39,52.21a12.07,12.07,0,0,0,2.2,10.34C11.25,67,18.16,68,24.6,65A12.92,12.92,0,0,1,24.05,61Z"/><path d="M71.43,75.94c0-.17,0-.35,0-.52,0-8.74,9.27-15.85,20.66-15.85a26.49,26.49,0,0,1,2.7.15,10.41,10.41,0,0,0-1.28-6.92c-3.66-6.11-13.37-7-21.64-2a22.36,22.36,0,0,0-6.61,6.05,12.74,12.74,0,0,1,1,5.19,13.44,13.44,0,0,1-3.12,8.17c.12.25.25.49.39.73A11,11,0,0,0,71.43,75.94Z"/><path d="M45.52,45.36c8.2.2,15.23,4,18.59,9.34a24.74,24.74,0,0,1,6.6-5.78,25,25,0,0,1,4.51-2.14A23,23,0,0,0,66.79,36.1c-8.53-6-19.06-5.79-23.48.52a11.75,11.75,0,0,0-1.71,8.93A28.21,28.21,0,0,1,45.52,45.36Z"/><path d="M113.09,42.84c-8.3-4.48-18.13-2.43-22.26,4.51a12.06,12.06,0,0,1,4.51,4.32A12.55,12.55,0,0,1,96.91,60C104.28,61.4,110.1,65.8,112,71.42a14.13,14.13,0,0,0,9.33-6.91C125.29,57.15,121.59,47.43,113.09,42.84Z"/><path d="M92.05,61.76c-10.19,0-18.47,6.13-18.47,13.66s8.28,13.65,18.47,13.65S110.52,83,110.52,75.42,102.24,61.76,92.05,61.76Z"/><path d="M77.3,46.13a19.37,19.37,0,0,1,11.53.31c3-5.17,8.61-8.06,14.76-8.15C102.16,32.63,96,27.9,88.31,26.76c-8.76-1.3-16.82,2.45-18.88,8.61A24.82,24.82,0,0,1,77.3,46.13Z"/><path d="M70.48,89.63l-7-.78a.06.06,0,0,0-.06,0,.05.05,0,0,0,0,.07h0a18.49,18.49,0,0,0,3.44,1.14,34.45,34.45,0,0,0,3.49.62,32.18,32.18,0,0,0,3.54.21,17.8,17.8,0,0,0,3.61-.31h0s0,0,0-.05a.05.05,0,0,0,0,0Z"/><path d="M44.55,100.7a12,12,0,0,0-1.8,0,6.75,6.75,0,0,0-1.79.42s0,0,0,0a.05.05,0,0,0,0,0,6.83,6.83,0,0,0,1.81.32,10.9,10.9,0,0,0,1.8-.13q1.8-.15,3.6-.39s0,0,0,0a0,0,0,0,0,0,0C47,100.81,45.76,100.74,44.55,100.7Z"/><path d="M71.12,92.29l-3.61.14s0,0,0,0a0,0,0,0,0,0,0h0a8.78,8.78,0,0,0,3.63.6,8.54,8.54,0,0,0,3.58-.8h0a.05.05,0,0,0,0,0,0,0,0,0,0,0,0Z"/><path d="M117.43,82.85l-3.61.14s0,0,0,0a0,0,0,0,0,0,.06h0a9.67,9.67,0,0,0,7.2-.19h0a.05.05,0,0,0,0,0,0,0,0,0,0,0,0Z"/><path d="M11.16,74.2a13.91,13.91,0,0,0-3.6.51,14.34,14.34,0,0,0,3.62.31,14.27,14.27,0,0,0,3.59-.51A14.26,14.26,0,0,0,11.16,74.2Z"/></svg>