<svg id="Layer_1" data-name="Layer 1" xmlns="http://www.w3.org/2000/svg" width="128" height="128" viewBox="0 0 128 128"><title>Artboard 119 copy 2</title><path d="M2.39,116.69a10.29,10.29,0,0,1,.75-4.22,5.77,5.77,0,0,1,2-2.46,5.17,5.17,0,0,1,3-.81,5.09,5.09,0,0,1,4.11,1.92,8.38,8.38,0,0,1,1.58,5.48,8.52,8.52,0,0,1-1.68,5.61,4.91,4.91,0,0,1-4,1.79,5,5,0,0,1-4-1.77A8.41,8.41,0,0,1,2.39,116.69Zm2.44-.1a6,6,0,0,0,.94,3.7,2.81,2.81,0,0,0,2.33,1.24,2.77,2.77,0,0,0,2.31-1.23,8.1,8.1,0,0,0,0-7.44,2.79,2.79,0,0,0-2.34-1.19,2.82,2.82,0,0,0-2.36,1.2A6.14,6.14,0,0,0,4.83,116.59Z"/><path d="M15.23,119.09l2.32-.28c.26,1.83,1.11,2.75,2.56,2.75A2.44,2.44,0,0,0,21.8,121a1.81,1.81,0,0,0,.61-1.39,1.53,1.53,0,0,0-.21-.83,1.62,1.62,0,0,0-.66-.57,18.68,18.68,0,0,0-2.13-.73,7.21,7.21,0,0,1-2.21-1,3.68,3.68,0,0,1-1.12-1.41,4.23,4.23,0,0,1-.42-1.87,4.14,4.14,0,0,1,.54-2.11,3.41,3.41,0,0,1,1.47-1.42A5,5,0,0,1,20,109.2a4.44,4.44,0,0,1,3.23,1.12,4.43,4.43,0,0,1,1.23,3.21l-2.37.13a2.54,2.54,0,0,0-.67-1.61,2.15,2.15,0,0,0-1.48-.46,2.32,2.32,0,0,0-1.47.4,1.18,1.18,0,0,0-.52,1,1.24,1.24,0,0,0,.47,1,6.52,6.52,0,0,0,2.16.88,9,9,0,0,1,2.58,1.09,3.61,3.61,0,0,1,1.21,1.47,5.23,5.23,0,0,1,.42,2.2,4.52,4.52,0,0,1-1.14,3.13A4.6,4.6,0,0,1,20,124Q15.72,124,15.23,119.09Z"/><path d="M29.61,123.76v-11.9H26.13v-2.42h9.32v2.42H32v11.9Z"/><path d="M37.2,123.76V109.44h5a6.89,6.89,0,0,1,2.73.39,3,3,0,0,1,1.35,1.33,4.68,4.68,0,0,1,.53,2.28,4.27,4.27,0,0,1-.81,2.71,3.62,3.62,0,0,1-2.29,1.29A5.76,5.76,0,0,1,45,118.63,18.4,18.4,0,0,1,46.32,121l1.42,2.8H44.92l-1.72-3.12a20,20,0,0,0-1.26-2.11,1.8,1.8,0,0,0-.7-.59,3.19,3.19,0,0,0-1.19-.16h-.49v6Zm2.36-8.27h1.76a8.51,8.51,0,0,0,2-.14,1.27,1.27,0,0,0,.71-.57,2.14,2.14,0,0,0,.27-1.14,2,2,0,0,0-.27-1.1,1.35,1.35,0,0,0-.74-.57,9.37,9.37,0,0,0-1.92-.11H39.56Z"/><path d="M49.15,123.76V109.44h2.37v14.32Z"/><path d="M61.5,118.49l2.3.89A6.48,6.48,0,0,1,62,122.89,4.47,4.47,0,0,1,58.93,124a4.55,4.55,0,0,1-3.72-1.77,8.55,8.55,0,0,1-1.64-5.51A9,9,0,0,1,55.22,111a4.69,4.69,0,0,1,3.87-1.79,4.45,4.45,0,0,1,3.3,1.34,6,6,0,0,1,1.39,2.84l-2.35.69a3.11,3.11,0,0,0-.89-1.78,2.22,2.22,0,0,0-1.58-.62,2.48,2.48,0,0,0-2.12,1.13,6.48,6.48,0,0,0-.83,3.74,7,7,0,0,0,.8,3.85,2.46,2.46,0,0,0,2.09,1.14,2.15,2.15,0,0,0,1.62-.73A4.61,4.61,0,0,0,61.5,118.49Z"/><path d="M66,123.76V109.44h2.36v5.63h4.66v-5.63h2.36v14.32H73.05V117.5H68.39v6.26Z"/><path d="M82.84,123.76V109.44h2.31L90,119v-9.56h2.21v14.32H89.78l-4.73-9.34v9.34Z"/><path d="M94.86,123.76V109.44h8.71v2.42H97.22V115h5.9v2.41h-5.9v3.88h6.57v2.43Z"/><path d="M105.39,119.09l2.32-.28c.26,1.83,1.11,2.75,2.56,2.75A2.44,2.44,0,0,0,112,121a1.81,1.81,0,0,0,.61-1.39,1.53,1.53,0,0,0-.21-.83,1.69,1.69,0,0,0-.66-.57,18.68,18.68,0,0,0-2.13-.73,7.1,7.1,0,0,1-2.21-1,3.59,3.59,0,0,1-1.12-1.41,4.42,4.42,0,0,1,.11-4,3.53,3.53,0,0,1,1.47-1.42,5.08,5.08,0,0,1,2.32-.47,4.06,4.06,0,0,1,4.46,4.33l-2.37.13a2.54,2.54,0,0,0-.67-1.61,2.15,2.15,0,0,0-1.48-.46,2.32,2.32,0,0,0-1.47.4,1.18,1.18,0,0,0-.52,1,1.24,1.24,0,0,0,.47,1,6.52,6.52,0,0,0,2.16.88,9,9,0,0,1,2.58,1.09,3.69,3.69,0,0,1,1.21,1.47,5.23,5.23,0,0,1,.42,2.2,4.52,4.52,0,0,1-1.14,3.13A4.6,4.6,0,0,1,110.2,124Q105.88,124,105.39,119.09Z"/><path d="M119.77,123.76v-11.9h-3.48v-2.42h9.32v2.42h-3.47v11.9Z"/><path d="M46.7,38.65A20.73,20.73,0,0,0,34,42.27c-3.32,2.38-5.19,5.58-5.27,9a11.26,11.26,0,0,0,3.9,8.44,25.56,25.56,0,0,1,6.11-1.62A23,23,0,0,1,53,60.54a16.7,16.7,0,0,1,3,2.17c4.9-2.33,7.87-6.26,8-10.59C64.21,44.92,56.43,38.88,46.7,38.65Z"/><path d="M52,62.32a20,20,0,0,0-9.8-2.41,24.91,24.91,0,0,0-3.2.21,21,21,0,0,0-12,5.57c-2.91,2.88-4.26,6.33-3.8,9.73S26,81.8,29.51,83.8a21,21,0,0,0,13,2.2,21,21,0,0,0,12-5.57c2.91-2.88,4.26-6.33,3.8-9.73S55.59,64.32,52,62.32Z"/><path d="M26.71,51.23c.1-4.08,2.27-7.86,6.13-10.62a20.24,20.24,0,0,1,5-2.6,10.35,10.35,0,0,0-2.25-5.38c-4.36-5.33-13.34-5.17-20,.35A17.89,17.89,0,0,0,9.29,43a11.29,11.29,0,0,0,2.06,9.65c3.42,4.18,9.87,5.06,15.88,2.26A11.78,11.78,0,0,1,26.71,51.23Z"/><path d="M70.93,65.15c0-.17,0-.33,0-.5,0-8.15,8.65-14.79,19.28-14.79A23.2,23.2,0,0,1,92.7,50a9.78,9.78,0,0,0-1.19-6.47C88.09,37.85,79,37,71.31,41.68a20.93,20.93,0,0,0-6.17,5.64,11.94,11.94,0,0,1,.93,4.85,12.55,12.55,0,0,1-2.91,7.63,7.12,7.12,0,0,0,.36.67A10.29,10.29,0,0,0,70.93,65.15Z"/><path d="M46.75,36.61c7.66.18,14.22,3.72,17.35,8.71a23.07,23.07,0,0,1,6.16-5.39,23.37,23.37,0,0,1,4.21-2A21.44,21.44,0,0,0,66.6,28c-8-5.62-17.79-5.4-21.91.49a11,11,0,0,0-1.6,8.33A26.1,26.1,0,0,1,46.75,36.61Z"/><path d="M109.82,34.25C102.07,30.07,92.9,32,89,38.46a11.23,11.23,0,0,1,4.21,4,11.73,11.73,0,0,1,1.47,7.8c6.88,1.28,12.31,5.39,14.1,10.64a13.19,13.19,0,0,0,8.71-6.46C121.21,47.61,117.75,38.53,109.82,34.25Z"/><path d="M90.18,51.91c-9.51,0-17.24,5.72-17.24,12.74S80.67,77.4,90.18,77.4s17.24-5.72,17.24-12.75S99.69,51.91,90.18,51.91Z"/><path d="M76.41,37.32a18,18,0,0,1,10.76.29c2.77-4.83,8-7.52,13.78-7.61-1.34-5.28-7.07-9.69-14.26-10.76-8.18-1.21-15.7,2.29-17.62,8A23.06,23.06,0,0,1,76.41,37.32Z"/><path d="M70.05,77.92l-6.58-.72s0,0,0,0a0,0,0,0,0,0,.06h0a17.74,17.74,0,0,0,3.21,1.06c1.08.26,2.17.43,3.26.58a30.28,30.28,0,0,0,3.3.19,16.15,16.15,0,0,0,3.37-.28h0a.07.07,0,0,0,0,0s0,0,0,0Z"/><path d="M45.85,88.26a9.43,9.43,0,0,0-1.68,0,6,6,0,0,0-1.68.39,0,0,0,0,0,0,0,0,0,0,0,0,0,0,5.9,5.9,0,0,0,1.69.3,9.5,9.5,0,0,0,1.68-.12c1.12-.1,2.24-.22,3.35-.36a0,0,0,1,0,0-.08C48.1,88.35,47,88.29,45.85,88.26Z"/><path d="M70.64,80.4l-3.36.13a0,0,0,0,0,0,0s0,0,0,0h0A9,9,0,0,0,74,80.43h0s0,0,0,0a0,0,0,0,0,0,0Z"/><path d="M113.86,71.59l-3.36.13s0,0,0,0a0,0,0,0,0,0,0h0a9,9,0,0,0,6.73-.18h0s0,0,0,0a0,0,0,0,0,0,0Z"/><path d="M14.68,63.52a13.27,13.27,0,0,0-3.35.47,12.81,12.81,0,0,0,3.37.29,13.27,13.27,0,0,0,3.35-.47A13.29,13.29,0,0,0,14.68,63.52Z"/></svg>