<svg id="Layer_1" data-name="Layer 1" xmlns="http://www.w3.org/2000/svg" width="128" height="128" viewBox="0 0 128 128"><title>Artboard 90</title><path d="M30.4,127.72V111.5h2.68v6.39h5.27V111.5H41v16.22H38.35v-7.09H33.08v7.09Z"/><path d="M44,111.5h2.68v8.79a20.79,20.79,0,0,0,.1,2.66,2.69,2.69,0,0,0,.85,1.66,3,3,0,0,0,3.29.18,2.06,2.06,0,0,0,.8-1.16,13.69,13.69,0,0,0,.22-3.16v-9h2.68V120a22.65,22.65,0,0,1-.35,4.72,4,4,0,0,1-1.57,2.36,5.33,5.33,0,0,1-3.23.9,6,6,0,0,1-3.25-.75,4.2,4.2,0,0,1-1.69-2.1,15.84,15.84,0,0,1-.53-5Z"/><path d="M57.63,127.72V111.5h4l2.42,11.08,2.4-11.08h4v16.22H68V114.94l-2.65,12.78H62.76l-2.63-12.78v12.78Z"/><path d="M85.38,127.72H82.47l-1.17-3.67H76l-1.1,3.67H72L77.2,111.5h2.85Zm-4.94-6.42-1.84-6-1.8,6Z"/><path d="M87.05,127.72V111.5h2.61l5.44,10.83V111.5h2.5v16.22H94.9l-5.35-10.58v10.58Z"/><g id="SVGRepo_iconCarrier" data-name="SVGRepo iconCarrier"><path d="M47.07,64.85a4,4,0,0,0,4-4V37.33a.42.42,0,0,1,.42-.42h.85a.42.42,0,0,1,.42.42V97.81a5.19,5.19,0,1,0,10.37,0V65.69c0-.3.14-.42.43-.42h.84c.29,0,.43.12.43.42V97.81a5.19,5.19,0,1,0,10.37,0V37.33a.41.41,0,0,1,.42-.42h.85a.42.42,0,0,1,.42.42v23.5a4,4,0,0,0,8,0V33.94a9.54,9.54,0,0,0-9.53-9.74H52.57A9.54,9.54,0,0,0,43,33.94V60.83A4,4,0,0,0,47.07,64.85Z"/></g><circle cx="64" cy="10.74" r="10.52"/></svg>