<svg id="Layer_1" data-name="Layer 1" xmlns="http://www.w3.org/2000/svg" width="128" height="128" viewBox="0 0 128 128"><title>Artboard 91</title><path d="M38.75,127.72V111.5h4.32a13.44,13.44,0,0,1,3.15.23,3.58,3.58,0,0,1,2,1.61,6.85,6.85,0,0,1,.1,6.11,3.82,3.82,0,0,1-1.66,1.67,8.6,8.6,0,0,1-3.43.48H41.43v6.12Zm2.68-13.48v4.62h1.49a6.53,6.53,0,0,0,2-.21,1.88,1.88,0,0,0,.88-.76,2.83,2.83,0,0,0,0-2.71,1.8,1.8,0,0,0-.88-.75,8.25,8.25,0,0,0-2.21-.19Z"/><path d="M51.35,111.5H54v8.79a23,23,0,0,0,.1,2.66,2.69,2.69,0,0,0,.85,1.66,3,3,0,0,0,3.29.18,2.1,2.1,0,0,0,.8-1.16,13.69,13.69,0,0,0,.22-3.16v-9H62V120a22.65,22.65,0,0,1-.35,4.72,4,4,0,0,1-1.57,2.36,5.33,5.33,0,0,1-3.23.9,6,6,0,0,1-3.25-.75,4.2,4.2,0,0,1-1.69-2.1,15.84,15.84,0,0,1-.53-5Z"/><path d="M65.05,127.72V111.5h2.68v7.22l5.43-7.22h3.62l-5,6.32,5.28,9.9H73.57L69.9,120.1l-2.17,2.72v4.9Z"/><path d="M78.63,111.5h2.68v8.79a20.79,20.79,0,0,0,.1,2.66,2.69,2.69,0,0,0,.85,1.66,3,3,0,0,0,3.29.18,2.1,2.1,0,0,0,.8-1.16,13.69,13.69,0,0,0,.22-3.16v-9h2.68V120a22.65,22.65,0,0,1-.35,4.72,4.07,4.07,0,0,1-1.57,2.36,5.35,5.35,0,0,1-3.23.9,6,6,0,0,1-3.25-.75,4.2,4.2,0,0,1-1.69-2.1,15.84,15.84,0,0,1-.53-5Z"/><path d="M44.18,67.42c-.35.58-.76,1.14-1.17,1.69-.82,1.11-1.73,2.15-2.58,3.21h0l0,0a31.59,31.59,0,0,0-2.84,2.83h0a24.17,24.17,0,0,1-2,3.73,45.1,45.1,0,0,1-3,4.16c.16,1.31.41,2.72.59,4.08l.6,4.2c.4,2.67.73,5.36,1.1,8l.59-.15.37-.09,0,.37.72,2.65,2.17-1.12c-.68-2.82-1.27-5.39-1.77-8.25a9.91,9.91,0,0,1-.16-2.25c.06-.75.16-1.49.29-2.23A19.77,19.77,0,0,1,38.36,84a6.07,6.07,0,0,1,1.3-1.94c.54-.51,1.05-1.06,1.57-1.58a31.74,31.74,0,0,0,2.92-3.34,3.78,3.78,0,0,0,.54-.89,4.66,4.66,0,0,1,.63-1c.46-.6,1-1.16,1.45-1.72s1-1.12,1.48-1.68a11.46,11.46,0,0,0,1-1.33C47.58,69.32,44.37,67.1,44.18,67.42Z"/><path d="M76.87,74.37c.08,1.71.16,3.42.22,5.13.14,2.47.15,5,.45,7.41a6.51,6.51,0,0,1,0,2h0c.19.56.36,1.13.51,1.7a12.25,12.25,0,0,1,.42,2.33c.11,1.46.23,3.54.28,5l.79.3,0,1.77c.63-.35,1.23-.66,1.8-1-.17-2.14-.14-4.29-.21-6.45,0-.57,0-1.14,0-1.73s0-1.13,0-1.71a2.93,2.93,0,0,1,.13-.88,1.47,1.47,0,0,1,.24-.42.74.74,0,0,0,.17-.33,5.06,5.06,0,0,0,.13-1.65c0-.58-.07-1.15-.08-1.73s0-1.16.08-1.74c.09-1.14.23-2.28.39-3.41.28-2.12.6-4.23,1-6.32a13.07,13.07,0,0,1-1.19.58A14.41,14.41,0,0,1,76.87,74.37Z"/><path d="M99.69,38.76a4.93,4.93,0,0,0,1.27,0,3,3,0,0,0,1-.27,14.92,14.92,0,0,0,.51-2c0-.4-.54-.85-1.12-1.13a9.48,9.48,0,0,1-1-.48,7.85,7.85,0,0,1-.89-.7,36.77,36.77,0,0,1-3-3.15L96.43,31V31c0-.7,0-1.41,0-2.12a16,16,0,0,0,.83-1.52,13.23,13.23,0,0,0,2.17-.38,4.34,4.34,0,0,0,1.74-1,3.15,3.15,0,0,0,.94-1.82,7.37,7.37,0,0,0,.05-2.2,6.3,6.3,0,0,0-2,.26,6.47,6.47,0,0,0-1.57.74,2.45,2.45,0,0,0-.59.53c-.18.21-.34.45-.52.7a15.3,15.3,0,0,0-1,1.94l-1.6.76.72-3.08a3.71,3.71,0,0,0-1.56-3.08,16.61,16.61,0,0,0-3.1-2,12.14,12.14,0,0,1-5.35-5.51,11.6,11.6,0,0,1-.77-1.8,10.84,10.84,0,0,1-.37-1.92,32.39,32.39,0,0,1-.18-3.81c0-1.82.12-3.64.23-5.44-.12.61-.23,1.23-.33,1.84-.21,1.32-.36,2.65-.46,4s-.17,2.65-.16,4a15.32,15.32,0,0,0,.14,2,9.4,9.4,0,0,0,.62,1.83,17.14,17.14,0,0,0,2,3.38,11.66,11.66,0,0,0,3,2.56c.56.37,1.1.78,1.64,1.2a6.25,6.25,0,0,1,1.49,1.46,2.58,2.58,0,0,1,0,2.09c-.22.61-.71,1.85-1,2.45a11.31,11.31,0,0,0-3.08-3.61,16.25,16.25,0,0,0-4-2A24.07,24.07,0,0,1,80,19.84a9.14,9.14,0,0,1-3.49-3.12,12,12,0,0,1-1.71-4.32,33.42,33.42,0,0,1-.58-4.53c-.14-2.48-.1-4.93,0-7.39a24.37,24.37,0,0,0-.48,2.71,33,33,0,0,0-.27,4.45,23.05,23.05,0,0,0,1.41,8.67A10.07,10.07,0,0,0,77.16,20a6.27,6.27,0,0,0,1.73,1.25c.63.3,1.39.52,2.08.79s1.42.53,2.1.82a12.79,12.79,0,0,1,2.05,1.05,7.26,7.26,0,0,1,1.54,1.7c.29.42.85,1.45,1.21,2.11l-.26-.08c-.69.28-1.38.55-2.1.8.37.24.73.48,1.07.72l0,.06c-.63-.22-1.91-.78-1.91-.78l-1.07-1.78a7.09,7.09,0,0,0-1.37-1.25,9.38,9.38,0,0,0-2-.61,7.5,7.5,0,0,0-2.27-.36,12.07,12.07,0,0,0,.2,2.82,3.5,3.5,0,0,0,1.1,1.91,4.33,4.33,0,0,0,2,.91,9.42,9.42,0,0,0,2.18.2l.49-.05a26.34,26.34,0,0,1,2,1.91l-.06,0a6.34,6.34,0,0,1-2.12-1,27.63,27.63,0,0,0-1.76,7c-.2,1.35-.35,2.72-.49,4.09-.06.68-.14,1.37-.23,2.06a8.66,8.66,0,0,1-.48,2.13,2,2,0,0,1-.84.93,3.87,3.87,0,0,1-1.1.41,9.54,9.54,0,0,1-2.19.07c-.72-.05-1.42-.15-2.1-.23a12.49,12.49,0,0,0-2-.07c-1.39.06-2.77.17-4.17.26-.7,0-1.4.08-2.11.07a11.38,11.38,0,0,1-2.12-.24,26.84,26.84,0,0,1-4-1.21c-.66-.23-1.3-.51-1.94-.78a17.34,17.34,0,0,0-2-.6,38.1,38.1,0,0,0-4.12-.7c-1.37-.16-2.76-.28-4.15-.4l-2.09-.18a17.62,17.62,0,0,0-2-.11,10.87,10.87,0,0,0-3.95.9l-1.93.8c-.64.25-1.27.53-1.9.84-1.23.58-2.37,1.31-3.66,1.81a9.62,9.62,0,0,0-1.62,1.3A12.19,12.19,0,0,0,29.41,51,7.47,7.47,0,0,0,28.62,53a6.78,6.78,0,0,0-.3,2.05,11.31,11.31,0,0,0,1,4c.55,1.3,1.27,2.54,1.81,3.9A8.3,8.3,0,0,1,31.46,64c.07.41.12.71.19,1.06.15.69.33,1.39.47,2.1a9.09,9.09,0,0,1,.06,4.4,7.16,7.16,0,0,1-1.11,1.93c-.43.59-.89,1.15-1.37,1.69-.95,1.08-1.95,2.07-3,3.07,0,2.21-.1,4.38-.19,6.58l-.18,6.65h0l-.85,7.26.94.18.23,0v.25l.3,2.06,2.12-1c-.19-2.59-.35-5.19-.46-7.78a37.2,37.2,0,0,1,0-4.09,17.64,17.64,0,0,1,1-4,12.76,12.76,0,0,1,2-3.67l2.77-3c.93-1,1.85-2,2.79-3s1.47-2.16,2.58-3c.9-1,1.81-2,2.68-3.08a17.49,17.49,0,0,0,1.25-1.62A25.13,25.13,0,0,0,45,63.88a8.14,8.14,0,0,0,.26-2.06A7.21,7.21,0,0,0,45,59.88a18,18,0,0,1-.58-2.08l.06,0a7,7,0,0,1,1.24,1.82,4.6,4.6,0,0,1,.45,2.23A8.54,8.54,0,0,1,45.66,64c-.24.66-.86,2.22-.91,2.37a53.18,53.18,0,0,0,5.51,3.9c1,.61,1.93,1.22,2.92,1.77.51.26,1,.53,1.52.76a8.14,8.14,0,0,0,1.59.47,17.16,17.16,0,0,0,3.42.39c1.16,0,2.31-.1,3.46-.18,2.25-.12,4.43-.22,6.73-.14-.06-.18-.1-.35-.15-.52a22,22,0,0,1-1.43-7.4,18.57,18.57,0,0,1,.26-3.87,13.24,13.24,0,0,1,1.07-3.69h.08a23.71,23.71,0,0,0-.7,7.48A21.53,21.53,0,0,0,69.72,69c.34,1.21,1.28,3.56,1.28,3.56s.53,2,.74,3,.42,2,.59,3c.34,2,.6,4,.8,6v0h0c-.06,1,0,2,0,3,0,.5.06,1,.12,1.51a12,12,0,0,0,.22,1.48v.06A15.1,15.1,0,0,0,73.25,93q0,1.2,0,2.4c0,1.52,0,3.58,0,5.11l.68.29.19.08v.21L74,102.2l1.8-1c-.11-1.07-.29-2.19-.43-3.32a20.79,20.79,0,0,1-.14-3.78c0-.63.07-1.25.13-1.89a6,6,0,0,1,.19-1,2.31,2.31,0,0,1,.57-1,2.88,2.88,0,0,0,.63-1.49,6.9,6.9,0,0,0,0-1.76,33.85,33.85,0,0,1-.18-3.75c0-1.26,0-2.5,0-3.74,0-1.71.06-6.72.08-7.48h.08l.09,2c.57-.66,1.14-1.26,1.66-1.94a17.61,17.61,0,0,0,1.67-2.33A9.4,9.4,0,0,0,81.12,67a20.34,20.34,0,0,0,.3-2.94h.07a18.78,18.78,0,0,1,0,3A9.37,9.37,0,0,1,80.72,70a8.36,8.36,0,0,1-1.65,2.58,8.79,8.79,0,0,1-2.21,1.68v0a17.48,17.48,0,0,0,4.87-1.58,11,11,0,0,0,2.13-1.35,7,7,0,0,0,1.61-1.85A36.51,36.51,0,0,0,87.81,65,46.3,46.3,0,0,1,90,60.28c.83-1.52,1.7-3,2.49-4.55.39-.77.75-1.55,1.1-2.33.17-.4.35-.79.49-1.19A6.75,6.75,0,0,0,94.35,51a23.85,23.85,0,0,0,0-5.07c-.13-1.58-.34-3.16-.61-4.73l-.21,0a5.3,5.3,0,0,1-.57,0,9.48,9.48,0,0,1-2.2-.34,2.59,2.59,0,0,1-1.08-.62,5.44,5.44,0,0,1-.7-.9,4.13,4.13,0,0,1-.66-2.11h.08A5.36,5.36,0,0,0,89.51,39a8,8,0,0,0,.72.71,2.19,2.19,0,0,0,.81.39,17.72,17.72,0,0,0,2,.4l.52.07h.47a7.75,7.75,0,0,0,1-.17l1.06-.27a2.62,2.62,0,0,1,1.12-.1c.74.15,1.42.47,2.08.56a2,2,0,0,0,1.75-.33,3.88,3.88,0,0,0,.82-1,4.87,4.87,0,0,1-.93.15,5,5,0,0,1-1.4-.18A16.89,16.89,0,0,1,97,38.38l0-.07C97.93,38.47,98.81,38.66,99.69,38.76Zm-6.52-6.3a1.87,1.87,0,0,1-1.36,0,1.81,1.81,0,0,1-.81-1.1.27.27,0,0,1,.17-.35,1.79,1.79,0,0,1,1.37,0,1.83,1.83,0,0,1,.81,1.1A.29.29,0,0,1,93.17,32.46Z"/><path d="M74.22,102.82l.09.18h2.8S76,101.68,76,101.68,74.22,102.82,74.22,102.82Z"/><path d="M27.19,102.09l.1.21h3.28s-1.28-1.53-1.3-1.53S27.19,102.09,27.19,102.09Z"/><path d="M37.11,102.67l.08.18H40s-1.1-1.31-1.12-1.31S37.11,102.67,37.11,102.67Z"/><path d="M79.67,100.46l.08.18h2.81s-1.09-1.31-1.11-1.31S79.67,100.46,79.67,100.46Z"/></svg>