<svg id="Layer_1" data-name="Layer 1" xmlns="http://www.w3.org/2000/svg" width="128" height="128" viewBox="0 0 128 128"><title>Artboard 92</title><path d="M12.14,127.73v-16H17.7a7.9,7.9,0,0,1,3.05.43,3.42,3.42,0,0,1,1.5,1.49,5.21,5.21,0,0,1,.59,2.54,4.74,4.74,0,0,1-.9,3,4,4,0,0,1-2.55,1.44,6.61,6.61,0,0,1,1.4,1.33,17.91,17.91,0,0,1,1.51,2.6l1.59,3.11H20.74l-1.91-3.47a22.85,22.85,0,0,0-1.4-2.36,2.13,2.13,0,0,0-.79-.65,3.5,3.5,0,0,0-1.32-.18h-.55v6.66Zm2.63-9.21h2a9.53,9.53,0,0,0,2.29-.16,1.42,1.42,0,0,0,.79-.63,2.31,2.31,0,0,0,.31-1.28,2.12,2.12,0,0,0-.31-1.22,1.56,1.56,0,0,0-.83-.64,10.35,10.35,0,0,0-2.14-.12H14.77Z"/><path d="M25.55,127.73v-16h9.71v2.7H28.19V118h6.57v2.69H28.19V125H35.5v2.7Z"/><path d="M38,127.73v-16h9.7v2.7H40.6V118h6.57v2.69H40.6V125h7.31v2.7Z"/><path d="M50.36,111.77h4.81a7.21,7.21,0,0,1,2.76.41,4.54,4.54,0,0,1,1.71,1.38,7.09,7.09,0,0,1,1.23,2.51,14,14,0,0,1,.45,3.84,12.43,12.43,0,0,1-.47,3.6,7.09,7.09,0,0,1-1.19,2.42,4.46,4.46,0,0,1-1.73,1.35,6.51,6.51,0,0,1-2.61.45h-5Zm2.63,2.7V125h2a5.17,5.17,0,0,0,1.85-.24,2.21,2.21,0,0,0,.93-.72,4.06,4.06,0,0,0,.61-1.53,15.84,15.84,0,0,0,0-5.55,3.68,3.68,0,0,0-.76-1.6,2.39,2.39,0,0,0-1.26-.78,10.75,10.75,0,0,0-2.14-.14Z"/><path d="M63.78,111.77H69a8.17,8.17,0,0,1,3,.39,3.42,3.42,0,0,1,1.47,1.39,4.49,4.49,0,0,1,.09,4.32,3.43,3.43,0,0,1-1.34,1.38,3.53,3.53,0,0,1,1.82,1.41,4.34,4.34,0,0,1,.66,2.44,5,5,0,0,1-.84,3,3.39,3.39,0,0,1-2,1.48,20.42,20.42,0,0,1-3.69.2H63.78Zm2.64,2.66v3.69h1.74a17.34,17.34,0,0,0,1.93-.06,1.63,1.63,0,0,0,1.06-.57,2,2,0,0,0,.38-1.26,1.9,1.9,0,0,0-.31-1.14,1.28,1.28,0,0,0-.75-.55,15,15,0,0,0-2.53-.11Zm0,6.34V125h2.45a7.69,7.69,0,0,0,2.07-.17,1.52,1.52,0,0,0,.77-.66,2.68,2.68,0,0,0,0-2.54,1.72,1.72,0,0,0-.88-.7,8.77,8.77,0,0,0-2.26-.19Z"/><path d="M77.17,111.77h2.64v8.64a20.32,20.32,0,0,0,.1,2.63,2.61,2.61,0,0,0,.83,1.63,2.57,2.57,0,0,0,1.74.58,2.53,2.53,0,0,0,1.49-.41,2.07,2.07,0,0,0,.8-1.13A14.16,14.16,0,0,0,85,120.6v-8.83h2.63v8.38a22.23,22.23,0,0,1-.34,4.65,3.91,3.91,0,0,1-1.55,2.31,5.16,5.16,0,0,1-3.17.89,5.89,5.89,0,0,1-3.19-.73,4.19,4.19,0,0,1-1.67-2.07,15.76,15.76,0,0,1-.52-4.92Z"/><path d="M99,121.86l2.56,1a7.2,7.2,0,0,1-2,3.92A5,5,0,0,1,96.13,128,5.09,5.09,0,0,1,92,126a9.52,9.52,0,0,1-1.83-6.14A10,10,0,0,1,92,113.5a5.25,5.25,0,0,1,4.31-2A5,5,0,0,1,100,113a6.5,6.5,0,0,1,1.55,3.17l-2.61.76a3.53,3.53,0,0,0-1-2,2.49,2.49,0,0,0-1.76-.7,2.79,2.79,0,0,0-2.37,1.27,7.25,7.25,0,0,0-.92,4.16,7.69,7.69,0,0,0,.9,4.29,2.71,2.71,0,0,0,2.32,1.28,2.4,2.4,0,0,0,1.8-.81A5.08,5.08,0,0,0,99,121.86Z"/><path d="M104.06,127.73v-16h2.63v7.1l5.35-7.1h3.56L110.67,118l5.19,9.74h-3.42l-3.61-7.5-2.14,2.68v4.82Z"/><path d="M30.25.27H35.5a8.11,8.11,0,0,1,3,.39A3.37,3.37,0,0,1,40,2.05a4.22,4.22,0,0,1,.6,2.24,4.24,4.24,0,0,1-.51,2.08,3.41,3.41,0,0,1-1.33,1.38,3.61,3.61,0,0,1,1.82,1.41,4.34,4.34,0,0,1,.66,2.44,5,5,0,0,1-.84,3,3.45,3.45,0,0,1-2,1.48,20.42,20.42,0,0,1-3.69.2H30.25Zm2.64,2.66V6.62h1.74a17.57,17.57,0,0,0,1.94-.06,1.61,1.61,0,0,0,1-.57A1.9,1.9,0,0,0,38,4.73a1.9,1.9,0,0,0-.31-1.14A1.22,1.22,0,0,0,36.94,3a14.92,14.92,0,0,0-2.53-.11Zm0,6.34v4.26h2.45a7.69,7.69,0,0,0,2.07-.17,1.48,1.48,0,0,0,.77-.66,2.31,2.31,0,0,0,.31-1.26,2.27,2.27,0,0,0-.33-1.28,1.68,1.68,0,0,0-.88-.7A8.73,8.73,0,0,0,35,9.27Z"/><path d="M43.14,8.35A11.39,11.39,0,0,1,44,3.65,6.43,6.43,0,0,1,46.18.9a5.86,5.86,0,0,1,3.3-.9,5.69,5.69,0,0,1,4.58,2.14,9.37,9.37,0,0,1,1.77,6.11A9.51,9.51,0,0,1,54,14.51a5.46,5.46,0,0,1-4.46,2,5.53,5.53,0,0,1-4.48-2A9.36,9.36,0,0,1,43.14,8.35Zm2.72-.11a6.83,6.83,0,0,0,1,4.13,3.16,3.16,0,0,0,2.6,1.38,3.11,3.11,0,0,0,2.58-1.37,7,7,0,0,0,1-4.2,6.87,6.87,0,0,0-1-4.1,3.24,3.24,0,0,0-5.24,0A6.93,6.93,0,0,0,45.86,8.24Z"/><path d="M58.13,16.23V.27h2.63V6.55H66V.27h2.64v16H66v-7H60.76v7Z"/><path d="M71,8.35a11.39,11.39,0,0,1,.84-4.7A6.38,6.38,0,0,1,74.05.9,5.8,5.8,0,0,1,77.34,0a5.68,5.68,0,0,1,4.58,2.14,9.37,9.37,0,0,1,1.77,6.11,9.56,9.56,0,0,1-1.87,6.26,6,6,0,0,1-8.95,0A9.36,9.36,0,0,1,71,8.35Zm2.72-.11a6.76,6.76,0,0,0,1,4.13,3.12,3.12,0,0,0,5.17,0,7,7,0,0,0,1-4.2,6.8,6.8,0,0,0-1-4.1,3.12,3.12,0,0,0-2.61-1.33,3.16,3.16,0,0,0-2.63,1.34A6.93,6.93,0,0,0,73.72,8.24Z"/><path d="M86,16.23V.27h5.56a7.9,7.9,0,0,1,3,.43,3.42,3.42,0,0,1,1.5,1.49,5.21,5.21,0,0,1,.59,2.54,4.74,4.74,0,0,1-.9,3,4,4,0,0,1-2.55,1.44,6.38,6.38,0,0,1,1.4,1.33,18.7,18.7,0,0,1,1.52,2.6l1.59,3.11H94.59l-1.91-3.47a22.85,22.85,0,0,0-1.4-2.36,2.08,2.08,0,0,0-.78-.65,3.6,3.6,0,0,0-1.33-.18h-.55v6.66ZM88.62,7h2a9.53,9.53,0,0,0,2.29-.16,1.39,1.39,0,0,0,.79-.63A2.31,2.31,0,0,0,94,5a2.12,2.12,0,0,0-.31-1.22,1.57,1.57,0,0,0-.82-.64A10.55,10.55,0,0,0,90.69,3H88.62Z"/><path d="M105.46,41.16a2.62,2.62,0,0,1-.53-1.65c-3.69-2.88-3.88-3.82-3.94-4.14a4,4,0,0,0-2.3-3.22,8.16,8.16,0,0,0-3.56-.21,5.22,5.22,0,0,1-.28,1.82c0,.14.07.21.07.35s.07.28.14.42a2.89,2.89,0,0,0,.49.77,2,2,0,0,1-.7-.63,3.31,3.31,0,0,1-.49-.84v-.14a6.48,6.48,0,0,0-.14-2,5.52,5.52,0,0,0-.77-1.74,8.26,8.26,0,0,0-1.32-1.4,9.12,9.12,0,0,0-1-.7c0,.07-.07.21-.07.28a4,4,0,0,0-.21,1,6.39,6.39,0,0,0,.14,2A5.07,5.07,0,0,0,91.78,33a5,5,0,0,0,1.53,1.4h.07a.26.26,0,0,1,.07.21,10.73,10.73,0,0,1-.28,1.46c-.07-.49-.07-.9-.14-1.32a4.58,4.58,0,0,1-1.88-1.19c-.07.07-.07.14-.14.21a8.24,8.24,0,0,0-.91,1.67c0,.07-2.72,9.78-4.53,12.51-1.47,2.23-7,2.86-12.08,3.21-.48,0-.9.07-1.25.07-1,.14-4.68.42-8.59.7-5.3.35-11.93.91-12.56,1H51c-5.72,0-12.28,2.72-14,5s-1.54,7.13-.84,9.22S36.72,75,36,76.78c-.7,1.61-6.35,5.45-8,6.57-.34,1.46-1.88,8.24-2.51,9.84s-2.65,7.9-3.35,10.06l.28.07a.68.68,0,0,1,.56.7v1.75l1.19-.49c.21-1.33.9-6,1.32-8a38.52,38.52,0,0,1,4.33-10.19c1.05-1.19,4.4-3.56,7.68-5.94,2.09-1.47,4-2.86,5.16-3.77,2-1.82,5.79-5.17,7-8l.07-.07c0-.07.07-.07.07-.14l.07-.07A11.16,11.16,0,0,0,51,67.35a16.91,16.91,0,0,0,1-1.95,11.08,11.08,0,0,0,.63-2.17A7.79,7.79,0,0,0,52.84,61,8.48,8.48,0,0,1,53,63.3a13.17,13.17,0,0,1-.35,2.31,21.65,21.65,0,0,1-.77,2.23,9.92,9.92,0,0,1-.56,1.26c2,.63,10.19,2.93,22.54,2.16a7.62,7.62,0,0,1-.62-1.39,21,21,0,0,1-.7-2.24c-.14-.77-.21-1.53-.28-2.3A12.89,12.89,0,0,1,72.45,63a8.56,8.56,0,0,0,.14,2.31,11,11,0,0,0,.63,2.16,16.5,16.5,0,0,0,1,2,12.33,12.33,0,0,0,1.19,1.88,1,1,0,0,1,.14.42V72c.21,1.47.42,11,.42,11.46a15,15,0,0,0,.62,4.33.42.42,0,0,1,.07.28c-.07,1.39-.69,12.43-.83,15.15.63.14,1,.35,1,.84a13.58,13.58,0,0,1,.35,1.81l1.33-.55c-.35-1.75-1.4-7.06-1.19-9.78.21-3.21.63-7.06.63-7.13s.07-.07.07-.14a17.47,17.47,0,0,0,1-6.21c0-3.63.35-9.08.35-9.15s.07-.14.07-.21a.42.42,0,0,1,.07-.28l.07-.07a14.32,14.32,0,0,0,1.11-1.61A13,13,0,0,0,81.66,69c.21-.63.49-1.26.63-1.89a9.9,9.9,0,0,0,.21-2,6.41,6.41,0,0,1,.14,2c-.07.63-.21,1.33-.35,2-.14.35-.21.77-.35,1.12,1.46-.56,4.88-2.31,5.58-4.26a12.68,12.68,0,0,0,.7-3.08,7.2,7.2,0,0,1,.49-2.16,18.81,18.81,0,0,1,1.6-3.08,23.82,23.82,0,0,0,2.24-4.47c.48-1.88,1.81-9.28,2.09-11l-.42-.07h-.14c0-.07-.07-.07-.14-.07s-.21-.07-.28-.14a1.21,1.21,0,0,1-.42-.42L91.5,38.3,93.8,41c.07.07.14.14.21.14h2.16a12.71,12.71,0,0,1,2.31,0,12.4,12.4,0,0,1,3.28,1.05,11.92,11.92,0,0,0,1.53.63.89.89,0,0,0,.84,0l.63-.42c-.56-.28-1.12-.49-1.61-.7l-1-.42-.49-.21a1.13,1.13,0,0,1-.49-.28,1.54,1.54,0,0,1,.56.07l.56.14,1,.28a5.83,5.83,0,0,0,1,.28l1,.21a.26.26,0,0,1,.21.07h.07l.2-.52A.78.78,0,0,1,105.46,41.16Zm-6-4.47-.14-.07L99,36.48l-.63-.28-.49-.28a.89.89,0,0,1-.42.07.94.94,0,1,1,1-.9v.07l.35.48.42.49.34.35c.07,0,.07,0,.07.21S99.52,36.69,99.45,36.69ZM98.2,100.32l-1.61.14.07.84,2.1.83Zm-1.61-1.19L97.92,99l-.07-3.35L91.64,83.83c-.07-.06-.07-.2-.07-.27a7.38,7.38,0,0,0-2.3-4.68.07.07,0,0,1-.07-.07c-1-1.33-4-6.43-5-7.9A12.75,12.75,0,0,1,81.45,72h-.14a9.11,9.11,0,0,1-.56,1.19c0,.21,0,.84-.07,1.81a.53.53,0,0,1,.35.14l7,5.66c.07.07.14.21.21.28.42.84,1.19,2.17,1.74,2.38a.88.88,0,0,1,.35.34c.21.49,3.63,8,5.59,12.16l.55.14a.64.64,0,0,1,.49.77Zm-.42-77.45a7.78,7.78,0,0,0-1.6,2.86c-.14.56-.28,1.12-.35,1.61a4.23,4.23,0,0,0,.21,1.6,5.56,5.56,0,0,0,.42,1.54,2.93,2.93,0,0,0,.28.7c.07.14.14.21.21.35s.07.07.07.14.07.07.07.14a8.82,8.82,0,0,1,1.46-.07.07.07,0,0,1-.07-.07A8.87,8.87,0,0,1,96,28.87a8.88,8.88,0,0,1-.76-3.49,7.06,7.06,0,0,1,1-3.35,5.15,5.15,0,0,1,1.12-1.33,4,4,0,0,1,1.33-.7A4.94,4.94,0,0,0,96.17,21.68Zm-17,84.92-1.47.63L78,108h2.3Zm-33-22.7.14-.13c2-2,8.16-8.18,9.35-12.09a39.75,39.75,0,0,1-4.82-1.25,17.8,17.8,0,0,1-3.32,4.49c-1.35,1.42-2.78,2.7-3.79,3.61l-4.12,7.26,6.7,17.6.7.07a.69.69,0,0,1,.48.28l.77,1.05,1.4-.63c-1.54-2.38-6-9.71-6.21-12.57C43.14,88.1,43.84,86.21,46.14,83.9Zm4.19,21.31-1.47.69.35.7h2.3ZM30.09,64.28a45.59,45.59,0,0,0,4.18-2.93,10.88,10.88,0,0,1,.49-2.17A13.82,13.82,0,0,0,30.09,64.28ZM24.5,106.67,23,107.3l.35.7h2.3Z"/></svg>