<svg id="Layer_1" data-name="Layer 1" xmlns="http://www.w3.org/2000/svg" width="128" height="128" viewBox="0 0 128 128"><title>Artboard 93</title><path d="M13,11l2.58-.31q.44,3.06,2.85,3.06a2.67,2.67,0,0,0,1.88-.63A2,2,0,0,0,21,11.6a1.68,1.68,0,0,0-.24-.92,1.82,1.82,0,0,0-.73-.63,23.13,23.13,0,0,0-2.37-.82,8.09,8.09,0,0,1-2.48-1.11A4.23,4.23,0,0,1,14,6.55a4.77,4.77,0,0,1-.46-2.09,4.64,4.64,0,0,1,.59-2.35A3.84,3.84,0,0,1,15.72.53,5.67,5.67,0,0,1,18.3,0a5,5,0,0,1,3.6,1.25,5,5,0,0,1,1.37,3.58L20.63,5a2.9,2.9,0,0,0-.75-1.79,2.43,2.43,0,0,0-1.65-.51,2.6,2.6,0,0,0-1.64.44A1.35,1.35,0,0,0,16,4.22a1.39,1.39,0,0,0,.52,1.09,7.3,7.3,0,0,0,2.41,1,9.83,9.83,0,0,1,2.88,1.22,4.08,4.08,0,0,1,1.35,1.64,5.77,5.77,0,0,1,.47,2.44,5.05,5.05,0,0,1-1.28,3.5,5.13,5.13,0,0,1-4,1.41C15.15,16.5,13.37,14.67,13,11Z"/><path d="M25.55,8.35a11.39,11.39,0,0,1,.84-4.7A6.45,6.45,0,0,1,28.6.9,5.84,5.84,0,0,1,31.9,0a5.64,5.64,0,0,1,4.57,2.14,9.37,9.37,0,0,1,1.77,6.11,9.5,9.5,0,0,1-1.87,6.26,5.47,5.47,0,0,1-4.46,2,5.55,5.55,0,0,1-4.49-2A9.36,9.36,0,0,1,25.55,8.35Zm2.72-.11a6.78,6.78,0,0,0,1.05,4.13,3.13,3.13,0,0,0,5.18,0,7,7,0,0,0,1-4.2,6.8,6.8,0,0,0-1-4.1,3.23,3.23,0,0,0-5.23,0A6.85,6.85,0,0,0,28.27,8.24Z"/><path d="M40.51.27h2.63V8.91a22.43,22.43,0,0,0,.1,2.63,2.7,2.7,0,0,0,.84,1.63,2.57,2.57,0,0,0,1.74.58,2.55,2.55,0,0,0,1.49-.41,2,2,0,0,0,.79-1.13,14.16,14.16,0,0,0,.21-3.11V.27H51V8.65a21.9,21.9,0,0,1-.35,4.64,3.89,3.89,0,0,1-1.54,2.32,5.22,5.22,0,0,1-3.17.89,5.92,5.92,0,0,1-3.2-.73A4.17,4.17,0,0,1,41,13.7a15.45,15.45,0,0,1-.52-4.92Z"/><path d="M56.9,16.23V3H53V.27H63.4V3H59.53V16.23Z"/><path d="M65.35,16.23V.27H68V6.55h5.19V.27h2.64v16H73.17v-7H68v7Z"/><path d="M78.76,16.23V.27h9.71V3H81.4V6.51H88V9.2H81.4v4.33h7.31v2.7Z"/><path d="M91.17,16.23V.27h5.57a7.65,7.65,0,0,1,3,.43,3.49,3.49,0,0,1,1.51,1.49,5.21,5.21,0,0,1,.58,2.54,4.8,4.8,0,0,1-.89,3,4,4,0,0,1-2.56,1.44,6.44,6.44,0,0,1,1.41,1.33,18.91,18.91,0,0,1,1.51,2.6l1.59,3.11H99.78l-1.91-3.47a22.24,22.24,0,0,0-1.41-2.36,1.94,1.94,0,0,0-.78-.65,3.6,3.6,0,0,0-1.33-.18h-.54v6.66ZM93.81,7h2a9.43,9.43,0,0,0,2.28-.16,1.49,1.49,0,0,0,.8-.63A2.4,2.4,0,0,0,99.15,5a2.2,2.2,0,0,0-.3-1.22A1.6,1.6,0,0,0,98,3.09,10.42,10.42,0,0,0,95.88,3H93.81Z"/><path d="M104.61,16.23V.27h2.57l5.35,10.66V.27H115v16h-2.65L107.07,5.82V16.23Z"/><path d="M12.14,127.73v-16H17.7a7.71,7.71,0,0,1,3.05.43,3.42,3.42,0,0,1,1.5,1.49,5.21,5.21,0,0,1,.59,2.54,4.74,4.74,0,0,1-.9,3,4,4,0,0,1-2.55,1.44,6.61,6.61,0,0,1,1.4,1.33,17.91,17.91,0,0,1,1.51,2.6l1.59,3.11H20.74l-1.91-3.47a25,25,0,0,0-1.4-2.36,2.08,2.08,0,0,0-.78-.65,3.6,3.6,0,0,0-1.33-.18h-.55v6.66Zm2.63-9.21h2a9.53,9.53,0,0,0,2.29-.16,1.47,1.47,0,0,0,.79-.63,2.4,2.4,0,0,0,.31-1.28,2.2,2.2,0,0,0-.31-1.22,1.57,1.57,0,0,0-.82-.64,10.55,10.55,0,0,0-2.15-.12H14.77Z"/><path d="M25.55,127.73v-16h9.71v2.7H28.19V118h6.57v2.69H28.19V125H35.5v2.7Z"/><path d="M38,127.73v-16h9.7v2.7H40.6V118h6.57v2.69H40.6V125h7.31v2.7Z"/><path d="M50.36,111.77h4.81a7.21,7.21,0,0,1,2.76.41,4.54,4.54,0,0,1,1.71,1.38,7.09,7.09,0,0,1,1.23,2.51,14,14,0,0,1,.45,3.84,12.43,12.43,0,0,1-.47,3.6,7.09,7.09,0,0,1-1.19,2.42,4.55,4.55,0,0,1-1.73,1.35,6.51,6.51,0,0,1-2.61.45h-5Zm2.63,2.7V125h2a5.17,5.17,0,0,0,1.85-.24,2.21,2.21,0,0,0,.93-.72,4.13,4.13,0,0,0,.61-1.53,15.84,15.84,0,0,0,0-5.55,3.78,3.78,0,0,0-.76-1.61,2.44,2.44,0,0,0-1.26-.77,10.75,10.75,0,0,0-2.14-.14Z"/><path d="M63.78,111.77H69a8.17,8.17,0,0,1,3,.39,3.42,3.42,0,0,1,1.47,1.39,4.49,4.49,0,0,1,.09,4.32,3.43,3.43,0,0,1-1.34,1.38,3.54,3.54,0,0,1,1.83,1.41,4.42,4.42,0,0,1,.65,2.44,5.05,5.05,0,0,1-.84,3,3.42,3.42,0,0,1-2,1.48,20.42,20.42,0,0,1-3.69.2H63.78Zm2.64,2.66v3.69h1.74a17.34,17.34,0,0,0,1.93-.06,1.63,1.63,0,0,0,1.06-.57,2,2,0,0,0,.38-1.26,1.9,1.9,0,0,0-.31-1.14,1.28,1.28,0,0,0-.75-.55,15,15,0,0,0-2.53-.11Zm0,6.34V125h2.45a7.69,7.69,0,0,0,2.07-.17,1.52,1.52,0,0,0,.77-.66,2.31,2.31,0,0,0,.31-1.26,2.27,2.27,0,0,0-.33-1.28,1.72,1.72,0,0,0-.88-.7,8.77,8.77,0,0,0-2.26-.19Z"/><path d="M77.17,111.77h2.64v8.64a20.32,20.32,0,0,0,.1,2.63,2.64,2.64,0,0,0,.83,1.63,2.92,2.92,0,0,0,3.24.17,2.11,2.11,0,0,0,.79-1.13A14.16,14.16,0,0,0,85,120.6v-8.83h2.63v8.38a22.06,22.06,0,0,1-.34,4.64,3.9,3.9,0,0,1-1.55,2.32,5.22,5.22,0,0,1-3.17.89,5.89,5.89,0,0,1-3.19-.73,4.19,4.19,0,0,1-1.67-2.07,15.76,15.76,0,0,1-.52-4.92Z"/><path d="M99,121.86l2.56,1a7.13,7.13,0,0,1-2,3.91A5,5,0,0,1,96.13,128,5.09,5.09,0,0,1,92,126a9.52,9.52,0,0,1-1.83-6.14A10,10,0,0,1,92,113.5a5.25,5.25,0,0,1,4.31-2A5,5,0,0,1,100,113a6.5,6.5,0,0,1,1.55,3.17l-2.61.76a3.59,3.59,0,0,0-1-2,2.52,2.52,0,0,0-1.76-.69,2.79,2.79,0,0,0-2.37,1.27,7.26,7.26,0,0,0-.91,4.16,7.7,7.7,0,0,0,.89,4.29,2.71,2.71,0,0,0,2.32,1.28,2.4,2.4,0,0,0,1.8-.81A5.12,5.12,0,0,0,99,121.86Z"/><path d="M104.06,127.73v-16h2.63v7.1l5.35-7.1h3.56L110.67,118l5.19,9.74h-3.42l-3.61-7.5-2.14,2.68v4.82Z"/><path d="M103.72,48a2.94,2.94,0,0,1-.58-1.71c-1.75-1.58-4.39-4-5.6-5.15a3.44,3.44,0,0,1-1-1.54,2.21,2.21,0,0,0-1.48-1.54,3,3,0,0,0-2.11.35c-.7.7-2.6.56-3.93.28a4.85,4.85,0,0,1,.21,1.4,1.53,1.53,0,0,1,.21.35c.14.14.21.28.35.42a1.89,1.89,0,0,0,.85.63,2.74,2.74,0,0,1-1.06-.42,8.39,8.39,0,0,1-.84-.77v-.14a7.13,7.13,0,0,0-1-2.38A6.1,6.1,0,0,0,86.09,36a14.21,14.21,0,0,0-2.25-1.26,12.06,12.06,0,0,0-1.47-.49,14,14,0,0,0,.28,1.68,14.91,14.91,0,0,0,1,2.45,6.11,6.11,0,0,0,1.48,1.82c.14,0,.21.14.28.21a3.92,3.92,0,0,0,1,.7,4.41,4.41,0,0,0,1.27.42h.07a.15.15,0,0,1,.14.14,15.16,15.16,0,0,1,.28,1.75c-.21-.42-.42-.91-.64-1.4a5.7,5.7,0,0,1-2.17-.42c-.63,2.73-4.36,9.73-5.69,11s-3.58.63-5.83.14c-.35-.07-.63-.14-.91-.21a5,5,0,0,0-2-.07,73.61,73.61,0,0,1-11.17.35,18.15,18.15,0,0,1-1.9-.28A89.67,89.67,0,0,0,39,50.94c-2.53.28-6.53,2.24-8.57,3.57a4,4,0,0,0-1.54,1.89c-1.06,3.08-1,9-.64,12a2.74,2.74,0,0,0,.57,1.4c1.26,1.68,1.33,4.27,1,6.09-.21,1.26-2.18,3.78-5.83,7.49a2.26,2.26,0,0,0-.56,1.47c.07,3.85.42,15.68.49,18.9l.49-.07a.78.78,0,0,1,.84.63l.35,1.68,1.34-.63-1.05-1.75a5.43,5.43,0,0,1-.64-2.17c-.28-4-.63-11-.28-12.6a7.54,7.54,0,0,1,1.76-3.92,3.62,3.62,0,0,0,.49-.42c6-5.11,9.83-8.61,11.52-10.36,1.19-1.26,1.9-2,2.39-2.52a12.2,12.2,0,0,0,1.61-1.75l.14-.14a.24.24,0,0,1,.07-.14L43,69.5a12.77,12.77,0,0,0,1.69-1.75,13.59,13.59,0,0,0,1.47-2,15.45,15.45,0,0,0,1.06-2.32,16.28,16.28,0,0,0,.56-2.52,10.79,10.79,0,0,1-.21,2.59A17.06,17.06,0,0,1,46.83,66a25.2,25.2,0,0,1-1.2,2.38c-.35.56-.77,1.19-1.19,1.75,1.54,1,8,4.41,20.44,3.64-.07-.35-.14-.63-.21-.91a18.87,18.87,0,0,1-.28-2,18.34,18.34,0,0,1-.07-2,17.21,17.21,0,0,1,.14-2,17.59,17.59,0,0,0,.28,1.89,8.55,8.55,0,0,0,.42,1.82,8.78,8.78,0,0,0,.63,1.75,8.68,8.68,0,0,0,.84,1.61.07.07,0,0,1,.07.07c.07.14.14.21.14.35s1.2,7.42,1.69,9.31a5.81,5.81,0,0,0,1.19,2.73.64.64,0,0,1,.22.49c0,.91.07,13,.07,15.82l.49.14a.8.8,0,0,1,.49.56l.63,2.52,1.62-.7-1.34-2a1,1,0,0,1-.14-.42l-.56-16.1v-.21a22.73,22.73,0,0,0,.7-3.29c0-.49.07-2.52.07-4.55s.07-4.06.07-4.69c0-.07.07-.14.07-.21v-.07c0-.07.07-.07.07-.14a21.11,21.11,0,0,0,.92-2.1c.28-.77.49-1.47.7-2.24s.35-1.54.49-2.31a13.58,13.58,0,0,0,.14-2.38A13.79,13.79,0,0,1,74.71,67c0,.77,0,1.61-.07,2.38s-.21,1.61-.35,2.38a17.21,17.21,0,0,1-.63,2.38v.14c1.54-.42,6.11-1.82,8.22-4.62a31.55,31.55,0,0,1,3.58-4.06,22.33,22.33,0,0,0,2.81-3.37c1.54-2.52,3.79-7.77,4.14-11.69l-1.19-.21-1-.14h-.14a.26.26,0,0,0-.21-.07c-.14,0-.21-.07-.35-.14a1.62,1.62,0,0,1-.49-.49L86.93,46l2.74,3c.14.07.21.14.28.14h.35l1-.07,1.89-.07h.28c.29,0,.85-.14,1.34-.21l1.33-.21a5.08,5.08,0,0,1,2.67.63c.42.21.92.35,1.27.49,1.19.35,1.47.14,1.47.14l.42-.56-1.47-.63-1.13-.49-.56-.28a1.52,1.52,0,0,1-.56-.35,1.94,1.94,0,0,1,.63.07l.64.14,1.19.28c.42.07.77.21,1.19.28l1.2.28h.07c.14.07.35.07.49.14a1,1,0,0,0,.77-.28.83.83,0,0,0,.14-.39A.85.85,0,0,1,103.72,48Zm-7-4.41c-.07.07-.14,0-.21,0l-.22-.07-.35-.14a3.41,3.41,0,0,1-.77-.28l-.7-.28a.89.89,0,0,1-.42.07,1.12,1.12,0,1,1,1.12-1.12l.49.56.56.56.29.28.14.14C96.7,43.38,96.77,43.38,96.7,43.59Zm-9-10.5A10.44,10.44,0,0,0,89,35.19c.28.28.49.63.77.91l.42.42.21.21.07.07c.07,0,.15.07.22.14a2.72,2.72,0,0,0,1.19-.07,6.46,6.46,0,0,0,.56-.35,1.52,1.52,0,0,1-.56-.35,10.55,10.55,0,0,1-2-1.89,9.59,9.59,0,0,1-2.25-5A10.6,10.6,0,0,1,88.27,24a9.45,9.45,0,0,1,1.33-2.31,6,6,0,0,1,1.69-1.53c.1,0,.18-.11.28-.15H91.5l-.06,0-.07.05A7,7,0,0,0,88.2,23.5a14.28,14.28,0,0,0-1.27,4.83A9.49,9.49,0,0,0,87,30.78,6.17,6.17,0,0,0,87.71,33.09ZM75.27,105.34v.07l.42.56h2l-1-1.19Zm-.63-20a6.65,6.65,0,0,1,.63-1.47,4.28,4.28,0,0,0,.57-2.1c.07-1,.14-4.62.28-6.65a19.48,19.48,0,0,1-2.46.7V78.6c0,2.1,0,4.06-.07,4.62a28,28,0,0,1-.7,3.5l.56,15.75,1,1.61,1.34-.56-1.13-2.45c-.07-.07-.07-.14-.07-.28L74.36,86.3c0-.07.07-.21.07-.28ZM72.18,107.3l.35.7v-.07h2.81l-1.26-1.47Zm-35.89-2,.35.7h2.81l-1.26-1.47Zm-3.72-13v-.07a13.72,13.72,0,0,1,1-8.19c.42-.77,2-3.71,3.51-6.44-2,1.89-4.91,4.48-8.64,7.63l5.2,16.73.42-.14a.76.76,0,0,1,1,.49l.56,1.54,1.61-.63C36.08,101.21,33.13,96,32.57,92.25Zm-6.53,15,.42.77h2.81l-1.41-1.68ZM24.77,65.65a6.52,6.52,0,0,0,1.13,1.89,7,7,0,0,0,.7.77v-.07c-.42-3.22-.49-9.32.7-12.68a11.87,11.87,0,0,0-1.54,1.68c-.22.28-.36.63-.57.91s-.14.35-.21.49l-.14.21-.07.28a7.46,7.46,0,0,0-.42,2.1,12.72,12.72,0,0,0,0,2.31A7,7,0,0,0,24.77,65.65Z"/></svg>