<svg id="Layer_1" data-name="Layer 1" xmlns="http://www.w3.org/2000/svg" width="128" height="128" viewBox="0 0 128 128"><title>Artboard 94</title><path d="M38.16,127.73v-16h5.56a7.71,7.71,0,0,1,3.05.43,3.42,3.42,0,0,1,1.5,1.49,5.21,5.21,0,0,1,.59,2.54,4.74,4.74,0,0,1-.9,3,4,4,0,0,1-2.55,1.44,6.61,6.61,0,0,1,1.4,1.33,17.91,17.91,0,0,1,1.51,2.6l1.59,3.11H46.76l-1.91-3.47a25,25,0,0,0-1.4-2.36,2.08,2.08,0,0,0-.78-.65,3.6,3.6,0,0,0-1.33-.18h-.55v6.66Zm2.63-9.21h2a9.53,9.53,0,0,0,2.29-.16,1.47,1.47,0,0,0,.79-.63,2.31,2.31,0,0,0,.31-1.28,2.12,2.12,0,0,0-.31-1.22,1.57,1.57,0,0,0-.82-.64,10.55,10.55,0,0,0-2.15-.12H40.79Z"/><path d="M51,119.85a11.39,11.39,0,0,1,.84-4.7,6.38,6.38,0,0,1,2.21-2.75,5.8,5.8,0,0,1,3.29-.9A5.65,5.65,0,0,1,62,113.64a9.37,9.37,0,0,1,1.77,6.11A9.5,9.5,0,0,1,61.85,126a6,6,0,0,1-9,0A9.36,9.36,0,0,1,51,119.85Zm2.72-.11a6.78,6.78,0,0,0,1,4.13,3.12,3.12,0,0,0,5.17,0,7,7,0,0,0,1-4.2,6.8,6.8,0,0,0-1-4.1,3.12,3.12,0,0,0-2.61-1.33,3.18,3.18,0,0,0-2.63,1.34A6.93,6.93,0,0,0,53.75,119.74Z"/><path d="M77.82,127.73H75l-1.15-3.62H68.57l-1.08,3.62H64.68l5.1-16h2.79ZM73,121.42l-1.81-5.93-1.77,5.93Z"/><path d="M79.46,127.73v-16H82l5.35,10.66V111.77h2.46v16H87.18l-5.26-10.41v10.41Z"/><path d="M33.31,34.53a5.42,5.42,0,0,0,.79-1.38,1.56,1.56,0,0,0,.12-.34.51.51,0,0,0,0-.27,4.09,4.09,0,0,0-.2-.73,3.58,3.58,0,0,1-.13-1.87c.1-.57.24-1.14.39-1.69.31-1.1.7-2.17,1.07-3.22a9,9,0,0,0,.43-1.64,4.48,4.48,0,0,1,.7-1.59,1.76,1.76,0,0,0,.14-1.5,6.62,6.62,0,0,0-.74-1.45A15.45,15.45,0,0,0,35,17.49a5.27,5.27,0,0,0-.49-.63,1,1,0,0,0-.23-.2c.13-1.3.38-3.28.54-4.51a27,27,0,0,1,.91-4.54c.43-1.47.91-2.92,1.45-4.35A14.25,14.25,0,0,1,38.73.32,5.37,5.37,0,0,0,38,.89a11.88,11.88,0,0,0-1.49,1.8,16.3,16.3,0,0,0-2,4.31c-.42,1.54-.9,3.1-1.37,4.63-.4,1.38-1,3-1.26,4.43l-1.24-.15-.71.07c-.3-1.39-.83-3-1.21-4.35-.47-1.53-.95-3.09-1.37-4.63a16.6,16.6,0,0,0-1.94-4.31,12.56,12.56,0,0,0-1.5-1.8,4.88,4.88,0,0,0-.78-.57,14.25,14.25,0,0,1,1.56,2.94c.55,1.43,1,2.88,1.45,4.35a26.08,26.08,0,0,1,.91,4.54c.16,1.22.17,3.1.28,4.36a1.46,1.46,0,0,0-.33.15,1.32,1.32,0,0,0-.23.21c-.17.18-.32.42-.48.63a13.61,13.61,0,0,0-.86,1.41,7,7,0,0,0-.62,1.44A1.63,1.63,0,0,0,25,21.69a4.4,4.4,0,0,1,.65,1.66c.05.31.05.6.09.86s.07.54.12.83c.2,1.1.46,2.2.75,3.3L27,30c.07.29.14.56.19.86a3.69,3.69,0,0,1,0,.94c-.07.31-.16.6-.2.82a.54.54,0,0,0,0,.28,1.22,1.22,0,0,0,.1.33,5.87,5.87,0,0,0,.8,1.34,4.15,4.15,0,0,0,2.69,1.66h.06A3.91,3.91,0,0,0,33.31,34.53Zm2.1-13.25a.25.25,0,0,1,.15.3,1.58,1.58,0,0,1-.72,1,1.7,1.7,0,0,1-1.22,0,.25.25,0,0,1-.15-.32,1.65,1.65,0,0,1,.72-1A1.7,1.7,0,0,1,35.41,21.28Zm-1.25-2.69a11.58,11.58,0,0,1-1.11,1.95c-.57.71-1.39,2.37.71,4,.74.58.57,3,.13,4-.39-2.49-1.32-2.44-1.8-3.41C30.39,21.73,33.9,18.8,34.16,18.59Zm-8.12,3a.24.24,0,0,1,.15-.3,1.7,1.7,0,0,1,1.22,0,1.65,1.65,0,0,1,.72,1,.26.26,0,0,1-.16.32,1.67,1.67,0,0,1-1.21,0A1.58,1.58,0,0,1,26,21.58Zm1.15,7c-.45-1-.62-3.41.13-4,2.1-1.64,1.27-3.3.71-4a10.27,10.27,0,0,1-1.11-1.95c.26.21,3.76,3.14,2.07,6.54C28.51,26.1,27.58,26.05,27.19,28.54Zm3.47,6.64A7.77,7.77,0,0,1,29,34.9c-.71-.14-1.35-1.82-1.4-3a7.31,7.31,0,0,1,1.22-3.08,4.24,4.24,0,0,0,.85.67c.29.15.76-.25.95-.44V29l.05.05a.2.2,0,0,1,.05-.05v.09c.19.19.65.59.95.44a4.38,4.38,0,0,0,.84-.67,7.29,7.29,0,0,1,1.23,3.08c0,1.18-.69,2.86-1.4,3A8,8,0,0,1,30.66,35.18Z"/><path d="M36.26,16.43h0l-1,.2c.11.14.24.27.34.4a9.17,9.17,0,0,1,.93,1.48,6.79,6.79,0,0,1,.57,1.68,2.44,2.44,0,0,1,0,.81,7.23,7.23,0,0,0,1.14-1.57,3.84,3.84,0,0,1,1.42-1.71c.65-.41,1.39-.6,1.89-.94a6.72,6.72,0,0,0,1.32-1.46c.39-.56.78-1.16,1.25-1.73A8.83,8.83,0,0,1,46,12.23a6.86,6.86,0,0,1,3.44-.43c.29.06,0-.57-.16-.8a1,1,0,0,0-.76-.43,15.12,15.12,0,0,1-2.12,0,12.54,12.54,0,0,0-6.94,1.75,3.22,3.22,0,0,0-.69.69,35.49,35.49,0,0,0-2.49,3.38Z"/><path d="M25,18.52A9.93,9.93,0,0,1,25.88,17l.35-.4-1-.2H25.2l0-.08A35.49,35.49,0,0,0,22.67,13a3.51,3.51,0,0,0-.7-.69A12.53,12.53,0,0,0,15,10.53a15.26,15.26,0,0,1-2.13,0,1.06,1.06,0,0,0-.76.43c-.18.23-.44.86-.16.8a6.9,6.9,0,0,1,3.45.43,8.76,8.76,0,0,1,1.91,1.37c.47.57.86,1.17,1.26,1.73a6.48,6.48,0,0,0,1.32,1.46c.5.34,1.23.53,1.88.94a3.72,3.72,0,0,1,1.42,1.71A7.28,7.28,0,0,0,24.38,21a2.44,2.44,0,0,1,0-.81A6.77,6.77,0,0,1,25,18.52Z"/><path d="M55.57,96.6l.15,0L57,96.06c-.19-2.07-.33-4.16-.44-6.23,0-1.1-.09-2.19,0-3.32.07-.7-.12-1.43-.09-2.14a25.38,25.38,0,0,1-2.11-6.26c-.4-2.39-1-4.74-1.56-7.1l-1.54-6.2a12.18,12.18,0,0,1-1.87-.26c.36,1.43.5,2.33.81,3.81.35,1.64.66,3.27.94,4.93.13.82.26,1.67.34,2.5a22.07,22.07,0,0,0,.36,2.44A27.5,27.5,0,0,0,53.14,83l0,0v0l.11,5.07c0,1.7.12,3.38.14,5.08,0,.43,0,.85,0,1.28A3.45,3.45,0,0,1,53,95.81,12.28,12.28,0,0,1,51.66,98c-.26.35-.42.53-.61.76a23.57,23.57,0,0,0,2.61,1.31c.6-1.12,1.21-2.22,1.82-3.33Z"/><path d="M102.54,76.7q-1.44-2.78-2.91-5.54c-.5-.9-1-1.88-1.49-2.75S97,66.66,96.45,65.8c-.92-1.38-1.42-2.11-2.39-3.46a17.36,17.36,0,0,1-6,4.35,55.33,55.33,0,0,0,4.25,6c1.58,1.91,3.39,3.3,3.78,3.86A7.39,7.39,0,0,1,97,78.81a16.35,16.35,0,0,1,.43,2.32,11,11,0,0,1,0,2.37,44.11,44.11,0,0,1-1.79,6.43C94.14,94,92,98.51,92,98.51s2.21,1.35,2.45,1.52l.33-1.51,1,.2A66,66,0,0,1,99.3,88.16q2-4.75,4.23-9.46Z"/><path d="M49.2,101l4.06.09.1-.22s-2.72-1.55-2.75-1.55S49.2,101,49.2,101Z"/><path d="M55,102.91l4.06.09.11-.22s-2.73-1.55-2.76-1.55S55,102.91,55,102.91Z"/><path d="M90,101l4.06.09.1-.22s-2.72-1.55-2.75-1.55S90,101,90,101Z"/><path d="M100.3,102.91l4.06.09.1-.22s-2.73-1.55-2.75-1.55S100.3,102.91,100.3,102.91Z"/><path d="M32.21,32c-.21.05-1.13,1-1.55,1s-1.35-.92-1.55-1-.44.36-.29.79a5.43,5.43,0,0,0,1.08,1.29c.21.22.39.64.76.64s.55-.42.75-.64A5.45,5.45,0,0,0,32.5,32.8C32.65,32.37,32.41,32,32.21,32Z"/><path d="M115.7,67.34c-.7-.93-1.86,0-3.47-2.21s-.94-3.82-.49-6.6,2.1-7.42,2.45-9.62-.7-4.53-5-8.82v.14l-.45-.56A29,29,0,0,0,105.23,36a11.16,11.16,0,0,0-4.3-2.45,27.56,27.56,0,0,0-5-.84c-1.69-.15-3.4-.24-5.1-.25s-3.42.09-5.14.11l-10.28.14c-1.72,0-3.43,0-5.15,0-.44,0-.87,0-1.32-.1a8.94,8.94,0,0,1-1.29-.27c-.85-.22-1.67-.49-2.48-.78C63.56,31,62,30.36,60.38,29.68c-.38-.15-.81-.36-1.16-.47A4.81,4.81,0,0,0,58.07,29a13.74,13.74,0,0,0-2.49,0,29,29,0,0,1-5.2.09,10.56,10.56,0,0,1-2.55-.72c-.81-.31-1.6-.63-2.39-1-1.59-.67-3.14-1.41-4.68-2.17-.77-.37-1.53-.77-2.29-1.18a9.49,9.49,0,0,1-1.72-1c-.11.27-1.43,4.43-1.68,5.52-.12.55-.22,1.09-.3,1.63a3.11,3.11,0,0,0,.13,1.48,2.55,2.55,0,0,1,.19.92c-.22,2.86-3,5.05-4.1,4.91a13,13,0,0,0,1.62,4,11.28,11.28,0,0,0,1.59,2.21c.65.68,1.32,1.38,1.92,2.13S37.28,47.27,37.9,48s1.3,1.39,2,2.11a8.74,8.74,0,0,1,1.45,1.81,11.15,11.15,0,0,1,.91,1.87c0-.18,0-.36,0-.54-.07-1-.27-2.57-.33-3.6-.09-2.09.44-3.15.44-5.21l.08,0a13.23,13.23,0,0,1,.47,3.11c.05,1-.22,2-.27,3.06s.12,2.13.13,3.17a10.24,10.24,0,0,0,.45,3,12.83,12.83,0,0,0,3.06,5.1,7.43,7.43,0,0,0,2.5,1.52,13.28,13.28,0,0,0,2.7.63l-.08-.3a17.67,17.67,0,0,0-.5-1.74A15,15,0,0,0,50,60.37a13.41,13.41,0,0,0-2.11-2.93l.06-.07a14,14,0,0,1,2.29,2.85,15,15,0,0,1,.89,1.62c.25.6.39,1.18.58,1.76.7,2.34,1.4,4.68,2,7s1.3,4.7,1.74,7.12a24.52,24.52,0,0,0,2.39,6.74l0,.07v.06c.25,1.7.42,3.37.59,5.06s.34,3.36.44,5.06c0,.43,0,.86,0,1.3a3.64,3.64,0,0,1-.29,1.36,13.88,13.88,0,0,1-1.28,2.27c-.25.36-.76,1-.76,1a19.53,19.53,0,0,0,2.71,1.42l1.79-4,1.74-.77c-.29-2.38-.64-4.75-1-7.12s-.82-7.39-.82-7.39a17.28,17.28,0,0,0,.26-2.61A7.86,7.86,0,0,0,61.26,79a8.44,8.44,0,0,0-.44-1.18s-.24-1.74-.26-2.36l0-1.83a17.91,17.91,0,0,0-.11-1.79c-.06-.6-.19-1.14-.31-1.78A42.26,42.26,0,0,1,59.45,63a9.24,9.24,0,0,1,.74-3.68,11.67,11.67,0,0,0,.6-1.67,8.66,8.66,0,0,0,.07-1.77,18.07,18.07,0,0,0-.57-3.57A10.41,10.41,0,0,0,58.85,49l.07-.06a11.51,11.51,0,0,1,2.17,3.27,16,16,0,0,1,.74,3.62,8.54,8.54,0,0,1,0,1.89,12.14,12.14,0,0,1-.56,1.79,9,9,0,0,0-.63,3.3,11.09,11.09,0,0,1,3.75.4,27.14,27.14,0,0,1,4.42,1.34,45.09,45.09,0,0,0,8.72,2.28,23,23,0,0,0,4.54.31,13.84,13.84,0,0,0,4.37-1A26.82,26.82,0,0,0,93.9,62l-.69-1c-.65-.81-1.13-1.8-2.12-2.14a8,8,0,0,0-2.79-.77V58a9.25,9.25,0,0,1,3.12.45,2.85,2.85,0,0,1,1.33.91c.35.4.68.81,1,1.21,1.29,1.66,2.53,3.34,3.75,5,.61.86,1.21,1.71,1.77,2.61s1,1.82,1.56,2.74c1,1.82,2.06,3.64,3,5.5.47.94,1,1.88,1.38,2.83a14,14,0,0,1,1.1,3,18.53,18.53,0,0,1,0,6.39,27.83,27.83,0,0,1-1.7,6.11c-.71,1.88-1.51,3.71-2.42,5.6l2.36,1.61.65-1.78,1.41.16c1.08-3.64,2.15-7.27,3.21-10.92l1.59-5.57a15.06,15.06,0,0,0,.74-2.78,7.17,7.17,0,0,0-.19-2.77,36.31,36.31,0,0,1-3.24-8.54c-.18-.74-.36-1.49-.5-2.24l-.2-1.13a6.13,6.13,0,0,1-.15-1.18,17.33,17.33,0,0,1,1-4.55c.46-1.44,1-2.85,1.48-4.25a12.15,12.15,0,0,1,0,2.16,11.5,11.5,0,0,0,.7,5.91,17,17,0,0,0,1,3.26,4.74,4.74,0,0,1,.47,2.06c0,1.38.72,3,3.13,5.81C116.16,74.41,116.39,68.26,115.7,67.34Z"/></svg>