<svg id="Layer_1" data-name="Layer 1" xmlns="http://www.w3.org/2000/svg" width="128" height="128" viewBox="0 0 128 128"><title>Artboard 95</title><path d="M16.2,127.73v-16h5.56a7.71,7.71,0,0,1,3,.43,3.47,3.47,0,0,1,1.5,1.49,5.21,5.21,0,0,1,.59,2.54,4.74,4.74,0,0,1-.9,3,4,4,0,0,1-2.56,1.44A6.44,6.44,0,0,1,24.85,122a18.91,18.91,0,0,1,1.51,2.6L28,127.73H24.8l-1.91-3.47a25,25,0,0,0-1.4-2.36,2,2,0,0,0-.79-.65,3.57,3.57,0,0,0-1.33-.18h-.54v6.66Zm2.63-9.21h2a9.37,9.37,0,0,0,2.28-.16,1.45,1.45,0,0,0,.8-.63,2.4,2.4,0,0,0,.3-1.28,2.2,2.2,0,0,0-.3-1.22,1.56,1.56,0,0,0-.83-.64,10.35,10.35,0,0,0-2.14-.12H18.83Z"/><path d="M29.07,119.85a11.39,11.39,0,0,1,.84-4.7,6.43,6.43,0,0,1,2.2-2.75,5.86,5.86,0,0,1,3.3-.9A5.66,5.66,0,0,1,40,113.64a9.37,9.37,0,0,1,1.77,6.11A9.56,9.56,0,0,1,39.89,126a5.49,5.49,0,0,1-4.47,2,5.53,5.53,0,0,1-4.48-2A9.36,9.36,0,0,1,29.07,119.85Zm2.72-.11a6.85,6.85,0,0,0,1,4.13,3.16,3.16,0,0,0,2.6,1.38A3.11,3.11,0,0,0,38,123.88a7,7,0,0,0,1-4.2,6.87,6.87,0,0,0-1-4.1,3.24,3.24,0,0,0-5.24,0A6.86,6.86,0,0,0,31.79,119.74Z"/><path d="M52.43,121.86l2.56,1a7.13,7.13,0,0,1-2,3.91A4.93,4.93,0,0,1,49.57,128a5.09,5.09,0,0,1-4.15-2,9.52,9.52,0,0,1-1.83-6.14,10,10,0,0,1,1.84-6.39,5.24,5.24,0,0,1,4.31-2,5,5,0,0,1,3.68,1.5A6.5,6.5,0,0,1,55,116.17l-2.61.76a3.59,3.59,0,0,0-1-2,2.49,2.49,0,0,0-1.76-.69,2.79,2.79,0,0,0-2.36,1.27,7.25,7.25,0,0,0-.92,4.16A7.79,7.79,0,0,0,47.2,124a2.73,2.73,0,0,0,2.32,1.28,2.4,2.4,0,0,0,1.81-.81A5.21,5.21,0,0,0,52.43,121.86Z"/><path d="M57.49,127.73v-16h2.64v7.1l5.35-7.1H69L64.1,118l5.2,9.74H65.88l-3.61-7.5-2.14,2.68v4.82Z"/><path d="M87.33,127.73H84.46l-1.14-3.62H78.08L77,127.73H74.19l5.09-16h2.8Zm-4.86-6.31-1.81-5.93-1.77,5.93Z"/><path d="M88.94,127.73v-16H94.5a7.68,7.68,0,0,1,3,.43,3.42,3.42,0,0,1,1.5,1.49,5.1,5.1,0,0,1,.59,2.54,4.74,4.74,0,0,1-.9,3,4,4,0,0,1-2.55,1.44A6.44,6.44,0,0,1,97.6,122a18.91,18.91,0,0,1,1.51,2.6l1.59,3.11H97.55l-1.92-3.47a21.09,21.09,0,0,0-1.4-2.36,2,2,0,0,0-.78-.65,3.6,3.6,0,0,0-1.33-.18h-.54v6.66Zm2.64-9.21h2a9.43,9.43,0,0,0,2.28-.16,1.49,1.49,0,0,0,.8-.63,2.4,2.4,0,0,0,.3-1.28,2.2,2.2,0,0,0-.3-1.22,1.6,1.6,0,0,0-.83-.64,10.42,10.42,0,0,0-2.14-.12H91.58Z"/><path d="M105.3,127.73V114.47h-3.89v-2.7H111.8v2.7h-3.87v13.26Z"/><path d="M65.23,97a5.28,5.28,0,0,1,.13-1.68,5.25,5.25,0,0,0-.54,1.65c-.1.58-.19,1.15-.25,1.73-.08.78-.14,1.55-.19,2.33h1.39c-.15-.77-.28-1.56-.38-2.34A15.84,15.84,0,0,1,65.23,97Z"/><path d="M109.9,33.56l-3.56,1.19L99,29.25l7.3,3.44,3.31-.69c-1.83-11.15-3.83-22.55-3.83-22.55L30.66,14.14a5.29,5.29,0,0,0-4,2.25l-25.61,37A5.21,5.21,0,0,0,.15,57c1.07,8.25,5.07,39.23,4.78,41l5.5.23L11.53,96l-.33-7.08s1.21,6,1.3,6.57A7.86,7.86,0,0,1,12,98.35L51.17,101s-1.93-3.65-2.4-4.58c.1-.88.45-4.38.52-5.25.55-1,2.86-5.46,3.07-5.87.25.39,4.07,5.61,4.07,5.61l-.36.91s-.35,4.41-.33,5a10.88,10.88,0,0,0,.17,1.81A10.63,10.63,0,0,1,56,96.86c.08-.59.61-2.93.77-3.5l.57-1.86a41.29,41.29,0,0,0,4.15.53c.76.06,1.53.12,2.28.2s1.51.19,2.26.31h0c1.57-.11,3.14-.11,4.72-.13.78,0,4.89-.15,4.89-.15l.16-.13,2.9-2.45c.26-.21.5-.44.75-.67,1.1.09,5.67.25,5.67.25l2.29-2.09c.43,1.35.86,2.69,1.3,4,.08,1.31.2,2.62.28,3.92-.38,1-1.8,4.92-2.13,5.87l15,2s9.94-48.3,10.61-49.91C112.84,52.35,111.48,43.26,109.9,33.56ZM16.05,81a15.33,15.33,0,0,0-.58,2.36s.34,1.34.58,2.21c0,0-2.39.35-2.54.35a22.22,22.22,0,0,0-1.67-2.41,11.14,11.14,0,0,1-2.12-2.23c-.34-.68-1.61-1.14-1.9-1.5s-.33-.72.29-1.07.91,1.55,2,1.4S8.35,76.27,9.35,76s1.48,3.27,2.39,3.18-.37-3.86,1.1-3.71c.76.07-.09,3.69.67,3.75s1.05-2.77,2-2.62-.86,3.34,0,3.52,1.2-2,1.77-1.76S16.28,80.6,16.05,81Zm14.28,1.68c-1.41,2.19-2.51,6.33-2.74,6.33s-4.14-.93-4.14-.93c.39-2.27.94-5.79.94-5.79a60.74,60.74,0,0,0-.94-6.17c-.39-1.17-2.89-6.41-2-7.11s1.49,5.08,2.9,4.61-1.49-8.83,0-9.22,1.95,7,3.2,6.87-.15-9.64,1.09-9.84c2.41-.39.32,9.48,1.81,9.72s2.26-9.1,3.9-8.32S31.5,73.42,33.22,73.81s2.19-4.61,3.2-3.67A2.12,2.12,0,0,1,36.89,73c-.47.93-2.55,2.14-3.09,3.94S31.73,80.54,30.33,82.72ZM42,88.63c.42.85,2.06-2.12,2.25-1.58s-1.34,2.92-1.58,3.1a19.43,19.43,0,0,0-2.92,3.77,26.56,26.56,0,0,1-1.94,3.46,1.72,1.72,0,0,1-2,.44c-1.09-.5-.06-3.66.31-3.9A9.14,9.14,0,0,0,37,91.37c.67-2.68.55-4.07.91-5.29s.24-4.19.91-4-.49,3.77.36,3.89,1.22-5.16,1.89-5-1,4.79-.43,5.16,1.28-5.28,2-4.85S41.45,86,42,86.2s2.19-3.76,2.49-3.15S41.57,87.78,42,88.63ZM38.55,54.54a2.25,2.25,0,0,1,.32-1.18,2.37,2.37,0,0,1,2.05-1.19,2.37,2.37,0,1,1,0,4.74,2.36,2.36,0,0,1-2.05-1.18A2.31,2.31,0,0,1,38.55,54.54Zm7.34,6.64a1.36,1.36,0,0,1,1.18-2,1.36,1.36,0,1,1,0,2.72A1.36,1.36,0,0,1,45.89,61.18Zm6,17.05a2.37,2.37,0,0,1-4.42-1.18,2.41,2.41,0,0,1,.32-1.19,2.37,2.37,0,0,1,4.1,0A2.39,2.39,0,0,1,51.87,78.23Zm.06-35.64a6.75,6.75,0,0,1-2,1.44,11.31,11.31,0,0,1-4.72.91,30.47,30.47,0,0,1-4.68-.4A16.48,16.48,0,0,1,36,43.18a15.05,15.05,0,0,1-3.85-2.73c-.29-.27-.56-.55-.83-.84l-.4-.43-.4-.5a6.93,6.93,0,0,1-1-2.28A9.51,9.51,0,0,1,29.26,34a12,12,0,0,1,.25-2.4,10.82,10.82,0,0,1,1.9-4.42,10.14,10.14,0,0,1,3.71-3,21.47,21.47,0,0,1,2.16-.91c.73-.26,1.46-.51,2.21-.73a14.19,14.19,0,0,1,2.33-.2c.78,0,1.56,0,2.34,0a6.22,6.22,0,0,1,2.35.46A9.26,9.26,0,0,1,48.6,24a19.13,19.13,0,0,1,3.33,3.4c.49.61,1,1.24,1.41,1.87s.91,1.24,1.36,2a7.36,7.36,0,0,1,.88,2.4,6.21,6.21,0,0,1-.15,2.58,19.25,19.25,0,0,1-2.1,4.32A9,9,0,0,1,51.93,42.59ZM85,88.51c-.91-.15-5.87-.8-5.87-.8L75.22,91.1s-7.56,1-9.12,1.08c-.74-.12-7.29-1.57-8.74-1.77-.37-.45-4.52-5-4.88-5.31,1-.35,11.66-4.38,12.15-4.53l2.22-.13c1.14.35,14.87,5.4,15.48,5.57s3.82.91,4.81,1.12C86.84,87.31,85.37,88.23,85,88.51ZM98.4,59.23c-1.19,1.08,1.93,10.75.42,11s-2.12-6.71-2.48-8.71S93.15,60,92.05,60.3s.22,11.44-1.77,10.94,1-11.51-2.41-11.82-2.18,11.13-4,10.65,1.9-10.87-1.08-11.79-2.17,11.08-3.93,10.66,1.26-12.16.77-13.13-.41-1.29-.48-3.69-1.72-6.86-2.37-9.53-1.21-1.9-1.88-1.89a8.77,8.77,0,0,1-3.81.14c-2.05-.46-.07-1.29,1-1.39.86-.08,1.68-.33,2.85-.47a6.8,6.8,0,0,0,2.2-.69c.56-.29,1.08-.76,1.49-1,2.48-1.45,5.81-1,7.16-.73s4,3.44,4.26,3.94,1.06,2.44.07,2.69S88.91,42.08,88.61,41,87,39.11,85.3,37.88s-6-.5-6.12.82,1.31-.16,3.75.5a5.81,5.81,0,0,1,4,4.34c.2,1.37-.93,2.36-1.74,2s-.49-1-.15-1.79-.89-1.93-2.65-2.73a2.15,2.15,0,0,0-3,2.14c.23,1.17,1.28,5.89,3,7.27S86,51.92,89,53.22s4.73,3.25,6.71,3.79,7.15-2.07,8-.67S99.59,58.14,98.4,59.23Z"/><path d="M54.25,33.89A6.17,6.17,0,0,0,53.53,32c-.35-.6-.82-1.26-1.25-1.89L51,28.17a26.46,26.46,0,0,0-2.9-3.49,6.42,6.42,0,0,0-3.93-2,16.19,16.19,0,0,0-4.61-.06,18.3,18.3,0,0,0-4.24,1.81,9.23,9.23,0,0,0-3.21,3.12,10.81,10.81,0,0,0-.92,2,16,16,0,0,0-.54,2.17,12.77,12.77,0,0,0-.07,4.4,6.39,6.39,0,0,0,.71,2l.3.44.36.45c.24.29.48.59.74.87a11.89,11.89,0,0,0,3.53,2.85,13.3,13.3,0,0,0,4.37,1.3,22,22,0,0,0,2.3.18,21.82,21.82,0,0,0,2.29,0,11.07,11.07,0,0,0,4.3-1.11,5.64,5.64,0,0,0,1.67-1.31A8.75,8.75,0,0,0,52.3,40a18.6,18.6,0,0,0,1.85-4.07A5.17,5.17,0,0,0,54.25,33.89ZM51,35.54a7.4,7.4,0,0,1-1.47,3.17A10.55,10.55,0,0,1,48.44,40l-.58.57-.35.31-.37.26a6.94,6.94,0,0,1-3.27,1,8.81,8.81,0,0,1-3.31-.43,13.52,13.52,0,0,1-3-1.42,15.56,15.56,0,0,1-1.33-1A10.12,10.12,0,0,1,35,38.17a8.14,8.14,0,0,1-1.73-2.94,7.74,7.74,0,0,1,1-6.61,5.64,5.64,0,0,1,1.21-1.23A5.87,5.87,0,0,1,37,26.65c1-.36,2.08-.64,3.1-1a7,7,0,0,1,1.64-.12,9.18,9.18,0,0,1,1.64.15,11.78,11.78,0,0,1,3.11,1.2A9.71,9.71,0,0,1,49.14,29a8.07,8.07,0,0,1,1.7,3A7.56,7.56,0,0,1,51,35.54Z"/><path d="M48.2,29.76A13.16,13.16,0,0,0,46,27.58a11.53,11.53,0,0,0-1.31-.88A7.5,7.5,0,0,0,43.29,26a6.72,6.72,0,0,0-1.56-.29,5.28,5.28,0,0,0-1.59.05,24.35,24.35,0,0,0-3,1.17,5.1,5.1,0,0,0-1.29.86A5.46,5.46,0,0,0,35,29.05,8.83,8.83,0,0,0,34.14,32a8.59,8.59,0,0,0,.17,3,8,8,0,0,0,1.25,2.77,10.49,10.49,0,0,0,2.26,2.2,9.61,9.61,0,0,0,2.86,1.35,7.12,7.12,0,0,0,3.11.15l.38-.07.37-.1a6.13,6.13,0,0,0,.72-.25,6.32,6.32,0,0,0,1.3-.73l.28-.23.25-.24.54-.6a12.24,12.24,0,0,0,1-1.2,6.36,6.36,0,0,0,1.13-2.69,6.68,6.68,0,0,0-.2-2.91A7.5,7.5,0,0,0,48.2,29.76Zm-2.15,6.67a9.63,9.63,0,0,1-1.25,1.31,5.47,5.47,0,0,1-1.61,1,3.84,3.84,0,0,1-2,.18,3.54,3.54,0,0,1-1-.35,2.56,2.56,0,0,1-.45-.27l-.21-.15L39.36,38a7.11,7.11,0,0,1-1.27-1.41,6.42,6.42,0,0,1-.83-1.73,3.94,3.94,0,0,1-.08-2,3,3,0,0,1,.38-.92,3.37,3.37,0,0,1,.64-.71,15.25,15.25,0,0,1,1.46-1,5.93,5.93,0,0,1,3.46-1,4,4,0,0,1,3.22,1.94A5.24,5.24,0,0,1,47,33a4.37,4.37,0,0,1,0,1.87,2.79,2.79,0,0,1-.37.87A9,9,0,0,1,46.05,36.43Z"/><path d="M46.31,33.16a5.6,5.6,0,0,0-.84-1.37A5.66,5.66,0,0,0,43,30a3.89,3.89,0,0,0-1.63-.23,3.31,3.31,0,0,0-1.61.53,5,5,0,0,0-1.28,1.15A2.08,2.08,0,0,0,38,33a4.6,4.6,0,0,0,.4,1.47,6.76,6.76,0,0,0,.78,1.35,8,8,0,0,0,1,1.21,2.84,2.84,0,0,0,1.2.73,4.11,4.11,0,0,0,2.95-.56,5.46,5.46,0,0,0,1.33-1,5.38,5.38,0,0,0,.53-.65,1.81,1.81,0,0,0,.29-.75A2.8,2.8,0,0,0,46.31,33.16Z"/><path d="M115,30.9h3.43l2-1.1c-1.38-5.6-2.62-10.58-3.2-12.89a3.62,3.62,0,0,0-1.55-2.15l-7-4.56,4.1,21.17Z"/><path d="M126.19,54.07c.15,0-2.61-11.76-5.12-21.93l-1.69,1.07-3.3-.69-2.86,1,3.61,19.17S107,103,106.35,103l21.54-4.85S125.91,54,126.19,54.07Z"/></svg>