<svg id="Layer_1" data-name="Layer 1" xmlns="http://www.w3.org/2000/svg" width="128" height="128" viewBox="0 0 128 128"><title>Artboard 96</title><path d="M33.37,122.53l2.58-.31q.44,3.06,2.85,3.06a2.7,2.7,0,0,0,1.89-.63,2,2,0,0,0,.68-1.55,1.68,1.68,0,0,0-.24-.92,1.76,1.76,0,0,0-.73-.63,21.38,21.38,0,0,0-2.37-.82,8,8,0,0,1-2.47-1.11,4.25,4.25,0,0,1-1.25-1.57,4.91,4.91,0,0,1-.46-2.09,4.64,4.64,0,0,1,.6-2.35A3.88,3.88,0,0,1,36.08,112a5.73,5.73,0,0,1,2.58-.53,4.53,4.53,0,0,1,5,4.83l-2.65.14a2.79,2.79,0,0,0-.75-1.79,2.39,2.39,0,0,0-1.64-.51,2.65,2.65,0,0,0-1.65.44,1.38,1.38,0,0,0-.05,2.2,7.2,7.2,0,0,0,2.41,1A9.87,9.87,0,0,1,42.18,119a4,4,0,0,1,1.36,1.64,5.77,5.77,0,0,1,.47,2.44,5.05,5.05,0,0,1-1.28,3.5,5.15,5.15,0,0,1-4,1.41C35.52,128,33.74,126.17,33.37,122.53Z"/><path d="M58.26,127.73H55.4l-1.15-3.62H49l-1.08,3.62H45.12l5.1-16H53Zm-4.86-6.31-1.81-5.93-1.77,5.93Z"/><path d="M59.86,111.77H65.1a8.13,8.13,0,0,1,3,.39,3.42,3.42,0,0,1,1.47,1.39,4.49,4.49,0,0,1,.09,4.32,3.41,3.41,0,0,1-1.33,1.38,3.56,3.56,0,0,1,1.82,1.41,4.42,4.42,0,0,1,.65,2.44,5,5,0,0,1-.83,3,3.45,3.45,0,0,1-2,1.48,20.42,20.42,0,0,1-3.69.2H59.86Zm2.64,2.66v3.69h1.74a17.7,17.7,0,0,0,1.94-.06,1.61,1.61,0,0,0,1-.57,2.27,2.27,0,0,0,.07-2.4,1.22,1.22,0,0,0-.75-.55,14.92,14.92,0,0,0-2.53-.11Zm0,6.34V125H65a7.69,7.69,0,0,0,2.07-.17,1.48,1.48,0,0,0,.77-.66,2.31,2.31,0,0,0,.31-1.26,2.27,2.27,0,0,0-.33-1.28,1.72,1.72,0,0,0-.88-.7,8.73,8.73,0,0,0-2.25-.19Z"/><path d="M73.35,127.73V111.9H76V125h6.57v2.7Z"/><path d="M84.68,127.73v-16h9.71v2.7H87.31V118h6.58v2.69H87.31V125h7.32v2.7Z"/><path d="M19.18,62.28c.4.81.81,1.62,1.23,2.42.72,1.48,1.52,2.93,2.29,4.42a9.7,9.7,0,0,0,.49-1.33c.07-.25.11-.49.16-.73a19.6,19.6,0,0,1-1.5-2.43,17.07,17.07,0,0,1-1.32-3.38,7.89,7.89,0,0,1-.28-1.84c0-.6,0-1.21,0-1.81a15.6,15.6,0,0,1,.16-1.81,5.32,5.32,0,0,1,.43-1.56,10.23,10.23,0,0,1,0-2.07,8.35,8.35,0,0,1,.41-1.91,12.09,12.09,0,0,0-3,9.57A9.53,9.53,0,0,0,19.18,62.28Z"/><path d="M42.64,89.76c-.35-.59-.72-1.12-1.12-1.69a9.43,9.43,0,0,1-1.84-3.88,13.62,13.62,0,0,1,.25-4.25l.73-4.08a13.92,13.92,0,0,0,.26-2,6.49,6.49,0,0,1,.27-2.1,32.42,32.42,0,0,1,1.19-3.48A8.67,8.67,0,0,1,38.55,66a12.29,12.29,0,0,0-1.08,1.82,4.76,4.76,0,0,1-.43.68,3.74,3.74,0,0,1-.62.51c-.43.29-1,.64-1.43.89a11.32,11.32,0,0,0-1.25.77,5.27,5.27,0,0,0-.52.44,4.59,4.59,0,0,1,.56,2.09A19.26,19.26,0,0,1,34,76.14a26.36,26.36,0,0,1-.18,2.94,15.9,15.9,0,0,1-.56,2.76c.42.7,1,1.44,1.48,2.15l1.64,2.27c1.11,1.51,2.19,3,3.27,4.56.27.38.54.77.8,1.16a6.26,6.26,0,0,0,.8,1.12c.62.68,1.29,1.35,1.91,2.07a6.9,6.9,0,0,1,1.5,2.41,5.77,5.77,0,0,0,.19.65,1.53,1.53,0,0,0,.35.54,2.24,2.24,0,0,0,1.05.56l3-2c-1.83-1.89-3.64-3.82-5.32-5.88A15.92,15.92,0,0,1,42.64,89.76Z"/><path d="M69,88.23c-.75.47-1.51.93-2.3,1.35a7.18,7.18,0,0,1,0,.8c-.06.35.13.51-.16.88a.64.64,0,0,1-.31.17l-.27,0c-.17,0-.34,0-.51.06l-.86.07c.15.81.19,1,.38,1.84.15.61.34.86.47,1.46A31,31,0,0,1,68,92.47c.55-.45,1.09-.92,1.68-1.34s1.49-1,1.49-1l.27-3.58S69.72,87.75,69,88.23Z"/><path d="M80.06,76.27c-.2-.43-.42-.86-.65-1.27-.47-.82-1-1.6-1.51-2.41q-.37-.61-.69-1.26A6.19,6.19,0,0,1,76.67,70a15.08,15.08,0,0,0-.55-2.27c-.07,1.68-.08,3.36-.08,5l0,3.93a1.89,1.89,0,0,1,.48.36,4.37,4.37,0,0,1,.54.83,5.42,5.42,0,0,1,.35.9,2.58,2.58,0,0,1,.12,1.09,1.7,1.7,0,0,1-.26.54,2.41,2.41,0,0,1-.29.4,8.29,8.29,0,0,1-.63.7,10.41,10.41,0,0,1-1.19,1l.12,3.29c1-1.22,2-2.39,3-3.55l.94-1a6,6,0,0,0,.79-1.06,4,4,0,0,0,.45-2.54A5,5,0,0,0,80.06,76.27Z"/><path d="M83.48,3.37a26.68,26.68,0,0,1,3.88-.79,11,11,0,0,1,1.52-.07l-.07,0A15.37,15.37,0,0,0,85.5,2h-.1c-.64.37-1.29.69-2,1s-1.62.7-2.44,1-1.66.59-2.49.86c-.59.21-1.18.41-1.74.67a22.91,22.91,0,0,0,3-1C81,4.16,82.23,3.76,83.48,3.37Z"/><path d="M56.51,35l.62.56,1.22,1.07A35.17,35.17,0,0,1,65.92,34a16.86,16.86,0,0,1,2.66-.37,14.35,14.35,0,0,1,2.7.15c1.77.24,3.48.65,5.18,1a18.78,18.78,0,0,0,2.54.38,4.81,4.81,0,0,0,2.4-.39c1.65-.56,3.3-1.18,4.94-1.79,3.18-1.18,6.37-2.36,9.58-3.48l-.32-.38A6,6,0,0,1,95,27.94a3.83,3.83,0,0,1-.28-1.29,1.08,1.08,0,0,1,0-.18c-1.67.23-3.38.4-5,.59s-3.3.9-5,1.36-3.34,1-5,1.34c-.85.19-1.71.36-2.59.51a11.34,11.34,0,0,1-1.32.14l-1.31.05c-1.73.05-3.48.07-5.21.09s-3.48,0-5.23,0a8.74,8.74,0,0,1-2.64-.38,2.24,2.24,0,0,0-2,.71,18.76,18.76,0,0,0-3.22,3.69l.12.14Z"/><path d="M115,43.81a6.17,6.17,0,0,0-.31-.63.47.47,0,0,1-.09-.12l-.13-.14a4.29,4.29,0,0,1-.28-.35c-.33-.45-.63-.92-.93-1.37-.6-.91-1.18-1.82-1.79-2.71s-1.26-1.8-1.79-2.75a8.52,8.52,0,0,1-1.21-3.08,6.4,6.4,0,0,1,.25-1.66,11.39,11.39,0,0,1,.81-1.76c2.15-5.36,3-10.68-.07-18.84a13.12,13.12,0,0,0-2.67-4.11A20.47,20.47,0,0,0,105,4.63a12.93,12.93,0,0,0-2-1.35A22.31,22.31,0,0,0,95.23.94c1,.46,2,.94,2.94,1.49a22.39,22.39,0,0,1,5.89,5,19.9,19.9,0,0,1,3.88,6.6,10.47,10.47,0,0,1,.74,3.82c0,1.28,0,2.54,0,3.81s-.12,2.54-.23,3.8-.21,2.27-.4,3.4h0l-.08,0h0c.26-2.38.28-4.82.31-7.23,0-1.26,0-2.52-.1-3.78a10.66,10.66,0,0,0-.8-3.58,36.23,36.23,0,0,0-3.94-6.38A16.65,16.65,0,0,0,97.73,3.2a34.92,34.92,0,0,0-3.36-1.66A15,15,0,0,0,90.86.4,26.15,26.15,0,0,0,83.41.3a35.43,35.43,0,0,0-7.35,1.51c-1.86.54-3.72,1.11-5.54,1.76,1.63-.29,3.27-.65,4.89-1,1.1-.21,2.19-.54,3.33-.69a29.66,29.66,0,0,1,3.38-.3c1.14-.06,2.27-.08,3.4-.05a15.71,15.71,0,0,1,3.41.39,20.21,20.21,0,0,1,6.38,2.48A21.25,21.25,0,0,1,100.44,9c.74.87,1.41,1.77,2.08,2.69a9.36,9.36,0,0,1,1.57,3.1,20.46,20.46,0,0,1,.62,6.82,32.84,32.84,0,0,1-.92,6.08l-.15-.05a16,16,0,0,0-2-.84c-.46-.13-1.1.45-1.58.35a21.52,21.52,0,0,1,.36,2.18,3.91,3.91,0,0,1,1.39,1.47l-.06.05A5,5,0,0,0,100,29.7l-.1,0-.06-.16c-.23-.78-.4-1.56-.66-2.31-.13-.37-.25-.74-.41-1.09a6.24,6.24,0,0,0-.48-1,8.27,8.27,0,0,0-1.65-1.57,17.75,17.75,0,0,1-1.44-1.21c0,.63-.12,1.23-.16,1.85a8.37,8.37,0,0,0,.17,2.51,3.56,3.56,0,0,0,.37.9,7,7,0,0,0,.6,1c.42.63,1,1.2,1.54,1.86l.11.15,0,.13a8,8,0,0,0-.47,2.07h-.08a5.26,5.26,0,0,1-.12-1.12,4.61,4.61,0,0,1,.1-1c-.42-.39-.87-.77-1.28-1.23-3.12,1.37-6.24,2.74-9.39,4-1.63.66-3.25,1.33-4.9,2a10,10,0,0,1-1.33.4A7.43,7.43,0,0,1,79,36a19.14,19.14,0,0,1-2.66-.36c-1.74-.32-3.43-.75-5.14-1a14.43,14.43,0,0,0-2.53-.18,17.18,17.18,0,0,0-2.56.3,40.42,40.42,0,0,0-9.84,3.35h-.06c-1.7.19-3.39.43-5.08.65s-3.37.52-5,.83-3.35.64-5,1-3.32.7-4.94,1.19l0,0h0a12.23,12.23,0,0,0-5.39,1.64A21.48,21.48,0,0,0,28.22,45a14.33,14.33,0,0,0-2.09,2l0,0a8.66,8.66,0,0,1-2,1c-.58.25-1.16.53-1.74.79a3,3,0,0,0-.89,1.48,7.17,7.17,0,0,0-.32,1.95,11.49,11.49,0,0,0,.49,3.91c.75,2.56,1.79,5,2.37,7.73a6.67,6.67,0,0,1,.18,2.1,9.81,9.81,0,0,1-.32,2,10.77,10.77,0,0,1-1.83,3.7,27.76,27.76,0,0,1-5.8,5.56c-.36,1.72-.6,3.5-.86,5.26l-.72,5.4a47,47,0,0,1-.9,5.39l-1.13,5.2a10.24,10.24,0,0,1,1.86,1.74,5.34,5.34,0,0,1,1.15,2c.38-.29,2.58-1.74,2.71-1.77a8.18,8.18,0,0,1-1.3-1.69,4.57,4.57,0,0,1-.44-1.59c0-.54.05-1,.08-1.54a39.68,39.68,0,0,1,1-6A19.54,19.54,0,0,1,20,84.32a47.41,47.41,0,0,1,3.9-4.68c2.77-2.92,5.26-6.1,8.17-8.87a10.42,10.42,0,0,1,1.17-1A11.28,11.28,0,0,1,34.55,69c.89-.48,1.86-.81,2.26-1.7a10.85,10.85,0,0,1,1.78-2.46,9.77,9.77,0,0,0,2-3,1.9,1.9,0,0,0,0-.25,18.58,18.58,0,0,0,.31-2.39,27.12,27.12,0,0,0-.37-5h.07a19.9,19.9,0,0,1,1,5,7.36,7.36,0,0,1-.15,2.6,4.05,4.05,0,0,1-.73,1.45S39,65.26,38.83,65.47a13.84,13.84,0,0,0,7,2.72,33.88,33.88,0,0,0,4,.24,13.06,13.06,0,0,0,2-.11c.67-.1,1.34-.23,2-.35a39.54,39.54,0,0,0,4-1c1.31-.41,2.58-.93,3.91-1.37a5.4,5.4,0,0,1,2.14-.29,9.47,9.47,0,0,1,2.08.42,25.72,25.72,0,0,1,3.22,1.41q-.1-.86-.24-1.71a13.75,13.75,0,0,0-.67-2.69l-.13-.28L68,62.2a2.49,2.49,0,0,1-.4-.72A9.85,9.85,0,0,1,67.25,60a24.92,24.92,0,0,1-.35-2.85,29.45,29.45,0,0,1,.51-5.76h.08a34.92,34.92,0,0,0,.24,5.69,25.72,25.72,0,0,0,.44,2.79,8.48,8.48,0,0,0,.39,1.33,2.2,2.2,0,0,0,.28.51,2.6,2.6,0,0,1,.25.33l.2.36A13.4,13.4,0,0,1,70,65.28q.25,1.41.42,2.85c.18,1.94.17,3.81.25,5.73s.11,3.83.23,5.66c.14.71,1.12,1.56,1,2.67L71.78,85l-.23,5.72s-.2,4.66-.16,5.56l2.24.58.07,0,0,0,1.65,2.08,2.37-1.88-2.94-3.13-.53-12,.93-3.55c0-2,0-3.88,0-5.82s.1-3.93.26-5.91c0-.5.08-1,.18-1.48a3.19,3.19,0,0,1,.24-.78c.13-.23.26-.44.4-.65.54-.82,1.1-1.62,1.57-2.47A9.47,9.47,0,0,0,79.55,56l.09,0a6.7,6.7,0,0,1-.24,3,13.67,13.67,0,0,1-1.14,2.74c-.46.88-1,1.72-1.47,2.55-.14.22-.25.42-.36.63a1.94,1.94,0,0,0-.15.63c-.07.45-.1.94-.13,1.42,0,.16,0,.32,0,.48l.09.06a5.62,5.62,0,0,0,3.62-2.14,14.1,14.1,0,0,0,2.28-3.64,7.11,7.11,0,0,1,2-2.69,13.53,13.53,0,0,0,.28-3.11,25.1,25.1,0,0,0-.37-3.24,9.48,9.48,0,0,0-1-3.17,11.65,11.65,0,0,0-1.88-2.8l.07-.06A12.28,12.28,0,0,1,83.6,49.1,9.78,9.78,0,0,1,85,52.35a11.79,11.79,0,0,1,.33,3.5,13.75,13.75,0,0,1-.42,2.39,1.57,1.57,0,0,0,.19-.18c.56-.49,1.15-1,1.73-1.41a19.79,19.79,0,0,0,1.7-1.4A40.57,40.57,0,0,0,91.54,52c.95-1.14,1.82-2.35,2.77-3.51.46-.58,1-1.13,1.5-1.65s1.16-1.3,1.73-2,.87-1,1.29-1.58a13.1,13.1,0,0,0,.89-1.22A16.2,16.2,0,0,1,97,40.47l-.32-.31a1,1,0,0,1-.26-.56,1.67,1.67,0,0,1,.18-1,8.15,8.15,0,0,1,.91-1.37c.67-.83,1.44-1.54,2.06-2.36l.08,0A18.06,18.06,0,0,1,98,37.62a6.83,6.83,0,0,0-.69,1.3,1.42,1.42,0,0,0-.1.52s0,0,0,.05v0l.06,0a1.25,1.25,0,0,0,.23.23c.75.58,1.68,1.07,2.57,1.62a6.77,6.77,0,0,1,1.3,1,7.58,7.58,0,0,0,1.28.74,18,18,0,0,0,2.9,1.09c.5.14,1,.25,1.53.37l.76.18a2.79,2.79,0,0,1,.8.34c1,.65,1.43,1.7,2.17,2.22.57.52,1.53.22,2.25-.33-.32-.17-.65-.34-1-.52a14,14,0,0,1-2.65-1.95l0-.06A21.79,21.79,0,0,0,112.42,46c.48.22,1,.43,1.47.63a2.73,2.73,0,0,0,.65.17l.12-.09a1.16,1.16,0,0,0,.25-.24,1.54,1.54,0,0,0,.32-.58l.06-.16a.59.59,0,0,0,0-.14,1.06,1.06,0,0,0,0-.32A5.81,5.81,0,0,0,115,43.81Zm-9.62-9.76a1.6,1.6,0,0,1-1.26-.08,1.67,1.67,0,0,1-.58-1.1.33.33,0,0,1,.21-.33,1.67,1.67,0,0,1,1.25.08,1.62,1.62,0,0,1,.58,1.11A.32.32,0,0,1,105.4,34.05Z"/><path d="M75.74,99.89h4.2s-1.63-2-1.67-2-2.66,1.73-2.66,1.73Z"/><path d="M47.22,99.89h4.2s-1.63-2-1.66-2-2.66,1.73-2.66,1.73Z"/><path d="M63.63,92.21l-1.06,4.07s2.34-1.08,2.35-1.11-1-3-1-3Z"/><path d="M16.15,103h4.21s-1.64-2-1.67-2S16,102.73,16,102.73Z"/></svg>