<svg id="Layer_1" data-name="Layer 1" xmlns="http://www.w3.org/2000/svg" width="128" height="128" viewBox="0 0 128 128"><title>Artboard 97</title><path d="M32.08,122.53l2.57-.31c.29,2,1.25,3.06,2.86,3.06a2.69,2.69,0,0,0,1.88-.63,2,2,0,0,0,.68-1.55,1.77,1.77,0,0,0-.23-.92,1.9,1.9,0,0,0-.73-.63,22.73,22.73,0,0,0-2.38-.82,8.13,8.13,0,0,1-2.47-1.11A4.15,4.15,0,0,1,33,118.05a4.78,4.78,0,0,1-.47-2.09,4.64,4.64,0,0,1,.6-2.35A3.84,3.84,0,0,1,34.79,112a5.65,5.65,0,0,1,2.57-.53,4.53,4.53,0,0,1,5,4.83l-2.65.14a2.79,2.79,0,0,0-.75-1.79,2.39,2.39,0,0,0-1.64-.51,2.67,2.67,0,0,0-1.64.44,1.38,1.38,0,0,0-.06,2.2,7.2,7.2,0,0,0,2.41,1A9.83,9.83,0,0,1,40.89,119a4.08,4.08,0,0,1,1.35,1.64,5.77,5.77,0,0,1,.47,2.44,5.05,5.05,0,0,1-1.28,3.5,5.15,5.15,0,0,1-4,1.41Q32.61,128,32.08,122.53Z"/><path d="M48.1,127.73V114.47H44.22v-2.7H54.61v2.7H50.74v13.26Z"/><path d="M55.69,119.85a11.22,11.22,0,0,1,.85-4.7,6.36,6.36,0,0,1,2.2-2.75,5.86,5.86,0,0,1,3.3-.9,5.63,5.63,0,0,1,4.57,2.14,9.37,9.37,0,0,1,1.77,6.11A9.5,9.5,0,0,1,66.51,126a5.46,5.46,0,0,1-4.46,2,5.53,5.53,0,0,1-4.48-2A9.37,9.37,0,0,1,55.69,119.85Zm2.72-.11a6.78,6.78,0,0,0,1.05,4.13,3.13,3.13,0,0,0,5.18,0,7,7,0,0,0,1-4.2,6.88,6.88,0,0,0-1-4.1,3.24,3.24,0,0,0-5.24,0A6.85,6.85,0,0,0,58.41,119.74Z"/><path d="M70.69,127.73v-16h5.56a7.84,7.84,0,0,1,3,.43,3.49,3.49,0,0,1,1.51,1.49,5.21,5.21,0,0,1,.58,2.54,4.74,4.74,0,0,1-.89,3,4,4,0,0,1-2.56,1.44A6.44,6.44,0,0,1,79.34,122a18.91,18.91,0,0,1,1.51,2.6l1.59,3.11H79.29l-1.91-3.47A22.24,22.24,0,0,0,76,121.9a1.94,1.94,0,0,0-.78-.65,3.57,3.57,0,0,0-1.33-.18h-.54v6.66Zm2.63-9.21h2a9.37,9.37,0,0,0,2.28-.16,1.45,1.45,0,0,0,.8-.63,2.4,2.4,0,0,0,.3-1.28,2.2,2.2,0,0,0-.3-1.22,1.56,1.56,0,0,0-.83-.64,10.42,10.42,0,0,0-2.14-.12H73.32Z"/><path d="M84.12,127.73v-16h2.64v7.11l5.34-7.11h3.56L90.73,118l5.19,9.74H92.51l-3.61-7.5-2.14,2.68v4.82Z"/><path d="M0,9.58l2.24-.26C2.49,11.09,3.32,12,4.72,12a2.37,2.37,0,0,0,1.64-.54A1.77,1.77,0,0,0,7,10.08a1.39,1.39,0,0,0-.84-1.34A16.62,16.62,0,0,0,4.05,8a6.84,6.84,0,0,1-2.15-1A3.7,3.7,0,0,1,.82,5.69a4.14,4.14,0,0,1-.4-1.82,4.12,4.12,0,0,1,.51-2A3.37,3.37,0,0,1,2.36.46,4.86,4.86,0,0,1,4.6,0,4.31,4.31,0,0,1,7.73,1.09,4.31,4.31,0,0,1,8.92,4.2l-2.3.12A2.52,2.52,0,0,0,6,2.76a2.13,2.13,0,0,0-1.43-.44,2.36,2.36,0,0,0-1.43.38,1.2,1.2,0,0,0,0,1.92,6.39,6.39,0,0,0,2.09.85,8.57,8.57,0,0,1,2.5,1A3.63,3.63,0,0,1,8.83,8a4.86,4.86,0,0,1,.41,2.12,4.36,4.36,0,0,1-1.11,3,4.47,4.47,0,0,1-3.48,1.23Q.48,14.34,0,9.58Z"/><path d="M21.63,14.1H19.14l-1-3.14H13.59l-.94,3.14H10.21L14.64.24h2.43ZM17.4,8.62,15.83,3.47,14.29,8.62Z"/><path d="M23,.24H27.2a6.14,6.14,0,0,1,2.39.35,4,4,0,0,1,1.49,1.2A6.25,6.25,0,0,1,32.15,4a12.2,12.2,0,0,1,.39,3.34,10.8,10.8,0,0,1-.41,3.13,6.23,6.23,0,0,1-1,2.1,4,4,0,0,1-1.51,1.17,5.64,5.64,0,0,1-2.27.39H23ZM25.3,2.58v9.18H27a4.51,4.51,0,0,0,1.61-.21,1.94,1.94,0,0,0,.81-.63A3.62,3.62,0,0,0,30,9.59a10.93,10.93,0,0,0,.21-2.39A11.15,11.15,0,0,0,30,4.77a3.16,3.16,0,0,0-.66-1.39,2.08,2.08,0,0,0-1.1-.67,8.33,8.33,0,0,0-1.86-.13Z"/><path d="M34.67.24h4.19a6.17,6.17,0,0,1,2.39.35,4.12,4.12,0,0,1,1.49,1.2A6.25,6.25,0,0,1,43.81,4a12.23,12.23,0,0,1,.38,3.34,10.82,10.82,0,0,1-.4,3.13,6.43,6.43,0,0,1-1,2.1,4,4,0,0,1-1.51,1.17A5.68,5.68,0,0,1,39,14.1H34.67ZM37,2.58v9.18h1.72a4.41,4.41,0,0,0,1.6-.21,2,2,0,0,0,.82-.63,3.62,3.62,0,0,0,.52-1.33,10.93,10.93,0,0,0,.21-2.39,11.15,11.15,0,0,0-.21-2.43A3.28,3.28,0,0,0,41,3.38a2.05,2.05,0,0,0-1.09-.67A8.33,8.33,0,0,0,38,2.58Z"/><path d="M46.4,14.1V.35h2.29V11.76H54.4V14.1Z"/><path d="M56.24,14.1V.24h8.44V2.58H58.53V5.66h5.72V8H58.53v3.77h6.36V14.1Z"/><path d="M71.63.24h4.56a7,7,0,0,1,2.62.34,2.87,2.87,0,0,1,1.28,1.2,3.65,3.65,0,0,1,.52,2,3.65,3.65,0,0,1-.45,1.81A2.84,2.84,0,0,1,79,6.73,3.1,3.1,0,0,1,80.59,8a3.79,3.79,0,0,1,.57,2.12,4.41,4.41,0,0,1-.73,2.56,3,3,0,0,1-1.72,1.29,17.23,17.23,0,0,1-3.21.17H71.63Zm2.29,2.3V5.75h1.51a14.32,14.32,0,0,0,1.69,0A1.46,1.46,0,0,0,78,5.21a1.7,1.7,0,0,0,.33-1.1,1.66,1.66,0,0,0-.27-1,1.1,1.1,0,0,0-.66-.48,13.82,13.82,0,0,0-2.19-.1Zm0,5.52v3.7h2.13a6.46,6.46,0,0,0,1.8-.15,1.35,1.35,0,0,0,.67-.57A2,2,0,0,0,78.79,10a1.92,1.92,0,0,0-.29-1.12,1.51,1.51,0,0,0-.76-.61,7.44,7.44,0,0,0-2-.16Z"/><path d="M83.22,14.1V.24h2.29V14.1Z"/><path d="M88,14.1V.35h2.29V11.76H96V14.1Z"/><path d="M97.87,14.1V.35h2.28V11.76h5.72V14.1Z"/><path d="M107.71,14.1V.24h8.43V2.58H110V5.66h5.71V8H110v3.77h6.35V14.1Z"/><path d="M118.48.24h4.18a6.2,6.2,0,0,1,2.4.35,4.09,4.09,0,0,1,1.48,1.2A6.09,6.09,0,0,1,127.61,4,12.2,12.2,0,0,1,128,7.31a10.8,10.8,0,0,1-.41,3.13,6.23,6.23,0,0,1-1,2.1,4,4,0,0,1-1.5,1.17,5.7,5.7,0,0,1-2.28.39h-4.3Zm2.28,2.34v9.18h1.73a4.45,4.45,0,0,0,1.6-.21,1.94,1.94,0,0,0,.81-.63,3.61,3.61,0,0,0,.53-1.33,10.93,10.93,0,0,0,.21-2.39,11.05,11.05,0,0,0-.22-2.43,3.16,3.16,0,0,0-.66-1.39,2.05,2.05,0,0,0-1.09-.67,8.38,8.38,0,0,0-1.87-.13Z"/><path d="M84.16,30a.87.87,0,0,1-.56.11l-.23,0h-.05s0,.17-.07.27l1.67,1.52,4,3.64c1.17,1,4,3.22,4.65,3.81-.53-.52-2.14-2.19-3-3-1-1-1.93-2.05-2.86-3.1S85.92,31,85,29.93c-.2-.26-.4-.53-.61-.79h0a1.55,1.55,0,0,1,0,.31A.63.63,0,0,1,84.16,30Z"/><path d="M81.83,27l-.36-.07-.32-.11a2.49,2.49,0,0,1-.51-.27,4,4,0,0,1-.57-.44c-.29.2-.57.39-.82.6.27.26.56.51.84.77l.84.78L82.88,30a.71.71,0,0,1,.08-.19l.06-.06a.32.32,0,0,1,.2-.1h.18l.24,0h.19a.34.34,0,0,0,.36-.27,1.61,1.61,0,0,0,0-.58c-.48-.63-.94-1.26-1.39-1.91h0a2,2,0,0,1-.58.07Z"/><path d="M72.52,26.91h0v0h0c.09.24.19.49.3.73.42,1,.89,1.93,1.3,2.93.25.62.51,1.24.75,1.87a14.94,14.94,0,0,1,.62,2c0,.17.08.37.1.53l.06.5.12,1a12.83,12.83,0,0,1,.06,2.06,5.46,5.46,0,0,1-.08.68,6.36,6.36,0,0,1-.24.93c0,.14-.1.29-.16.42a5.34,5.34,0,0,1-.41.71,10.43,10.43,0,0,1-.66.84h0a.4.4,0,0,1-.14.13l0,.05a5.58,5.58,0,0,0-1,1.56,6,6,0,0,0-.21,1.35v.05s0,.09,0,.14a2.36,2.36,0,0,0,0,.28,5.85,5.85,0,0,0,.9,1.52c.11.17.22.32.33.46a2.11,2.11,0,0,0,.19.23.74.74,0,0,0,.4.26c.32-.39.64-.79,1-1.2a31.6,31.6,0,0,0,1.82-2.78c.14-.25.28-.49.43-.73a23.62,23.62,0,0,0,1.17-2.22,4.33,4.33,0,0,0,.22-1.61,8.36,8.36,0,0,0-.2-1.65,15.47,15.47,0,0,0-.43-1.62c-.14-.47-.3-.94-.45-1.41,0-.06,0-.11-.06-.18l0-.17-.46-1.41-.56-1.59c-.06-.22-.12-.53-.18-.88-.16-.95-.29-2.22-.38-2.9a3.26,3.26,0,0,0-.07-.46c-.13-.5-.22-1-.3-1.51a13.14,13.14,0,0,1-.13-1.54c0-.26,0-.52,0-.78s0-.33.06-.49a2.68,2.68,0,0,1,0-.3.78.78,0,0,1-.27-.58.66.66,0,0,1,.11-.36.75.75,0,0,1,.66-.41.77.77,0,0,1,.77.75h.12l.41,0h.2l.2,0,.19,0a1.52,1.52,0,0,0,.21,0,1.35,1.35,0,0,0,.34-.17.64.64,0,0,0,.16-.2l.06-.1h0a2.76,2.76,0,0,0-.72-.9,3.3,3.3,0,0,0-.3-.22l-.28-.15a3.71,3.71,0,0,0-.85-.29L76.85,20a5.63,5.63,0,0,0-.58,0H76a5,5,0,0,0-.8.09,3.13,3.13,0,0,0-1.37.67,4.54,4.54,0,0,0-.72.79,5.7,5.7,0,0,0-1,2,5.12,5.12,0,0,0,0,2.55A4,4,0,0,0,72.52,26.91Z"/><path d="M84.32,32.51c-.53-.48-1-1-1.54-1.46l0,0a.35.35,0,0,1-.15.07c0,.19,0,.37,0,.55a.34.34,0,0,0,.12.28l.5.4c.66.56,1.3,1.12,2,1.65,1.32,1.09,2.67,2.13,4.07,3.08a42.57,42.57,0,0,0,4.34,2.26c-.77-.44-3.83-2.37-5.09-3.34C87,34.92,85.66,33.73,84.32,32.51Z"/><path d="M42.36,61l-.28.51-.13.26H42l.07,0a.62.62,0,0,0,.19,0h0l.19,0,.65-.23h0l0,.34,0,.34L43,63.47c0,.41-.1.82-.18,1.22,0,0,0,.09,0,.14a6.36,6.36,0,0,1-.43,1.32,3,3,0,0,1-.19.35l.08,0,.07-.06c.45-.29.9-.58,1.38-.85h0l.06,0c.5-.12,1-.28,1.48-.44l.62-.22,1-.43,1-.46,0,0,0,0h.14a3.16,3.16,0,0,0,1-.06,5,5,0,0,0,.93-.3,6.82,6.82,0,0,0,.93-.48,4.47,4.47,0,0,0,.75-.6l.2-.24.29.08a2.12,2.12,0,0,0,.67,0l.27,0,.77-.17.29-.08c.36-.09.72-.19,1.07-.31s.7-.25,1-.39l.16-.08.08,0,.08,0a9.22,9.22,0,0,0,1.5.26c.22,0,.42.06.63.07a7.76,7.76,0,0,0,1.08,0,.65.65,0,0,0,.37-.09.47.47,0,0,0,.09-.06c.09-.07.19-.14.29-.23A14.31,14.31,0,0,0,62,59.57l.66-.92c.21-.31.43-.6.65-.91.1-.15.2-.29.31-.43l0-.06c.11-.14.22-.28.35-.42a8.67,8.67,0,0,1,.86-.76c.59-.47,1.19-.92,1.76-1.4s.88-.76,1.3-1.17a4.52,4.52,0,0,0,.55-1.26,1.51,1.51,0,0,0,.06-.41,1,1,0,0,0-.05-.36,1,1,0,0,0-.44-.52,3.89,3.89,0,0,0-1.15-.38l-.45,0a7.34,7.34,0,0,0-1.75.08c-.29,0-.58.1-.87.17A6.09,6.09,0,0,0,63,51a2.59,2.59,0,0,0-.38.17c-.15.06-.3.14-.46.19l-.48.18-.43.13c-.29.08-.58.14-.87.2s-.66.11-1,.15l-.48,0a7.22,7.22,0,0,1-1,0l-.37,0a8.29,8.29,0,0,0,1.33-.3l.47-.13c.6-.17,1.17-.36,1.74-.58l.45-.2.36-.16.2-.1.19-.11a4.66,4.66,0,0,1,.45-.22,4.45,4.45,0,0,1,.42-.16,8.52,8.52,0,0,1,1.47-.36,8,8,0,0,1,1.47-.07,4,4,0,0,1,.49,0,5.12,5.12,0,0,1,.54.1,3.78,3.78,0,0,1,1.37.59l.21.19a1.48,1.48,0,0,1,.41.77c0,.07,0,.15,0,.22v.06a1.65,1.65,0,0,1,0,.32,1.89,1.89,0,0,1-.11.36l0,.08s0,0,0,0,0,0,0,0a2.57,2.57,0,0,0,.47-1.06.43.43,0,0,0,0,0,2.74,2.74,0,0,0-.09-1,5.22,5.22,0,0,0-.39-1c-.06-.12-.13-.23-.2-.35s-.24-.38-.37-.56-.23-.29-.35-.42-.23-.25-.35-.37-.12-.12-.18-.16l-.18-.13h0l0,0h-.23a5.43,5.43,0,0,0-1,.28c-.7.24-1.4.51-2.13.74a7,7,0,0,1-2.33.43H61a2.3,2.3,0,0,0-.26,0l-.24,0a3,3,0,0,0-1,.36,4.27,4.27,0,0,0-.44.3l-.4.35c-.16.14-.3.3-.46.46s-.22.23-.35.34l-.2.14a3.52,3.52,0,0,1-.83.4,4.39,4.39,0,0,0-1,.48,0,0,0,0,1-.06,0s0,0,0-.06a1.93,1.93,0,0,1,.36-.28l.39-.23.44-.24a3.37,3.37,0,0,0,.32-.19s0-.06,0-.09,0-.12,0-.18v0h0a2.75,2.75,0,0,1-.11-.41,1.65,1.65,0,0,1-.06-.46,1.42,1.42,0,0,1,.06-.38c0-.06,0-.12.07-.19l0,.1h0l.06-.19a3,3,0,0,1,.11-.4,3.41,3.41,0,0,1,.32-.55,2.18,2.18,0,0,1,.21-.22l.11-.13h0l-.18-.06a1.31,1.31,0,0,0-.21-.08s-.05,0-.08,0l-3.7,2c-.19.1-.37.22-.56.33-.43.25-.85.51-1.25.78-.14.1-.28.2-.4.3a4,4,0,0,0-.37.31c-.23.21-.49.49-.74.74-1,1-2,2.08-3.06,3.11-.51.52-1,1-1.53,1.55a4.43,4.43,0,0,1-1.2,1.06l-1.47,2.2A12.76,12.76,0,0,0,42.36,61Z"/><path d="M41,67.31l.74-.5A4.36,4.36,0,0,0,42,66a1,1,0,0,1,0-.17,8.35,8.35,0,0,0,.13-1.12c0-.22,0-.43,0-.65s0-.44,0-.66V63c0-.13,0-.26,0-.39h-.26c-.27,0-.46-.11-.66-.16l-.2,0-.23,0L41,62s0-.09,0-.14a3.36,3.36,0,0,1,.16-.42,2.56,2.56,0,0,1,.11-.24,2,2,0,0,1,.12-.19c.09-.16.19-.31.28-.46s.4-.52.61-.78.2-.27.32-.39.34-.36.51-.54l.51-.54L44,58c.11-.1.23-.21.35-.3l-.16,0h0l-.53.44c-.33.31-.66.64-1,1s-.8.84-1.19,1.27c-.23.25-.47.49-.69.74-.61.69-1.23,1.38-1.8,2.08-.3.35-.59.7-.86,1.06l-.39.55a4,4,0,0,0-.33.52l0,.05v0a8.81,8.81,0,0,1-.85,1c-.29.29-.61.57-.91.83l-.59.56,0,0c-.18.19-.35.37-.51.57.39-.16.78-.33,1.17-.52s1-.49,1.41-.76l.77-.46h0L37.5,67l-.3.33c-.16.18-.31.38-.47.57-.29.35-.59.7-.87,1.06s-.42.57-.61.86l0,0,.71-.48a15.3,15.3,0,0,0,1.41-1.11l1.18-1,.75-.67h0l-.42.66-1,1.54a6.53,6.53,0,0,0-.74,1.5l0,.1a4.93,4.93,0,0,0-.13.58.86.86,0,0,0,.13-.14l.13-.13a5.17,5.17,0,0,0,.42-.51l.61-.79a3.09,3.09,0,0,1,.31-.39,1.43,1.43,0,0,1,.16-.13l.14-.07.05,0,.13,0,.13,0h.12l.4-.34.76-.58Z"/><path d="M79.11,22.25a.79.79,0,0,1-.22.06h-.46l.06,0a1.7,1.7,0,0,1,.37.34A2.4,2.4,0,0,1,79,23a4.92,4.92,0,0,1,.24.45c0,.05,0,.1.07.14a5.52,5.52,0,0,0,.39.77,3.58,3.58,0,0,0,.5.66,4.75,4.75,0,0,0,.93.81,3.79,3.79,0,0,0,.34.2,2.18,2.18,0,0,0,.71.23,5.43,5.43,0,0,1-.78-.73,11.45,11.45,0,0,1-1-1.42l0-.05v-.09s0-.05,0-.07a1.63,1.63,0,0,0-.09-.45h0c-.06-.19-.13-.37-.21-.56a4.93,4.93,0,0,0-.52-.89.76.76,0,0,1-.09.09.47.47,0,0,1-.1.1Z"/><path d="M57.3,62.32,57,62.25l-.38-.06-.13.06-.12.06-.08.15a2.08,2.08,0,0,1-.19.29c-.06,0-.11.12-.17.18a3,3,0,0,1-.31.31l-.27.21-.27.21-.55.34a4.11,4.11,0,0,1-.52.25,12.84,12.84,0,0,1-1.43.51c-.18,0-.34.1-.51.15l-.25.07a10.73,10.73,0,0,1,1.39,0c.29,0,.57.06.84.09s.57,0,.84.09c.56.07,1.11.18,1.66.3l.45.1.44.09c0-.13-.09-.26-.13-.39a4.53,4.53,0,0,1-.16-.8,5.07,5.07,0,0,1,0-.55c0-.18,0-.36,0-.54A7.64,7.64,0,0,1,57.3,62.32Z"/><path d="M58.84,67.5c-.31.47-4.13,8.22-4.93,9.87l-.13.22a2.09,2.09,0,0,1-.24.28,5.65,5.65,0,0,0-.39.46,4.32,4.32,0,0,0-.76,1.32,5.25,5.25,0,0,0,0,2.36,2.91,2.91,0,0,1,0,.66l0,.22L47.6,103.22l-.18.8a.08.08,0,0,0,0,0,.44.44,0,0,1-.42.29h-.25a10.89,10.89,0,0,0-1.38.09l-.46.06-.12,0h-.1s0,0,0,0,0,0,0,0,0,0,0,.06,0,0,0,0c.25,0,.5,0,.75,0s.48,0,.71.06l.86.12c.3.05.61.1.92.17a5.08,5.08,0,0,1,1.94.52l1.37.56.48.19a11.67,11.67,0,0,0,1.81.55,4.26,4.26,0,0,0,.5.06h.48l-.48-.26-.37-.19c-.52-.28-1-.54-1.56-.81s-1-.52-1.57-.74a3.55,3.55,0,0,0-.65-.17l-.1,0c-.43-.07-.88-.12-1-.12H48.6a.36.36,0,0,1-.17-.07.43.43,0,0,1-.11-.12.44.44,0,0,1-.06-.34l2.2-10.42,2.21-10.42a2.31,2.31,0,0,1,.43-.94l.84-1a1.57,1.57,0,0,0,.18-.67c.08-.52.12-1.2.14-1.49a3,3,0,0,1,.07-.68c.07-.21,3.21-6.51,5.07-10.26a.24.24,0,0,1,.06-.08s0,0,0,0c-.14-.1-.27-.21-.4-.32Z"/><path d="M81.07,107.52l-1.7-.31-.8-.17-.9-.19c-.48-.13-1.72-.31-1.77-.31a.38.38,0,0,1-.25-.08.44.44,0,0,1-.17-.21l-6-16.87-1.07-3c0-.09,0-.16-.07-.24a1.47,1.47,0,0,1,0-.75,1.51,1.51,0,0,0,.08-.35,2.2,2.2,0,0,0-.06-.82,2.47,2.47,0,0,0-.11-.36l-.16-.32a7,7,0,0,0-1-1.53L67,81.85a2.27,2.27,0,0,1-.28-.45,1.42,1.42,0,0,1-.08-.18L63.06,70.15s0,0,0,0l0,0-.06,0-.1,0-.11,0c.33,1.05,2.6,8.36,3.33,10.69a1,1,0,0,1,0,.18,1.63,1.63,0,0,1,.06.66,1.35,1.35,0,0,1,0,.28,4.18,4.18,0,0,0-.09.5,3.75,3.75,0,0,0,.17,1.55,2.78,2.78,0,0,0,.21.46l0,.08.08.11a3.06,3.06,0,0,0,.8.88l.16.16a1.54,1.54,0,0,1,.38.57L75.15,106a.13.13,0,0,1,0,.06.22.22,0,0,1,0,.11.43.43,0,0,1-.17.33.34.34,0,0,1-.12.06s-1.47.34-2,.49c-.37.11-.76.2-1.11.27a.1.1,0,0,0-.07,0,.09.09,0,0,0,0,0c.46,0,.9-.09,1.36-.11l.54,0,1.12,0c.38,0,.75,0,1.13,0h.07l0,0,0,0a1,1,0,0,0,.33.21l.2.08.21.07h0a6.31,6.31,0,0,0,.86.2,11.77,11.77,0,0,0,1.78.06l.51,0a10.26,10.26,0,0,0,1.23-.13,6.6,6.6,0,0,0,.77-.17l-.38-.07Z"/><path d="M78.88,27a9.87,9.87,0,0,0-1.06,1.16c.36.26.7.52,1,.79.79.6,1.56,1.2,2.33,1.81l1.16.95c0-.12,0-.23-.06-.35s-.05-.23-.06-.35l0-.22h.13l.12,0,0,0c-.69-.67-1.38-1.36-2-2.06S79.38,27.58,78.88,27Z"/><path d="M45.87,66.34,47,66h0l.88-.29.68-.23.88-.31c.44-.15.87-.33,1.3-.49s.73-.26,1.09-.41l.41-.17c.63-.29,1.25-.62,1.89-.86l1.16-.49-.41.13-.35.12-.58.13-.59.14-.3,0-.32.05h-.42a4.56,4.56,0,0,1-.79.58l-.26.15a7.55,7.55,0,0,1-.81.39,4.64,4.64,0,0,1-2.29.36l-.91.37a20,20,0,0,1-2.07.68,10.7,10.7,0,0,1-1.25.27l-.5.27-.37.19c-.16.09-.32.17-.47.27s-.46.26-.68.4l-.68.41c-.46.27-.91.55-1.35.85,0,0,0,0,0,0l0,0,.24,0,.48-.12A6.46,6.46,0,0,0,41.6,68l.37-.16.18-.09.22-.1.8-.34.73-.27.88-.34Z"/><path d="M79.35,26.16a3.12,3.12,0,0,1,.59-.19,5.3,5.3,0,0,1-.38-.43,4.13,4.13,0,0,1-.32-.49c-.07-.12-.14-.24-.2-.37a6.44,6.44,0,0,1-.28-.93c0-.15-.07-.3-.1-.44a2.58,2.58,0,0,0-.14-.39,1.45,1.45,0,0,0-.1-.18.78.78,0,0,0-.11-.18,2.09,2.09,0,0,0-.14-.17h0l0,0a.63.63,0,0,0-.29-.05.8.8,0,0,0-.24.05l-.15.09a.75.75,0,0,1-.52.43c0,.21,0,.43,0,.65l0,.72a2.45,2.45,0,0,1,0,.27c0,.15,0,.29,0,.44l.59.41a11.76,11.76,0,0,1,1.3,1A2.41,2.41,0,0,1,79.35,26.16Z"/><path d="M77.12,27.4c0,.05,0,.09,0,.16l.19.17.22.2a1.88,1.88,0,0,0,.24.18,1.94,1.94,0,0,1,.07-.33,2,2,0,0,1,.31-.6,2.83,2.83,0,0,1,.2-.28,3.07,3.07,0,0,1,.25-.26A15.6,15.6,0,0,0,77,25c0,.23,0,.45,0,.69,0,.5,0,1,0,1.52h0Z"/><path d="M63.84,63.63a.37.37,0,0,0-.11.18,1.3,1.3,0,0,0,0,.49l.25-.36a8.27,8.27,0,0,1,.61-.7l-.25.08a2.31,2.31,0,0,0-.28.1Z"/><path d="M62.9,69.63l.15-.07a1.23,1.23,0,0,0,.3-.18l0-.47c0-.32-.05-.63-.07-.94l-.13-1.71c0-.29,0-.56-.08-.83a5.94,5.94,0,0,0-.14-.71.29.29,0,0,0,0-.09c0-.16-.07-.31-.09-.49a1.53,1.53,0,0,1,0-.59,1.08,1.08,0,0,1,.2-.4l.12-.15.07-.08.25-.25.1-.09.08,0c.45-.13.83-.22,1.24-.31.2,0,.39-.11.59-.15L66,62l.29-.22.42-.33a17.41,17.41,0,0,0,1.75-1.53l.86-.85.86-.84.35-.37a13.36,13.36,0,0,0,1.26-1.45c.22-.29.43-.6.63-.91l.09-.14c.2-.32.4-.65.57-1a8.53,8.53,0,0,0,.84-2.11,7.39,7.39,0,0,0,.15-1,8.6,8.6,0,0,0,0-1,16.54,16.54,0,0,1-1.73,1.4l-.77.53-1.1,1-.55.52a2.85,2.85,0,0,0-.48.57h0a.06.06,0,0,1-.07,0s0,0,0,0a2.41,2.41,0,0,1,.15-.33c.07-.14.14-.25.22-.38l.16-.2.3-.43,1-1.18h0l0,0h0c.45-.37.88-.76,1.31-1.16a25,25,0,0,0,1.94-2l-.21,0-.2-.07a2.59,2.59,0,0,1-.89-.69,3.11,3.11,0,0,1-.31-.43,2.65,2.65,0,0,1-.23-.48,4.18,4.18,0,0,1-.2-.51,2.53,2.53,0,0,1-.11-.56,3.46,3.46,0,0,1,0-.56,3.12,3.12,0,0,1,.11-.53c0-.17.1-.33.15-.48s.13-.31.2-.46a3.89,3.89,0,0,1,1-1.5,32.75,32.75,0,0,0-4,.55l-.27.07a6.82,6.82,0,0,0-.72.2,3.17,3.17,0,0,0-.46.19l-.24.11-.25.12-.6.26c-.49.2-1,.39-1.46.56-1.1.37-2.23.63-3.34.93l-.91.27a16.18,16.18,0,0,0-2,.75c-.49.21-1,.48-1.47.74a6.77,6.77,0,0,1,.78,0l.43,0,.45,0-.74.64c-.13.11-.24.22-.35.33a3.47,3.47,0,0,0-.31.36,4,4,0,0,0-.46.82l0,0,0,.05h0a.48.48,0,0,0-.12.23,3,3,0,0,0-.1.38l-.09.43a.5.5,0,0,0,0,.13,0,0,0,0,1,0,0,.8.8,0,0,0,.17-.15l.34-.42c.09-.12.19-.24.29-.35a5,5,0,0,1,.95-.88,3.36,3.36,0,0,1,1.12-.51,1.67,1.67,0,0,1,.31,0l.3-.05h.58a5.39,5.39,0,0,0,1.59-.31l.48-.16.55-.2,1.56-.58c.27-.09.54-.16.83-.23l.34-.08h.37l.24.06.18.1a2.31,2.31,0,0,1,.23.18,3.08,3.08,0,0,1,.26.24,5.46,5.46,0,0,1,.39.45A7.35,7.35,0,0,1,69.41,49a5.48,5.48,0,0,1,.35,1.13c0,.11,0,.23,0,.35s0,.16,0,.25,0,.13,0,.2,0,.27,0,.41a2.72,2.72,0,0,1-.52,1.08,5.91,5.91,0,0,1-.56.66l-.2.2c-.53.55-1.11,1-1.68,1.52l-.86.72c-.29.24-.58.47-.86.72l-.34.31-.13.13c-.11.11-.22.22-.31.33a7.55,7.55,0,0,0-.44.62l-.19.29-1.18,1.92-.19.29a12.41,12.41,0,0,1-1.23,1.58,3,3,0,0,1-.49.41,1.17,1.17,0,0,1-.25.13l-.1,0-.1,0-.24,0a6,6,0,0,1-.85,0c-.11,0-.22,0-.33,0a10,10,0,0,1-1.23-.1,8.08,8.08,0,0,0,.19,2,2.78,2.78,0,0,0,.12.38c0,.06,0,.12,0,.18s.06.13.08.19a3.36,3.36,0,0,0,.83,1.23c.6.56,1.2,1.11,1.79,1.71l.45.45.45.46c.06.08.14.16.22.25l.12.14a2.47,2.47,0,0,1,.21.27.44.44,0,0,0,.08.1c.16.2.25.15.47,0l.2-.09Z"/></svg>