<svg id="Layer_1" data-name="Layer 1" xmlns="http://www.w3.org/2000/svg" width="128" height="128" viewBox="0 0 128 128"><title>Artboard 99</title><path d="M26.81,122.53l2.58-.31q.43,3.06,2.85,3.06a2.7,2.7,0,0,0,1.89-.63,2,2,0,0,0,.68-1.55,1.68,1.68,0,0,0-.24-.92,1.76,1.76,0,0,0-.73-.63,21.38,21.38,0,0,0-2.37-.82A8,8,0,0,1,29,119.62a4.25,4.25,0,0,1-1.25-1.57,4.91,4.91,0,0,1-.46-2.09,4.64,4.64,0,0,1,.6-2.35A3.88,3.88,0,0,1,29.52,112a5.73,5.73,0,0,1,2.58-.53,4.53,4.53,0,0,1,5,4.83l-2.65.14a2.79,2.79,0,0,0-.75-1.79,2.39,2.39,0,0,0-1.64-.51,2.65,2.65,0,0,0-1.65.44,1.38,1.38,0,0,0-.05,2.2,7.2,7.2,0,0,0,2.41,1A9.87,9.87,0,0,1,35.62,119,4,4,0,0,1,37,120.65a5.77,5.77,0,0,1,.47,2.44,5.05,5.05,0,0,1-1.28,3.5,5.16,5.16,0,0,1-4,1.41C29,128,27.18,126.18,26.81,122.53Z"/><path d="M39.9,127.73v-16h2.63v6.28h5.2v-6.28h2.63v16H47.73v-7h-5.2v7Z"/><path d="M52.77,119.85a11.39,11.39,0,0,1,.84-4.7,6.45,6.45,0,0,1,2.21-2.75,5.84,5.84,0,0,1,3.3-.9,5.64,5.64,0,0,1,4.57,2.14,9.37,9.37,0,0,1,1.77,6.11A9.5,9.5,0,0,1,63.59,126a5.47,5.47,0,0,1-4.46,2,5.55,5.55,0,0,1-4.49-2A9.36,9.36,0,0,1,52.77,119.85Zm2.72-.11a6.78,6.78,0,0,0,1,4.13,3.13,3.13,0,0,0,5.18,0,7,7,0,0,0,1-4.2,6.8,6.8,0,0,0-1-4.1,3.23,3.23,0,0,0-5.23,0A6.85,6.85,0,0,0,55.49,119.74Z"/><path d="M79.56,127.73H76.7l-1.15-3.62H70.31l-1.08,3.62H66.42l5.1-16h2.8Zm-4.86-6.31-1.81-5.93-1.77,5.93Z"/><path d="M82.78,127.73V114.47H78.89v-2.7h10.4v2.7H85.41v13.26Z"/><path d="M90.55,122.53l2.58-.31q.44,3.06,2.85,3.06a2.7,2.7,0,0,0,1.89-.63,2,2,0,0,0,.68-1.55,1.68,1.68,0,0,0-.24-.92,1.76,1.76,0,0,0-.73-.63,21.38,21.38,0,0,0-2.37-.82,8,8,0,0,1-2.47-1.11,4.25,4.25,0,0,1-1.25-1.57A4.91,4.91,0,0,1,91,116a4.64,4.64,0,0,1,.6-2.35A3.88,3.88,0,0,1,93.26,112a5.73,5.73,0,0,1,2.58-.53,4.53,4.53,0,0,1,5,4.83l-2.65.14a2.79,2.79,0,0,0-.75-1.79,2.39,2.39,0,0,0-1.64-.51,2.65,2.65,0,0,0-1.65.44,1.38,1.38,0,0,0,0,2.2,7.2,7.2,0,0,0,2.41,1A10.08,10.08,0,0,1,99.37,119a4.08,4.08,0,0,1,1.35,1.64,5.77,5.77,0,0,1,.47,2.44,5.05,5.05,0,0,1-1.28,3.5,5.15,5.15,0,0,1-4,1.41C92.7,128,90.92,126.18,90.55,122.53Z"/><path d="M8.4,45.85A19.91,19.91,0,0,1,8,39.58,6.37,6.37,0,0,1,8.45,38a7.29,7.29,0,0,1,.82-1.38,13.34,13.34,0,0,1,1.06-1.3,28.54,28.54,0,0,0-3.09,2.93A26.87,26.87,0,0,0,5.1,40.88a8.39,8.39,0,0,0-.82,1.46A4.32,4.32,0,0,0,4,44c.11,2.3,1.41,4.29,2.44,6.33.69,1.34,1.32,2.69,1.89,4.08,0-.43.06-.87.11-1.3a13,13,0,0,1,.84-3.31C9,48.48,8.65,47.17,8.4,45.85Z"/><path d="M43.47,93.61c-.11-.31-.22-.62-.35-.91a5.48,5.48,0,0,0-1-1.57,3.26,3.26,0,0,0-.33-.31,5.77,5.77,0,0,1-.42-.44c-.21-.29-.43-.59-.61-.88-.37-.59-.7-1.2-1-1.81-.62-1.22-1.19-1.57-1.74-2.83s-1-2.51-1.51-3.81c-.23-.64-.46-1.28-.65-2A8.12,8.12,0,0,1,35.38,77a20.84,20.84,0,0,1,.33-4.12,15.42,15.42,0,0,1,.81-2.61L35,70.19a12.53,12.53,0,0,1-4.82-1.44A17.68,17.68,0,0,1,28,67.36a17.86,17.86,0,0,1,.46,3c0,.71,0,1.42,0,2.14a5.08,5.08,0,0,1-.2,1.12c-.15.39-.29.65-.43,1a11.56,11.56,0,0,0-.67,1.92,1.75,1.75,0,0,0,0,.44.62.62,0,0,0,.1.34c.16.28.35.58.54.87A40.51,40.51,0,0,1,30,81.76a37.55,37.55,0,0,0,2,3.7c.71,1.21,1.42,1.55,2.15,2.74s1.46,2.42,2.16,3.65a8.08,8.08,0,0,1,.46,1l.27,1,.36,1.32a.72.72,0,0,0,.72.54l1.25,0a.88.88,0,0,1,.56.19l.84.67a31.07,31.07,0,0,1,3.52-1.34Z"/><path d="M77.54,96.23l-.41-.42c-.51-.6-1-1.22-1.47-1.88a15.38,15.38,0,0,1-1.25-2.07,9.43,9.43,0,0,1-.79-2.31c-.4-1.49-.93-2.09-1.24-3.67a13.19,13.19,0,0,1-.26-2.43c0-.82.06-1.59.13-2.4a15.9,15.9,0,0,0,.12-4.55,2.11,2.11,0,0,0-.17-.5,4.44,4.44,0,0,0-.28-.48c-.2-.35-.39-.7-.57-1-.36-.71-.7-1.43-1-2.15A20.25,20.25,0,0,1,69.1,69l-.81-.15-.9-.22a5.12,5.12,0,0,0-.84-.15,6.87,6.87,0,0,0-3.35.61,11.62,11.62,0,0,0-1.27.64c.45,1.15.49,1.53.9,2.68a9.52,9.52,0,0,0,1.94,3.69,5.33,5.33,0,0,1,1.07,2c.23.71.41,1.41.58,2.12l.52,2.09a4.24,4.24,0,0,0,.78,1.75l.09.08,0,.1c.31.85.83,1.81,1.16,2.77a4.64,4.64,0,0,1,.59,2.17c0,.53-.09,1-.12,1.52s-.06,1-.07,1.51c0,.77,0,1.54.06,2.31a.62.62,0,0,0,.62.58H71a.63.63,0,0,1,.46.2l2.06,2.09c1.5-.15,2.63-.79,4.1-1.06Z"/><path d="M99,6.47a33.42,33.42,0,0,0,3.3,3.75c.31,0,.62-.06.92-.1a8.27,8.27,0,0,0,1.54-.4A4.81,4.81,0,0,0,106.07,9c.28-.22.55-.45.83-.69-.36-.23-.74-.45-1.11-.65s-.92-.51-1.38-.75l-2.75-1.52L98.94,3.79c-.7-.39-1.4-.79-2.12-1.14a8.39,8.39,0,0,0,.73,1.66A17.54,17.54,0,0,0,99,6.47Z"/><path d="M99.28,3l.07,0q1.41.7,2.76,1.53t2.64,1.74A18.07,18.07,0,0,1,107,8.16l.31-.27a9.67,9.67,0,0,1,.86-.65c-.75-.36-1.47-.75-2.18-1.17a24.88,24.88,0,0,1-2.42-1.68L99.17,1a9.63,9.63,0,0,0,0,1.2C99.2,2.48,99.25,2.74,99.28,3Z"/><path d="M123.49,27a9.14,9.14,0,0,0-.78-1.34l-.22-.33-.11-.19-.07-.1a.5.5,0,0,1-.08-.19s0,0,0-.05c0-.25,0-.07,0,0v0l-.1-.13-.26-.3c-1.44-1.6-3-3.18-4.43-4.78l-.1-.1a16.39,16.39,0,0,0-5.4-11.09,3.55,3.55,0,0,0-.72-.38,3.33,3.33,0,0,0-.7-.21,2.67,2.67,0,0,0-1.4.14,17.73,17.73,0,0,0-2.57,1.88,5.1,5.1,0,0,1-1.56.79,9.2,9.2,0,0,1-1.69.29,13.29,13.29,0,0,1-1.67,0,5.12,5.12,0,0,0-1.71.31c0,.05,0,.09,0,.12,0,.24,0,.38,0,.52a2.08,2.08,0,0,0,0,.43,2.76,2.76,0,0,0,.79,1.55,5.37,5.37,0,0,0,.73.59,3.91,3.91,0,0,1,.8.57l0,.07a4.19,4.19,0,0,0-.89-.38,5.16,5.16,0,0,1-.88-.51,3.06,3.06,0,0,1-1.18-1.76,2.86,2.86,0,0,1-.09-.51,2.34,2.34,0,0,0,0-.46,1.25,1.25,0,0,0-.36-.64,7.26,7.26,0,0,0-1.5-1,22.18,22.18,0,0,0-3.41-1.71c-.58-.22-1.24-.46-1.77-.6a1.2,1.2,0,0,0-1.3.64,6.63,6.63,0,0,0,.1,3.74,8.25,8.25,0,0,0,.79,1.73,3,3,0,0,0,1.37,1.07,20.21,20.21,0,0,0,3.67,1l.47.09a1.75,1.75,0,0,1,.54.19,3.52,3.52,0,0,1,.84.62,3.44,3.44,0,0,1,1,1.72l-.09,0A3.8,3.8,0,0,0,98.27,17a4.13,4.13,0,0,0-.78-.45.84.84,0,0,0-.4-.07l-.48-.07A16.61,16.61,0,0,1,94,15.87l-1.84,1.39c.54,1.51,1.58,4.43,0,4.82-1.77.43-5,.16-6.08,1.22-4.09,4.21-3.71,12.79-7.23,17.3-1.8,2.32-3.36,6.25-4.91,9.24a1.57,1.57,0,0,1-2.62.25,15.69,15.69,0,0,0-1.24-1.47c-.38-.36,1.23-1.35,1.46-1.84.86-1.93-.22-3.88,1.21-4.49C78.14,40,79.58,37.14,79,31.85c-.3-2.62,3.79-5.68,4.61-7.1L76.93,27.7a14.53,14.53,0,0,1-4.17,1.11c-1.44.12-2.85.07-4.25.15a15.17,15.17,0,0,0-4.09.69h-.07c-4.08.5-8.25,1.08-12.45.52a27.8,27.8,0,0,1-3-.67c-1-.23-2-.46-3-.65-2-.4-4-.74-6.07-1.08s-4.08-.62-6.12-.91l-3.06-.36a12.52,12.52,0,0,0-3-.08,24.72,24.72,0,0,0-5.82,1.61A25.71,25.71,0,0,0,19,29.36a8.33,8.33,0,0,0-1.25.8l-1.18,1c-1.61,1.28-3.23,2.56-4.7,4a19.46,19.46,0,0,0-2,2.24A5.79,5.79,0,0,0,8.67,40a19.33,19.33,0,0,0,.31,6c.34,2,.84,4,1.31,6s.9,3.83,1.28,5.78c.31-1.58,1-3.24,2.18-3.7,1.64-.67,3.57-1.19,5.11-.35C21,55,21.43,58.32,21.34,60.59a12.71,12.71,0,0,1-1.42,5.61h0a7.5,7.5,0,0,0,1.35-1.54,4.7,4.7,0,0,0,.64-1.91v0l0,0c.4-.78.79-1.62,1.22-2.41.33-.62.7-1.24,1.08-1.84a9.06,9.06,0,0,0,.1-1.93,17.35,17.35,0,0,0-.15-2.13c-.25-1.44-.72-2.87-1.12-4.32l.09,0a28.56,28.56,0,0,1,1.72,4.19,6.45,6.45,0,0,1,.36,2.32c0,.2-.06.42-.11.62a12.34,12.34,0,0,1,1.16-1.35,4.08,4.08,0,0,1,2.4-1.26v.1c-.54.52-1,1-1.59,1.6A11.86,11.86,0,0,0,25.63,58,24.72,24.72,0,0,0,24,60.86c-.27.53-.51,1.06-.75,1.6a39.3,39.3,0,0,1,3.22,2.43,22.7,22.7,0,0,0,4.06,2.66A16.12,16.12,0,0,0,35.1,69c.53.1,1.06.18,1.59.26h0c1.08.19,2.18.37,3.27.52a67.29,67.29,0,0,0,9.81.67c1.64,0,3.26-.11,4.89-.25a39.9,39.9,0,0,0,4.73-.65,12.55,12.55,0,0,1,3.15-1.82,7.54,7.54,0,0,1,3.77-.51,6.14,6.14,0,0,1,.94.23l.78.24a16.3,16.3,0,0,0,1.66.45,15.21,15.21,0,0,0,2.42.48c-.3-1-.41-2.36-.68-3.4-.46-.32-2.77-2.07-2.77-2.07s-.15-1.78-.2-2.59l-.15-2.44c0-.8-.08-1.62-.09-2.43A5,5,0,0,1,69,53.25l.1,0a12.89,12.89,0,0,0,.14,2.39l.31,2.4.34,2.41c.1.75.25,1.5.33,2.25.45.45.86.93,1.26,1.41s.86,1.08,1.25,1.67l1.65,5.07a28.14,28.14,0,0,1,1,2.81c.27,1,.46,1.93.69,2.9a21.29,21.29,0,0,0,.84,2.78,4.56,4.56,0,0,0,.66,1.19,1.56,1.56,0,0,0,.22.23,2.92,2.92,0,0,1,.28.32,4.54,4.54,0,0,1,.43.68,18.54,18.54,0,0,1,1,2.85,5.93,5.93,0,0,0,1.13,2.51l.07.07,0,.07c.31.89.83.93,1.16,1.9a9.09,9.09,0,0,1,.62,3c0,1-.16,2-.15,3,0,.73,0,1.45.07,2.17a.76.76,0,0,0,.76.71,3.08,3.08,0,0,1,1.06,0c.22.1,2.27,2.27,2.27,2.27.83-.08,4.18-.8,4.18-.8h0A22.66,22.66,0,0,1,88,96a9.34,9.34,0,0,1-1.16-2.5c-.22-.88-.43-1.68-.7-2.53a13.07,13.07,0,0,1-1-4.41c0-1.81.26-3.57.35-5.29a4.64,4.64,0,0,0-.37-2.35c-.46-.73-.92-1.52-1.32-2.3a24.4,24.4,0,0,1-2-4.93c-.23-.85-.45-1.71-.6-2.58a15,15,0,0,1-.21-2.74,19.75,19.75,0,0,0,1.82-2.21A21.37,21.37,0,0,0,84,61.66a9.34,9.34,0,0,0,.45-1.32c.07-.22.1-.43.15-.66s.08-.48.14-.73a14.38,14.38,0,0,1,.92-2.78l1.2-2.66v0L86.73,52c-.1-.75-.11-1.51-.24-2.28A18.47,18.47,0,0,0,86,47.47c-.19-.75-.46-1.48-.67-2.26h.08a6.92,6.92,0,0,1,1.24,1.91,17.15,17.15,0,0,1,.8,2.25,8,8,0,0,1,.44,2.37v.13c.22-.37.47-.74.7-1.09C89.7,49.18,90.77,48,92,46.54c.63-.71,1.25-1.44,1.81-2.18L95.44,42l3.32-4.68c.56-.79,1.06-1.58,1.64-2.37a9.38,9.38,0,0,1,2.38-1.69l.64-.33.34-.15a1.17,1.17,0,0,1,.2-.06c.05,0,.18,0,.15,0h0c.41-.1.89-.28,1.34-.41.26-.08.52-.14.78-.21q-.94-.09-1.86-.27c-1.06-.26-2.09-.62-3.15-.9l-.19-.05,0-.16c-.25-.86-.59-2.27-.78-3.13l-.09-.42a5,5,0,0,1-.16-1.24l.09.05a5.28,5.28,0,0,0,.3,1.13l.4,1.14.78,2.1c1,.18,2,.34,3,.57a16.32,16.32,0,0,1,2.66,1c.35-.07.72-.13,1.08-.17h.06l.09,0a13.71,13.71,0,0,0,3.91.77,8.29,8.29,0,0,0,1,0,9.49,9.49,0,0,0,1-.12,11.39,11.39,0,0,1,2.13.14c.68.11,1.37.23,2,.37a4.39,4.39,0,0,0,1.91,0,3.27,3.27,0,0,0,1.58-1.07,5.62,5.62,0,0,0,.82-1.46,1.51,1.51,0,0,0-.31,0c-.57-.09-1.15-.19-1.7-.33a13,13,0,0,1-3.23-1.19l0-.08a17.26,17.26,0,0,0,3.29.77,15.75,15.75,0,0,0,1.67.17,11.55,11.55,0,0,0,1.32,0A5.5,5.5,0,0,0,123.49,27ZM27.3,44.09c.61-2.38,3-3.27,7.2-3.27s5.68.3,5.41,3.6-4.59,7.15-7.63,5C29.51,47.53,26.68,46.48,27.3,44.09ZM38.66,65.2c-1.26,2.45-4.34.9-5.09-.47s.33-3.4,2.41-4.52,4.33-.89,5.07.48S39.92,62.76,38.66,65.2ZM61.79,36.56s2.68-.75,2.58,1-.74,1-3.13,1.25S59.4,37.69,61.79,36.56Zm-7.1,4.26s1.87-.84,3.18,0-1.21,1.32-2.17,3-1.2.54-3.34,0S52.36,42.23,54.69,40.82Zm4.77,13.47c-2.85,4-5.72,10.59-12.67,8.83a.83.83,0,0,1-.63-.95c1-5.68,6.15-11.37,12.83-10.4C59.73,51.88,59.9,53.69,59.46,54.29Zm6.09,8.47c-1.31.54-1.06.92-1.06,2.27s-1.24.78-2.08,1.1c-1.51.57-2.67.69-1.94-1.84s1-2.47,1-2.47c1.44-1.88,2.62-2.82,4-2S66.87,62.23,65.55,62.76ZM69,41.48c-2,1.3-3,.58-4.11,1.52s-.8.22-2.11,1.71-.88,5.36-2.66,4.34-7.2,1.15-4.71-.91C58.24,45.81,62.08,43,62.08,43a31.44,31.44,0,0,0,3.09-3c.65-.74,2.24-1.4,2.9-1.12S71,40.17,69,41.48ZM95,30.4c-1.33,1.06-1.14.17-2.71-1.19s.62-2.43,1.88-.76C94.18,28.45,96.34,29.33,95,30.4Zm15.14-11.46a1.73,1.73,0,0,1-2.78-.29.34.34,0,0,1,0-.45,2.26,2.26,0,0,1,1.47-.55,2.11,2.11,0,0,1,1.31.85A.31.31,0,0,1,110.15,18.94ZM19.23,67.33c-1.46,2-2.28,3.85-4.18,5.4s-3.48,3.2-4.21,1.47c-.09-.23-.19-.44-.27-.64a10.81,10.81,0,0,1-1.52,2.57,16.65,16.65,0,0,0,0,2.54c0,.86.13,1.72.2,2.59.14,1.71.33,3.43.54,5.15a38.86,38.86,0,0,1,1.79,5.7,9.49,9.49,0,0,1,.15,3.49,7,7,0,0,0,.38,3.07.48.48,0,0,0,.59.32l3.4-1a.28.28,0,0,0,.19-.38,24.93,24.93,0,0,1-1.12-3.73,21.63,21.63,0,0,1-.68-5.44A26.38,26.38,0,0,1,15,83.94l.42-2.68a14.09,14.09,0,0,0,.27-2.6v-.07l0,0c.29-1.06.64-2.07,1-3.1l1.06-3,1.07-3c.35-1,.72-2,1.05-3A8.61,8.61,0,0,1,19.23,67.33ZM14.94,55.84c-2.4.28-2,3.89-1.41,5.53.33.84.6,2.41-.5,1.24a11.2,11.2,0,0,1-.88-1.06,23.26,23.26,0,0,1,.15,2.79,41.64,41.64,0,0,1-.72,6,5.47,5.47,0,0,1,.5-.31,10.65,10.65,0,0,0,4.33-4.42A10.64,10.64,0,0,0,18.14,60C18.14,58.14,18,55.52,14.94,55.84Z"/><path d="M87.15,101.55l.43,1.45s4.89,0,5,0-1.36-2.6-1.36-2.6Z"/><path d="M74.44,98.54l.43,1.45s4.89,0,5,0-1.37-2.6-1.37-2.6Z"/><path d="M40.94,97.62l.43,1.45s4.89,0,5,0S45,96.47,45,96.47Z"/><path d="M12.9,100.25l.43,1.45s4.9,0,5,0S17,99.1,17,99.1Z"/></svg>