<svg id="Layer_1" data-name="Layer 1" xmlns="http://www.w3.org/2000/svg" width="128" height="128" viewBox="0 0 128 128"><title>Artboard 100</title><path d="M32.36,11l2.58-.31q.44,3.06,2.85,3.06a2.7,2.7,0,0,0,1.89-.63,2,2,0,0,0,.68-1.55,1.68,1.68,0,0,0-.24-.92,1.76,1.76,0,0,0-.73-.63A21.38,21.38,0,0,0,37,9.23a8,8,0,0,1-2.47-1.11A4.25,4.25,0,0,1,33.3,6.55a4.77,4.77,0,0,1-.46-2.09,4.74,4.74,0,0,1,.59-2.35A3.9,3.9,0,0,1,35.07.53,5.73,5.73,0,0,1,37.65,0a5,5,0,0,1,3.6,1.25,5,5,0,0,1,1.37,3.58L40,5a2.9,2.9,0,0,0-.75-1.79,2.4,2.4,0,0,0-1.64-.51,2.64,2.64,0,0,0-1.65.44,1.37,1.37,0,0,0,0,2.2,7.22,7.22,0,0,0,2.4,1,9.83,9.83,0,0,1,2.88,1.22,4.1,4.1,0,0,1,1.36,1.64A5.78,5.78,0,0,1,43,11.59a5,5,0,0,1-1.27,3.5,5.16,5.16,0,0,1-4,1.41Q32.91,16.5,32.36,11Z"/><path d="M45.47,16.23V.27H48l5.35,10.66V.27h2.46v16H53.2L47.93,5.82V16.23Z"/><path d="M70.66,16.23H67.8l-1.15-3.62H61.41l-1.08,3.62H57.52l5.1-16h2.8ZM65.8,9.92,64,4,62.22,9.92Z"/><path d="M72.28,16.23V.27h5.56a7.9,7.9,0,0,1,3,.43,3.42,3.42,0,0,1,1.5,1.49A5.21,5.21,0,0,1,83,4.73a4.74,4.74,0,0,1-.9,3,4,4,0,0,1-2.55,1.44,6.61,6.61,0,0,1,1.4,1.33,18.91,18.91,0,0,1,1.51,2.6L84,16.23H80.88L79,12.76a25,25,0,0,0-1.4-2.36,2,2,0,0,0-.79-.65,3.5,3.5,0,0,0-1.32-.18h-.55v6.66ZM74.91,7h2a9.53,9.53,0,0,0,2.29-.16A1.42,1.42,0,0,0,80,6.23,2.4,2.4,0,0,0,80.26,5,2.2,2.2,0,0,0,80,3.73a1.56,1.56,0,0,0-.83-.64A10.35,10.35,0,0,0,77,3H74.91Z"/><path d="M85.69,16.23V.27H95.4V3H88.32V6.51H94.9V9.2H88.32v4.33h7.32v2.7Z"/><path d="M43.32,128V111.64h2.73v13.57h6.79V128Z"/><path d="M54.94,128V111.5h2.73V128Z"/><path d="M60.54,128V111.5H63.2l5.54,11v-11h2.54V128H68.53l-5.44-10.76V128Z"/><path d="M74.39,128V111.5h10v2.79H77.12V118h6.79v2.78H77.12v4.48h7.56V128Z"/><path d="M127.87,76.73a28.87,28.87,0,0,0-1.61-6.81,22.28,22.28,0,0,0-3.41-6.24l.07.08a70.43,70.43,0,0,0-10.59-12,79.13,79.13,0,0,0-12.92-9.35l-1.06-.58a32,32,0,0,0-5.2-5.21l-.24-.27,1.53-3.2a.77.77,0,0,0-.36-1l-2.15-1a.77.77,0,0,0-1,.36l-1.08,2.27A32.82,32.82,0,0,0,79.39,27.5a28,28,0,0,0-27,4.17l-.51.42a76.18,76.18,0,0,0-14.23,1.3,42.05,42.05,0,0,0-7.72,2.32,49.38,49.38,0,0,0-7.21,3.58c-2.31,1.35-4.5,2.87-6.66,4.4A32.18,32.18,0,0,0,13.23,46L13,45.69a.85.85,0,0,0-1.21,0L10.2,47.24a.86.86,0,0,0,0,1.22l.25.25c-.15.16-.3.31-.44.47A40.62,40.62,0,0,0,2,63.24,37.4,37.4,0,0,0,.24,79.35a26.78,26.78,0,0,0,2.22,8,22.86,22.86,0,0,0,2.11,3.61,30.42,30.42,0,0,0,2.6,3.19,24.72,24.72,0,0,0,14.37,7.66,20.71,20.71,0,0,0,8.29-.32,13,13,0,0,0,3.92-1.69,12,12,0,0,0,3.1-2.93,16.4,16.4,0,0,0,3-7.7A25.13,25.13,0,0,0,39.51,81a30.47,30.47,0,0,0-1-3.89,20.41,20.41,0,0,0-1.66-3.69A43.14,43.14,0,0,0,32.21,67,153,153,0,0,0,18.75,53.63l.47-.47a.88.88,0,0,0,0-1.22l-3.86-3.86c.78-.69,1.59-1.36,2.44-2,2.1-1.49,4.21-3,6.42-4.27a49.64,49.64,0,0,1,14-5.95A63.28,63.28,0,0,1,49.5,34.2a34.9,34.9,0,0,0-6.15,8.22,43.41,43.41,0,0,0,8.58,51.17,33.44,33.44,0,0,0,11.8,7.11A27.87,27.87,0,0,0,90,96.37,33.22,33.22,0,0,0,98.86,85.9c.19-.35.38-.71.56-1.07a30.41,30.41,0,0,0,4.07,3,32,32,0,0,0,6.2,3,20,20,0,0,0,6.89,1.26,11.41,11.41,0,0,0,6.84-2.22,11.2,11.2,0,0,0,4-6A19.08,19.08,0,0,0,127.87,76.73Zm-110.2-22,.41-.41c3.84,3.59,10.24,9.3,13.37,13.31a45,45,0,0,1,4.27,6.45A23.1,23.1,0,0,1,38,81.3a23.91,23.91,0,0,1,0,7.55,14.59,14.59,0,0,1-2.82,6.71c-3,3.91-8.48,4.54-13.26,3.65A24.55,24.55,0,0,1,9.22,92.14,26.2,26.2,0,0,1,6.81,89.3,17.87,17.87,0,0,1,5,86.13,23.43,23.43,0,0,1,3,79,34.58,34.58,0,0,1,4.77,64.17a37.69,37.69,0,0,1,7.49-13l.31-.33,3.88,3.88A.86.86,0,0,0,17.67,54.71ZM91.2,93.28a25.66,25.66,0,0,1-30.07.8,42.11,42.11,0,0,1-11.34-11A61.47,61.47,0,0,1,42.28,69a42.09,42.09,0,0,1-.71-9.64,30.76,30.76,0,0,1,2-9.51,32.21,32.21,0,0,1,2.08-4.41l1.21-2.12c.42-.7.89-1.35,1.36-2a23,23,0,0,1,7.4-6.09,20.59,20.59,0,0,1,2.83-1.28l2.92,0a56.81,56.81,0,0,1,7.71.59,77.73,77.73,0,0,1,19.71,5.87,40.33,40.33,0,0,0-1.12,5.1A57.78,57.78,0,0,0,87.33,59a44.46,44.46,0,0,0,3.32,13.15,39.32,39.32,0,0,0,7.43,11.41l.28.27c-.24.48-.48,1-.74,1.42a32.85,32.85,0,0,1-3.34,4.93C93.29,91.23,92.26,92.28,91.2,93.28ZM52.29,36a29.27,29.27,0,0,1,2.45-2h.65l-.36.19A22.84,22.84,0,0,0,52.29,36Zm34.9-1.06c.52.39,1,.8,1.51,1.22l-.48,1a78.49,78.49,0,0,0-18.9-4.54c-1.55-.17-3.09-.3-4.64-.38h0a41.2,41.2,0,0,1,19,1.29A26.72,26.72,0,0,1,87.19,34.9ZM97.47,47.08a42.91,42.91,0,0,1,4.24,12.46A41.3,41.3,0,0,1,99,82.48a38.17,38.17,0,0,1-7.3-10.8,43.67,43.67,0,0,1-3.49-12.8,56.86,56.86,0,0,1,.06-13.36,40.24,40.24,0,0,1,1-5q3.09,1.37,6.07,2.94A38.71,38.71,0,0,1,97.47,47.08Zm5.82,12.21a45.43,45.43,0,0,0-2.62-9.76l.53,1a34,34,0,0,1,3.57,15,32.53,32.53,0,0,1-1,7.77,34.68,34.68,0,0,1-2,5.56A43.69,43.69,0,0,0,103.29,59.29ZM65.86,29.22a25.78,25.78,0,0,1,12.23,1c-1.21-.16-2.43-.28-3.65-.35a38.8,38.8,0,0,0-15.07,2.25l-1.65,0A24.87,24.87,0,0,1,65.86,29.22Zm23.26,66A25.75,25.75,0,0,1,64.33,99a31.39,31.39,0,0,1-11-6.88,39.5,39.5,0,0,1-10.8-19,52.86,52.86,0,0,0,5.75,11,37.9,37.9,0,0,0,12,11.39,27.41,27.41,0,0,0,16,3.77,29.74,29.74,0,0,0,14.42-5.37C90.14,94.36,89.64,94.77,89.12,95.17Zm36.3-11.89a9.24,9.24,0,0,1-3.16,5.08,9.52,9.52,0,0,1-5.72,2,18.26,18.26,0,0,1-6.33-1,30.47,30.47,0,0,1-5.95-2.74,27.22,27.22,0,0,1-4.18-3c.55-.8,1.08-1.61,1.57-2.45a37.88,37.88,0,0,0,3.4-7.4,31.52,31.52,0,0,0,1.5-8.07,32.9,32.9,0,0,0-3.35-16.05c-.32-.69-.68-1.37-1-2a72.05,72.05,0,0,1,18.73,17.66l0,0,0,0a19.86,19.86,0,0,1,3.12,5.47A26.11,26.11,0,0,1,125.69,77,16.84,16.84,0,0,1,125.42,83.28Z"/></svg>