<svg id="Layer_1" data-name="Layer 1" xmlns="http://www.w3.org/2000/svg" width="128" height="128" viewBox="0 0 128 128"><title>Artboard 36</title><path d="M35.61,12.89l2.32-.27c.26,1.83,1.11,2.74,2.55,2.74a2.38,2.38,0,0,0,1.69-.56,1.81,1.81,0,0,0,.62-1.39,1.49,1.49,0,0,0-.22-.83,1.57,1.57,0,0,0-.65-.56,18,18,0,0,0-2.13-.74,7.07,7.07,0,0,1-2.22-1,3.81,3.81,0,0,1-1.11-1.41A4.28,4.28,0,0,1,36,7a4.26,4.26,0,0,1,.53-2.11A3.56,3.56,0,0,1,38,3.48,5.07,5.07,0,0,1,40.36,3a4.44,4.44,0,0,1,3.23,1.12,4.44,4.44,0,0,1,1.23,3.22l-2.37.12a2.57,2.57,0,0,0-.68-1.61,2.16,2.16,0,0,0-1.47-.46,2.44,2.44,0,0,0-1.48.4,1.22,1.22,0,0,0-.51,1,1.24,1.24,0,0,0,.47,1,6.75,6.75,0,0,0,2.16.88,8.77,8.77,0,0,1,2.58,1.08,3.79,3.79,0,0,1,1.21,1.48,5.15,5.15,0,0,1,.42,2.19A4.55,4.55,0,0,1,44,16.54a4.65,4.65,0,0,1-3.59,1.26C37.54,17.8,35.94,16.17,35.61,12.89Z"/><path d="M47.37,17.56V3.24h2.31l4.8,9.56V3.24h2.21V17.56H54.31L49.58,8.22v9.34Z"/><path d="M70,17.56H67.41l-1-3.24h-4.7l-1,3.24H58.19L62.76,3.24h2.51ZM65.62,11.9,64,6.58,62.4,11.9Z"/><path d="M71.43,17.56V3.24h5a6.89,6.89,0,0,1,2.73.39A3,3,0,0,1,80.5,5,4.63,4.63,0,0,1,81,7.25a4.22,4.22,0,0,1-.81,2.7,3.54,3.54,0,0,1-2.29,1.29,6,6,0,0,1,1.26,1.2,16.6,16.6,0,0,1,1.36,2.33L82,17.56H79.15l-1.72-3.11a20.63,20.63,0,0,0-1.26-2.12,1.77,1.77,0,0,0-.7-.58,3.12,3.12,0,0,0-1.19-.17h-.49v6ZM73.79,9.3h1.76a9.1,9.1,0,0,0,2-.14,1.36,1.36,0,0,0,.71-.57,2.15,2.15,0,0,0,.28-1.15,2,2,0,0,0-.28-1.1,1.45,1.45,0,0,0-.74-.57,9.72,9.72,0,0,0-1.92-.1H73.79Z"/><path d="M83.46,17.56V3.24h8.71V5.67H85.83V8.84h5.89v2.41H85.83v3.89h6.56v2.42Z"/><path d="M46.06,124V109.8h2.36v11.78h5.9V124Z"/><path d="M56.14,124V109.68H58.5V124Z"/><path d="M61,124V109.68h2.3l4.81,9.56v-9.56h2.21V124H67.93l-4.72-9.34V124Z"/><path d="M73,124V109.68h8.71v2.43H75.38v3.17h5.9v2.41h-5.9v3.89h6.56V124Z"/><path d="M127.87,76.73a28.87,28.87,0,0,0-1.61-6.81,22.28,22.28,0,0,0-3.41-6.24l.07.08a70.43,70.43,0,0,0-10.59-12,79.13,79.13,0,0,0-12.92-9.35l-1.06-.58a32,32,0,0,0-5.2-5.21l-.24-.27,1.53-3.2a.77.77,0,0,0-.36-1l-2.15-1a.77.77,0,0,0-1,.36l-1.08,2.27A32.82,32.82,0,0,0,79.39,27.5a28,28,0,0,0-27,4.17l-.51.42a76.18,76.18,0,0,0-14.23,1.3,42.05,42.05,0,0,0-7.72,2.32,49.38,49.38,0,0,0-7.21,3.58c-2.31,1.35-4.5,2.87-6.66,4.4A34,34,0,0,0,13.23,46L13,45.69a.85.85,0,0,0-1.21,0L10.2,47.24a.86.86,0,0,0,0,1.22l.25.25c-.15.16-.3.31-.44.47A40.62,40.62,0,0,0,2,63.24,37.4,37.4,0,0,0,.24,79.35a26.78,26.78,0,0,0,2.22,8,22.86,22.86,0,0,0,2.11,3.61,30.42,30.42,0,0,0,2.6,3.19,24.72,24.72,0,0,0,14.37,7.66,20.71,20.71,0,0,0,8.29-.32,13,13,0,0,0,3.92-1.69,12,12,0,0,0,3.1-2.93,16.44,16.44,0,0,0,3-7.7A25.13,25.13,0,0,0,39.51,81a30.47,30.47,0,0,0-1-3.89,20.41,20.41,0,0,0-1.66-3.69A43.14,43.14,0,0,0,32.21,67,153,153,0,0,0,18.75,53.63l.47-.47a.88.88,0,0,0,0-1.22l-3.86-3.86c.78-.69,1.59-1.36,2.44-2,2.1-1.49,4.21-3,6.42-4.27a49.64,49.64,0,0,1,14-5.95A64.21,64.21,0,0,1,49.5,34.19a35.16,35.16,0,0,0-6.15,8.23,43.41,43.41,0,0,0,8.58,51.17,33.44,33.44,0,0,0,11.8,7.11A27.87,27.87,0,0,0,90,96.37,33.22,33.22,0,0,0,98.86,85.9c.19-.35.38-.71.56-1.07a30.41,30.41,0,0,0,4.07,3,32,32,0,0,0,6.2,3,20,20,0,0,0,6.89,1.26,11.41,11.41,0,0,0,6.84-2.22,11.2,11.2,0,0,0,4-6A19.08,19.08,0,0,0,127.87,76.73Zm-110.2-22,.41-.41c3.84,3.59,10.24,9.3,13.37,13.31a44.46,44.46,0,0,1,4.27,6.45A23.1,23.1,0,0,1,38,81.3a23.91,23.91,0,0,1,0,7.55,14.59,14.59,0,0,1-2.82,6.71c-3,3.91-8.48,4.54-13.26,3.65A24.55,24.55,0,0,1,9.22,92.14,26.2,26.2,0,0,1,6.81,89.3,17.87,17.87,0,0,1,5,86.13,23.43,23.43,0,0,1,3,79,34.58,34.58,0,0,1,4.77,64.17a37.69,37.69,0,0,1,7.49-13l.31-.33,3.88,3.88A.86.86,0,0,0,17.67,54.71ZM91.2,93.28a25.66,25.66,0,0,1-30.07.8,42.11,42.11,0,0,1-11.34-11A61.47,61.47,0,0,1,42.28,69a42.09,42.09,0,0,1-.71-9.64,30.76,30.76,0,0,1,2-9.51,32.21,32.21,0,0,1,2.08-4.41l1.21-2.12c.42-.7.89-1.35,1.36-2a23,23,0,0,1,7.4-6.09,20.59,20.59,0,0,1,2.83-1.28l2.92,0a56.81,56.81,0,0,1,7.71.59,77.73,77.73,0,0,1,19.71,5.87,40.33,40.33,0,0,0-1.12,5.1A57.78,57.78,0,0,0,87.33,59a44.46,44.46,0,0,0,3.32,13.15,39.32,39.32,0,0,0,7.43,11.41l.28.27c-.24.48-.48,1-.74,1.42a32.85,32.85,0,0,1-3.34,4.93C93.29,91.23,92.26,92.28,91.2,93.28ZM52.29,36a29.27,29.27,0,0,1,2.45-2h.65l-.36.19A22.84,22.84,0,0,0,52.29,36Zm34.9-1.06c.52.39,1,.8,1.51,1.22l-.48,1a78.49,78.49,0,0,0-18.9-4.54c-1.55-.17-3.09-.3-4.64-.38h0a41.2,41.2,0,0,1,19,1.29A26.72,26.72,0,0,1,87.19,34.9ZM97.47,47.08a42.91,42.91,0,0,1,4.24,12.46A41.3,41.3,0,0,1,99,82.48a38.17,38.17,0,0,1-7.3-10.8,43.67,43.67,0,0,1-3.49-12.8,56.86,56.86,0,0,1,.06-13.36,40.77,40.77,0,0,1,1-5q3.09,1.38,6.07,2.95A38.71,38.71,0,0,1,97.47,47.08Zm5.82,12.21a45.43,45.43,0,0,0-2.62-9.76l.53,1a34,34,0,0,1,3.57,15,32.53,32.53,0,0,1-1,7.77,34.68,34.68,0,0,1-2,5.56A43.69,43.69,0,0,0,103.29,59.29ZM65.86,29.22a25.78,25.78,0,0,1,12.23,1c-1.21-.16-2.43-.29-3.65-.35a38.8,38.8,0,0,0-15.07,2.25l-1.65,0A24.87,24.87,0,0,1,65.86,29.22Zm23.26,66A25.75,25.75,0,0,1,64.33,99a31.39,31.39,0,0,1-11-6.88,39.5,39.5,0,0,1-10.8-19,52.86,52.86,0,0,0,5.75,11,38,38,0,0,0,12,11.39,27.41,27.41,0,0,0,16,3.77,29.74,29.74,0,0,0,14.42-5.37C90.14,94.36,89.64,94.77,89.12,95.17Zm36.3-11.89a9.24,9.24,0,0,1-3.16,5.08,9.52,9.52,0,0,1-5.72,2,18.26,18.26,0,0,1-6.33-1,30.47,30.47,0,0,1-5.95-2.74,27.22,27.22,0,0,1-4.18-3c.55-.8,1.08-1.61,1.57-2.45a37.88,37.88,0,0,0,3.4-7.4,31.52,31.52,0,0,0,1.5-8.07,32.9,32.9,0,0,0-3.35-16.05c-.32-.69-.68-1.37-1-2a72.05,72.05,0,0,1,18.73,17.66l0,0,0,0a19.86,19.86,0,0,1,3.12,5.47A26.11,26.11,0,0,1,125.69,77,16.84,16.84,0,0,1,125.42,83.28Z"/></svg>