<svg id="Layer_1" data-name="Layer 1" xmlns="http://www.w3.org/2000/svg" width="128" height="128" viewBox="0 0 128 128"><title>Artboard 101</title><path d="M46.36,72.32a14.25,14.25,0,0,1-4.45-1.64,28.74,28.74,0,0,1-7.06-5.05,32.28,32.28,0,0,0-1.18,4.64,16.45,16.45,0,0,0-.24,2.61A8.86,8.86,0,0,1,33,75.62a13.51,13.51,0,0,1-2.85,4.67c-.59.68-1.27,1.33-1.87,1.94-.35.36-.69.74-1,1.11.6,3.13,1.16,6.26,1.64,9.4q.74,4.45,1.32,8.94a.74.74,0,0,0,.71.62l6.37.09a2.53,2.53,0,0,0-.16-.91,3,3,0,0,0-.8-1.08,6.33,6.33,0,0,0-2.68-.73.6.6,0,0,1-.53-.53c-.16-1.52-.66-6.22-.92-8.59a4,4,0,0,1,.37-2.18,5.82,5.82,0,0,1,1.48-1.63,27.46,27.46,0,0,1,3.38-2.64c1.16-.8,2.28-1.65,3.39-2.51a13.42,13.42,0,0,0,2.67-3.11,22.57,22.57,0,0,0,1.92-3.07,15.23,15.23,0,0,0,1.21-3.06ZM86,46a38.17,38.17,0,0,0-4.31,5.34,9.31,9.31,0,0,0-.63,1.21,3.71,3.71,0,0,0-.22.6l-.21.7c-.28.92-.6,1.82-.93,2.72a39.43,39.43,0,0,1-2.33,5.25A14.05,14.05,0,0,1,76.61,63a5,5,0,0,1-.46.6l-.28.31c-.12.09-.26.18-.38.28-1,.44-1.84.64-2.7,1a4.57,4.57,0,0,0-.92.44c-.18,1.37-.61,8.56-.61,8.56,0,2.89-.09,5.77-.1,8.67l0,4.31c0,1.39.26,2.87.38,4.29.25,2.48.5,5,.7,7.43a.83.83,0,0,0,.81.74l8.2.08c0-1.69-2.76-2.35-4.34-2.58A1.38,1.38,0,0,1,75.75,96c-.1-1-.26-2.54-.34-3.44l-.18-2.17a8.27,8.27,0,0,1,0-2.22c.56-2.85,1-5.72,1.55-8.59S78,73.81,78.58,71a54.47,54.47,0,0,1,2.54-8.41v0a41.05,41.05,0,0,0,3.34-8.3c.42-1.44.75-2.91,1-4.38A13.62,13.62,0,0,0,86,46Zm18-35.59c-.07-.2-.21-.38-.42-.35a1.28,1.28,0,0,0-.65.42c-.41.41-.58,1-1.06,1.46-.77.47-1.07,1.41-2,2.12a3.85,3.85,0,0,1,.9.36l.8.67c.61.33,1,1,1.53,1.39l.18.14a13.1,13.1,0,0,1,.21-3,9.56,9.56,0,0,1,.41-1.74A3.33,3.33,0,0,0,104,10.37Zm7.64,13.51a1.29,1.29,0,0,0-.62-.41,5.51,5.51,0,0,1-1.92-.64,19.48,19.48,0,0,1-3.39-2l.05-.09a10.34,10.34,0,0,1,1,.3,3.47,3.47,0,0,0-.92-1.54c-.52-.37-1.09-.78-1.62-1.2a37.14,37.14,0,0,1-3-2.75c-.25-.22-.49-.47-.76-.67a2.21,2.21,0,0,0-.89-.37,24.25,24.25,0,0,0-5.93-.2c-.06.13-.1.19-.17.34.23.57.45,1.15.64,1.75l-.1,0c-.36-.48-.69-1-1-1.45l0,0v-.08c-.09-1-.14-1.93-.16-2.89a3.55,3.55,0,0,0-.13-1.22,2.85,2.85,0,0,0-.51-1.08.84.84,0,0,0-.52-.26,6.05,6.05,0,0,0-1,.23,4.44,4.44,0,0,0-1.13.77,21.85,21.85,0,0,0-2.34,2.78c-3,4-.74,6.08-.74,6.08,0,.33.62.64.84.9a1.84,1.84,0,0,0,.42.29l.64.2,1.35.48.29.1-.1.25c-.21.54-.46,1.08-.7,1.61l-.1,0c.06-.48.15-1,.23-1.44l-1.16-.18-.73-.16a1.91,1.91,0,0,1-.79-.43,7.81,7.81,0,0,1-1.51-2.75c-1.42.47-5.93,3.51-7.19,4.5S72.39,27,71.43,28.22l-.13.17-.25.05a11.8,11.8,0,0,0-2.81,1.22c-1,.51-1.91,1.06-2.84,1.61-1.89,1.12-3.74,2.28-5.69,3.35a23.07,23.07,0,0,1-4.19,1.19,13.45,13.45,0,0,1-2.42.35,3.68,3.68,0,0,0-1.9.66c-.64.42-1.35,1-1.63,1.15a9,9,0,0,1-3.06,1.34,49.58,49.58,0,0,0-6.21,2c-2,.79-4.08,1.58-6.07,2.45s-3.56,2.31-5.31,3.63-3.31,2.68-5.08,3.86a1.81,1.81,0,0,1-.24.24,18.34,18.34,0,0,0-1.92,3.64,30.39,30.39,0,0,0-1.31,4.23A14.68,14.68,0,0,0,20,63.72l.41,4.45c.25,3,.45,5.94.42,9a10.86,10.86,0,0,1-1.29,4.4,18.29,18.29,0,0,1-2.44,3.73,86.76,86.76,0,0,1-1.21,16.88.72.72,0,0,0,.72.85h7.66a3.18,3.18,0,0,0-2.95-2.72.73.73,0,0,1-.64-.7,40.45,40.45,0,0,1,.29-6.37A16.07,16.07,0,0,1,22.57,88a31.74,31.74,0,0,1,3.16-4.43c.58-.69,1.2-1.35,1.85-2s1.3-1.21,1.89-1.85a13.3,13.3,0,0,0,2.84-4.31,12.66,12.66,0,0,0,.26-3.1,49.13,49.13,0,0,1,1.58-7,12.11,12.11,0,0,1,4.17-7.14l.07.07a13.52,13.52,0,0,0-1.22,1.7,12.55,12.55,0,0,0-1,1.8c-.3.64-.72,2.18-1,2.8A23.29,23.29,0,0,0,42.06,70c1.82,1,4.55,2.06,9.77,1.26,4.1-.62,8-4,10.11-4.51a.75.75,0,0,1,.13.06c-.41-1.22-.59-2.05-1-3.25-.22-.73-.44-1.44-.69-2.13a21.59,21.59,0,0,1-.71-2.24,33.06,33.06,0,0,1-.85-4.59A11.47,11.47,0,0,1,59.13,50l.09,0a11.34,11.34,0,0,0,.14,4.53,31.72,31.72,0,0,0,1.14,4.41,21.13,21.13,0,0,0,.87,2.1,14.06,14.06,0,0,1,.73,2.25,27.07,27.07,0,0,1,.8,7.3c0,1.54-.17,3.06-.33,4.59.37,2.67.7,5.33,1,8s.63,5.34.75,8.07a3.7,3.7,0,0,1-.06,1.13,7.85,7.85,0,0,0-.06.91A50.57,50.57,0,0,0,64.42,99a.81.81,0,0,0,.81.73h6c-.07-.68-.13-1.35-.2-2-.24,0-.94-.15-1.57-.28a1.53,1.53,0,0,1-1.23-1.45c0-1-.09-2.34-.1-2.52,0-.66,0-1.31,0-2a38.59,38.59,0,0,1,.38-3.85,6.71,6.71,0,0,1,.19-1l.08-.23a1.06,1.06,0,0,0,0-.14,3.15,3.15,0,0,0,0-.44c0-.6,0-1.25,0-1.88L68.77,82c0-.66,0-1.27-.07-1.91-.09-1.27-.28-2.54-.33-3.83a28.58,28.58,0,0,1,.25-3.84A22.4,22.4,0,0,1,69,68.86a5.17,5.17,0,0,1,1.17-2.45,6.84,6.84,0,0,1,2.3-1.85c.86-.46,1.83-.75,2.56-1.16a3.51,3.51,0,0,0,.73-.92c.23-.39.46-.79.67-1.21.83-1.65,1.57-3.39,2.29-5.13.35-.87.69-1.75,1-2.63l.22-.67a6.62,6.62,0,0,1,.32-.71.43.43,0,0,1,0-.07,18.71,18.71,0,0,0-.38-2.36c-.25-1.09-.4-2.23-.72-3.33a27.27,27.27,0,0,0-1.12-3.26,9.57,9.57,0,0,0-1.72-3l.07-.09a9.73,9.73,0,0,1,2.12,2.81A27.4,27.4,0,0,1,80,46.11a13.49,13.49,0,0,1,1,3.42,10.67,10.67,0,0,1,0,1.39s0,0,0-.05a38.25,38.25,0,0,1,3.67-4.42c1.27-1.4,2.53-2.82,3.7-4.31s2.34-3,3.57-4.44,2.5-2.84,3.79-4.23l0-.07,0,0a22.68,22.68,0,0,0,2.58-1.56,10.72,10.72,0,0,1,1-.61,6.89,6.89,0,0,0-1.53.21c-1.29.45-2.67,1.21-4,1.83l-.07-.09A12.74,12.74,0,0,1,95,32.05a14.57,14.57,0,0,1-1.89-.21,15,15,0,0,1-2.42-.61l-.26-.07L90.35,31c-.55-1.78-1.09-3.58-1.6-5.38l.1,0q1.14,2.41,2.22,4.88a23.45,23.45,0,0,1,4.35,1.33l.1-.08a9.5,9.5,0,0,1,2-1.22,8.46,8.46,0,0,1,4.74.1,9.73,9.73,0,0,0,2.25.19c.41,0,.82,0,1.22,0l2.1-.07.57-.05a.77.77,0,0,0,.44-.11c.4-.34.4-.93.58-1.52a14.39,14.39,0,0,1-1.56.32,13.65,13.65,0,0,1-2.57.24,5.15,5.15,0,0,1-1.37-.13c-.44-.13-.82-.28-1.23-.44a23.12,23.12,0,0,1-2.3-1.11l0-.1c.86.13,1.68.31,2.5.46.41.09.82.18,1.21.24a7,7,0,0,0,1.13,0l2.47-.2a22.15,22.15,0,0,0,2.35-.33,4.87,4.87,0,0,0,.53-.68c.21-.29.41-.58.6-.89a13.32,13.32,0,0,0,.91-1.81A5.08,5.08,0,0,0,111.64,23.88ZM101.36,20.2a2.29,2.29,0,0,1-1.34.85,2.26,2.26,0,0,1-1.51-.49.27.27,0,0,1-.05-.41,2.18,2.18,0,0,1,1.34-.86,2.27,2.27,0,0,1,1.51.48A.31.31,0,0,1,101.36,20.2Z"/><path d="M31.19,128V111.5h2.73V118h5.36V111.5H42V128H39.28v-7.21H33.92V128Z"/><path d="M48.61,128v-7l-5-9.55h3.19L50,118l3.14-6.52h3.14l-5,9.58V128Z"/><path d="M57.9,128V111.5h10v2.79H60.62V118h6.8v2.78h-6.8v4.48h7.57V128Z"/><path d="M70.76,128V111.5h2.65l5.54,11v-11H81.5V128H78.75L73.3,117.24V128Z"/><path d="M96.81,128h-3l-1.19-3.74H87.25L86.13,128H83.22l5.27-16.5h2.89Zm-5-6.53-1.87-6.12-1.83,6.12Z"/></svg>