<svg id="Layer_1" data-name="Layer 1" xmlns="http://www.w3.org/2000/svg" width="128" height="128" viewBox="0 0 128 128"><title>Artboard 102</title><path d="M34.32,16.5V2.79h-4V0H41.05V2.79H37V16.5Z"/><path d="M53.88,16.5h-3l-1.19-3.74H44.31L43.2,16.5H40.29L45.56,0h2.89Zm-5-6.53L47,3.85,45.15,10Z"/><path d="M56.43,16.5,53.18,0H56l2,11.34L60.49,0h3.26l2.37,11.53L68.21,0H71L67.67,16.5H64.76L62.06,4.16,59.38,16.5Z"/><path d="M72.6,16.5V0h2.66L80.8,11V0h2.54V16.5H80.6L75.15,5.74V16.5Z"/><path d="M90,16.5V9.55L85.05,0h3.19l3.18,6.52L94.56,0H97.7l-5,9.58V16.5Z"/><path d="M33.19,127.73v-16H42.9v2.7H35.83V118H42.4v2.69H35.83V125h7.31v2.7Z"/><path d="M57.4,127.73H54.54l-1.15-3.62H48.16l-1.08,3.62H44.27l5.09-16h2.8Zm-4.86-6.31-1.8-5.93L49,121.42Z"/><path d="M65.1,121.87v-2.7h5.7v6.36a7.18,7.18,0,0,1-2.44,1.74,7.44,7.44,0,0,1-3.17.73,6.24,6.24,0,0,1-3.42-1,6.57,6.57,0,0,1-2.34-2.85,12,12,0,0,1,0-9,6.49,6.49,0,0,1,2.27-2.79,5.93,5.93,0,0,1,3.35-.93,5.14,5.14,0,0,1,5.56,4.69l-2.61.6a3.34,3.34,0,0,0-1.08-1.88,2.79,2.79,0,0,0-1.87-.66,3.33,3.33,0,0,0-2.73,1.32,6.3,6.3,0,0,0-1,4A7.16,7.16,0,0,0,62.42,124a3.11,3.11,0,0,0,2.62,1.3,3.87,3.87,0,0,0,1.6-.37,4.85,4.85,0,0,0,1.49-1v-2Z"/><path d="M73.53,127.73V111.9h2.64V125h6.57v2.7Z"/><path d="M84.86,127.73v-16h9.71v2.7H87.49V118h6.58v2.69H87.49V125h7.32v2.7Z"/><path d="M30.05,81.34a2.84,2.84,0,0,1-.56-.63c-1.43.65-2.82,1.39-4.2,2.12l-4.46,2.35q-4.12,2.14-8.29,4.24a3.49,3.49,0,0,0-.27.7,1.57,1.57,0,0,0,.19,1.55,2.7,2.7,0,0,0,1.5.7,9,9,0,0,0,1.65.15c1.63-1,3.28-2,4.94-3s3.41-2,5.12-3,3.43-2,5.16-2.93l2.25-1.22h0A4.73,4.73,0,0,1,30.05,81.34Z"/><path d="M42.83,80.7a7,7,0,0,1-1.34-1,8.22,8.22,0,0,1-.57-.61,1.11,1.11,0,0,1-.18-.38c-.68.43-1.36.84-2.06,1.24s-1.66.89-2.5,1.3c-.4.77-.8,1.53-1.16,2.3-.3.62-.6,1.24-.83,1.86a7.89,7.89,0,0,0-.29.91v.08a5.15,5.15,0,0,0,.59-.28c.28-.16.57-.32.86-.5.57-.36,1.14-.75,1.7-1.14s1.15-.77,1.76-1.14a5.54,5.54,0,0,1,1-.55,1.22,1.22,0,0,1,.27-.06h.23a.91.91,0,0,1,.46.25.86.86,0,0,1,.18.44.88.88,0,0,1,0,.33,1,1,0,0,1-.16.29,3.08,3.08,0,0,1-.46.48c-.58.48-1.14.86-1.65,1.28a7.07,7.07,0,0,0-.68.64l-.1.12.15,0a4.83,4.83,0,0,0,.9-.24c.61-.22,1.24-.49,1.85-.77,2.31-1.09,4.58-2.36,6.9-3.51-.61-.08-1.22-.16-1.83-.29A11,11,0,0,1,42.83,80.7Z"/><path d="M28,79.2a1.45,1.45,0,0,1-.39-.46A3.54,3.54,0,0,1,27.05,77a6.16,6.16,0,0,1,.22-1.69,6,6,0,0,1,.23-.72l-1.17.84q-1.24.85-2.49,1.68c-1.68,1.1-3.39,2.14-5,3.25a21.71,21.71,0,0,0-4.15,4A19.57,19.57,0,0,0,13,86.72,8.34,8.34,0,0,0,12.35,88l-.06.14c2.69-1.3,5.38-2.59,8.11-3.81,1.53-.69,3.08-1.36,4.63-2s2.92-1.19,4.44-1.61a1.48,1.48,0,0,1-.24-.74,1,1,0,0,1,0-.35,2.78,2.78,0,0,1-.78-.1A1.75,1.75,0,0,1,28,79.2Z"/><path d="M32,67.52l.11-.12c.71-.76,1.44-1.45,2.2-2.13A50.48,50.48,0,0,1,39.1,61.5c.85-.57,1.72-1.1,2.61-1.58A10.13,10.13,0,0,1,44.05,59a31.22,31.22,0,0,1,4.38-3.33A46.72,46.72,0,0,1,53.34,53c1.6-.76,3.24-1.42,4.89-2.07a83.52,83.52,0,0,1,8.93-4.59A37.47,37.47,0,0,1,78,43.17a11.37,11.37,0,0,1,1.44-.08c.49,0,1,0,1.43,0,.94,0,1.88.11,2.81.22,1.18.13,2.35.29,3.52.5a.42.42,0,0,1,.09-.16.47.47,0,0,1,.09-.1l0,0,0,0a12.79,12.79,0,0,0,2.2-2.67,12.86,12.86,0,0,0,1.52-3.06A17.24,17.24,0,0,1,89.57,39,14.28,14.28,0,0,1,88,40c-.27.15-.57.27-.85.4l-.44.18,0,0a.69.69,0,0,1-.26,0,.61.61,0,0,1-.44-1l.09-.1h0l0,0a13.05,13.05,0,0,0,2.2-2.67,14.15,14.15,0,0,0,1.16-2.13c-1.22.92-2.49,1.79-3.78,2.6-.68.42-1.36.84-2.06,1.22-.34.2-.7.38-1,.57s-.94.44-1,.49l-.71.33-1.41.62c-.94.42-1.89.81-2.85,1.19-1.92.78-3.86,1.47-5.82,2.13l-2.93,1c-1,.32-2,.6-2.89,1a57.64,57.64,0,0,0-5.51,2.62c-1.81.94-3.61,1.94-5.42,2.92-.91.49-1.82,1-2.75,1.44s-1.87.9-2.85,1.3l-1.44.54c-.45.19-.9.4-1.34.63a20.08,20.08,0,0,0-2.54,1.61,43,43,0,0,1-5.12,3.54h0a25.11,25.11,0,0,0-3.32,2c-1.07.75-2.12,1.55-3.14,2.38s-2,1.7-3,2.59c-.48.45-.95.9-1.4,1.39-.22.22-.42.46-.62.7l2.57-1C30,68.22,31,67.86,32,67.52Z"/><path d="M67.58,77.16l2.58-.76,1.28-.4c.27-.09.55-.18.83-.25l-.38-.09a7.21,7.21,0,0,1-1.54-.72,6.76,6.76,0,0,1-3,.21,5.84,5.84,0,0,1-3.09-1.58,8.6,8.6,0,0,1-.84.47,8.9,8.9,0,0,1-3.16.9,5.5,5.5,0,0,1-1.67-.08,3.74,3.74,0,0,1-.8-.26,1.17,1.17,0,0,1-.55-.5l-1,.41a6.85,6.85,0,0,1-3.77.36,2.92,2.92,0,0,1-1.72-1,1.94,1.94,0,0,1-.32-.6,7,7,0,0,1-1.6.36,4.24,4.24,0,0,1-.87,0c-1.39,1.16-2.85,2.24-4.33,3.26-.79.54-1.59,1.07-2.39,1.57a.8.8,0,0,1,.24.2,5.8,5.8,0,0,0,.52.48,6,6,0,0,0,1.24.74,11.54,11.54,0,0,0,2.81.83,35.69,35.69,0,0,0,6,.42c1.7-.3,3.41-.8,5.14-1.2s3.47-.85,5.2-1.32Z"/><path d="M48.26,65.67c-.92.58-1.86,1.14-2.84,1.66a8.2,8.2,0,0,1-.79.36l-.46.17-.32.06h-.14a.58.58,0,0,1-.19,0c-1.12.81-2.23,1.58-3.35,2.33-1.31.9-2.63,1.75-3.92,2.66-.65.44-1.31.87-1.94,1.33s-1.28.92-1.92,1.37c-1.16.86-2.3,1.75-3.44,2.69a1.52,1.52,0,0,0,.44,0A5.61,5.61,0,0,0,30.73,78a33.12,33.12,0,0,0,5.41-2.34c3.19-1.66,6.32-3.47,9.44-5.32l0,0-.24.06-.18,0h-.18l-.18,0a.7.7,0,0,1-.34-.31.79.79,0,0,1-.07-.47.42.42,0,0,1,.06-.2l.09-.17.15-.2c.36-.43.71-.78,1.07-1.14.74-.68,1.46-1.36,2.23-2Z"/><path d="M45.81,70.38a86.5,86.5,0,0,1-9.18,6.22,30.77,30.77,0,0,1-5.55,2.64,7.6,7.6,0,0,1-1.51.32,1.12,1.12,0,0,0,0,.32,1.6,1.6,0,0,0,.82.9,4.3,4.3,0,0,0,2.56.44,8.31,8.31,0,0,0,2.5-1c.85-.42,1.69-.91,2.53-1.38L43.11,76c1.53-.83,3.08-1.66,4.67-2.41A2.7,2.7,0,0,1,46.45,73a2.74,2.74,0,0,1-.76-1,1.78,1.78,0,0,1,0-1.3A3.07,3.07,0,0,1,45.81,70.38Z"/><path d="M19.48,77.83l2.83-.7,1.17-.62c1.4-.75,2.8-1.47,4.15-2.27a15.83,15.83,0,0,1,.9-1.85,27.83,27.83,0,0,1,1.68-2.58c.31-.42.62-.82.94-1.22l.47-.59.27-.32L29.19,69l-3.48,1.65c-2.33,1.09-4.66,2.16-6.93,3.3-.56.29-1.13.59-1.66.9l-1.66,1a23.39,23.39,0,0,0-3.11,2.08,13.12,13.12,0,0,0-2.5,2.66A11.7,11.7,0,0,0,9,82c.67-.43,1.34-.86,2-1.28a14.28,14.28,0,0,1,4.18-1.79C16.63,78.55,18.05,78.18,19.48,77.83Z"/><path d="M88.53,73a25.41,25.41,0,0,1-3.29,1.57,16.2,16.2,0,0,1-3.55,1,7.52,7.52,0,0,1-1.9,0A3.23,3.23,0,0,1,78.14,75a11.62,11.62,0,0,1-4,1,6.46,6.46,0,0,1-1.58-.14,4.42,4.42,0,0,1-1,.49l-.8.33a6.12,6.12,0,0,0-.28,1.12c-.09.5-.14,1-.18,1.5a25.53,25.53,0,0,0,0,3,21.42,21.42,0,0,0,1.1,5.83,12.18,12.18,0,0,0,3.31,4.72c.72.68,1.5,1.32,2.27,2.06a7.46,7.46,0,0,1,1.38,1.74A12.32,12.32,0,0,1,81,94.13a4.3,4.3,0,0,1,2.41-.84,3.07,3.07,0,0,1,1.56.43,17.77,17.77,0,0,0-.13-2c-.12-1-.33-2-.5-3a16.43,16.43,0,0,1-.25-3.14,7.26,7.26,0,0,1,.19-1.31,17.26,17.26,0,0,0-1.79,3.14,11.82,11.82,0,0,1,2.3-5.46,18.46,18.46,0,0,1,2-2.27c.36-.35.74-.68,1.12-1s.78-.64,1.1-.93a19,19,0,0,0,3.42-4.42c.91-1.49,1.75-3.07,2.83-4.5a19,19,0,0,1-3.75,2.21A15.52,15.52,0,0,1,88.53,73Z"/><path d="M99.94,50a3.45,3.45,0,0,1-1-.5,2.55,2.55,0,0,1-1-1.15,25.66,25.66,0,0,0-8.88-3c-1.81-.31-3.63-.55-5.47-.68a30,30,0,0,0-5.43-.12A43.73,43.73,0,0,0,67.55,47.3c-3.21,1.2-6.37,2.56-9.55,3.89-1.34,1-2.77,1.85-4.17,2.73-1.57,1-3.15,1.9-4.68,2.89s-3.06,2-4.51,3.07a18.29,18.29,0,0,0-3.87,3.84,11.45,11.45,0,0,1,3.16-4.59,6.27,6.27,0,0,0-.74.35,10.39,10.39,0,0,0-1.29.76A24.51,24.51,0,0,0,39.5,62c-1.54,1.26-3,2.61-4.44,4-.7.7-1.4,1.42-2.05,2.15-.16.19-.3.35-.44.55l-.45.6c-.3.4-.59.81-.87,1.21a17.56,17.56,0,0,0-2.7,5.1,3.13,3.13,0,0,0,.11,2.41c.06.11.05.09.09.12s0,0,.08,0a18,18,0,0,1,2.89-3.45,31.19,31.19,0,0,1,3.78-3,37.43,37.43,0,0,1,4.14-2.44,29.89,29.89,0,0,1,3.63-1.57l-.08-.06-.07-.08,0,0,0,0a1,1,0,0,1-.15-.43,1.65,1.65,0,0,1,0-.21,1,1,0,0,1,0-.17,2.14,2.14,0,0,1,.16-.57,4.56,4.56,0,0,1,.48-.81,17.51,17.51,0,0,1,2.3-2.47,37.94,37.94,0,0,1,5.25-3.95c-1.51,1.58-3,3.12-4.52,4.7a22.07,22.07,0,0,0-2,2.43l-.16.27c.13-.06.25-.11.37-.18.95-.47,1.88-1,2.82-1.56L50.45,63c1.88-1.08,3.79-2.14,5.75-3.11-1.4,1.21-2.88,2.34-4.39,3.42-1,1.16-2.08,2.31-3.16,3.42-.53.58-1.08,1.13-1.62,1.69,1.4-.57,2.8-1.19,4.22-1.76,1.83-.75,3.68-1.47,5.59-2.09a58.28,58.28,0,0,1-5.15,3c-1.68.89-3.36,1.71-5.14,2.45a2.22,2.22,0,0,0-.28.82c-.08.58.31,1,.81,1.32a2.44,2.44,0,0,0,1.63.22,7.47,7.47,0,0,0,1.82-.56,24,24,0,0,0,3.55-2c1.15-.76,2.28-1.58,3.48-2.35a17.59,17.59,0,0,1-2.86,3.18,14,14,0,0,1-3.65,2.39l-.16.06a1.81,1.81,0,0,0,.33.29,2.54,2.54,0,0,0,1.43.44,8.23,8.23,0,0,0,3.16-.59,25.69,25.69,0,0,0,3.09-1.39c.52-.26,1-.56,1.54-.82s1-.59,1.58-.85a12.89,12.89,0,0,1-1.18,1.37,17.18,17.18,0,0,1-1.38,1.18,12.33,12.33,0,0,1-2.18,1.33,1.19,1.19,0,0,0,.61.17,4.58,4.58,0,0,0,.74,0,10.37,10.37,0,0,0,1.45-.3,16.18,16.18,0,0,0,2.75-1.08,29.66,29.66,0,0,0,2.62-1.48l2.6-1.73a9.75,9.75,0,0,1-2,2.55,10.69,10.69,0,0,1-1.74,1.33,9.74,9.74,0,0,0,3.1.61,8.14,8.14,0,0,0,3.14-.69,18.16,18.16,0,0,0,3-1.59,8.19,8.19,0,0,0,.72-.48l.73-.48c.49-.32,1-.68,1.49-1a15.11,15.11,0,0,1-1,1.47,14,14,0,0,1-1.26,1.3,10.53,10.53,0,0,1-3.09,2c-.21.09-.44.17-.66.24a6.78,6.78,0,0,0,3.62.57,13.42,13.42,0,0,0,4-1.34l.23-.11.22.19a3.83,3.83,0,0,0,3,.35,17,17,0,0,0,3.28-1.06,25.75,25.75,0,0,0,3.09-1.59,13.21,13.21,0,0,0,2.71-2l.09-.09.12-.06a19.49,19.49,0,0,0,5.47-3.66A30.65,30.65,0,0,0,100.62,61a16.25,16.25,0,0,0,.89-1.39,8.88,8.88,0,0,0,.63-1.49,7,7,0,0,0,.28-3.19A9.51,9.51,0,0,0,99.94,50Z"/><path d="M119,32.94a4.91,4.91,0,0,0-1.06-2.31,3.78,3.78,0,0,0-2.16-1.33c-.86-.27-1.79-.29-2.68-.51l.41,0A4,4,0,0,0,112,27.09a6.55,6.55,0,0,0-2.15-.86,20.77,20.77,0,0,0-4.66-.47,16.29,16.29,0,0,0-4.59.49,9.9,9.9,0,0,0-3.94,2.07c-1.15,1-2.15,2.12-3.36,3.25s-2.29,2-3.49,2.87A8.54,8.54,0,0,1,89,37.23,10.87,10.87,0,0,1,87.9,39c.42-.19.84-.41,1.26-.62,1.06-.55,2.11-1.15,3.18-1.74a15.06,15.06,0,0,1-1.13,1.13,7.76,7.76,0,0,1-.9,3.48A11.41,11.41,0,0,1,89.24,43l1.26-.63c.85-.44,1.7-.92,2.56-1.4.13-.25.26-.5.38-.75a11.06,11.06,0,0,0,.84-2.57,6,6,0,0,1-.14,2.81,8.75,8.75,0,0,1-.76,1.91l.51-.17a8.22,8.22,0,0,1,2.6-.37A3.39,3.39,0,0,0,97,40.15a2.22,2.22,0,0,1,.25,1.33,4.24,4.24,0,0,1-.36,1.32,4.36,4.36,0,0,1-.32.65,5.85,5.85,0,0,1,.68-.3,7.38,7.38,0,0,1,2.57-.57c-.77.42-1.52.82-2.23,1.25-.35.23-.7.44-1,.69l-.49.37-.23.19-.11.1-.08.06a.55.55,0,0,1-.26.1.58.58,0,0,1-.48-.16.61.61,0,0,1-.16-.53c.06-.24.08-.18.09-.22l.09-.15.18-.28.36-.54c.26-.35.49-.69.72-1,.1-.15.2-.31.29-.47-.77.34-1.51.67-2.23,1-.41.19-.8.41-1.2.61l-.29.16-.15.08h0a.33.33,0,0,1-.12.05.57.57,0,0,1-.29,0,.59.59,0,0,1-.41-.32.6.6,0,0,1,0-.58l.09-.11.1-.12a2.31,2.31,0,0,0,.2-.24c.2-.3.39-.61.57-.92a17,17,0,0,1-1.82,1.45,14.28,14.28,0,0,1-1.59,1l-.39.19.3.07A28.29,28.29,0,0,1,94.59,46a18.32,18.32,0,0,1,3.65,2.28,3.45,3.45,0,0,1,1.11.52c.67.46,1.08,1.1,1,1.17a.27.27,0,0,1-.14,0,10.18,10.18,0,0,1,1.44,1.63,8.75,8.75,0,0,1,1.46,3.19c.05.25.09.52.12.78.44-2,1-3.89,1.53-5.81.16-.55.32-1.11.5-1.66l.13-.41a16.25,16.25,0,0,1-.94,1.54c-.17.26-.37.5-.57.75l-.3.36,0,0a.62.62,0,0,1-.81.09.64.64,0,0,1-.24-.59,1.27,1.27,0,0,1,0-.14v0l0-.05a13.71,13.71,0,0,0,.72-3.39c0-.61.08-1.22.07-1.84A13.23,13.23,0,0,1,102.08,46a12.89,12.89,0,0,1-1.15,1.06c-.2.17-.42.31-.63.47l-.34.22,0,0a.75.75,0,0,1-.24.09.59.59,0,0,1-.54-.23.6.6,0,0,1-.06-.61.42.42,0,0,1,.07-.11v0l0,0a11.33,11.33,0,0,0,1.39-2.52,11.46,11.46,0,0,0,.84-2.87,6.08,6.08,0,0,1-.1,3.11,8.68,8.68,0,0,1-.48,1.38l.72-.53,1.76-1.41a11.42,11.42,0,0,0-.15-1.28,5.9,5.9,0,0,1,.46,1l.06.17a9.21,9.21,0,0,1,.35,2.39,12,12,0,0,1-.13,2.07l.83-1.14c.4-.58.79-1.17,1.17-1.76.14-.76.27-1.52.38-2.3.18-1.13.34-2.26.55-3.41.11-.57.23-1.14.39-1.73l.14-.45c.08-.16.12-.31.22-.48a2.15,2.15,0,0,1,.38-.45,2.38,2.38,0,0,1,.4-.31c2-1.26,4.22-1.44,6.23-2.27a3.44,3.44,0,0,0-1.68-.25,7.34,7.34,0,0,1-1.81.27,9,9,0,0,0,1.75-.51,3.42,3.42,0,0,1,1.88.1,4.87,4.87,0,0,0,1.73.18,4.36,4.36,0,0,0,.83-.14,2,2,0,0,0,.69-.33l.15-.12c-.1-.2-.24-.37-.4-.4a1.83,1.83,0,0,0-.68,0l-.76.15a5.1,5.1,0,0,1-1.63.12,11.7,11.7,0,0,0-1.51-.22,19.4,19.4,0,0,0-3,0,6.88,6.88,0,0,1-3.12-.25,10.48,10.48,0,0,0,3.06-.26,12.45,12.45,0,0,1,3.17-.13,10.9,10.9,0,0,1,1.55.26,6,6,0,0,0,1.46,0c.25,0,.51-.06.78-.07a2,2,0,0,1,.85.07.91.91,0,0,1,.46.66l.15.24a4.38,4.38,0,0,1,.23.5c0,.1.06.22.1.32A3.21,3.21,0,0,0,119,32.94Zm-9.37-4a11.32,11.32,0,0,0-1.54,0l-.49,0a1.2,1.2,0,0,1,.48.89,1.69,1.69,0,0,1-1.67.71,1.81,1.81,0,0,1-1.24-1.16,8.46,8.46,0,0,1-1.55-.06l-.06-.12a2.48,2.48,0,0,1,1.33-1.13,3.77,3.77,0,0,1,1.67-.09,8.7,8.7,0,0,1,1.61.25,9,9,0,0,1,1.5.55Z"/><path d="M72.7,92.37a20.07,20.07,0,0,1-2.32-3.9,19.77,19.77,0,0,1-.76-6.19c0-.3,0-.6,0-.9-1.28,1-2.6,1.91-3.93,2.81,0,1.06-.13,2.11-.11,3.14a14.19,14.19,0,0,0,.4,3.52,14.39,14.39,0,0,0,2.67,4.46C69.61,94.73,71.34,92.83,72.7,92.37Z"/><path d="M69.92,79.21a9.54,9.54,0,0,1,.75-2.56l-.37.15-2.53,1q-2.52.94-5.09,1.79l-1.81.59a9.58,9.58,0,0,1-1.33,2.26,10.68,10.68,0,0,1-.87.92l1.19-.38,3.12-1,1.54-.5-.74,1.43-1,1.94.94-.51c1.95-1.06,3.93-2.08,6-3A20.69,20.69,0,0,1,69.92,79.21Z"/><path d="M84.83,99.67l-.26-.08-.16-.08-.06,0a.17.17,0,0,1-.06-.06.17.17,0,0,1-.06-.11.34.34,0,0,1,0-.16h0a7.29,7.29,0,0,0,0-.92L84,94.52a2,2,0,0,0-.64-.09,3.22,3.22,0,0,0-1.73.7,10.33,10.33,0,0,0-1.54,1.43c-.18.2-.34.41-.52.62.11.21.22.42.32.63.28.54.57,1.06.86,1.58l.14.25-.21,0c-1.34-.16-2.68-.36-4-.58-.56-.1-1.14-.19-1.7-.32l-.49-.12-.25-.08a.43.43,0,0,1-.16-.07l-.07,0a.15.15,0,0,1-.06-.05.42.42,0,0,1-.06-.12s0-.16,0-.16h0c0-.25,0-.61,0-.92l-.17-3.69a2,2,0,0,0-.64-.09,3.26,3.26,0,0,0-1.73.7,10.78,10.78,0,0,0-1.53,1.43c-.18.2-.35.41-.52.62.11.21.21.43.32.63.27.54.57,1.06.85,1.59l.15.26-.31.08-3.74.87a.36.36,0,0,0-.25.45l.32,1.07a.34.34,0,0,0,.4.25c1.56-.31,6.41-1.45,6.41-1.45l4.63.47-1.28.3a.32.32,0,0,0-.24.34l.14,1a.31.31,0,0,0,.35.26c1.56-.26,6.49-1,6.49-1l8.2,1a.36.36,0,0,0,.38-.23c.07-.21.18-.51.27-.75a.35.35,0,0,0-.28-.46C90.53,100.56,85,99.71,84.83,99.67Z"/></svg>