<svg id="Layer_1" data-name="Layer 1" xmlns="http://www.w3.org/2000/svg" width="128" height="128" viewBox="0 0 128 128"><title>Artboard 103</title><path d="M47.17,127.73V114.47H43.29v-2.7H53.68v2.7H49.8v13.26Z"/><path d="M54.76,119.85a11.22,11.22,0,0,1,.85-4.7,6.36,6.36,0,0,1,2.2-2.75,5.86,5.86,0,0,1,3.3-.9,5.63,5.63,0,0,1,4.57,2.14,9.37,9.37,0,0,1,1.77,6.11A9.5,9.5,0,0,1,65.58,126a5.47,5.47,0,0,1-4.46,2,5.55,5.55,0,0,1-4.49-2A9.42,9.42,0,0,1,54.76,119.85Zm2.72-.11a6.78,6.78,0,0,0,1.05,4.13,3.13,3.13,0,0,0,5.18,0,7,7,0,0,0,1-4.2,6.8,6.8,0,0,0-1-4.1,3.23,3.23,0,0,0-5.23,0A6.85,6.85,0,0,0,57.48,119.74Z"/><path d="M69.74,127.73v-16H74a13.1,13.1,0,0,1,3.1.23A3.49,3.49,0,0,1,79,113.58a5.71,5.71,0,0,1,.76,3.11,5.81,5.81,0,0,1-.66,2.9,3.82,3.82,0,0,1-1.63,1.65,8.58,8.58,0,0,1-3.37.47H72.38v6Zm2.64-13.26V119h1.46a6.28,6.28,0,0,0,2-.21,1.76,1.76,0,0,0,.87-.74,2.53,2.53,0,0,0,.34-1.33,2.45,2.45,0,0,0-.35-1.34,1.7,1.7,0,0,0-.86-.73,7.67,7.67,0,0,0-2.18-.19Z"/><path d="M82.08,127.73v-16h2.63v16Z"/><path d="M36.14,99.31h0Z"/><path d="M104.58,12.05s0,0,0,.06c.12.48.26,1,.43,1.45.32,1,.69,1.95,1.09,2.9a19,19,0,0,0,1.35,2.71l.7-.34A6.45,6.45,0,0,1,107.05,17a7.42,7.42,0,0,1-.51-2.42,7.64,7.64,0,0,1,.17-1.58A11.86,11.86,0,0,1,104.58,12.05Z"/><path d="M16.21,65.32,15,66c-1.19.63-2.39,1.23-3.66,1.75a2.08,2.08,0,0,0-.35.57c-.12.25-.22.53-.33.8-.2.56-.37,1.13-.55,1.71-.34,1.16-.64,2.33-.94,3.51s-.62,2.36-1,3.52l-.95,3.51c-.62,2.35-1.22,4.7-1.92,7a15.08,15.08,0,0,1-.58,1.76,8,8,0,0,1-.44.83l-.42.79c-.53,1-1,2-1.53,3.07l.75,1.48.14.26L3,96.83,1.3,98.6c.47.67,1,1.35,1.44,2h0l.54-.63c.35-.41.7-.83,1-1.26a10.24,10.24,0,0,0,1.55-2.73c.36-1,.69-2.1,1-3.16l2-6.38,1-3.18.49-1.6A16,16,0,0,1,10.86,80a19.57,19.57,0,0,1,1.64-3,18.27,18.27,0,0,1,2.13-2.73c1.33-1.24,2.67-2.4,4-3.55A25.17,25.17,0,0,1,17,67.87,14.1,14.1,0,0,1,16.21,65.32Z"/><path d="M128,40.8a6.23,6.23,0,0,0-.74-2c-.34-.66-.75-1.3-1.16-1.95-.2-.34-.41-.67-.6-1s-.36-.75-.51-1.11c-.29-.74-.54-1.47-.8-2.21-.5-1.46-1-2.95-1.4-4.43s-.9-2.93-1.29-4.46c-.19-.76-.37-1.52-.51-2.29l-.2-1.15-.17-1.07a.44.44,0,0,0-.46-.28c-.06,0-.35.09-.55.11a3.44,3.44,0,0,1-.63,0c-.82,0-1.6-.18-2.33-.24l-.15,0-.06-.1A3.13,3.13,0,0,0,115,17.46a5.13,5.13,0,0,0-1.86-.45,1.13,1.13,0,0,1,.13.27,1.71,1.71,0,0,1,.15.51,4.2,4.2,0,0,1,.58.52q.32.35.6.69c.38.46.75.94,1.09,1.44l-1.38-1.16c-.22-.19-.45-.37-.69-.55a4.51,4.51,0,0,0-.69-.43l-.14-.07,0-.23a2.71,2.71,0,0,0-.47-.81q-.33-.44-.69-.87c-.49-.57-1-1.14-1.46-1.76s-.92-1.23-1.37-1.74c-.13-.13-.24-.25-.36-.35l-.15-.11-.08.2a6.24,6.24,0,0,0-.07,4.07,6.17,6.17,0,0,0,1,1.88,11.28,11.28,0,0,0,1.44,1.65l.13.12,0,.12a3.83,3.83,0,0,0,0,.6c0,.2,0,.41,0,.62,0,.42,0,.84.08,1.26a10.15,10.15,0,0,1-.38-1.22c0-.21-.09-.42-.12-.64s0-.33,0-.5a9.86,9.86,0,0,1-1.7-1.47l-.07-.09c-.78.52-1.59,1-2.4,1.41s-1.8.95-2.72,1.39a45.11,45.11,0,0,1-5.68,2.32,52.42,52.42,0,0,1-5.93,1.61,21.31,21.31,0,0,1-3.09.45c-.27,0-.54,0-.8,0s-.57,0-.81-.06l-1.52-.18a9.41,9.41,0,0,1-3.07-.86,12.18,12.18,0,0,1-1.35-.83,11.25,11.25,0,0,0-1.27-.72,10.73,10.73,0,0,0-5.77-1.07,8,8,0,0,0-2.82.92c-.9.45-1.79.94-2.67,1.44a27.55,27.55,0,0,1-5.52,2.73c-2,.51-4,.94-6,1.34s-4,.79-6,1.15c-1,.18-2,.35-3,.51s-1.95.31-2.95.52-2,.44-3,.59a13.59,13.59,0,0,1-1.59.16c-.25,0-.6,0-.8,0a5.39,5.39,0,0,0-.68,0,41.49,41.49,0,0,0-5.88,1.06,32.83,32.83,0,0,0-5.68,1.86,7.54,7.54,0,0,0-2.82,2.16c-2.51,1-3.73,4.58-4.84,6.76C18.4,46,17.86,53.4,17.86,53.4A7.3,7.3,0,0,1,17.23,57c-.83,1.57-1.42,2.47-1.21,4.57a17.09,17.09,0,0,0,1.5,5.29c.74,1.77,2.12,3.48,2.7,5.17s.38,3.83-1.38,7.24c1.08-.15,3.56-1.23,4.41-5.45s-1.5-5.78-2.36-9.1a57.67,57.67,0,0,1-2-11c-.3-3.85,1.11-8.87,2.89-11.28l-.06.44a19.64,19.64,0,0,0-.09,2c0,1.36.11,2.72.24,4.08a37.79,37.79,0,0,0,.61,4,25,25,0,0,1,.81,4.12,6.76,6.76,0,0,1-.21,2.22,4.92,4.92,0,0,1-1.12,2,7.12,7.12,0,0,1-.83.75,12.56,12.56,0,0,0,.66,2.72A9.52,9.52,0,0,0,23,67.18c.37-.24,1.82-1.08,2.2-1.31q2.47-1.45,5.05-2.7c.14-.29.27-.59.39-.88a3.79,3.79,0,0,0,.32-1.79,5.89,5.89,0,0,0-.45-1.85c-1-2.43-8.71-11.92-8.66-16.18a4.59,4.59,0,0,1,1.08-1.08c.07.74.2,1.49.25,2.25a42.92,42.92,0,0,0,3.65,7.61L28,53l1.23,1.67a18.17,18.17,0,0,1,2.2,3.64A6.93,6.93,0,0,1,32,60.41a5.18,5.18,0,0,1,0,1.18,7.93,7.93,0,0,1-.32,1.1,23.7,23.7,0,0,1-2,3.78,44.61,44.61,0,0,1-5.06,6.66,1.85,1.85,0,0,0-.22,1.49A7.93,7.93,0,0,0,25,76.39c.51,1.17,1.17,2.32,1.78,3.48q1.85,3.48,3.75,6.94c.61,1.15,1.28,2.29,1.83,3.49L34,93.87l1.71,3.55c.28.56.56,1.12.85,1.65.16-.06.32-.1.47-.14.33-.09.65-.17,1-.24l.24-.06.16.23c.68,1,1.38,2,2.1,3l.61-.63,1-1c-.13-.2-.27-.4-.42-.59s-.46-.6-.71-.9c-.5-.57-1-1.12-1.58-1.65l-.05,0,0-.06c-1.7-2.63-3.21-5.32-4.67-8.06-.72-1.38-1.41-2.77-2-4.2a20.93,20.93,0,0,1-1.53-4.5,9.28,9.28,0,0,1-.19-2.48,5.89,5.89,0,0,1,.73-2.47,12.75,12.75,0,0,1,1.47-1.91c.47-.58.92-1.2,1.38-1.82C36.31,69,38,66.47,39.87,64l0,0,0,0c1.1-1,2.19-2,3.24-3l3.65-6.69.12.06-1.8,3.91c1.13.35,2.23.78,3.31,1.14.62.2,1.25.39,1.88.53l1.94.34a26.61,26.61,0,0,0,4,.44,14.91,14.91,0,0,0,4-.64c1.3-.37,2.57-.8,3.85-1.21s2.52-.92,3.8-1.36a12.08,12.08,0,0,1,2-.6A18.65,18.65,0,0,1,72,56.49c1.25-.13,2.5-.16,3.74-.22a2.07,2.07,0,0,1-.19-.32,2.56,2.56,0,0,1-.28-1.83,5.85,5.85,0,0,1,.65-1.63A4.67,4.67,0,0,0,76.46,51a11.89,11.89,0,0,0,.16-3.22,23.86,23.86,0,0,0-.44-3.26l.12,0A22.41,22.41,0,0,1,77,47.79a12.52,12.52,0,0,1,0,3.35,5,5,0,0,1-.55,1.64,5,5,0,0,0-.52,1.45,1.86,1.86,0,0,0,.26,1.35,7.24,7.24,0,0,0,.92,1.15,9,9,0,0,1,2.74,1.43A13.32,13.32,0,0,1,82,60.49l0,0,0,.08a18.36,18.36,0,0,0,1.22,2.07c.46.68.93,1.35,1.43,2s1,1.29,1.54,1.9c.27.3.54.58.84.92s.56.65.83,1c1,1.33,2,2.72,2.92,4.1s1.83,2.77,2.68,4.28a27.94,27.94,0,0,1,1.83,4.78c.5,1.6.91,3.23,1.31,4.85l2.31,9.36A2.94,2.94,0,0,1,100.43,97a5.26,5.26,0,0,1,.72,1.95c0,.34.09.67.11,1v.27c.46,0,1-.14,1.46-.22s1-.16,1.49-.22l-.39-.7L102,95.83l0,0v0l-1.27-4.07c-.42-1.36-.83-2.72-1.27-4.08-.88-2.7-1.73-5.42-2.63-8.12v0c-.11-1.24-.05-2.45-.11-3.65A7.6,7.6,0,0,0,96,72.37a31.78,31.78,0,0,0-2-3c-.69-1-1.39-2-2.07-3s-1.31-2-1.94-3a15.9,15.9,0,0,1-1.36-2.78,16.38,16.38,0,0,1-1-4.38,7.92,7.92,0,0,1,0-1,5.35,5.35,0,0,1,.16-1,10.72,10.72,0,0,1,.66-1.8,22.73,22.73,0,0,1,1.89-3.21c.36-.52.72-1,1.11-1.5a11.47,11.47,0,0,1,1.33-1.37c1.91-1.65,4.15-2.69,6.06-4.09s3.8-3,5.74-4.45c1-.71,1.92-1.48,3-2.13a16.49,16.49,0,0,1,3.21-1.39,8.09,8.09,0,0,1-.69-.44,11.19,11.19,0,0,1-1.79-1.51l-.17-.16v-.28a13.81,13.81,0,0,1,.22-2.49,10.89,10.89,0,0,1,.28-1.23,5.35,5.35,0,0,1,.48-1.21,14.68,14.68,0,0,1,.34,2.51,16.72,16.72,0,0,1-.07,2.24l1.29,1.48c.32.38.66.75,1,1.12q2.49,1.17,4.9,2.41a12.43,12.43,0,0,1,3,2,10.69,10.69,0,0,1,2.34,2.77l.06.1v.08a5.23,5.23,0,0,0,.28,1.24,1.56,1.56,0,0,0,.7.86,2.26,2.26,0,0,0,1.24.14c.37,0,.76-.13,1.16-.18a5.53,5.53,0,0,0-.52-1,10.72,10.72,0,0,0-1.46-1.78A9,9,0,0,1,125,42.5a5.64,5.64,0,0,1,.65,1l.14.28a.52.52,0,0,0,.1.2.29.29,0,0,0,.28.12.26.26,0,0,0,.15-.05l.22-.13a2.44,2.44,0,0,0,.4-.32,3.6,3.6,0,0,0,.62-.83A2.93,2.93,0,0,0,128,40.8Zm-8.67-15.35a1.51,1.51,0,0,1-1,.38,1.68,1.68,0,0,1-.81-.21,1.49,1.49,0,0,1-1.1-1.47.85.85,0,0,1,.84-.4,2.51,2.51,0,0,1,1,.22,1.69,1.69,0,0,1,1.13,1.26A.57.57,0,0,1,119.29,25.45Z"/><path d="M104,11.69l0,0S104,11.66,104,11.69Z"/><path d="M76.6,57.41l-.07-.07c-.22-.28-.46-.57-.69-.89-2.16.77-4.39,1.09-6.43,1.82-.24,1.37-.5,2.74-.74,4.12-.32,1.68-.66,3.37-1,5L67.11,70l-.29,1.26c-.06.21-.11.43-.18.64a1.7,1.7,0,0,1-.14.33c-.1.14,0,.06,0,0l-.08.23a25.9,25.9,0,0,0-.63,5v.09l0,.08c-.68,2.22-1.43,4.42-2.18,6.62s-1.51,4.4-2.22,6.61v0h0c-.45,1-.88,1.93-1.25,2.91a4,4,0,0,0-.16,1.51c0,.47.06,1,.12,1.42l1.46.4.1,0,.05.1L62.85,100l1.27-.18.73-.14.24,0-.13-.2c-.14-.22-.28-.44-.41-.67a11,11,0,0,1-.7-1.42,6.43,6.43,0,0,1-.4-1.58,5,5,0,0,1,.1-1.66c.17-1,.39-2,.63-3,1-4,2-7.87,3.1-11.76l0-.19.16-.14a16,16,0,0,0,1.71-1.78,7.09,7.09,0,0,0,1.21-2A24.63,24.63,0,0,0,71,72.74a10.46,10.46,0,0,0,.25-2.45v-.13l0-.08c.65-1.74,1.3-3.47,2-5.2s1.32-3.45,2-5.18h0a12.64,12.64,0,0,1,1.48-2.2l-.09,0Z"/><path d="M103.76,2.76a21.53,21.53,0,0,0,2.4,1.81c1.68,1.11,3.48,2.05,5.22,3.08.43.27.87.52,1.29.8a9.88,9.88,0,0,1,1.28.93A7.29,7.29,0,0,1,115.87,12a8.8,8.8,0,0,1,.64,3.09,21.64,21.64,0,0,1-.11,2.8,2.73,2.73,0,0,1,.34.34c.77,0,1.49.09,2.17,0a4.25,4.25,0,0,0,.53-.07c.14,0,.21-.07.39-.12a15.51,15.51,0,0,0-.4-2.95c-.2-1-.47-1.95-.72-2.91A6.85,6.85,0,0,0,115.23,8l-.62-.32c-.2-.1-.41-.19-.67-.3-.47-.21-.93-.43-1.39-.66l-2.7-1.36c-1.81-.88-3.59-1.85-5.4-2.7a10,10,0,0,0-1.19-.46A4.85,4.85,0,0,0,103.76,2.76Z"/><polygon points="101.7 101.14 101.8 101.63 105.28 102.89 104.37 100.25 101.7 101.14"/><polygon points="41.03 102.55 41.32 102.96 45.07 102.8 43.19 100.68 41.03 102.55"/><polygon points="62.88 100.47 62.87 100.91 65.81 102.44 65.35 99.92 62.88 100.47"/><polygon points="0 99.8 0.87 103 2.41 100.96 0.34 99.51 0 99.8"/></svg>