<svg id="Layer_1" data-name="Layer 1" xmlns="http://www.w3.org/2000/svg" width="128" height="128" viewBox="0 0 128 128"><title>Artboard 104</title><path d="M24,127.73v-16h4l2.38,10.9,2.36-10.9h4v16H34.17V115.16l-2.61,12.57H29l-2.59-12.57v12.57Z"/><path d="M38.92,119.85a11.39,11.39,0,0,1,.84-4.7A6.45,6.45,0,0,1,42,112.4a5.86,5.86,0,0,1,3.3-.9,5.64,5.64,0,0,1,4.57,2.14,9.37,9.37,0,0,1,1.77,6.11A9.5,9.5,0,0,1,49.74,126a5.47,5.47,0,0,1-4.46,2,5.55,5.55,0,0,1-4.49-2A9.42,9.42,0,0,1,38.92,119.85Zm2.72-.11a6.78,6.78,0,0,0,1,4.13,3.13,3.13,0,0,0,5.18,0,7,7,0,0,0,1-4.2,6.8,6.8,0,0,0-1-4.1,3.23,3.23,0,0,0-5.23,0A6.85,6.85,0,0,0,41.64,119.74Z"/><path d="M53.94,127.73v-16H56.5l5.36,10.66V111.77h2.46v16H61.66l-5.27-10.41v10.41Z"/><path d="M67.35,127.73v-16H70v7.1l5.35-7.1h3.56L74,118l5.19,9.74H75.73l-3.61-7.5L70,122.91v4.82Z"/><path d="M80.74,127.73v-16h9.71v2.7H83.38V118H90v2.69H83.38V125h7.31v2.7Z"/><path d="M96.58,127.73V121l-4.79-9.24h3.1L98,118.08l3-6.31h3L99.22,121v6.7Z"/><path d="M30.82,16.5,26,0h3l3.43,12.21L35.68,0h2.9L33.73,16.5Z"/><path d="M40.2,16.5V0h10V2.79H42.92V6.45h6.8V9.23h-6.8v4.48h7.57V16.5Z"/><path d="M53,16.5V0h5.76a8.15,8.15,0,0,1,3.15.44A3.46,3.46,0,0,1,63.49,2a5.26,5.26,0,0,1,.61,2.62,4.89,4.89,0,0,1-.93,3.12,4.12,4.12,0,0,1-2.64,1.49A6.62,6.62,0,0,1,62,10.6a18.61,18.61,0,0,1,1.57,2.68l1.64,3.22H61.93l-2-3.59a22.78,22.78,0,0,0-1.45-2.44,2.08,2.08,0,0,0-.81-.67,3.53,3.53,0,0,0-1.37-.19h-.56V16.5ZM55.76,7h2a10,10,0,0,0,2.37-.17A1.45,1.45,0,0,0,61,6.16a2.43,2.43,0,0,0,.31-1.32A2.3,2.3,0,0,0,61,3.57a1.6,1.6,0,0,0-.86-.65,10,10,0,0,0-2.21-.13H55.76Z"/><path d="M70,16.5,65.2,0h3l3.42,12.21L74.9,0h2.9L73,16.5Z"/><path d="M79.42,16.5V0h10V2.79H82.14V6.45h6.8V9.23h-6.8v4.48H89.7V16.5Z"/><path d="M95.29,16.5V2.79h-4V0H102V2.79H98V16.5Z"/><path d="M100.78,57.13a5.2,5.2,0,0,0,.16-1.31,1.15,1.15,0,0,0-.43-.91l-.23-.16-.25-.1a4,4,0,0,0-.63-.1,9.34,9.34,0,0,0-1.4,0c-1,.07-1.92.19-2.91.28-.49,0-1,.08-1.5.08A4.06,4.06,0,0,1,92,54.69l0,0,0,0a6.33,6.33,0,0,0-1.83-.79,17.29,17.29,0,0,0-2-.48A18.2,18.2,0,0,0,86,53.11a6.89,6.89,0,0,0-2,.11l-.24.06,0-.22c-.13-.78-1.5-4.27-1.52-4.46-1,1.67-1.37,2.16-2.08,3.18L77.57,55.2c-.4.57-.8,1.14-1.19,1.72a17.73,17.73,0,0,0-1,1.64,29.82,29.82,0,0,1,.47,4.08,5.38,5.38,0,0,0,2.82.58,10.69,10.69,0,0,0,3-.85h.07a55.48,55.48,0,0,0,5.9-1c1-.23,1.93-.49,2.87-.79a15,15,0,0,0,2.69-1.14l.07,0h.08c.79-.11,1.57-.26,2.4-.35a4.4,4.4,0,0,1,.64,0,2,2,0,0,1,.75.14.92.92,0,0,1,.39.3,2.53,2.53,0,0,1,.13.22,1.54,1.54,0,0,1,0,.3,2.08,2.08,0,0,1-.19.71c-.36.78-.79,1.44-1.17,2.14-.18.34-.36.69-.51,1.05a3.49,3.49,0,0,0-.28,1V65l0,.07a11.5,11.5,0,0,1-1.11,1.1l-.51.42a3.31,3.31,0,0,0-1,1.45,10.88,10.88,0,0,0-.5,1.75,1.22,1.22,0,0,0,0,.61s0,0,0,0a.21.21,0,0,0,.11,0,.66.66,0,0,0,.21-.2,10.8,10.8,0,0,0,.68-1.47c.28-.64.66-1.09,1-.87s-.52,1.55-.52,1.79a5.56,5.56,0,0,0,0,.71,1.19,1.19,0,0,0,.08.3c0,.09.08.08.09.08a.55.55,0,0,0,.18-.19l.17-.3c.1-.21.2-.44.29-.66.18-.45.34-.91.51-1.37.08-.23.16-.46.26-.69s.3-.84.64-.76-.11,2.44.17,2.48.37-.87.57-1.33a3.36,3.36,0,0,1,.39-.71,1.18,1.18,0,0,1,.41-.34.72.72,0,0,0,.22-.15,6.18,6.18,0,0,0,.9-1l.43-.6a1.41,1.41,0,0,0,.14-.17.5.5,0,0,1,.2-.13.37.37,0,0,1,.41.11c.13.17.1.32.1.26v.11l0,.35a4.76,4.76,0,0,0,.25,1.31.5.5,0,0,0,.15.25h.06l.11,0a.38.38,0,0,0,.14-.09A1.6,1.6,0,0,0,101,66c0-.46-.09-.93-.15-1.42l-.19-1.46c-.11-1-.21-2-.24-3a8,8,0,0,1,.06-1.54C100.54,58.07,100.67,57.59,100.78,57.13Z"/><polygon points="100.49 67.16 100.49 67.16 100.48 67.16 100.49 67.16"/><path d="M96.75,81.22c1.46-1.43,3-2.87,4.32-4.36s2.71-3.1,4.1-4.62c.69-.76,1.4-1.51,2.13-2.24a21.29,21.29,0,0,1,1.85-1.7,47.08,47.08,0,0,0-2-8.36c-.26-.76-.55-1.52-.86-2.27l-.78.74-1.42,1.3A14.27,14.27,0,0,1,102.69,61a11.11,11.11,0,0,1-1.24.76c0,.42.07.83.11,1.24l.16,1.45c0,.48.12,1,.14,1.49a4.64,4.64,0,0,1,0,.82,1.61,1.61,0,0,1-.42.89,1.19,1.19,0,0,1-.48.28l-.25.06h-.31a.85.85,0,0,1-.34-.14,1.11,1.11,0,0,1-.22-.21,1.65,1.65,0,0,1-.23-.43,4.18,4.18,0,0,1-.22-1.06,6.53,6.53,0,0,1-1,1.1,1.51,1.51,0,0,1-.39.24.41.41,0,0,0-.16.13,2.58,2.58,0,0,0-.33.55,15,15,0,0,1-.65,1.36,1.16,1.16,0,0,1-.35.35l-.08,0-.12,0a.41.41,0,0,1-.29-.1.61.61,0,0,1-.16-.31,3.6,3.6,0,0,1,0-.8l.06-.73c0-.09,0-.19,0-.29-.09.2-.18.42-.27.63L95,69.71c-.1.23-.67,1.58-1.13,1.31-.1-.06-.26-.72-.47-.8s-.56.94-.78,1.32a12.78,12.78,0,0,1-.79,1.29,2.66,2.66,0,0,1-.57.54c-.22.16-.44.26-.64.39a14.65,14.65,0,0,0-1.22.84,16.33,16.33,0,0,0-2.21,1.94,14.59,14.59,0,0,0-1,1.11,11.14,11.14,0,0,1-1,1.15,10.93,10.93,0,0,1-2.54,1.74l-.36.19-.39.16c-.26.08-.52.16-.77.21-.51.11-1,.17-1.48.26a6.69,6.69,0,0,0-1.37.33,3.11,3.11,0,0,0-.62.28q-.33.19-.66.36a5.86,5.86,0,0,1-1.46.58,2.6,2.6,0,0,1-1.21,0,3.27,3.27,0,0,1-.64.76,5.65,5.65,0,0,0-.51,1.57,3,3,0,0,0,.21,1.59l.22.48-.49.14a2.53,2.53,0,0,1-.62.12,1.13,1.13,0,0,1-.4,0v0a4.12,4.12,0,0,1,.08.45.88.88,0,0,1,0,.32.68.68,0,0,1-.3.42.54.54,0,0,1-.22.08.57.57,0,0,1-.26,0,.82.82,0,0,1-.35-.16,2.8,2.8,0,0,1-.34-.37c-.15-.23-.28-.46-.4-.68v.19a.93.93,0,0,1-.26.57.64.64,0,0,1-.78,0,1.74,1.74,0,0,1-.56-.78,6,6,0,0,1-.29-.77c-.07-.24-.13-.47-.18-.7a3,3,0,0,1-.32.43.72.72,0,0,1-.48.22.62.62,0,0,1-.49-.27,1.91,1.91,0,0,1-.26-.72,9,9,0,0,1-.11-1.35c0-.35,0-.69,0-1l-.17,0L66,83.5c-.31,0-.63.06-.94.08l-.51,0,.38-.32.27-.23a18,18,0,0,1-2,.15c-.68,0-1.36-.08-2-.1s-1.37,0-2.05,0a12.83,12.83,0,0,0-1.75.19s1.75,3.13.6,3.92c-.54.36-1.23-.69-1.23-.69l0,.65c0,.39,0,.79,0,1.2q0,.3,0,.63a2.11,2.11,0,0,1-.19.7.81.81,0,0,1-.37.4.47.47,0,0,1-.2.07.46.46,0,0,1-.28,0,.54.54,0,0,1-.21-.13.67.67,0,0,1-.11-.14,1.51,1.51,0,0,1-.15-.39c0-.12,0-.22-.05-.33,0-.34.12-1-.07-1s-.12.86-.24,1.3a1.5,1.5,0,0,1-.32.65.7.7,0,0,1-.23.15.49.49,0,0,1-.39,0,.73.73,0,0,1-.27-.4,5,5,0,0,1-.15-1.23c0-.78-.18-.18-.29.23a.84.84,0,0,1-.41.56.58.58,0,0,1-.71-.15,2.33,2.33,0,0,1-.37-1.18c0-.4-.05-.79-.05-1.18,0-.78,0-1.56.06-2.34l0-.58a2.8,2.8,0,0,0,0-.29l-.13.15-.39.43a4.84,4.84,0,0,1-.91.83,1.41,1.41,0,0,1-.65.25A.79.79,0,0,1,49,85a.86.86,0,0,1-.1-.61c-.68.4-1.37.77-2.09,1.11a8.12,8.12,0,0,1-1.31.46,3.61,3.61,0,0,1-1.43.09c-.26,0-.45-.08-.67-.12l-.64-.11a7.15,7.15,0,0,0-1.31-.08,5.57,5.57,0,0,0-1.29.18,6,6,0,0,0-1.21.45,5.75,5.75,0,0,0-1,.72,5.32,5.32,0,0,1-1,.93,8,8,0,0,1-2.6,1,43.3,43.3,0,0,1-5,.58l-.05.17-10,.48,1.15-1.13a9.55,9.55,0,0,0-2.07,0,11.73,11.73,0,0,0-2,.39h0c-.12,0-.23.19-.29.38a2.44,2.44,0,0,0-.13.62,9.5,9.5,0,0,0-.07,1.31c0,.88.06,1.77.14,2.65.15,1.63.38,3.26.63,4.87.41-.13.83-.25,1.25-.35a11.36,11.36,0,0,1,1.73-.29,6.81,6.81,0,0,1,1.8,0,4.12,4.12,0,0,1,1.64.65,9.07,9.07,0,0,0,3.28.1c.13,0,.26-.06.38-.09a2.12,2.12,0,0,0,.35-.15l.82-.36,1.64-.7c2.19-.92,4.4-1.79,6.66-2.55,1.13-.36,2.27-.72,3.45-1,.29-.07.59-.13.89-.18a8.89,8.89,0,0,1,.9-.15c.63-.08,1.21-.1,1.8-.14,1.18-.07,2.36-.17,3.57-.19a16.18,16.18,0,0,1,3.55.32c1.54-.16,3.09-.39,4.63-.62S58,93.26,59.52,93a43.48,43.48,0,0,1,4.71-.71,16.11,16.11,0,0,1,4.75.23,18.35,18.35,0,0,0,3-.58c1-.25,2-.52,3-.81,2-.56,3.94-1.19,5.91-1.81,1-.31,2-.62,3-.91s2-.53,3-.74c2-.42,4.08-.67,5.42-2.19C93.77,84.06,95.27,82.65,96.75,81.22Z"/><path d="M113.16,65.6a53,53,0,0,0-4.09-12.31,35,35,0,0,0-7.93-10.17,75.63,75.63,0,0,0-10.36-7.88,33.78,33.78,0,0,0-5.67-3.13,15.66,15.66,0,0,0-3.07-.9c-.53-.09-1.06-.15-1.59-.2L79.68,31A8.11,8.11,0,0,1,81,32.15a10.91,10.91,0,0,1,2.26,3.6,7.58,7.58,0,0,1,.25.81,2.27,2.27,0,0,1,1,.16l1,.42c.66.29,1.32.61,2,1,1.29.67,2.54,1.4,3.8,2.11s2.51,1.47,3.71,2.29a38.82,38.82,0,0,1,3.41,2.73C102,48.49,106.82,57,106.82,57l0,.09s.72,1.7,1,2.56A44.9,44.9,0,0,1,110,68.14c.22,1.44.38,2.89.47,4.34.06.72.08,1.45.09,2.18s0,1.46,0,2.19a29.24,29.24,0,0,1-.57,4.36,25.86,25.86,0,0,1-1.31,4.2,24.45,24.45,0,0,1-2,3.89A38.25,38.25,0,0,1,104,92.82l0,0h0a17.41,17.41,0,0,1-2.51,2,14.35,14.35,0,0,1-2.89,1.42,15.39,15.39,0,0,1-3.12.74c-1.06.15-2.12.2-3.13.3H92.2l-.1,0a8.22,8.22,0,0,0-2.26-.55,9.23,9.23,0,0,0-1.18-.07h-.47a6.66,6.66,0,0,0,4.57,2.76,10.85,10.85,0,0,0,3.16-.15A16.8,16.8,0,0,0,99,98.4,22.81,22.81,0,0,0,101.9,97a17.22,17.22,0,0,0,2.65-1.81,23.84,23.84,0,0,0,4.27-4.8,30.88,30.88,0,0,0,3-5.7,30,30,0,0,0,1.78-6.21A37.26,37.26,0,0,0,113.16,65.6Z"/><polygon points="33.38 36.09 33.38 36.1 33.38 36.1 33.38 36.09"/><path d="M19.29,48.26l-.25.18c-.17.12-.34.24-.53.35a3.55,3.55,0,0,1-1.21.47,4.42,4.42,0,0,1-2.23-.09,6.7,6.7,0,0,0,1.16,1.4,2.56,2.56,0,0,0,1.84.68,1.19,1.19,0,0,0,.32,0,6.39,6.39,0,0,1,2.94,1c.24.15.46.31.7.47s.43.36.67.53a5.15,5.15,0,0,0,1.54.76,10.66,10.66,0,0,0,3.41.29,6.14,6.14,0,0,1,1.66,0,1.67,1.67,0,0,1,.73.33s.06.06.1.09A19.71,19.71,0,0,1,31.35,60c.07.88.06,1.75.08,2.62.06,1.75.16,3.49.36,5.21v.06S31.22,70,30.93,71l-.89,3c-.3,1-2.35,8.11-2.75,9.1-.19.49-.91,1.93-1.06,2.16a3.75,3.75,0,0,1-.26.33c-.1.1-2.07,1.48-2.94,2.08L21,89.19l3.64-.09c1.34,0,2.67-.06,4-.08l.45-1.53,0-.08.06-.08c1.4-1.6,2.76-3.24,4.06-4.93.64-.84,1.28-1.68,1.88-2.55a23.38,23.38,0,0,0,1.62-2.64c.28-.92.54-1.86.79-2.79.12-.48.23-1,.34-1.44s.2-1,.26-1.42V71.5q.75-2.67,1.55-5.34c.51-1.75,1-3.5,1.59-5.24a5,5,0,0,1-1.33-.56,6.7,6.7,0,0,1-.6-.45l-.53-.47a43.87,43.87,0,0,0-4.64-3.27l.05-.08a43.54,43.54,0,0,1,4.87,3l.57.44a4.24,4.24,0,0,0,.56.38,4.3,4.3,0,0,0,1.24.45,3.9,3.9,0,0,0,1.32,0,11.83,11.83,0,0,0,1.34-.33,32.69,32.69,0,0,1,5.63-1.15,19.94,19.94,0,0,1,2.89-.08c.44,0,.89.07,1.33.14-.76-.42-1.5-.89-2.22-1.38a23,23,0,0,1-2.87-2.44,13.47,13.47,0,0,1-2.28-3c.89.88,1.82,1.67,2.77,2.45s1.92,1.51,2.92,2.21c.5.35,1,.71,1.51,1s1,.67,1.54,1,1.05.65,1.57,1,1.05.64,1.57,1l-.09.25c-.14.94-.34,1.87-.55,2.8l0,.13c-.21,1-4,15.39-4.19,15.86a5.7,5.7,0,0,1-.81,1.39,8.5,8.5,0,0,1-1.19,1l-.79.55a3.86,3.86,0,0,0-.85.76,4,4,0,0,0-.26.35,2.93,2.93,0,0,0-.25.45.5.5,0,0,0,0,.33.29.29,0,0,0,.27.11c.12,0,.25-.12.36-.26a8.88,8.88,0,0,1,1.69-1.33s.25-.15.35,0a7.06,7.06,0,0,1,0,1.37c-.06.77-.1,1.55-.11,2.32a11.06,11.06,0,0,0,.05,1.15,2.27,2.27,0,0,0,.31,1,.35.35,0,0,0,.17.09.31.31,0,0,0,.19,0,.57.57,0,0,0,.23-.37,4.54,4.54,0,0,0,.1-1.12l0-1.16a3,3,0,0,1,0-.31.66.66,0,0,1,.14-.39.3.3,0,0,1,.35-.07.45.45,0,0,1,.13.1l.06.1a1.11,1.11,0,0,1,.11.32c.16.81-.32,3.38.4,3.38s.25-1.79.37-2.58c0-.29.12-1.19.4-1a8.53,8.53,0,0,1,.62,2.21s.13.57.56.47.28-.7.28-.7a11.71,11.71,0,0,1-.65-2,2.41,2.41,0,0,1,0-.41.87.87,0,0,1,.11-.22l.06-.08.14-.08a.66.66,0,0,1,.2,0,.78.78,0,0,1,.38.09c.2.12.39,1.12.65,1,.72-.17,0-1.44-.31-1.69a7.6,7.6,0,0,1-.68-.9l-.18-.22.1-.24c.38-1,.78-1.86,1.2-2.78l1.27-2.7c.85-1.8,1.72-3.58,2.59-5.37s1.76-3.56,2.66-5.33,1.72-3.38,2.6-5.06c-.06-.77-.13-1.53-.15-2.31a5.81,5.81,0,0,1-.26-1.61c-.86-1.2-1.73-2.35-2.6-3.52s-1.78-2.6-2.69-3.89-1.85-2.57-2.8-3.84-1.88-2.57-2.86-3.78l0-.07c1.12,1.16,2.13,2.36,3.18,3.57s2,2.44,3,3.68a42.64,42.64,0,0,1,2.87,3.81l.63,1c.19.35.39.7.57,1s.35.72.52,1.09l.1.27v-.18a15.67,15.67,0,0,1,.12-1.94,28.31,28.31,0,0,1,1.08-5.5,16.32,16.32,0,0,1,1.07-2.27c.39-.72.82-1.43,1.26-2.12.89-1.38,1.81-2.73,2.83-4l.08,0c-.76,1.45-1.55,2.88-2.29,4.33a34.69,34.69,0,0,0-2,4.35,23.44,23.44,0,0,0-.59,2.3c-.18.79-.33,1.58-.46,2.37s-.23,1.59-.3,2.39a11.85,11.85,0,0,0-.06,1.19,4.49,4.49,0,0,0,.1,1.12l0,.07v0a35.76,35.76,0,0,0,.08,5.17,24.6,24.6,0,0,0,.34,2.58c.07.42.15.85.25,1.26a6.06,6.06,0,0,0,.16.61c.06.18.13.36.22.58A29,29,0,0,1,69.46,75a21.13,21.13,0,0,1,.32,2.61,11.81,11.81,0,0,1,0,1.33,6.47,6.47,0,0,1-.19,1.31h0a6.89,6.89,0,0,0-1.18.67,11.52,11.52,0,0,0-1,.79c-.56.46-1.9,1.18-1.73,1.5s1.57-.43,1.57-.43-.08,1.24-.06,1.67,0,1.76.38,1.82.4-.56.54-1.23a1.61,1.61,0,0,1,.44-.91s.52,4,1.19,3.66c.38-.1,0-2.71.39-2.88.89-.13.46,3.1,1.06,2.84s.15-1.13.17-1.71l-.12-2s.74,3,1.27,2.67-.42-2.21.51-3.48l0-.09.09-.07a3.28,3.28,0,0,0,1.06-2.44,2,2,0,0,0,0-.33L74,79.85l-.18-.76c-.13-.52-.26-1-.36-1.58a7.21,7.21,0,0,1-.14-.81,3.44,3.44,0,0,1,0-.46,3.17,3.17,0,0,1,0-.44c0-.56.14-1.09.23-1.62.21-1.06.44-2.1.68-3.13S74.7,69,74.81,68a27.43,27.43,0,0,0,.2-3.14,31.06,31.06,0,0,0-.46-6.25l0-.14.06-.12a14.63,14.63,0,0,1,1.14-1.84c.4-.59.82-1.16,1.24-1.73l2.52-3.37A41.23,41.23,0,0,0,81.86,48a14.09,14.09,0,0,0,1.36-3.88A15.59,15.59,0,0,0,83,35.85a10.21,10.21,0,0,0-2.18-3.5,8.39,8.39,0,0,0-3.44-2.24,15.33,15.33,0,0,0-4.1-.71c-1.4-.08-2.8-.06-4.21,0a27.36,27.36,0,0,0-4.16.34,31.51,31.51,0,0,0-4,1,51,51,0,0,0-7.69,3.29A59,59,0,0,0,46,38.38l-.1.07h-.11c-1.3,0-2.58.06-3.87.14s-2.58.19-3.87.31h-.13l-.09-.09c-1.58-2.37-6.66-5.9-6.7-5.92a11.51,11.51,0,0,0-2.44-.76c-.72,0-1.42-.17-2.11-.26a21,21,0,0,0-2.23-.19c-.76,0-1.48-.05-2.22,0a10.7,10.7,0,0,0-2.18.38,7,7,0,0,0-3.68,2.32,2.78,2.78,0,0,0-.59,1v0a5.4,5.4,0,0,0-.21,1.54,2.9,2.9,0,0,0,.06.78,1.77,1.77,0,0,0,.15.38.71.71,0,0,0,.33.31,8.34,8.34,0,0,1,.82,1,3.15,3.15,0,0,1,.36.68,1.52,1.52,0,0,1,.07.82,1.64,1.64,0,0,1-.14.39c-.06.12-.12.21-.18.32l-.36.65c-.24.42-.44.87-.72,1.29a2.34,2.34,0,0,1-.25.3,2.1,2.1,0,0,1-.33.22,3.22,3.22,0,0,0-.56.39.51.51,0,0,0-.1.5,7.38,7.38,0,0,1,.16.74,1.92,1.92,0,0,1,0,.82c-.1.29-.22.45-.29.68-.17.4-.3.82-.45,1.24.3.08.6.16.9.26a6.66,6.66,0,0,0,2.1.09,9,9,0,0,0,2.2-.73l.15-.06a.31.31,0,0,1,.19,0l0,.08Zm-3.24-9.94c0-.21,0-.45-.05-.68a6.77,6.77,0,0,0-.15-.73c0-.25-.08-.5-.11-.75s1-1.12,1.66-1.27a5.71,5.71,0,0,1,2.18,0,6.34,6.34,0,0,1,2,.84c.6.34,1.17.71,1.75,1.08a6.27,6.27,0,0,0,2.33-.1,6.92,6.92,0,0,0,2.1-.87,14.39,14.39,0,0,0,1.91-1.38,2.11,2.11,0,0,1,.23-.19,1.73,1.73,0,0,1,2.16-.09l2,1.54A5.72,5.72,0,0,1,36,38.53l.06.16c0,.11.08.21.12.34a2,2,0,0,1,.07.43,1.71,1.71,0,0,1-.21.86,1.54,1.54,0,0,1-.27.36,1.07,1.07,0,0,1-.16.14l-.14.11a4.89,4.89,0,0,1-.63.36l-.32.13.14.07a5.17,5.17,0,0,0-.21,5l.09.21-.21.09c-1.79.73-4.17,2.6-3.6,4.31a25.92,25.92,0,0,0,1,2.75l.24.48-.51-.16a10.66,10.66,0,0,1-2-.87c.16.24.13.93-.13.86a5.67,5.67,0,0,0-1.51-.38,9.11,9.11,0,0,1-3.26-.47,11,11,0,0,1-1.51-.63c-.25-.11-.5-.24-.75-.37s-.47-.31-.71-.45c-.87-.54-2.17-1.15-1.79-1.54s1.46-.58,1.85-1.24a2,2,0,0,1,.28-1.27,9,9,0,0,1,1.92-1.29c.83-.47.87-.91,1.21-2.22A9.85,9.85,0,0,1,23.34,46c-.86.56-1.33.36-1.89.57a1.37,1.37,0,0,1-.42-.29,2,2,0,0,1-.38-.59,3.07,3.07,0,0,1,.11-2.42,4.87,4.87,0,0,1,1.42-1.85l.42-.32c.11-.09.13-.12.15-.21a2.55,2.55,0,0,0-.17-.89,2.51,2.51,0,0,0-1.11-1.51,4.24,4.24,0,0,0-2-.39c-.72,0-1.44-.08-2.14-.06A3.66,3.66,0,0,0,16.05,38.32Zm3.17,2.38a.18.18,0,0,1,0-.25,1.75,1.75,0,0,1,1-.85,1.77,1.77,0,0,1,1.27.32.18.18,0,0,1,.05.25,1.75,1.75,0,0,1-1,.85A1.81,1.81,0,0,1,19.22,40.7Z"/><path d="M30.46,38.22l.05,0h0c.44.15,2.06.81,2,1.84-.12,1.19-.2,1.58-.2,1.58l0,.09a3,3,0,0,0,1.18-.45A5.74,5.74,0,0,0,34,41a6,6,0,0,0,.47-.38l0-.06.06-.06,0,0v0a2.09,2.09,0,0,0,.17-.28,1.54,1.54,0,0,0,.12-.34,1.59,1.59,0,0,0,0-.72A7.26,7.26,0,0,0,34.58,38a5.78,5.78,0,0,0-.48-1,3.6,3.6,0,0,0-.72-.88,1.89,1.89,0,0,0-.69-.41h-.06a.84.84,0,0,0-.32,0,.74.74,0,0,0-.39.16l0,0a1.84,1.84,0,0,0-.61.51,3.07,3.07,0,0,0-.39.6,5.92,5.92,0,0,0-.3.62,4.13,4.13,0,0,0-.22.65l0,0Zm2.93-1.71,0,0Z"/></svg>