<svg id="Layer_1" data-name="Layer 1" xmlns="http://www.w3.org/2000/svg" width="128" height="128" viewBox="0 0 128 128"><title>Artboard 105</title><polygon points="26.87 12.01 23.5 0 20.59 0 25.35 16.22 28.22 16.22 32.99 0 30.13 0 26.87 12.01"/><path d="M42.48,9a14.31,14.31,0,0,1-.22,3.16,2.1,2.1,0,0,1-.8,1.16,2.65,2.65,0,0,1-1.52.41,2.61,2.61,0,0,1-1.77-.59,2.69,2.69,0,0,1-.85-1.66,20.79,20.79,0,0,1-.1-2.66V0H34.54V8.65a15.84,15.84,0,0,0,.53,5,4.2,4.2,0,0,0,1.69,2.1A6,6,0,0,0,40,16.5a5.3,5.3,0,0,0,3.22-.9,4,4,0,0,0,1.58-2.36,22.82,22.82,0,0,0,.34-4.72V0H42.48Z"/><polygon points="50.96 0.13 48.28 0.13 48.28 16.22 57.64 16.22 57.64 13.48 50.96 13.48 50.96 0.13"/><polygon points="57.47 2.74 61.42 2.74 61.42 16.22 64.1 16.22 64.1 2.74 68.04 2.74 68.04 0 57.47 0 57.47 2.74"/><path d="M77.92,9a14.31,14.31,0,0,1-.22,3.16,2.15,2.15,0,0,1-.8,1.16,2.65,2.65,0,0,1-1.52.41,2.57,2.57,0,0,1-1.77-.59,2.69,2.69,0,0,1-.85-1.66,20.79,20.79,0,0,1-.1-2.66V0H70V8.65a15.84,15.84,0,0,0,.53,5,4.2,4.2,0,0,0,1.69,2.1,6,6,0,0,0,3.25.75,5.3,5.3,0,0,0,3.22-.9,4,4,0,0,0,1.57-2.36,22,22,0,0,0,.35-4.72V0H77.92Z"/><path d="M92.45,10.42A6.91,6.91,0,0,0,91,9.06a4.06,4.06,0,0,0,2.6-1.46,4.79,4.79,0,0,0,.91-3.06A5.25,5.25,0,0,0,93.93,2,3.36,3.36,0,0,0,92.41.44,7.74,7.74,0,0,0,89.31,0H83.65V16.22h2.68V9.45h.55a3.69,3.69,0,0,1,1.35.18,2.22,2.22,0,0,1,.8.67,23.45,23.45,0,0,1,1.43,2.39l1.94,3.53h3.21L94,13.06A18.75,18.75,0,0,0,92.45,10.42ZM88.32,6.86h-2V2.74h2.1a9.69,9.69,0,0,1,2.18.13,1.56,1.56,0,0,1,.85.64,2.31,2.31,0,0,1,.31,1.25,2.41,2.41,0,0,1-.31,1.29,1.5,1.5,0,0,1-.81.65A9.84,9.84,0,0,1,88.32,6.86Z"/><polygon points="99.97 9.07 106.66 9.07 106.66 6.34 99.97 6.34 99.97 2.74 107.16 2.74 107.16 0 97.29 0 97.29 16.22 107.41 16.22 107.41 13.48 99.97 13.48 99.97 9.07"/><polygon points="48.09 122.43 42.74 111.77 40.17 111.77 40.17 127.73 42.63 127.73 42.63 117.32 47.9 127.73 50.55 127.73 50.55 111.77 48.09 111.77 48.09 122.43"/><polygon points="56.19 120.7 62.77 120.7 62.77 118.01 56.19 118.01 56.19 114.47 63.27 114.47 63.27 111.77 53.56 111.77 53.56 127.73 63.51 127.73 63.51 125.03 56.19 125.03 56.19 120.7"/><path d="M74.11,119a9.83,9.83,0,0,0-2.88-1.22,7.12,7.12,0,0,1-2.4-1,1.37,1.37,0,0,1-.53-1.09,1.35,1.35,0,0,1,.58-1.11,2.6,2.6,0,0,1,1.64-.44,2.43,2.43,0,0,1,1.65.51,2.9,2.9,0,0,1,.75,1.79l2.64-.14a4.53,4.53,0,0,0-5-4.83A5.67,5.67,0,0,0,68,112a3.9,3.9,0,0,0-1.64,1.58,4.64,4.64,0,0,0-.59,2.35,4.77,4.77,0,0,0,.46,2.09,4.15,4.15,0,0,0,1.25,1.57A7.91,7.91,0,0,0,70,120.73a23.13,23.13,0,0,1,2.37.82,1.76,1.76,0,0,1,.73.63,1.68,1.68,0,0,1,.24.92,2,2,0,0,1-.69,1.55,2.67,2.67,0,0,1-1.88.63q-2.42,0-2.85-3.06l-2.58.31c.36,3.64,2.15,5.47,5.35,5.47a5.13,5.13,0,0,0,4-1.41,5.05,5.05,0,0,0,1.28-3.5,5.77,5.77,0,0,0-.47-2.44A4.08,4.08,0,0,0,74.11,119Z"/><polygon points="77.44 111.77 77.44 114.47 81.32 114.47 81.32 127.73 83.96 127.73 83.96 114.47 87.83 114.47 87.83 111.77 77.44 111.77"/><path d="M105.72,63.22,122,59.15l-.46-1s-15.12,3-15.64,2.48c-.33-.32-4.33-2.27-7.33-3.72a81.47,81.47,0,0,0,12.74-3.3,25.92,25.92,0,0,0,4.93-2.26l4.91-.15.1-.51-3.32-.5a8.24,8.24,0,0,0,3.44-5.54,3.34,3.34,0,0,1-.49.39,6,6,0,0,1-.87.45,12.73,12.73,0,0,1-1.68.56,42.65,42.65,0,0,1-6.53,1.05c-3.41.28-6.8.46-10.19.62L96.8,47a115.17,115.17,0,0,0,14.83-1.51,45.69,45.69,0,0,0,6.24-1.46,11.88,11.88,0,0,0,1.41-.58A3,3,0,0,0,120,43a1.61,1.61,0,0,0-.24-.43,6.86,6.86,0,0,0-1-1c-.2-.17-.43-.31-.64-.47l-1,.23a56.81,56.81,0,0,1-5.74.86c-7.65.78-15.16,1.53-22.79,1.82l-23,.09c-7.64.22-15.28.22-22.92-.05-1.48,0-3-.1-4.43-.17q10.78,1.23,21.65,2c8.61.59,17.24,1.21,25.88,1.38l3.21,0c-.69.3-1.49.67-2.38,1.07l-.83,0c-8.65.26-17.32.42-26,.12-4.33-.13-8.66-.39-13-.68s-8.66-.66-13-1.2-8.63-1.19-12.93-2.07a65.39,65.39,0,0,1-6.43-1.67,21,21,0,0,1-3.22-1.29l-.44-.23a12.28,12.28,0,0,0,1,1,26,26,0,0,0,3.19,2.22A63.23,63.23,0,0,0,21.93,48l1.92.78c-2.75.37-8,1-8,1l.59,1.1s7-.38,11.13-.65c2.91,1.06,5.84,2,8.81,2.85,1.77.51,7.57,1.4,14.46,2.31l-4.42.16S38.44,57.67,36.56,58c-1.5-.73-11.24-5-11.24-5L14.2,52.76,7.58,42.26,6,42.16,13.49,58l11.22-1,4.54,3.11L20.3,83.34,6,93.3v12.61L24.67,91.55l2.17-5.49,11.93-6.84,4.14-6.63-.86-.32-4.41,4.59s-6.23,2.75-8.63,3.7l6-15.22,13.18-4.12h.73L56.37,67l1.53-1.17-5.83-4.58,11.55,0,9.24,6L69.39,70l.15,1,4.69-3.22,14.39-2.09,2-7.76c1.28-.11,2.65-.25,4.1-.44Zm-20,.12c-.61.15-11.78,1.49-11.78,1.49l-5.58-3.57h4.76l6.16-2.89a20.88,20.88,0,0,0,2.14,0c1.73-.08,4.19-.11,7.19-.3C87.53,60.36,86.08,63.24,85.71,63.34Z"/><path d="M48.11,42l8.82.22c-1-2.83-.61-8.09,1.51-8.89a1.64,1.64,0,0,1,.63-.11,5.29,5.29,0,0,1,3.2,1.64,11.91,11.91,0,0,1,3,4.3,5.37,5.37,0,0,1,.14,3.24l1.05,0a6.35,6.35,0,0,0-.21-3.63,9.44,9.44,0,0,0-.9-1.8,5.15,5.15,0,0,1,2.44-2c2.72-1.06,8-.75,8.82,1.45.64,1.73-1.55,4.46-3.83,6.06,6.57.1,12.68.14,15.68,0,7.62-.28,25.59-2.77,27-3.06-.23-.11-2.09-.69-5.07-1.47,1.36-1.12,3.08-2.64,3.21-2.76s.07-1,.07-1l-5.82,3.1-.79-.19,2.4-3.06-1.87.49a9.22,9.22,0,0,1-1.89,2.24A180.48,180.48,0,0,0,80.1,32.54c-7-.58-34.8-1.41-57.55,3.44a22.17,22.17,0,0,0-2.5-1.44,13.06,13.06,0,0,0-2.79-.93l-.05.1a13.29,13.29,0,0,0,2.36,1.78,12.09,12.09,0,0,0,1.56.8c-2.36.53-4.67,1.13-6.88,1.8-.26.08-.52.17-.76.27.33.12,4.7,1.11,6.57,1.37C29.34,40.9,38.72,41.53,48.11,42Z"/></svg>