<svg id="Layer_1" data-name="Layer 1" xmlns="http://www.w3.org/2000/svg" width="128" height="128" viewBox="0 0 128 128"><title>Artboard 119 copy</title><polygon points="6.36 120.03 3.38 109.44 0.81 109.44 5.01 123.76 7.54 123.76 11.75 109.44 9.23 109.44 6.36 120.03"/><path d="M20.13,117.36a13,13,0,0,1-.19,2.79,1.86,1.86,0,0,1-.71,1,2.26,2.26,0,0,1-1.34.37,2.29,2.29,0,0,1-1.57-.52,2.36,2.36,0,0,1-.74-1.46,18.81,18.81,0,0,1-.09-2.36v-7.75H13.12v7.64a14,14,0,0,0,.47,4.41,3.8,3.8,0,0,0,1.49,1.85A5.3,5.3,0,0,0,18,124a4.7,4.7,0,0,0,2.85-.8,3.53,3.53,0,0,0,1.38-2.08,19.42,19.42,0,0,0,.31-4.16v-7.52H20.13Z"/><polygon points="27.61 109.56 25.25 109.56 25.25 123.76 33.51 123.76 33.51 121.33 27.61 121.33 27.61 109.56"/><polygon points="33.36 111.86 36.84 111.86 36.84 123.76 39.21 123.76 39.21 111.86 42.68 111.86 42.68 109.44 33.36 109.44 33.36 111.86"/><path d="M51.4,117.36a12.36,12.36,0,0,1-.19,2.79,1.81,1.81,0,0,1-.71,1,2.61,2.61,0,0,1-2.9-.15,2.32,2.32,0,0,1-.75-1.46,18.81,18.81,0,0,1-.09-2.36v-7.75H44.4v7.64a14,14,0,0,0,.46,4.41,3.76,3.76,0,0,0,1.5,1.85,5.26,5.26,0,0,0,2.86.66,4.7,4.7,0,0,0,2.85-.8,3.55,3.55,0,0,0,1.39-2.08,20.28,20.28,0,0,0,.3-4.16v-7.52H51.4Z"/><path d="M64.23,118.63A5.76,5.76,0,0,0,63,117.44a3.62,3.62,0,0,0,2.29-1.29,4.32,4.32,0,0,0,.8-2.71,4.68,4.68,0,0,0-.52-2.28,3.08,3.08,0,0,0-1.35-1.33,6.91,6.91,0,0,0-2.74-.39h-5v14.32h2.37v-6h.48a3.21,3.21,0,0,1,1.2.16,1.87,1.87,0,0,1,.7.59,20,20,0,0,1,1.26,2.11l1.71,3.12H67L65.58,121A17.46,17.46,0,0,0,64.23,118.63Zm-3.65-3.14H58.83v-3.63h1.85a9.57,9.57,0,0,1,1.93.11,1.35,1.35,0,0,1,.74.57,2,2,0,0,1,.27,1.1,2.14,2.14,0,0,1-.27,1.14,1.27,1.27,0,0,1-.71.57A8.61,8.61,0,0,1,60.58,115.49Z"/><polygon points="70.86 117.45 76.76 117.45 76.76 115.03 70.86 115.03 70.86 111.86 77.21 111.86 77.21 109.44 68.5 109.44 68.5 123.76 77.42 123.76 77.42 121.33 70.86 121.33 70.86 117.45"/><polygon points="91.53 119 86.72 109.44 84.42 109.44 84.42 123.76 86.62 123.76 86.62 114.42 91.35 123.76 93.73 123.76 93.73 109.44 91.53 109.44 91.53 119"/><polygon points="98.8 117.45 104.69 117.45 104.69 115.03 98.8 115.03 98.8 111.86 105.14 111.86 105.14 109.44 96.43 109.44 96.43 123.76 105.36 123.76 105.36 121.33 98.8 121.33 98.8 117.45"/><path d="M114.87,115.93a9,9,0,0,0-2.58-1.09,6.52,6.52,0,0,1-2.16-.88,1.24,1.24,0,0,1-.47-1,1.18,1.18,0,0,1,.52-1,2.32,2.32,0,0,1,1.47-.4,2.15,2.15,0,0,1,1.48.46,2.54,2.54,0,0,1,.67,1.61l2.37-.13a4.06,4.06,0,0,0-4.46-4.33,5,5,0,0,0-2.31.47,3.41,3.41,0,0,0-1.47,1.42,4.14,4.14,0,0,0-.53,2.11,4.23,4.23,0,0,0,.41,1.87,3.68,3.68,0,0,0,1.12,1.41,7.29,7.29,0,0,0,2.22,1,19,19,0,0,1,2.12.73,1.62,1.62,0,0,1,.66.57,1.53,1.53,0,0,1,.21.83,1.81,1.81,0,0,1-.61,1.39,2.44,2.44,0,0,1-1.69.56c-1.45,0-2.3-.92-2.56-2.75l-2.31.28q.48,4.91,4.8,4.91a4.6,4.6,0,0,0,3.59-1.27,4.53,4.53,0,0,0,1.15-3.13,5.23,5.23,0,0,0-.42-2.2A3.72,3.72,0,0,0,114.87,115.93Z"/><polygon points="117.86 109.44 117.86 111.86 121.34 111.86 121.34 123.76 123.71 123.76 123.71 111.86 127.19 111.86 127.19 109.44 117.86 109.44"/><path d="M103.56,48.52,119,44.66l-.43-.92s-14.34,2.84-14.84,2.35c-.31-.3-4.1-2.15-7-3.52a77.46,77.46,0,0,0,12.08-3.13,24.76,24.76,0,0,0,4.68-2.15l4.65-.14.1-.48-3.15-.48a7.87,7.87,0,0,0,3.27-5.25,3.47,3.47,0,0,1-.47.36,6.74,6.74,0,0,1-.83.44,11.4,11.4,0,0,1-1.59.53,42.06,42.06,0,0,1-6.2,1c-3.22.27-6.44.44-9.66.59l-4.56-.69a110.69,110.69,0,0,0,14.07-1.44,41.3,41.3,0,0,0,5.91-1.38,10.14,10.14,0,0,0,1.34-.55,3.2,3.2,0,0,0,.72-.48,1.91,1.91,0,0,0-.24-.41,6.13,6.13,0,0,0-.94-1c-.19-.16-.41-.29-.61-.44l-.91.22q-2.73.54-5.44.81c-7.26.74-14.38,1.45-21.62,1.72l-21.83.09c-7.24.21-14.49.21-21.74,0l-4.2-.16c6.82.77,13.67,1.41,20.53,1.87,8.16.56,16.35,1.15,24.54,1.31,1,0,2,0,3,0l-2.25,1-.79,0c-8.2.25-16.43.4-24.64.11-4.11-.12-8.22-.37-12.32-.64s-8.21-.62-12.31-1.13-8.18-1.14-12.26-2a61.46,61.46,0,0,1-6.1-1.58A22.54,22.54,0,0,1,14,27.92l-.42-.23a11,11,0,0,0,1,.95,26.07,26.07,0,0,0,3,2.11,57.75,57.75,0,0,0,6.52,3.3c.6.26,1.21.49,1.82.74-2.61.35-7.62.93-7.62.93l.55,1s6.63-.36,10.56-.62c2.75,1,5.54,1.92,8.35,2.71,1.68.48,7.18,1.32,13.71,2.19l-4.19.15S39.76,43.26,38,43.58c-1.43-.69-10.66-4.73-10.66-4.73L16.78,38.6l-6.28-10L9,28.55l7.1,15,10.65-1,4.3,2.94L22.56,67.59,9,77V89L26.71,75.38l2.05-5.2,11.32-6.49L44,57.41l-.82-.31L39,61.45S33.09,64.06,30.82,65l5.71-14.44L49,46.63h.7l7.05,5.46L58.22,51l-5.53-4.35,11,0,8.76,5.66L69.11,55l.14,1,4.45-3,13.65-2,1.91-7.36c1.22-.11,2.52-.24,3.89-.42Zm-19,.11c-.58.14-11.18,1.42-11.18,1.42l-5.29-3.39h4.52l5.84-2.74c.89,0,1.58.06,2,0,1.64-.07,4-.11,6.82-.29C86.31,45.8,84.94,48.54,84.59,48.63Z"/><path d="M48.93,28.36l8.37.2c-.91-2.68-.58-7.66,1.43-8.43a1.63,1.63,0,0,1,.59-.1,5,5,0,0,1,3,1.56,11.24,11.24,0,0,1,2.91,4.08,5.2,5.2,0,0,1,.13,3.07l1,0a6.07,6.07,0,0,0-.19-3.45,10.14,10.14,0,0,0-.86-1.71,4.88,4.88,0,0,1,2.31-1.86c2.58-1,7.59-.71,8.36,1.37.61,1.64-1.46,4.23-3.63,5.75,6.24.09,12,.14,14.87,0,7.23-.27,24.27-2.63,25.6-2.9-.21-.1-2-.65-4.8-1.4,1.28-1.05,2.92-2.5,3-2.61s.07-.95.07-.95L105.62,24l-.74-.18,2.28-2.91-1.77.48a9.13,9.13,0,0,1-1.8,2.12,170.62,170.62,0,0,0-24.33-4.06c-6.65-.55-33-1.33-54.56,3.27a20.92,20.92,0,0,0-2.38-1.37,12.88,12.88,0,0,0-2.65-.88l0,.09a12.48,12.48,0,0,0,2.24,1.7,10.28,10.28,0,0,0,1.48.75c-2.24.51-4.43,1.07-6.53,1.71a7.61,7.61,0,0,0-.72.25c.32.12,4.46,1,6.23,1.3C31.14,27.35,40,28,48.93,28.36Z"/></svg>