<svg id="Layer_1" data-name="Layer 1" xmlns="http://www.w3.org/2000/svg" width="128" height="128" viewBox="0 0 128 128"><title>Artboard 106</title><path d="M19.33,127.73l-3.14-16H18.9l2,11,2.39-11h3.15l2.29,11.15,2-11.15h2.66l-3.18,16H27.39l-2.62-11.94-2.59,11.94Z"/><path d="M45.75,127.73H42.88l-1.14-3.62H36.5l-1.08,3.62H32.61l5.1-16H40.5Zm-4.86-6.31-1.81-5.93-1.77,5.93Z"/><path d="M47.36,127.73v-16h5.57a7.65,7.65,0,0,1,3,.43,3.49,3.49,0,0,1,1.51,1.49,5.21,5.21,0,0,1,.58,2.54,4.74,4.74,0,0,1-.9,3,4,4,0,0,1-2.55,1.44A6.44,6.44,0,0,1,56,122a18.91,18.91,0,0,1,1.51,2.6l1.59,3.11H56l-1.91-3.47a22.24,22.24,0,0,0-1.41-2.36,1.94,1.94,0,0,0-.78-.65,3.6,3.6,0,0,0-1.33-.18H50v6.66ZM50,118.52h2a9.43,9.43,0,0,0,2.28-.16,1.49,1.49,0,0,0,.8-.63,2.4,2.4,0,0,0,.3-1.28,2.2,2.2,0,0,0-.3-1.22,1.6,1.6,0,0,0-.83-.64,10.42,10.42,0,0,0-2.14-.12H50Z"/><path d="M63.72,127.73V114.47H59.83v-2.7h10.4v2.7H66.35v13.26Z"/><path d="M72.17,127.73v-16H74.8v6.28H80v-6.28h2.64v16H80v-7H74.8v7Z"/><path d="M85,119.85a11.39,11.39,0,0,1,.84-4.7,6.38,6.38,0,0,1,2.21-2.75,5.8,5.8,0,0,1,3.29-.9A5.65,5.65,0,0,1,96,113.64a9.37,9.37,0,0,1,1.77,6.11A9.56,9.56,0,0,1,95.86,126a6,6,0,0,1-9,0A9.36,9.36,0,0,1,85,119.85Zm2.72-.11a6.78,6.78,0,0,0,1,4.13,3.12,3.12,0,0,0,5.17,0,7,7,0,0,0,1-4.2,6.8,6.8,0,0,0-1-4.1,3.12,3.12,0,0,0-2.61-1.33,3.16,3.16,0,0,0-2.63,1.34A6.93,6.93,0,0,0,87.76,119.74Z"/><path d="M106.11,121.87v-2.7h5.7v6.36a7.18,7.18,0,0,1-2.44,1.74,7.44,7.44,0,0,1-3.17.73,6.24,6.24,0,0,1-3.42-1,6.57,6.57,0,0,1-2.34-2.85,12,12,0,0,1,0-9,6.49,6.49,0,0,1,2.27-2.79,5.93,5.93,0,0,1,3.35-.93,5.14,5.14,0,0,1,5.56,4.69l-2.61.6a3.34,3.34,0,0,0-1.08-1.88,2.79,2.79,0,0,0-1.87-.66,3.33,3.33,0,0,0-2.73,1.32,6.3,6.3,0,0,0-1,4,7.16,7.16,0,0,0,1.14,4.39,3.11,3.11,0,0,0,2.62,1.3,3.87,3.87,0,0,0,1.6-.37,4.85,4.85,0,0,0,1.49-1v-2Z"/><path d="M18,49.77c-2.4-.4-3.06-4.86-3.15-5.5l-.14-1s0-.06,0-.09A4.73,4.73,0,0,0,14,45.48c0,1,.1,4.7,4.08,8.88-.17-.64-.41-1.26-.53-2A5.36,5.36,0,0,1,18,49.77Z"/><path d="M37,55.74c4-4.17,4-7.89,4.08-8.87a4.73,4.73,0,0,0-.65-2.25s0,.05,0,.09l-.14.95c-.09.63-.75,5.09-3.16,5.5a5.23,5.23,0,0,1,.4,2.63A17.87,17.87,0,0,1,37,55.74Z"/><path d="M31.87,60.08a2,2,0,0,0-.87-1,2.69,2.69,0,0,0-1.46,0,14.85,14.85,0,0,0-1.55.42,9.92,9.92,0,0,1-3.3.58,12.24,12.24,0,0,1-3.08-.43c.09.88.54,2.32,1.18,2.64a1.72,1.72,0,0,0,1.29-.06,9.86,9.86,0,0,1,1.67-.33,6.59,6.59,0,0,1,1.77,0,6.07,6.07,0,0,1,.82.25,2,2,0,0,0,.62.08c.91,0,1.84-.82,2.57-1.37C31.88,60.66,32,60.44,31.87,60.08Z"/><path d="M40.11,69.33a5.75,5.75,0,0,1-2.25-2.11,23.63,23.63,0,0,1-1.53-2.48c-.49-.89-1.74-2.25-2.2-3.15-.17,1.52.67,3.51.93,5A17.72,17.72,0,0,0,36.33,71l0,.13,0,.18A13.39,13.39,0,0,0,36.17,75c.07,1.27.21.63.34,1.91s1.37,7.23,1.4,8.47a14.15,14.15,0,0,1-.27,3.78A8.92,8.92,0,0,1,37,90.93l-.77,1.71-1.47,2.92,3,1.22L39,94.86a.87.87,0,0,1,1-.35s.53.52.88.28-.32-4.94.19-7.25c.58-2.51.56-5.2,1.31-7.61a23.73,23.73,0,0,0,.77-3.64v-.82c.16-1.26.33-.59.46-1.86a32,32,0,0,0,.25-3.38,6.25,6.25,0,0,1-.84-.17C42.05,69.77,41.16,69.7,40.11,69.33Z"/><path d="M22,57.18a2.52,2.52,0,0,0-.29-1.9l.09-.08a2.48,2.48,0,0,1,.89,2,3.61,3.61,0,0,1-.38,1.54l2.46.4a7.29,7.29,0,0,0,3.12,0c.53-.13,1.05-.28,1.57-.42a6.53,6.53,0,0,1,1.12-.23c-.08-.16.9-2.91,1.52-3.31l.08.09c-.18.29-1.23,2.28-.8,3.33a2.64,2.64,0,0,1,1.27,1.09A14.3,14.3,0,0,0,34.46,58a6.13,6.13,0,0,0,1.21-2c.13-.39,1.07-3.38.27-5a5.52,5.52,0,0,1-.95-.72,1.8,1.8,0,0,1-.76-1,9.37,9.37,0,0,1-.75-5.7,14.84,14.84,0,0,1,1.76-4l.1,0a22,22,0,0,0-.94,4.1,21.26,21.26,0,0,0,.34,4.12s.48,1.51.93,1.51a1.73,1.73,0,0,0,.8-.11c.13,0,.45-.38.58-.66a1.33,1.33,0,0,0,.12-.39c0-.07,0-.17-.16-.32a3.42,3.42,0,0,1-.81-1.1,1.44,1.44,0,0,1-.13-.75,1.32,1.32,0,0,1,.29-.68,11.57,11.57,0,0,0,.75-1l.11,0c-.27.82-1,1.54-.48,2.13a2.63,2.63,0,0,0,.81.82,1.24,1.24,0,0,1,.46.76,1.84,1.84,0,0,1-.09.84,3.26,3.26,0,0,1-.32.68,1.92,1.92,0,0,1-.61.65l-.21.11c.31.08.61.16.89.26a3,3,0,0,0,.41-.61,16.09,16.09,0,0,0,1.33-5.6s.2-2,1.43-.54c.15.31,1.5,2.19.16,6.93a3.38,3.38,0,0,1-.22.52c.15-.18.31-.36.47-.53l.84-.9a4.22,4.22,0,0,0,.67-.87,18.69,18.69,0,0,0,1.14-2.13,9,9,0,0,0,.75-1.83c-.14.06-.29.09-.42.14l-.87.23-.42.11a.86.86,0,0,1-.76-.12,1.67,1.67,0,0,1-.54-1.08,22.82,22.82,0,0,1,0-3.51l.12,0a3.41,3.41,0,0,1,.29.61c1-2.71,4.84-2.5,5.23-2.8a1.19,1.19,0,0,0,.48-1.32c-.18-.49-2.67-1.64-4-2.49A9.46,9.46,0,0,1,42,33a22.07,22.07,0,0,1-1.49-2l.1-.07c.3.36.61.71.92,1.05a3.33,3.33,0,0,1-.12-.83,2.84,2.84,0,0,1,.11-.75,4.11,4.11,0,0,0,1.41-.28,2.3,2.3,0,0,0,.42-.2c.14-.09.3-.21.37-.24a1.82,1.82,0,0,1,.63-.15c.49-.05,1,0,1.73-.07a2.06,2.06,0,0,0,.58-.21,1.37,1.37,0,0,0,.5-.52,2.6,2.6,0,0,0,.34-1c.11-.63.12-1.18.18-1.72A4.92,4.92,0,0,1,48,24.58c.18-.5.44-1,.66-1.56a1.52,1.52,0,0,0,.11-.58.93.93,0,0,0-.24-.56,2.1,2.1,0,0,0-.79-.59l-.06,0h0l-.12-.11a8.81,8.81,0,0,0-2.81.27,2.58,2.58,0,0,0-.54.23,8.16,8.16,0,0,0-2.44,1,25,25,0,0,0-2.39,1.76c-.5.41-.84.86-1.22,1.22a2.48,2.48,0,0,1-1,.12v-.12A2.46,2.46,0,0,0,38.23,25c-1.31-.17-2.58-.27-3.86-.32a19.2,19.2,0,0,0-4,.21,13.52,13.52,0,0,0-3.64,1.41L27,26a5.6,5.6,0,0,0-1.54-2.69,9.75,9.75,0,0,0-2.42-2c-.85-.45-1.75-.92-2.69-1.33a5.8,5.8,0,0,0-1.54-.5,1.22,1.22,0,0,0-.59,0,1,1,0,0,0-.46.4,1.08,1.08,0,0,0-.21.54,1.36,1.36,0,0,0,.08.49c.18.54.47.93.58,1.4a7,7,0,0,1,.18,1.45c0,1-.15,2-.22,3a2.41,2.41,0,0,0,.12.9,1.51,1.51,0,0,0,.69.82,4.06,4.06,0,0,0,1.64.38,4.86,4.86,0,0,1,2.62.56,8.39,8.39,0,0,0,.13,1c.11.6.27,1.18.36,1.81v.1l-.08.07a15.08,15.08,0,0,1-2.28,1.36c-.78.39-5.27,1.15-5.54,1.82s-.38,1.19-.13,1.42a24.54,24.54,0,0,0,2.66.64,7.41,7.41,0,0,1,1.51.59,8.9,8.9,0,0,1,1.42.83,4.62,4.62,0,0,1,1.2,1.25,3,3,0,0,1,.36.84A4.89,4.89,0,0,1,23,42a11.7,11.7,0,0,1-.21,3.14h-.12c0-.27-.07-.54-.09-.82a2.62,2.62,0,0,1-1.35.27,2.19,2.19,0,0,0-.72,0,1.05,1.05,0,0,0-.52.3,1.34,1.34,0,0,0-.3.53,2.34,2.34,0,0,0,0,.65,14.61,14.61,0,0,0,.27,1.47c.07.24.13.47.21.69l.13.25s0,0,.1,0a3.38,3.38,0,0,0,1.17.23,4.38,4.38,0,0,0,2.66-.82s.49-1.24.75-1.81.66-1,.9-1.63a12.16,12.16,0,0,0,.87-3.75h.12a9.61,9.61,0,0,1-.1,4.06A5.15,5.15,0,0,1,26,46.72a14.78,14.78,0,0,1-3.67,3,3.56,3.56,0,0,1-1.64.75,7.34,7.34,0,0,1-1.68.08,8.41,8.41,0,0,0-.59,1.82,3.87,3.87,0,0,0,.26,2.43c0,.09.1.16.14.24l.13.12,0,.06a9.76,9.76,0,0,0,1.25,1.32c.5.45,1.05.87,1.6,1.34A4.52,4.52,0,0,0,22,57.18Zm15.38-24.5a2,2,0,0,1,1.32-.75.34.34,0,0,1,.38.24,2,2,0,0,1-.13,1.52,2,2,0,0,1-1.32.73.32.32,0,0,1-.38-.23A2,2,0,0,1,37.37,32.68ZM26.65,34.33a.32.32,0,0,1-.38.19,2.07,2.07,0,0,1-1.19-.94,2.06,2.06,0,0,1,.05-1.5.31.31,0,0,1,.39-.18,2,2,0,0,1,1.19.93A2.05,2.05,0,0,1,26.65,34.33Z"/><path d="M93.65,75a10.59,10.59,0,0,1-.27-2.48,11.79,11.79,0,0,1,.39-2.29,22.41,22.41,0,0,1-1.31-2.28,14.78,14.78,0,0,1-1.27-2.23,13.35,13.35,0,0,0-6.53,4.17,10.63,10.63,0,0,1-1.15,1c.75.81,1.49,1.61,2.22,2.44A9.21,9.21,0,0,1,87,74.86a18.07,18.07,0,0,1,2.69,7.76,32.15,32.15,0,0,1-1.19,7.65,23.29,23.29,0,0,1-1.6,4,20.17,20.17,0,0,1-2,2.53l3.2,1,.57-1a.82.82,0,0,1,.68-.42l.63,0a.72.72,0,0,0,.68-.64,38.83,38.83,0,0,1,.65-4.21c.45-1.57.82-3.11,1.23-4.68a44.94,44.94,0,0,1,1.36-4.67A16.62,16.62,0,0,0,94.65,80a14.13,14.13,0,0,0,.16-2.24C94.16,76.22,93.91,76.53,93.65,75Z"/><path d="M31.37,99.79c2.06,0,2.79,0,4.69,0a1.35,1.35,0,0,0,1.44-1.06,5.55,5.55,0,0,0,.3-1.12l-3.54-1.36A9.35,9.35,0,0,0,31.37,99.79Z"/><path d="M47.58,99.44c2.05,0,2.79,0,4.69,0a1.34,1.34,0,0,0,1.43-1,3,3,0,0,0,.22-.84l-3.75-1.45A10,10,0,0,0,47.58,99.44Z"/><path d="M82.6,99.89h3.76c1.94,0,1.56,0,1.75-1L84.3,97.38A20,20,0,0,0,82.6,99.89Z"/><path d="M94.81,102.74l6.13.26c.06-.54.13-3,.19-3.56l-4.21-1.62C96.3,98.77,95.6,101.63,94.81,102.74Z"/><path d="M113.85,68.92c0-1.67.53-3.29-.31-4.62-1-1.59-1.05-3.3-1.19-5-.38-4.77.21-9.57-.28-14.35.08-.39.18-.79.25-1.19a11.86,11.86,0,0,0-1.51-4.46,2.76,2.76,0,0,0-.73-.79l-1-.72c-.66-.47-1.32-.94-2-1.43s-1.28-1-1.9-1.53c-.31-.26-.61-.56-.92-.83a7.14,7.14,0,0,0-.86-.68,9.23,9.23,0,0,0-4.26-1.39,31.13,31.13,0,0,0-9.37.83c-1.56.34-3.11.73-4.66,1.1a23.29,23.29,0,0,1-4.82.87,62,62,0,0,1-9.64-1,83.58,83.58,0,0,1-9.49-1.94c-6-1.3-11.57.63-17.87-.27A3.35,3.35,0,0,1,43,32.91a16.38,16.38,0,0,1,6.39,4.35L48.87,40s-3.1-.32-6.37,2.75a5.67,5.67,0,0,1,.29,1.94L45.33,44a.16.16,0,0,1,.21.16c-.11.86-.6,2.25-.77,3a10,10,0,0,1-.93,2.46,5.21,5.21,0,0,1-.4.6,4.05,4.05,0,0,1-.5.51,12.8,12.8,0,0,1-1,.79c-.6.41-.58,1.62-1.25,2a19,19,0,0,1-3.23,2.89c0,3.22-1.58,3.63-2.72,4.32,1,1.58,1.09,2.18,2.11,3.74a24.06,24.06,0,0,0,1.63,2.32,4.88,4.88,0,0,0,2,1.69c.78.22,1.84.26,2.79.47s1.83.31,2.77.43c1.76.27,3.54.52,5.32.87-.14-.49-.23-1-.35-1.45l-.25-1.12a4.12,4.12,0,0,0-.15-.55c-.07-.22-.14-.44-.19-.67a10.32,10.32,0,0,1-.19-2.59,11.73,11.73,0,0,1,.4-2.51l.12,0a10.65,10.65,0,0,0,.07,2.46,10,10,0,0,0,.5,2.35q.12.27.24.51a5.76,5.76,0,0,1,.3.61,4,4,0,0,1,.31,1.31,9.3,9.3,0,0,1-.29,2.54c.16,1.22.27,2.44.35,3.67.08,1.49.19,1.06.23,2.55a6.19,6.19,0,0,1,0,1.65,3.82,3.82,0,0,0,.14,3.3l.26.18,0,.26c.07,1.26.06,2.31.05,3.47s-.05,2.26-.12,3.4c0,.57-.08,1.14-.14,1.72a5,5,0,0,1-.47,1.78A5.61,5.61,0,0,1,50.75,95l3,1.09,1.05-1.81a.85.85,0,0,1,1-.39s.53.44.91.28-.78-3-.61-4.89a31,31,0,0,1,.4-3.37c.21-1.08.46-2.16.77-3.23A19.56,19.56,0,0,1,58,80.78a5,5,0,0,0,.29-.77c.09-.25.17-.52.24-.8.64-2.19.62-1.48,1.18-3.7l.83-1.42a32.61,32.61,0,0,0,.72-3.34h0a6.18,6.18,0,0,1,.52-1.66,16,16,0,0,1,.94-1.79c.64-1.16,1.58-2.18,2.21-3.25A2.63,2.63,0,0,0,65,62.39a15.94,15.94,0,0,0-.43-1.91,30.32,30.32,0,0,0-1.26-3.77l.11,0a31.64,31.64,0,0,1,1.71,3.63,17.55,17.55,0,0,1,.62,1.94,8.51,8.51,0,0,1,.18,1,3.74,3.74,0,0,1,0,.58,2.93,2.93,0,0,1-.19.61A24.18,24.18,0,0,1,63.69,68c-.75,1-1.63,2-2.31,3.09,2.65.18,5.23.59,7.83.74a48.07,48.07,0,0,0,7.86.16c2.58-.31,5.3-.68,7.19-2.53a13.82,13.82,0,0,1,6.87-3.84,16.81,16.81,0,0,1-.9-2.43,9.94,9.94,0,0,1,0-6l.28-.71.27-.62a5.42,5.42,0,0,0,.28-1.29,4.85,4.85,0,0,0-.64-2.6,22.47,22.47,0,0,1-1.25-2.61,6.3,6.3,0,0,1-.32-2.88H89a6.11,6.11,0,0,0,.52,2.75A21.5,21.5,0,0,0,91,51.69a5.5,5.5,0,0,1,.89,2.89,6,6,0,0,1-.25,1.52l-.25.73-.21.63a12,12,0,0,0,.2,5.41,43.1,43.1,0,0,0,1.33,4.81,20,20,0,0,0,1.35,2,26.1,26.1,0,0,0,3,3.45A6.92,6.92,0,0,1,98.63,75a20.61,20.61,0,0,1,2.1,4.87c.13.77.25,1.55.31,2.34A13.94,13.94,0,0,1,101,84.6c-.14,1.57-.39,3.11-.68,4.64a30.7,30.7,0,0,1-1.19,4.59,16.56,16.56,0,0,1-1.92,3.32l3.56,1a4.14,4.14,0,0,1,.29-1.41,2.52,2.52,0,0,1,1.19-.11.43.43,0,0,0,.46-.42c0-1.46-.45-3.35-.09-4.68.54-1.56,1-3,1.5-4.59s1-3.07,1.53-4.59a11.23,11.23,0,0,0,.73-2.26,14.74,14.74,0,0,0,.11-2.33c-.64-1.42-1-1-1.35-2.5a18.47,18.47,0,0,1-.47-2.33,11.22,11.22,0,0,1,.09-2.4,25.66,25.66,0,0,1,1.13-4.57c.46-1.49,1-3,1.55-4.39,1-2.88,1.78-5.88,2.65-8.85l1-3.9c.15,4.79.17,9.56.68,14.32a1.85,1.85,0,0,1-.34,1.09c-1.52,3-.95,6.34,1.72,9-1.17-2.52.34-4.85-.64-7.44C113.9,66.7,113.34,67.89,113.85,68.92Z"/></svg>