<svg id="Layer_1" data-name="Layer 1" xmlns="http://www.w3.org/2000/svg" width="128" height="128" viewBox="0 0 128 128"><title>Artboard 108</title><path d="M4.92,127.73l-3.13-16H4.5l2,11,2.39-11H12l2.3,11.15,2-11.15H19l-3.17,16H13l-2.61-11.94L7.78,127.73Z"/><path d="M31.34,127.73H28.48l-1.15-3.62H22.1L21,127.73H18.21l5.09-16h2.8Zm-4.86-6.31-1.8-5.93-1.77,5.93Z"/><path d="M34.56,127.73V114.47H30.67v-2.7h10.4v2.7H37.19v13.26Z"/><path d="M43,127.73v-16h9.71v2.7H45.64V118h6.58v2.69H45.64V125H53v2.7Z"/><path d="M55.42,127.73v-16H61a7.65,7.65,0,0,1,3,.43,3.42,3.42,0,0,1,1.5,1.49,5.1,5.1,0,0,1,.59,2.54,4.74,4.74,0,0,1-.9,3,4,4,0,0,1-2.55,1.44A6.44,6.44,0,0,1,64.08,122a18.91,18.91,0,0,1,1.51,2.6l1.59,3.11H64l-1.92-3.47a21.09,21.09,0,0,0-1.4-2.36,1.94,1.94,0,0,0-.78-.65,3.6,3.6,0,0,0-1.33-.18h-.54v6.66Zm2.64-9.21h2a9.43,9.43,0,0,0,2.28-.16,1.49,1.49,0,0,0,.8-.63,2.4,2.4,0,0,0,.3-1.28,2.2,2.2,0,0,0-.3-1.22,1.6,1.6,0,0,0-.83-.64,10.42,10.42,0,0,0-2.14-.12H58.06Z"/><path d="M74.13,111.77h5.24a8.17,8.17,0,0,1,3,.39,3.42,3.42,0,0,1,1.47,1.39,4.49,4.49,0,0,1,.09,4.32,3.37,3.37,0,0,1-1.34,1.38,3.54,3.54,0,0,1,1.83,1.41,4.42,4.42,0,0,1,.65,2.44,5.05,5.05,0,0,1-.84,3,3.39,3.39,0,0,1-2,1.48,20.42,20.42,0,0,1-3.69.2H74.13Zm2.64,2.66v3.69h1.74a17.7,17.7,0,0,0,1.94-.06,1.61,1.61,0,0,0,1-.57,2.27,2.27,0,0,0,.07-2.4,1.25,1.25,0,0,0-.75-.55,15,15,0,0,0-2.53-.11Zm0,6.34V125h2.45a7.69,7.69,0,0,0,2.07-.17,1.52,1.52,0,0,0,.77-.66,2.31,2.31,0,0,0,.31-1.26,2.27,2.27,0,0,0-.33-1.28,1.72,1.72,0,0,0-.88-.7,8.77,8.77,0,0,0-2.26-.19Z"/><path d="M87.53,111.77h2.63v8.64a20.32,20.32,0,0,0,.1,2.63,2.64,2.64,0,0,0,.83,1.63,2.92,2.92,0,0,0,3.24.17,2.11,2.11,0,0,0,.79-1.13,14.16,14.16,0,0,0,.21-3.11v-8.83H98v8.38a22.06,22.06,0,0,1-.34,4.64,3.9,3.9,0,0,1-1.55,2.32,5.22,5.22,0,0,1-3.17.89,5.89,5.89,0,0,1-3.19-.73A4.19,4.19,0,0,1,88,125.2a15.84,15.84,0,0,1-.51-4.92Z"/><path d="M109.34,121.86l2.56,1a7.13,7.13,0,0,1-2,3.91,5,5,0,0,1-3.43,1.24,5.09,5.09,0,0,1-4.15-2,9.52,9.52,0,0,1-1.83-6.14,10,10,0,0,1,1.85-6.39,5.22,5.22,0,0,1,4.3-2,5,5,0,0,1,3.68,1.5,6.5,6.5,0,0,1,1.55,3.17l-2.61.76a3.59,3.59,0,0,0-1-2,2.52,2.52,0,0,0-1.76-.69,2.79,2.79,0,0,0-2.37,1.27,7.26,7.26,0,0,0-.91,4.16,7.7,7.7,0,0,0,.89,4.29,2.72,2.72,0,0,0,2.32,1.28,2.4,2.4,0,0,0,1.8-.81A5.12,5.12,0,0,0,109.34,121.86Z"/><path d="M114.41,127.73v-16H117v7.1l5.35-7.1H126L121,118l5.19,9.74h-3.42l-3.61-7.5L117,122.91v4.82Z"/><path d="M82,101.28l.12.26,4.68-.1s-1.59-1.94-1.62-1.94S82,101.28,82,101.28Z"/><path d="M66.81,102.74l.12.26,4.68-.1S70,101,70,101,66.81,102.74,66.81,102.74Z"/><path d="M38.34,101l.12.26,4.68-.11s-1.59-1.93-1.62-1.93S38.34,101,38.34,101Z"/><path d="M32.55,101l.12.26,4.68-.11s-1.59-1.93-1.62-1.93S32.55,101,32.55,101Z"/><path d="M81.73,98.73a4.79,4.79,0,0,1,0,1.79L84.88,99a31.52,31.52,0,0,1-1.24-3,13.66,13.66,0,0,1-.52-1.78l-.3-1.78a32.4,32.4,0,0,1-.51-7.24c.11-2.37.11-5.74.43-8.17.34-2,.69-4,1.09-6a3.07,3.07,0,0,1-.38.34,3.44,3.44,0,0,1-.38.22c-.08,0-.16.07-.24.12-.33.19-.68.48-1.07.74a7,7,0,0,1-2.54,1.12,10.71,10.71,0,0,1-2.69.33c.69,1.84.94,4.73,1.44,6.62.26,1,.48,2,.73,3s.57,2,.79,3,.45,2,.61,3a15.33,15.33,0,0,1,.16,1.55l.1,1.52c.11,1.86.24,3.7.44,5.55a.51.51,0,0,0,.39.44A1,1,0,0,1,81.73,98.73Z"/><path d="M33.14,91.51a5.85,5.85,0,0,1,0-1.63,16.63,16.63,0,0,1,.43-2.34c-.51-1.51-1-3-1.6-4.52l-.06-.17L32,82.7c.5-1.52,1-3,1.4-4.53.18-.76.32-2.51.4-3.27a4.8,4.8,0,0,0-.28-2.18,11.08,11.08,0,0,0-1-2.06,14.76,14.76,0,0,1-1.67,5.78,15.61,15.61,0,0,1-1.08,1.18,5,5,0,0,0-1.59,2.22c.41,1.38,1,4.72,1.21,6.09s.54,2.78.86,4.16.64,2.76.91,4.17c.5,2.31-.63,3.56-.29,4.17s1.07.45,1.38.63.13,1.2.13,1.2c.71-.34,2.34-1.23,3.06-1.56a36.92,36.92,0,0,1-1.9-5.57A12.79,12.79,0,0,1,33.14,91.51Z"/><path d="M25.86,57.08a11.74,11.74,0,0,0-.22,4.41c.43,2.41,2.15,6.17,3.12,7.16a7.82,7.82,0,0,1,2,2.61c.39,1-.28,2.66-1.91,4.56.72-1.86-.56-3.61-.87-4.31s0-1.38-.12-2.12a20.17,20.17,0,0,0-1.6-3.1,22.59,22.59,0,0,1-2.07-6.13,7.2,7.2,0,0,1,1.7-6.25,4.57,4.57,0,0,1,1-2.43,22.22,22.22,0,0,1,3.67-3,22.52,22.52,0,0,1,2.86-1.9c-1.55,2.15-3.88,5.64-3.6,7.78.21,1.7,1,5.39,1.42,8.43a32.82,32.82,0,0,1,.17,4.2,5,5,0,0,0,.26,1.15,13.73,13.73,0,0,0-1.54-1.69,10.94,10.94,0,0,1-1.58-1.71,14.09,14.09,0,0,1-2-4.22A17,17,0,0,1,25.86,57.08Z"/><path d="M103.94,39c-.28-.44-1.18-1.81-1.59-2.52s-1.35-2.08-1.95-2.89c-.43-.6-1.33-1.62-1.76-2.09a.68.68,0,0,1-.17-.56,4.68,4.68,0,0,0,0-1.5L98.7,29a11.82,11.82,0,0,0,2-.34,3.89,3.89,0,0,0,1.6-.92,2.89,2.89,0,0,0,.87-1.68,12.48,12.48,0,0,0,.27-2,.22.22,0,0,0-.25-.2,9.07,9.07,0,0,0-1.81.43,6.59,6.59,0,0,0-1.44.69,1.78,1.78,0,0,0-.54.48c-.17.19-.32.42-.49.65-.32.44-.8,1.77-.91,1.79s-.28-.46-.5-.65a3.59,3.59,0,0,0-.47-.35,2.52,2.52,0,0,1,0-.38,9.82,9.82,0,0,0-.84-2.93,18.46,18.46,0,0,0-1.52-3c-1.06-1.63-3.5-4.22-5.32-12.8a58.43,58.43,0,0,1-1-5.77,16.58,16.58,0,0,0-.38,4.16A28.16,28.16,0,0,0,92,20.06a26.29,26.29,0,0,1,2.26,6l-.48.19h-.11C91.59,23.68,83,18.52,83,18.52a17.58,17.58,0,0,1-3.28-3.06,27,27,0,0,1-2.51-3.69c-.36-.65-.69-1.31-1-2a10,10,0,0,1-.74-2.18A22,22,0,0,1,75.66.1,13,13,0,0,0,74.2,7.45a12.74,12.74,0,0,0,.39,2.22,13.5,13.5,0,0,0,.82,2.07,23.64,23.64,0,0,0,2.33,3.82A31.61,31.61,0,0,0,83.93,22l1.74,1.42c.6.47,1.22.9,1.82,1.38A36.55,36.55,0,0,1,90.81,28l-.06.07-.69-.55c-.27.11-2.15.8-2.41,1l-.21.13-.92-1.36A7.71,7.71,0,0,0,85,26a11.44,11.44,0,0,0-2.25-.61c-.53-.1-1.79-.82-2.51-1a.3.3,0,0,0-.34.3,25.16,25.16,0,0,0,.5,3.15,3.61,3.61,0,0,0,1.25,1.92,4.92,4.92,0,0,0,2.22.91,8.69,8.69,0,0,0,1.14.16,2.53,2.53,0,0,1-.18.27c-.4.65-.79,1.32-1.15,2a22.54,22.54,0,0,0-1.84,4.16v0h0A12.64,12.64,0,0,1,79,40.54a21.55,21.55,0,0,1-3.4,2.6,3.62,3.62,0,0,1-1.1.44,6.23,6.23,0,0,1-1.13,0,9.69,9.69,0,0,0-2,.07,8.71,8.71,0,0,0-3.63,1.64l-.06.06-.08,0a26.78,26.78,0,0,1-4.84.5c-1.61.05-3.2,0-4.81,0-.81,0-1.61-.09-2.41-.17-.4,0-.81-.11-1.24-.19l-.58-.18-.54-.11C51.65,45,50,45,48.45,44.87c-.8-.06-1.6-.11-2.41-.23a10.19,10.19,0,0,1-1.2-.24,6,6,0,0,0-1.12-.29,15.39,15.39,0,0,0-4.67.36,21.72,21.72,0,0,0-5.13,1.86c-1,2.15-2.86,6.68-2.69,8.56.24,2.5,1.07,4.18,1.37,8.1a67.9,67.9,0,0,0,1.31,8.61q.2.42.36.84A5.49,5.49,0,0,1,34.65,75c-.07.82-.2,2.6-.38,3.39-.36,1.54-.87,3-1.32,4.46,1,2.67,2,5.35,2.81,8.08.27.94.51,1.87.75,2.78a8.12,8.12,0,0,1,.22,2.86,9.09,9.09,0,0,0-.09,2.58c.25.31.73,0,1,.24a1.81,1.81,0,0,1,.39.86l2.9-1.49a4.4,4.4,0,0,1-1-1.63,29.4,29.4,0,0,1-1.16-2.94,23.36,23.36,0,0,1-.84-3.08,14.58,14.58,0,0,1-.15-3.22,21,21,0,0,1,.39-3.16,6.59,6.59,0,0,1,.49-1.54l.57-1.46,2.34-6.77,0,0c.65-1.21,1-2.69,1.62-4s2-5.07,2.26-5.68a17.9,17.9,0,0,1,1.09-1.6A4.36,4.36,0,0,0,47.21,62a5.84,5.84,0,0,0,0-1.91l.09,0a6.13,6.13,0,0,1,.42,2,5,5,0,0,1-.47,2,8.38,8.38,0,0,1-1,1.75,21.39,21.39,0,0,0-1.5,2.64c.74.48,2.95,2.46,4,3.45a.42.42,0,0,0,.68-.16L50,70.37l.28.07c1.35.37,2.74.69,4.14,1s2.81.48,4.21.68,2.81.44,4.21.62,2.74.33,4.12.5a22.48,22.48,0,0,0-.17-2.63A17.13,17.13,0,0,1,66,68.43,22.6,22.6,0,0,1,65.37,66a9.36,9.36,0,0,1-.28-2.53A6.58,6.58,0,0,1,65.75,61h.09c.13.87.16,1.67.23,2.48s0,1.6.08,2.42a22.13,22.13,0,0,0,.32,2.43,15,15,0,0,0,.84,2.17s0,2.21,0,3.27,0,2.12-.08,3.17L67.1,81a15,15,0,0,0,.19,3.07A45.12,45.12,0,0,1,66,94.71s-1.3,4-1.1,4.41S66,99.5,66,99.5a.72.72,0,0,1,.6.62l-.06,1.71a18.18,18.18,0,0,1,3.16-1.47A11,11,0,0,1,69,95.24a21.68,21.68,0,0,1,.26-2.69,16.41,16.41,0,0,1,.72-3.19h0v0a14.78,14.78,0,0,0,1-3,28.77,28.77,0,0,0,.52-3.13,18.89,18.89,0,0,1,.44-3.28c.22-1.07.46-3.11.7-4.17l.17-.79.09-.39,0-.21a1.34,1.34,0,0,1,.09-.26,4.58,4.58,0,0,1,1.07-1.43c.42-.39.84-.75,1.27-1.08a14.9,14.9,0,0,0,1.26-1,8,8,0,0,0,1.07-1.17,15,15,0,0,1,1-1.29,6,6,0,0,0,.91-1.3A4.69,4.69,0,0,0,80,65.35h.09A5.47,5.47,0,0,1,79.8,67,7.22,7.22,0,0,1,79,68.41c-.31.46-.62.88-.91,1.35a8.67,8.67,0,0,1-1,1.31c-.82.82-1.7,1.4-2.41,2.18q-.15.15-.3.33a20.18,20.18,0,0,0,2.19-.17A11.61,11.61,0,0,0,79,72.87a7.58,7.58,0,0,0,2.24-1.16c.33-.26.65-.55,1.07-.83a2,2,0,0,1,.35-.2l.18-.13a3.73,3.73,0,0,0,.39-.4A11.24,11.24,0,0,0,84.66,68c.43-.75.81-1.55,1.19-2.34a48.66,48.66,0,0,0,2-4.85h0v0a39.82,39.82,0,0,1,1.73-4.88,51.27,51.27,0,0,1,2.28-4.65,9.11,9.11,0,0,0,1.29-4l0-.05c-5.08-3.3-5.76-11.81-5.19-13.59a29.79,29.79,0,0,0,1.93,5.72,12.25,12.25,0,0,0,3.8,3.6c0-.64.11-1.2.15-1.53a.42.42,0,0,1,.38-.39c.62-.08,1.9-.24,2.52-.3.39,0,1.18.29,1.45.18a3.67,3.67,0,0,1,.94,0,3.12,3.12,0,0,1,.52.5c.52.6,1.11,1.3,1.78,1a2.49,2.49,0,0,0,1.19-1c-.55-.28-1.12-.55-1.66-.87s-1.33-.76-2-1.19l0-.09c.75.18,1.48.41,2.21.66s1.21.43,1.81.65a4.57,4.57,0,0,0,1-1.31A.26.26,0,0,0,103.94,39Zm-9-7.12a1.87,1.87,0,0,1-1.28.26,1.85,1.85,0,0,1-1-.81.23.23,0,0,1,.07-.34A1.55,1.55,0,0,1,95,31.5.24.24,0,0,1,95,31.83Z"/></svg>