<svg id="Layer_1" data-name="Layer 1" xmlns="http://www.w3.org/2000/svg" width="128" height="128" viewBox="0 0 128 128"><defs><style>.cls-1{fill:#0961f5;}</style></defs><title>Artboard 107</title><path d="M25.14,122.53l2.58-.31q.44,3.06,2.85,3.06a2.67,2.67,0,0,0,1.88-.63,2,2,0,0,0,.69-1.55,1.68,1.68,0,0,0-.24-.92,1.82,1.82,0,0,0-.73-.63,23.13,23.13,0,0,0-2.37-.82,8.09,8.09,0,0,1-2.48-1.11,4.23,4.23,0,0,1-1.24-1.57,4.77,4.77,0,0,1-.46-2.09,4.64,4.64,0,0,1,.59-2.35A3.9,3.9,0,0,1,27.85,112a5.67,5.67,0,0,1,2.58-.53,5,5,0,0,1,3.6,1.25,5,5,0,0,1,1.37,3.58l-2.64.14a2.85,2.85,0,0,0-.76-1.79,2.39,2.39,0,0,0-1.64-.51,2.6,2.6,0,0,0-1.64.44,1.35,1.35,0,0,0-.58,1.11,1.39,1.39,0,0,0,.52,1.09,7.3,7.3,0,0,0,2.41,1A9.83,9.83,0,0,1,34,119a4.08,4.08,0,0,1,1.35,1.64,5.77,5.77,0,0,1,.47,2.44,5.05,5.05,0,0,1-1.28,3.5,5.13,5.13,0,0,1-4,1.41C27.29,128,25.5,126.18,25.14,122.53Z"/><path d="M37.68,119.85a11.39,11.39,0,0,1,.84-4.7,6.45,6.45,0,0,1,2.21-2.75,5.86,5.86,0,0,1,3.3-.9,5.64,5.64,0,0,1,4.57,2.14,9.37,9.37,0,0,1,1.77,6.11A9.5,9.5,0,0,1,48.5,126,5.47,5.47,0,0,1,44,128a5.55,5.55,0,0,1-4.49-2A9.42,9.42,0,0,1,37.68,119.85Zm2.72-.11a6.78,6.78,0,0,0,1.05,4.13,3.13,3.13,0,0,0,5.18,0,7,7,0,0,0,1-4.2,6.8,6.8,0,0,0-1-4.1,3.23,3.23,0,0,0-5.23,0A6.85,6.85,0,0,0,40.4,119.74Z"/><path d="M52.64,111.77h2.63v8.64a22.43,22.43,0,0,0,.1,2.63,2.7,2.7,0,0,0,.84,1.63,2.57,2.57,0,0,0,1.74.58,2.53,2.53,0,0,0,1.49-.41,2,2,0,0,0,.79-1.13,14.16,14.16,0,0,0,.21-3.11v-8.83h2.64v8.38a22.77,22.77,0,0,1-.34,4.64,4,4,0,0,1-1.55,2.32A5.22,5.22,0,0,1,58,128a5.92,5.92,0,0,1-3.2-.73,4.17,4.17,0,0,1-1.66-2.07,15.45,15.45,0,0,1-.52-4.92Z"/><path d="M66.09,127.73v-16h5.56a7.9,7.9,0,0,1,3,.43,3.42,3.42,0,0,1,1.5,1.49,5.21,5.21,0,0,1,.59,2.54,4.74,4.74,0,0,1-.9,3,4,4,0,0,1-2.55,1.44,6.61,6.61,0,0,1,1.4,1.33,18.91,18.91,0,0,1,1.51,2.6l1.59,3.11H74.69l-1.91-3.47a25,25,0,0,0-1.4-2.36,2,2,0,0,0-.79-.65,3.5,3.5,0,0,0-1.32-.18h-.55v6.66Zm2.63-9.21h2a9.53,9.53,0,0,0,2.29-.16,1.42,1.42,0,0,0,.79-.63,2.4,2.4,0,0,0,.31-1.28,2.2,2.2,0,0,0-.31-1.22,1.56,1.56,0,0,0-.83-.64,10.35,10.35,0,0,0-2.14-.12H68.72Z"/><path d="M87.87,121.86l2.56,1a7.13,7.13,0,0,1-2,3.91A5,5,0,0,1,85,128a5.09,5.09,0,0,1-4.15-2A9.52,9.52,0,0,1,79,119.89a10,10,0,0,1,1.84-6.39,5.25,5.25,0,0,1,4.31-2,5,5,0,0,1,3.68,1.5,6.59,6.59,0,0,1,1.55,3.17l-2.62.76a3.58,3.58,0,0,0-1-2,2.52,2.52,0,0,0-1.76-.69,2.79,2.79,0,0,0-2.37,1.27,7.25,7.25,0,0,0-.92,4.16,7.69,7.69,0,0,0,.9,4.29A2.7,2.7,0,0,0,85,125.25a2.4,2.4,0,0,0,1.81-.81A5.08,5.08,0,0,0,87.87,121.86Z"/><path d="M92.92,127.73v-16h9.7v2.7H95.55V118h6.57v2.69H95.55V125h7.31v2.7Z"/><path d="M33.43,16.5,30.19,0H33l2,11.34L37.5,0h3.25l2.38,11.53L45.22,0H48L44.68,16.5H41.77L39.06,4.16,36.39,16.5Z"/><path d="M60.75,16.5h-3l-1.18-3.74H51.19L50.07,16.5h-2.9L52.44,0h2.89Zm-5-6.53L53.86,3.85,52,10Z"/><path d="M64.08,16.5V2.79h-4V0H70.81V2.79h-4V16.5Z"/><path d="M72.82,16.5V0h10V2.79H75.54V6.45h6.8V9.23h-6.8v4.48h7.57V16.5Z"/><path d="M85.65,16.5V0h5.76a8.15,8.15,0,0,1,3.15.44A3.46,3.46,0,0,1,96.11,2a5.26,5.26,0,0,1,.61,2.62,4.91,4.91,0,0,1-.93,3.12,4.12,4.12,0,0,1-2.64,1.49A6.62,6.62,0,0,1,94.6,10.6a19.61,19.61,0,0,1,1.57,2.68l1.64,3.22H94.55l-2-3.59a22.78,22.78,0,0,0-1.45-2.44,2.08,2.08,0,0,0-.81-.67,3.53,3.53,0,0,0-1.37-.19h-.56V16.5ZM88.38,7h2a10,10,0,0,0,2.37-.17,1.45,1.45,0,0,0,.82-.65,2.43,2.43,0,0,0,.31-1.32,2.28,2.28,0,0,0-.31-1.27,1.55,1.55,0,0,0-.86-.65,10,10,0,0,0-2.21-.13H88.38Z"/><path class="cls-1" d="M92.15,74.85a28.15,28.15,0,0,1-56.3,0C35.85,59.31,56.91,48.57,64,23,69.44,48.18,92.15,59.31,92.15,74.85Z"/></svg>