<svg id="Layer_1" data-name="Layer 1" xmlns="http://www.w3.org/2000/svg" width="128" height="128" viewBox="0 0 128 128"><title>Artboard 110</title><path d="M38,111.77h4.81a7.21,7.21,0,0,1,2.76.41,4.54,4.54,0,0,1,1.71,1.38,7.09,7.09,0,0,1,1.23,2.51,14,14,0,0,1,.45,3.84,12.43,12.43,0,0,1-.47,3.6,7.09,7.09,0,0,1-1.19,2.42,4.55,4.55,0,0,1-1.73,1.35,6.52,6.52,0,0,1-2.62.45H38Zm2.63,2.7V125h2a5.21,5.21,0,0,0,1.85-.24,2.21,2.21,0,0,0,.93-.72,4.31,4.31,0,0,0,.61-1.53,13.49,13.49,0,0,0,.23-2.75A12.91,12.91,0,0,0,46,117a3.78,3.78,0,0,0-.76-1.61,2.52,2.52,0,0,0-1.26-.77,10.75,10.75,0,0,0-2.14-.14Z"/><path d="M51.36,111.77H54v8.64a22.43,22.43,0,0,0,.1,2.63,2.7,2.7,0,0,0,.84,1.63,2.91,2.91,0,0,0,3.23.17,2.06,2.06,0,0,0,.79-1.13,14.16,14.16,0,0,0,.21-3.11v-8.83H61.8v8.38a21.9,21.9,0,0,1-.35,4.64,3.89,3.89,0,0,1-1.54,2.32,5.22,5.22,0,0,1-3.17.89,5.92,5.92,0,0,1-3.2-.74,4.05,4.05,0,0,1-1.66-2.06,15.45,15.45,0,0,1-.52-4.92Z"/><path d="M73.17,121.86l2.56,1a7.13,7.13,0,0,1-2,3.91A5,5,0,0,1,70.31,128a5.08,5.08,0,0,1-4.14-2,9.52,9.52,0,0,1-1.83-6.14,10,10,0,0,1,1.84-6.39,5.23,5.23,0,0,1,4.3-2,5,5,0,0,1,3.68,1.5,6.5,6.5,0,0,1,1.55,3.17l-2.61.76a3.59,3.59,0,0,0-1-2,2.5,2.5,0,0,0-1.76-.69A2.79,2.79,0,0,0,68,115.52a7.26,7.26,0,0,0-.91,4.16A7.79,7.79,0,0,0,68,124a2.73,2.73,0,0,0,2.32,1.28,2.38,2.38,0,0,0,1.81-.82A5.09,5.09,0,0,0,73.17,121.86Z"/><path d="M78.24,127.73v-16h2.64v7.1l5.34-7.1h3.56L84.85,118,90,127.73H86.63L83,120.23l-2.14,2.68v4.82Z"/><path d="M3.56,16.23.42.27H3.13l2,11L7.49.27h3.15l2.29,11.15L15,.27h2.66l-3.18,16H11.62L9,4.29,6.41,16.23Z"/><path d="M19.18,16.23V.27h2.63V6.55H27V.27h2.63v16H27v-7h-5.2v7Z"/><path d="M32.51,16.23V.27h2.63v16Z"/><path d="M40.84,16.23V3H37V.27h10.4V3H43.47V16.23Z"/><path d="M49.29,16.23V.27H59V3H51.92V6.51H58.5V9.2H51.92v4.33h7.32v2.7Z"/><path d="M67,16.23V.27h9V3H69.65V6.75h5.49v2.7H69.65v6.78Z"/><path d="M89.2,16.23H86.33l-1.14-3.62H80l-1.08,3.62H76.06l5.09-16H84ZM84.34,9.91,82.53,4,80.76,9.91Z"/><path d="M99.18,10.36l2.56,1a7.13,7.13,0,0,1-2,3.91,5,5,0,0,1-3.43,1.24,5.09,5.09,0,0,1-4.15-2,9.52,9.52,0,0,1-1.83-6.14A10,10,0,0,1,92.19,2a5.22,5.22,0,0,1,4.3-2,5,5,0,0,1,3.68,1.5,6.5,6.5,0,0,1,1.55,3.17l-2.61.76a3.59,3.59,0,0,0-1-2,2.52,2.52,0,0,0-1.76-.69A2.79,2.79,0,0,0,94,4a7.26,7.26,0,0,0-.91,4.16A7.7,7.7,0,0,0,94,12.47a2.71,2.71,0,0,0,2.32,1.28,2.37,2.37,0,0,0,1.8-.82A5,5,0,0,0,99.18,10.36Z"/><path d="M104.23,16.23V.27h9.7V3h-7.07V6.51h6.57V9.2h-6.57v4.33h7.31v2.7Z"/><path d="M116.62.27h4.81a7.21,7.21,0,0,1,2.76.41,4.54,4.54,0,0,1,1.71,1.38,7.09,7.09,0,0,1,1.23,2.51,14,14,0,0,1,.45,3.84,12.43,12.43,0,0,1-.47,3.6,7.09,7.09,0,0,1-1.19,2.42,4.55,4.55,0,0,1-1.73,1.35,6.51,6.51,0,0,1-2.61.45h-5ZM119.25,3V13.53h2a5.17,5.17,0,0,0,1.85-.24,2.21,2.21,0,0,0,.93-.72,4.13,4.13,0,0,0,.61-1.53,12.72,12.72,0,0,0,.24-2.75,12.22,12.22,0,0,0-.25-2.8,3.78,3.78,0,0,0-.76-1.61,2.48,2.48,0,0,0-1.26-.77A10.75,10.75,0,0,0,120.45,3Z"/><path d="M85.46,63.15c1.13.17,2.26.37,3.38.61l1,.22.48.11.25.07.11,0h0l0-.08a2,2,0,0,0,.17-.4,3.13,3.13,0,0,0,.1-.6l-2.57-1.43-2.76-1.52c-.47-.24-.93-.49-1.4-.71s-.94-.42-1.43-.6a18.05,18.05,0,0,0-2.54-.73c.26.15.52.3.76.47a21.66,21.66,0,0,1,2.5,1.9,10,10,0,0,1,1.11,1.14,3.76,3.76,0,0,1,.81,1.49Z"/><path d="M83.72,65.17c1.24.74,2.5,1.44,3.74,2.17l1.92,1.1c.64.37,1.28.73,1.92,1.07a17.46,17.46,0,0,0,2,.95,2.46,2.46,0,0,0,.93.24,5.28,5.28,0,0,1,1.18.14l.53.16C96,71,96,71,96,71s0,0,.09-.07a5.26,5.26,0,0,0,.47-.92c.22-.55.42-1.12.65-1.68L95.91,68c-.56-.16-1.13-.31-1.69-.45a7.37,7.37,0,0,1-.89-.27,2.62,2.62,0,0,1-.85-.54c-.49-.46-.75-1-1.17-1.34a3.72,3.72,0,0,0-.59-.52h0a.85.85,0,0,1-.23,0l-.13-.05-.23-.07-.46-.16-.93-.29c-1.09-.34-2.17-.69-3.25-1.06l0,.06a4,4,0,0,1-1,1.47A2.83,2.83,0,0,1,83.72,65.17Z"/><path d="M83.55,65.23a2.31,2.31,0,0,1-.47.11,1.57,1.57,0,0,1-.32,0l-.22,0a22.42,22.42,0,0,1-3.16-1c-1-.39-2-.81-3-1.25-.79-.35-1.57-.71-2.35-1.08a21.12,21.12,0,0,1,1.34,2c.17.3.34.6.49.92a8.3,8.3,0,0,1,2.17,0,9.79,9.79,0,0,1,2.35.71,13.54,13.54,0,0,1,2.18,1.11,6.13,6.13,0,0,1,1.77,1.67l-.06,0A6.22,6.22,0,0,0,82.38,67a12.61,12.61,0,0,0-2.19-.9c-.75-.24-1.54-.35-2.3-.55s-1.29-.3-2-.47a4.84,4.84,0,0,1,.37,1.24,1.37,1.37,0,0,1,0,.29,7.82,7.82,0,0,0,1.26.71c.58.29,1.18.54,1.78.78,1.2.48,2.42.92,3.65,1.34l1.85.59.92.3.45.15a.92.92,0,0,0,.37,0,.75.75,0,0,0,.35-.16l.35-.32a.88.88,0,0,0,.3-.72.9.9,0,0,0-.13-.39l-.27-.41c-.17-.27-.34-.53-.5-.81a23.16,23.16,0,0,1-3-2.48Z"/><path d="M99.36,68.83c-.7-.11-1.38-.27-2.06-.44-.11.59-.22,1.18-.37,1.77l-.1.37a38.48,38.48,0,0,0,4.49,1.56,23.47,23.47,0,0,0,2.45.57,13.86,13.86,0,0,0,2.12.22c-.92-1.16-1.82-2.34-2.77-3.46-.52-.6-1.05-1.19-1.61-1.75l-.58-.54a2.5,2.5,0,0,1,.14.92,1,1,0,0,1-.18.54.81.81,0,0,1-.57.3A4.23,4.23,0,0,1,99.36,68.83Z"/><path d="M67.51,58.34c1.35.67,2.7,1.34,4,2.14a12.27,12.27,0,0,1,1.92,1.38c-.74-1.13-1.54-2.22-2.37-3.28a7.2,7.2,0,0,0-1.09-1,8.09,8.09,0,0,0-2.89-1.18,4.5,4.5,0,0,1,.34.38,1.19,1.19,0,0,1,.15.26,1,1,0,0,1,.06.23,1.47,1.47,0,0,1,0,.47A1.53,1.53,0,0,1,67.51,58.34Z"/><path d="M95,72.51c.78.27,1.55.54,2.32.78s1.6.48,2.41.66,1.62.34,2.43.46c.57.07,1.14.12,1.72.16l0-.07c-.14-.24-.28-.48-.44-.7a10.94,10.94,0,0,0-1-1.2c-.37-.1-.74-.21-1.1-.33a39.32,39.32,0,0,1-4.45-1.72,2.65,2.65,0,0,1-.29.72.67.67,0,0,1-.32.3.77.77,0,0,1-.44,0l-.54-.11a5.07,5.07,0,0,0-1,0,1.9,1.9,0,0,1-.34,0l-.32,0a5.54,5.54,0,0,1-.58-.17,15.56,15.56,0,0,1-2.07-.94,38,38,0,0,1-3.81-2.37l-.2-.14c.17.18.33.37.5.56l.31.37a1.17,1.17,0,0,1,.22.51,1.15,1.15,0,0,1-.33,1l-.35.36a1.23,1.23,0,0,1-.52.27,1.31,1.31,0,0,1-.59,0l-.47-.15-.92-.32c-.62-.22-1.23-.45-1.83-.68-1.22-.46-2.43-.94-3.62-1.47-.59-.27-1.18-.54-1.75-.86a8.3,8.3,0,0,1-1.2-.75,1.3,1.3,0,0,1-.09.4,2.5,2.5,0,0,1-.38.62,3.85,3.85,0,0,1-1.06.86,3.32,3.32,0,0,1-.67.25,1.47,1.47,0,0,1-.85,0,1.3,1.3,0,0,1-.4-.25l-.2-.18L72.22,68c-1-.78-2-1.56-3-2.39,0,.12.1.23.14.35a7.73,7.73,0,0,1,.45,2.6h.58a12.56,12.56,0,0,1,2.35.23,6.56,6.56,0,0,0,2.26.14,6.75,6.75,0,0,1,2.39.28A9.42,9.42,0,0,1,81.18,72l.25.29,1.5.12a21.49,21.49,0,0,0,2.26.07,18.45,18.45,0,0,0,2.24-.19,16.31,16.31,0,0,0,2.18-.48l.29-.08.17.22a3.41,3.41,0,0,0,2.24,1.24,3.79,3.79,0,0,0,1.38-.07,2.92,2.92,0,0,0,1.24-.6l-.06,0,.08,0Z"/><path d="M64.42,67.64a8.83,8.83,0,0,1,.73.62c.22.2.41.39.67.6.72-.13,1.45-.21,2.19-.27q.81,0,1.62-.06a17.07,17.07,0,0,0-.95-2.32,25,25,0,0,0-1.5-2.47c-.54-.8-1.14-1.56-1.74-2.33l-.14-.16a1.08,1.08,0,0,1-.27.58l-.1.12a6,6,0,0,1-1,.81,3.82,3.82,0,0,1-1.16.58,2,2,0,0,1-.37.06,1.39,1.39,0,0,1-.37,0c-.2,0-.4-.07-.59-.12-.38-.09-.77-.19-1.15-.31a12.12,12.12,0,0,1-2.15-1l-.08,0a.64.64,0,0,1,.08.14,5.19,5.19,0,0,1,.59,2.14c0,.19,0,.37,0,.56a4.86,4.86,0,0,1-.1.55,1.84,1.84,0,0,1-.28.64,11.17,11.17,0,0,1,3.09.72,1.76,1.76,0,0,1,.43.25.78.78,0,0,1,.24.24.71.71,0,0,1,.12.51,1.27,1.27,0,0,1-.28.56,2.57,2.57,0,0,1-.33.33,7.45,7.45,0,0,1-.94.68l.52-.09a7.6,7.6,0,0,1,1.17-.11,3.67,3.67,0,0,1,1.28.13,1,1,0,0,1,.25.13A7.09,7.09,0,0,1,65.22,69a1.85,1.85,0,0,1-.42-.11,3.44,3.44,0,0,1-.92-.51,3.88,3.88,0,0,1-.73-.73,2.94,2.94,0,0,1-.51-.94,3.89,3.89,0,0,1,1,.42A6.71,6.71,0,0,1,64.42,67.64Z"/><path d="M66.45,60.17c-.62-.34-1.29-.56-1.92-.86l-.88-.39.56.58.07.08a13.49,13.49,0,0,1,1.66,1.36,15.88,15.88,0,0,1,2,2.29A13.51,13.51,0,0,1,69,65.12a29,29,0,0,1,3.76,2.13c.17.12.34.23.51.37a2.19,2.19,0,0,1,.25.2c0,.05,0,0,.07.05l0,0a1.15,1.15,0,0,0,.8-.13,2.84,2.84,0,0,0,.86-.6,1.54,1.54,0,0,0,.28-.38.48.48,0,0,0,0-.17,2.08,2.08,0,0,0,0-.25,6.35,6.35,0,0,0-.74-2.14c-.19-.36-.39-.72-.6-1.07-.36-.33-.73-.65-1.11-.95-.61-.48-1.2-1-1.84-1.42-1.23-.86-2.53-1.61-3.82-2.39a1.87,1.87,0,0,1-.2.29,1.42,1.42,0,0,1-.45.3,1.78,1.78,0,0,1-.45.09c-.23,0-.46,0-.69,0,.35.19.69.4,1,.62a9.44,9.44,0,0,1,1.69,1.41A5.89,5.89,0,0,1,69.58,63l-.06,0A7.33,7.33,0,0,0,66.45,60.17Z"/><path d="M48.73,53.94q-.16.29-.3.57l-.14.3a2.27,2.27,0,0,1-.19.34,3.44,3.44,0,0,1-1,1l-.15.54c0,.19-.06.37-.06.56a5.25,5.25,0,0,0,0,.56A5.94,5.94,0,0,0,47.64,60a7.91,7.91,0,0,0,1.58,1.89,8,8,0,0,0,2,1.33,9.24,9.24,0,0,1,2.15.38,8.58,8.58,0,0,1,2.39,1.06c.09.06.18.14.28.22l.07,0a.67.67,0,0,1,.19.65.7.7,0,0,1-.23.35,15.26,15.26,0,0,1,2.14.09h0a3.81,3.81,0,0,0,0-1.68,7,7,0,0,0-.67-1.9,5.58,5.58,0,0,0-1.18-1.59,4.52,4.52,0,0,0-1.77-1,3.11,3.11,0,0,1,2.09.58,4.36,4.36,0,0,1,.93.89l.72.29a18.52,18.52,0,0,0,2.16.66,10,10,0,0,0,1.09.22l.56.08h.19l.2,0a4.28,4.28,0,0,0,1.68-1.16l.08-.09.06-.07a.19.19,0,0,0,0-.08.12.12,0,0,0,0-.08.08.08,0,0,0,0,0l0,0,0,0-.77-.86-1.51-1.74c-1-1.14-2-2.34-3.07-3.43a12.51,12.51,0,0,1,1.86,1.39c.59.5,1.16,1,1.71,1.56l.31.31a10.33,10.33,0,0,0,2.07.17,9.48,9.48,0,0,0,1.33-.09c.23-.05.29-.06.37-.15a.72.72,0,0,0,.13-.39.6.6,0,0,0,0-.23.36.36,0,0,0,0-.11s0,0,0,0a4.17,4.17,0,0,0-.42-.45c-.31-.32-.67-.62-1-.93a23.73,23.73,0,0,0-2.22-1.71,7.67,7.67,0,0,1,2.63,1.16,10.55,10.55,0,0,1,1.17.85,7.56,7.56,0,0,1,3.39.93,6.42,6.42,0,0,1,.65.41,8.93,8.93,0,0,1,2.42.12,12.66,12.66,0,0,1,2.68.85,18.4,18.4,0,0,1,2.52,1.24,7.14,7.14,0,0,1,2.14,1.8l-.06,0a7,7,0,0,0-2.24-1.55,18,18,0,0,0-2.54-1c-.87-.28-1.77-.46-2.65-.7-.61-.17-1.24-.32-1.87-.47a3.16,3.16,0,0,1,.59.62,3.81,3.81,0,0,1,.72,1.68c.41.48.8,1,1.19,1.48.94.22,1.87.48,2.79.77s2.07.66,3.09,1l1.54.52c.5.18,1,.35,1.5.48l.18,0s.06,0,.1,0a2.3,2.3,0,0,0,.32,0,1.91,1.91,0,0,0,.59-.29,3,3,0,0,0,.82-1A3.47,3.47,0,0,0,84.14,62a11.74,11.74,0,0,0-1-1.12,23.15,23.15,0,0,0-2.35-1.95c-.83-.61-1.69-1.18-2.57-1.71-.45-.26-.9-.51-1.36-.74a8,8,0,0,0-1.22-.5,2.6,2.6,0,0,1,.33.79,4.81,4.81,0,0,0-1.19-1.11,9.58,9.58,0,0,0-1.38-.81,11.69,11.69,0,0,0-1.47-.61A4,4,0,0,0,70.5,54l-.29,0-.14-.22a3.36,3.36,0,0,0-.65-.76,4.2,4.2,0,0,0-.89-.56,7.94,7.94,0,0,0-1-.43l-1.09-.38a7.26,7.26,0,0,1,2.35.23,4,4,0,0,1,1.12.53,3.35,3.35,0,0,1,.76.7,3.94,3.94,0,0,1,1.56.26,7.89,7.89,0,0,1,1.57.77,7.07,7.07,0,0,1,1.33,1.11,3.59,3.59,0,0,1,.44.57,6.67,6.67,0,0,1,1.39.46c.48.2.94.43,1.4.67s1.19.65,1.76,1a12,12,0,0,1,2.86.34,15.23,15.23,0,0,1,3,1.1c1,.45,1.91.95,2.85,1.46s1.84,1,2.75,1.6l.2.13v.2a3.14,3.14,0,0,1-.19,1.12,3.22,3.22,0,0,1-.23.5,1.15,1.15,0,0,1-.08.14,1.29,1.29,0,0,1-.16.17l-.06,0a5.54,5.54,0,0,1,.53.3c.51.35.93.85,1.33,1.15a3.15,3.15,0,0,0,1.48.52c.59.11,1.17.27,1.74.42l1.69.49c.56.18,1.12.34,1.67.5a5.17,5.17,0,0,0,.79.15c.12,0,.15,0,.21,0a.49.49,0,0,0,.14-.27,2.18,2.18,0,0,0,0-.81,2.54,2.54,0,0,0,0-.29c-.3-.26-.61-.5-.92-.74a46.32,46.32,0,0,0-3.95-2.67,25.55,25.55,0,0,0-4.19-2.15l-.07,0-.06,0a21.23,21.23,0,0,0-4-2.55c-1.42-.73-2.88-1.39-4.36-2l0,0,0,0a31.11,31.11,0,0,0-6.94-2.84c-1.21-.41-2.41-.87-3.59-1.37-.59-.26-1.15-.51-1.74-.72A17.6,17.6,0,0,0,69,51.17a32.51,32.51,0,0,0-7.5-.79c-1.26,0-2.53.06-3.79.18-.63.06-1.26.14-1.88.25q-.47.07-.93.18l-.46.1-.23.07h0s0,0,0,0h0a3.68,3.68,0,0,1-.57.15l-.82.22a13,13,0,0,1-1.65.32,4.74,4.74,0,0,0-1.57,1.1A5.53,5.53,0,0,0,48.73,53.94Zm10.63-3.43a7.57,7.57,0,0,1,3,.27,14.15,14.15,0,0,1,2.8,1.2,23.3,23.3,0,0,1,2.57,1.58A10.06,10.06,0,0,1,70,55.62l-.06,0a9.83,9.83,0,0,0-2.33-1.82A22.73,22.73,0,0,0,65,52.46c-.9-.4-1.84-.7-2.76-1a23.73,23.73,0,0,0-2.83-.84Z"/><path d="M65.19,102.69a1.54,1.54,0,0,0,.73-.59,1.57,1.57,0,0,0,.18-.42,3.58,3.58,0,0,0,.06-.51q0-.56.12-1.11c.09-.74.21-1.47.34-2.19.26-1.46.56-2.9.84-4.34.14-.73.28-1.45.4-2.18,0-.36.11-.72.13-1.09a1,1,0,0,1,.21-.53,1.73,1.73,0,0,0,.1-.24s0-.07,0-.1c-.12-.34-.25-.68-.38-1v0a10.86,10.86,0,0,0,0-1.4l0-.69V85.9a.22.22,0,0,1,0-.08h0l-.14-.12a5.86,5.86,0,0,0-.48-.37L66.73,85l-.36-.24-.09.17a3,3,0,0,0-.18.45,9.63,9.63,0,0,0-.25,1,7.68,7.68,0,0,0-.11,2,2.83,2.83,0,0,0,.21.9s.08.18.11.28,0,.21,0,.3a5.09,5.09,0,0,1,0,.55,15.11,15.11,0,0,1-.32,2c-.3,1.35-.68,2.66-1.08,4s-.81,2.6-1.26,3.89l-.09.26h-.29c-1.45,0-2.92.06-4.37.17-.73.06-1.45.11-2.17.2l-.77.12a2.92,2.92,0,0,1,.71.57,2,2,0,0,1,.49,1.3v0l.22,0c.37,0,.74-.1,1.13-.13a6,6,0,0,1,1.19,0,2.05,2.05,0,0,1,.64.2,1.28,1.28,0,0,1,.32.24,1.18,1.18,0,0,1,.23.35,1.05,1.05,0,0,1,.06.24l.26,0,1.08-.17a18,18,0,0,0,2.11-.49A7.77,7.77,0,0,0,65.19,102.69Z"/><path d="M85.32,78.5l.34-.12.14,0s0,0,0,0a6.26,6.26,0,0,0,.5-1.07,3.38,3.38,0,0,0-.31-.35,3.32,3.32,0,0,0-.49-.41,5.45,5.45,0,0,0-1.12-.65A19.06,19.06,0,0,0,81.82,75a30,30,0,0,0-5.42-.84l-1.1-.06.87-.66a6.65,6.65,0,0,1,2.27-1.14A10.28,10.28,0,0,1,80.25,72a8.07,8.07,0,0,0-3.07-2.27A5.87,5.87,0,0,0,75,69.37c-.39,0-.78,0-1.18,0a4.25,4.25,0,0,1-.61-.08,4.29,4.29,0,0,1-.57-.15,13.17,13.17,0,0,0-2.27-.28l-.58,0v.1l0-.1c-.57,0-1.14,0-1.71,0a22.5,22.5,0,0,0-2.31.2,10.23,10.23,0,0,0-1.66.37l.11.12a1.28,1.28,0,0,1,.09.22,1.09,1.09,0,0,1,0,.18.54.54,0,0,1,0,.15l0,.12a2.13,2.13,0,0,1-.37.6A6.49,6.49,0,0,1,62,72.31a2.83,2.83,0,0,1-1.13.36,8.87,8.87,0,0,0,1.65-1.52,10.39,10.39,0,0,0,.67-.85,1.82,1.82,0,0,0,.15-.27,4.82,4.82,0,0,0-.91-.11c-.37,0-.74,0-1.11,0l-1.67,0c-.31.13-.61.25-.92.35a4.07,4.07,0,0,1-1.65.22,6.44,6.44,0,0,0,1.48-.62c.46-.25.91-.54,1.35-.84a9,9,0,0,0,1.21-1,1.71,1.71,0,0,0,.22-.25.42.42,0,0,0,.06-.08,1.56,1.56,0,0,0-.26-.13A7.81,7.81,0,0,0,59.66,67c-.51-.15-1-.26-1.56-.39l-2.47-.54-.08,0a9,9,0,0,1-1.24.42,5.73,5.73,0,0,1-2.57.12,13.78,13.78,0,0,0,2.35-.78c.37-.17.74-.33,1.1-.52l.07,0h0a17.77,17.77,0,0,0-2.12-1.15l-2.24-1a8.52,8.52,0,0,1-2-1,8.67,8.67,0,0,1-1.89-1.84,4.38,4.38,0,0,1-1-2.53,4.29,4.29,0,0,1,.08-.72,3.24,3.24,0,0,1,.19-.52l-.5.25A23.89,23.89,0,0,0,43.4,58a8.22,8.22,0,0,0-1.95,1.64A10.1,10.1,0,0,0,40,61.75a7.56,7.56,0,0,0-.73,4.39c.47,1,1,1.89,1.54,2.79A17.17,17.17,0,0,0,44.21,73a11.08,11.08,0,0,0,1,.79c.37.23.75.46,1.15.68l2.37,1.33c1.57.89,3.15,1.77,4.75,2.59a33.79,33.79,0,0,0,4.92,2.12c.83.26,1.72.46,2.6.69a16.34,16.34,0,0,1,2.65.86,20.54,20.54,0,0,1,2.38,1.43l1.13.76.57.4c.15.11.28.21.44.35l1.83,0c.31,0,.64,0,.93,0a.05.05,0,0,1,0,0c.07-.16.15-.31.23-.47A9.44,9.44,0,0,1,72.4,82.8a3.89,3.89,0,0,1,.42-.38,1.89,1.89,0,0,1,.28-.17c.09,0,.24-.08.3-.1l.94-.27c1.26-.37,2.51-.75,3.76-1.17a28.56,28.56,0,0,0,3.63-1.44l.08,0h.08l.7.07c.22,0,.45-.09.68-.16.46-.12.92-.27,1.37-.41ZM73.13,75a9.51,9.51,0,0,1-1.58.36,8.7,8.7,0,0,1-1.45.08,3.83,3.83,0,0,1-1.51.72,8.49,8.49,0,0,1-1.72.2c-.56,0-1.12,0-1.67,0a6,6,0,0,0-1.64.08,4.19,4.19,0,0,1,1.61-.53c.55-.09,1.1-.16,1.64-.23a12.29,12.29,0,0,0,1.56-.32,3.07,3.07,0,0,0,1.28-.67l.14-.14.19,0a9.16,9.16,0,0,0,1.48,0c.5,0,1-.12,1.51-.2a21.85,21.85,0,0,0,3-.76,6.89,6.89,0,0,1-1.35.83A9,9,0,0,1,73.13,75Z"/><path d="M72.35,100.19l-.25-5.1L72,92.53A18.13,18.13,0,0,1,72.16,90a6.48,6.48,0,0,0,0-1.24,1.54,1.54,0,0,0-.14-.57l-.24-.59-.49-1.19c-.06-.18-.15-.36-.23-.54h0c-.36,0-.68,0-1,0l-1.84,0v.05a2.19,2.19,0,0,1,0,.36c0,.24,0,.47,0,.71,0,.47-.08.93-.11,1.38.25.57.48,1.15.68,1.73a7.29,7.29,0,0,1,.44,1.87l.06,3.74.1,7.5v.2l-.18.09a31.18,31.18,0,0,1-4.87,1.69c-.42.11-.84.2-1.26.29l-.1,0a2.78,2.78,0,0,1,.92.73,1.9,1.9,0,0,1,.37.72,1.4,1.4,0,0,1,.06.41v.08h0l.64-.09a9.54,9.54,0,0,1,1.33-.11,3.75,3.75,0,0,1,.73.07,1.74,1.74,0,0,1,.79.38,1.51,1.51,0,0,1,.25.37,38.53,38.53,0,0,0,3.45-3.32l.42-.46.2-.23a1.1,1.1,0,0,0,.14-.21,1.25,1.25,0,0,0,.15-.46,1,1,0,0,0,0-.25v-.32Z"/><path d="M105.82,82.13c-.26-.33-.55-.64-.84-.95-.57-.62-1.17-1.24-1.76-1.85l-.9-.93-.44-.48-.11-.12,0-.06,0,0a.34.34,0,0,1-.06-.37.37.37,0,0,1,.3-.2.35.35,0,0,1,.22.08h0l0,0,.06,0,.11.08a1.59,1.59,0,0,0,1.05.19,2.44,2.44,0,0,0,.91-.39l-.32-.47-.46-.62-.53-.72c-.33,0-.67,0-1-.07a15.63,15.63,0,0,1-2.54-.5,15,15,0,0,1-2.41-.94,13,13,0,0,1-2.11-1.3,2.6,2.6,0,0,1-1.14.93,3.74,3.74,0,0,1-1.52.33,4,4,0,0,1-1.56-.33,3.61,3.61,0,0,1-1.1-.76,12.36,12.36,0,0,1-2.07.46,11.73,11.73,0,0,1-2.37.09,14,14,0,0,1-3.75-.75l-.48,0a11,11,0,0,0-2.3.43,7.12,7.12,0,0,0-1,.41,22.46,22.46,0,0,1,4.39.71,15.22,15.22,0,0,1,2.7,1,5.72,5.72,0,0,1,1.26.8,5.29,5.29,0,0,1,.54.52A3.29,3.29,0,0,1,87,77l.08.15L87,77.3a7.19,7.19,0,0,1-.75,1.34.56.56,0,0,1-.29.21l-.16,0-.36.09-.71.19c-.44.1-.88.17-1.33.25a37.51,37.51,0,0,0,5.58.47c1.21,0,2.4.08,3.59.07a9.87,9.87,0,0,0,3.32-.53,14.55,14.55,0,0,1-1.83-1.27,23.92,23.92,0,0,0,3.07,1.46c1,.42,2.12.79,3.19,1.14,1.84.58,3.71,1.08,5.59,1.52C105.9,82.23,105.86,82.17,105.82,82.13Z"/><path d="M39.36,61.46a9,9,0,0,1,1.46-2.39A8.88,8.88,0,0,1,43,57.21a26.2,26.2,0,0,1,2.48-1.16,5.46,5.46,0,0,0,2.11-1.31l.15-.23.17-.3a5,5,0,0,1,.38-.59,6.3,6.3,0,0,1,1-1,4.61,4.61,0,0,1,1.27-.73,2.65,2.65,0,0,1-1.19-.22,2.92,2.92,0,0,1-.74-.5,2.66,2.66,0,0,1-.58-.71,3.41,3.41,0,0,1-.31-1,7.29,7.29,0,0,1-1.34-2.14,11.75,11.75,0,0,1-.46-1.42c-.11-.48-.18-1-.28-1.42a13.07,13.07,0,0,0-1-2.66,11.74,11.74,0,0,0-1.35-2.13,2.33,2.33,0,0,1-.32.31,3.77,3.77,0,0,1-.59.32,1.34,1.34,0,0,1-.38.11.89.89,0,0,1-.4-.06,2.49,2.49,0,0,1-.55-.33h0c-.2.87-.41,1.74-.62,2.61-.19.7-.38,1.41-.59,2.12A18.37,18.37,0,0,1,39,46.85a29.33,29.33,0,0,0-1.55,4A14.43,14.43,0,0,0,37,53c-.1.72-.17,1.44-.23,2.16a28.66,28.66,0,0,0-.08,4,35,35,0,0,0,2.23,6.33,6.21,6.21,0,0,1-.14-1.29A7.22,7.22,0,0,1,39.36,61.46Z"/><path d="M28,32.44,31,31.37l2.66-.91a2,2,0,0,1-.45-.32,3.89,3.89,0,0,1-1-1.32,4.95,4.95,0,0,1-.45-2.59c0,.09-.1.14-.14.23a2.92,2.92,0,0,0-.17.36,2.43,2.43,0,0,1-.39.79,3.32,3.32,0,0,1-.67.58l-.66.52a23.47,23.47,0,0,1-2.77,2,11.59,11.59,0,0,1-1.55.75,14.72,14.72,0,0,0-1.48.76,7.06,7.06,0,0,0-1.3,1,2.55,2.55,0,0,0-.46.59,1.8,1.8,0,0,0-.14.43l.09,0a26.93,26.93,0,0,0,2.76-.77C25.93,33.15,26.94,32.81,28,32.44Z"/><path d="M37.18,32.71h.24c.55,0,1.89-.2,2.81-.3a1.41,1.41,0,0,1,.31.14,1.68,1.68,0,0,1,.28.24,3.08,3.08,0,0,1,.61,1.05,5.18,5.18,0,0,1,.14.53,7,7,0,0,1,.88.37.51.51,0,0,0,.24,0c.07,0,.2-.05.31-.06a.91.91,0,0,1,.36,0,.6.6,0,0,1,.31.25,1.47,1.47,0,0,1,.18.68c0,.21,0,.41,0,.62,0,.42,0,.84-.09,1.24l-.15,1.22a1.8,1.8,0,0,1-.19.7c0,.06-.09.1-.13.16A7.2,7.2,0,0,1,45,41.58a9.73,9.73,0,0,1,1.18,2.75c.12.51.16,1,.26,1.44a13.41,13.41,0,0,0,.34,1.39,11.61,11.61,0,0,0,.79,2c0-.16,0-.32,0-.48,0-.58,0-1.14,0-1.71q.06-1.7.18-3.39c.08-1.13.21-2.27.37-3.39s.3-2.23.41-3.34a28.82,28.82,0,0,0,.18-3.33,20.46,20.46,0,0,0-.29-3.31c-.17-1.09-.42-2.18-.69-3.26s-.57-2.19-.94-3.21a5.52,5.52,0,0,0-1.68-2.63,5.39,5.39,0,0,0-1.42-.71c-.25-.09-.56-.23-.76-.28a2.93,2.93,0,0,0-.67-.1,4.5,4.5,0,0,1-1.24,1.06c-.29-.05-.42-.06-.68.48-.38.82.62,3.07.16,3.79A6.47,6.47,0,0,0,39.63,28c-.07.85-.42,3-.07,3.49l.35.51s-2.2.77-2.85.5a5.81,5.81,0,0,0-1.17-.35,2.38,2.38,0,0,0-.15-1.67c-.42-.61-.54-.5-1.32-1A2.72,2.72,0,0,1,33,27.63c-.16-.81-.32-2.05-.32-2.05.23-.86.12-1.83.74-2s2-1.48,2.44-1.67A20.42,20.42,0,0,1,38.49,21c.27,0,2.63-.66,2.48-.54s.23.48,1.22-.43a15.05,15.05,0,0,0-3.24.41l-1.64.36-.42.1-.41.08a3.24,3.24,0,0,0-.72.32c-.47.27-.93.6-1.39.92-.23.17-.45.33-.69.49l-.37.24a1.14,1.14,0,0,0-.31.23,4,4,0,0,0-.68,1.47l-.24.82a2.86,2.86,0,0,1-.15.41,5.87,5.87,0,0,0,.32,1.33,8.1,8.1,0,0,0,.56,1.36,5.19,5.19,0,0,0,.82,1.13,2.87,2.87,0,0,0,1.19.67l.08,0,0,0a2.13,2.13,0,0,1,.37.46,1,1,0,0,1,.15.59.68.68,0,0,1-.32.53.91.91,0,0,1-.53.13c.34-.09.62-.38.57-.66a.91.91,0,0,0-.19-.38,2,2,0,0,0-.3-.28,2.52,2.52,0,0,1-.92-.28,24,24,0,0,1-2.56,1.34c-1,.46-2,.86-3,1.23a31.14,31.14,0,0,1-3.13.92,13.41,13.41,0,0,1-2.45.36l.61.06a12.3,12.3,0,0,0,1.48,0c.5-.05,1-.11,1.48-.19s1-.22,1.47-.34c1-.24,2-.51,2.94-.78s2-.54,2.91-.86h0l1.42-.11-1.39.24-.29.11a4.73,4.73,0,0,0,2,.26c.36,0,.72-.1,1.1-.11a2.37,2.37,0,0,1,.59.06Z"/><path d="M35.1,25.68s.91.9,1.72.7S38.07,25,38.07,25s-.91-.89-1.74-.7S35.1,25.68,35.1,25.68Z"/></svg>