<svg id="Layer_1" data-name="Layer 1" xmlns="http://www.w3.org/2000/svg" width="128" height="128" viewBox="0 0 128 128"><title>Openbill stork</title><path d="M25.35,127.72,20.59,111.5H23.5l3.37,12,3.26-12H33l-4.77,16.22Z"/><path d="M34.54,111.5h2.68v8.79a20.79,20.79,0,0,0,.1,2.66,2.69,2.69,0,0,0,.85,1.66,3,3,0,0,0,3.29.17,2,2,0,0,0,.8-1.15,14.31,14.31,0,0,0,.22-3.16v-9h2.67V120a22.82,22.82,0,0,1-.34,4.72,4,4,0,0,1-1.58,2.36A5.3,5.3,0,0,1,40,128a6,6,0,0,1-3.25-.75,4.24,4.24,0,0,1-1.69-2.1,15.84,15.84,0,0,1-.53-5Z"/><path d="M48.28,127.72V111.63H51V125h6.68v2.74Z"/><path d="M61.42,127.72V114.24h-4V111.5H68v2.74H64.1v13.48Z"/><path d="M70,111.5h2.68v8.79a20.79,20.79,0,0,0,.1,2.66,2.69,2.69,0,0,0,.85,1.66,2.57,2.57,0,0,0,1.77.59,2.52,2.52,0,0,0,1.51-.42,2,2,0,0,0,.81-1.15,14.31,14.31,0,0,0,.22-3.16v-9h2.67V120a22.82,22.82,0,0,1-.34,4.72,4,4,0,0,1-1.58,2.36,5.3,5.3,0,0,1-3.22.9,6,6,0,0,1-3.25-.75,4.24,4.24,0,0,1-1.69-2.1,15.84,15.84,0,0,1-.53-5Z"/><path d="M83.65,127.72V111.5h5.66a7.93,7.93,0,0,1,3.1.44,3.4,3.4,0,0,1,1.52,1.51,5.25,5.25,0,0,1,.6,2.59,4.79,4.79,0,0,1-.91,3.06,4.06,4.06,0,0,1-2.6,1.46,6.91,6.91,0,0,1,1.43,1.36A18.75,18.75,0,0,1,94,124.56l1.61,3.16H92.4l-1.94-3.53A23.45,23.45,0,0,0,89,121.8a2.12,2.12,0,0,0-.8-.67,3.69,3.69,0,0,0-1.35-.18h-.55v6.77Zm2.68-9.36h2a9.9,9.9,0,0,0,2.33-.16,1.45,1.45,0,0,0,.8-.65,2.32,2.32,0,0,0,.31-1.29,2.23,2.23,0,0,0-.31-1.25,1.5,1.5,0,0,0-.84-.64,10.39,10.39,0,0,0-2.18-.13h-2.1Z"/><path d="M97.29,127.72V111.5h9.87v2.74H100v3.6h6.68v2.73H100V125h7.44v2.74Z"/><path d="M2.8,14.47,0,.24H2.42L4.17,10,6.3.24H9.1l2.05,9.94L13,.24h2.37L12.49,14.47H10L7.65,3.83,5.34,14.47Z"/><path d="M16.72,14.47V.24h2.35v5.6H23.7V.24H26V14.47H23.7V8.25H19.07v6.22Z"/><path d="M28.6,14.47V.24H31V14.47Z"/><path d="M36,14.47V2.65H32.56V.24h9.27V2.65H38.37V14.47Z"/><path d="M43.56,14.47V.24h8.65V2.65h-6.3V5.8h5.86V8.2H45.91v3.86h6.52v2.41Z"/><path d="M59.35.24H64a7.32,7.32,0,0,1,2.69.35A3,3,0,0,1,68,1.82a3.86,3.86,0,0,1,.53,2,3.72,3.72,0,0,1-.46,1.86,3,3,0,0,1-1.18,1.23,3.09,3.09,0,0,1,1.62,1.26,3.87,3.87,0,0,1,.59,2.17A4.48,4.48,0,0,1,68.37,13a3.1,3.1,0,0,1-1.77,1.32,17.74,17.74,0,0,1-3.29.18h-4Zm2.34,2.37V5.9h1.56c.93,0,1.5,0,1.72-.05a1.42,1.42,0,0,0,.94-.51,1.68,1.68,0,0,0,.34-1.12,1.76,1.76,0,0,0-.27-1,1.13,1.13,0,0,0-.67-.49,13.51,13.51,0,0,0-2.26-.1Zm0,5.66v3.79h2.19a6.86,6.86,0,0,0,1.85-.15,1.37,1.37,0,0,0,.68-.59,2,2,0,0,0,.28-1.12,2,2,0,0,0-.3-1.14,1.44,1.44,0,0,0-.78-.62,7.23,7.23,0,0,0-2-.17Z"/><path d="M81.83,14.47H79.28l-1-3.23H73.59l-1,3.23h-2.5L74.66.24h2.49ZM77.5,8.84,75.89,3.56,74.31,8.84Z"/><path d="M90.73,9.24l2.28.88a6.5,6.5,0,0,1-1.77,3.49,4.47,4.47,0,0,1-3.06,1.1A4.54,4.54,0,0,1,84.48,13a8.51,8.51,0,0,1-1.63-5.47,8.9,8.9,0,0,1,1.64-5.69A4.67,4.67,0,0,1,88.33,0a4.43,4.43,0,0,1,3.28,1.34A5.74,5.74,0,0,1,93,4.16l-2.33.68a3.11,3.11,0,0,0-.89-1.77,2.22,2.22,0,0,0-1.57-.62,2.51,2.51,0,0,0-2.11,1.13,6.53,6.53,0,0,0-.81,3.72,6.91,6.91,0,0,0,.79,3.82,2.41,2.41,0,0,0,2.07,1.13,2.14,2.14,0,0,0,1.61-.72A4.61,4.61,0,0,0,90.73,9.24Z"/><path d="M95.25,14.47V.24h2.34V6.57L102.36.24h3.18l-4.4,5.55,4.63,8.68h-3L99.5,7.78l-1.91,2.39v4.3Z"/><path d="M107.18,14.47V.24h8.66V2.65h-6.31V5.8h5.86V8.2h-5.86v3.86h6.52v2.41Z"/><path d="M118.23.24h4.29A6.22,6.22,0,0,1,125,.61a4.19,4.19,0,0,1,1.53,1.22,6.42,6.42,0,0,1,1.09,2.24A12.37,12.37,0,0,1,128,7.5a11,11,0,0,1-.42,3.21,6.43,6.43,0,0,1-1,2.15,4.09,4.09,0,0,1-1.55,1.2,5.72,5.72,0,0,1-2.33.41h-4.42Zm2.35,2.41v9.41h1.76a4.69,4.69,0,0,0,1.65-.21,2,2,0,0,0,.83-.65,3.6,3.6,0,0,0,.54-1.36,11.54,11.54,0,0,0,.21-2.45,11.51,11.51,0,0,0-.21-2.49,3.45,3.45,0,0,0-.68-1.44,2.17,2.17,0,0,0-1.12-.69,9.78,9.78,0,0,0-1.91-.12Z"/><path d="M74.63,106.76s0,0,0,0A18.15,18.15,0,0,1,72,106c-.57-.22-1.15-.44-1.71-.68a10.75,10.75,0,0,1-1.67-.82A4,4,0,0,1,67.23,103a7.1,7.1,0,0,1-.66-1.8,7.91,7.91,0,0,1-.14-1.88,8.42,8.42,0,0,1,.13-1.22,6.27,6.27,0,0,1-1.43,0l-.72,0c.15.41.27.83.39,1.25s.28,1.11.39,1.67.21,1.14.27,1.72a8.86,8.86,0,0,1,0,1.78l0,.21-.18,0a12.75,12.75,0,0,1-1.48.11,5.63,5.63,0,0,0-1.39.18.43.43,0,0,0-.22.15.9.9,0,0,0-.06.28,5.43,5.43,0,0,0,0,.69c.05.3.1.59.17.89a4.28,4.28,0,0,1,1.26-.59,2.67,2.67,0,0,1,1-.07,2.55,2.55,0,0,1,.51.11l.41.13,1.64.52,1.53.53.74-.14c-.66-.52-1.31-1.06-1.94-1.63a0,0,0,0,1,0-.06,0,0,0,0,1,.06,0q1.53.75,3,1.62l.27.15c1.12.08,2.22.2,3.34.34.25-.41.51-.82.79-1.21l-.18-.05Z"/><path d="M91.5,58.26a5.44,5.44,0,0,0-2-.41A6.18,6.18,0,0,1,90,58.94a8.74,8.74,0,0,1,.28,1.24c.06.4.11.8.16,1.2a15.62,15.62,0,0,1,.07,2.47,7.76,7.76,0,0,1-1.85,4.6c-1.08,1.21-2.16,2.37-3.15,3.62-.5.62-1,1.26-1.41,1.91a12.45,12.45,0,0,0-1.14,2c-.09.16-.11.32-.19.49a6,6,0,0,1-.28.63,11.68,11.68,0,0,1-.66,1.09c-.46.67-1,1.32-1.47,1.94a36.66,36.66,0,0,1-3.28,3.54c-.37.35-.75.69-1.14,1a3.07,3.07,0,0,0,.68,0A4.48,4.48,0,0,0,78,84.12l.06,0h.16a4,4,0,0,0,1.9-.67,12,12,0,0,0,1.73-1.34c.54-.49,1.07-1,1.58-1.57.26-.28.49-.54.75-.84s.52-.59.8-.87q1.61-1.67,3.17-3.34c.53-.56,1.05-1.11,1.56-1.68.26-.28.5-.58.75-.87s.49-.58.71-.9a14.18,14.18,0,0,0,2.15-4A15.41,15.41,0,0,0,94,63.58a6.58,6.58,0,0,0-.92-4A3.93,3.93,0,0,0,91.5,58.26Z"/><path d="M72.8,103a14.57,14.57,0,0,1-1.77-.77,4.28,4.28,0,0,1-1.51-1.36,6.63,6.63,0,0,1-.76-1.86,7.25,7.25,0,0,1-.19-2c0-.06,0-.12,0-.18a.27.27,0,0,1-.09,0,2.09,2.09,0,0,1-.51.66,2.55,2.55,0,0,1-1,.48l-.08,0c.23,1,.41,2,.61,3a10.35,10.35,0,0,0,.42,1.66,3.78,3.78,0,0,0,.78,1.45l1.64-.24c.6-.09,1.2-.14,1.81-.23l.12,0,.18.13a6,6,0,0,1,.55.45,3.94,3.94,0,0,1,.47.52,4.87,4.87,0,0,1,.65,1l.19,0,.89.09a3.47,3.47,0,0,1,.37-.4,3.26,3.26,0,0,1,1.67.56c.18-.53.37-1.06.57-1.58a22.67,22.67,0,0,1-3.24-.84C74,103.5,73.4,103.27,72.8,103Z"/><path d="M72.34,86.39a5.72,5.72,0,0,0-.86.37,14.58,14.58,0,0,0-1.42.83c0,.14-.1.27-.14.42a10.71,10.71,0,0,0-.33,1.65l-.21,1.72c-.13,1.15-.27,2.31-.43,3.47l0,.28h0s0,0,0,0c.07.26.12.51.18.76a5.73,5.73,0,0,0,.55-1.14l.51-1.29A4.19,4.19,0,0,1,71,92.18L71,92.1h0a1.31,1.31,0,0,0,.66-.45,2.83,2.83,0,0,0,.45-.77,12.75,12.75,0,0,0,.42-1.75,8.56,8.56,0,0,1,.23-.87c.08-.29.16-.58.26-.87l.24-.73-.11.06-.74.41,0-.75A.33.33,0,0,0,72.34,86.39Z"/><path d="M63.28,97.27a1.65,1.65,0,0,1,.59-.08l.45,0,.85,0a5.45,5.45,0,0,0,1.59-.14,1.16,1.16,0,0,0,.9-.78c.13-.49.23-1.08.32-1.64l.53-3.44c.09-.57.18-1.15.29-1.72a11.25,11.25,0,0,1,.45-1.75,67.18,67.18,0,0,1,3-6.16c-.33.22-.66.44-1,.64a8.12,8.12,0,0,1-2.48,1.08,11.84,11.84,0,0,1-1.49.93c-.53.29-1.06.55-1.61.79a11.91,11.91,0,0,1-1.7.64,3.84,3.84,0,0,1-.93.18,1.61,1.61,0,0,1-.53,0,1.06,1.06,0,0,1-.31-.14q-2.91,2.07-5.83,4.11c-1.21.85-2.45,1.68-3.68,2.5-.15.54-.3,1.09-.42,1.63-.08.36-.15.72-.21,1.07a3.52,3.52,0,0,0,0,1l0,0,.1,0a1.55,1.55,0,0,0,.42-.22,5,5,0,0,0,.82-.66c.27-.24.52-.5.76-.76a6,6,0,0,0,.67-.79l1.52-2.28L55.43,94a6.15,6.15,0,0,0-.26,1.88,16.48,16.48,0,0,0,.15,2c.12,1,.3,1.94.39,2.93.4-.69.8-1.38,1.24-2.06.32-.49.64-1,1-1.47.18-.24.37-.48.57-.7a2.13,2.13,0,0,1,.77-.56l.22-.08,0,.24a17,17,0,0,0-.23,3.71,13.84,13.84,0,0,0,.19,1.83,6.4,6.4,0,0,0,.2.89,1,1,0,0,1,.06.16,19.39,19.39,0,0,1,1.1-2.64,9.54,9.54,0,0,1,1-1.54A3.46,3.46,0,0,1,63.28,97.27Z"/><path d="M19.25,91.17l.86-.13c.58-.62,1.18-1.23,1.78-1.83.72-.76,1.48-1.47,2.22-2.23s1.5-1.45,2.23-2.19c.38-.37.76-.72,1.13-1.09l1.1-1.12c1.44-1.52,2.84-3.08,4.14-4.72a44.46,44.46,0,0,0,3.38-4.71,7.88,7.88,0,0,1,.18-1.4c.07-.33.15-.64.24-1a22.61,22.61,0,0,1-1.89,2.46,35.94,35.94,0,0,1-3,2.9c-1.05.93-2.1,1.84-3.16,2.74l-1.29,1a.06.06,0,0,1,0,.08.48.48,0,0,1-.06.11l-.05.06-.11.12-.22.22-.45.43-.17.15-4.55,5.08c-.82.94-1.68,1.88-2.46,2.81a2.14,2.14,0,0,0-.53,1.45.92.92,0,0,0,.23.58A.55.55,0,0,0,19.25,91.17Z"/><path d="M39.66,87c2-1.87,3.85-3.79,5.77-5.69.5-.46,1-.94,1.45-1.42s1-1,1.46-1.41,1-1,1.45-1.43c.14-.13.28-.26.41-.4l-.41.13a6,6,0,0,1-2,.14,5.53,5.53,0,0,1-1.92-.51,3.31,3.31,0,0,1-.88-.59,1.88,1.88,0,0,1-.35-.43h0c-.54.9-1.1,1.79-1.7,2.65s-1.46,2-2.26,3a60.51,60.51,0,0,1-5.1,5.52c-1.79,1.75-3.64,3.45-5.58,5A52.76,52.76,0,0,1,25,95.27l.41.56s0,0,0,0a.71.71,0,0,0,.19.15,3,3,0,0,0,.74.29,6.66,6.66,0,0,0,.89.17,4.8,4.8,0,0,0,.83,0l.17,0,0,0c1.84-1.28,3.6-2.66,5.32-4.09C35.67,90.68,37.69,88.88,39.66,87Z"/><path d="M87.45,63.43a3.8,3.8,0,0,1,.24-.81A1.9,1.9,0,0,0,87.9,62a3.47,3.47,0,0,0,0-1.47,4.09,4.09,0,0,0-.57-1.33,3,3,0,0,0-.32-.45.45.45,0,0,0-.17-.1.47.47,0,0,0-.21,0,1.82,1.82,0,0,0-1,.47,5.33,5.33,0,0,1,.48,3.08,6.73,6.73,0,0,1-.29,1.51v0a2.56,2.56,0,0,0,.58.56,3.2,3.2,0,0,0,.55.33l.07,0h0a2.17,2.17,0,0,0,.19-.47C87.35,63.91,87.4,63.67,87.45,63.43Z"/><path d="M109.14,24.49a4.36,4.36,0,0,0-1.72-1.14,9.09,9.09,0,0,0-2-.56l-.16,0-.07-.09a2.49,2.49,0,0,0-.55-.46,3.71,3.71,0,0,0-.7-.31,8,8,0,0,0-1.49-.31h0a11.17,11.17,0,0,0,.33,1.81,4.38,4.38,0,0,0,.37.86,1.77,1.77,0,0,0,.21.32c.18,0,.36,0,.56.05l.66.14c.44.1.86.21,1.28.34a24.55,24.55,0,0,1,2.48.91l.32.15a2.91,2.91,0,0,1,.36.22,1.63,1.63,0,0,1,.52.65,2.06,2.06,0,0,1,.17.57,2.18,2.18,0,0,0,.28-1.13A3.45,3.45,0,0,0,109.14,24.49Z"/><path d="M87.11,28.75a3.16,3.16,0,0,1,.12-.37c.08-.18.19-.37.27-.55s.2-.35.29-.54.16-.36.24-.54c.13-.37.2-.8.37-1.18a1.89,1.89,0,0,1,.34-.51,2.68,2.68,0,0,1,.45-.44,2.51,2.51,0,0,1,1.07-.53v-.25a4.64,4.64,0,0,1,.38-2.28,3.19,3.19,0,0,1,.65-.76,7.28,7.28,0,0,0-.72.4,8,8,0,0,0-2.84,3,7.79,7.79,0,0,0-.64,4A4.1,4.1,0,0,0,87.11,28.75Z"/><path d="M84.65,52.77a10.09,10.09,0,0,0-.12-1.43,3.46,3.46,0,0,1-.46.67,3.89,3.89,0,0,1-1.07.8,1.62,1.62,0,0,1-1.34.12,8,8,0,0,1-2,.7l-.35,0c.24.18.48.36.71.55s.59.55.86.84a3,3,0,0,1,.76,1,2.3,2.3,0,0,1,.15.7,8.71,8.71,0,0,1,1.3.3,5,5,0,0,1,1.4.7c0-.11,0-.21.09-.32-.06-1.06,0-2,0-3C84.65,53.85,84.67,53.3,84.65,52.77Z"/><path d="M90.8,50.67c.27-.2.55-.38.83-.59.45-.33.89-.67,1.3-1-.52.29-1.07.53-1.62.77a13.64,13.64,0,0,1-1.4.49,5.53,5.53,0,0,1-1.5.2,5.43,5.43,0,0,1-2.59-.73,1.18,1.18,0,0,1-.56,0,2.78,2.78,0,0,1-.21.46l-.29.58-.16.33a3.23,3.23,0,0,1,.78,1.44,6,6,0,0,1,.19,1.78,10.16,10.16,0,0,1-.15,1.22,6.07,6.07,0,0,1,.43-.65,3.7,3.7,0,0,1,.44-.46c.12-.1.24-.22.37-.34A34.72,34.72,0,0,1,89.9,51.3C90.18,51.09,90.5,50.87,90.8,50.67Z"/><path d="M76.05,82.66c1.07-1.14,2.13-2.31,3.19-3.47.52-.58,1-1.17,1.51-1.78a10.87,10.87,0,0,0,.64-.92c.11-.16.15-.29.24-.43a4.77,4.77,0,0,1,.29-.6,11.66,11.66,0,0,1,1.52-2c.54-.61,1.1-1.17,1.65-1.75a30.18,30.18,0,0,0,3.07-3.64,8.12,8.12,0,0,0,1.09-4.31,22.16,22.16,0,0,0,0-2.3A19.35,19.35,0,0,0,89,59.21a13.9,13.9,0,0,0-1.89-4.1l-.28.18a2.5,2.5,0,0,0-.34.27,10.14,10.14,0,0,0-.7.75,10.47,10.47,0,0,0-1.08,1.58,3.86,3.86,0,0,1,.85,1,1.9,1.9,0,0,1,.23-.39,1.45,1.45,0,0,1,.74-.54,1.19,1.19,0,0,1,.53,0,1.12,1.12,0,0,1,.5.22,1.52,1.52,0,0,1,.52.79,6.86,6.86,0,0,1,.16,1.59c0,.51.11,1,.19,1.54a2.16,2.16,0,0,1,0,.87c0,.16,0,.42-.07.66a7.37,7.37,0,0,1-.08.78,1.88,1.88,0,0,1-.38.9l-.12.13-.18.1a.85.85,0,0,1-.4.1,1.28,1.28,0,0,1-.34-.07l-.25-.13a2.73,2.73,0,0,1-.63-.59,3.78,3.78,0,0,1-.26-.43c-.08.25-.18.5-.28.74a26.53,26.53,0,0,1-1.24,2.64,48.85,48.85,0,0,1-3.05,4.89c-.56.79-1.14,1.55-1.75,2.3a17.05,17.05,0,0,1-2,2.09,12.91,12.91,0,0,1-1.83,2c-.67.61-1.38,1.19-2.09,1.74-.36.27-.71.53-1.09.79-.39,1.09-.84,2.16-1.26,3.24-.31.77-.62,1.56-.89,2.34.3-.3.61-.58.93-.85a5.48,5.48,0,0,1,.91-.59,1.32,1.32,0,0,1,.7-.15.75.75,0,0,1,.27.08l0,0c.45-.38.91-.83,1.34-1.27S75.51,83.23,76.05,82.66Z"/><path d="M70.15,50.94a4.41,4.41,0,0,1,.47-.14l.59-.12,2.28-.38c.38-.07.75-.13,1.12-.22a6.22,6.22,0,0,0,1-.3l.89-.39-.24.89a3.06,3.06,0,0,0,0,.37c0,.14,0,.28,0,.42a4.15,4.15,0,0,0,.17.81,1.49,1.49,0,0,0,.41.61,1.18,1.18,0,0,0,.68.26l.16,0,.07.09a1.3,1.3,0,0,0,.81.34,5.67,5.67,0,0,0,1.09,0,8.65,8.65,0,0,0,2.18-.46s0,0,0,0a2.81,2.81,0,0,0,.79-.53c.3-.24.57-.53.85-.8s.62-.51.92-.8a1.83,1.83,0,0,0,.59-1l0-.16.18,0a.56.56,0,0,0,.48-.2,1.56,1.56,0,0,0,.29-.5,1.45,1.45,0,0,0,.12-.52A.48.48,0,0,0,86,47.9l.4-.76h-.11l.07-.09a2.88,2.88,0,0,0,.17-.35,5.42,5.42,0,0,0,.28-.86,7.12,7.12,0,0,0,.18-.92,1.88,1.88,0,0,0,0-.71A4.92,4.92,0,0,0,86,43a5.64,5.64,0,0,0-1.34-.93,6.86,6.86,0,0,0-2.13-.66,3,3,0,0,1,.33.63l.18.54h-.59c-.84,0-1.69,0-2.54.08-.4,0-.83.08-1.24.14l-.48.09a2.3,2.3,0,0,1,.32.15.7.7,0,0,1,.34.33l.05.11-.11.08L76.87,44.9c-.31.23-.64.45-1,.66s-.7.41-1,.6a14.12,14.12,0,0,0-1.73,1.48c-.54.54-1.1,1.07-1.63,1.62l-.78.83a4.44,4.44,0,0,0-.63.83ZM83,49a11.74,11.74,0,0,0-1.58.14,21.57,21.57,0,0,0-3.19.76,4,4,0,0,1,1.36-1.13,5,5,0,0,1,1.69-.55,4.58,4.58,0,0,1,3.4.76C84.08,49,83.54,48.94,83,49Zm-6.06-2.6A10.08,10.08,0,0,1,79,44.88,7.82,7.82,0,0,1,81.51,44a5.46,5.46,0,0,1,1.34,0,5.2,5.2,0,0,1,1.3.35,4.7,4.7,0,0,1,2,1.59,5.77,5.77,0,0,0-4.49-1.07,9.27,9.27,0,0,0-2.21.83l-.41.24a2.69,2.69,0,0,1,.57,0,1.47,1.47,0,0,1,.85.2,1.64,1.64,0,0,0-.82,0,8.18,8.18,0,0,0-.8.25c-.52.18-1,.4-1.54.62l-2,.83Z"/><path d="M24.85,81q.54-.28,1.11-.54l.33-.16q.93-.87,1.83-1.77c1-1,2-1.93,3-2.93s1.87-2,2.87-3c.78-.76,1.58-1.51,2.39-2.24a9.74,9.74,0,0,1-2,.36,3,3,0,0,1-.73,0,1.35,1.35,0,0,1-.71-.29.78.78,0,0,1-.2-.74,2,2,0,0,1,.18-.53c-.67.53-1.33,1.06-2,1.6S29.41,72,28.75,72.68l.17.09a2.17,2.17,0,0,0,.59.07,6.39,6.39,0,0,0,1.29-.15h0a.08.08,0,0,1,.08.06s0,.07,0,.08l-.27.11a25.81,25.81,0,0,0-3,2.72c-.44.5-.86,1-1.24,1.53s-.69,1-1,1.54a1.19,1.19,0,0,1-.11.6,2.74,2.74,0,0,1-.38.56,11.36,11.36,0,0,1-.85.85c-.56.53-1.11,1.05-1.65,1.59l.29-.17C23.39,81.75,24.11,81.37,24.85,81Z"/><path d="M32.84,69.68a.64.64,0,0,0,.19.56,1.86,1.86,0,0,0,1.27.16,9.34,9.34,0,0,0,1.35-.3c.44-.13.89-.28,1.31-.45l.46-.18-.13.5a16.91,16.91,0,0,0-.38,1.88,7.1,7.1,0,0,0-.06,1.83.9.9,0,0,0,.27.59.63.63,0,0,0,.55,0,5.85,5.85,0,0,0,1.5-1l1.17-1,.73-1c.6-.8,1.17-1.62,1.72-2.46s1-1.73,1.59-2.54A24.41,24.41,0,0,1,46.26,64a0,0,0,0,1,.07,0,0,0,0,0,1,0,0,12.33,12.33,0,0,1-1.17,2.83,17.9,17.9,0,0,1-1.78,2.46c-.63.8-1.29,1.57-2,2.33-.39.41-.78.82-1.18,1.22l-.35.94a.92.92,0,0,0,.43,1,2.58,2.58,0,0,0,1.34.48,4.9,4.9,0,0,0,2.94-.89l.43-.27c.21-.24.41-.49.6-.74.47-.59.92-1.2,1.33-1.83s.74-1.32,1.18-1.93a19.26,19.26,0,0,1,1.41-1.81.08.08,0,0,1,.08,0,.06.06,0,0,1,0,0,6.54,6.54,0,0,1-.7,2.26,7.89,7.89,0,0,1-.63,1c-.25.3-.49.61-.74.89-.51.6-1,1.17-1.59,1.71-.23.22-.46.42-.69.63l.05.38a1.56,1.56,0,0,0,.95,1,4.68,4.68,0,0,0,1.61.47,4.29,4.29,0,0,0,3.2-.74l.3-.25s.89-1,1.29-1.53c.57-.74,1.11-1.5,1.61-2.29s.93-1.62,1.45-2.38a25.32,25.32,0,0,1,1.71-2.26,0,0,0,0,1,.06,0,0,0,0,0,1,0,0,10.52,10.52,0,0,1-1,2.7,14.54,14.54,0,0,1-1.65,2.34c-.58.74-1.21,1.46-1.86,2.16-.48.49-1,1-1.48,1.43l.07.1a4.34,4.34,0,0,0,1.52,1.28,5.72,5.72,0,0,0,2,.62,4.46,4.46,0,0,0,2-.24,4.62,4.62,0,0,0,1.73-1.17l.11-.12a20.75,20.75,0,0,0,1.44-1.52c.54-.68,1-1.38,1.5-2.1s.82-1.51,1.29-2.23c.25-.35.46-.72.73-1.07a9.83,9.83,0,0,1,.81-1,0,0,0,0,1,.06,0s0,0,0,0a8.79,8.79,0,0,1-.82,2.54,12.16,12.16,0,0,1-1.49,2.2,25.3,25.3,0,0,1-1.76,2A17.86,17.86,0,0,1,59.19,76a2.69,2.69,0,0,0,1.84.74,7.22,7.22,0,0,0,2.17-.14,9.21,9.21,0,0,0,2.07-.64,3.4,3.4,0,0,0,1.55-1.22,26.13,26.13,0,0,0,2-2.12,32.37,32.37,0,0,0,1.89-2.78c.6-1,1.05-2,1.61-2.93S73.4,64.94,74,64h0a.06.06,0,0,1,.07,0,.08.08,0,0,1,0,0,9,9,0,0,1-.36,1.7c-.08.28-.18.54-.27.82l-.34.8a16,16,0,0,1-1.82,2.91c-.67.92-1.38,1.81-2.14,2.67-.56.61-1.14,1.2-1.74,1.76a1.86,1.86,0,0,0,1.23.38,4.89,4.89,0,0,0,1.5-.27,7.07,7.07,0,0,0,1.42-.66,3.67,3.67,0,0,0,1.11-1A15.54,15.54,0,0,0,74.43,72a18.59,18.59,0,0,0,1.76-1.9c.55-.67,1-1.42,1.45-2.11s.93-1.42,1.5-2.15h0s0,0,.06,0,0,0,0,0a6.6,6.6,0,0,1-.78,2.6,6.68,6.68,0,0,1-.76,1.12c-.31.34-.61.68-.93,1a16.84,16.84,0,0,1-2,1.77c-.43.3-.86.58-1.3.84a3.21,3.21,0,0,0,1.51.54,8.12,8.12,0,0,0,2,0,8.68,8.68,0,0,0,1.94-.45A4.85,4.85,0,0,0,80,72.62l.35-.51a48.84,48.84,0,0,0,2.77-4.93,26.37,26.37,0,0,0,1.11-2.56A10.49,10.49,0,0,0,85,62a4.32,4.32,0,0,0-.36-2.43,3.16,3.16,0,0,0-1.85-1.44,9.79,9.79,0,0,0-2.64-.43c-.92,0-1.87,0-2.82,0l-5.71.2c-1.91.06-3.82.12-5.72.14-1,0-1.91,0-2.88,0l-.37,0a1,1,0,0,1-.43-.15.31.31,0,0,1-.08-.34.46.46,0,0,1,.13-.19,1.62,1.62,0,0,1,.31-.24,7.43,7.43,0,0,1,1.29-.65.08.08,0,0,1,.1,0,.07.07,0,0,1,0,.09,9.21,9.21,0,0,0-1.2.74,2.49,2.49,0,0,0-.23.23.33.33,0,0,0-.06.08.62.62,0,0,0,.24,0H63c.94,0,1.89-.1,2.84-.18l5.7-.43c1.9-.14,3.8-.29,5.71-.4A29.1,29.1,0,0,1,81,56.64a1,1,0,0,1-.13-.16,8.25,8.25,0,0,1-.53-1c-.38-.6-.77-1.21-1.2-1.81a4.1,4.1,0,0,1-.61,0,2,2,0,0,1-1.14-.33,1.8,1.8,0,0,1-1-.31,2.14,2.14,0,0,1-.71-.88,3.47,3.47,0,0,1-.29-1c0-.11,0-.22,0-.33l-.53.15c-.39.11-.78.19-1.16.26-.77.15-1.55.25-2.3.38l-.55.1c-.2,0-.27.07-.58.13a1.18,1.18,0,0,1-.46,0,.66.66,0,0,1-.3-.13.67.67,0,0,1-.25-.3.92.92,0,0,1,0-.59,1.42,1.42,0,0,1,.16-.35,5.15,5.15,0,0,1,.8-1c.2-.21.4-.39.6-.59Q68.72,50,66.56,51a30.29,30.29,0,0,1-3,1.14l-.8.23-.82.18q-.72.15-1.47.36c-1,.3-2,.6-3,.92s-2,.65-3,1a31.07,31.07,0,0,0-2.91,1.25c-.47.24-.94.49-1.39.76-.22.13-.43.28-.64.43l-.67.46c-1.78,1.19-3.54,2.37-5.34,3.5-.9.56-1.8,1.12-2.67,1.7-.22.14-.43.29-.62.43l-.27.21-.06,0-.08.07-.16.15c-.42.36-.83.69-1.25,1-1.67,1.32-3.35,2.6-5,3.89L33,69h0A2.22,2.22,0,0,0,32.84,69.68Z"/><path d="M48.23,88.15c2.21-1.8,4.38-3.66,6.57-5.46a71.84,71.84,0,0,0,6.32-5.62l-.13,0a4.92,4.92,0,0,1-1.12-.26,2.1,2.1,0,0,1-.85-.57,5,5,0,0,1-1.71,1.17,5.13,5.13,0,0,1-2.09.37,24.05,24.05,0,0,1-2.33,2.82c-.89,1-1.85,1.89-2.81,2.8-1.93,1.81-4,3.44-6,5.11s-4.12,3.29-6.2,4.92c-1.64,1.27-3.29,2.52-4.95,3.77l.19.28a.92.92,0,0,0,.61.43,2.45,2.45,0,0,0,1-.07,6.91,6.91,0,0,0,1.15-.41c.39-.18.77-.38,1.18-.59l.25-.13c1.41-1.07,2.82-2.16,4.22-3.25C43.77,91.7,46,90,48.23,88.15Z"/><path d="M43.55,87.93c2-1.74,3.92-3.52,5.91-5.23s3.77-3.21,5.55-5a6.07,6.07,0,0,1-2.1-.53,5.43,5.43,0,0,1-1.61-1.1,4.66,4.66,0,0,1-.47.3A72,72,0,0,1,46.09,82c-1.85,2-3.9,3.78-5.93,5.59S36,91.1,33.85,92.75c-1.78,1.34-3.6,2.64-5.48,3.83l.46.41.05,0a.88.88,0,0,0,.3.12,4,4,0,0,0,1,.09c.35,0,.72,0,1.09,0s.72-.07,1.2-.09h.25q2.43-2,4.85-4.06Q40.58,90.52,43.55,87.93Z"/><path d="M35.07,86.11c.84-.91,1.69-1.82,2.49-2.78L40,80.51c.43-.46.82-.93,1.22-1.4s.81-1,1.23-1.41c.57-.67,1.14-1.33,1.72-2-.21.1-.44.2-.66.28a5,5,0,0,1-1.9.24,3.38,3.38,0,0,1-1.86-.71,2.24,2.24,0,0,1-.66-.87.93.93,0,0,0,0-.13l0,0a55.59,55.59,0,0,1-3.17,5.15c-1.31,1.89-2.71,3.71-4.18,5.48A53.33,53.33,0,0,1,27,90.24a43.26,43.26,0,0,1-4.45,3.66l.14.2a1.92,1.92,0,0,0,.85.67,8.25,8.25,0,0,0,1.32.32l0,.06a52.58,52.58,0,0,0,4.83-3.85C31.6,89.66,33.37,87.92,35.07,86.11Z"/><path d="M73.19,80.38c.7-.55,1.37-1.14,2-1.75a10.83,10.83,0,0,0,1.7-2l0,0,0,0a16.92,16.92,0,0,0,1.82-2.12c.32-.43.62-.87.93-1.3-.23.15-.48.3-.73.43a8.16,8.16,0,0,1-2,.66,8.8,8.8,0,0,1-2.12.14c-.19,0-.39,0-.59-.08a2.46,2.46,0,0,1-.07.29l-.16.71c-.12.47-.26.94-.41,1.4a15,15,0,0,1-1.22,2.68,10.06,10.06,0,0,1-1.76,2.38,10.69,10.69,0,0,1-1,.85A11.85,11.85,0,0,0,71,81.9,25.31,25.31,0,0,0,73.19,80.38Z"/><path d="M107.91,26.86c-.8-.28-1.64-.53-2.45-.84a16.64,16.64,0,0,0-2.41-.75c-.41-.07-.84-.12-1.27-.16a7,7,0,0,0-1.29-.05h0a0,0,0,0,1,0,0,.08.08,0,0,1,0-.05,6.83,6.83,0,0,1,2.41-.38l-.12-.12a2.53,2.53,0,0,1-.51-.94,3.09,3.09,0,0,1-.13-1.05,2.58,2.58,0,0,1,.18-.9h0l0,0-.87-.28-1-.34-1-.31a7.65,7.65,0,0,0-.94-.24h0l-.1,0a5,5,0,0,0-.92-.21c-.33-.05-.66-.09-1-.11a15.25,15.25,0,0,0-2,0l-.65.07c-.34.19-.68.39-1,.59a8.6,8.6,0,0,0-.82.59,6.35,6.35,0,0,0-.69.68,3.54,3.54,0,0,0-.72,1.86,5.19,5.19,0,0,0,.32,2.1c.11.33.25.66.38,1s.28.64.43.92a10.7,10.7,0,0,0,1.24,1.62,8.27,8.27,0,0,0,1.5,1.34,3.09,3.09,0,0,0,.89.4,1.54,1.54,0,0,0,.37,0,8.14,8.14,0,0,1,.16-1.07A3.86,3.86,0,0,1,96.23,29l0-.12.07,0a4.86,4.86,0,0,1,1.35-.62A12.94,12.94,0,0,1,99,27.87a20.45,20.45,0,0,1,2.66-.43s1.1-.11,1.62-.21a7.7,7.7,0,0,0,1.57-.42l.06,0h.1c.33,0,.67,0,1,0a8.3,8.3,0,0,1,1,0c.33,0,.65.07,1,.12l.19,0,0,0Zm-9-3.94a.85.85,0,1,1-.85-.85.75.75,0,0,1,.33.07,6.65,6.65,0,0,1,2.73.79c-.65-.07-1.62-.25-2.25-.25A.61.61,0,0,1,98.92,22.92Z"/><path d="M26.34,89.58l2.4-2.43c.82-.79,1.58-1.64,2.36-2.47,1.53-1.69,3-3.44,4.37-5.26a56.3,56.3,0,0,0,3.29-4.73,4.43,4.43,0,0,1-.79.37,2,2,0,0,1-.61.11,1.23,1.23,0,0,1-.72-.23,1.33,1.33,0,0,1-.4-.57,1.74,1.74,0,0,1-.13-.57,2.75,2.75,0,0,1,0-.4,44,44,0,0,1-3,4.74c-1.24,1.71-2.59,3.34-4,4.93a52.7,52.7,0,0,1-4.38,4.59c-.78.71-1.59,1.37-2.41,2-.64.5-1.31,1-2,1.44l-.68.82a2.64,2.64,0,0,0-.31.52c-.1.2-.18.41-.27.62-.17.43-.33.87-.48,1.31a17.17,17.17,0,0,0-.52,2,4.3,4.3,0,0,0,.41-.16,7.64,7.64,0,0,0,1.12-.61A12.91,12.91,0,0,0,21.69,94l.54-.52.13.19c.53-.54,1.06-1.09,1.6-1.63C24.74,91.19,25.57,90.41,26.34,89.58Z"/><path d="M73.21,76.54c.2-.43.39-.87.56-1.31l.25-.68.11-.27-.34-.08a2.34,2.34,0,0,1-.68-.32,4.54,4.54,0,0,1-1.08.94,7.08,7.08,0,0,1-1.59.77,5.14,5.14,0,0,1-1.77.31,2.76,2.76,0,0,1-1.35-.34,21.45,21.45,0,0,1-1.18,3.94,17.56,17.56,0,0,1-2.36,3.83c-.42.55-.89,1-1.35,1.56l0,.28c0,.08.24.16.51.15a4.1,4.1,0,0,0,.82-.13,12.76,12.76,0,0,0,1.64-.57c.54-.22,1.07-.47,1.59-.74a10.48,10.48,0,0,0,1.35-.81c.54-.68,1.09-1.3,1.61-1.93S71.26,79.76,71.8,79A14.54,14.54,0,0,0,73.21,76.54Z"/><path d="M57.22,88.17c.37-.33.74-.64,1.12-1,.55-.49,1.13-.93,1.66-1.43a35.73,35.73,0,0,0,3.21-2.94,17.39,17.39,0,0,0,2.51-3.55,20.93,20.93,0,0,0,1.49-3.81,0,0,0,0,1,0,0,2.91,2.91,0,0,1-.64.53,6.11,6.11,0,0,1-1.06.52,9.71,9.71,0,0,1-2.24.52,10.57,10.57,0,0,1-2,0,21.16,21.16,0,0,1-2.72,3.33c-1,1-2,2-3.11,3C53.26,85.28,51,87,48.67,88.72s-4.58,3.41-6.9,5.08q-1.91,1.36-3.83,2.71l.14.81a1.29,1.29,0,0,0,.67.92.83.83,0,0,0,.51.1,3.84,3.84,0,0,0,.73-.18,24.73,24.73,0,0,0,3.23-1.52c2.15-1.16,4.24-2.43,6.34-3.7s4.18-2.59,6.26-3.89Z"/><path d="M96.22,35.73a7.6,7.6,0,0,1-.35-1.08,10.68,10.68,0,0,1-.18-1.11,10.16,10.16,0,0,1,0-1.91,2.79,2.79,0,0,1-.38.07,2.92,2.92,0,0,1-1.18-.22,5.79,5.79,0,0,1-1.9-1.32,7.12,7.12,0,0,1-1.3-1.9,7,7,0,0,1-.53-2.2c-.06-.59-.09-1.18-.11-1.76-.41.6-.76,1.14-1.19,1.66a.68.68,0,0,1,.43.71c0,.4-.22.73-.49.73s-.5-.33-.5-.73c0,0,0-.08,0-.12a1.5,1.5,0,0,0-.23.33,1.63,1.63,0,0,0-.21.53A2.19,2.19,0,0,0,88,28q-.06.84-.12,1.65c0-.26.16-.45.31-.48a1.79,1.79,0,0,1,0-.23c0-.46.22-.84.49-.84s.5.38.5.84-.22.84-.5.84h0v0c0,.34-.16.63-.37.63s-.37-.28-.37-.63a.22.22,0,0,1,0-.08l0,.56c0,.27-.07.55-.11.82.13.34.29.69.46,1l.06.13a.53.53,0,0,1,.31-.54c.26-.08.57.16.68.54.18,0,.39.22.49.53s0,.68-.16.74-.4-.15-.52-.47l-.07,0a.43.43,0,0,1-.34-.07l.59,1.16a.37.37,0,0,1,.23-.29c.26-.08.59.24.74.72s0,.92-.22,1a.17.17,0,0,1-.12,0c.06.15.11.29.16.45a4.41,4.41,0,0,1,.22,1.25,7.15,7.15,0,0,1-.09,1.15,11.48,11.48,0,0,1-.53,2.19,9.15,9.15,0,0,1-1,2,4.25,4.25,0,0,1-1.49,1.46.8.8,0,0,1,.18.27,1.89,1.89,0,0,1,.18.52A4.26,4.26,0,0,1,87.6,46a5,5,0,0,1-.18,1.07,2.48,2.48,0,0,1-.25.56,1.16,1.16,0,0,1-.21.25,1.4,1.4,0,0,1,0,.5,1.85,1.85,0,0,1-.34.8,1.71,1.71,0,0,1-.64.55,5.26,5.26,0,0,0,2.41.36A6.85,6.85,0,0,0,91,49.17c.83-.44,1.57-1,2.39-1.5l1.94-1.14c.2-.27.39-.55.57-.83a18.67,18.67,0,0,0,1-1.81,5.31,5.31,0,0,0,.51-2,11.65,11.65,0,0,0-.5-4.18C96.71,37.06,96.47,36.4,96.22,35.73Zm-2.82,0a.65.65,0,0,1,0-.2c0-.4.22-.73.49-.73s.5.33.5.73-.22.72-.5.72h-.05c0,.3-.17.54-.38.54s-.37-.25-.37-.54A.53.53,0,0,1,93.4,35.68Zm1.07,3.13a.38.38,0,1,1-.38-.43A.42.42,0,0,1,94.47,38.81ZM91.53,42c-.27,0-.49-.33-.49-.73s.22-.72.49-.72.5.32.5.72S91.81,42,91.53,42Zm.77-8.75c-.27,0-.49-.32-.49-.72s.22-.73.49-.73.5.33.5.73S92.57,33.26,92.3,33.26Zm1.16,9.43c-.21,0-.38-.3-.38-.67s.17-.67.38-.67.39.31.39.67S93.67,42.69,93.46,42.69Zm.84,2c-.27,0-.49-.32-.49-.72s.22-.73.49-.73.5.33.5.73S94.58,44.73,94.3,44.73ZM94.59,37c0-.4.22-.72.49-.72s.5.32.5.72-.22.73-.5.73S94.59,37.39,94.59,37Zm2,5.6c-.08.29-.29.49-.46.44s-.25-.33-.16-.61.29-.48.47-.43S96.67,42.31,96.58,42.59Zm-.23-2a.36.36,0,0,1-.32-.24.38.38,0,0,1-.26.11c-.27,0-.49-.32-.49-.73s.22-.72.49-.72.5.32.5.72h0l.09,0a.4.4,0,0,1,.37.43A.42.42,0,0,1,96.35,40.56Z"/><path d="M87.12,64.62h0a0,0,0,0,0,0,0A0,0,0,0,0,87.12,64.62Z"/><path d="M64.86,104.2l.45,0c-.68-1-.33-1.29-.33-1.29l-.31,0c-.7.1-2.4.52-2.62,2A4.81,4.81,0,0,1,64.86,104.2Z"/></svg>