<svg id="Layer_1" data-name="Layer 1" xmlns="http://www.w3.org/2000/svg" width="128" height="128" viewBox="0 0 128 128"><title>Artboard 111</title><path d="M25.35,127.72,20.59,111.5H23.5l3.37,12,3.26-12H33l-4.77,16.22Z"/><path d="M34.54,111.5h2.68v8.79a20.79,20.79,0,0,0,.1,2.66,2.69,2.69,0,0,0,.85,1.66,2.61,2.61,0,0,0,1.77.59,2.57,2.57,0,0,0,1.52-.42,2,2,0,0,0,.8-1.15,14.31,14.31,0,0,0,.22-3.16v-9h2.67V120a22.82,22.82,0,0,1-.34,4.72,4,4,0,0,1-1.58,2.36A5.3,5.3,0,0,1,40,128a6,6,0,0,1-3.25-.75,4.24,4.24,0,0,1-1.69-2.1,15.84,15.84,0,0,1-.53-5Z"/><path d="M48.28,127.72V111.63H51V125h6.68v2.74Z"/><path d="M61.42,127.72V114.24h-4V111.5H68v2.74H64.1v13.48Z"/><path d="M70,111.5h2.68v8.79a20.79,20.79,0,0,0,.1,2.66,2.69,2.69,0,0,0,.85,1.66,3,3,0,0,0,3.29.17,2,2,0,0,0,.8-1.15,14.31,14.31,0,0,0,.22-3.16v-9h2.67V120a22.82,22.82,0,0,1-.34,4.72,4,4,0,0,1-1.58,2.36,5.3,5.3,0,0,1-3.22.9,6,6,0,0,1-3.25-.75,4.24,4.24,0,0,1-1.69-2.1,15.84,15.84,0,0,1-.53-5Z"/><path d="M83.65,127.72V111.5h5.66a7.93,7.93,0,0,1,3.1.44,3.36,3.36,0,0,1,1.52,1.51,5.25,5.25,0,0,1,.6,2.59,4.79,4.79,0,0,1-.91,3.06,4.06,4.06,0,0,1-2.6,1.46,6.91,6.91,0,0,1,1.43,1.36A18.75,18.75,0,0,1,94,124.56l1.62,3.16H92.4l-1.94-3.53A23.45,23.45,0,0,0,89,121.8a2.05,2.05,0,0,0-.8-.67,3.69,3.69,0,0,0-1.35-.18h-.55v6.77Zm2.68-9.36h2a9.84,9.84,0,0,0,2.33-.16,1.5,1.5,0,0,0,.81-.65,2.41,2.41,0,0,0,.3-1.29,2.31,2.31,0,0,0-.3-1.25,1.56,1.56,0,0,0-.85-.64,10.39,10.39,0,0,0-2.18-.13h-2.1Z"/><path d="M97.29,127.72V111.5h9.87v2.74H100v3.6h6.68v2.73H100V125h7.44v2.74Z"/><path d="M2.81,14.32,0,0H2.43L4.2,9.84,6.34,0H9.17l2.06,10L13,0h2.39L12.57,14.32H10.05L7.7,3.61,5.38,14.32Z"/><path d="M16.84,14.32V0H19.2V5.64h4.66V0h2.37V14.32H23.86V8.06H19.2v6.26Z"/><path d="M28.8,14.32V0h2.37V14.32Z"/><path d="M36.28,14.32V2.42H32.79V0h9.33V2.42H38.64v11.9Z"/><path d="M43.87,14.32V0h8.71V2.42H46.23V5.6h5.9V8h-5.9V11.9H52.8v2.42Z"/><path d="M59.77,14.32V0h2.37V5.64H66.8V0h2.36V14.32H66.8V8.06H62.14v6.26Z"/><path d="M71.81,14.32V0h8.72V2.42H74.18V5.6h5.9V8h-5.9V11.9h6.56v2.42Z"/><path d="M93.55,14.32H91l-1-3.24h-4.7l-1,3.24H81.75L86.33,0h2.51ZM89.18,8.66,87.56,3.34,86,8.66Z"/><path d="M95,0H99.3a6.37,6.37,0,0,1,2.48.37,4.12,4.12,0,0,1,1.53,1.23,6.37,6.37,0,0,1,1.11,2.26,12.87,12.87,0,0,1,.4,3.45,11.1,11.1,0,0,1-.42,3.23,6.46,6.46,0,0,1-1.07,2.17,4.12,4.12,0,0,1-1.55,1.21,5.84,5.84,0,0,1-2.35.4H95Zm2.36,2.42V11.9h1.78a4.79,4.79,0,0,0,1.66-.21,2.08,2.08,0,0,0,.84-.65,3.82,3.82,0,0,0,.54-1.38,11.58,11.58,0,0,0,.21-2.46,11,11,0,0,0-.22-2.51,3.27,3.27,0,0,0-.68-1.45,2.19,2.19,0,0,0-1.13-.69,9.59,9.59,0,0,0-1.92-.13Z"/><path d="M107,14.32V0h8.71V2.42H109.4V5.6h5.9V8h-5.9V11.9H116v2.42Z"/><path d="M118.16,0h4.33A6.31,6.31,0,0,1,125,.37,4.07,4.07,0,0,1,126.5,1.6a6.36,6.36,0,0,1,1.1,2.26,12.47,12.47,0,0,1,.4,3.45,11.1,11.1,0,0,1-.42,3.23,6.46,6.46,0,0,1-1.06,2.17A4.07,4.07,0,0,1,125,13.92a5.84,5.84,0,0,1-2.35.4h-4.45Zm2.37,2.42V11.9h1.77a4.71,4.71,0,0,0,1.66-.21,2.08,2.08,0,0,0,.84-.65,3.65,3.65,0,0,0,.54-1.38,10.87,10.87,0,0,0,.22-2.46,11.61,11.61,0,0,0-.22-2.51,3.38,3.38,0,0,0-.69-1.45,2.17,2.17,0,0,0-1.12-.69,9.78,9.78,0,0,0-1.93-.13Z"/><path d="M97.81,28.9a2.71,2.71,0,0,1-.4,0L97,28.72l-.39-.11c-.53-.14-1.09-.25-1.65-.35s-1.12-.18-1.68-.23a11.43,11.43,0,0,0-1.17,0,1.92,1.92,0,0,0,.4,1.15c.14.16.75.05,1.25.1s1.06.14,1.59.13c.26,0,.53,0,.79-.05a6.85,6.85,0,0,1,.84-.08,4.28,4.28,0,0,1,1,.15,1.22,1.22,0,0,1-.09-.42Z"/><path d="M56.45,92.74l0,0,0,0L56,92l-.31-.75a6.7,6.7,0,0,1-.4-1.6A4.16,4.16,0,0,1,55.39,88a2.13,2.13,0,0,1,.93-1.36.06.06,0,0,1,.08,0,.06.06,0,0,1,0,.08l0,0a1.46,1.46,0,0,0-.35.61,2.81,2.81,0,0,0-.15.71A4.62,4.62,0,0,0,56,89.47a8.33,8.33,0,0,0,.53,1.36l.35.65.36.57a1.54,1.54,0,0,0,1.25.46,2.2,2.2,0,0,0,.37-.06c.07,0,.12,0,.2-.06l.33-.06a1.89,1.89,0,0,1,1.3.29,2,2,0,0,1,.8,1.09,1.91,1.91,0,0,1,.06.33,1.15,1.15,0,0,1,0,.24l.06.42a4.59,4.59,0,0,0,.2.75c.18-.47.36-1,.52-1.43s.24-.83.34-1.25a3.66,3.66,0,0,1,.44-1.29,3,3,0,0,1,.94-1,1.48,1.48,0,0,1,.69-.29,1.16,1.16,0,0,1,.77.17,4.25,4.25,0,0,1,1,1,4.17,4.17,0,0,1,.29.44l.93-1.9c.43-.88.85-1.75,1.21-2.63l.27-.68c.09-.24.2-.48.31-.71.22-.46.46-.91.71-1.35.49-.87,1-1.7,1.54-2.52a27.53,27.53,0,0,0,1.45-2.45,13.26,13.26,0,0,0,.5-1.31c.16-.45.31-.91.46-1.38.54-1.7,1.06-3.43,1.61-5.15l-.06,0a2.05,2.05,0,0,1-1.76,0,2.88,2.88,0,0,1-1-.88l-.12,0-.42,0c-.27,0-.55,0-.83,0a6.18,6.18,0,0,1-.85-.06,2.42,2.42,0,0,1-.45-.1l-.23-.1c-.36.31-.72.55-1.08.82s-.9.6-1.36.87a12.93,12.93,0,0,1-1.41.78,6.51,6.51,0,0,1-.77.31,2.46,2.46,0,0,1-.41.1.91.91,0,0,1-.33,0c-.24.4-.49.72-.73,1.08l-.86,1.17c-.57.77-1.14,1.54-1.75,2.3s-1.22,1.5-1.88,2.23c-.33.35-.67.71-1,1a4.48,4.48,0,0,1-1.16.8l-.09.13-.17.23-.35.45-.69.87c-.47.58-.95,1.13-1.43,1.69-1,1.11-2,2.21-3,3.28-.29.31-.6.61-.91.91.16.88.26,1.74.34,2.6a21.56,21.56,0,0,1,.15,2.66,11.2,11.2,0,0,0,.2,2.65,6.16,6.16,0,0,0,.4,1.26,3.92,3.92,0,0,0,.65,1.07,1.54,1.54,0,0,0,.4.34.7.7,0,0,0,.4.07,1.39,1.39,0,0,0,.84-.53,8.21,8.21,0,0,0,1.16-2.18c.57-1.47,1-3,1.43-4.57A2.84,2.84,0,0,0,56.45,92.74Z"/><path d="M86.47,52.9c-.68,1.48-1.38,2.94-2.15,4.38-.18.35-.38.71-.58,1.07a7.87,7.87,0,0,1-.67,1.06,7,7,0,0,1-.86.94,3.42,3.42,0,0,1-.51.39.82.82,0,0,1-.33.13.33.33,0,0,1-.21,0,.11.11,0,0,1,0,0c-.3,1.14-.61,2.29-1,3.43-.27.9-.57,1.79-.9,2.68-.17.45-.35.89-.55,1.34a5,5,0,0,1-.33.65,6.88,6.88,0,0,1-.36.64,6.66,6.66,0,0,1-.93,1.2,4.38,4.38,0,0,1-1,.78,55.1,55.1,0,0,1-.85,5.55c-.18.82-.36,1.61-.63,2.45.35-.47.68-.94,1-1.41q1.32-1.95,2.52-4c.82-1.34,1.63-2.7,2.39-4.07.18-.35.35-.69.51-1a5.12,5.12,0,0,1,.7-1.13c.52-.66,1.09-1.19,1.61-1.79a16.48,16.48,0,0,0,4.25-8.28,53.12,53.12,0,0,0,.76-9.45l0,.06C87.74,49.92,87.13,51.43,86.47,52.9Z"/><path d="M92.31,33.74a11.51,11.51,0,0,0-2-.75l-.48.33c-.08.24-.17.49-.26.73l-.32.86c-.1.26-.19.52-.3.79.18.33.36.66.53,1a20.91,20.91,0,0,1,1,2.27,5.69,5.69,0,0,1,.31,1.23,2.43,2.43,0,0,1,0,.66,6.4,6.4,0,0,1-.14.63L90,43.82a1.87,1.87,0,0,1-.07.22l.65.61.39.39c0-.19.08-.39.11-.59.06-.37.09-.74.12-1.12s0-.75.07-1.12l0-1.13v-.21l.11-.1a.94.94,0,0,1,.35-.22,1.12,1.12,0,0,1,.35-.06,1.23,1.23,0,0,1,.57.17l.07.05c0-.17,0-.35,0-.52a8.47,8.47,0,0,0,0-1.33,4.31,4.31,0,0,0-.33-1.28,2.46,2.46,0,0,0-.34-.56,1.38,1.38,0,0,0-.47-.4l0,0,0-.06a.73.73,0,0,1,0-.55,2.11,2.11,0,0,1,.28-.37,5.31,5.31,0,0,1,.65-.54,4.83,4.83,0,0,1,.73-.41l.19-.09c-.09-.09-.17-.18-.27-.27A5,5,0,0,0,92.31,33.74Z"/><path d="M68.45,104.11a26.62,26.62,0,0,0,2.65.58l-.47-.32a4.78,4.78,0,0,1-.54-.47,5.37,5.37,0,0,1-.37-.44c-.55,0-1.08,0-1.63-.08l-1.48-.11a.64.64,0,0,0,.13.1,5.77,5.77,0,0,0,.55.29A7.74,7.74,0,0,0,68.45,104.11Z"/><path d="M41.61,84.46a4.53,4.53,0,0,0,1.27,0,4.76,4.76,0,0,0,2.26-1.11h0c.41-.74.84-1.47,1.27-2.19.26-.44.53-.87.78-1.3L48,78.62a1.79,1.79,0,0,1-2.84-1.14c-.44.72-.89,1.44-1.37,2.13a54.32,54.32,0,0,1-3.4,4.44l.13.09A3.31,3.31,0,0,0,41.61,84.46Z"/><path d="M49.89,64.7a8.78,8.78,0,0,1-2.17.72,3.48,3.48,0,0,1-1.21,0,1.79,1.79,0,0,1-.94-.41l-.15.11c-.55,1.54-1.19,3-1.86,4.51S42,72.9,41.15,74.49a4.18,4.18,0,0,0,4.16,1.05c.45-.68.89-1.36,1.32-2.05,1.18-1.89,2.31-3.8,3.4-5.75q1.3-2.28,2.52-4.62c-.22.17-.44.33-.67.48A15.45,15.45,0,0,1,49.89,64.7Z"/><path d="M46.18,83.21a3.5,3.5,0,0,0,.6-.37A9,9,0,0,0,48,81.72c.79-.82,1.52-1.72,2.25-2.64l.29-.37s.06-.07.15-.2a1.53,1.53,0,0,1-.86-1.16c-.33.56-.68,1.1-1,1.64a43.18,43.18,0,0,1-3.32,4.3H46l0,0Z"/><path d="M40.36,76c-.61,1.14-1.25,2.28-2,3.36s-1.58,2.3-2.46,3.4l-.25,1c0,.19.18.54.52.76a2.65,2.65,0,0,0,1.18.45,3,3,0,0,0,1.26-.1,3.23,3.23,0,0,0,1.12-.64l.32-.28h0C41,82.27,42,80.69,43,79.1c.35-.56.71-1.11,1.07-1.66C42.33,78.85,40.42,77.87,40.36,76Z"/><path d="M40.7,73.84c.86-1.45,1.68-2.9,2.46-4.38s1.44-2.76,2.07-4.18a5.31,5.31,0,0,1-1.18.56A4.57,4.57,0,0,1,42,66a5,5,0,0,1-1.88-.69,5.22,5.22,0,0,1-.8-.6,3,3,0,0,1-.35-.36,2.83,2.83,0,0,1-.2-.28c-.06.29-.15.58-.24.87a7.39,7.39,0,0,1-.47,1c-.09.17-.21.33-.3.49a4.12,4.12,0,0,0-.27.45,8.19,8.19,0,0,0-.7,2A7,7,0,0,1,36,71.14a2.32,2.32,0,0,1-.42.47l-.41.35a2.11,2.11,0,0,0-.19.23A5.86,5.86,0,0,0,40.7,73.84Z"/><path d="M32.21,82.49a5.42,5.42,0,0,0,.29,1.17,2.06,2.06,0,0,0,.12.26l.06.13a.18.18,0,0,0,0,.07.5.5,0,0,0,.31.14,1.06,1.06,0,0,0,.45-.08A3.13,3.13,0,0,0,34,84a2.89,2.89,0,0,0,.84-.71l.9-1c.18-.33.36-.67.55-1,.42-.81.88-1.59,1.34-2.38s.94-1.55,1.41-2.33c.33-.52.66-1,1-1.59-2.83,3.17-6.26,1.84-6.13-.87-.4.86-.76,1.77-1.17,2.65-.15.34-.3.68-.47,1-.07.75-.14,1.49-.16,2.23A13.22,13.22,0,0,0,32.21,82.49Z"/><path d="M35.54,89.66l1.07-1.93c.28-.55.58-1.09.83-1.64l-.24,0a3.56,3.56,0,0,1-1.63-.72,2.83,2.83,0,0,1-.65-.72l-.05-.1a2.87,2.87,0,0,1-.48.28,6,6,0,0,1-.68.22,1.85,1.85,0,0,1-.8,0,1.23,1.23,0,0,1-.77-.47,2.14,2.14,0,0,1-.13-.19c0-.07,0-.11-.07-.18a2.19,2.19,0,0,1-.12-.33,5.77,5.77,0,0,1-.22-1.34,12.69,12.69,0,0,1,.16-2.62,19.53,19.53,0,0,1,.41-2c-.14.27-.27.55-.42.81s-.37.66-.54,1-.34.62-.49,1c-.61,1.29-1.15,2.66-1.66,4-1,2.75-1.92,5.55-2.83,8.36l-.35,1-.36,1c-.21.67-.4,1.38-.57,2.08-.35,1.42-.66,2.85-.94,4.29l-.2,1.07,0,.26a2.87,2.87,0,0,0,.6,0,6.49,6.49,0,0,0,1-.09,5.42,5.42,0,0,0,3.39-1.83c.83-1.13,1.6-2.41,2.34-3.66s1.52-2.51,2.25-3.79Z"/><path d="M90.42,40.78a2,2,0,0,0,0-.55,4.16,4.16,0,0,0-.31-1.12,9.75,9.75,0,0,0-1.23-2l-.31-.4h0a.05.05,0,0,1,0,0h0l-1.11-1.42a1.45,1.45,0,0,0-.74-.4,7.52,7.52,0,0,0-1.08-.16L85,34.59l-.32-.05-.16,0h-.1a3.49,3.49,0,0,0-1,.07c-1.4.25-3.38.9-4.91,1.31a3.69,3.69,0,0,1-.56.9l-.24.27-.29-.25a2.55,2.55,0,0,1-.38-.43c-.5.46-1,.87-1.58,1.28-.71.52-1.43,1-2.17,1.48a35.53,35.53,0,0,1-4.63,2.5,22.67,22.67,0,0,1-2.51.92,8.44,8.44,0,0,1-1.38.25,2.53,2.53,0,0,1-.81,0l-.31-.08a1,1,0,0,0-.24,0,3,3,0,0,0-2,.79,11.63,11.63,0,0,0-1.8,1.84A7.84,7.84,0,0,1,60.89,43,5.34,5.34,0,0,1,62,42a3,3,0,0,1,1.46-.45c.13,0,.27,0,.4,0l.2,0h.12a2.2,2.2,0,0,0,.49,0,8.17,8.17,0,0,0,1.15-.3c.77-.26,1.56-.59,2.33-.94,1.56-.69,3.1-1.44,4.66-2.18l2.34-1.12c.6-.29,1.21-.57,1.81-.87a2.87,2.87,0,0,1-.27-.66,5,5,0,0,1-.2-1.36,8.45,8.45,0,0,1,.11-1.34c0-.11,0-.21.07-.32l-.15.06-1,.49c-.35.17-.69.34-1,.53a8,8,0,0,0-.91.58l-.63.51L72.8,34c0-.09,0-.17,0-.26a2.16,2.16,0,0,1,.11-.6,4.57,4.57,0,0,1,.26-.68,3,3,0,0,1,.16-.31c-2.79,1.12-6,2.49-8.65,3.84a29.86,29.86,0,0,0-3.93,2.36c-1.21.9-2.4,1.93-3.59,2.91s-2.35,2-3.51,3-2.3,2.07-3.44,3.12S48,49.51,46.89,50.62A24.6,24.6,0,0,0,44,54.18v0h0c-.42.55-.87,1.06-1.32,1.56s-.9,1-1.34,1.5-.85,1-1.23,1.57a4.07,4.07,0,0,0-.77,1.72v0h0c-.14.7-.18,1.45-.28,2.18a12.16,12.16,0,0,1-.23,1.32,2.84,2.84,0,0,0,.24.26,3.57,3.57,0,0,0,.38.3,5.32,5.32,0,0,0,.83.49,4.9,4.9,0,0,0,1.82.47,3.94,3.94,0,0,0,1.8-.31,5.59,5.59,0,0,0,1.54-1L45.7,64l.24.33c.28.38,1,.37,1.63.2a8.44,8.44,0,0,0,1.92-.76,13.59,13.59,0,0,0,1.78-1.11,8.68,8.68,0,0,0,1.51-1.36l.55-.68.43.8a1.16,1.16,0,0,0,.53.52,1.86,1.86,0,0,0,.84.15,5.79,5.79,0,0,0,2-.48,10.29,10.29,0,0,0,1.9-1,7.5,7.5,0,0,0,1.57-1.37l.43-.53.5.42a2.26,2.26,0,0,0,1.76.19,9.27,9.27,0,0,0,2.11-.73,15.11,15.11,0,0,0,2-1.13c.31-.22.62-.45.9-.69A3.78,3.78,0,0,0,69,56l.47-.77.47.68a1.8,1.8,0,0,0,1.48.39,7,7,0,0,0,1.92-.44,9.26,9.26,0,0,0,1.81-.9,4.1,4.1,0,0,0,1.35-1.37l.2-.38.3.26a2,2,0,0,0,1.05.31,6.55,6.55,0,0,0,1.25,0,13.74,13.74,0,0,0,2.51-.49,14.76,14.76,0,0,0,2.4-.9,8.12,8.12,0,0,0,1.11-.66l.26-.21c.54-1.21,1.09-2.42,1.64-3.62.35-.73.68-1.47,1-2.19l1.07-2.17a24.09,24.09,0,0,0,1-2.21C90.31,41.14,90.39,41,90.42,40.78Z"/><path d="M79.38,33.76c-.14.31-.27.65-.4,1s-.21.51-.32.77c.67-.36,1.54-.75,2-1-.32-.47-.63-1-.94-1.42A3,3,0,0,0,79.38,33.76Z"/><path d="M94.65,25.91c-.42.27-.83.61-1.26.95-.21.17-.44.33-.66.5a3.78,3.78,0,0,1-.61.4,9.11,9.11,0,0,1,2.9-.21,14.64,14.64,0,0,1,1.75.2,3.63,3.63,0,0,1,.45.1l.39.1a1.29,1.29,0,0,0,.67-.07h0l.21-.18,1-.76.26-.18c.06,0,.06-.05.1-.07l.08-.09a3.64,3.64,0,0,0,.32-.48l.56-1.06a10.23,10.23,0,0,0-1.31-.37,21.06,21.06,0,0,1-2.11-.55,10.86,10.86,0,0,1-1.38.94C95.56,25.36,95.08,25.63,94.65,25.91Zm2.08-.48a.61.61,0,0,1,.66-.55c.13,0,.09.17,0,.33a1.07,1.07,0,0,0-.12.72c0,.15,0,.27-.12.25A.61.61,0,0,1,96.73,25.43Z"/><path d="M96.13,29.63a5.29,5.29,0,0,0-.79,0c-.52.07-1,.25-1.57.33A3.21,3.21,0,0,1,93,30l-.21,0a.91.91,0,0,1-.27-.05,1.09,1.09,0,0,1-.48-.34,1.4,1.4,0,0,1-.24-.95,2.06,2.06,0,0,1,.16-.66,1.84,1.84,0,0,0-.33,0h0s0,0,0,0a.05.05,0,0,1,0,0l.44-.15a6.26,6.26,0,0,1,2.2-2.65,7.78,7.78,0,0,1,3.21-1C97,24,96.05,23.75,96,23.75h0a23.21,23.21,0,0,1-4.71-1c-.41-.13-.75-.29-1.12-.39A4.26,4.26,0,0,0,89,22.17a3.75,3.75,0,0,0-2.23.71,11.29,11.29,0,0,0-1,.76,2.89,2.89,0,0,1-.56.4,4.09,4.09,0,0,0-.48.29,3.79,3.79,0,0,0-.81.72,1,1,0,0,0-.25.72,1.94,1.94,0,0,1,.07.78,1.61,1.61,0,0,1-.29.77,2.19,2.19,0,0,1-.52.53l-.27.19,0,0a0,0,0,0,0,0,0s0,0,0,0a3.93,3.93,0,0,0-.2,1.09,8.12,8.12,0,0,0,0,1.21h0a0,0,0,0,1,0,.05l0,0a3.42,3.42,0,0,1-.22-.61,6.19,6.19,0,0,1-.13-.62c0-.22-.06-.43-.08-.65a2.29,2.29,0,0,1,.06-.72.83.83,0,0,1,.11-.24.58.58,0,0,1,.11-.13l.06-.06.21-.2a1.43,1.43,0,0,0,.3-.38,1,1,0,0,0,0-.83,1.6,1.6,0,0,1,.06-.9,2.35,2.35,0,0,1,.42-.65,4.4,4.4,0,0,1,1.08-.83,4.18,4.18,0,0,1,.61-.27,3.44,3.44,0,0,0,.49-.23c.36-.2.73-.41,1.12-.58A9.41,9.41,0,0,1,89,21.77a6.17,6.17,0,0,1,1.29-.06,6.45,6.45,0,0,1,1.24.28c.8.26,1.61.51,2.4.8l-1.44-.7C91.32,21.54,90.15,21,89,20.52A12.62,12.62,0,0,0,85.22,20a23.93,23.93,0,0,0-3.73.37,2.36,2.36,0,0,0-.84.85,3.26,3.26,0,0,0-.38,1.24,19.37,19.37,0,0,0,0,2.86c0,.49,0,1,0,1.49s-.08,1-.13,1.5a9.73,9.73,0,0,0,.07,2.9s0,.05,0,.05,0,0-.05,0a7.21,7.21,0,0,1-.62-2.94c0-.25,0-.49,0-.73a8.21,8.21,0,0,0-1.64-1.14,7,7,0,0,0-1.74-.64,8,8,0,0,0-1.83-.18l-.47,0,.27.14a11.21,11.21,0,0,1,1.45.94l.68.51-.82.16a10.94,10.94,0,0,0-1.44.38,7.05,7.05,0,0,0-1.37.61,4.58,4.58,0,0,0-1.17.92,3.11,3.11,0,0,0-.59,1,13.81,13.81,0,0,1,2.34-.82c.44-.12.9-.24,1.36-.32l.69-.11a2.31,2.31,0,0,1,.79,0l.62.13-.59.37a3.77,3.77,0,0,0-.83.89c-.25.35-.48.72-.7,1.1a11.36,11.36,0,0,0-.56,1.17,1.34,1.34,0,0,0-.07.18l.14-.09c.35-.21.7-.4,1.06-.59s.7-.36,1.08-.52l.55-.24a4.32,4.32,0,0,1,.66-.21l1-.23-.57,1a2.1,2.1,0,0,0-.18.46c-.06.19-.1.38-.14.57a7.62,7.62,0,0,0-.13,1.17,3.5,3.5,0,0,0,.32,1.7,4,4,0,0,0,.27-.44c.17-.31.33-.63.5-.95s.33-.64.51-1c.1-.15.19-.32.31-.48a1.56,1.56,0,0,1,.48-.43l.17-.09.09.17c.28.59.57,1.18.84,1.77l0,0a14,14,0,0,1,2.31-.89,4.36,4.36,0,0,1,1.35-.19h.19l.14,0,.28,0,.59.05a6.29,6.29,0,0,1,1.29.19,2.23,2.23,0,0,1,.69.31,2.48,2.48,0,0,1,.58.54,2.23,2.23,0,0,1,.2.3.34.34,0,0,0,0-.1,6.2,6.2,0,0,1,.21-1,5.85,5.85,0,0,1,.34-.91l.05-.09a3.84,3.84,0,0,1-.83,0,4.53,4.53,0,0,1-1.77-.66,7.88,7.88,0,0,1-.74-.55c-.23-.21-.43-.38-.66-.63a2.1,2.1,0,0,1-.49-.89,1.31,1.31,0,0,1,.11-1,1.91,1.91,0,0,0,.88,1.3c.45.33.93.68,1.39,1a7.11,7.11,0,0,0,1.45.75,6.41,6.41,0,0,0,1.2.33l.64-.31a8.32,8.32,0,0,1,1.08-.42,10.76,10.76,0,0,0,2.14-.86c.33-.19.66-.4,1-.57a4.34,4.34,0,0,1,1.11-.35,5.62,5.62,0,0,1,1.3-.13l-.06,0A2.16,2.16,0,0,0,96.13,29.63Zm-10.47-2A.55.55,0,0,1,85,28c-.31-.06-.45-.35-.54-.51a3.78,3.78,0,0,1-.28-.57.79.79,0,0,1,.06-.73.85.85,0,0,1,.76-.45.76.76,0,0,1,.45.15.61.61,0,0,1,.21.37,3.2,3.2,0,0,1,0,.66A4.21,4.21,0,0,1,85.66,27.59Zm5.81-3,0,.07-.06.13a1.82,1.82,0,0,1-.15.23,2.42,2.42,0,0,1-.37.42,2.11,2.11,0,0,1-.48.32,1.17,1.17,0,0,1-.63.14,2.18,2.18,0,0,1-1.07-.51,1.54,1.54,0,0,1-.67-1,1.12,1.12,0,0,1,.12-.69,1.45,1.45,0,0,1,.45-.5,1.94,1.94,0,0,1,.58-.28,1.59,1.59,0,0,1,.66,0,1.88,1.88,0,0,1,1.08.61,3.46,3.46,0,0,1,.34.44,2,2,0,0,1,.14.25l.05.13,0,.06,0,.1Z"/><path d="M104.21,28.55a6,6,0,0,0-.15-.85,3.37,3.37,0,0,0-.13-.38c-.05-.13-.12-.24-.18-.36a3.59,3.59,0,0,0-1.17-1.09,9.38,9.38,0,0,0-1.72-.82,5,5,0,0,1-.26,1.21,2.8,2.8,0,0,1-.3.6l-.12.14a.79.79,0,0,1-.15.12l-.24.18c-.28.2-.56.39-.86.58l.41.09.84.21c.57.16,1.12.31,1.7.52a3.55,3.55,0,0,1,.84.51,2.47,2.47,0,0,1,.65.75,2.75,2.75,0,0,1,.33,1.1,3.47,3.47,0,0,0,.38-.83A5,5,0,0,0,104.21,28.55Z"/><path d="M101.57,29.5c-.51-.16-1.08-.29-1.63-.41l-.83-.19a1.51,1.51,0,0,0-.66-.07l-.31.05c.06.12.12.23.17.35a2.13,2.13,0,0,1,.11.33l.14,0c.5.17,1,.31,1.45.45a9.41,9.41,0,0,0,2.79.41l-.06-.11A2.44,2.44,0,0,0,101.57,29.5Z"/><path d="M81.16,60.59h0c.09.13.23,0,.37-.11a3.13,3.13,0,0,0,.36-.44,11.53,11.53,0,0,0,.59-1c.34-.68.58-1.46.88-2.22.57-1.51,1.18-3,1.8-4.51l.28-.63-.12.12a8,8,0,0,1-1.08.75,12.43,12.43,0,0,1-1.46.73h0C82.4,55.07,82,57,81.61,58.75,81.46,59.37,81.31,60,81.16,60.59Z"/><path d="M48.4,91.79a18,18,0,0,1-1.82,1.37c-.21.14-.43.27-.66.4l-5.68,12.22a2.62,2.62,0,0,0,1.71.4c.07-.13.11-.24.18-.4l.2-.56c.28-.76.59-1.53.93-2.29s.73-1.49,1.13-2.21a27.48,27.48,0,0,1,2.84-4,24,24,0,0,1,3.14-3.08c0-.45,0-.89,0-1.34a14.77,14.77,0,0,1,.24-2.48C49.87,90.46,49.15,91.14,48.4,91.79Z"/><path d="M76.29,58.46a27.71,27.71,0,0,1-1.47,4.28c-.28.7-.62,1.38-.92,2.07s-.72,1.34-1.11,2-.85,1.25-1.31,1.84-.75.88-1.14,1.31a1.47,1.47,0,0,0,.53.12,6.12,6.12,0,0,0,.74,0c.26,0,.51-.06.76-.1l.37-.08.18,0s.13,0,.09,0l.57.14a2.23,2.23,0,0,0,.86.73,1.11,1.11,0,0,0,.92-.06,2.82,2.82,0,0,0,.91-.71,8,8,0,0,0,.76-1,28.21,28.21,0,0,0,2.11-5c.61-1.75,1.17-3.52,1.75-5.3.29-.89.57-1.79.87-2.67l.44-1.33c.08-.22.15-.45.23-.67s.12-.35.2-.53l-.75.29a13.9,13.9,0,0,1-2.56.64,8.54,8.54,0,0,1-1.34.1,2.89,2.89,0,0,1-1.09-.21,1.67,1.67,0,0,1-.12.23,10,10,0,0,1-.06,1.81C76.6,57,76.47,57.72,76.29,58.46Z"/><path d="M55.14,83l.72-.81.35-.42.17-.2.13-.17.16-.2.16,0a3.71,3.71,0,0,0,1-.63c.36-.28.71-.59,1-.91.69-.64,1.35-1.32,2-2s1.27-1.43,1.88-2.17c.3-.37.6-.75.89-1.13s.3-.39.5-.68a3.63,3.63,0,0,1-1.12.64,2.38,2.38,0,0,1-.79.22,1.6,1.6,0,0,1-.68-.09,5.67,5.67,0,0,1-.9,1,7.8,7.8,0,0,1-1.2.87,6.36,6.36,0,0,1-1.38.61,3.26,3.26,0,0,1-.79.15,1.64,1.64,0,0,1-.48,0l-.07,0a8.41,8.41,0,0,1-1.06,1A12.6,12.6,0,0,1,54.25,79a10.81,10.81,0,0,1-1.62.85,5.3,5.3,0,0,1-.93.28,3,3,0,0,1-.69,0A28.45,28.45,0,0,1,49,82.64a12,12,0,0,1-1.37,1.28,3.9,3.9,0,0,1-.9.54,1.78,1.78,0,0,1-.66.15,1.19,1.19,0,0,1-.32,0,6.06,6.06,0,0,1-2.59,1.12,5.3,5.3,0,0,1-1.64,0,4.39,4.39,0,0,1-1.25-.34A4.62,4.62,0,0,1,39,86a4.23,4.23,0,0,1-1.37.13c-.2.6-.46,1.18-.72,1.76s-.61,1.35-.92,2c-.62,1.34-1.29,2.65-1.95,4S32.68,96.5,32,97.8l-.63,1.13a1.59,1.59,0,0,0,.53,0,5.5,5.5,0,0,0,1.09-.4c.71-.36,1.37-.78,2.05-1.21s1.32-.89,2-1.37,1.27-1,2-1.44l.34-.23.33.32a1.06,1.06,0,0,0,.88.25,3.72,3.72,0,0,0,1.15-.33,6.36,6.36,0,0,0,1.13-.65,5,5,0,0,0,.52-.39,3,3,0,0,0,.4-.39l.18-.22.3,0a2.32,2.32,0,0,0,.78-.28,8.55,8.55,0,0,0,.86-.52c.57-.39,1.11-.84,1.66-1.3,1.1-.93,2.14-1.94,3.17-3s2-2.08,3-3.15Z"/><path d="M53.73,63.06a2.32,2.32,0,0,1-.6-.44l-.31.28c-1.67,3.75-3.56,7.4-5.59,11L46,76a3.58,3.58,0,0,0,3.08.79l.56-.89c.56-.84,1.07-1.72,1.6-2.58,1-1.76,2-3.54,2.9-5.37.77-1.54,1.5-3.12,2.14-4.73a4.93,4.93,0,0,1-1.17.14A3.05,3.05,0,0,1,53.73,63.06Z"/><path d="M45.55,93.75a4.13,4.13,0,0,1-1,.34,4.5,4.5,0,0,1-.43.37,6.62,6.62,0,0,1-.64.44,8.65,8.65,0,0,1-1.32.68l-4.57,9.83a2,2,0,0,0,2.06.4c1.06-2.11,5.06-10,6.21-12.22Z"/><path d="M40.54,96h-.3c-.39.88-.8,1.75-1.22,2.61-.55,1.11-1.12,2.2-1.71,3.28s-1.14,2.09-1.78,3.09c.2.33.68.53,1.47.31l5.1-9.64A4.2,4.2,0,0,1,40.54,96Z"/><path d="M51.48,78.89a3.52,3.52,0,0,0,.42-.09,3.87,3.87,0,0,1-.49,0l-.12.16A.65.65,0,0,0,51.48,78.89Z"/><path d="M75.55,55.63a8.65,8.65,0,0,1-1.92,1.13,8,8,0,0,1-2.18.61,3.72,3.72,0,0,1-.67,0,27.39,27.39,0,0,1-1.42,4q-1,2.34-2.27,4.57c-.39.76-.83,1.48-1.24,2.23s-.89,1.45-1.37,2.14-1,1.37-1.54,2-.88,1-1.34,1.53A1.58,1.58,0,0,0,63,74a8.27,8.27,0,0,0,1.63-1.09l.17.12A.55.55,0,0,0,65,73l.35-.09a5.3,5.3,0,0,0,.71-.29,14.07,14.07,0,0,0,1.36-.78c.44-.29.87-.6,1.28-.91a8,8,0,0,0,1.12-1l.22-.26s.6-.91.88-1.39c.35-.66.71-1.31,1.07-2,.69-1.31,1.51-2.54,2.16-3.87a26.26,26.26,0,0,0,1.68-4.11,19.41,19.41,0,0,0,.57-2.15,12.36,12.36,0,0,0,.2-1.62A5.37,5.37,0,0,1,75.55,55.63Z"/><path d="M57.57,62.84a8.27,8.27,0,0,1-1.13.36c-.55,1.69-1.21,3.33-1.9,5-.83,1.87-1.73,3.71-2.68,5.52l-1,1.95a6,6,0,0,0,1.39.64c.14-.22.27-.42.36-.58.5-.84,1-1.67,1.56-2.5s1.05-1.68,1.56-2.52c1-1.71,2-3.44,2.82-5.22.7-1.39,1.36-2.81,1.93-4.27-.23.18-.46.36-.71.52A12.28,12.28,0,0,1,57.57,62.84Z"/><path d="M62.14,60.71a3.16,3.16,0,0,1-.92-.22c-.19.18-.37.36-.57.52-.5,1.57-1.11,3.11-1.75,4.64-.8,1.82-1.68,3.62-2.6,5.38a52.08,52.08,0,0,1-3,5.16c-.06.1-.14.2-.21.3A6.47,6.47,0,0,0,56,76.31a3,3,0,0,0,.31-.31l.15-.16c.26-.48.52-.94.8-1.4.43-.73.86-1.45,1.31-2.17.86-1.44,1.86-2.8,2.73-4.23s1.72-2.9,2.48-4.4A28.33,28.33,0,0,0,65.37,60a9.65,9.65,0,0,1-1.86.61A5.11,5.11,0,0,1,62.14,60.71Z"/><path d="M69.56,57.11a5.24,5.24,0,0,1-.51.54,12.37,12.37,0,0,1-1,.8,13,13,0,0,1-2.15,1.29l-.35.16a28,28,0,0,1-1.41,3.94c-.68,1.55-1.44,3.08-2.27,4.56-.39.76-.83,1.49-1.23,2.23s-.89,1.45-1.38,2.14-1,1.37-1.53,2l-.28.32L57,76a.4.4,0,0,0,.31.09,2.6,2.6,0,0,0,.6-.06A6.87,6.87,0,0,0,61.31,74c.35-.67.72-1.32,1.11-2s.86-1.45,1.31-2.17c.86-1.44,1.86-2.8,2.73-4.23s1.72-2.9,2.49-4.4a28.74,28.74,0,0,0,1.67-3.81,2.58,2.58,0,0,1-.39,0A2.17,2.17,0,0,1,69.56,57.11Z"/><path d="M72.84,106.07s-.5.71-.81,1.2a5.25,5.25,0,0,1,3.47.73A2.48,2.48,0,0,0,72.84,106.07Z"/><path d="M75,105.1c.18-.54.37-1.08.58-1.61a23.73,23.73,0,0,1-3.7-1c-.68-.24-1.35-.5-2-.77a3.52,3.52,0,0,1-.49-.22,3.17,3.17,0,0,1-.49-.24,3,3,0,0,1-.9-.68,5.58,5.58,0,0,1-1.12-2,11,11,0,0,1-.53-2.16,13.34,13.34,0,0,1-.12-2.19,11.23,11.23,0,0,1,.18-1.83c0-.1-.06-.2-.09-.3a3.71,3.71,0,0,0-.26-.53,3.33,3.33,0,0,0-.78-.89,1.36,1.36,0,0,0-.21-.1c0,1.66.16,3.31.24,5s.14,3.36.39,5a6.42,6.42,0,0,0,.65,2.36s.09.1.13.16c.53-.09,1.08-.16,1.62-.24s1.21-.13,1.81-.22l.13,0,.17.13a6.09,6.09,0,0,1,.55.46,4,4,0,0,1,.47.53,5,5,0,0,1,.66,1.07.35.35,0,0,1,.14,0c.31,0,.63.06.94.1l.06-.08c-.17.24-.41.59-.59.88h-.06a23.74,23.74,0,0,1-4-1.32c-.39-.17-.79-.32-1.16-.52a6.27,6.27,0,0,1-.58-.29,1.78,1.78,0,0,1-.52-.46,4.73,4.73,0,0,1-.64-1.16,8.28,8.28,0,0,1-.43-1.24,22.39,22.39,0,0,1-.62-5.14,24.43,24.43,0,0,1,.12-2.57A13.64,13.64,0,0,1,65,90.63a.94.94,0,0,0-.63.18,2.5,2.5,0,0,0-.82.86,3.34,3.34,0,0,0-.37,1.17c-.06.44-.15.87-.24,1.3-.18.87-.38,1.73-.61,2.57l-.13.48c.12.36.23.72.33,1.1.15.56.27,1.13.39,1.71s.21,1.15.26,1.74a8.65,8.65,0,0,1,0,1.25c-.31-.49-.76-1.12-.76-1.12a2.47,2.47,0,0,0-2.65,1.93,5.26,5.26,0,0,1,3.41-.74c0,.16,0,.32,0,.49l0,.2-.17,0c-.51.09-1,.08-1.49.12a4.93,4.93,0,0,0-1.4.19.47.47,0,0,0-.22.14.73.73,0,0,0-.07.29,5.48,5.48,0,0,0,0,.7c.05.31.11.63.18.94a3.79,3.79,0,0,1,1.28-.61,2.6,2.6,0,0,1,1-.08,2.44,2.44,0,0,1,.5.12l.42.13c.55.17,1.1.34,1.65.53l1.54.54.78-.16c-.67-.53-1.33-1.08-2-1.67a0,0,0,0,1,0-.06.07.07,0,0,1,.06,0c1,.5,2,1.06,3,1.65l.24.15c1.14.09,2.27.22,3.39.35.26-.43.53-.84.81-1.25l-.1,0a5.32,5.32,0,0,1,3.35.73A2.36,2.36,0,0,0,75,105.1Zm-1.74-.52,0,0a3.32,3.32,0,0,1,.78.14A3.19,3.19,0,0,0,73.28,104.58Z"/><path d="M76,103.73s-.5.71-.81,1.2a5.31,5.31,0,0,1,3.47.73A2.48,2.48,0,0,0,76,103.73Z"/><path d="M56.49,107A5.27,5.27,0,0,1,60,106.3c-.31-.5-.81-1.21-.81-1.21A2.48,2.48,0,0,0,56.49,107Z"/></svg>