<svg id="Layer_1" data-name="Layer 1" xmlns="http://www.w3.org/2000/svg" width="128" height="128" viewBox="0 0 128 128"><defs><style>.cls-1{fill:#e29b29;}</style></defs><title>Artboard 114</title><path class="cls-1" d="M76.35,75.6c0-.19-.22-.26-.4-.26a.36.36,0,0,0-.29.37A5.94,5.94,0,0,1,74.1,78.9c.55-4.9-1.81-13.3-4.53-18a.4.4,0,0,0-.48-.15.34.34,0,0,0-.18.44c.91,2.44-.54,7.13-1.67,8.47-6-7.27-5.66-20.36-5.62-20.51a.43.43,0,0,0-.26-.36.36.36,0,0,0-.39.11c-.8,1-2.29,6.33-3,12.65a18.41,18.41,0,0,1-5.77,11.64c-.15-1.45-.51-4.69-1.13-5.64a.33.33,0,0,0-.39-.14.39.39,0,0,0-.26.36c.15,1.93-.65,3.49-1.56,5.31a19.25,19.25,0,0,0-2.5,9.42A11.25,11.25,0,0,0,51,91.92a16.53,16.53,0,0,0,10,3.35h0a16.56,16.56,0,0,0,11.72-4.8,15.76,15.76,0,0,0,2.43-3C77.33,84.1,77.08,78,76.35,75.6Zm-22.5,6.5a4,4,0,0,0,3.38,2.62.39.39,0,0,0,.4-.32c.25-3.75,2-8.51,3.12-11.24a16.7,16.7,0,0,0,2.61,9.53.36.36,0,0,0,.44.11,8.11,8.11,0,0,0,4-4.15c1.74,5,.65,8.29-.62,10.15a7.54,7.54,0,0,1-5.88,3.41,7,7,0,0,1-5.7-2.32C53.71,87.6,53.67,84.14,53.85,82.1Z"/><path class="cls-1" d="M42.84,122.78s-1.56.81-2.52.5c-1.92-.6-1-2.86-1-2.86s-4.13,4.83-2.43,7.58A8.07,8.07,0,0,1,32,122.66a7.9,7.9,0,0,1,1.49-7.25c.21.33.58,2,1.7,2s1.59-1.41,1.68-1.93c.13-.77-1.9-4.47,3-8.51-.47,3.41,1.54,3.42,3.51,5.64s3.68,4.66,4,7.79a7.4,7.4,0,0,1-4.2,7.31C44.22,125.78,44,124.72,42.84,122.78Z"/><path class="cls-1" d="M111.12,107.36s-1.28.66-2.08.41c-1.58-.5-.84-2.37-.84-2.37s-3.42,4-2,6.27a6.69,6.69,0,0,1-4-4.41,6.56,6.56,0,0,1,1.23-6c.18.27.48,1.68,1.4,1.68s1.33-1.16,1.4-1.59c.1-.63-1.57-3.7,2.51-7-.39,2.81,1.27,2.82,2.9,4.66a11.5,11.5,0,0,1,3.32,6.44,6.13,6.13,0,0,1-3.48,6C112.27,109.84,112.1,109,111.12,107.36Z"/><path class="cls-1" d="M17.74,113.39c-1.56-.07-3.11-.11-4.67-.12s-5.6-.2-7.19-.34S.63,110.19,0,108.6l.16-.14a51.08,51.08,0,0,0,5.91,2.77c1.39.37,5.56.23,7.1.49s3.09.56,4.61,1Z"/><path class="cls-1" d="M29.22,66c-1.1-1.35-2.2-2.7-3.18-4.07s-1.67-2.83-2.54-4.15a21.91,21.91,0,0,1-2.17-4.3h0c-.2-1.18-.43-2.36-.73-3.54-.28-1-.56-2-.84-2.86s-.6-1.76-.83-2.66l-.71-2.71-.6-2.75c-.76-3.8-1.28-7.42-1.72-11.13-.11-.83-.18-1.67-.28-2.5.39.45.8.88,1.19,1.3,2.09,2.21,3.08,5.54,5.22,7.64l.17-.1c-1.64-2.39-2.35-6-4-8.29-.86-1.15-1.45-2.37-2.17-3.49a16.18,16.18,0,0,1-.84-1.52c-.47-5.17-.77-10.37-1.12-15.59l-.55,0c-.36,7.52-.56,15.1-.31,22.67.13,2.82-.15,5.64.13,8.47-.09.64-.19,1.27-.34,1.89a29.52,29.52,0,0,1-1.3,4.4L9.74,47.15C9.15,48.67,9.41,50,9,51.49l.2,0c.75-1.45.69-2.66,1.53-4.08l2.49-4.29c.26-.46.52-.94.77-1.43l.06.41L14.54,45c.18,1,.45,1.9.68,2.85s.38,1.79.58,2.68c1.22,7.16.11,14.66-.08,22.08L15.2,83.85c-.17,3.75-2.67,7.6-2.64,11.42a6.65,6.65,0,0,0,4,0c2-.71,5.19,0,5.19,0,1.52-3.63-.66-18.55-.12-22.34a68.49,68.49,0,0,0,.53-11.46c0-.32-.05-.64-.07-.95.65.84,1.4,1.61,2.12,2.37,1.26,1.31,2.59,2.53,3.91,3.75s.92,1.89,2.22,3.12l.23-.12C29.64,68.2,30.28,67.33,29.22,66Z"/><path class="cls-1" d="M37.08,90.55c-.42-.16-5-1.85-5.36-1.85s-.68.53-.59.72,2.12.62,3.93,1.38c-2.19.28-4,.55-4.59.66a19.67,19.67,0,0,1-4.91.39l0,.21a17.86,17.86,0,0,0,5.06.46c1.7-.08,3.38-.3,5-.51s3.31-.24,4.89-.56,3.17-.58,4.87-1l0-.21C44.53,89.82,40.68,90.13,37.08,90.55Z"/><path class="cls-1" d="M116.49,65.68a29.61,29.61,0,0,1,3.26-.8c.31,0,.35.32.26.51s0-.39-.84.78a27.62,27.62,0,0,0,3.89.06,19.18,19.18,0,0,0,4.91.4l0,.21a17.89,17.89,0,0,1-5.06.46c-1.7-.08-3.38-.31-5-.51S107,65.7,107,65.7l1.1-.62S115.55,65.57,116.49,65.68Z"/><path class="cls-1" d="M108.41,18.46l-2.14,10.18S99.62,34,97.83,35.3c-.11-3.39-.19-6.79-.22-10.18s0-6.63,0-9.94A127.93,127.93,0,0,0,96.34,0h-.78c.14,7-1.82,19.11-1.94,25.77l0,1.29L79,15.91,72.89,5.23H72.1L78,17.05l6,5.85a.47.47,0,0,1-.39.8l-6.74-.28v1.64l7.59,0a6.94,6.94,0,0,1,4.42,1.59c1.65,1.41,3.86,3.46,4.56,5,0,1.35-.07,2.71-.13,4-.11,3.3-.27,6.57-.5,9.81s-.64,6.46-1,9.69l-1.2,9.73C89.89,71.45,88.45,84,88.45,84s4.07,1.06,7.34-.18,7.35-.18,7.35-.18-2.27-5.56-2.58-8.86-.62-6.61-.89-9.92l-.82-9.92c-.25-3.31-.44-6.62-.64-9.93,0-1.15-.1-2.31-.14-3.46,2.16-4,9-10.66,9-10.66l1.84-12.08Z"/></svg>