<svg id="Layer_1" data-name="Layer 1" xmlns="http://www.w3.org/2000/svg" width="128" height="128" viewBox="0 0 128 128"><defs><style>.cls-1{fill:#d62525;}</style></defs><title>Wildfire (active)</title><path class="cls-1" d="M106.24,54.42a12.35,12.35,0,0,1-6.09,6.32c.2-2.82,2.16-6.25,2.35-10.74S100,39.91,93.9,36.66c3.73,7.16,0,15,0,15s-2.55.22-3.12-1.63-.22-6-1.23-12.9S83.46,23,78.56,19.31c1.76,3.47-.4,5-1,9.75C64.62,26,62.06,7.38,61.87,0,56.4,6.07,57.55,15.27,57.5,18.27c-.06,3.63.63,7.33,1.42,12.1-1.37-1.52-12.77-13-18.06-12.37,7.65,4.13,12.56,19.53,9.42,23.21s-11-3.06-19-8.68c4.69,4.78,5.89,14.07,6.48,21.88C31.47,51.12,25,50.5,21,53.36a11.09,11.09,0,0,1,8.44,5c1,1.36.78,7.28.93,13.59.17,8.38,3.6,16.4,9.67,21.43C45.79,98.12,56.22,100,68,100s26.51-2.61,34-12.81S106.43,59.87,106.24,54.42ZM66.14,94.66c-10,0-15.63-2.34-19-6.66S42.35,74.26,45,66.61c2.67,3.9,5,6.47,7.64,4.68s5-9,4.08-12.92c3.91,4.12,6.75,6.87,8.35,8.64C66,61.9,69.16,50.92,81.41,45.82c-1.57,4.89-5.15,13.93-2.84,20.4,3.55,2.34,9.59,1,13.67-5.69C92.78,67,92.06,94.66,66.14,94.66Z"/><path d="M22.07,128l-3.24-16.5h2.8l2,11.34,2.47-11.34h3.26L31.77,123l2.08-11.53H36.6L33.31,128h-2.9L27.7,115.66,25,128Z"/><path d="M37.91,128V111.5h2.72V128Z"/><path d="M43.32,128V111.64H46v13.57h6.8V128Z"/><path d="M54.78,111.5h5a7.43,7.43,0,0,1,2.85.42,4.77,4.77,0,0,1,1.77,1.43,7.26,7.26,0,0,1,1.27,2.6,14.43,14.43,0,0,1,.46,4,12.92,12.92,0,0,1-.48,3.72,7.47,7.47,0,0,1-1.23,2.5,4.65,4.65,0,0,1-1.79,1.39,6.73,6.73,0,0,1-2.71.47H54.78Zm2.72,2.79v10.92h2a5.24,5.24,0,0,0,1.91-.25,2.21,2.21,0,0,0,1-.75,4.18,4.18,0,0,0,.63-1.58,13.42,13.42,0,0,0,.25-2.84A12.82,12.82,0,0,0,63,116.9a3.93,3.93,0,0,0-.78-1.67,2.56,2.56,0,0,0-1.3-.79,10.65,10.65,0,0,0-2.22-.15Z"/><path d="M68.45,128V111.5h9.28v2.79H71.18v3.91h5.67V121H71.18v7Z"/><path d="M79.9,128V111.5h2.72V128Z"/><path d="M85.24,128V111.5H91a8.15,8.15,0,0,1,3.15.44,3.54,3.54,0,0,1,1.55,1.54,5.33,5.33,0,0,1,.61,2.63,4.89,4.89,0,0,1-.93,3.12,4.12,4.12,0,0,1-2.64,1.49,6.82,6.82,0,0,1,1.45,1.37,19.9,19.9,0,0,1,1.57,2.69L97.4,128H94.14l-2-3.59A22.78,22.78,0,0,0,90.71,122a2,2,0,0,0-.81-.67,3.53,3.53,0,0,0-1.37-.19H88V128ZM88,118.48h2a10,10,0,0,0,2.37-.17,1.52,1.52,0,0,0,.82-.65,2.43,2.43,0,0,0,.31-1.32,2.28,2.28,0,0,0-.31-1.27,1.6,1.6,0,0,0-.86-.65,10,10,0,0,0-2.21-.13H88Z"/><path d="M98.89,128V111.5h10v2.79h-7.31V118h6.8v2.78h-6.8v4.48h7.56V128Z"/></svg>