<svg id="Layer_1" data-name="Layer 1" xmlns="http://www.w3.org/2000/svg" width="128" height="128" viewBox="0 0 128 128"><defs><style>.cls-1{fill:#d62525;}</style></defs><title>Artboard 113</title><path class="cls-1" d="M118.06,69.82a15.8,15.8,0,0,1-7.79,8.09c.25-3.61,2.76-8,3-13.74s-3.26-12.92-11-17.08c4.77,9.16,0,19.16,0,19.16s-3.27.28-4-2.08S98,56.53,96.7,47.65s-7.79-18-14.07-22.77c2.26,4.44-.51,6.38-1.26,12.49C64.79,33.48,61.52,9.61,61.27.17c-7,7.77-5.53,19.55-5.59,23.38-.07,4.65.81,9.38,1.82,15.49-1.76-1.95-16.34-16.66-23.12-15.83,9.8,5.28,16.08,25,12.06,29.71S32.37,49,22.07,41.81c6,6.11,7.54,18,8.29,28-8-4.21-16.33-5-21.36-1.35a14.22,14.22,0,0,1,10.81,6.39c1.26,1.74,1,9.32,1.19,17.39.21,10.73,4.6,21,12.37,27.43,7.33,6.08,20.67,8.49,35.69,8.49s33.92-3.34,43.47-16.39S118.31,76.8,118.06,69.82ZM66.74,121.33c-12.73,0-20-3-24.32-8.53S36.29,95.22,39.7,85.42c3.41,5,6.36,8.29,9.77,6S55.83,79.9,54.7,74.88c5,5.27,8.63,8.79,10.68,11.05,1.13-6.53,5.22-20.59,20.9-27.12-2,6.27-6.59,17.83-3.63,26.11,4.54,3,12.27,1.26,17.5-7.28C100.83,85.93,99.92,121.33,66.74,121.33Z"/></svg>