<svg id="Layer_1" data-name="Layer 1" xmlns="http://www.w3.org/2000/svg" width="128" height="128" viewBox="0 0 128 128"><title>Artboard 115</title><path d="M20.14,127.75l-3.24-16.5h2.8l2,11.34,2.48-11.34h3.25l2.38,11.53,2.08-11.53h2.75l-3.29,16.5h-2.9l-2.71-12.34-2.68,12.34Z"/><path d="M36.21,127.75v-16.5h2.72v16.5Z"/><path d="M41.85,127.75V111.39h2.72V125h6.8v2.79Z"/><path d="M53.54,111.25h5a7.43,7.43,0,0,1,2.85.42,4.77,4.77,0,0,1,1.77,1.43,7.26,7.26,0,0,1,1.27,2.6,14.43,14.43,0,0,1,.46,4,12.92,12.92,0,0,1-.48,3.72,7.29,7.29,0,0,1-1.23,2.5,4.65,4.65,0,0,1-1.79,1.39,6.71,6.71,0,0,1-2.7.47H53.54ZM56.26,114V125h2.05a5.24,5.24,0,0,0,1.91-.25,2.24,2.24,0,0,0,1-.75,4.2,4.2,0,0,0,.62-1.58,12.79,12.79,0,0,0,.25-2.84,13.54,13.54,0,0,0-.25-2.89A3.84,3.84,0,0,0,61,115a2.45,2.45,0,0,0-1.3-.8A10.52,10.52,0,0,0,57.5,114Z"/><path d="M67.5,127.75V111.39h2.72V125H77v2.79Z"/><path d="M79.12,127.75v-16.5h2.73v16.5Z"/><path d="M84.71,127.75v-16.5H94V114H87.43V118h5.68v2.79H87.43v7Z"/><path d="M96.48,127.75v-16.5h10V114H99.2v3.66H106v2.78H99.2V125h7.56v2.79Z"/><path d="M53.5,42.36A33.18,33.18,0,0,1,45.88,54.9a14.75,14.75,0,0,1-2.14,1.81C40.2,59.1,36,59.3,33.2,57.17c-2.61-2-3.61-6.14-1.76-10.06a48.32,48.32,0,0,1,5.71-9c4-5.14,7-10.68,7.57-17.26.19-2.39-.35-4.84-.35-7.26A77.55,77.55,0,0,1,44.77,5a2.71,2.71,0,0,1,.84-1.4,1.39,1.39,0,0,1,1.85-.2,3.31,3.31,0,0,1,1,1C55,15.76,57.85,27.7,53.5,42.36Z"/><path d="M42.83,1.87A13.7,13.7,0,0,1,41,6.78a23.84,23.84,0,0,1-3.7,5.16c-5.84,6.23-7.76,13.69-7.27,22,.18,3.09.54,6.18.45,9.27a18.1,18.1,0,0,1-1.25,5.71c-1,2.78-2.91,4.92-6.09,5.17s-5.8-1.32-7.57-4c-2.85-4.38-2.9-9.25-2.31-14.18C15.31,19.6,24.79,8.55,39.07,1.7c1.45-.7,1.53-.43,2.86-.7a.8.8,0,0,1,.89.68A1.28,1.28,0,0,1,42.83,1.87Z"/><path d="M99,102.76a9.89,9.89,0,0,1-4-.11c-1.59-.38-3.19-.8-4.78-1.08-5.13-1-10.16-.08-15.19.93a20.17,20.17,0,0,1-9.49-.14,9.11,9.11,0,0,1-5.12-3.27,7,7,0,0,1-.08-8.43,27,27,0,0,1,5.58-6c3.83-2.93,7.8-5.65,10.74-9.56a13.15,13.15,0,0,1,2.61-2.39,9.13,9.13,0,0,1,11.16-.42,69.05,69.05,0,0,1,6,5.34,74.59,74.59,0,0,0,7.09,6.14c3.4,2.32,5.66,5.07,5.09,9.35a10.69,10.69,0,0,1-7.32,9A12.64,12.64,0,0,1,99,102.76Z"/><path d="M83.72,52.5a16.89,16.89,0,0,1,.54,8.61,21.29,21.29,0,0,1-.64,2.62c-.91,2.81-3.06,4.05-6,4.13a6,6,0,0,1-6.17-3.65,13.35,13.35,0,0,1-.88-8.65,28.61,28.61,0,0,1,2.48-7.3c1.8-3.37,4.78-3.59,7.48-.91A12.94,12.94,0,0,1,83.72,52.5Z"/><path d="M69.13,64.9a16.79,16.79,0,0,1,.38,8.53,22.48,22.48,0,0,1-.73,2.64c-.94,2.75-3.14,3.85-6,3.91a6.05,6.05,0,0,1-6.11-3.75,16,16,0,0,1-.43-10.68,20.64,20.64,0,0,1,2.39-5.64c1.77-2.81,4.55-3,7-.7A13.18,13.18,0,0,1,69.13,64.9Z"/><path d="M86.89,59.73c.22-4.18,1.08-8,3.41-11.39,2.17-3.12,5.06-3.33,7.6-.51,2.85,3.18,3.51,7.05,3.19,11.15a18.06,18.06,0,0,1-1,4.71,6.51,6.51,0,0,1-7.41,4.49c-3.1-.37-5-2.39-5.58-5.92C87,61.36,87,60.47,86.89,59.73Z"/><path d="M101.12,72.18a19.73,19.73,0,0,1,2.32-9.34c2.17-4,5.36-4.3,8.33-.9,3.34,3.83,4.26,11.62,2,16.17-1.19,2.39-3.19,3.18-5.65,3.26s-4.49-.79-5.5-3A16.14,16.14,0,0,1,101.12,72.18Z"/></svg>