<svg id="Layer_1" data-name="Layer 1" xmlns="http://www.w3.org/2000/svg" width="128" height="128" viewBox="0 0 128 128"><title>Artboard 112</title><path d="M11.35,15.74a19.25,19.25,0,0,0,1,3.09l0,.08V19a2.64,2.64,0,0,1,0,.29h0a.86.86,0,0,1,.33.23,3.39,3.39,0,0,1,.65,1.55c.05.15,0,.34.12.49s.15.23,0,.34a.34.34,0,0,1-.45.07,2.67,2.67,0,0,0-.48-.29c0,.19.06.39.1.58l.08,0c.65-.1.87.11,1,.73,0,.2-.14.25-.25.31l-.28.14a12.8,12.8,0,0,0,.58,1.18c.09.16.18.32.28.48A15.07,15.07,0,0,1,15,26.8c.29-.95,1.37-1.46,1.87-1.92l.15-.17.05-.08.09-.15a3.44,3.44,0,0,1,.44-.63A3,3,0,0,1,19,23a11,11,0,0,1,2.86-.26h.28c0-.24-.09-.47-.15-.71s-.17-.71-.28-1.06a9.89,9.89,0,0,1-1.74-1c-.62-.41-1.23-.91-1.81-1.21L18,18.73l-.07-.14c-.38-.7-.79-1.37-1.21-2.05a12.9,12.9,0,0,0-1.41-1.89,5.51,5.51,0,0,0-1.92-1.39,5,5,0,0,0-2.25-.37.93.93,0,0,0-.14.48,4,4,0,0,0,.05.77A11.21,11.21,0,0,0,11.35,15.74Zm3.45,2.87c-.77.06-.77.06-.89-.87A4.32,4.32,0,0,1,14.8,18.61Z"/><path d="M109.61,83.11a.18.18,0,0,0,.23.12c.36,0,.59-.53.44-.94,0-.11-.07-.2-.19-.18s-.22,0-.23.2a1.07,1.07,0,0,1-.17.59C109.64,83,109.55,83,109.61,83.11Z"/><path d="M112.16,85V85a3.15,3.15,0,0,0,.07.59,24.9,24.9,0,0,0-1.54,3c-.28-.15-.54,0-.8,0s-.5,0-.5-.39.18-.59.44-.57.36-.13.55-.3c.41-.39.64-.91,1-1.33.06-.08.11-.11,0-.19-.29-.28-.14-.47.09-.63a.29.29,0,0,0,.13-.25c0-.14-.12-.38.17-.28a1.3,1.3,0,0,0,.22,0c-.32-.58-.67-1.15-1-1.72a2.16,2.16,0,0,1-.05.27,9.76,9.76,0,0,0-.24,1.1.59.59,0,0,1-.68.52c-.31,0-.43-.26-.43-.57a1.16,1.16,0,0,0-.27-.82.7.7,0,0,1-.13-.45c0-.34.09-.64-.24-.86-.09-.06-.19-.36.18-.28s.35-.5.59-.72a.26.26,0,0,0,.06-.13l-.25-.39a.61.61,0,0,0-.07-.1.09.09,0,0,1,0-.06c-.31-.48-.62-1-.93-1.44l-1-1.59-.06-.08-.2-.34a13.31,13.31,0,0,1-.81-1.42,21.42,21.42,0,0,1-.76-2.87c0-.16-.06-.31-.09-.48s-.06-.36-.1-.55a38.53,38.53,0,0,1-.58-3.92,17.7,17.7,0,0,1,.48-4,43.18,43.18,0,0,1,2.13-7.59,12.33,12.33,0,0,0-.84,1.95,16.26,16.26,0,0,1-.6,1.69,10.46,10.46,0,0,1-.92,2C104.42,63,103.55,64,102.73,65a16.49,16.49,0,0,0-2.14,3.19,9.28,9.28,0,0,0-.19,3.74A36.5,36.5,0,0,0,101,75.8a11.06,11.06,0,0,0,.49,1.84c0,.09.07.17.11.27.5.61,4.51,5.54,5.57,8.8a2.21,2.21,0,0,1,0-.35,1.08,1.08,0,0,0-.18-.92,1.58,1.58,0,0,1-.38-1.11c0-.68-.26-1.32-.24-2a.68.68,0,0,0-.39-.67,9.07,9.07,0,0,0-.57-1.43c-.45-.76-.72-1.61-1.09-2.39.35.16.56-.1.77-.37.08-.1.1-.38.28-.22s.43.32.37.5c-.2.61.28.66.49.85a1,1,0,0,1,.37.56,2.2,2.2,0,0,0,.32.92c.27.41.18.94.35,1.38h0a11.43,11.43,0,0,1,.67,2.1c.26.76.28,1.59.6,2.35a3.38,3.38,0,0,1,0,1.55c0,.33,0,.57.25.67,0,.13-.11.14-.17.1a1.06,1.06,0,0,0-1.18-.24h0a10.89,10.89,0,0,1-.1,3.13,15,15,0,0,1-.46,2c-.2.67-.46,1.29-.68,1.9l-1.4,3.54a2.68,2.68,0,0,1-.16.39,1.58,1.58,0,0,1-.33.31,1.74,1.74,0,0,1-.68.24.35.35,0,0,1-.14,0c-.56-.07-2-.73-3.14-.2A3.3,3.3,0,0,0,99,101a.55.55,0,0,0,0,.17,1.81,1.81,0,0,0-.09.31q4.16,0,8.29.1a.6.6,0,0,0,.13-.28,123,123,0,0,1,5-14.82,1.66,1.66,0,0,0-.09-1.44S112.16,85,112.16,85Z"/><path d="M25.08,38.59a22.58,22.58,0,0,1,3-.69c.49,0,1-.14,1.46-.23a1.86,1.86,0,0,0,.6-.17l.12,0c0-.08.09-.19.15-.3s.11-.26.15-.4h0a1.72,1.72,0,0,0-.08-.48,5.57,5.57,0,0,1-.62-1.68,2.4,2.4,0,0,0-.3-.73.17.17,0,0,0-.22-.1c-.1,0-.22.11-.16.18.13.23,0,.6.42.71l-.78.25a1,1,0,0,1,.57,1l-.08.1a10.93,10.93,0,0,0-1.82-.41.68.68,0,0,1-.6-.76c.1-.73-.07-1.45.09-2.19.07-.3-.33-.47-.57-.65,0,0-.1,0-.1,0-.22.78-.51-.08-.8,0,0,.31.36.36.55.59-.54.09-.77.52-1,.89s-.37.47-.89.36c0,0,0-.08.06-.08.45-.11.46-.12.42-.25-.11-.37-.25-.75-.75-.54a1,1,0,0,1-.62.09s0-.09,0-.1c.85-.69,1.27-1.44.63-2.53-.22-.38-.18-.9-.48-1.3a.76.76,0,0,0-.49-.38,4.77,4.77,0,0,1-.81-.26c-.35-.13-.76-.34-1.06.12a.17.17,0,0,1-.13.07,1.35,1.35,0,0,0-1.39.53l0,.05a2,2,0,0,1,.83-.51,2.41,2.41,0,0,1,1.6.3.31.31,0,0,1,.12.43,2.34,2.34,0,0,1-1.26,1,2.17,2.17,0,0,1-1.49-.23,1.88,1.88,0,0,0,.48.91c.21.23.52.49.36,1s.22.8,0,1.22a5.25,5.25,0,0,1-.91,1.14c.09-.21.17-.41,0-.59s-.32-.38-.13-.71-.56-.94-.89-.93c0,.18.43.2.14.46s-.16.56-.57.42c-.18-.06-.35-.08-.46.15a.44.44,0,0,0,.11.57c.2.22.3.56.54.82-.27-.11-.4.21-.74.14s-.69-.09-.73-.57c0,0-.08-.07-.13-.09A7,7,0,0,0,14.88,34a1.11,1.11,0,0,0-1.2.6,2.78,2.78,0,0,1,.63-1.23.93.93,0,0,0,.07-1,.63.63,0,0,1,0-.93c.35-.38.44-.94,1-1.18s.56-1.65.27-2.07c0,0-.06-.11-.09-.12-.3-.05-.6-.17-.89-.24a2.18,2.18,0,0,0-.25.83,12.44,12.44,0,0,0,.08,1.82v.16l-.11.13a15,15,0,0,1-2.54,2.49C11,33.94,10,34.6,9.17,35.35A3.09,3.09,0,0,0,9,36.63a1.34,1.34,0,0,0,.2.57c.12.16.27.33.43.51l1.8,1.82c.63-.09,1.26-.17,1.91-.21.35,0,.73,0,1.09,0a5.74,5.74,0,0,1,1,.13c1-.36,1.95-.51,2.86-.77a4.89,4.89,0,0,0,2.6-1.35l.08.05a4.43,4.43,0,0,1-2.43,2c-.74.27-1.46.52-2.16.79l-.7.29-.15.06-.2,0a5.58,5.58,0,0,0-.62-.07h0c-.42,0-.87-.05-1.32-.05s-.76,0-1.14.05a13.65,13.65,0,0,1,.67,1.21c.27.38.35.23,1,.15a9,9,0,0,1,1.39,0c.58.05,1.14.13,1.7.21.34.05.68.12,1,.15a2.3,2.3,0,0,0,1.75-.41c.85-.54,1.62-1.22,2.47-1.81A9.18,9.18,0,0,1,25.08,38.59Z"/><path d="M20.19,23.64a.46.46,0,0,0,.24-.28,4.47,4.47,0,0,0-1.34.3,8,8,0,0,0-1.23.91h0a2.15,2.15,0,0,1-.7.8s0,.21,0,.31a31.68,31.68,0,0,0,.1,3.23c0,.25.06.44-.2.6a.54.54,0,0,0-.24.8,2,2,0,0,1,.1.59.62.62,0,0,1,.83-.22c0-.5,1-.71.41-1.39,0,0,.05-.06.05-.09a9,9,0,0,0,.2-1c.06-.67.68-1,.93-1.52a1.61,1.61,0,0,0,.18-1.53c-.1-.19-.22-.57,0-.66C19.83,24.3,19.87,23.86,20.19,23.64Z"/><path d="M93,73.6c.1-.18.15-.5-.24-.44l.21.47S93,73.61,93,73.6Z"/><path d="M28.91,50.2A.64.64,0,0,0,29,51l.25.15a17.16,17.16,0,0,1,.41-1.9C29.47,49.65,29.08,49.82,28.91,50.2Z"/><path d="M31.33,52.42h0A0,0,0,0,1,31.33,52.42Z"/><path d="M114.32,55.1a1,1,0,0,0-.55-.93c0,.31-.38.52-.37.86a.45.45,0,0,1-.22-.13,14.06,14.06,0,0,0,1.41,2.45c0,.08.13.14.14.22a2.32,2.32,0,0,0,.43,1,2.19,2.19,0,0,0,1-.47l.07,0v-.1a1.22,1.22,0,0,1,.47-.69c-.18-.69-.37-1.37-.59-2a1.81,1.81,0,0,1-.24-.24,4.2,4.2,0,0,0-.44-.41c-.05.27,0,.65-.47.26C114.68,54.6,114.52,54.71,114.32,55.1Z"/><path d="M45.38,62.64c0,.07,0,.14.13.14S45.44,62.67,45.38,62.64Z"/><path d="M45.77,63.59c0-.07-.1-.06-.15,0a.19.19,0,0,0,0,.12,1.05,1.05,0,0,0,.13.08C45.78,63.67,45.79,63.62,45.77,63.59Z"/><path d="M118.91,70.62c0-.13,0-.28,0-.41h0s0,0,0,0c-.21-.33-.64-.59-.4-1.09a.32.32,0,0,0-.08-.35,6.49,6.49,0,0,1-.79-1.58.18.18,0,0,1-.13.11c-.12,0-.2,0-.29-.09a1.34,1.34,0,0,1-.41-.86c0-.19.1-.24.26-.24a9.38,9.38,0,0,1-.22-2.23c0-.14,0-.37.22-.37s.2.18.22.32c.07.49.52.78.62,1.24.06.29.24.65-.31.64a9.05,9.05,0,0,0,0,1.27,1.16,1.16,0,0,1,.67.65,2.23,2.23,0,0,0,.39.63c-.3-2.24-.66-4.49-1.08-6.71a.12.12,0,0,0-.17,0,.6.6,0,0,1-.21.56,6.7,6.7,0,0,1,0,.9l-.39-.65h0c-.13.06-.22,0-.32-.08s-.08.17-.2.18l-.09-.41c0-.08-.1-.24-.14-.19-.4.44-.9-.43-1.28.11-.08.11-.15,0-.17-.11s-.16-.4-.24-.6l-.1,0c-.26,0-.16.32-.27.48a1.33,1.33,0,0,1,.29-1.77c0-.17-.17-.35-.2-.54a3.25,3.25,0,0,0-.86-1.93,1.39,1.39,0,0,1-.31-1h0v0a.14.14,0,0,1,0-.06,0,0,0,0,1,0,0h0a5.78,5.78,0,0,0-.65-2.51l0,0a.63.63,0,0,0-.29.23c0,.09-.08.23-.23.16a.23.23,0,0,1-.12-.17c0-.25,0-.52,0-.78a2.79,2.79,0,0,1-.32-.28,3.27,3.27,0,0,1-.54-.81c-.14-.4,0-.36.3-.28,0-.06,0-.18.18-.16a1.15,1.15,0,0,1,.69.45l.13-.15a.7.7,0,0,1,1.13.12c.36.6.42.6.94.25a.5.5,0,0,1,.78.21l.12.21,0-.13c0-.15-.07-.28-.11-.42-.36-.85-.74-1.7-1.13-2.55l-.27-.54,0-.07c-.23-.46-.5-.91-.78-1.36-.58-.92-1.21-1.81-1.78-2.69a13.15,13.15,0,0,0-1.77-2c-.63-.62-1.3-1.22-2-1.78-1.26-.75-2.54-1.51-3.84-2.22l-1-.58-.79-.41,0,0-.07,0c0,.26,0,.62-.48.24-.24-.21-.4-.11-.6.28a1,1,0,0,0-.55-.92c0,.3-.38.51-.37.86-.5-.16-.57-.65-.8-1s-.45-.29-.66,0c0,.08-.09.22-.24.15a.25.25,0,0,1-.11-.16c0-.28,0-.56,0-.84l-.48-.12a28.62,28.62,0,0,0-6-.7l-.35,0a.27.27,0,0,0-.09.12c-.24.6-.84.5-1.25.75s-.16.26,0,.4c.31.37.8.27,1.19.5-.35.06-.68.14-1,.21-.09.22.23.25.16.46l-.42-.05c-.08,0-.25,0-.22.06.28.53-.71.7-.33,1.25.07.12-.1.11-.17.12l-.65,0-.07.07c0,.26.24.27.37.43A1.36,1.36,0,0,1,86.62,39h0l0,0h0c.12-.19.28-.21.52-.14a1.28,1.28,0,0,1-.29-1c.52-.28-.28-.23-.11-.43.38-.11.48-.38.26-.68s.05-.36.24-.44.55,0,.43-.42a.06.06,0,0,1,0-.07H85.42l-2.34,0a2.55,2.55,0,0,1-.5.24,3.78,3.78,0,0,0-.53.28c.24.14.6.25.08.53-.28.15-.24.35.06.67a1,1,0,0,0-1,.2c.3.08.34.53.67.64-.32.4-.8.31-1.24.39s-.43.32-.2.63c0,.09.18.17.06.27s-.14.09-.19,0c-.63-.27-1.39-.38-1.74-1.1a.71.71,0,0,1,.5-1c.69-.12.71-.18.57-.79a.49.49,0,0,1,.45-.67,1.07,1.07,0,0,0,.7-.23l.13-.11-1.1,0c-1.89,0-3.75-.06-5.63,0-1.56.06-3.12.16-4.69.27a6.89,6.89,0,0,1-.81.23c-.42.09-.9,0-1.25.31s.3.22.23.51a2.71,2.71,0,0,1-1.92.41,2.37,2.37,0,0,0-1.26.15,1.93,1.93,0,0,1-1.69-.25c.23-.31.6-.15.88-.28a2.15,2.15,0,0,1-1.09,0c.25-.2.48-.4.72-.58l-.42,0h-.09l-.09,0a24.14,24.14,0,0,0-6.09-.76c-.07.19-.27.22-.72.27-.18,0-.38,0-.46.22s-.26.15-.37.13a8.35,8.35,0,0,0-2.57.48c-.09,0-.35,0-.22.24s0,.33.27.26a2.06,2.06,0,0,1,.59,0c-.24.27-.5.15-.72.23,0,.21.14.35.22.52-.13.18-.34,0-.48.11.64.59.61,1.53,1.17,2.16-.06.24-.49-.06-.46.3l0,.08-.1,0c-.21,0-.42-.1-.63-.13s-.45-.2-.38.22c0,.06-.06.17-.09.17-.42,0-.81.29-1.22.29a.72.72,0,0,1-.46-.16,8,8,0,0,1-2.85-.46c.1-.3.35-.18.52-.24-.22-.06-.41-.09-.52-.28h-.84c.22-.31.74-.29.65-.75.5,0,.58-.59.95-.8.16-.11,0-.2-.16-.23s-.39,0-.4-.15.26-.19.41-.25.22,0,.28-.17c-.13-.25-.4-.27-.62-.36-.56-.24-.62-.49-.25-.94.08-.1.14-.18.06-.28-.42-.46,0-.37.24-.38l.81-.07a13.12,13.12,0,0,1-2.12-.52,4.83,4.83,0,0,0-.64-.22L45.13,35l-.46-.11c-.22,0-.41-.09-.63-.12h0a8.61,8.61,0,0,0-1.75-.14h-.11l-.09-.07-4.85-4.18c-1.49-1.29-3-2.57-4.58-3.76-.24.4-.48.78-.74,1.17a15.92,15.92,0,0,1-1.22,1.52l-.07-.08c.59-1.12,1.19-2.28,1.65-3.41a6.25,6.25,0,0,0,.3-.85,1.41,1.41,0,0,0,.06-.35,1.49,1.49,0,0,0-.08-.4,5.83,5.83,0,0,0-.7-1.58l-.2-.3.26-.34a2.82,2.82,0,0,0,.46-2.62,17.56,17.56,0,0,0-1.44-2.92,23,23,0,0,0-1.87-2.72,5,5,0,0,0-2.62-1.84,2.26,2.26,0,0,0-1.5.34,3.25,3.25,0,0,0-1.08,1.1,15.4,15.4,0,0,0-1.18,3l-.27.8-.28.76A4.17,4.17,0,0,0,22,19.44c.08.83.23,1.7.24,2.58,0,.24,0,.47,0,.71h.39l2,0v.09l-1.87.29a29.78,29.78,0,0,0,2.85,2.32c.18.12.5.29.27.64-.11.16,0,.23.13.29a5.18,5.18,0,0,0,.58.28c0-.15-.2-.19-.13-.31a.2.2,0,0,1,.29,0c.38.36,1.12.2,1.26.89,0,.15.22.11.34.1a.76.76,0,0,1,.72.39c-.16.3,0,.46.18.73a5,5,0,0,0,2.32,1.51,8.77,8.77,0,0,1,2.34,1.63,2.6,2.6,0,0,0,.91.59c0,.19-.25.09-.3.25l.71.28c-.21.3-.57.15-.83.36.27.28.38.68.73.91a.34.34,0,0,1,0,.63c-.47.23-.67.69-1.07,1-.16.12-.38.27-.11.52.12.11.1.23-.05.28s-.09.25-.08.31a2.08,2.08,0,0,1-.67,1.88c-.24.3-.39.24-.65.25s-.35-.05-.48.27-.61.15-.83-.11a3.78,3.78,0,0,0-.57-.49.23.23,0,0,1-.07-.07,5.16,5.16,0,0,1-.72.29c-.52.14-1,.25-1.52.35-1,.18-2,.3-3,.52a14.06,14.06,0,0,0-2.77,1,12.61,12.61,0,0,0-1.77,1,10,10,0,0,1,3.52,3.17c1,1.34,1.74,2.8,2.59,4.15A10,10,0,0,0,27.74,50a0,0,0,0,1,0,0,5,5,0,0,0,.4.4h0a1.17,1.17,0,0,0,.2.19.15.15,0,0,0,.08,0,.36.36,0,0,0-.05-.38h0a.69.69,0,0,0,.29-1c-.16-.48.06-.88,0-1.32-.19,0-.21-.21-.24-.36-.06.08-.12.16-.21.07s0-.16,0-.24a.17.17,0,0,1,.13-.1.28.28,0,0,1,.17.1c.24,0,.29-.07.08-.21s-.4-.38,0-.67c-.34-.06-.36.15-.41.3s0,.34-.25.29-.21-.27-.15-.4a3,3,0,0,0,.12-1.23c0-.51.07-1,.09-1.52a1.83,1.83,0,0,1,1.54-1.77c.27,0,.45-.22.68-.32s.45-.54.74,0c.05.1.74,0,1-.16.44-.36,1.11,0,1.43-.61.06-.09.67.54.73.67.11.28-.1.45-.14.67s.24.58.44.83.34.25,0,.49a.5.5,0,0,0,0,.7,1.06,1.06,0,0,1-.08,1.22c-.13.16-.08.28,0,.43h-.16c-.34-.06-.68-.62-.94-.3a2.49,2.49,0,0,0-.82,1.59c0,.26.05.5,0,.76a.77.77,0,0,0,1,.65c.19-.06.47-.15.53,0a.71.71,0,0,1,0,.69.52.52,0,0,0,0,.78c.14.13.34.27.24.59s.32.14.48.27.69,0,.35.49c-.06.08,0,.22.14.25.52.15.54.8,1.1.95-.27.15-.45,0-.64,0,0,.07,0,.15-.13.1s-.36-.33-.62-.23c-.41.18-.83.35-1.22.57-.13.07-.14.22-.14.38l.93.59,0,0c.79,1.38,1.28,2.85,2,4.19a12,12,0,0,0,2.66,3.63,28.27,28.27,0,0,1,3.18,3.45,10.72,10.72,0,0,1,1.94,4.36v0l0,.34c.12.21.29.39.42.6a3.69,3.69,0,0,1,.74,1.91c-.14-.22-.26-.44-.39-.65a4.12,4.12,0,0,0-.13.74c0,.22,0,.55.43.31.16.39-.06.69-.2,1s-.21.52-.3.78,0,.26.05.38c.14.9.23,1.81.32,2.71a12.24,12.24,0,0,1,.11,2.78,44.31,44.31,0,0,0-.23,6l.1,0,0,0c.2,0,.48,0,.46.19-.06.53,1,.47.57,1.13a.42.42,0,0,0,0,.54c.2.29-.11.67.14,1a3.63,3.63,0,0,0-1.2-.66c.11,1.66.28,2.66.28,2.66s0,.28-.09.71c.13-.21.28-.27.6-.08a1.69,1.69,0,0,0,.45.14c-.29.15-.48.29-.27.64.06.08,0,.22,0,.32s-.57.33-.13.64a.94.94,0,0,1-.7.35.27.27,0,0,1-.23-.09,39.55,39.55,0,0,1-.67,4.2l-.21.27A3.76,3.76,0,0,1,44,99a2.18,2.18,0,0,1-.44.11,1.18,1.18,0,0,1-.26,0,7.49,7.49,0,0,0-3.54.76,3.7,3.7,0,0,0-1.41,1.1,4.79,4.79,0,0,0-.74,1.44l.81,0h.7a5.81,5.81,0,0,1,.73-1.45,3.11,3.11,0,0,1,1.74-1.27,3.43,3.43,0,0,1,.56-.06h1.43a6.75,6.75,0,0,0,1.8-.2.82.82,0,0,0,.53-.37,4.12,4.12,0,0,0,.36-.78c.21-.57.41-1.17.6-1.79.36-1.16.71-2.41,1-3.54a20.89,20.89,0,0,1-.53-3.18,15.65,15.65,0,0,1-.07-1.67,6.86,6.86,0,0,1,.18-1.66c0-1.62,0-3.33-.1-5s-.14-3.37-.25-5c-.06-.83-.1-1.69-.19-2.5s-.27-1.62-.45-2.43A28.84,28.84,0,0,0,45,66.81c-1.05-1.07-1.94-2.17-2.86-3.29a37.72,37.72,0,0,1-2.69-3.59,25.91,25.91,0,0,1-1.63-4.17,12.71,12.71,0,0,1-.73-4.38h.1a12.58,12.58,0,0,0,1,4.26,29.44,29.44,0,0,0,1.78,4A41.6,41.6,0,0,0,42.73,63c.47.55,1,1.12,1.46,1.66,0,0,.07,0,.1-.06s.13.11.16,0-.06-.14-.13-.16.06-.17,0-.2c-.4-.67.28-.6.47-.86l.06,0h0c.2.18.36,0,.45-.17s-.11-.28-.22-.37a2.38,2.38,0,0,0-.36-.18c.23-.15.45.06.61-.14-.13-.1-.24-.22-.38-.31-.55-.36-.57-.81-.07-1.35,0,0,0,0,0-.07,0-.59.36-1.18.11-1.77,0-.05,0-.1,0-.18a2,2,0,0,1,.24.8c0,.09,0,.19.08.18s0-.11,0-.18-.07-.51.32-.33c.12.06.06-.25.05-.38-.07-.6.16-.85.7-.7-.34-.26-.29-.78-.49-1.12.67,0,1,.46,1.21,1.08a4.31,4.31,0,0,0,.43.65,15.69,15.69,0,0,1,.79,1.71,1.09,1.09,0,0,1,0,.35c-.11.06-.11-.19-.22-.1.07.12-.17.19-.05.34a1.15,1.15,0,0,1-.06,1.35c-.26.31,0,.72-.35.9-.06,0,0,.19,0,.29s0,.17-.12.31,0,.08,0,.1c.18.42-.25.93,0,1.33-.28-.33-.52-.69-1-.31-.36-.26-.8-.2-1.17-.39-.17-.08-.35-.26-.32.17-.19,0-.42-.06-.56,0a0,0,0,0,0,0,0c.39.41.78.81,1.18,1.19l.07.08,0,0a29.68,29.68,0,0,1,1.59,4.92,22.2,22.2,0,0,1,.51,2.53c.11.88.16,1.7.22,2.56.11,1.68.2,3.38.29,5.06s.16,3.36.1,5.12v.06l0,.07a6.08,6.08,0,0,0-.18,1.46,13.82,13.82,0,0,0,.06,1.57,17.53,17.53,0,0,0,.47,3.11l0,.14,0,.1c-.31,1.32-.67,2.51-1.06,3.76-.21.6-.42,1.23-.67,1.85a4.49,4.49,0,0,1-.46.94,1.8,1.8,0,0,1-1,.69,8,8,0,0,1-2,.19H42.15c-.14,0-.27,0-.41,0a3.12,3.12,0,0,0-2,2.12c3.17,0,6.36.11,9.54.13l.18-1.27a8,8,0,0,1,.37-1.44c.31-.9.61-1.81.9-2.74l0,0,0,0a3.62,3.62,0,0,0,.94-1A6.6,6.6,0,0,0,52,94.89a1.68,1.68,0,0,1,.32-.76,1,1,0,0,1,.77-.35,2.41,2.41,0,0,0,.64-.14c.15-.09.16-.15.14-.38a9.34,9.34,0,0,1-.61-2.57c-.07-.44-.15-.84-.26-1.28a9.07,9.07,0,0,1-.26-1.32,47.22,47.22,0,0,1,0-5.32c0-.88.07-1.75.06-2.61a26.23,26.23,0,0,1,0-2.66,49.13,49.13,0,0,1,.51-5.28l.09-.53a.61.61,0,0,1-.31.13c-.29,0-.28-.37-.43-.57a3.17,3.17,0,0,1,.89-.47h0A17.63,17.63,0,0,1,54.63,67c.3-.75.75-1.68.33-2.08-.2-.23-.5-.47-.77-.77a2.83,2.83,0,0,0-1.12.51.76.76,0,0,1-1-.25,8.3,8.3,0,0,1-1.18-1.56c-.13-.32,0-.67-.25-1-.08-.14.22-.17.31-.29s.26-.09.38,0,.35.4.54.59a.32.32,0,0,0,.24.07c.13-.05.09-.17,0-.28s-.18-.35-.26-.54a.64.64,0,0,1,.36-.92c.2-.09.2.09.25.18.16.4.32.81.45,1.22a1.61,1.61,0,0,0,.32.61,12.64,12.64,0,0,1-.16-5.15c.07-1.16,0-2.37.17-3.55a3,3,0,0,1,.12-.61h0a4.65,4.65,0,0,1,.31-1.07l.09,0a6.73,6.73,0,0,0-.22,1,2.34,2.34,0,0,1,1.08,0,4.51,4.51,0,0,0,.9,0,15,15,0,0,1,2.08.32c.1,0,.18.14.28.23s-.24,0-.25.14c.15,0,0,.28.24.26a1.06,1.06,0,0,1,1.1.89c.06.43.61.45.5.88,0,.09.15.13.25.16s.18.08.18.32c0,0,0,.09,0,.09.49.09.6.82,1.16.82-.5.06-1,0-1.09.76-.51.18-.82.63-1.27.86-.21.1-.51.17-.11.41-.14.19-.38.36-.42.55-.1.58-.32.31-.55.12,0,0,0-.1,0-.15l-.09-.11c0-.06-.08-.17-.14-.17-.89,0-.28-.63-.36-1l.09,0h0c.33-.08.3-.33.22-.54s-.33-.06-.48,0a1.62,1.62,0,0,0-.44.22c.05-.31.39-.39.36-.65-.18,0-.38.08-.56.15-.74.3-1.15,0-1.21-.75,0,0,0-.1,0-.11-.51-.34-.71-1.06-1.42-1.18a1.21,1.21,0,0,1-.16-.1c.35,0,.59.19.87.28l.08-.1c0-.16-.47-.26,0-.51.16-.08-.16-.22-.28-.28-.57-.31-.59-.68,0-1.11a1,1,0,0,1-.62,0c-.08,1.15,0,2.32,0,3.5A12.49,12.49,0,0,0,54,62.5a4.37,4.37,0,0,0,.54.91c2.9.1,6.12,0,9,.14a53.64,53.64,0,0,0,8.86.33A24.52,24.52,0,0,0,80.81,62a18.38,18.38,0,0,0,1.86-1l1.9-1.16c1.18-.69,2.37-1.36,3.58-2a28.11,28.11,0,0,1-.21-5.18h0a1.62,1.62,0,0,1-.14-.86c0-.13,0-.15-.29-.3s-.24-.62-.06-.75.32.09.36.21a3.83,3.83,0,0,1,.19.74,37.59,37.59,0,0,1,1.4-7.72l.09,0a44.84,44.84,0,0,0-.95,7.63c.12-.17.22-.17.39,0,.29.42.11.79,0,1.18a.91.91,0,0,1-.42-.52,32.12,32.12,0,0,0,.14,3.81,24.56,24.56,0,0,0,.8,3.94l0,.09v.07a20.79,20.79,0,0,0,.13,6.5A14.34,14.34,0,0,0,92.09,72a3.3,3.3,0,0,0,.22.3l.11.14,0,.06,0,.06a3.48,3.48,0,0,0,.24.47c0-.32.3-.51.51-.73a12.67,12.67,0,0,1,1.43-1.58c.12-.09.26-.24.3,0s.31.54.18.88c0,.07,0,.21,0,.25.81.68,0,1-.36,1.29s-.51,1-1,1.26c-.13.07-.06.15.09.2s.31.15.07.32c0,.14-.3.28-.1.4s.29.35.19.49c.82,1.71,1.7,3.4,2.62,5.07A15.53,15.53,0,0,1,97.67,83a15.36,15.36,0,0,1,1,5.51,1.94,1.94,0,0,1,0,.34h0A5,5,0,0,1,98.48,90c-.45,1.53-1.08,3-1.66,4.4s-1.21,2.87-1.91,4.3a3.15,3.15,0,0,1-1.8,1.65,1.15,1.15,0,0,1-.71,0,1.47,1.47,0,0,0-.49-.18,2.46,2.46,0,0,0-1.07.08,2.77,2.77,0,0,0-1.74,1.15,5.55,5.55,0,0,0-.79,1.6c2.49,0,5,.08,7.47,0l.25,0a8.6,8.6,0,0,1,.08-1,4.22,4.22,0,0,1,.77-2.07c.74-1,1.46-2.16,2.16-3.23s1.43-2.26,2.09-3.36,1.25-2.31,2-3.46a9.15,9.15,0,0,1,1.26-1.72,1.49,1.49,0,0,0,.4-1.32c0-.39-.52-1-.85-1.52a14,14,0,0,1-1-1.75c-.56-1.23-1.1-2.42-1.61-3.66-.24-.61-.48-1.24-.7-1.87a12.26,12.26,0,0,1-.49-2,35.1,35.1,0,0,1-.49-4c0-.68-.07-1.36,0-2a5.58,5.58,0,0,1,.39-2.07,15.74,15.74,0,0,1,2.37-3.31c.85-1,1.76-2,2.51-3a18.32,18.32,0,0,0,1.66-3.52c.31-.84.85-1.66,1.22-2.48a3.31,3.31,0,0,1,0-.33,31.47,31.47,0,0,0,.38-3.41,15.25,15.25,0,0,0-.32-3.38,9.29,9.29,0,0,0-3.32-5.81l0-.08a9.58,9.58,0,0,1,3.68,5.78,14.74,14.74,0,0,1,.46,3.5,32.67,32.67,0,0,1-.3,3.47,30.62,30.62,0,0,0-.1,6.83,19.3,19.3,0,0,0,1.87,6.49l0,0c.46,1.21.91,2.42,1.32,3.67a12.44,12.44,0,0,1,.46,2,5.72,5.72,0,0,0,.68,1.65,19.11,19.11,0,0,0,1.83,3.32,10.61,10.61,0,0,0,2.44,2C117.61,77.94,119.43,74,118.91,70.62ZM29,23.2l.09,0c-.2.07-.61,0-.27.43a.2.2,0,0,1-.05.14c-.42.18-.63.78-1.24.62a1.15,1.15,0,0,0-.49,0,.53.53,0,0,1-.66-.2c-.2-.31-.25-.78,0-.93s-.3-.41,0-.6,0-.35-.1-.52a1.29,1.29,0,0,1,.6-1.85,2.17,2.17,0,0,0,.82-.34c.14.35-.21.39-.23.6a2.63,2.63,0,0,0,1.63-.51c0,.4-.18.64-.69,1.26.1.16.32,0,.42.16s-.29.24-.38.42c.11.21.34.16.51.24s.17.1.15.2-.12.11-.22.12a3.67,3.67,0,0,0-1,0C28.34,22.72,28.48,23.27,29,23.2ZM31.38,25a.76.76,0,0,0,.63-.6c.06-.27.18-.44.48-.27-.22.47-.1,1.1-.71,1.35a1.15,1.15,0,0,0-.89.11A.61.61,0,0,1,31.38,25Zm-.9,1.49.63-.19-.76.72C30.1,26.81,30.11,26.62,30.48,26.53ZM42.8,47.47a.65.65,0,0,1,.71,0C43.2,47.64,43.2,47.64,42.8,47.47Zm4.57-5.22c-.28-.14,0-.28-.12-.41s.13-.08.21-.08c.34,0,.67-.13,1-.19a5,5,0,0,1,3.16.61c-.27.34-.6.12-1,.31.6.22.58.91,1.05,1.23a1.76,1.76,0,0,1-1.56-1c-.07-.12-.17-.07-.28-.06A4.26,4.26,0,0,1,47.37,42.25Zm3.85,3.57a.12.12,0,0,1-.09.22,1.69,1.69,0,0,1-1.05-.61c-.07-.11,0-.21.12-.21A4.34,4.34,0,0,1,51.22,45.82Zm-.65-1.42.06-.06a.7.7,0,0,1,.53.34l0,.07-.07,0C50.88,44.7,50.64,44.69,50.57,44.4Zm-.94,28.9a1.94,1.94,0,0,1-1-.68c.26-.24.51-.38.76,0,.06.08.21.07.31.1s.34,0,.3.3S49.78,73.38,49.63,73.3Zm-.12-1.89c.11-.28.21,0,.33,0s.24-.31.33,0c.16.51.7.48.79,1.09,0,.22,0,.33-.16.37-.35-.37-.88-.35-1.2-.83A.68.68,0,0,1,49.51,71.41Zm1.74,10.83c-.06,0-.3,0,0,.11-.05.29.11.63,0,.84s-.26.6-.52.29c-.09-.1-.22,0-.34-.09s-.29.07-.11-.32c.08-.22-.19-.2-.26-.3.06-.64.44-.53.7-.76a1.15,1.15,0,0,1-.19-.6.49.49,0,0,0,0-.11l.07,0a.27.27,0,0,1,.4.17c.08.15.17.14.27.16s.27-.1.28.15A.37.37,0,0,1,51.25,82.24Zm-.16-4.56c.32,0,.57.16.65.72a.92.92,0,0,0,.23.53c-.18,0-.67-.43-.7-.7A1.55,1.55,0,0,0,51.09,77.68Zm1.29,2.9-.13,0h0c-.28.16-.57,0-.85,0s-.21-.62,0-.79a3.93,3.93,0,0,1,.58-.51c.1-.08.21-.13.26.14s.13.18.21.25.3.06.28.36S52.58,80.52,52.38,80.58Zm-.15-12.76a4.15,4.15,0,0,1,.85-.41,1.57,1.57,0,0,1-.77.58,10.72,10.72,0,0,0-1.34.93c-.43.32-.4.48,0,.93a1.83,1.83,0,0,0,1.06.6c.23.06.23.1.15.36a2.13,2.13,0,0,0-.06,1.5c.29.69.41.79,1,.41a.59.59,0,0,1,.16-.06,1.25,1.25,0,0,1-.37,1.12c-.4.33-.4.92-.44,1.47,0,.17,0,.34-.05.66-.69-1-1.71-.78-2.54-1.39a.5.5,0,0,1,.59-.07,8.35,8.35,0,0,0,1,.42c.45.18.68.07.73-.55a6,6,0,0,0,0-1.41.76.76,0,0,0-.11-.33,1.55,1.55,0,0,1-.35-1c0-.19,0-.4-.28-.38s-.38-.42-.5-.66c-.36-.65-.38-.7-1-.48,0-.17,0-.34,0-.5a.75.75,0,0,1,0-.26c-.19-.33,0-.45.18-.51A11.3,11.3,0,0,0,52.23,67.82ZM51.09,48A3.5,3.5,0,0,1,49,46.16a1.56,1.56,0,0,1,1.3.49c.08.1.23.24.35.08s-.07-.2-.14-.29-.52-.24-.3-.46.5,0,.68.24a2.11,2.11,0,0,1,.16.34c.18.29.22.69.68.75C51.25,47.37,50.91,47.44,51.09,48ZM52.45,58.9c0,.14,0,.37-.22.37S52,59.09,52,59c-.07-.49-.52-.78-.62-1.24-.06-.29-.24-.64.31-.63a8,8,0,0,0-.05-1.29.24.24,0,0,1,.14-.31c.12,0,.2,0,.29.1a1.3,1.3,0,0,1,.41.86c0,.18-.1.23-.26.23A9.38,9.38,0,0,1,52.45,58.9ZM82.27,39.39a.82.82,0,0,1-.83,0A.88.88,0,0,1,82.27,39.39Zm-23.22,0c.06-.11.18-.08.29-.08.39,0,.74.29,1.16.13.06,0,.24.14.26.23s-.11.22-.22.24a3.39,3.39,0,0,1-.55,0c-.29,0-.59.06-.79-.26C59.14,39.56,59,39.51,59.05,39.35Zm2.41,4.44c-.43,0-.7.26-1.05.39,0,.2.26.18.36.37-.35,0-.58.26-.94.22a1.19,1.19,0,0,0,.31.5c0,.06.22.09.13.2-.53.62,0,1,.35,1.34,0,0,0,.09.09.3-.55-.38-1.13-.45-1.49-.9a2.94,2.94,0,0,1-.93-1.81c0-.31.05-.33.26-.36a1,1,0,0,1,.22-.93c.36-.34-.12-1,.49-1.3a.74.74,0,0,0-.12-.17c-.43-.29-.09-.59.06-.77s.47.06.53.19c.16.35.55.45.77.74-.12.15-.3,0-.44.11.06.19.26.21.38.33l-.25.15c.27.08.12.43.34.52a8,8,0,0,0,.95.4l-.34.14C61.2,43.59,61.41,43.56,61.46,43.79ZM64.94,59.6c0-.14-.19-.18-.33-.25s-.48-.06-.45-.36a.58.58,0,0,1,.48-.57l.22,0h0a2.89,2.89,0,0,1,1.37,0c.27,0,.32.62.07.79a8.4,8.4,0,0,1-.93.51C65.21,59.82,65,59.87,64.94,59.6Zm.73,1a.87.87,0,0,0-.35-.53c.27,0,1.05.43,1.09.7a1.41,1.41,0,0,0,.3.55C66.21,61.31,65.8,61.16,65.67,60.6ZM67.31,57a.89.89,0,0,1,.3.6l.07.11-.12,0a.54.54,0,0,1-.64-.17c-.11-.15-.27-.14-.43-.16s-.44.1-.46-.15.18-.38.42-.42.49,0,0-.11c.1-.29-.15-.63,0-.84s.41-.6.84-.29c.14.1.35,0,.53.09s.47-.07.19.32c-.15.22.3.2.41.3C68.33,56.87,67.73,56.76,67.31,57Zm2.81-11.48a2,2,0,0,1-.35,0,1.08,1.08,0,0,0,.11.18.1.1,0,0,1,0,0c-.15.1-.59-.2-.41.34,0,.1-.17.06-.25,0l-1.68-.49c.34.2.42.59.6.9l-.11.09a.45.45,0,0,0-.12.06l.14,0c0,.12,0,.24-.18.3l-.15,0c-.22.1.37.46-.16.46-.2,0-.37-.23-.59-.05h0c-.17,0-.28-.16-.46-.07s.08.23.16.32.49.38,0,.55a.19.19,0,0,0-.06.36c.11.09.32.21.12.38s-.42,0-.55-.13a1.7,1.7,0,0,0-.54-.59c-.09,0-.2-.17-.28,0s0,.2,0,.31l0,0a2.54,2.54,0,0,1-1.71-.34.51.51,0,0,1-.07-.15,1.91,1.91,0,0,0-.69-1.39A2.52,2.52,0,0,1,62,45.56a.73.73,0,0,0,.31.07c.21,0,.37-.12.47-.39.22-.58.67-.56,1.16-.45a1.77,1.77,0,0,0,.4-.93.17.17,0,0,0,.06-.06c.39.14.63-.28,1-.23-.23-.2-.32-.4-.17-.67a.31.31,0,0,0-.11-.43c-.3-.16-.23-.37-.11-.59l0,0a1.86,1.86,0,0,1,1.89.21,1.15,1.15,0,0,0,1.28.06,1.45,1.45,0,0,0,.33-1.67c-.35-.35,0-.75-.23-1.08-.07-.09.18-.12.29-.11.43.06.86.13,1.28.21a.82.82,0,0,0,.62-.06c-.37-.09-.49-.38-.4-.58s.15-.47.51-.53.64-.35,1-.37.35-.38.43-.63a1.18,1.18,0,0,1,1.12-.94,7.22,7.22,0,0,1,2.74,0,.45.45,0,0,1,.2.8c0,.05-.17.12-.11.13.52.16.24.58.32.87-.14.11-.2,0-.28-.08-.27-.12-.39.12-.52.24s.17.16.25.27l.1.12s-.09.08-.13.09c-.51.14-.56.47-.47,1s.29.43.57.54.26.37,0,.56h0c-.24.43.36.2.3.51-.11.07-.45-.16-.51.15s.4.32.45.62c-.45.13-.81-.4-1.26-.22,0,.16.11.15.18.23s.23.14.18.3-.18.13-.31.11-.2,0-.22.11.09.15.15.2l.38.3c.06,0,.15.12.15.16-.48.73.25,1.12.46,1.66a.35.35,0,0,1,0,.13c0,.17-.24.16-.29.3h0c-.4.16-.6.65-1.13.67-.3,0-.1.49-.3.59-.45.24,0,.32.07.46a1.35,1.35,0,0,0,.17.34h-.06c-.23,0-.58-.35-.61.21-.34,0-.26.56-.63.55-.16.43-.16.43.15.76-.92-.14-2.09-1-2.11-1.63l.75.45c.19.12.34,0,.48-.1s-.05-.23-.09-.34c-.18-.51-.65-.84-.89-1.36C71.27,45.73,70.65,45.51,70.12,45.51Zm7.64,17-.5.08a3.71,3.71,0,0,0-1.2.24,3.76,3.76,0,0,1-2,.06l.74-.15a4.84,4.84,0,0,0-.65-.37c-.19-.1-.54-.15-.43.29-.42,0-.64-.28-.89-.52a13.51,13.51,0,0,1-1.59-1.43c-.08-.12-.23-.26,0-.3s.55-.31.88-.18c.08,0,.22,0,.26,0,.68-.8,1,0,1.29.36s1,.51,1.26,1c.07.13.15.06.19-.08s.16-.31.33-.08c.14,0,.27.3.4.09.31-.52.54-.1.73.06a1.88,1.88,0,0,0,1.19.38c.09,0,.15,0,.18.07S77.81,62.33,77.76,62.48Zm-.43-15.09a.94.94,0,0,1-.64-.4c-.16-.2,0-.56-.2-.82-.06-.06.19-.14.32-.18,0-.29.12-.38.34-.24a9.87,9.87,0,0,1,1,.69C77.68,46.65,77.34,46.87,77.33,47.39Zm1.74-2.62a.44.44,0,0,1-.48.18,4.81,4.81,0,0,1-1.14-.61c-.17-.15.07-.45,0-.66.69,0,1.06.49,1.5.87C79.06,44.6,79.13,44.68,79.07,44.77Zm.54-1.32a.35.35,0,0,1,.33-.13c.56.09.56.09.45-.51.21.1.4.19.58.29s.59.37.7-.21c0-.22.23,0,.36,0l0,0c.41.29.74.6.43,1.17a.88.88,0,0,0,0,.43c0,.69,0,.58-.63.63-1.1.1-1.53-.77-2.18-1.33A.17.17,0,0,1,79.61,43.45Zm1.23,11.22a5.3,5.3,0,0,1-1.08.76c.29-.45.26-.87.51-1.2s.44-.18.64,0S81,54.52,80.84,54.67Zm4.24.12c-.33.21-.59.63-1.09.39a.31.31,0,0,0-.35.09,6.89,6.89,0,0,1-1.68.82l0,0,0,0-.09,0a1.1,1.1,0,0,1,.71-.82A4.27,4.27,0,0,0,84.09,54a.8.8,0,0,1,.5-.33c-.09.22-.38.33-.26.57s.35.19.56.16.22,0,.26.13A.27.27,0,0,1,85.08,54.79Zm-1.27-1.44c0-.28.42-.26.34-.58,0-.11.15-.1.26-.08s.15,0,.16.09,0,.17-.11.21A2,2,0,0,1,83.81,53.35Zm1.74-1.76c-.06.1-.23,0-.24-.14a.85.85,0,0,0-.78.44,1.1,1.1,0,0,1-.64.52c-.24-.25-.32.07-.44.16a.48.48,0,0,1-.5,0c-.23-.12-.18-.28-.09-.46l-.09-.07-.62.25c-.06-.16-.14-.27,0-.45a4.27,4.27,0,0,1,2.4-1.31,1.17,1.17,0,0,0,.47-.24c.11-.07.17-.35.34-.15s.3.41,0,.57a.43.43,0,0,0-.24.27c.33.09.59-.15.91-.31C86,51.12,85.69,51.31,85.55,51.59Zm4.16,2.14c-.29.05-.41-.17-.43-.44a2.37,2.37,0,0,1,.33-.92c.12.3.66.22.61.54S90.18,53.67,89.71,53.73Zm.81-6.56c-.08.09-.21.19-.34.08s-.59-.39-.51-.81c.34,0,.51.29.74.49C90.48,47,90.64,47.05,90.52,47.17Zm-.22-5.36c-.24-.07-.57,0-.63-.33s.22-.2.37-.17.47.06.54.33S90.43,41.86,90.3,41.81Zm6.08,9.7c.49-.07.78-.52,1.24-.62.29-.06.64-.24.63.31a8,8,0,0,0,1.29-.05.24.24,0,0,1,.31.14c.05.12,0,.2-.1.29a1.36,1.36,0,0,1-.85.42c-.19,0-.24-.11-.24-.27a9.38,9.38,0,0,1-2.23.22c-.14,0-.37,0-.37-.22S96.24,51.53,96.38,51.51Zm-1-4.91c.06.08.12.14.09.23a.17.17,0,0,1-.2.16c-.18,0-.36-.15-.57-.1s-.28.23-.49.19C94.57,46.3,94.92,46.17,95.35,46.6Zm-2.87,6.7a.17.17,0,0,0-.12-.2c-.15-.05-.25,0-.33.19a1.15,1.15,0,0,1-.75.63c-.26-.42-.22-1-.62-1.34a.76.76,0,0,1,.25-1c.2-.14.39-.32.58-.47h0s0-.09-.1-.13-.11-.16,0-.26c.58-.51,1-1.32,2-1.26-.29.17-.24.65-.69.7-.14,0-.13.13-.07.21a2.7,2.7,0,0,0,.87-.21c.14-.08.17.22.29.32s.1.25,0,.37-.4.35-.59.55a.29.29,0,0,0-.07.23c0,.13.18.09.28,0s.35-.19.54-.27a.64.64,0,0,1,.92.36c.09.21-.08.21-.18.25-.4.15-.81.32-1.22.45A1.22,1.22,0,0,0,92.48,53.3Zm2.08,12.61a1.55,1.55,0,0,0-.55.3c0-.5.16-.91.73-1a.87.87,0,0,0,.52-.35C95.3,65.09,94.83,65.87,94.56,65.91Zm2.33-.18c0,.27-.62.32-.79.07a8.4,8.4,0,0,1-.51-.93c-.08-.16-.13-.34.14-.43s.19-.19.25-.33.06-.48.36-.45a.58.58,0,0,1,.57.48l0,.22h0A2.77,2.77,0,0,1,96.89,65.73Zm5.15,23a2.37,2.37,0,0,1,.92.33c-.3.12-.21.66-.54.62s-.76,0-.82-.52C101.56,88.92,101.77,88.8,102,88.78Zm-.94-9c.3.23.19.45,0,.64s-.33.11-.47-.08a4.62,4.62,0,0,1-.77-1.07C100.34,79.55,100.77,79.52,101.1,79.77ZM100,82a4.32,4.32,0,0,0,1.42,1.58.79.79,0,0,1,.33.51c-.22-.1-.33-.39-.57-.27s-.19.35-.15.57,0,.21-.14.25a.24.24,0,0,1-.3-.07c-.21-.33-.63-.59-.39-1.08a.34.34,0,0,0-.08-.36,6.92,6.92,0,0,1-.83-1.68l0,0s0,0,0-.05a.2.2,0,0,1-.05-.09A1.1,1.1,0,0,1,100,82ZM99.81,66.8c-.1.14,0,.36-.09.53s.08.47-.32.19c-.21-.15-.19.3-.3.41-.64-.1-.53-.7-.76-1.12a.87.87,0,0,1-.6.3.41.41,0,0,1-.11.07l0-.12a.54.54,0,0,1,.17-.64c.16-.11.15-.27.17-.43s-.11-.44.14-.46.38.18.42.43,0,.48.11,0c.29.09.63-.16.84,0S100.12,66.37,99.81,66.8Zm2.29-12.62a4.51,4.51,0,0,0,0,.9,15,15,0,0,1-.32,2.08c0,.1-.14.19-.22.28s0-.24-.15-.26c0,.17-.28,0-.26.25a1.08,1.08,0,0,1-.89,1.11c-.43.05-.45.6-.88.49-.09,0-.13.15-.16.25s-.08.18-.31.18c0,0-.1,0-.1,0-.09.5-.81.6-.81,1.16-.07-.5-.06-1-.77-1.09-.18-.51-.63-.82-.86-1.27-.1-.21-.16-.51-.41-.11-.19-.15-.35-.38-.55-.42-.58-.1-.31-.32-.12-.55,0,0,.1,0,.15,0l.11-.09c.07,0,.17-.08.17-.14,0-.88.63-.27,1-.36l0,.1h0c.09.32.33.3.54.21s.06-.33,0-.48A1.62,1.62,0,0,0,97,56c.31.05.39.4.66.36-.06-.18-.09-.38-.16-.55-.3-.75,0-1.16.76-1.23,0,0,.09,0,.1,0,.34-.51,1.06-.71,1.18-1.41,0-.06.06-.1.1-.17,0,.35-.18.59-.28.87a.31.31,0,0,0,.11.08c.15,0,.25-.47.5,0,.09.16.22-.16.28-.28.31-.57.69-.59,1.11,0-.17-.5.2-.89.22-1.35A1.64,1.64,0,0,1,102.1,54.18Zm3.16-7.8c-.19-.17-.36-.47-.54-.47-.65,0-.76-.61-1.15-.91s-.29-.06-.38.11c-.23.42,0,.85,0,1.29l-.54-.86c-.23,0-.15.3-.38.31a2.62,2.62,0,0,0-.11-.4c0-.09-.08-.25-.12-.2-.4.44-.9-.42-1.28.11-.09.12-.15,0-.17-.11s-.16-.39-.25-.6l-.09,0c-.26,0-.18.32-.27.49a1.37,1.37,0,0,1,.46-1.92h0c.2,0,.29.19.31.43.16-.38.48-.45.77-.6h0c.44.4.13-.34.37-.25.23.33.53.33.73,0s.35-.08.5.08.18.53.55.26c.08-.08.19,0,.24.15A32.35,32.35,0,0,1,105.26,46.38Zm9.68,32.32c-.25-.47-.49-1,0-1.44.11-.12.2-.23.37-.17a.28.28,0,0,1,.19.3C115.35,77.85,115.5,78.43,114.94,78.7Z"/><path d="M45.56,63.38s0,0,0,0h0s0,0,0,0Z"/><path d="M46.31,57.82s0,0,0,0h0a.06.06,0,0,0,0,0Z"/><path d="M111.35,52.36c.07-.34,0-.47-.3-.5A.5.5,0,0,0,111.35,52.36Z"/><path d="M29.75,51.49a3.28,3.28,0,0,1,.13-.94,6.15,6.15,0,0,0-.46.73Z"/><path d="M20.23,127.73l-3.14-16H19.8l2,11,2.39-11h3.15l2.29,11.15,2-11.15h2.66l-3.18,16H28.29l-2.61-11.94-2.59,11.94Z"/><path d="M35.77,127.73v-16H38.4v16Z"/><path d="M41.22,127.73V111.9h2.64V125h6.57v2.7Z"/><path d="M52.53,111.77h4.81a7.21,7.21,0,0,1,2.76.41,4.54,4.54,0,0,1,1.71,1.38A7.09,7.09,0,0,1,63,116.07a14,14,0,0,1,.45,3.84,12.43,12.43,0,0,1-.47,3.6,7.09,7.09,0,0,1-1.19,2.42,4.63,4.63,0,0,1-1.73,1.35,6.52,6.52,0,0,1-2.62.45H52.53Zm2.63,2.7V125h2a5.21,5.21,0,0,0,1.85-.24,2.21,2.21,0,0,0,.93-.72,4.31,4.31,0,0,0,.61-1.53,15.84,15.84,0,0,0,0-5.55,3.78,3.78,0,0,0-.76-1.61,2.52,2.52,0,0,0-1.26-.77,10.75,10.75,0,0,0-2.14-.14Z"/><path d="M71.25,111.77h4.81a7.21,7.21,0,0,1,2.76.41,4.54,4.54,0,0,1,1.71,1.38,7.09,7.09,0,0,1,1.23,2.51,14,14,0,0,1,.45,3.84,12.43,12.43,0,0,1-.47,3.6,7.09,7.09,0,0,1-1.19,2.42,4.63,4.63,0,0,1-1.73,1.35,6.52,6.52,0,0,1-2.62.45h-5Zm2.63,2.7V125h2a5.21,5.21,0,0,0,1.85-.24,2.21,2.21,0,0,0,.93-.72,4.31,4.31,0,0,0,.61-1.53,13.49,13.49,0,0,0,.23-2.75,12.91,12.91,0,0,0-.24-2.8,3.78,3.78,0,0,0-.76-1.61,2.52,2.52,0,0,0-1.26-.77,10.75,10.75,0,0,0-2.14-.14Z"/><path d="M84.14,119.85a11.39,11.39,0,0,1,.84-4.7,6.38,6.38,0,0,1,2.21-2.75,5.8,5.8,0,0,1,3.29-.9,5.65,5.65,0,0,1,4.58,2.14,9.37,9.37,0,0,1,1.77,6.11A9.56,9.56,0,0,1,95,126,6,6,0,0,1,86,126,9.36,9.36,0,0,1,84.14,119.85Zm2.72-.11a6.78,6.78,0,0,0,1,4.13,3.12,3.12,0,0,0,5.17,0,7,7,0,0,0,1-4.2,6.87,6.87,0,0,0-1-4.1,3.24,3.24,0,0,0-5.24,0A6.93,6.93,0,0,0,86.86,119.74Z"/><path d="M105.21,121.87v-2.7h5.7v6.36a7.18,7.18,0,0,1-2.44,1.74,7.44,7.44,0,0,1-3.17.73,6.24,6.24,0,0,1-3.42-1,6.5,6.5,0,0,1-2.34-2.85,10.67,10.67,0,0,1-.87-4.47,10.49,10.49,0,0,1,.88-4.51,6.49,6.49,0,0,1,2.27-2.79,5.93,5.93,0,0,1,3.35-.93,5.14,5.14,0,0,1,5.56,4.69l-2.61.6a3.4,3.4,0,0,0-1.08-1.88,2.79,2.79,0,0,0-1.87-.66,3.31,3.31,0,0,0-2.73,1.32,6.3,6.3,0,0,0-1,4,7.16,7.16,0,0,0,1.14,4.39,3.11,3.11,0,0,0,2.62,1.3,3.87,3.87,0,0,0,1.6-.37,5,5,0,0,0,1.49-1v-2Z"/></svg>