<svg id="Layer_1" data-name="Layer 1" xmlns="http://www.w3.org/2000/svg" width="128" height="128" viewBox="0 0 128 128"><defs><style>.cls-1{fill:#e29b29;}</style></defs><title>Wildfire (recent)</title><path class="cls-1" d="M111.79,19.66l-2.28,10.85s-7.09,5.7-9,7.09c-.12-3.61-.2-7.23-.24-10.84s0-7.07,0-10.59A136.84,136.84,0,0,0,98.93,0H98.1c.15,7.46-1.94,20.35-2.07,27.45v1.37L80.46,17,74,5.57h-.84L79.4,18.16l6.39,6.23a.51.51,0,0,1,0,.71.5.5,0,0,1-.42.14L78.19,25v1.74h8.09a7.33,7.33,0,0,1,4.7,1.7c1.76,1.5,4.12,3.68,4.86,5.32,0,1.44-.07,2.89-.14,4.26-.11,3.52-.28,7-.53,10.45s-.68,6.88-1.06,10.32L92.83,69.11c-.77,7-2.3,20.36-2.3,20.36s4.33,1.13,7.81-.19,7.83-.19,7.83-.19-2.41-5.92-2.74-9.44-.66-7-1-10.56l-.88-10.57c-.26-3.53-.46-7.05-.68-10.58,0-1.22-.1-2.46-.15-3.68,2.3-4.26,9.59-11.36,9.59-11.36l2-12.86Z"/><path d="M22.07,128l-3.24-16.5h2.8l2,11.34,2.47-11.34h3.26L31.77,123l2.08-11.53H36.6L33.31,128h-2.9L27.7,115.66,25,128Z"/><path d="M37.91,128V111.5h2.72V128Z"/><path d="M43.32,128V111.64H46v13.57h6.8V128Z"/><path d="M54.78,111.5h5a7.43,7.43,0,0,1,2.85.42,4.77,4.77,0,0,1,1.77,1.43,7.26,7.26,0,0,1,1.27,2.6,14.43,14.43,0,0,1,.46,4,12.92,12.92,0,0,1-.48,3.72,7.47,7.47,0,0,1-1.23,2.5,4.65,4.65,0,0,1-1.79,1.39,6.73,6.73,0,0,1-2.71.47H54.78Zm2.72,2.79v10.92h2a5.24,5.24,0,0,0,1.91-.25,2.21,2.21,0,0,0,1-.75,4.18,4.18,0,0,0,.63-1.58,13.42,13.42,0,0,0,.25-2.84A12.82,12.82,0,0,0,63,116.9a3.93,3.93,0,0,0-.78-1.67,2.56,2.56,0,0,0-1.3-.79,10.65,10.65,0,0,0-2.22-.15Z"/><path d="M68.45,128V111.5h9.28v2.79H71.18v3.91h5.67V121H71.18v7Z"/><path d="M79.9,128V111.5h2.72V128Z"/><path d="M85.24,128V111.5H91a8.15,8.15,0,0,1,3.15.44,3.54,3.54,0,0,1,1.55,1.54,5.33,5.33,0,0,1,.61,2.63,4.89,4.89,0,0,1-.93,3.12,4.12,4.12,0,0,1-2.64,1.49,6.82,6.82,0,0,1,1.45,1.37,19.9,19.9,0,0,1,1.57,2.69L97.4,128H94.14l-2-3.59A22.78,22.78,0,0,0,90.71,122a2,2,0,0,0-.81-.67,3.53,3.53,0,0,0-1.37-.19H88V128ZM88,118.48h2a10,10,0,0,0,2.37-.17,1.52,1.52,0,0,0,.82-.65,2.43,2.43,0,0,0,.31-1.32,2.28,2.28,0,0,0-.31-1.27,1.6,1.6,0,0,0-.86-.65,10,10,0,0,0-2.21-.13H88Z"/><path d="M98.89,128V111.5h10v2.79h-7.31V118h6.8v2.78h-6.8v4.48h7.56V128Z"/><path id="path15" class="cls-1" d="M79.92,78.48a.38.38,0,0,0-.43-.27.4.4,0,0,0-.31.39,6.53,6.53,0,0,1-1.69,3.46c.59-5.3-2-14.37-4.9-19.47a.42.42,0,0,0-.51-.16.36.36,0,0,0-.2.48c1,2.62-.59,7.69-1.81,9.14C63.6,64.2,64,50.07,64,49.92a.48.48,0,0,0-.27-.4.41.41,0,0,0-.43.12c-.87,1.1-2.48,6.83-3.22,13.66a19.9,19.9,0,0,1-6.24,12.56c-.16-1.57-.55-5.07-1.22-6.09a.35.35,0,0,0-.43-.15.41.41,0,0,0-.27.39c.15,2.08-.71,3.77-1.69,5.73A20.65,20.65,0,0,0,47.52,85.9a12.18,12.18,0,0,0,5,10.2,17.87,17.87,0,0,0,10.84,3.59h0A18,18,0,0,0,76,94.53a17.1,17.1,0,0,0,2.63-3.25C81,87.69,80.71,81,79.92,78.48Zm-24.33,7a4.28,4.28,0,0,0,3.65,2.82.43.43,0,0,0,.44-.35c.27-4,2.15-9.18,3.37-12.12a17.82,17.82,0,0,0,2.83,10.28.39.39,0,0,0,.47.11,8.7,8.7,0,0,0,4.31-4.47c1.89,5.42.71,9-.66,11a8.2,8.2,0,0,1-6.36,3.69c-2.75,0-4.83-.87-6.16-2.51-2-2.5-2.08-6.24-1.89-8.42Z"/><path id="path16" class="cls-1" d="M15.11,85.46a3.31,3.31,0,0,1-1.75.34c-1.32-.42-.71-2-.71-2S9.79,87.16,11,89.07a5.66,5.66,0,0,1-3.39-3.7,5.46,5.46,0,0,1,1-5c.14.23.4,1.42,1.17,1.42s1.11-1,1.17-1.34c.09-.53-1.32-3.09,2.11-5.88-.33,2.35,1.06,2.36,2.43,3.9a9.63,9.63,0,0,1,2.78,5.39,5.12,5.12,0,0,1-2.91,5C16.07,87.53,15.93,86.8,15.11,85.46Z"/><path id="path17" class="cls-1" d="M120.74,91.88a3.39,3.39,0,0,1-2,.4c-1.54-.48-.82-2.29-.82-2.29s-3.33,3.87-2,6.08A6.49,6.49,0,0,1,112,91.79,6.34,6.34,0,0,1,113.2,86c.17.27.47,1.63,1.36,1.63s1.28-1.13,1.35-1.54c.1-.61-1.52-3.59,2.45-6.82C118,82,119.59,82,121.18,83.76A11.12,11.12,0,0,1,124.4,90a5.94,5.94,0,0,1-3.4,5.86C121.85,94.29,121.69,93.43,120.74,91.88Z"/><path id="path18" class="cls-1" d="M16.59,93.37c-1.46-.06-2.91-.1-4.37-.11S7,93.07,5.5,92.94s-4.91-2.55-5.5-4l.15-.14a51.48,51.48,0,0,0,5.53,2.59c1.3.34,5.2.21,6.64.45s2.88.53,4.3.91Z"/><path id="path19" class="cls-1" d="M35.93,72.36c-1-1.26-2.06-2.51-3-3.79s-1.54-2.65-2.35-3.88a20.76,20.76,0,0,1-2-4h0c-.19-1.1-.4-2.2-.68-3.3-.26-.89-.52-1.86-.79-2.67s-.56-1.64-.78-2.48l-.7-2.55-.56-2.56c-.71-3.55-1.19-6.93-1.6-10.39-.1-.77-.18-1.55-.27-2.33.37.42.75.82,1.12,1.22,1.95,2.06,2.88,5.16,4.88,7.11l.16-.09c-1.53-2.23-2.2-5.59-3.78-7.73-.79-1.07-1.35-2.22-2-3.26-.29-.47-.55-.93-.79-1.42-.44-4.83-.72-9.68-1-14.55h-.51c-.35,7-.54,14.09-.3,21.15.12,2.64-.14,5.27.13,7.91a17.59,17.59,0,0,1-.33,1.76,26.83,26.83,0,0,1-1.27,4.18l-1.8,4.17c-.55,1.42-.31,2.61-.72,4h.18c.71-1.36.65-2.49,1.43-3.81l2.33-4c.25-.44.49-.89.72-1.34l.06.38.49,2.66c.17.89.43,1.78.64,2.67s.36,1.66.54,2.5c1.14,6.68.11,13.67-.08,20.6l-.48,10.48c-.16,3.51-2.5,7.1-2.47,10.66a6.19,6.19,0,0,0,3.76,0,10.91,10.91,0,0,1,4.89,0c1.42-3.38-.61-17.3-.11-20.84a63.83,63.83,0,0,0,.5-10.7c0-.29-.05-.59-.07-.89.63.77,1.29,1.51,2,2.22C32.49,70.7,33.73,71.84,35,73s.86,1.77,2.08,2.92l.21-.11C36.32,74.45,36.92,73.69,35.93,72.36Z"/><path id="path20" class="cls-1" d="M43.28,95.31c-.39-.14-4.72-1.73-5-1.73s-.64.5-.55.67,2,.59,3.67,1.29c-2,.26-3.76.52-4.29.62a19.11,19.11,0,0,1-4.59.37v.19a16.73,16.73,0,0,0,4.73.43c1.59-.08,3.16-.28,4.71-.48s3.09-.22,4.57-.52,3-.54,4.55-.94V95C50.25,94.63,46.64,94.92,43.28,95.31Z"/><path id="path21" class="cls-1" d="M117.24,59.75a28.83,28.83,0,0,1,3.05-.74c.28,0,.32.3.24.48s0-.37-.78.73a27.48,27.48,0,0,0,3.63,0,18.41,18.41,0,0,0,4.62.47v.2a17.49,17.49,0,0,1-4.73.43c-1.59-.08-3.16-.29-4.71-.48s-10.18-1-10.18-1l1-.58Z"/></svg>