<svg id="Layer_1" data-name="Layer 1" xmlns="http://www.w3.org/2000/svg" width="128" height="128" viewBox="0 0 128 128"><title>Artboard 116</title><path d="M2.66,13.75,0,.23H2.3L4,9.52,6,.23H8.65L10.6,9.68,12.31.23h2.25L11.87,13.75H9.48L7.27,3.64,5.08,13.75Z"/><path d="M15.43,7.07a9.71,9.71,0,0,1,.71-4A5.39,5.39,0,0,1,18,.77,5,5,0,0,1,20.81,0a4.8,4.8,0,0,1,3.87,1.82A7.91,7.91,0,0,1,26.18,7a8,8,0,0,1-1.59,5.3A4.61,4.61,0,0,1,20.81,14,4.67,4.67,0,0,1,17,12.31,7.94,7.94,0,0,1,15.43,7.07ZM17.73,7a5.75,5.75,0,0,0,.89,3.5,2.65,2.65,0,0,0,4.39,0,5.92,5.92,0,0,0,.87-3.56A5.81,5.81,0,0,0,23,3.46a2.64,2.64,0,0,0-2.21-1.13,2.68,2.68,0,0,0-2.23,1.14A5.81,5.81,0,0,0,17.73,7Z"/><path d="M27.67,7.07a9.71,9.71,0,0,1,.71-4A5.39,5.39,0,0,1,30.25.77,4.94,4.94,0,0,1,33,0a4.8,4.8,0,0,1,3.88,1.82A7.91,7.91,0,0,1,38.42,7a8,8,0,0,1-1.59,5.3A4.61,4.61,0,0,1,33.05,14a4.67,4.67,0,0,1-3.79-1.67A7.94,7.94,0,0,1,27.67,7.07ZM30,7a5.75,5.75,0,0,0,.89,3.5,2.65,2.65,0,0,0,4.39,0,5.92,5.92,0,0,0,.87-3.56,5.81,5.81,0,0,0-.85-3.47,2.64,2.64,0,0,0-2.21-1.13,2.68,2.68,0,0,0-2.23,1.14A5.81,5.81,0,0,0,30,7Z"/><path d="M40.43,13.75V.34h2.23V11.46h5.57v2.29Z"/><path d="M51.5,13.75V8.06l-4-7.83h2.62l2.6,5.35L55.24.23h2.57L53.74,8.08v5.67Z"/><path d="M57.62,10.14V7.55H61.8v2.59Z"/><path d="M63.63,13.75V.23h2.18l4.53,9v-9h2.09V13.75H70.18L65.71,4.93v8.82Z"/><path d="M75,13.75V.23H83.2V2.52h-6v3h5.56V7.79H77.21v3.67H83.4v2.29Z"/><path d="M92.58,8.78l2.17.84a6.07,6.07,0,0,1-1.69,3.31A4.22,4.22,0,0,1,90.16,14a4.32,4.32,0,0,1-3.52-1.67,8.09,8.09,0,0,1-1.55-5.2A8.44,8.44,0,0,1,86.65,1.7,4.44,4.44,0,0,1,90.3,0a4.21,4.21,0,0,1,3.12,1.27A5.6,5.6,0,0,1,94.73,4l-2.21.64a3.05,3.05,0,0,0-.85-1.68,2.13,2.13,0,0,0-1.49-.59,2.39,2.39,0,0,0-2,1.07,6.24,6.24,0,0,0-.77,3.53,6.61,6.61,0,0,0,.75,3.64,2.31,2.31,0,0,0,2,1.08A2,2,0,0,0,91.65,11,4.38,4.38,0,0,0,92.58,8.78Z"/><path d="M96.87,13.75V.23H99.1v6l4.54-6h3L102.47,5.5l4.4,8.25H104l-3.06-6.36L99.1,9.66v4.09Z"/><path d="M108.22,13.75V.23h8.22V2.52h-6v3H116V7.79h-5.57v3.67h6.2v2.29Z"/><path d="M118.72.23h4.08a6,6,0,0,1,2.33.35,3.9,3.9,0,0,1,1.45,1.16,6.05,6.05,0,0,1,1,2.13A12.05,12.05,0,0,1,128,7.13a10.18,10.18,0,0,1-.4,3,6,6,0,0,1-1,2.06,3.85,3.85,0,0,1-1.47,1.13,5.37,5.37,0,0,1-2.21.39h-4.2ZM121,2.52v8.94h1.67a4.54,4.54,0,0,0,1.57-.2,2,2,0,0,0,.79-.61,3.43,3.43,0,0,0,.51-1.3,10.55,10.55,0,0,0,.2-2.33,10.64,10.64,0,0,0-.2-2.37,3.2,3.2,0,0,0-.65-1.36,2,2,0,0,0-1.06-.65A8.9,8.9,0,0,0,122,2.52Z"/><path d="M32.08,122.53l2.57-.31c.29,2,1.25,3.06,2.86,3.06a2.69,2.69,0,0,0,1.88-.63,2,2,0,0,0,.69-1.55,1.77,1.77,0,0,0-.24-.92,1.82,1.82,0,0,0-.73-.63,22.73,22.73,0,0,0-2.38-.82,8.13,8.13,0,0,1-2.47-1.11A4.06,4.06,0,0,1,33,118.05a4.78,4.78,0,0,1-.47-2.09,4.64,4.64,0,0,1,.6-2.35A3.84,3.84,0,0,1,34.79,112a5.65,5.65,0,0,1,2.57-.53,4.53,4.53,0,0,1,5,4.83l-2.65.14a2.79,2.79,0,0,0-.75-1.79,2.39,2.39,0,0,0-1.64-.51,2.6,2.6,0,0,0-1.64.44,1.38,1.38,0,0,0-.06,2.2,7.2,7.2,0,0,0,2.41,1A9.83,9.83,0,0,1,40.89,119a4.08,4.08,0,0,1,1.35,1.64,5.77,5.77,0,0,1,.47,2.44,5.05,5.05,0,0,1-1.28,3.5,5.15,5.15,0,0,1-4,1.41Q32.61,128,32.08,122.53Z"/><path d="M48.1,127.73V114.47H44.22v-2.7H54.61v2.7H50.74v13.26Z"/><path d="M55.69,119.85a11.22,11.22,0,0,1,.85-4.7,6.36,6.36,0,0,1,2.2-2.75,5.86,5.86,0,0,1,3.3-.9,5.66,5.66,0,0,1,4.57,2.14,9.37,9.37,0,0,1,1.77,6.11A9.5,9.5,0,0,1,66.51,126a5.46,5.46,0,0,1-4.46,2,5.55,5.55,0,0,1-4.49-2A9.42,9.42,0,0,1,55.69,119.85Zm2.72-.11a6.76,6.76,0,0,0,1.05,4.13,3.13,3.13,0,0,0,5.18,0,7,7,0,0,0,1-4.2,6.88,6.88,0,0,0-1-4.1,3.24,3.24,0,0,0-5.24,0A6.85,6.85,0,0,0,58.41,119.74Z"/><path d="M70.68,127.73v-16h5.57a7.84,7.84,0,0,1,3,.43,3.49,3.49,0,0,1,1.51,1.49,5.21,5.21,0,0,1,.58,2.54,4.8,4.8,0,0,1-.89,3,4,4,0,0,1-2.56,1.44A6.44,6.44,0,0,1,79.34,122a18.91,18.91,0,0,1,1.51,2.6l1.59,3.11H79.29l-1.91-3.47A22.24,22.24,0,0,0,76,121.9a1.94,1.94,0,0,0-.78-.65,3.57,3.57,0,0,0-1.33-.18h-.54v6.66Zm2.64-9.21h2a9.37,9.37,0,0,0,2.28-.16,1.41,1.41,0,0,0,.8-.63,2.4,2.4,0,0,0,.3-1.28,2.2,2.2,0,0,0-.3-1.22,1.56,1.56,0,0,0-.83-.64,10.42,10.42,0,0,0-2.14-.12H73.32Z"/><path d="M84.12,127.73v-16h2.63v7.1l5.35-7.1h3.56L90.73,118l5.19,9.74H92.51l-3.61-7.5-2.15,2.68v4.82Z"/><path d="M36.09,87.83a9.1,9.1,0,0,1-.18,1.26c-.09.44-.19.88-.3,1.31s-.22.87-.32,1.3c0,.06,0,.13,0,.19l0,0c.26-.29.51-.61.76-.93.42-.54.83-1.09,1.27-1.64,0-.44,0-.88.07-1.31.09-1,.24-1.94.42-2.9-.4.74-.84,1.48-1.31,2.19C36.35,87.45,36.23,87.64,36.09,87.83Z"/><path d="M50.5,56.31a8.53,8.53,0,0,0-1.29.72,10.13,10.13,0,0,0-.85.61,7.07,7.07,0,0,0-.78.67c-.12.11-.23.23-.34.35s-.1.13-.14.19l-.13.21c-.2.32-.42.61-.63.89s-.42.56-.6.85a3,3,0,0,0-.38.81.28.28,0,0,0,0,.15.43.43,0,0,0,0,.14,2.46,2.46,0,0,0,.19.4c.16.24.32.36.5.35a1.83,1.83,0,0,0,.78-.38l.89-.57c.6-.38,1.21-.76,1.82-1.12S50.5,60,51,59.77h-.06a1.48,1.48,0,0,1-1.15-.85,1.86,1.86,0,0,1,0-1.34A5,5,0,0,1,50.5,56.31Z"/><path d="M40.6,68.85l.07.06.26.2a3,3,0,0,0,.54.33l.13.06h0l.46-.53c.33-.35.64-.7,1-1a13.84,13.84,0,0,1,1.07-1,5.87,5.87,0,0,1,.94-.62c-.16-.26-.3-.51-.43-.76l-.1-.16,0-.07,0-.05a.32.32,0,0,1-.08-.17.76.76,0,0,1,.05-.35,1.36,1.36,0,0,1,.1-.21,5.46,5.46,0,0,1,.47-.68c.16-.2.33-.4.5-.59l-.13-.07a1.59,1.59,0,0,1-.5-.5,2.89,2.89,0,0,1-.29-.55,1.05,1.05,0,0,1-.09-.37,1.25,1.25,0,0,1,0-.39,2.29,2.29,0,0,1,.26-.68c-.34.41-.64.83-.95,1.26s-.79,1.12-1.18,1.7l-.92,1.37c-.3.91-.74,1.75-1,2.6a3.88,3.88,0,0,0-.16.63.83.83,0,0,0,0,.48Z"/><path d="M77.48,24.93a1.93,1.93,0,0,1-.75.39l-.18,0c2.91,1.14,5.76,2.41,8.59,3.73,1.51.72,3,1.44,4.51,2.2,1,.53,2.08,1.07,3.1,1.64l-.62-.54c-.62-.5-1.31-.88-2-1.37-1.32-.9-2.73-1.76-4.11-2.62l-4.15-2.58-2.09-1.27c-.36-.22-.64-.52-1-.72a3.58,3.58,0,0,0-1.11-.39,1,1,0,0,1,.21.72A1.26,1.26,0,0,1,77.48,24.93Z"/><path d="M43.6,61.82a12.89,12.89,0,0,1,1.3-1.26,1.7,1.7,0,0,1,.15-.22,9.67,9.67,0,0,1,.65-.89c.22-.28.45-.55.64-.82a3.73,3.73,0,0,1,.37-.46,5,5,0,0,1,.42-.38A8.59,8.59,0,0,1,49,56.65a6.73,6.73,0,0,1,1.63-.52,6.27,6.27,0,0,1,.42-.48,5.49,5.49,0,0,1,.84-.75c.34-.23.65-.36.94-.56a11.52,11.52,0,0,0,1-.7,1.47,1.47,0,0,1-.36,0l-.14,0-.15-.07a.82.82,0,0,1-.25-.19,1,1,0,0,1-.27-.53,1.3,1.3,0,0,1,.13-.75c-.72.41-1.46.8-2.21,1.15a16,16,0,0,1-3,1.09c-.27.36-.53.74-.79,1.11-.36.52-.71,1.06-1.07,1.59-.7,1.07-1.39,2.15-2,3.24s-1.29,2.19-1.87,3.31l-.4.81.77-1C42.68,62.86,43.13,62.33,43.6,61.82Z"/><path d="M51.16,59.79c-1,.8-2,1.63-3.06,2.42l-.85.65c-.15.11-.27.2-.46.32a1.57,1.57,0,0,1-.65.24,1,1,0,0,1-.39,0c-.13.25-.26.49-.38.74a5.32,5.32,0,0,0-.32.69A1.13,1.13,0,0,0,45,65h0l.06.08.12.17a9.27,9.27,0,0,0,.92,1.19c.21.18.11.14.32.12a2.37,2.37,0,0,0,.61-.26c.43-.23.87-.52,1.31-.8a4.42,4.42,0,0,0,1-1c.32-.4.63-.83,1-1.24a4.23,4.23,0,0,1,1.22-1.05,6.26,6.26,0,0,0-.88,1.29c-.24.42-.46.85-.72,1.27a4.78,4.78,0,0,0,1.05,0,1.71,1.71,0,0,0,1-.44,6.91,6.91,0,0,0,.82-.92,5.65,5.65,0,0,1,.74-.82,1.42,1.42,0,0,0-.18-.11l-.44-.25a4.56,4.56,0,0,1-.86-.62,2,2,0,0,1-.61-1,1.32,1.32,0,0,1,.14-.9A1.54,1.54,0,0,1,51.16,59.79Z"/><path d="M71.51,47.05a4.3,4.3,0,0,0-1.31-1.14,1.38,1.38,0,0,0-.73-.19,3,3,0,0,0-.83.21,14.68,14.68,0,0,1-1.74.74A11.16,11.16,0,0,1,65,47h-.11L64.83,47a1.67,1.67,0,0,0-1.3-.41,3.37,3.37,0,0,0-1.41.47c-.94.52-1.88,1-2.82,1.51L56.48,50l-1.39.77c-.23.13-.46.26-.68.4a1.86,1.86,0,0,0-.19.11,2,2,0,0,0-.71.87.74.74,0,0,0,0,.45.19.19,0,0,0,.17.15,2,2,0,0,0,.57,0l.68-.12c.47-.09,1-.2,1.47-.26a4.53,4.53,0,0,1-1.25.89,4.27,4.27,0,0,1-.73.29l-.26,0a11.55,11.55,0,0,1-1.06,1c-.27.25-.61.44-.84.66a6.23,6.23,0,0,0-.69.76,5.72,5.72,0,0,0-1,1.75,1.31,1.31,0,0,0,0,.78.67.67,0,0,0,.53.33,3,3,0,0,0,1.77-.48,4.93,4.93,0,0,0,1.54-1.22c.38-.58.78-1.2,1.21-1.79a6.09,6.09,0,0,1,1.51-1.57,8.93,8.93,0,0,0-1.16,1.8l-1,1.92a3.35,3.35,0,0,1-.77.89,6.15,6.15,0,0,1-.93.68,4.84,4.84,0,0,1-1.06.48,4.05,4.05,0,0,1-.5.12,1.37,1.37,0,0,0,.16.77,1.86,1.86,0,0,0,.63.58,6.51,6.51,0,0,0,.83.44l.45.21.25.14.06,0,0,0h0s.07,0,.18-.06a1.5,1.5,0,0,0,.34-.22,6.8,6.8,0,0,0,.69-.64c.43-.42.85-.88,1.31-1.31a.89.89,0,0,1-.08-.17l-.06-.17v-.17a1.7,1.7,0,0,1,.34-1.12,2.85,2.85,0,0,1,.77-.74,5.26,5.26,0,0,0-.39.93,1.36,1.36,0,0,0-.07.83.73.73,0,0,0,.47.45,1.4,1.4,0,0,0,.74.14,2.56,2.56,0,0,0,1.42-.89c.4-.41.78-.89,1.24-1.3a1.74,1.74,0,0,1-.61-.54,1.4,1.4,0,0,1-.25-.9,1.46,1.46,0,0,1,.34-.78,1.41,1.41,0,0,0,.42,1.25,1.88,1.88,0,0,0,.52.29l.15,0h0a1,1,0,0,0,.16-.09,7.26,7.26,0,0,0,1-.93l.63-.65A1.11,1.11,0,0,1,63,55a1.29,1.29,0,0,1-.51-.65,2.26,2.26,0,0,1,0-1.43,3.37,3.37,0,0,0,.47,1.19.92.92,0,0,0,.39.31,1.37,1.37,0,0,0,.48.06,1.11,1.11,0,0,0,.82-.43A2.67,2.67,0,0,0,65,53l0-.29.24,0a.81.81,0,0,0,.38-.22,4.22,4.22,0,0,0,.4-.43c.26-.32.51-.68.78-1a4.91,4.91,0,0,1-.35,1.3,3,3,0,0,1-.35.62,1.68,1.68,0,0,1-.41.38,2.57,2.57,0,0,1-.43,1.27,1.6,1.6,0,0,1-.68.55,1.68,1.68,0,0,1-.82.14h0a5,5,0,0,1-.44,1,3.78,3.78,0,0,1-1.12,1.26,1.23,1.23,0,0,1-.23.11.88.88,0,0,1-.31.08.67.67,0,0,1-.2,0l-.1,0-.06,0-.21-.09h0a8.7,8.7,0,0,1-.81,1.65,3.57,3.57,0,0,1-.73.83,2.17,2.17,0,0,1-1.12.5,2,2,0,0,1-1.2-.27,1.51,1.51,0,0,1-.26-.18,1.14,1.14,0,0,1-.24-.25l0-.06a7.24,7.24,0,0,1-.85,1.66,4.78,4.78,0,0,1-.67.83,2.61,2.61,0,0,1-.48.36,1.42,1.42,0,0,1-.33.13,1,1,0,0,1-.45,0,.67.67,0,0,1-.18-.07,8.54,8.54,0,0,1-.34,1.05A3.22,3.22,0,0,1,52.53,65a1.86,1.86,0,0,1-1.54.46,2.15,2.15,0,0,1-1.1-.57,4.46,4.46,0,0,1-1.1,1.26,13.67,13.67,0,0,1-1.35.88,3.2,3.2,0,0,1-.84.33,1.22,1.22,0,0,1-.62,0l-.17-.09-.11-.09a.91.91,0,0,1-.17-.17,4,4,0,0,1-.4-.54c-.25.26-.48.55-.7.83l-.87,1.11-.88,1.1-.45.56a.82.82,0,0,1-.61.3,1,1,0,0,1-.34-.06l-.09-.05c-.53,1.35-1.07,2.69-1.69,4-.13,1.17-.21,2.34-.29,3.5,0,.71-.09,1.42-.11,2.12,0,.35,0,.7,0,1,0,.17,0,.34,0,.51a1.2,1.2,0,0,0,.07.37.31.31,0,0,0,.16.16.77.77,0,0,0,.36.08,2.32,2.32,0,0,0,.87-.12.62.62,0,0,0,.16-.07h0l0,0,.06-.07.3-.42.6-.88c.81-1.17,1.64-2.33,2.53-3.45-.59,1.31-1.25,2.57-2,3.82l-.55.92c-.09.16-.19.3-.29.46a.94.94,0,0,1-.1.14l-.07.08-.09.08a1.79,1.79,0,0,1-.32.18,3.16,3.16,0,0,1-1.22.2,1.92,1.92,0,0,1-.67-.16,1.18,1.18,0,0,1-.45-.36c-.15.91-.22,1.84-.3,2.75a.79.79,0,0,0,.23.14,1.61,1.61,0,0,0,.58.1,8.18,8.18,0,0,0,1.2-.06c.4-.06.8-.12,1.2-.2l.3-.06.1,0a.11.11,0,0,0,.07,0,1.43,1.43,0,0,0,.35-.32,5.51,5.51,0,0,0,.63-1c.21-.35.39-.72.6-1.09a24.23,24.23,0,0,1,1.25-2.2,15.05,15.05,0,0,1-.64,2.48,7.88,7.88,0,0,1-1.2,2.34,1.92,1.92,0,0,1-.6.51,1,1,0,0,1-.21.08l-.21,0-.32,0a8,8,0,0,1-1.3.05,4.85,4.85,0,0,1-1.3-.18,1.83,1.83,0,0,1-.61-.3.86.86,0,0,1-.14-.13c-.07.9-.13,1.8-.16,2.7,0,.48,0,1,0,1.42,0,.12,0,.23,0,.35a1.65,1.65,0,0,0,.06.32l0,.15,0,.09a.09.09,0,0,0,0,.05l.06.08.09.16c.14.2.26.41.38.57a.87.87,0,0,0,.39.31,1.93,1.93,0,0,0,.6.12l.72.08a6.92,6.92,0,0,0,1.35,0,1.23,1.23,0,0,0,.5-.15l.07-.06s0,0,.06-.08l.18-.3c.49-.82.94-1.68,1.41-2.53.92-1.7,1.86-3.39,2.64-5.18a20.59,20.59,0,0,1-.89,2.79c-.32.83-.67,1.64-1,2.45a3.37,3.37,0,0,0,2.18-1.55,4.69,4.69,0,0,0,.34-.67c.11-.22.21-.49.31-.73.2-.5.43-1,.64-1.48l1.31-2.93c.43-1,.85-1.95,1.27-3a13.28,13.28,0,0,1-.65,3.2c-.15.52-.35,1-.53,1.54s-.41,1-.63,1.5-.45,1-.7,1.46v0a4.94,4.94,0,0,0,.83-.25,8.45,8.45,0,0,0,1.2-.61,9.53,9.53,0,0,0,1.11-.77,3.54,3.54,0,0,0,.49-.45,1.24,1.24,0,0,0,.34-.51v-.07l.08,0a5.57,5.57,0,0,0,1.27-.52q.61-.33,1.2-.72a11.49,11.49,0,0,0,1.1-.85,3.55,3.55,0,0,0,.48-.47,1.1,1.1,0,0,0,.18-.26.31.31,0,0,0,.06-.18l-.11-.2.27-.06a1.2,1.2,0,0,0,.4-.23,3.87,3.87,0,0,0,.4-.33c.25-.24.5-.5.74-.77.48-.53.94-1.09,1.38-1.67S60.56,76,61,75.42a16.74,16.74,0,0,0,1.12-1.81l.07-.14.17,0a2.9,2.9,0,0,0,1-.64c.32-.29.64-.6.94-.93.15-.16.29-.34.43-.51a1.64,1.64,0,0,1-.49.15,2.33,2.33,0,0,1-1.3-.26,2.48,2.48,0,0,1-.7-.54c-.31.78-.64,1.56-1,2.35h0a3.77,3.77,0,0,1-.76,1,3.89,3.89,0,0,1-1,.75,2,2,0,0,1-.66.21,1,1,0,0,1-.81-.21,1,1,0,0,1-.15-.2l-.18.25a3.52,3.52,0,0,1-1.13,1,1.12,1.12,0,0,1-.22.09l-.22,0a1.48,1.48,0,0,1-.42,0,1.13,1.13,0,0,1-.76-.49,1.52,1.52,0,0,1-.21-.45l-.28.55a3.5,3.5,0,0,1-.51.72,1.9,1.9,0,0,1-1.69.63,1.36,1.36,0,0,1-.89-.41,1.3,1.3,0,0,1-.22-1,2.2,2.2,0,0,1,.07-.37,3,3,0,0,1-1.29.15,3.3,3.3,0,0,1-.86-.22,1.44,1.44,0,0,1-.72-.57,1.48,1.48,0,0,1-.2-.89,3.39,3.39,0,0,1,.19-.85A11.13,11.13,0,0,1,49,71.29a15.48,15.48,0,0,0-.61,1.6,3.34,3.34,0,0,0-.13.82,1.24,1.24,0,0,0,.21.74,1.86,1.86,0,0,0,1.41.58,2.26,2.26,0,0,0,1.49-.36l.18-.13c.07-.28.15-.56.24-.83s.27-.69.4-1a10.07,10.07,0,0,0,.28-1.08,6.17,6.17,0,0,0,.17-1.13h0a7.43,7.43,0,0,1-.17,2.3,4.81,4.81,0,0,1-.33,1.12,3.62,3.62,0,0,1-.24.43l-.26.62c-.19.44-.28,1,0,1.32a.83.83,0,0,0,.57.22,1.59,1.59,0,0,0,.69-.1,2,2,0,0,0,1-1c.25-.45.43-1,.72-1.48l.19-.33.08-.42c.08-.36.23-.7.34-1.06.22-.71.43-1.43.63-2.15h0c-.08.75-.2,1.49-.34,2.22a8,8,0,0,1-.26,1.1c0,.08-.07.17-.1.26l0,.54a2,2,0,0,0,.21,1.14.54.54,0,0,0,.37.23.75.75,0,0,0,.26,0l.11,0s.07,0,.11,0a3,3,0,0,0,.9-.82,3.2,3.2,0,0,0,.56-1.08h.05c0-.25.14-.49.2-.74a14.87,14.87,0,0,0,.32-1.79h.05a10.38,10.38,0,0,1,0,1.85,6.15,6.15,0,0,1-.1.75l.14,0h0a2.33,2.33,0,0,0,0,.51.55.55,0,0,0,.11.33c.09.12.47.07.78-.09a3.58,3.58,0,0,0,1.55-1.48c.35-.81.7-1.62,1.06-2.41,0-.2,0-.4.07-.59,0-.35.16-.7.22-1.06a17.19,17.19,0,0,0,.24-2.16h0a11.67,11.67,0,0,1,.06,2.21,5,5,0,0,1-.14,1.09l.11.19a2,2,0,0,0,.74.76,2,2,0,0,0,1,.26,1.41,1.41,0,0,0,.92-.51,3.67,3.67,0,0,0,.59-1c0-.39.07-.76.12-1.14s.16-.81.21-1.23a22.94,22.94,0,0,0,.23-2.51h0a16.71,16.71,0,0,1,.06,2.55,6.12,6.12,0,0,1-.14,1.28,4.4,4.4,0,0,1-.36.95,3,3,0,0,0,1-.19h0a3.72,3.72,0,0,0,.49-.4,6.69,6.69,0,0,0,1-1.17l0,0,0,0a8.74,8.74,0,0,0,1.32-1.22,8.89,8.89,0,0,0,.87-1.55c.25-.56.51-1.15.69-1.7.1-.28.16-.58.25-.87s.14-.6.2-.9A60.66,60.66,0,0,0,72.6,54c.08-1.24.15-2.51.19-3.74A5.43,5.43,0,0,0,71.51,47.05Z"/><path d="M38.38,82.15a2.11,2.11,0,0,1-.12-.67c0-.2,0-.38,0-.56,0-.37,0-.73,0-1.1.07-.71.14-1.43.26-2.14a23.49,23.49,0,0,1,.53-2.6c-.33.61-.69,1.2-1,1.78a4.05,4.05,0,0,0-.2.55c0,.1,0,.17-.06.3s-.07.25-.1.36c-.15.43-.3.84-.46,1.25l-1,2.42c-.34.8-.67,1.61-1,2.41-.14.41-.29.82-.38,1.2a10.31,10.31,0,0,0-.19,1.24,8.69,8.69,0,0,0,0,1.25c0,.24,0,.49.05.73a5.67,5.67,0,0,0,.48-.5c.3-.33.59-.66.87-1,.54-.67,1.08-1.35,1.61-2a18.92,18.92,0,0,1,.68-2.69A1.18,1.18,0,0,1,38.38,82.15Z"/><path d="M93.18,33.32c-1.25-.52-2.5-1-3.74-1.58-1.53-.67-3-1.37-4.57-2.08-2.85-1.35-5.68-2.74-8.45-4.28l-.12,0c0,.24.08.48.1.73a2.7,2.7,0,0,1,0,.57,1.57,1.57,0,0,1,0,.3.41.41,0,0,1,0,.09l1.89.68,5.28,2.1c1.76.7,3.52,1.4,5.29,2.07.45.17.88.32,1.33.46l1.35.44c.45.15.89.28,1.35.4l.42.11S93.2,33.32,93.18,33.32Z"/><path d="M61.13,106.12l0-.29.06-.55-.47-7.7-.44-7.73v-.08l.52-1.32a3.49,3.49,0,0,0,.21-.62,2.93,2.93,0,0,0,0-.66,15.9,15.9,0,0,0-.67-2.7v-.08c.3-1.78.61-3.55.94-5.33.16-.89.32-1.78.5-2.66.1-.53.21-1.05.33-1.58-.22.32-.44.64-.67,1-.43.59-.87,1.16-1.33,1.73l-.07.34c-.08.55-.16,1.1-.23,1.64-.14,1.1-.24,2.2-.42,3.29a6,6,0,0,1-.17.82,1.66,1.66,0,0,1-.14.41c-.05.14-.12.24-.16.37A6.46,6.46,0,0,0,58.66,86a11.09,11.09,0,0,0,0,1.63,3.41,3.41,0,0,0,.42,1.49l0,0v.07c0,1.38,0,2.81.1,4.22l.17,4.25.2,4.24L59.7,104c0,.71.09,1.41.08,2.13v.25l-.24,0L56,107l.12.64,4.31-.68h.08c3.25.36,6.51.7,9.77,1.07v-1l-8.85-.87Z"/><path d="M59.22,105.92c0-1.31-.1-2.66-.14-4L59,97.68l-.11-4.24c0-1.41-.08-2.79,0-4.22a3.64,3.64,0,0,1-.42-1.6,8.46,8.46,0,0,1,0-1.51,3.23,3.23,0,0,0-.27-.44,6.05,6.05,0,0,0-.52-.6L57.54,85V84.9c0-.44,0-.88,0-1.32s0-.87,0-1.31.07-.87.14-1.31.11-.69.19-1l0,0a3.83,3.83,0,0,1-.44.36,2.3,2.3,0,0,1-.41.23.77.77,0,0,1-.1.28,1.57,1.57,0,0,1-.24.32,4.16,4.16,0,0,1-.48.46c0,1.11-.05,2.21-.08,3.32v0a8,8,0,0,0,0,1.89,4.17,4.17,0,0,0,.54,1.75l0,0v0c.24,1.39.44,2.76.65,4.14s.39,2.77.59,4.15c.38,2.76.74,5.53,1.06,8.3l0,.25-.24,0-2.62.39-2.49.35.3,1.12c.5-.09,1-.16,1.5-.24l-.07-.38,0-.29.29,0Z"/><path d="M80.47,38A16.55,16.55,0,0,0,79,34.09l-.91-1.85c-.16-.31-.29-.59-.43-.91s-.31-.64-.47-.93v0h0L76.93,30a4.2,4.2,0,0,0-.27-.36,7.26,7.26,0,0,0-.58-.65,12.21,12.21,0,0,0-1.31-1.09c-.44-.32-.91-.63-1.33-1a2.42,2.42,0,0,1-.92-1.18,1.79,1.79,0,0,0,.32-.13l0,0,.07,0a7.14,7.14,0,0,0,1.24.61l1.32.52.69.25a1.23,1.23,0,0,0-.07-.32c0-.17-.12-.34-.18-.51-.12-.33-.24-.68-.34-1l-.09-.36.39,0a2.79,2.79,0,0,0,1.23-.29,1,1,0,0,0,.5-.94.57.57,0,0,0,0-.13h0c0-.06,0-.15-.09-.22l-.08-.26c-.06-.17-.13-.34-.2-.5a5.37,5.37,0,0,0-.54-.93,2.34,2.34,0,0,0-.25-.3c0,.2,0,.4-.06.61a.56.56,0,0,1-.22.39.65.65,0,0,1-.47,0c-.28-.08-.48-.19-.71-.23a2.6,2.6,0,0,0-.68-.1,2.39,2.39,0,0,0-.66.08.86.86,0,0,0-.46.28l-.41.61-.22.31a3.73,3.73,0,0,1-.24.34,1.2,1.2,0,0,1-.21.17.68.68,0,0,1-.24.1,1.58,1.58,0,0,1-.42.09,1.42,1.42,0,0,1-.29,0,4.38,4.38,0,0,1-.19.71,1,1,0,0,0,0,.95.9.9,0,0,0,.85.35,3,3,0,0,0,.52-.08,2.56,2.56,0,0,0,.77,1.41c.39.43.79.79,1.2,1.17a15.18,15.18,0,0,1,1.13,1.14,6.75,6.75,0,0,1,.48.61,3.45,3.45,0,0,1,.21.32l.2.33.44.9c.15.31.32.63.48.93l1,1.79A15.12,15.12,0,0,1,80,38.12a12.71,12.71,0,0,1,.32,2,11.37,11.37,0,0,1,0,2,11.71,11.71,0,0,1-.83,3.68c-.19-.36-.41-.73-.62-1.13a1.94,1.94,0,0,1-.13-.3c0-.07-.06-.14-.09-.22a4.17,4.17,0,0,0-.29-.44,5.79,5.79,0,0,0-.75-.82,5,5,0,0,0-.85-.69,1.43,1.43,0,0,0-.88-.28,1.38,1.38,0,0,1-.66.14,1.32,1.32,0,0,1-.6-.34,3.16,3.16,0,0,0-.93-.56,50.57,50.57,0,0,0-5.11-1.5c.77-.29,1.54-.59,2.29-.9l.33-.13.35-.16a1.65,1.65,0,0,0,.68-.57,1.72,1.72,0,0,0,.26-.88,3.63,3.63,0,0,0-.07-.82A8.26,8.26,0,0,0,72,34.78a3.72,3.72,0,0,0-.37-.71,4.13,4.13,0,0,0-.49-.6c-.35-.37-.73-.68-1.07-1s-.69-.64-1-1a15.49,15.49,0,0,1-1.76-2.19,7.14,7.14,0,0,1-1.12-2.52A7.75,7.75,0,0,1,66,24c0-.23.08-.46.14-.69a2.63,2.63,0,0,1,.23-.65,3.6,3.6,0,0,1,1-.91,3.17,3.17,0,0,1,.92.1,2.45,2.45,0,0,1,1.33.89,1.82,1.82,0,0,0,1.13.53,2.36,2.36,0,0,0,.65,0,1.08,1.08,0,0,0,.31-.07.34.34,0,0,0,.18-.11l.2-.27.21-.3.44-.61a1.38,1.38,0,0,1,.81-.46,2.07,2.07,0,0,1,.82,0,3,3,0,0,1,.78.19c.25.09.48.25.67.33.4.28.46-.34.63-.76a2.81,2.81,0,0,0-.45-.4,3.59,3.59,0,0,0-1-.42A8.14,8.14,0,0,0,73,20a9.39,9.39,0,0,0-1.06,0h-.27l-.24,0-.51.11a14.42,14.42,0,0,0-2,.71,11.07,11.07,0,0,0-1.48.8l0,0a4,4,0,0,0-1.1.93,2.25,2.25,0,0,0-.29.68,4.26,4.26,0,0,0-.19.7,8,8,0,0,0-.07,2.92,7.72,7.72,0,0,0,1.07,2.74A16.53,16.53,0,0,0,68.51,32c.32.36.65.72,1,1.06s.69.67,1,1a6,6,0,0,1,.4.52,3.76,3.76,0,0,1,.26.57,10.56,10.56,0,0,1,.46,1.29,1.58,1.58,0,0,1,0,1.1c-.12.28-.55.46-1,.71-.77.44-1.52.9-2.26,1.4a4.34,4.34,0,0,0-.74-.12,8.53,8.53,0,0,0-1.75.2,5.26,5.26,0,0,0-1.59.64,3,3,0,0,0-1.14,1.19l0,0,0,0c-.76.64-1.5,1.32-2.24,2l-1.1,1-.57.51-.29.25a1.66,1.66,0,0,1-.42.25,8.8,8.8,0,0,1-1.52.4c-.48.11-1,.23-1.4.38a4.92,4.92,0,0,0-1.55.87l.64,0c.28,0,.55-.05.82-.09a6.34,6.34,0,0,0,.78-.13l2.12-.43-1.79,1.2c-.84.56-1.69,1.08-2.59,1.56a11.45,11.45,0,0,1-1.39.63,14.27,14.27,0,0,0-1.31.63,17,17,0,0,0-2.44,1.59,7.75,7.75,0,0,0-1.6,1.69,9.82,9.82,0,0,0,1.38-.32,18.09,18.09,0,0,0,1.88-.64c.62-.23,1.23-.5,1.84-.78l.61-.29h0a1.7,1.7,0,0,1,.93-.62,2.17,2.17,0,0,1,.37-.31l.68-.42,1.39-.8q1.41-.77,2.82-1.5c.94-.5,1.89-1,2.81-1.5a3.73,3.73,0,0,1,1.57-.55,2.1,2.1,0,0,1,1.55.43,9.75,9.75,0,0,0,1.7-.39,12.91,12.91,0,0,0,1.68-.76,3.55,3.55,0,0,1,1-.27,2,2,0,0,1,1.06.23A4.92,4.92,0,0,1,72,46.65a7.13,7.13,0,0,1,1,1.66,5.18,5.18,0,0,1,.47,2c0,1.29-.06,2.52-.12,3.78a57.58,57.58,0,0,1-.66,6.65c.06.23.12.47.16.71A6,6,0,0,1,73,62.68a10.68,10.68,0,0,0,.6-1c.25-.47.48-.94.71-1.42.45-1,.87-1.93,1.27-2.91l.27-.63.27.62a1.43,1.43,0,0,1,.1.29l.25-.68c.23-.67.45-1.35.67-2l.32-1,.15-.51.08-.26v0h0a.11.11,0,0,1,0-.07.43.43,0,0,1,.21-.23.53.53,0,0,1,.58.06.56.56,0,0,1,.16.25c.12-.59.21-1.2.31-1.8l.15-1,.08-.51a3.8,3.8,0,0,1,.12-.56.78.78,0,0,1,0-.12.15.15,0,0,1,0-.05.3.3,0,0,1,.07-.09s0,0,.07-.05l0,0,.08,0a.5.5,0,0,1,.42.06.66.66,0,0,1,.15.17l.07.14a3.25,3.25,0,0,0,0-.44,5.19,5.19,0,0,0-.41-2.11c-.11-.27-.24-.53-.37-.78a12.37,12.37,0,0,0,1.09-3.77,11.21,11.21,0,0,0,.06-2.09A11.54,11.54,0,0,0,80.47,38Zm-6-15.6a.73.73,0,1,1-.72.73A.73.73,0,0,1,74.51,22.39Z"/></svg>