<svg id="Layer_1" data-name="Layer 1" xmlns="http://www.w3.org/2000/svg" width="128" height="128" viewBox="0 0 128 128"><title>Artboard 118</title><path d="M4,13.69V8L0,.23H2.61L5.2,5.55,7.76.23h2.56L6.26,8v5.65Z"/><path d="M11.62,13.69V.23h8.19V2.51h-6v3h5.55V7.76H13.84v3.66H20v2.27Z"/><path d="M22.15,13.69V.34h2.22V11.42h5.55v2.27Z"/><path d="M31.76,13.69V.34H34V11.42h5.54v2.27Z"/><path d="M40.86,7a9.64,9.64,0,0,1,.71-4A5.44,5.44,0,0,1,43.43.76,4.9,4.9,0,0,1,46.21,0a4.79,4.79,0,0,1,3.87,1.81A7.92,7.92,0,0,1,51.57,7,8,8,0,0,1,50,12.24a5.1,5.1,0,0,1-7.55,0A8,8,0,0,1,40.86,7ZM43.16,7A5.74,5.74,0,0,0,44,10.44a2.67,2.67,0,0,0,2.19,1.16,2.62,2.62,0,0,0,2.18-1.15,5.88,5.88,0,0,0,.86-3.54,5.82,5.82,0,0,0-.84-3.47,2.64,2.64,0,0,0-2.2-1.12A2.67,2.67,0,0,0,44,3.45,5.82,5.82,0,0,0,43.16,7Z"/><path d="M55.07,13.69,52.43.23h2.28l1.66,9.25,2-9.25h2.66L63,9.64,64.69.23h2.24L64.25,13.69H61.87L59.67,3.62,57.48,13.69Z"/><path d="M67.31,10.1V7.52h4.16V10.1Z"/><path d="M73.27.23h4.42a6.91,6.91,0,0,1,2.55.33,2.82,2.82,0,0,1,1.24,1.17A3.6,3.6,0,0,1,82,3.62a3.58,3.58,0,0,1-.43,1.76,2.87,2.87,0,0,1-1.13,1.16A3,3,0,0,1,82,7.73a3.69,3.69,0,0,1,.56,2.06,4.22,4.22,0,0,1-.71,2.48,2.91,2.91,0,0,1-1.67,1.26,17.63,17.63,0,0,1-3.12.16H73.27Zm2.22,2.24V5.58H77c.88,0,1.43,0,1.63,0a1.37,1.37,0,0,0,.89-.48A1.6,1.6,0,0,0,79.81,4a1.59,1.59,0,0,0-.27-1,1.06,1.06,0,0,0-.63-.47,13.84,13.84,0,0,0-2.14-.09Zm0,5.36v3.59h2.07a6.17,6.17,0,0,0,1.75-.15,1.35,1.35,0,0,0,.65-.55,2,2,0,0,0,.26-1.06,1.94,1.94,0,0,0-.28-1.09A1.43,1.43,0,0,0,79.19,8a7,7,0,0,0-1.9-.16Z"/><path d="M84.52,13.69V.23h2.22V13.69Z"/><path d="M89.13,13.69V.34h2.22V11.42H96.9v2.27Z"/><path d="M98.74,13.69V.34H101V11.42h5.55v2.27Z"/><path d="M108.29,13.69V.23h8.2V2.51h-6v3h5.54V7.76h-5.54v3.66h6.17v2.27Z"/><path d="M118.75.23h4.07a6,6,0,0,1,2.32.34,3.91,3.91,0,0,1,1.45,1.17,5.91,5.91,0,0,1,1,2.12A11.9,11.9,0,0,1,128,7.1a10.52,10.52,0,0,1-.39,3,6.32,6.32,0,0,1-1,2,3.93,3.93,0,0,1-1.47,1.13,5.36,5.36,0,0,1-2.2.38h-4.19ZM121,2.51v8.91h1.68a4.17,4.17,0,0,0,1.55-.21,1.76,1.76,0,0,0,.79-.61,3.31,3.31,0,0,0,.51-1.29A10.39,10.39,0,0,0,125.7,7a11.07,11.07,0,0,0-.2-2.35,3.14,3.14,0,0,0-.65-1.36,2,2,0,0,0-1.06-.65A8.72,8.72,0,0,0,122,2.51Z"/><path d="M32.08,122.53l2.57-.31c.29,2,1.25,3.06,2.86,3.06a2.69,2.69,0,0,0,1.88-.63,2,2,0,0,0,.69-1.55,1.77,1.77,0,0,0-.24-.92,1.82,1.82,0,0,0-.73-.63,22.73,22.73,0,0,0-2.38-.82,8.13,8.13,0,0,1-2.47-1.11A4.06,4.06,0,0,1,33,118.05a4.78,4.78,0,0,1-.47-2.09,4.64,4.64,0,0,1,.6-2.35A3.84,3.84,0,0,1,34.79,112a5.65,5.65,0,0,1,2.57-.53,4.53,4.53,0,0,1,5,4.83l-2.65.14a2.79,2.79,0,0,0-.75-1.79,2.39,2.39,0,0,0-1.64-.51,2.6,2.6,0,0,0-1.64.44,1.38,1.38,0,0,0-.06,2.2,7.2,7.2,0,0,0,2.41,1A9.83,9.83,0,0,1,40.89,119a4.08,4.08,0,0,1,1.35,1.64,5.77,5.77,0,0,1,.47,2.44,5.05,5.05,0,0,1-1.28,3.5,5.15,5.15,0,0,1-4,1.41Q32.61,128,32.08,122.53Z"/><path d="M48.1,127.73V114.47H44.22v-2.7H54.61v2.7H50.74v13.26Z"/><path d="M55.69,119.85a11.22,11.22,0,0,1,.85-4.7,6.36,6.36,0,0,1,2.2-2.75,5.86,5.86,0,0,1,3.3-.9,5.66,5.66,0,0,1,4.57,2.14,9.37,9.37,0,0,1,1.77,6.11A9.5,9.5,0,0,1,66.51,126a5.46,5.46,0,0,1-4.46,2,5.55,5.55,0,0,1-4.49-2A9.42,9.42,0,0,1,55.69,119.85Zm2.72-.11a6.76,6.76,0,0,0,1.05,4.13,3.13,3.13,0,0,0,5.18,0,7,7,0,0,0,1-4.2,6.88,6.88,0,0,0-1-4.1,3.24,3.24,0,0,0-5.24,0A6.85,6.85,0,0,0,58.41,119.74Z"/><path d="M70.68,127.73v-16h5.57a7.84,7.84,0,0,1,3,.43,3.49,3.49,0,0,1,1.51,1.49,5.21,5.21,0,0,1,.58,2.54,4.8,4.8,0,0,1-.89,3,4,4,0,0,1-2.56,1.44A6.44,6.44,0,0,1,79.34,122a18.91,18.91,0,0,1,1.51,2.6l1.59,3.11H79.29l-1.91-3.47A22.24,22.24,0,0,0,76,121.9a1.94,1.94,0,0,0-.78-.65,3.57,3.57,0,0,0-1.33-.18h-.54v6.66Zm2.64-9.21h2a9.37,9.37,0,0,0,2.28-.16,1.41,1.41,0,0,0,.8-.63,2.4,2.4,0,0,0,.3-1.28,2.2,2.2,0,0,0-.3-1.22,1.56,1.56,0,0,0-.83-.64,10.42,10.42,0,0,0-2.14-.12H73.32Z"/><path d="M84.12,127.73v-16h2.63v7.1l5.35-7.1h3.56L90.73,118l5.19,9.74H92.51l-3.61-7.5-2.15,2.68v4.82Z"/><path d="M31,59.59A10.94,10.94,0,0,0,28.91,61l-1.23,1q1.76-2.38,3.41-4.83a3,3,0,0,0,.64.69,2.62,2.62,0,0,0,.93.51.78.78,0,0,0,.31,0,.75.75,0,0,0,.31-.09,2.48,2.48,0,0,0,.48-.27,6.66,6.66,0,0,0,.77-.61,1.78,1.78,0,0,0,.23.31,3.37,3.37,0,0,0,.53.47l.12.07a8.64,8.64,0,0,1-2,.57l-.58.11-.29.05-.32.07A6.83,6.83,0,0,0,31,59.59Z"/><path d="M36.86,61a6.7,6.7,0,0,0,.41,1,18.45,18.45,0,0,0-2.31.66,13.07,13.07,0,0,0-2.56,1.17,3.55,3.55,0,0,0-.31.23l-.26.2-.54.38c-.37.27-.75.5-1.14.73A8.9,8.9,0,0,1,29,65.9a2.86,2.86,0,0,1-.85.25c.69-.6,1.4-1.18,2.11-1.76.52-.41,1.06-.84,1.59-1.23a17.78,17.78,0,0,1,1.7-1c1.05-.54,2.14-1,3.23-1.52Z"/><path d="M29.79,63.83c-1.1.81-2.15,1.67-3.18,2.59a21.42,21.42,0,0,0-2.23,2.33,4.58,4.58,0,0,1,.11-1A8.64,8.64,0,0,1,25.12,66c.43-.92.95-1.79,1.45-2.69a2.43,2.43,0,0,0,.34-.3,5,5,0,0,0,.43-.5c.62-.35,1.21-.76,1.8-1.15a10.11,10.11,0,0,1,2.1-1.16,4.41,4.41,0,0,1,1.11-.28l.61-.08a4.61,4.61,0,0,0,.62-.14,5.73,5.73,0,0,0,1.19-.52,3.21,3.21,0,0,0,.82-.7h0a1.69,1.69,0,0,0,1.16.21,2.81,2.81,0,0,0,1.33-.74,5.79,5.79,0,0,0,.48-.51,2.05,2.05,0,0,0,.41.16,2.93,2.93,0,0,0,.84.09,2.58,2.58,0,0,0,.39,0c-.4.27-.8.53-1.21.77s-.69.4-1.05.58l-.53.26-.27.11-.13,0-.07,0,0,0s0,0-.08,0a.56.56,0,0,0-.29.55.76.76,0,0,0,0,.16l0,.08,0,.14.06.16a25.84,25.84,0,0,0-3.41,1.16,13.29,13.29,0,0,0-1.84.94C30.88,63,30.34,63.42,29.79,63.83Z"/><path d="M55,63.66l.66.14a2.9,2.9,0,0,0-.19.34L55,65l-.84,1.67L52.52,70l-1.64,3.35c-.55,1.12-1.08,2.24-1.65,3.34l0,.06v.07a6,6,0,0,1,.16,1.41c0,.19,0,.38,0,.57a4.5,4.5,0,0,1-.19,1,1.3,1.3,0,0,1-.46.71l-.11.06v.1l-.38,5.81L48,89.33l-.13,1.44A131,131,0,0,0,48,103.88V104c1.16,1.61,6.67,1.22,7,1.42s.15.72.22,1.08a25.09,25.09,0,0,1-9.56-1.21s-3.79,1.09-4,1.06v-.87a20.4,20.4,0,0,0,4.22-1.73,67.2,67.2,0,0,0,.73-9.61c0-1.21.08-2.4.1-3.62s0-2.42,0-3.63l0-7.24v0l0,0a4.37,4.37,0,0,1,0-2.16,4.11,4.11,0,0,1,.31-1s0,0,.05-.09L47,76.1a2.2,2.2,0,0,0,.17-.25c.11-.16.2-.33.3-.49.79-1.34,1.43-2.75,2.28-4a16.74,16.74,0,0,0,1.13-2.06c.34-.69.66-1.39,1-2.09s.63-1.41.92-2.11l.45-1.06.23-.52,0-.08h.23C54.16,63.53,54.57,63.58,55,63.66Z"/><path d="M54.7,60.54a23.48,23.48,0,0,0,3,.21,4.63,4.63,0,0,0-1.27,1.65c-.05.11-.09.22-.13.33l-.09.34,0,.1a8.82,8.82,0,0,0-1.1-.27,7.41,7.41,0,0,0-1.33-.14c-.15,0-.31,0-.47,0a3.42,3.42,0,0,0,.45-1,2.65,2.65,0,0,0,0-1A7.21,7.21,0,0,0,54.7,60.54Z"/><path d="M43.94,59.9A34.72,34.72,0,0,1,39.66,62a2.32,2.32,0,0,1-1,.24.82.82,0,0,1-.36-.16,2.37,2.37,0,0,1-.32-.37,6,6,0,0,1-.5-1c-.08-.19-.15-.38-.24-.57L37.19,60v0l0,0,.15-.06.28-.15a5.74,5.74,0,0,0,.53-.32c.35-.22.69-.46,1-.7s.92-.76,1.34-1.17l.1,0a1.94,1.94,0,0,0,.72-.41,1.45,1.45,0,0,0,.71-.51,3.11,3.11,0,0,0,.31-.43.74.74,0,0,0,.27.16,1.29,1.29,0,0,0,.65,0,2,2,0,0,0,1-.51,1.21,1.21,0,0,0,.3.2,1.41,1.41,0,0,0,.53.07,3,3,0,0,0,1-.24A6.06,6.06,0,0,0,47.55,55a2.69,2.69,0,0,0,1.16,0A4.7,4.7,0,0,0,50,54.61a6.22,6.22,0,0,0,1.66-1.12s0,.06.08.08a.93.93,0,0,0,.27.22,1.4,1.4,0,0,0,.3.15,3.44,3.44,0,0,0,1.21.22A4.56,4.56,0,0,0,54.63,54a3.43,3.43,0,0,0,.78-.31,2.06,2.06,0,0,0,.39.39,1.94,1.94,0,0,0,.87.31,1.87,1.87,0,0,0,.88-.12,2.84,2.84,0,0,0,.59-.34,5.22,5.22,0,0,0,.54.38,2.1,2.1,0,0,0,.81.31,1.29,1.29,0,0,0,.44,0,10.5,10.5,0,0,1-1,.58h0a33.41,33.41,0,0,1-4,1.2,6.57,6.57,0,0,0-1,.37,10.29,10.29,0,0,0-.91.55,14.91,14.91,0,0,1-1.86.81c-.64.25-1.29.49-1.94.7s-1.31.44-2,.66-1.32.41-2,.59l-.89.23a22,22,0,0,0,1.8-1.38,6.62,6.62,0,0,0,1.59-1.87A8.79,8.79,0,0,1,46,58.63C45.31,59.08,44.63,59.49,43.94,59.9Z"/><path d="M60.22,59.19c.13.35.28.69.44,1a9.09,9.09,0,0,1-1.37.06c-.51,0-1-.05-1.53-.1-1-.12-2-.27-3-.42h-.08l-.09,0a9.53,9.53,0,0,1-1.74.4,9.79,9.79,0,0,1-1.8.08,16.21,16.21,0,0,1-1.82-.17l-1.07-.17a31.3,31.3,0,0,0,3.37-1.06,14.13,14.13,0,0,0,2-.9,7.86,7.86,0,0,1,.84-.57c.29-.15.6-.29.92-.42A29.58,29.58,0,0,0,58,55.83l1,.05h.46a7.06,7.06,0,0,0,.19,1.38A13.8,13.8,0,0,0,60.22,59.19Z"/><path d="M67.88,52.13a15.11,15.11,0,0,1-4.17,2.35,13.23,13.23,0,0,1-3.63.73l.54-.4a12.69,12.69,0,0,0,1.29-1.25,10,10,0,0,0,.82-1,4.89,4.89,0,0,0,1.86-.39,2.52,2.52,0,0,0,.89-.68,2.16,2.16,0,0,0,.41-.72,4.29,4.29,0,0,0,.72,0,5.74,5.74,0,0,0,1-.21,5.93,5.93,0,0,0,1.79-.91,7,7,0,0,0,1.72-1.91c-.1.25-.19.49-.31.74A9.22,9.22,0,0,1,67.88,52.13Z"/><path d="M63.81,61.77c-.51.17-1,.4-1.47.59-.34-.48-.66-1-1-1.5s-.64-1.16-.92-1.77a15.28,15.28,0,0,1-.7-1.85,10.1,10.1,0,0,1-.28-1.35A13.14,13.14,0,0,0,64,55.21a14.27,14.27,0,0,0,4.37-2.5,8.63,8.63,0,0,0,1.77-1.85,10.92,10.92,0,0,0,1-1.9,2.13,2.13,0,0,0,1.2,0,3.12,3.12,0,0,0,1.27-.83,7.4,7.4,0,0,0,1.49-2.51,15.08,15.08,0,0,0,.76-2.76A18,18,0,0,0,76.13,40c-.33.9-.59,1.81-.87,2.69s-.55,1.78-.89,2.63c-.16.43-.34.84-.54,1.25a8.23,8.23,0,0,1-.69,1.14,3.15,3.15,0,0,1-1,.87,2.2,2.2,0,0,1-1,.29l.1-.27a14.58,14.58,0,0,0,.69-2.4,17.37,17.37,0,0,0,.31-2.47,23.25,23.25,0,0,1-.87,3.2,12.16,12.16,0,0,1-.86,1,8,8,0,0,1-1.44,1.17,5.81,5.81,0,0,1-1.67.7,4.5,4.5,0,0,1-1.74.11l-.33-.05-.1.32a2.39,2.39,0,0,1-.37.75,2.67,2.67,0,0,1-.63.57c-.42.29-.92.53-1.41.82,0-.08.11-.15.16-.22a4.4,4.4,0,0,0,.75-1.61,2.31,2.31,0,0,1-.4.78,8.58,8.58,0,0,1-.53.7,13.07,13.07,0,0,1-1.2,1.27,13.75,13.75,0,0,1-1.33,1.09,1.5,1.5,0,0,1-.76,0,3,3,0,0,1-1.25-.88l-.12-.11-.16.1a2.05,2.05,0,0,1-.63.31,1.73,1.73,0,0,1-.64,0,1.4,1.4,0,0,1-.57-.25,1,1,0,0,1-.32-.47l-.14-.44-.39.28a2.23,2.23,0,0,1-.86.35,4.08,4.08,0,0,1-1,.1,2.43,2.43,0,0,1-.92-.18.71.71,0,0,1-.48-.48L51.9,52l-.51.61a5.21,5.21,0,0,1-1.76,1.35,4.3,4.3,0,0,1-1,.37,2.14,2.14,0,0,1-1,0l-.21-.07-.13.14a5.28,5.28,0,0,1-1.36,1,2.35,2.35,0,0,1-.76.28,1,1,0,0,1-.38,0,.65.65,0,0,1-.27-.17l-.17-.19-.12.18a1.73,1.73,0,0,1-.91.68,1.15,1.15,0,0,1-.58,0,.63.63,0,0,1-.27-.1l.12-.19a11.7,11.7,0,0,0,.66-1.39c.2-.47.37-.94.54-1.41a12,12,0,0,1,.58-1.39,4.32,4.32,0,0,0-1,1.18,14.52,14.52,0,0,0-.76,1.32c-.24.44-.46.88-.71,1.3a5.27,5.27,0,0,1-.37.58,1.09,1.09,0,0,1-.36.33l-.16,0,0,.08a1.69,1.69,0,0,1-.5.38,3.64,3.64,0,0,1-.68.24,3.47,3.47,0,0,1-.73.11h-.34c.11-.15.23-.29.34-.43.54-.75,1-1.5,1.5-2.29a20,20,0,0,0,1.25-2.44c-.62.68-1.2,1.38-1.75,2.1s-1.09,1.45-1.63,2.16a10.3,10.3,0,0,1-.82,1,2.51,2.51,0,0,1-1,.67,1.48,1.48,0,0,1-1.13-.13,3.19,3.19,0,0,1-.87-.52A14.63,14.63,0,0,0,36,56c.22-.26.43-.53.64-.81s.39-.53.6-.79c.82-1,1.7-2.05,2.57-3.08s1.73-2.06,2.59-3.11a30,30,0,0,0-3,2.69,37.37,37.37,0,0,0-2.73,3c-.21.26-.42.56-.61.82s-.39.53-.59.79c-.41.52-.85,1-1.3,1.5-.22.23-.46.47-.7.68a4.5,4.5,0,0,1-.37.28l-.16.07h-.19a2.28,2.28,0,0,1-.89-.32,3.41,3.41,0,0,1-.74-.52c.55-.81,1.1-1.63,1.64-2.46C31.86,56,31,57.12,30,58.3s-1.82,2.37-2.76,3.51a8,8,0,0,1-.73.8,1.33,1.33,0,0,1-.78.45,1.8,1.8,0,0,1-.87-.36l-.23-.15a1.24,1.24,0,0,1-.18-.14,1.07,1.07,0,0,1-.24-.33,1.53,1.53,0,0,1,0-.89c.1-.33.25-.67.39-1,.07-.16.14-.35.22-.5s.16-.3.24-.45c.19-.31.4-.6.62-.9.87-1.17,1.82-2.32,2.73-3.5l.68-.9.33-.46.33-.38A13.38,13.38,0,0,1,31.5,51.7c1.2-.85,2.46-1.64,3.72-2.42l1.92-1.14,1-.56.48-.29a2.2,2.2,0,0,0,.28-.18c.24-.17.44-.39.66-.58l.86-.77,1.7-1.46a2.65,2.65,0,0,0-.51.86,1.18,1.18,0,0,0-.09.57.63.63,0,0,0,.1.33.53.53,0,0,0,.33.21.93.93,0,0,0,.64-.17l.45-.28.89-.57,1.76-1.19c.57-.39,1.15-.82,1.72-1.2,1.16-.77,2.37-1.48,3.57-2.2L52,40.05a.85.85,0,0,0,.07.79,1.59,1.59,0,0,0,.74.64,3.81,3.81,0,0,0,1.91.25c.33,0,.64-.09,1-.14s.62-.15.92-.24.61-.19.9-.31l.59-.24a1.2,1.2,0,0,0,.4.31,1.68,1.68,0,0,0,.75.13,3.79,3.79,0,0,0,1.28-.35,9,9,0,0,0,1.09-.62q.43-.3.84-.63a6.32,6.32,0,0,0,2.38-.26A12.06,12.06,0,0,1,67.17,39a8.65,8.65,0,0,0,2.45-.55,21.77,21.77,0,0,1,2.31-.8,13.15,13.15,0,0,0-2.41.46,8.69,8.69,0,0,1-2.35.32,10.85,10.85,0,0,0-2.49.24,5.94,5.94,0,0,1-2.25.17l-.19,0-.15.12a10.38,10.38,0,0,1-1.9,1.25,3,3,0,0,1-1,.29c-.32,0-.56,0-.65-.25l-.14-.35-.33.16-.83.38-.84.35-.87.28c-.29.06-.58.17-.87.2a3.73,3.73,0,0,1-1.76,0,1.42,1.42,0,0,1-.72-.46A.85.85,0,0,1,52,40l.74-.42a10.23,10.23,0,0,1,1.9-.88,7.13,7.13,0,0,0-2.06.54c-.67.25-1.31.54-2,.85a33.86,33.86,0,0,0-3.71,2.09c-1.18.82-2.28,1.66-3.39,2.53l-.84.66-.41.33a.59.59,0,0,1-.33.16c-.09,0-.16-.06-.2-.21a1.48,1.48,0,0,1,0-.47,3.35,3.35,0,0,1,.35-.94s0,0,0,0c.58-.5,1.18-1,1.78-1.48a16.56,16.56,0,0,1,1.83-1.35l0,0,0,0A10.23,10.23,0,0,1,48,39.72c.8-.48,1.63-.9,2.47-1.3a54.11,54.11,0,0,1,5.18-2.12h0A19.27,19.27,0,0,1,58.8,35c1.07-.34,2.16-.64,3.26-.9s2.21-.49,3.32-.67a17.9,17.9,0,0,1,3.33-.24,11.39,11.39,0,0,1,3.21.73,22.12,22.12,0,0,1,3,1.41,21.84,21.84,0,0,1,2.81,1.83c.43.33.85.73,1.32,1.09.24.18.48.35.74.51a2.48,2.48,0,0,0,.43.22,1.31,1.31,0,0,0,.26.09l.17,0h.2l0,0A.28.28,0,0,0,81,39a.76.76,0,0,0,.28-.31,1,1,0,0,0,.11-.38,2.25,2.25,0,0,0-.06-.61,7.17,7.17,0,0,0-.33-1c-.26-.64-.54-1.26-.81-1.88s-.54-1.23-.76-1.85a17.48,17.48,0,0,1-.56-1.91,11,11,0,0,1-.37-3.89,5.83,5.83,0,0,1,.54-1.84,7.36,7.36,0,0,1,1.06-1.63,7.2,7.2,0,0,1,1.48-1.26c.27-.18.56-.34.85-.52a2.28,2.28,0,0,1,.41-.21,2.23,2.23,0,0,1,.44-.13,5.33,5.33,0,0,1,1.91,0,5.48,5.48,0,0,1,1.82.64,3.39,3.39,0,0,1,1.09,1,3.78,3.78,0,0,0-2.43.61,4.06,4.06,0,0,0-1.06,1,4,4,0,0,0-.53,1.38,3.86,3.86,0,0,1-.18.62.78.78,0,0,1-.12.19s0,0-.06,0l-.07,0-.1.06a1.6,1.6,0,0,0-.55.73,2.82,2.82,0,0,0-.15.79,7.09,7.09,0,0,0,.36,2.23l-.14-.07A7.12,7.12,0,0,1,81.89,30a2.77,2.77,0,0,0,.86,1.32,5.09,5.09,0,0,0,.64.48,3.82,3.82,0,0,1,.51.41c.67.59,1.26,1.32,2,2a1.56,1.56,0,0,0,.24.54l.46.67c.3.45.6.9.92,1.34l.7,1a13.48,13.48,0,0,1-.87,3.9,6.85,6.85,0,0,1-1.16,1.86l-.18.21-.19.19-.43.37a6,6,0,0,0-.79.88,16,16,0,0,0-1.19,2,2.92,2.92,0,0,1-.65.79,3.19,3.19,0,0,1-.42.3l-.22.13-.25.13a33.77,33.77,0,0,1-4.06,1.89,8,8,0,0,1-1,.3,5.06,5.06,0,0,1-.52.08,3.22,3.22,0,0,0-.62.11,3.26,3.26,0,0,0-.61.25l-.5.28-1,.56c-1.32.75-2.61,1.54-3.89,2.36q-1,.62-1.89,1.26c-.32.23-.62.46-.93.71a3.05,3.05,0,0,0-.82.95,5.54,5.54,0,0,0-.51,2.35c0,.38,0,.76,0,1.14a6.66,6.66,0,0,1-.06.79,2.55,2.55,0,0,0-.68,0A5.42,5.42,0,0,0,63.81,61.77Z"/><path d="M90.21,27.13a8.14,8.14,0,0,0-.82-1.81c-.34-.58-.69-1.16-1-1.76a2.07,2.07,0,0,0-.15-.25,3.66,3.66,0,0,0-2.29.79,3.8,3.8,0,0,0-.87,1,3.44,3.44,0,0,0-.34,1.24,4.63,4.63,0,0,1-.15.74,1.58,1.58,0,0,1-.2.42,2,2,0,0,1-.21.19l-.06,0h0s0,0,0,0a1.61,1.61,0,0,0-.37,1c-.09.71,0,1.51-.12,2.32l.19.08a3.44,3.44,0,0,1,.68.48,5.16,5.16,0,0,1,1.34,2,2.31,2.31,0,0,0,.17-.82,7.83,7.83,0,0,1,.11-.93,4.86,4.86,0,0,1,.25-.94,2.78,2.78,0,0,1,.57-.88A4.22,4.22,0,0,1,88.53,29a3.15,3.15,0,0,1,1.77-.15A4.06,4.06,0,0,0,90.21,27.13Zm-3.41.15a.85.85,0,1,1-.58-.89A.77.77,0,0,1,86.8,27.28Z"/><path d="M90.33,29.72c.06.3.13.61.21.91.15.6.32,1.2.49,1.79.36,1.19.73,2.37,1.1,3.55l.55,1.77c.18.58.32,1.19.53,1.78.41,1.19.9,2.33,1.39,3.47a56.25,56.25,0,0,1,2.65,6.87,15,15,0,0,1,.62,3.55,7.22,7.22,0,0,1-.24,2.13.09.09,0,0,0,0,0,13.78,13.78,0,0,0-.08-1.82,22.22,22.22,0,0,0-.69-3.24,40.94,40.94,0,0,0-2.38-6.15q-1.41-3-3.1-5.81c-.56-.94-1.14-1.88-1.73-2.8s-1.21-1.83-1.83-2.73c1,1.93,2.14,3.82,3.17,5.75s2,3.86,3,5.84a57.59,57.59,0,0,1,2.48,6,22.71,22.71,0,0,1,.84,3.14c0,.31.1.62.14.93-.09-.32-.19-.64-.29-1-.35-1-.76-2-1.16-3l-.61-1.51c-.21-.53-.47-1-.72-1.49-.52-1-1.06-1.9-1.61-2.84-1.09-1.87-2.19-3.74-3.38-5.56L87.9,36.48c-.29-.46-.59-.91-.9-1.36l-.47-.67a1.33,1.33,0,0,0-.64-.49c0-.11-.07-.22-.12-.33a1.54,1.54,0,0,0,.55-.75c.12-.29.22-.58.33-.86a8.55,8.55,0,0,1,.33-.81,2.48,2.48,0,0,1,.45-.64,5.82,5.82,0,0,1,1.34-1.05,6.07,6.07,0,0,1,1.5-.62.54.54,0,0,0,0,.35A3.55,3.55,0,0,0,90.33,29.72Z"/><path d="M103.8,101.41v.09s0,0,0,0a.21.21,0,0,1-.15.14h-.1l-.25-.05-.51-.13c-.67-.19-1.35-.42-2-.67-1.34-.49-4.16-1.79-4.48-1.48s1.45,1.5,2.07,2a11.72,11.72,0,0,1,.91.79l.41.42c.09.1.09.1.09.13a0,0,0,0,1,0,.06c-.09.12,0,.16-.48,0a10.84,10.84,0,0,1-1-.6,22.65,22.65,0,0,0-2.36-1.5L94.6,100a1.31,1.31,0,0,0,.14,1,8.84,8.84,0,0,0,1.11,1.45c0,.08,0,.06,0,.08v0a.1.1,0,0,1-.07,0h0l-.08,0a1.88,1.88,0,0,1-.3-.12,5.51,5.51,0,0,1-2.07-1.56,3.38,3.38,0,0,1-.58-1.11A3.87,3.87,0,0,0,92,98.36a19.48,19.48,0,0,0-2.75-2.29l.44,3.17a.66.66,0,0,1-.49.74c-.42.11-.65.36-.92.24s-.32-4.47-.4-5.1l0-.09-.06,0a10.43,10.43,0,0,0-1.18-.89C86.26,93.82,68,83.5,68,83.5l-1.27-.66-.63-.32a.93.93,0,0,1-.38-.38,1,1,0,0,1-.1-.54c0-.24,0-.48,0-.73,0-.48,0-1,0-1.44-.08-1.93-.26-3.84-.44-5.75-.08-.94-.16-1.91-.3-2.87s-.3-1.9-.47-2.84-.38-1.89-.61-2.82c-.12-.46-.25-.93-.38-1.39-.08-.23-.15-.47-.23-.7s-.08-.22-.13-.34a.2.2,0,0,0,0-.08l1-.36a6.3,6.3,0,0,1,.81-.19,2.09,2.09,0,0,1,.43,0c0,.2,0,.4,0,.6l.12,1.08.27,2.15.56,4.3c.19,1.44.39,2.87.62,4.3l.36,2.14a19.85,19.85,0,0,0,.45,2.14,6.6,6.6,0,0,0,.95,2,6.88,6.88,0,0,0,1.59,1.55C71.37,83.24,81.4,89,81.4,89c2.51,1.39,5,2.77,7.51,4.25.31.18.6.38.9.57l.41.3.42.35c.57.46,1.16.89,1.76,1.3s1.21.81,1.81,1.2,1.21.79,1.87,1.15a38.09,38.09,0,0,0,4,1.76q1,.39,2,.75l1,.35.51.18a.2.2,0,0,1,.14.13A.45.45,0,0,1,103.8,101.41Z"/></svg>