<svg id="Layer_1" data-name="Layer 1" xmlns="http://www.w3.org/2000/svg" width="128" height="128" viewBox="0 0 128 128"><title>Artboard 117</title><path d="M104.49,38.72a2.28,2.28,0,0,1-.43-1,.64.64,0,0,1,.16-.57,2.55,2.55,0,0,1,.44-.29,3.59,3.59,0,0,0,.57-.44c-.4.05-.81.08-1.21.1l-2.92-.06s1.12,1.85,1.35,2.37a4.88,4.88,0,0,1,.31,3.39h0a1.8,1.8,0,0,0,.14.78c.1.29.21.59.34.89a9.16,9.16,0,0,1,.3,1,1.79,1.79,0,0,1,0,1.16v0a2.58,2.58,0,0,0-.08,1.35,6.23,6.23,0,0,0,.13.65c.6.22,1.18.46,1.75.71.33.14.65.29,1,.41a1.85,1.85,0,0,0,.89.16,6.54,6.54,0,0,0,1.94-.5,1.54,1.54,0,0,0,.79-.46,1.7,1.7,0,0,0,.25-.73c-.66-.17-1.31-.33-2-.54A15.19,15.19,0,0,1,106,46.3c.75.21,1.5.38,2.27.53s1.37.27,2.07.38a10.4,10.4,0,0,0,.55-1.66,2,2,0,0,1,.58-1l.13-.12c-1.17-.72-2.18-1.51-3.29-2.25a23.06,23.06,0,0,1-3.12-2.64A8.57,8.57,0,0,1,104.49,38.72Zm-1-.83a.85.85,0,0,1-1.26,0,.48.48,0,0,1,0-.58.85.85,0,0,1,1.26,0A.48.48,0,0,1,103.53,37.89Z"/><path d="M112.1,43.93s0,0,0,0Z"/><path d="M41.17,71c-.64-.91-1.16-1.8-1.7-2.72s-1.13-2-1.68-3c-1.11-2-2.16-4-3.11-6.09A20.12,20.12,0,0,1,33.42,56c-.31-1.09-.61-2.18-.86-3.3s-.5-2.21-.7-3.33l0-.14c.05,2.51.11,5,.23,7.53.07,1.39.15,2.78.27,4.16s.27,2.76.53,4.09v.07a14.56,14.56,0,0,1-.08,2,4.77,4.77,0,0,1-.68,2,3.12,3.12,0,0,1-.81.77c-.3.2-.56.34-.84.51l-1.64,1c-1.09.65-2.17,1.31-3.24,2-.53.34-1.06.68-1.56,1a13.24,13.24,0,0,0-1.42,1.11l-.09.08-.1.05c-1.34.57-2.67,1.07-4.05,1.54-.67.24-1.37.46-2.07.65q-.52.15-1.08.27l-.57.1-.53.06a10.29,10.29,0,0,0-3.71,1.43,5.86,5.86,0,0,0-.79.56,1.58,1.58,0,0,0-.46.56,3.93,3.93,0,0,0-.11.86c0,.34,0,.69,0,1,0,2.83.13,5.67.2,8.53l.63,1.09s5.13.26,6.24.11C16,92.27,15,91.27,15,91.21c-.72-.63-3.13-.42-3.57-.41l-.48-.46-.11-.49a14,14,0,0,1-.29-2.49,4.75,4.75,0,0,1,.58-2.65,5.51,5.51,0,0,1,2-1.71,10.2,10.2,0,0,1,2.37-.86c3.15-.61,6.23-1.26,9.35-1.93l4.65-1,2.32-.53A13.48,13.48,0,0,0,34.05,78a19.51,19.51,0,0,0,4-2.48c1.05-.8,2.06-1.65,3.06-2.51C41.12,72.34,41.15,71.65,41.17,71Z"/><path d="M118.35,101.09a5,5,0,0,0-2.06-.61,11.13,11.13,0,0,0-1.16,0c-.35,0-.84,0-1.28,0a6.33,6.33,0,0,1-2.72-.62,3,3,0,0,1-.64-.46,3.53,3.53,0,0,1-.49-.64c-.23-.39-.42-.76-.62-1.14-.38-.75-.76-1.5-1.11-2.25q-1.08-2.27-2.09-4.54t-2-4.6c-.32-.77-.64-1.54-.93-2.34s-.61-1.5-1-2.24c-1.4-3-3.14-5.81-4.69-8.78l0-.07v-.1c0-1.74-.2-3.51-.36-5.26s-.35-3.52-.55-5.28-.42-3.51-.65-5.26l-.35-2.63-.19-1.32-.1-.65,0-.11-.25.51a25.38,25.38,0,0,1-1.49,2.45,25.94,25.94,0,0,1-1.76,2.27c-.32.36-.65.71-1,1.05a5.67,5.67,0,0,1-1.22.93l0,0h-.05c-.49.07-1,.12-1.47.17,0,0,0,0,0,0l.22,1,.44,2,.88,4q.85,4,1.65,8l2.56,3.07,1.32,1.57c.21.25.43.53.65.83l.58.86c1.5,2.3,2.86,4.66,4.23,7s2.67,4.75,4,7.16c.32.61.63,1.21.93,1.85.18.35.28.58.43.85a4.81,4.81,0,0,0,.55.73,11,11,0,0,0,2.86,2.33c1.72.18,3.45.35,5.18.51,1.48.12,3,.25,4.44.31A1.62,1.62,0,0,0,118.35,101.09Z"/><path d="M90.38,58c.32-.33.64-.66,1-1,.62-.7,1.22-1.42,1.79-2.16s1.14-1.5,1.65-2.29.3-.41.55-.79a3.81,3.81,0,0,1-2-1.17,5.39,5.39,0,0,1-1.25-2.25,7,7,0,0,1,.22-4.93l.06,0a6.69,6.69,0,0,0-.26,2.39,7.26,7.26,0,0,0,.52,2.32A7.88,7.88,0,0,0,93.91,50a6.62,6.62,0,0,0,1.63,1.42l.29.13c.12,0,.25,0,.38.07s.52,0,.79.05a10.41,10.41,0,0,0,1.57-.14,16.64,16.64,0,0,0,3-.86,11,11,0,0,0,1.13-.63.93.93,0,0,0,.4-1.1,7.83,7.83,0,0,1-.5-3.39c.26-1.16-.77-2.74-.42-3.47v0c.38-1-2.4-6-2.38-6a44.19,44.19,0,0,0,6.34-.4h0a1.31,1.31,0,0,0-.48-.44,15,15,0,0,0-3.17-1.3c-1.12-.3-2.27-.75-3.35-1.07a13.86,13.86,0,0,0-3.38-.48,6,6,0,0,0-3.17.94c-.49.29-1,.63-1.47,1a8.39,8.39,0,0,0-1.4,1.12,12.74,12.74,0,0,0-2.06,2.72,8.51,8.51,0,0,1,.6-1.21c-.85-.09-1.68-.21-2.52-.22a24.66,24.66,0,0,0-3,.09,14.77,14.77,0,0,0-2.21.37,9,9,0,0,0-2.31.86l-.09.05h-.13c-4.13-.44-8.29-.73-12.42-.87s-8.29-.21-12.42,0c-2.06.11-4.11.32-6.15.6-.51.08-1,.18-1.51.27a9.08,9.08,0,0,0-1.6.34l-.74.06a21.13,21.13,0,0,1-2.67-1,31.1,31.1,0,0,1-5-3.66A11,11,0,0,1,32.58,30a15.83,15.83,0,0,1-.65-2.47,1.26,1.26,0,0,0-.6-.85A6.52,6.52,0,0,0,27.4,26c-3.11.32-5.6,5.71-6,7.15S15.2,62,15.2,62a20.57,20.57,0,0,1-.84,2.85l-1.07,2.06A13.58,13.58,0,0,0,12.37,69a6.83,6.83,0,0,0-.14,2.26,5.47,5.47,0,0,0,.2,1.13,2.08,2.08,0,0,0,.58,1h.09a.81.81,0,0,0,.59-.21,3.78,3.78,0,0,0,.51-.55A8.68,8.68,0,0,0,15,71.39a12.62,12.62,0,0,0,.61-1.22A4.73,4.73,0,0,0,16,68.73c.06-1,0-2,0-3.09a12.52,12.52,0,0,1,.5-3c.32-2.32,4.9-27.4,8.17-32.12a6.46,6.46,0,0,1,1.1-1.27,3,3,0,0,1,.78-.51,2.65,2.65,0,0,1,.93-.23,2.61,2.61,0,0,1,2.65,2.32,11.14,11.14,0,0,0,2.53,5.27,40.87,40.87,0,0,0,4.63,4.56c-.67.24-1.33.49-2,.76a5.4,5.4,0,0,0-1.15.92,12.53,12.53,0,0,0-1,1.13,12.15,12.15,0,0,0-.93,1.24,7.74,7.74,0,0,0-.37,3c.12.55.27,1.1.41,1.64.29,1.09.62,2.17,1,3.25l1,3.22a19.06,19.06,0,0,0,1.37,3c.52,1,1.07,2,1.63,2.95l1.67,3c.57,1,1.14,1.94,1.73,2.9s1.19,1.93,1.82,2.76l.15.2v.24c0,2.31-.15,4.61-.27,6.91s-.26,4.59-.41,6.89c-.08,1.15-.17,2.3-.27,3.46-.05.57-.1,1.15-.19,1.75s-.2,1.09-.32,1.62c-.25,1.13-.53,2.25-.83,3.37s-.53,1.94-.86,2.94L46.77,102l7.82.06a5.1,5.1,0,0,0-1.68-1.86,4.4,4.4,0,0,0-1.52-.62,10.63,10.63,0,0,0-1.78-.14,7.88,7.88,0,0,1-3.76-1.08,3.46,3.46,0,0,1-1.36-1.6,2.71,2.71,0,0,1-.17-1.09,5.62,5.62,0,0,1,.2-1c.63-2.41,1.3-4.78,1.95-7.16s1.33-4.75,1.81-7.18l1.81-7.19c.29-1.19.57-2.39.83-3.6.13-.6.26-1.2.34-1.8a6.32,6.32,0,0,0,0-1.79,14.05,14.05,0,0,0-1.09-3.48c-.5-1.13-1-2.28-1.42-3.44a30.7,30.7,0,0,1-1.13-3.56,12.68,12.68,0,0,1-.32-1.86,17,17,0,0,1,.08-3.18,5.11,5.11,0,0,1,.69-1.77,7.38,7.38,0,0,1,1.17-1.44,6.77,6.77,0,0,1,1.48-1.08,13.41,13.41,0,0,0-2,2.87,9.38,9.38,0,0,0-.6,1.57,5.66,5.66,0,0,0-.16.82,10.76,10.76,0,0,0-.07,1.26c0,.39.07.8.07,1.2l.3.64a43.12,43.12,0,0,0,4.43,3A37.2,37.2,0,0,0,58,60.32a15.71,15.71,0,0,0,2.84.93,20.44,20.44,0,0,0,3,.35,21.61,21.61,0,0,0,3,0,14.29,14.29,0,0,0,2-.27c.9-1.19,1.79-2.4,2.78-3.53a47.16,47.16,0,0,1,2.83-5c.51-.82,1-1.63,1.5-2.45.24-.4.48-.82.69-1.25a3.71,3.71,0,0,0,.47-1.33,3.78,3.78,0,0,1-.4,1.37c-.2.43-.41.86-.64,1.28-.44.85-.91,1.68-1.39,2.51A46.61,46.61,0,0,0,72,58l0,0,0,0c-.79,1-1.52,2-2.26,3.07l-.76,1.1c-.13.18-.25.35-.4.53a.79.79,0,0,1-.12.15.5.5,0,0,1-.12.1l-.1.06s-.78.74-1.09,1c-.59.6-1.22,1.24-1.74,1.84A4.46,4.46,0,0,0,65,68.26a4.52,4.52,0,0,1-.28,1.38c-.13.37-.23.79-.35,1.2-.43,1.65-.83,3.33-1.29,5a35.2,35.2,0,0,1-1.71,4.94l-1.92,4.77-1,2.4c-.34.81-.62,1.57-1,2.43a12.69,12.69,0,0,0-1.11,2.21,2.44,2.44,0,0,0,0,2l0,.07,0,.1c.23,1,.44,2,.66,3l.32,1.46.4,1.77,0,.22,8.82,0c-.2-.26-1.16-1.8-2.25-1.75s-4.63.86-5.19-.31a2.68,2.68,0,0,1-.33-1,5.65,5.65,0,0,1,.21-1.4c.1-.43.22-.83.35-1.23.25-.81.53-1.6.82-2.38s.62-1.57,1-2.34.76-1.54,1.13-2.24c1.5-2.94,2.92-5.93,4.31-8.92a81.07,81.07,0,0,0,3.73-9.11l0-.13.09-.08,10.38-9.9c.86-.84,1.71-1.67,2.53-2.53a11.89,11.89,0,0,0,1.13-1.35c.34-.48.67-1,1-1.48.63-1,1.23-2.05,1.79-3.1a15.64,15.64,0,0,0,1.42-3.28,13.74,13.74,0,0,1-1,2.78q-.6,1.35-1.32,2.64c-.5.91-1,1.8-1.56,2.67a11.93,11.93,0,0,1-1.13,1.42c-.38.44-.77.87-1.16,1.29a29.7,29.7,0,0,0,3.27-.14c.59-.06,1.17-.13,1.75-.21.17,0,.12,0,.3,0q.73-.1,1.47-.24A5,5,0,0,0,90.38,58Zm2.29-21.53c.17-.44.36-.85.57-1.27a3.22,3.22,0,0,1,.57-1.74c.38-.24,1,.49,1.19.6a9.22,9.22,0,0,1,2.8,1.87l-.53-.06A4.16,4.16,0,0,0,96.14,35a11.92,11.92,0,0,0-1.3-.62c-.22-.1-.62-.53-.76-.47a22.23,22.23,0,0,0-.73,2.78,5.5,5.5,0,0,0-.26,1.24,1,1,0,0,0,.5.88,3.37,3.37,0,0,0,1.24.43v.07a2.44,2.44,0,0,1-1.46-.06,1.49,1.49,0,0,1-1-1.3A4,4,0,0,1,92.67,36.42ZM38.56,43.07c-.44.59-.36,2.2-1.43,3.18s-3.36.32-4.92,1.13a6.75,6.75,0,0,1,1.07-3c.89-1.16,4.52-2.9,4.92-3S39,42.49,38.56,43.07Z"/><path d="M24.22,111.77h5.24a8.17,8.17,0,0,1,3,.39A3.42,3.42,0,0,1,34,113.55a4.49,4.49,0,0,1,.09,4.32,3.37,3.37,0,0,1-1.34,1.38,3.54,3.54,0,0,1,1.83,1.41,4.42,4.42,0,0,1,.65,2.44,5.05,5.05,0,0,1-.84,3,3.39,3.39,0,0,1-2,1.48,20.42,20.42,0,0,1-3.69.2H24.22Zm2.64,2.66v3.69H28.6a17.7,17.7,0,0,0,1.94-.06,1.61,1.61,0,0,0,1.05-.57,2.27,2.27,0,0,0,.07-2.4,1.28,1.28,0,0,0-.75-.55,15,15,0,0,0-2.53-.11Zm0,6.34V125h2.45a7.69,7.69,0,0,0,2.07-.17,1.52,1.52,0,0,0,.77-.66,2.31,2.31,0,0,0,.31-1.26,2.27,2.27,0,0,0-.33-1.28,1.72,1.72,0,0,0-.88-.7,8.77,8.77,0,0,0-2.26-.19Z"/><path d="M49.45,127.73H46.58l-1.14-3.62H40.2l-1.08,3.62H36.31l5.09-16h2.8Zm-4.86-6.31-1.81-5.93L41,121.42Z"/><path d="M51.05,111.77h5.24a8.17,8.17,0,0,1,3,.39,3.42,3.42,0,0,1,1.47,1.39,4.49,4.49,0,0,1,.09,4.32,3.43,3.43,0,0,1-1.34,1.38,3.52,3.52,0,0,1,1.82,1.41A4.34,4.34,0,0,1,62,123.1a5.05,5.05,0,0,1-.84,3,3.45,3.45,0,0,1-2,1.48,20.42,20.42,0,0,1-3.69.2H51.05Zm2.63,2.66v3.69h1.75a17.34,17.34,0,0,0,1.93-.06,1.63,1.63,0,0,0,1.06-.57,2,2,0,0,0,.38-1.26,1.9,1.9,0,0,0-.31-1.14,1.28,1.28,0,0,0-.75-.55,15,15,0,0,0-2.53-.11Zm0,6.34V125h2.46a7.74,7.74,0,0,0,2.07-.17,1.52,1.52,0,0,0,.77-.66,2.31,2.31,0,0,0,.31-1.26,2.27,2.27,0,0,0-.33-1.28,1.71,1.71,0,0,0-.89-.7,8.62,8.62,0,0,0-2.25-.19Z"/><path d="M63.93,119.85a11.22,11.22,0,0,1,.85-4.7A6.36,6.36,0,0,1,67,112.4a5.86,5.86,0,0,1,3.3-.9,5.64,5.64,0,0,1,4.57,2.14,9.37,9.37,0,0,1,1.77,6.11A9.5,9.5,0,0,1,74.75,126a5.46,5.46,0,0,1-4.46,2,5.55,5.55,0,0,1-4.49-2A9.42,9.42,0,0,1,63.93,119.85Zm2.72-.11a6.78,6.78,0,0,0,1,4.13,3.13,3.13,0,0,0,5.18,0,7,7,0,0,0,1-4.2,6.8,6.8,0,0,0-1-4.1,3.23,3.23,0,0,0-5.23,0A6.85,6.85,0,0,0,66.65,119.74Z"/><path d="M78.38,119.85a11.39,11.39,0,0,1,.84-4.7,6.45,6.45,0,0,1,2.21-2.75,5.84,5.84,0,0,1,3.3-.9,5.64,5.64,0,0,1,4.57,2.14,9.37,9.37,0,0,1,1.77,6.11A9.5,9.5,0,0,1,89.2,126a5.47,5.47,0,0,1-4.46,2,5.55,5.55,0,0,1-4.49-2A9.36,9.36,0,0,1,78.38,119.85Zm2.72-.11a6.78,6.78,0,0,0,1.05,4.13,3.13,3.13,0,0,0,5.18,0,7,7,0,0,0,1-4.2,6.8,6.8,0,0,0-1-4.1,3.23,3.23,0,0,0-5.23,0A6.85,6.85,0,0,0,81.1,119.74Z"/><path d="M93.39,127.73v-16H96l5.36,10.66V111.77h2.46v16h-2.66l-5.27-10.41v10.41Z"/><path d="M29.13,16.23V9.51L24.34.27h3.09l3.08,6.31,3-6.31h3L31.77,9.53v6.7Z"/><path d="M38.12,16.23V.27h9.7V3H40.75V6.51h6.57V9.2H40.75v4.33h7.31v2.7Z"/><path d="M50.59,16.23V.4h2.64V13.53H59.8v2.7Z"/><path d="M62,16.23V.4h2.64V13.53h6.57v2.7Z"/><path d="M72.76,8.35a11.38,11.38,0,0,1,.85-4.7A6.36,6.36,0,0,1,75.81.9a5.86,5.86,0,0,1,3.3-.9,5.69,5.69,0,0,1,4.58,2.14,9.37,9.37,0,0,1,1.76,6.11,9.5,9.5,0,0,1-1.87,6.26,5.46,5.46,0,0,1-4.46,2,5.53,5.53,0,0,1-4.48-2A9.37,9.37,0,0,1,72.76,8.35Zm2.72-.11a6.76,6.76,0,0,0,1,4.13,3.15,3.15,0,0,0,2.6,1.38,3.12,3.12,0,0,0,2.58-1.37,7,7,0,0,0,1-4.2,6.88,6.88,0,0,0-1-4.1,3.24,3.24,0,0,0-5.24,0A6.85,6.85,0,0,0,75.48,8.24Z"/><path d="M89.61,16.23,86.47.27h2.71l2,11,2.39-11h3.15L99,11.42,101,.27h2.66l-3.18,16H97.67L95.05,4.29,92.46,16.23Z"/></svg>