<svg id="Layer_1" data-name="Layer 1" xmlns="http://www.w3.org/2000/svg" width="128" height="128" viewBox="0 0 128 128"><title>Artboard 119</title><path d="M31.13,128v-3l7.11-10.69H31.93V111.5h9.9v2.59l-7.4,11.12h7.7V128Z"/><path d="M44.09,128V111.5h10v2.79H46.81V118h6.8v2.78h-6.8v4.48h7.57V128Z"/><path d="M56.92,111.5h5.41a8.46,8.46,0,0,1,3.13.41A3.48,3.48,0,0,1,67,113.33a4.66,4.66,0,0,1,.09,4.48,3.57,3.57,0,0,1-1.38,1.42,3.63,3.63,0,0,1,1.88,1.47,4.52,4.52,0,0,1,.68,2.52,5.17,5.17,0,0,1-.87,3,3.59,3.59,0,0,1-2,1.54,21.73,21.73,0,0,1-3.81.2h-4.6Zm2.72,2.75v3.81h1.8c1.08,0,1.75,0,2,0a1.76,1.76,0,0,0,1.1-.6,2,2,0,0,0,.39-1.3,2,2,0,0,0-.32-1.18,1.3,1.3,0,0,0-.78-.57,16,16,0,0,0-2.62-.11Zm0,6.56v4.4h2.54a7.71,7.71,0,0,0,2.14-.18,1.55,1.55,0,0,0,.79-.68,2.34,2.34,0,0,0,.33-1.3,2.37,2.37,0,0,0-.35-1.33,1.84,1.84,0,0,0-.91-.72,8.86,8.86,0,0,0-2.33-.19Z"/><path d="M70.8,128V111.5h5.75a8.15,8.15,0,0,1,3.15.44,3.46,3.46,0,0,1,1.55,1.55,5.26,5.26,0,0,1,.61,2.62,4.91,4.91,0,0,1-.93,3.12,4.12,4.12,0,0,1-2.64,1.49,6.91,6.91,0,0,1,1.46,1.38,19.83,19.83,0,0,1,1.56,2.68L83,128H79.69l-2-3.59A24.71,24.71,0,0,0,76.27,122a2.23,2.23,0,0,0-.81-.67,3.56,3.56,0,0,0-1.37-.19h-.57V128Zm2.72-9.52h2a9.89,9.89,0,0,0,2.36-.17,1.45,1.45,0,0,0,.82-.65,2.43,2.43,0,0,0,.32-1.32,2.27,2.27,0,0,0-.32-1.27,1.53,1.53,0,0,0-.85-.65,10.16,10.16,0,0,0-2.22-.13H73.52Z"/><path d="M96.87,128h-3l-1.19-3.74H87.31L86.19,128h-2.9l5.26-16.5h2.9Zm-5-6.53L90,115.35l-1.84,6.12Z"/><path d="M19.84,6.08a3.71,3.71,0,0,0,.43,1,2.28,2.28,0,0,0,.8.64l1.12.52a1.88,1.88,0,0,1,.75.57l.38-.35A2.26,2.26,0,0,1,23.73,8l.49-.25a5.2,5.2,0,0,1,1-.31l.44-.11a12.53,12.53,0,0,1-3.77-2.68l-.41-.38A4.73,4.73,0,0,1,21,3.83c-.28-.32-.46-.67-.7-1a3.2,3.2,0,0,0-1.46-1.15,12.14,12.14,0,0,0,.31,2C19.34,4.55,19.59,5.33,19.84,6.08Z"/><path d="M25.73,7.28l0,.06c.42-.09.84-.16,1.26-.22A6.71,6.71,0,0,1,26.47,6a8.81,8.81,0,0,1-.15-3.21,13.3,13.3,0,0,1-3.23,1.77C23.46,4.88,25.19,6.69,25.73,7.28Z"/><path d="M31,3.64a7.27,7.27,0,0,1,.85,1.67,17.58,17.58,0,0,1,.39,3.32l.79.78c.11-.2.4-.68.62-1s1.16-2.53,1.55-3.47c-.85-.7-1.47-1.23-1.75-1.47a6.12,6.12,0,0,0-3.64-1.52h0l.21.25A14.63,14.63,0,0,1,31,3.64Z"/><path d="M34.23,9.06a4.28,4.28,0,0,0-.12,1.44l.92.91.64-.85S37,9,37.2,8.65a7.56,7.56,0,0,0,.57-1.59L37,6.45A36.61,36.61,0,0,0,34.23,9.06Z"/><path d="M36.61,11.28a3.31,3.31,0,0,0-.54,1.15l1,1c.41-.33,1.56-1.25,1.62-1.25s1.28-2.4,1.6-3h0c-.24-.19-.48-.38-.71-.58C39.05,9,36.92,10.92,36.61,11.28Z"/><path d="M38.27,14.59l.74.73c.3-.27,1.39-1.24,1.42-1.25s1.85-2.13,2.42-2.83l-.55-.45c-.67.56-2.71,2.25-2.74,2.32S38.64,14.17,38.27,14.59Z"/><path d="M40.14,16.43l1.68,1.78L44,16.75s1.22-2,1.85-3l-1-.85h0l-3,2Z"/><path d="M43.18,19.66c.71.76,1.42,1.52,2.14,2.26.36-.3,1.42-1.17,1.48-1.19S49.26,18,50,17.12c-.29-.35-.47-.57-.51-.6a15.67,15.67,0,0,0-1.45-1l-2.73,1.92S43.74,19.1,43.18,19.66Z"/><path d="M46.69,23.3c.33.33.67.66,1,1,.28-.24.95-.84,1-.87a4.71,4.71,0,0,1,1-1.25c.37-.22,2.28-1.15,3.11-1.56l-1.14-1.44c-1,.6-3.88,2.43-4.13,2.61A6,6,0,0,0,46.69,23.3Z"/><path d="M49,25.46a10.72,10.72,0,0,0,1,.74.15.15,0,0,0,.07,0,22.05,22.05,0,0,1,1.63-1.94c.25-.2,1.9-1.39,2.57-1.87L52.88,20.7l-3.22,3.07Z"/><path d="M51.47,26.53l1,.12a17.67,17.67,0,0,1,1.19-1.39A12.08,12.08,0,0,1,55.42,24l-1.16-1.51c-.56.56-1.85,1.85-1.94,2S51.66,26.07,51.47,26.53Z"/><path d="M57.25,26.37l-1.58-2.08c-.42.72-1.06,2-1.24,2.47C55,26.76,57.09,26.85,57.25,26.37Z"/><path d="M47.88,78.49c.06.54.18,1.14.21,1.63a4,4,0,0,1-.38,1.46,11.75,11.75,0,0,1-.54,1.06c-.52-.17-.89-.07-.65.31a1.06,1.06,0,0,1-.08,1.19c-.16.23-.55.74,0,.3l.2-.14c-.21,1-.43,2.19-.54,3-.06.41-.11.83-.14,1.25l-.16,1.79c-.1,1.05-.18,2.07-.27,3.11h0c-.61.28-1.16.6-.64.56a2.85,2.85,0,0,1,.59,0c-.07,1-.18,2.28-.2,3.37a.56.56,0,0,1-.32.5l-1.13.55a1.83,1.83,0,0,0-1,1.65l0,1c-.41-.27-2.87-1.57-2.91-1.61a5.93,5.93,0,0,0,1.19-1.26,13.7,13.7,0,0,0,1.62-5.87l.09-1.51.32.23c.36.27,0,.3-.08.68s0,.56.37,1.14.46-.31,1-1.33-.19-.19-.55.08-.66,0-.28-.57.58-.45,1-.75,0-.44-.44-.28a3.3,3.3,0,0,1-1.31.07L43,88.78a6.87,6.87,0,0,1,.84.14c1.15.28.6-.27.93-1s.11-.44-.54-.66c-.41-.14-.66.09-1.17.38l.09-1.5c.26,0,.61-.13,1.08-.2,1.38-.22.49-.55,1.21-1.49s.16-.71-.39-.38a5.46,5.46,0,0,1-1.82.64l0-.27v-.08c-.06-.26-.11-.53-.15-.79a1.13,1.13,0,0,0,.37,0c.37-.14.77-1.44.77-1.44a8.69,8.69,0,0,0-1.31.17c-.05-.57-.09-1.14-.11-1.72a12.73,12.73,0,0,1,2.13.89c.28.28.83-.88.87-1.31s-.48-.5-.82-.17A1.34,1.34,0,0,1,43.8,80a3.47,3.47,0,0,1-1-.44V79.5c0-.47,0-1,0-1.43.1,0,1.82-.94,2.62-1.47s.88-1.32.64-1.32-1.36.77-1.85.77a4.82,4.82,0,0,0-1.28.42,10.92,10.92,0,0,1,.26-1.65l1.68-.71c.09,0,.39-.41.57-.59-.3.12-1.09.32-2.24.79,0-.48-.07-1-.11-1.43a6.35,6.35,0,0,0,2.49-1.18,4,4,0,0,1-2.52.67c0-.36,0-.73-.08-1.09a1.55,1.55,0,0,0,.87-.47c.45-.57.8-.35,1.6-.54s.84-.52.84-.52a3.24,3.24,0,0,0-1.55.18c-.81.25-1,.63-1.8.8-.05-.57-.09-1.13-.15-1.7a2.5,2.5,0,0,0,.8-.34c.78-.5,1.28-.84.73-1.46a5.52,5.52,0,0,1-1.64.55c-.14-1.9-.1-3.61-.21-5.43a28.45,28.45,0,0,0,3.38,2.37L48.45,73l-.81,3.76,0,0v.07Z"/><path d="M112.29,84.55a1.77,1.77,0,0,1,.41,0c0,.48,0,1,0,1.43l-.43-.56S112.17,84.6,112.29,84.55Z"/><path d="M109.81,84a7.4,7.4,0,0,0-.42-1.6c.24-.2.6-.47,1.06-.88a3.24,3.24,0,0,1,2.35-.24c0,.77-.07,1.64-.08,2.55-.73-.64-1.11-.93-1.43-.94S110.42,83.45,109.81,84Z"/><path d="M109.9,85.1c0-.1,0-.22,0-.34.56-.65,1.28-1.42,1.28-1.42a12.27,12.27,0,0,0,.75,2.62,9.28,9.28,0,0,1,.77.65c0,.79,0,1.57,0,2.32,0,.24,0,.55,0,.92a3.79,3.79,0,0,0-1.83.19c-.13,0-.52.07-.94.15V88.83l1.31-.43-.37-1.54-1,.86v-.24Z"/><path d="M112.79,91.8a6.74,6.74,0,0,0-2.81.72V91l.16-.17,2.62-.45C112.77,90.77,112.78,91.27,112.79,91.8Z"/><path d="M112.84,93.57a13.39,13.39,0,0,0-2.86,1v-1.7a22.86,22.86,0,0,1,2.84,0C112.83,93.11,112.84,93.34,112.84,93.57Z"/><path d="M112.9,95.49l-2.75-.27a20,20,0,0,0,2.7-1.37C112.87,94.41,112.88,95,112.9,95.49Z"/><path d="M113.06,98.87v0a.5.5,0,0,1-.4.49,2.07,2.07,0,0,0-1.43,2,3.72,3.72,0,0,0,.08.57l-3.11-1.67A5,5,0,0,0,110,97a11.6,11.6,0,0,0,0-1.54l.89.44a16.87,16.87,0,0,1,2-.32C113,97,113,98.2,113.06,98.87Z"/><path d="M113.71,74.52a.49.49,0,0,1,0,.15,2.6,2.6,0,0,0-.19.42,18.75,18.75,0,0,0-.52,3.13c0,.39-.1,1.39-.16,2.71a5.61,5.61,0,0,1-2.19-.35s-.93.71-1.49,1.23a7.22,7.22,0,0,0-.43-.77c-.43-.68-.88-1.39-1-1.65s-.17-.35-.24-.52a8.9,8.9,0,0,1,1.07-1.22c.45-.38-.53-.07-1.52.17L107,77.7a15.78,15.78,0,0,1-.44-1.89,6.4,6.4,0,0,1-2.92-2.3l-.12-1.11a13.92,13.92,0,0,1-.08-2.88,15.12,15.12,0,0,1,.58-2.83,29.21,29.21,0,0,1,5.22-10.1,18.47,18.47,0,0,0,1.49-1.78c-.33,1.44-.55,2.89-.83,4.32a20.57,20.57,0,0,0-.2,7.69c-1.71.82-4.49,2.12-4.86,3.48,2.57-1.4,4-.86,4.51-.55s-.43-.66,0-1.33a6.32,6.32,0,0,1,.52-.7,15,15,0,0,0,.52,1.79c-.33.74-.88,1.74-1.36,1.89s-1.47.49-2.16.69c.75-.11,2-.24,2.45-.31s1.19-.84,1.48-1.24a11.23,11.23,0,0,0,1,1.89,6,6,0,0,1-1.75,1.09,5.35,5.35,0,0,0,2.2-.52c.06.07.11.14.17.2a5.57,5.57,0,0,1,1.08.91A.76.76,0,0,1,113.71,74.52Z"/><path d="M115.59,54.51S117.8,44,117.67,41.88a16.7,16.7,0,0,0-1.87-6.06,21.5,21.5,0,0,0-1.71-2.73,12.23,12.23,0,0,0-1.66-1.79,11.22,11.22,0,0,1,1.9,3.74,23.28,23.28,0,0,1,.75,4.58c0,.77.09,1.53.13,2.29a15.22,15.22,0,0,1-.1,2.34,18.24,18.24,0,0,1-1.14,4.5c0,.1-.07.18-.1.27.17,1.73.25,3.47.32,5.22s0,5.71,0,5.71-.91,2.61-1.53,5.26c-.52,2.2-.75,4.44-.9,5.17a13.61,13.61,0,0,0,.6,1.32,3.59,3.59,0,0,0,.6.74,8.64,8.64,0,0,1,1.25,1.11,1.52,1.52,0,0,1,.39,1,1.16,1.16,0,0,1-.17.58,25,25,0,0,0-.64,2.6,9.37,9.37,0,0,1,1.06,1.42A23.74,23.74,0,0,0,117.49,70l-2.25-10.13S115.38,55.59,115.59,54.51Z"/><path d="M113.41,48.54a18.44,18.44,0,0,0,1-3.87l.06-.46v0a15.3,15.3,0,0,0,0-3,4,4,0,0,0-2.44.33,24.21,24.21,0,0,1-4.66,1.93c-1.23.31-2.15,1.12-4.3,1.59s-3.23.67-4.66,1.12-6.23,2.34-7.29,2.28a9.73,9.73,0,0,1-2.15,1.14,7.26,7.26,0,0,0,.12,2,1.1,1.1,0,0,0,.13.34c0,.07.19.29.26.43l.23.4.14.27.12.24a16.15,16.15,0,0,1,.71,1.86c.11.36.32,1.1.58,2,.88-1.64,3.47-3.78,5-3.81a25.41,25.41,0,0,0,6.15-.57c1.68-.49,7.37-.65,10.26-2.41C112.94,49.76,113.18,49.15,113.41,48.54Z"/><path d="M99.51,74.3a13.4,13.4,0,0,1,3.36.63c0-.4-.07-.81-.11-1.24A27.17,27.17,0,0,0,99,72.6a26.3,26.3,0,0,0-4.29.25,20.1,20.1,0,0,0,.5,2.91A6.49,6.49,0,0,1,99.51,74.3Z"/><path d="M88.08,60.11c-.3-1-.74-1.68-1.43-1.77-.92-.12-.88.61-.36,1.57a3.5,3.5,0,0,1,.29.76,6.28,6.28,0,0,1,.59-.27A7.4,7.4,0,0,1,88.08,60.11Z"/><path d="M95.59,76.94c-.1-.25-.19-.5-.27-.76a16.8,16.8,0,0,1,4.23-1,11.44,11.44,0,0,1,3.52,1.48h0c.12.93.22,1.53.22,1.53l.06.73c-1.49-.74-4.22-1.46-4.78-1.73s-1.56.28-2.81,1.23A7.93,7.93,0,0,0,95.61,77v0Z"/><path d="M96.14,83.69l-.49.37c0-.37-.09-.91-.11-1.51a14.68,14.68,0,0,1,1.35-.79C97.42,81.52,96.65,83.31,96.14,83.69Z"/><path d="M97.85,87.26a2.42,2.42,0,0,1,1-.38c-.3.74-.6,1.5-.88,2.26-.8-.16-1.39-.42-1.24-.74A4.14,4.14,0,0,1,97.85,87.26Z"/><path d="M94.43,96.23c.2.29.6,1,1,1-.14.65-.26,1.28-.34,1.85a.79.79,0,0,1-.53.66l-1.3.41A2,2,0,0,0,92.07,102c-.6-.3-2.34-1.08-3.18-1.57.14-.11.49-.41,1-.85a4.73,4.73,0,0,0,1.25-1.76c.35-.8.8-1.91,1-2.58,0-.11.07-.22.11-.33a10.57,10.57,0,0,0,2.16-.56,8.33,8.33,0,0,1,1.74.25c-.13.48-.27,1-.4,1.48C94.75,95.75,94.25,96,94.43,96.23Z"/><path d="M96.87,92.32c-.12.36-.25.77-.39,1.21H94.14s-.74.13-1.52.29c.19-.58.38-1.15.55-1.72h0a22.15,22.15,0,0,1,2.32,0A3.62,3.62,0,0,1,96.87,92.32Z"/><path d="M96.73,90.55a4.73,4.73,0,0,1,.69.13c0,.11-.07.22-.11.33l-.22.65h0a10.8,10.8,0,0,0-3.52-.79l.19-.59a3.33,3.33,0,0,0,.56,0A14.75,14.75,0,0,1,96.73,90.55Z"/><path d="M102.23,82c-.34.38-.7.75-1,1.11-.06.07-.13.13-.19.19-1.06-.62-1.94-1-1.69-.32a4.89,4.89,0,0,0,.77,1.37,9.66,9.66,0,0,0-.6,1.14l-.22.48c-.64,0-1,.22-1.78.82-1,.72-2.37.84-1.33,1.89.45.45,1,1,1.49,1.43-.06.15-.11.31-.17.47-.47-.14-1-.29-1.16-.38a7,7,0,0,0-1.61-.53,4.44,4.44,0,0,0-.74,0l.47-1.51c.27-1,.77-2.25,1.06-3h0a3.11,3.11,0,0,0,1.12-.63c.87-.87.78-2.75,1.45-3.81s1.64,0,2.65.48C101.12,81.38,101.66,81.65,102.23,82Z"/><path d="M103.4,80a1.45,1.45,0,0,1-.05.3,2.77,2.77,0,0,1-.29.6,7.88,7.88,0,0,1-.55.74,24.94,24.94,0,0,0-2.48-2c-1.68-1.09-2.54.72-4.49,2.14a7,7,0,0,1,.06-.93c.06-.48.11-1,.14-1.48,1.12-.61,2.67-1.34,3.37-1.23.91.14,3,.84,4.26,1.18,0,.12,0,.24,0,.36Z"/><path d="M73.53,31.27c-1,.17-1.93.32-2.91.44a4.29,4.29,0,0,0-.28,2.44C70.78,35.3,72.51,32.15,73.53,31.27Z"/><path d="M102.68,72.14c0-.42,0-.83,0-1.24a4.71,4.71,0,0,0-3.54-1.58,19.76,19.76,0,0,1-4.64-.48c0,1.14.07,2.27.16,3.39a5.47,5.47,0,0,1,3.9-.7A25,25,0,0,0,102.68,72.14Z"/><path d="M84.72,58.34c-.32-3.46-.65-2.81.66-5.3a11.29,11.29,0,0,1,2.89-3.52c.08-.59.2-1.17.3-1.76.29-1.29.64-2.55,1-3.83l.1,0c-.23,1.29-.43,2.55-.58,3.83.5-.32,1.67-1,3.12-2a51.28,51.28,0,0,1,5.3-2.59c1.17-.62,5.5-1.06,7.34-2.18s2.62-.11,4-1.14a7.71,7.71,0,0,1,4.1-1.29,3.79,3.79,0,0,1,1.26.14,23.43,23.43,0,0,0-.47-2.68,3.89,3.89,0,0,0-1.82-1.45c-2-.76-2.16-.35-3.8-.25s-7.63,2.13-9.24,2.63a29,29,0,0,0-6.65,3.76c-1.42,1.15-2.76,2.63-4,3.24s-5,3.28-5.73,4.62a11,11,0,0,0-.77,6.84C82,56.57,83,60.63,83.16,61a4.59,4.59,0,0,0,1,1c.46-.24.91-.5,1.38-.76C85.12,60.84,84.91,60.34,84.72,58.34Z"/><path d="M108.85,56.3v0a19.87,19.87,0,0,0,2.06-2.68,10.84,10.84,0,0,1-4.68.44,10.83,10.83,0,0,0-5,.37,10.73,10.73,0,0,1-4.07.81c-1-.12-4.65,1.71-5.82,2.31.34,1.09.71,2.34,1,3.38,1-1.7,1.83-2.89,3-3.19s1.4-1.11,1.84-1.61.83-.47.63.37-.43,1.1.7.67,4.11-1.4,5.92-.7c1.48.57,2.94,1,3.36,1.17C108.19,57.17,108.52,56.73,108.85,56.3Z"/><path d="M43.37,27.11c.64-1.79,1.27-4,1.5-4.77l-.72-.78C43.89,22.57,43,26.2,43.37,27.11Z"/><path d="M105.58,61.17c.39-.7.81-1.38,1.25-2.05a5.79,5.79,0,0,0-1.58-.88c-1.28-.51-1.65-.9-3.34-.79a16,16,0,0,0-4.46,1.35,31.24,31.24,0,0,0-4.85,2.83c.16.48.29.89.39,1.15l.05.14a7.46,7.46,0,0,1,3.63-2c1.6-.34,4.3-1.53,6.09-.67a16.08,16.08,0,0,1,2.53,1.48C105.38,61.53,105.48,61.35,105.58,61.17Z"/><path d="M46.58,32.09c-.62,1.68-.93,3.13.19,3.15.27-.48.8-1.41,1.09-2.08.41-1,1.12-3.72,1.39-4.54.17-.53.42-1.24.57-1.68l-.24-.13a12.28,12.28,0,0,1-1-.81C48.2,27.15,47.12,30.63,46.58,32.09Z"/><path d="M103.26,66.58c.14-.49.3-1,.49-1.45a6.26,6.26,0,0,1-3.73-.06c-1.79-.46-4.53.09-6.09.46a13.55,13.55,0,0,1,.45,1.93c0,.18,0,.36,0,.54,1-.31,2.17.22,3.14-.09a14.37,14.37,0,0,1,5.34.17C103,67.58,103.12,67.08,103.26,66.58Z"/><path d="M104.8,62.68a3.39,3.39,0,0,0-.77-.54c-1.47-.83-1.93-1.63-3.7-1.3a14.74,14.74,0,0,0-3.79,1.33c-1,.42-2.38,1.45-3.12,1.81.14.42.29.84.42,1.26a10.66,10.66,0,0,1,1.73-.66,47.7,47.7,0,0,1,5.55-.87,13.34,13.34,0,0,1,3,.33C104.37,63.58,104.57,63.13,104.8,62.68Z"/><path d="M52.21,37.91c.18-.92.5-2.34.61-3.12A42.6,42.6,0,0,1,54.6,28.5c.22-.33.5-.89.68-1.24-.4,0-.8,0-1.21,0h0a5.58,5.58,0,0,0-.76,1.42,55.65,55.65,0,0,0-1.84,6,4.68,4.68,0,0,1-1.62,3.08c-.84.81-4,6.35-4.91,7.37S39.56,49,38.69,50.78a13.36,13.36,0,0,0-1.1,3s-.4-.64-.79-1.29a13.76,13.76,0,0,0,1.62,3.81c.1.17.21.34.32.5.95-1.17,2.51-4.34,3.28-5.42,1-1.41,4-3.82,4.56-5.18s4-6.89,4.94-7.69l.69-.59c0,.21-.08.4-.1.54.1-.08.37-.39.64-.63,0-.27,0-.43,0-.43S52.63,37.55,52.21,37.91Z"/><path d="M55.58,73.71l0-1.44c-1-.32-2.38-.72-3-.3A11.52,11.52,0,0,1,49.44,73l.08.28.14.41C50.51,73.75,53.53,73.72,55.58,73.71Z"/><path d="M88.34,58a4.38,4.38,0,0,1,1.12,2h.14c.74,0,1,.06,1.71.14-.14-.38-1.16-3.45-1.65-4.65-.26-.6-.47-1.23-.7-1.81a7,7,0,0,0-.33-.88l-.21-.44a2.35,2.35,0,0,1-.2-.58,8.81,8.81,0,0,1,0-2.12,13.69,13.69,0,0,0-1.31,2.17,10,10,0,0,0-1.25,4C85.64,57.17,87.42,57.25,88.34,58Z"/><path d="M55.5,69.06l0,2.31c-.95,0-2.14.12-3,.16a23.76,23.76,0,0,0-3.33.62L48.81,71l1.8-1.21c1-.7,2.41-.19,3.46-.72s.77-1,.77-1a11.32,11.32,0,0,1-1.75.57c-.93.22-2.09.62-1.69,0s.36-1.23,1.26-2,1.41-1.35,1.63-1.32-.4-.77-.4-.77l-.59.26c-.94,1-1.34,2.44-2.35,3.32a27.21,27.21,0,0,1-2.47,1.78l-.54-1.82c.69-.7,1.87-1.92,2.33-2.32.65-.58,1.36-2.16,2.24-2.46.7-.25,2.22-1,2.82-1.3,0,1.14.16,2.32.15,3C55.47,66.32,55.48,67.7,55.5,69.06Z"/><path d="M57.9,56.27l-.23.37a8.18,8.18,0,0,1-.72,1,1.36,1.36,0,0,1-.49-.42c-.38-.53.2-1.23-.38-1.73s-.61.58-.8.92a2.64,2.64,0,0,0,0,1.74c.11.33.34.77.47,1.21a2.12,2.12,0,0,0-.11.21,4.37,4.37,0,0,0-.31,1.83c-1,.19-2.6,1.5-3.15,1.71S50.42,65,49.69,65.49a23.24,23.24,0,0,0-2,1.86l-.34-1.14c.69-.93,1.9-2.56,2.31-3.07a13.74,13.74,0,0,1,1.5-1.82c.54-.48,1.54-3.65,1.89-4.52a26,26,0,0,1,1.85-3,3.22,3.22,0,0,1,1.69-.12c.93.19.77.62,1.08,1.42A4.33,4.33,0,0,1,57.9,56.27Z"/><path d="M60,50.23h0c-.09.47-.21.93-.32,1.38-.29-.45-.85-1.37-1.51-2.62-1-1.84-2.08-1.56-3.14-1.66a13,13,0,0,0-1.5.47,11.69,11.69,0,0,0-2.2,4.37A37.39,37.39,0,0,1,49.44,58c-.47,1.06-.13,1.82,0,1.74s1.4-4.71,1.61-5.27A38.74,38.74,0,0,1,52.56,50c.45-.63,3-1.57,3.89-1.14a6.16,6.16,0,0,1,2.25,1.63,5.55,5.55,0,0,1,.78,1.73,21.39,21.39,0,0,1-1,2.88v0a13.08,13.08,0,0,0-1.18-1.67c-.43-.47-2.12-.66-2.47-.23s-1.58,2-2,2.61S50,60.79,49.69,61.32s-1.86,3.14-2.53,4.12l-.37-1.23L46.73,64l-.17-.11-.36-.23c.12-.59.39-1.81.7-2.86.43-1.46,1.29-5.29,1.77-7s3.82-7.41,4.85-7.88,1.25,0,2.93.47c-.22-.77-1.21-1.42-2.24-2.84a4.9,4.9,0,0,0-.47-.68c-.39-.52-.22.73-.39,1.29s-.34.38-1.24,1.29-3.49,6.62-3.66,7.74-1.3,3.7-1.38,5a23.69,23.69,0,0,1-1.76,4.9c-.8-.55-1.56-1.12-2.3-1.74a33.78,33.78,0,0,1,2.11-5.92c1.05-1.71,3.23-6.13,3.82-7.39a71.89,71.89,0,0,1,4.14-6,13.66,13.66,0,0,1-.33-4.25c.31-.28.63-.48.71-.12a38,38,0,0,0,1.67,4.86,30.75,30.75,0,0,0,3,4,12,12,0,0,1,1.51,2.71A3,3,0,0,1,60,50.23Z"/><path d="M56.69,90.2a5.74,5.74,0,0,1-1.31.74c-.3.07-1.26,0-1.92.06l0-.93,1.22,0c.8,0,.16.24.68.45s.41-.69.58-1-.83-.2-1.21,0a4.38,4.38,0,0,1-1.28.25l0-1h.43c.57,0,1.42,0,1.87,0s.21-.34-.17-.34a12.2,12.2,0,0,1-2.15-.15l-.08-2a.3.3,0,0,0,.25,0c.25-.2,1.8,0,2.07,0,.11,0,.46.33.86.73C56.54,88,56.63,89.09,56.69,90.2Z"/><path d="M50.7,76.3v0l-.07-.13a10.79,10.79,0,0,1-.71-1.64c.82,0,2.42-.19,3.07-.21a12.76,12.76,0,0,0,2.6-.05l0,2.11h0v.11a4.33,4.33,0,0,0-.65-.14c-.62,0-2.09-1.1-2.46-1A12.84,12.84,0,0,0,50.7,76.3Z"/><path d="M56.46,79.51a10.26,10.26,0,0,0-2.83-1.3,1.34,1.34,0,0,0-1.64.68c-.2.42-.44.91-.67,1.41-.09-.43-.24-1.1-.28-1.31a13.29,13.29,0,0,1-.27-1.81h0a1.73,1.73,0,0,1,.34-.49c.66-.66,1.55-.37,2.15-.48s1,.78,2,1.28l.56.3a5.9,5.9,0,0,1,.48,1.2C56.37,79.15,56.42,79.33,56.46,79.51Z"/><path d="M56.62,80.94h0a8.1,8.1,0,0,1-.07,1.3,8.18,8.18,0,0,1-.36,1.59l0,.11v.1L56.35,86l-1.3-1s-.53-.3-.77,0-.58.29-1.05.5v-.22l-.05-.08a10.15,10.15,0,0,1-.79-1.54,5.58,5.58,0,0,1,1.14-.48c1.2-.35.9-.29,1.13-.62s-.29-.34-.63-.45a4.74,4.74,0,0,0-1.89.89c-.18-.5-.34-1-.49-1.51.45-.68,0-2.14,1.34-2.56s2,1.14,2.61,1.49C55.8,80.47,56.18,80.7,56.62,80.94Z"/><path d="M56.38,90.76a1.65,1.65,0,0,0,.32-.25c0,.34,0,.67,0,1h0l-.68-.18S56.14,90.87,56.38,90.76Z"/><path d="M57.11,98.54a.48.48,0,0,1-.25.47l-1.2.68a2.35,2.35,0,0,0-.78,2.29c-.31-.11-2.32-1.32-3-1.7.39-.46,1.19-1.6,1.37-1.9a2.58,2.58,0,0,0,.24-.47,2.18,2.18,0,0,0,.09-.54,36.3,36.3,0,0,0,0-4l-.07-1.57a9.25,9.25,0,0,1,1.83-.48c0,.06.77.53,1.43,1,0,1,0,2.05.08,3.06S57,97.46,57.11,98.54Z"/><path d="M67.31,51.15a70.73,70.73,0,0,1-2.66-10.81c-.33-3.07-.9-6.92-.57-8.3a8.27,8.27,0,0,1,.27-.9,8.36,8.36,0,0,1-1.3-.66,15.07,15.07,0,0,0-1.13,5.37,32.07,32.07,0,0,0,1.64,7.95,55.16,55.16,0,0,1,2,8.82c.28,1.87,1,5.55.79,7.16A43.88,43.88,0,0,1,65,65.11h.07a38.73,38.73,0,0,0,3.83.64A3.2,3.2,0,0,0,70,63.53c0-2-1.78-6-1.86-7.54A18.3,18.3,0,0,0,67.31,51.15Z"/><path d="M75.53,55.84a30.47,30.47,0,0,1-1.79-7c-.16-2.46,1.83-5.91,3.59-7.66a3.45,3.45,0,0,1,1.35-1.9c1.16-.87,4.5-3.82,5.86-4.55a32.68,32.68,0,0,0,5-3.68,23.57,23.57,0,0,1,6-3.19,18.32,18.32,0,0,1,7.51.43,7.42,7.42,0,0,0,3.6.1,30.91,30.91,0,0,0-3-1.2c-.44-.15-.88-.29-1.32-.4h-.16a32.22,32.22,0,0,1-4.52-.22c-2.47-.46-5.82,2-7.5,2.17S86.81,30.83,85.45,32,82,32.66,79.78,34s-3.74,4.31-6,6.7-.64-.8-.56-3.32.64-1.94,1.91-3.38a14.67,14.67,0,0,1,3.43-2.69c1.92-1,4.71-1,6.3-1.35a14.21,14.21,0,0,0,3.82-2.42l-2.47.74c-2.94.86-5.9,1.61-8.9,2.24l-.32.06h0A26,26,0,0,1,74.24,32c-1.12.39-2,.92-2.93,3s-.11,4.63,0,6.28,1,10,1.39,11.71,2.34,7.21,2.6,9a12.27,12.27,0,0,0,.81,2.76c.82-.22,1.63-.44,2.44-.68a5,5,0,0,0-.19-2.4C77.8,60.3,76.05,57.43,75.53,55.84Z"/><path d="M59.54,45.21a48.6,48.6,0,0,1-3.09-7.1c-.38-1.51.09-5.8.43-7.44a11.21,11.21,0,0,1,1.7-3.34,2.08,2.08,0,0,0-.48-.11h-.6c-.19.25-.6.74-1,1.15a13.64,13.64,0,0,0-2,5.4c-.28,2.24-.45,3.08.34,5.37a23,23,0,0,0,2.39,5.6,28.85,28.85,0,0,1,2.82,4.93,6.55,6.55,0,0,0,0-1.33h.1a11.09,11.09,0,0,1-.1,3.59,23.79,23.79,0,0,1-.85,3.5,17,17,0,0,1-.69,1.74,5.65,5.65,0,0,1-1.14,1.5,0,0,0,0,1,0,0A5.59,5.59,0,0,0,56,62.88c0,.14,0,.45,0,.87,1.17.14,2.37.3,3.57.47.46-2.68,1.93-10.55,2.08-12C61.81,50.42,60.33,46.63,59.54,45.21Z"/><path d="M64.58,52.45c-.4-1.13-1.59-5.49-2.44-7.58a29.19,29.19,0,0,1-2-7.81c-.06-2,.13-5.82.56-6.9a3.94,3.94,0,0,1,.57-1l-1-.81-.26-.2c-.52.9-1.17,2.06-1.49,2.66-.57,1.07-.17,4.53-.11,6.56s2.09,5.89,2.49,7.3,2,5.43,1.86,7.3A76.39,76.39,0,0,1,59.9,64.28c1.1.16,2.2.33,3.28.52h0A5.27,5.27,0,0,0,64,63.43c.86-2.15,1.43-2.6,1.37-4A47.08,47.08,0,0,0,64.58,52.45Z"/><path d="M70.87,53.39c-1.26-2.58-1.32-8.59-1.65-11.7s.26-6.62-.2-8.07a2.62,2.62,0,0,1,.07-1.75l-.94.07h0a8.5,8.5,0,0,1-.87-.07,64.31,64.31,0,0,0-.45,8.47,100.18,100.18,0,0,0,1.56,11.43c.65,2.4,2.15,9.48,2.8,11.17A4.77,4.77,0,0,1,71,65.79a23.71,23.71,0,0,0,3-.56h0a4.85,4.85,0,0,0,.28-2.88C73.78,61.06,72.13,56,70.87,53.39Z"/><path d="M36.43,45.49v0c2.49-2.38,7.5-7.66,8-8.41a9.26,9.26,0,0,0,1-4.28,34,34,0,0,1,.83-5.46A13,13,0,0,1,47.44,25l0,0-1-1A10.1,10.1,0,0,0,45,26.4c-.3,1-.35,3.23-.77,5.51s-1.76,3.41-3,5.12a52.4,52.4,0,0,1-6.41,6.12c.49.7,1,1.37,1.56,2l.12.13Z"/><path d="M40.06,35.32c1-1.83,2.64-3.85,2.83-5a8.48,8.48,0,0,1-.32-5.73,22.83,22.83,0,0,1,1.52-3.1l-1.65-1.81C42,20.8,39,27.75,39.23,29.81c.31,2.25-3.8,9.17-5,8.3s3-7,3-8.92,2.54-9.24,3.94-11l-1.26-1.39a23.92,23.92,0,0,0-1.66,2.4c-.84,1.42-1.48,9.2-1.94,11.09a25.28,25.28,0,0,1-4.51,7.38c.11.3.23.6.36.89.35.76.74,1.52,1.16,2.25a1.63,1.63,0,0,0,.11.17,5.49,5.49,0,0,1,.83-.46A15,15,0,0,0,40.06,35.32Z"/><path d="M36.53,23.93a12.68,12.68,0,0,0-1.46,3.52,13,13,0,0,1-3.36,4.9,10,10,0,0,1-1.33,1h0c.23.78.46,1.55.71,2.31,1.35-2.13,4.18-5.72,4.56-6.8C36.16,27.45,37,25,36.53,23.93Z"/><path d="M33.94,28.29c.46-1,.67-3.48,1.13-5.11a37.86,37.86,0,0,1,3.39-6.73s.27-.46.42-.65l-6.67-7c0,.49.24,1.09.29,1.73a2.32,2.32,0,0,1-.6,1.74l-.09-.07a2.29,2.29,0,0,0,.13-1.58c-.12-.51-.42-1-.57-1.65-.3-1.18-.36-2.35-.66-3.35a15.77,15.77,0,0,0-1.52-2.93A10.53,10.53,0,0,0,27.25.32c-.15.38-.29.73-.41,1.11a5,5,0,0,0-.15,1.44A11.37,11.37,0,0,0,27.49,6,8.25,8.25,0,0,0,28.7,8.17l.46.56.26.26a1.44,1.44,0,0,1,.3.37.57.57,0,0,1-.08.6,1.3,1.3,0,0,1-.36.28,2.85,2.85,0,0,1-.73.29l-.05-.11a4.51,4.51,0,0,0,.58-.46c.19-.16.23-.38.16-.33L29,9.45l-.31-.22a7.43,7.43,0,0,1-.59-.53A6.76,6.76,0,0,1,27,7.25c-.53.17-1.06.34-1.57.55a37.58,37.58,0,0,1-1.61,3.44c-.09.17-.2.41-.32.69,0,.06-.06.14-.09.21-.23.5-.46,1.06-.62,1.45a1.28,1.28,0,0,0-.09.22l-.07.16c0-.11.06-.26.11-.44s.08-.25.12-.4c.13-.42.29-.93.49-1.47.1-.3.22-.62.35-.93s.26-.63.4-.93a8.46,8.46,0,0,1,.38-.8,6.36,6.36,0,0,1,.7-1.1c-.54.26-1.13.49-1.36.93a9.48,9.48,0,0,1-1,1.15h0a35.79,35.79,0,0,0-1.35,6,4.26,4.26,0,0,0-.46.35l-.17.13-.4.32-.31.26-.16.14-.76.65c-.69.6-1.44,1.26-2.11,1.88-.27.24-.52.48-.76.71l0,0c.23-.26.59-.62,1-1.05.23-.25.49-.51.75-.78.68-.72,1.4-1.48,1.95-2.08l.45-.5c.19-.2.33-.35.42-.46a40.88,40.88,0,0,1,1.81-5.5,14.8,14.8,0,0,1-1.82,1.42,3.07,3.07,0,0,1-.46.27,2.08,2.08,0,0,0-.31.23,2.3,2.3,0,0,0-.47.62,6,6,0,0,0-.47,1.72,7.61,7.61,0,0,1-.21,1.07,3.7,3.7,0,0,1-.56,1A14.36,14.36,0,0,1,17,18c-.47.47-2.39,3.17-2.39,3.17-.85,1-1.7,2-2.47,3.05-.38.52-1,.8-1.27,1.36a2.9,2.9,0,0,0-.52,1.7,4.84,4.84,0,0,0,2,3,2.44,2.44,0,0,0,1.29.06,3.82,3.82,0,0,0,1.28-.63,27.41,27.41,0,0,0,2.23-1.8l.08.07a16.65,16.65,0,0,1-2.08,1.94,5,5,0,0,1-1.44.71,2.68,2.68,0,0,1-1.51,0h0v0h0c.1.38.5,1.39,1,1.27a12.83,12.83,0,0,1,2.84,0c.13,0,.22,0,.28-.1a3.27,3.27,0,0,0,.3-.35,14.26,14.26,0,0,0,1-1.74,7.36,7.36,0,0,1,1.73-.84,12.38,12.38,0,0,0,.41-1.5,6.2,6.2,0,0,1-1.95-.68,9.3,9.3,0,0,0-1.53-.82c-.27-.12-1.3-.71-1.3-.71a2.28,2.28,0,0,1,1.75.35,12.66,12.66,0,0,0,1.74.83,12.81,12.81,0,0,0,2,.52,5.12,5.12,0,0,1-.23,1.66L21.4,28a3.24,3.24,0,0,1,.13-1,10,10,0,0,0,.11-2.15c0-.61-.34-.91-1-1.45a13.74,13.74,0,0,0-2.26-1.58c-.56-.26-1.35-.54-1.35-.54l.07-.22c.51-.51.8-.46.93-.4a18.14,18.14,0,0,1,2.68,1.76c.88.75,1.74,1,1.66,1.93-.05.6-.06,2.22-.13,3.27l.6-.22.14-.05a1.13,1.13,0,0,1,0-.57,13.13,13.13,0,0,0,.65-2.24A3.19,3.19,0,0,0,23,22a3.86,3.86,0,0,0-2.22-1.38c-.32-.09-1.89-.33-1.89-.33V20c.77-.13,3.45-.16,4.23.86s1.58,2.33,1.3,3.53a8.84,8.84,0,0,0-.57,2.72l2.73-1c0-.44,0-.84-.3-1s-.29-1-.47-1.8a9,9,0,0,0-.43-1.76c-.32-.8-.48-1.51-1-1.75s-1.38-1-1.91-1H21s-.22-.23-.22-.23c.67-.69,1.52-.9,2-.5s.88.8,1.28.5,1-1.91,1.5-2c-.25.72,0,1.27-.53,1.75a6.07,6.07,0,0,0-.81.9s1.25.09,1.34.72.7,2.1.86,3a18.34,18.34,0,0,1,.22,3.23c.57-.21,1.15-.42,1.74-.61l.31-.12a4,4,0,0,0-.19-.81c-.2-.56-.52-.88-.41-1.37s-.27-1.15-.24-1.92-.36-3.51-.32-4.61.95-2.21,1.37-3.15c0,0,0-.3-.17-1a9.06,9.06,0,0,0,.44,1.06s-.72,2.6-.77,3.11,0,1.9,0,2.64a8.34,8.34,0,0,0,.1,2.27,7.27,7.27,0,0,0,.67,2,3,3,0,0,1,.28,1.51q.46-.16.93-.36l.45-.19c-.19-.44-.57-1.26-.77-1.69a16,16,0,0,1-.73-3.56,19.08,19.08,0,0,1,.24-3.16c.22-1.13-.05-3.51.21-2.51a6.94,6.94,0,0,1,.37,2.33c-.14.34,0,2.38-.14,3.29a9.49,9.49,0,0,0,.36,3.15c.17.83.39,1.66.52,2.12l.47-.2.11,0c-.14-1.48-.69-5.29-.69-6.27,0-1.2.3-4.58.71-5.18a7.68,7.68,0,0,1,.08,2.25,27.06,27.06,0,0,0-.07,4.67,34.17,34.17,0,0,1,.21,4.44l.16-.06.09,0h0a19.42,19.42,0,0,0,.9-1.89,17.53,17.53,0,0,0,.78-2h.1a9.14,9.14,0,0,1-.25,2.17,14.43,14.43,0,0,1-.63,2.14l0,.13,0,.1a1,1,0,0,1-.15.18.4.4,0,0,1-.18.11h-.05l-.06,0-.12.05a3,3,0,0,1-.5.19l-1,.35c-.66.22-1.3.53-2,.79h-.05l-.1,0c.32,1.56.73,3.09,1.17,4.62.1.34.2.67.29,1C30.88,30.92,33.57,29.1,33.94,28.29ZM12.63,27c-.15.36-1.12,1-1.43.64-.52-.52.2-1.21.2-1.21.55-.26.4-.66.69-.94S12.79,26.64,12.63,27Zm6.08-3.23a23.72,23.72,0,0,1,1.93,1.46,1.34,1.34,0,0,1,.11,1.2l-1.27-1.28c-.52-.51-1.06-.63-1.5-1s-2.08-.47-2.2-.51,0-.36,0-.36a1.54,1.54,0,0,1,1.07-.76C17.25,22.43,18.26,23.38,18.71,23.76ZM27.26,9.12v2a10,10,0,0,0-1.34,2.07c-.16-.28-1-.05-1,0l1.74-2Zm-3.87,5.34c-.45-.08.94-2.77,1.2-3.41s1-2.27,1-2.27h.26l-.54,1.68L27,8.27v.51s-1.73,2.46-2.34,3.43S23.84,14.53,23.39,14.46Zm2.7,3.74a2.47,2.47,0,0,1,.7-1.75,19.65,19.65,0,0,0-.06,2.2c.06.91.21,1.6.23,3C26.41,21.15,26.09,19,26.09,18.2Zm.48-4a4.33,4.33,0,0,1,.52.24.33.33,0,0,1,.12.46,2.6,2.6,0,0,1-1.41,1.17A2.53,2.53,0,0,1,24,15.73a.32.32,0,0,1-.13-.46,2.57,2.57,0,0,1,1.4-1.17,1.81,1.81,0,0,1,.8,0c.39-.81,1.3-2.64,1.55-2.46S27,13.43,26.57,14.2Zm6.48.26a57.53,57.53,0,0,0-.7,6.15c.1-2.74-.4-5.39,0-6.56s1.34-3.25,1.34-3.25l.54.81A10.52,10.52,0,0,0,33.05,14.46Z"/><path d="M80.26,47.34c2.38-2.68,5.35-4.07,6.61-5.39a61.09,61.09,0,0,1,6.81-6.28c2.38-1.72,12.37-4.17,14.42-3.51,1.49.48,3.64,1,4.7,1.34a8.43,8.43,0,0,0-1.39-2,10.31,10.31,0,0,0-.75-.73c-1.94-.18-4-.25-4.82-.31-1.46-.09-3.59-1-5.62-.82-2.13.92-5.9,1.6-7.84,2.66a12.09,12.09,0,0,1-4.07,3.34,18.54,18.54,0,0,1-4.45,3.3C82,39.81,79.8,42.6,78,44.36s-1.75,4.22-1.35,8,2.23,6.14,3.17,8.61a5.93,5.93,0,0,1,.52,2.43c.93-.3,1.85-.62,2.74-1h0c-1.4-2.87-2.23-5-2.81-6.09C79.6,55.11,77.88,50,80.26,47.34Z"/><path d="M42,60.54l.19.16c.41-1.54,1.38-5.07,2-5.85a52,52,0,0,0,3.45-5.53c.6-1.21,2.31-5.43,3.37-6.14s1.51-2.26.86-2.51-1.66.75-2.12,1.41S47.6,46.4,47,47.61a76.24,76.24,0,0,1-5.69,7.84c-.64.68-1.37,1.57-1.89,2.23A21.7,21.7,0,0,0,42,60.54Z"/><path d="M38.69,48.83a32.6,32.6,0,0,1,4.81-4.47c1.46-.83,4.06-4.91,5-6.18s3.1-8.68,3.1-8.68l.72-2.2a9.09,9.09,0,0,1-1.15-.07,18.42,18.42,0,0,0-1.49,3.21,18.82,18.82,0,0,1-1.58,4.72c.42,0,.45.14-.2.69-1,.88-3.62,4-5.64,6.11a29.84,29.84,0,0,1-5.84,4.81,20.8,20.8,0,0,0,.16,4.33c.29,0,.6,0,.6,0S38.52,49.06,38.69,48.83Z"/><path d="M37.72,102.1l4.81.11.13-.27s-3.24-1.83-3.27-1.83S37.72,102.1,37.72,102.1Z"/><path d="M49.69,102.89l4.82.11.13-.27s-3.24-1.83-3.27-1.83S49.69,102.89,49.69,102.89Z"/><path d="M86.86,102.89l4.81.11.13-.27s-3.24-1.83-3.27-1.83S86.86,102.89,86.86,102.89Z"/><path d="M105.94,102.89l4.82.11.12-.27s-3.23-1.83-3.26-1.83S105.94,102.89,105.94,102.89Z"/></svg>